<?xml version="1.0" encoding="UTF-8" standalone="no"?>
<!DOCTYPE svg PUBLIC "-//W3C//DTD SVG 1.1//EN" "http://www.w3.org/Graphics/SVG/1.1/DTD/svg11.dtd">
<svg width="100%" height="100%" viewBox="0 0 800 1536" version="1.1" xmlns="http://www.w3.org/2000/svg" xmlns:xlink="http://www.w3.org/1999/xlink" xml:space="preserve" xmlns:serif="http://www.serif.com/" style="fill-rule:evenodd;clip-rule:evenodd;stroke-linecap:round;stroke-linejoin:round;stroke-miterlimit:1.5;">
    <g transform="matrix(1,0,0,1,-555.441,-14.5484)">
        <path d="M1309.46,62.387L1309.46,1502.71L601.42,1502.71L601.42,62.387L1309.46,62.387ZM735.98,898.475C734.283,906.455 689.212,1050.72 679.956,1084.05C670.7,1117.38 658.279,1150.41 660.138,1169.43C661.997,1188.45 668.122,1197.4 674.729,1184.34C681.336,1171.29 673.522,1149.84 698.219,1087.43C722.916,1025.03 769.155,957.569 778.429,948.27C787.703,938.97 780.097,933.389 767.461,922.763C754.826,912.137 738.165,888.197 735.98,898.475ZM1197.66,92.705C1195.24,92.717 1200.31,246.448 1198.02,284.416C1195.68,323.214 1183.9,345.282 1183.98,361.442C1184.06,377.603 1199.68,405.726 1204.34,419.299C1207.94,429.792 1215.16,424.808 1214.61,416.565C1214.05,408.322 1207.94,391.392 1218.36,331.99C1228.94,271.6 1267.82,231.282 1267.82,231.282L1267.83,92.685C1267.83,92.685 1199.52,92.696 1197.66,92.705ZM1088.34,92.777C1087.23,137.169 1130.12,259.984 1137.38,279.798C1144.65,299.613 1155.57,338.211 1158.11,339.933C1160.64,341.655 1163.63,336.724 1159.26,322.575C1155.64,310.862 1152.6,286.927 1150.02,245.452C1147.44,203.977 1153.69,92.82 1153.69,92.82L1088.34,92.777ZM1220.67,447.958C1220.96,454.878 1258.82,505.766 1264.39,505.64C1269.37,505.527 1266.91,458.4 1267.06,440.217C1267.2,422.567 1268.65,375.159 1265.41,375.029C1262.17,374.898 1251.06,392.093 1239.67,409.698C1229.24,425.831 1220.34,439.924 1220.67,447.958ZM1007.86,92.934C1004.75,103.604 1010.26,164.182 1012.21,171.622C1013.4,176.168 1022.97,162.479 1025.86,157.613C1027.92,154.154 1030.55,151.379 1034.39,155.267C1038.23,159.155 1036.91,171.642 1033.62,180.625C1030.33,189.608 1020.9,203.466 1020.9,203.466C1033.01,241.514 1090.73,316.014 1104.58,330.829C1118.42,345.643 1154.35,382.253 1162.27,391.73C1170.2,401.207 1179.52,413.258 1180.86,411.291C1182.19,409.324 1171.06,394.333 1164.9,384.262C1158.75,374.192 1145.49,363.126 1108.56,323.731C1071.62,284.335 1065.56,232.864 1061.56,192.279C1057.55,151.693 1065.51,92.966 1065.51,92.966L1007.86,92.934ZM982.23,110.558C979.801,109.499 970.429,128.861 951.708,160.525C940.819,178.942 927.381,199.932 922.213,207.888C917.044,215.843 919.213,221.067 921.727,223.903C924.241,226.74 932.384,238.015 936.061,241.82C939.737,245.624 941.248,244.747 949.787,236.829C958.997,228.288 968.645,218.831 975.174,212.303C984.061,203.418 985.976,201.695 985.203,192.016C984.535,183.646 983.139,173.018 983.009,162.674C982.88,152.33 984.718,111.643 982.23,110.558ZM664.23,92.843C658.512,113.09 673.431,181.209 679.759,201.342C686.086,221.474 688.54,270.695 688.824,288.865C689.108,307.034 690.43,337.366 694.306,346.334C698.183,355.302 703.403,349.137 709.709,340.911C716.015,332.684 717.923,331.266 713.594,325.017C709.265,318.768 707.561,309.541 703.303,282.726C699.046,255.911 697.699,229.152 697.171,199.029C696.643,168.907 711.299,92.742 711.299,92.742L664.23,92.843ZM660.591,361.336C661.02,372.096 661.003,388.961 661.011,394.209C661.02,399.456 663.069,401.247 670.151,393.693C677.233,386.138 683.403,381.392 685.819,377.83C688.235,374.268 689.713,371.528 685.283,364.067C680.852,356.607 670.36,337.658 667.499,334.176C664.639,330.694 660.925,322.792 660.929,331.565C660.934,340.338 660.162,350.575 660.591,361.336ZM658.849,1343.72C658.041,1348.74 658.408,1362.45 658.7,1366.43C658.992,1370.42 673.354,1370.12 715.282,1365.43C757.209,1360.73 786.837,1352.98 788.051,1346.6C789.265,1340.23 778.682,1337.95 763.752,1324.92C748.823,1311.9 735.471,1296.12 729.753,1306.71C724.036,1317.3 712.263,1331.37 693.735,1335.33C675.207,1339.3 659.638,1338.83 658.849,1343.72ZM663.59,619.782C662.488,625.209 663.015,633.265 669.723,635.829C676.431,638.392 717.915,650.803 725.127,652.32C732.339,653.837 734.69,651.718 734.435,648.86C734.179,646.003 736.215,640.89 737.831,632.627C739.447,624.364 735.758,620.455 727.92,619.42C720.083,618.384 684.823,616.795 676.455,614.73C668.087,612.664 664.764,614.006 663.59,619.782ZM960.616,1214.41C956.399,1214.5 957.668,1220.46 958.08,1231.96C958.491,1243.46 958.478,1327.79 952.024,1356.82C945.57,1385.86 936.406,1396.43 931.309,1402.01C926.211,1407.58 926.079,1411.82 930.24,1414.47C934.4,1417.11 939.038,1419.72 955.84,1430C972.641,1440.28 982.98,1447.46 989.741,1447.62C996.501,1447.77 998.775,1445.24 996.683,1440.38C994.591,1435.52 987.37,1420.4 981.735,1350.57C976.099,1280.74 981.419,1225.93 982.335,1219.83C983.25,1213.74 981.419,1211.83 978.198,1212.14C974.976,1212.46 964.833,1214.32 960.616,1214.41ZM1036.58,1265.6C1023.07,1265.77 1019.72,1269.61 1023.25,1276.3C1026.77,1282.98 1036.47,1333.27 1037.04,1369.3C1037.61,1405.33 1029.35,1426.23 1024.62,1436.92C1019.9,1447.6 1023.07,1449.27 1028.74,1449.61C1034.4,1449.95 1080.65,1449.48 1090.23,1449.67C1099.81,1449.86 1099.49,1445.29 1097.24,1441.56C1094.99,1437.84 1090.07,1428.75 1078.83,1397.41C1067.6,1366.08 1046.73,1286.15 1045.99,1275.85C1045.24,1265.55 1040.66,1265.55 1036.58,1265.6ZM1076.92,1262.56C1071.7,1263.83 1074.43,1267.21 1077.42,1272.15C1080.4,1277.09 1110.75,1331.95 1122.97,1362.68C1135.19,1393.42 1137.98,1422.15 1140.04,1435.29C1142.09,1448.42 1143.51,1449.58 1150.55,1449.67C1157.59,1449.76 1183.58,1449.19 1195.82,1449.93C1208.06,1450.67 1206.47,1443.66 1201.73,1436.69C1196.98,1429.72 1170.15,1387.41 1153.05,1356.69C1135.94,1325.97 1107.59,1275.5 1104.53,1267.72C1101.46,1259.94 1096.73,1258.33 1092.89,1259.31C1089.06,1260.28 1082.32,1261.25 1076.92,1262.56ZM1176.74,1301.51C1178.71,1305.13 1200.5,1337.79 1214.81,1358.15C1229.12,1378.52 1248.65,1403.81 1259.19,1415.55C1269.73,1427.28 1265.74,1402.44 1265.25,1382.15C1264.76,1361.87 1264.76,1307.92 1265.43,1298.52C1266.1,1289.13 1263.19,1286.69 1259.76,1288.04C1256.33,1289.39 1237.05,1293.77 1221.86,1296.63C1206.67,1299.5 1191.46,1297.11 1183.29,1295.2C1175.11,1293.3 1173.74,1296.03 1176.74,1301.51ZM1125.95,1253.81C1133.9,1266.59 1152.29,1263.58 1175.15,1259.77C1198.01,1255.95 1239.31,1244.25 1254.51,1241.38C1269.7,1238.51 1265.09,1226.98 1265.98,1215.18C1266.86,1203.39 1263.25,1196.82 1258.6,1193.66C1253.95,1190.5 1228.95,1179.79 1218.64,1173.35C1208.33,1166.92 1203.02,1166.44 1201.33,1171.56C1199.64,1176.68 1189.21,1196.83 1177.9,1211.01C1166.6,1225.19 1144.55,1239.65 1134.64,1243.45C1124.72,1247.25 1123.3,1249.55 1125.95,1253.81ZM1009.32,1211.03C1003.27,1213.66 1004.89,1214.86 1007.54,1222.31C1010.19,1229.76 1012.02,1235.38 1016.98,1233.71C1021.93,1232.04 1072.48,1213.52 1093.52,1204.04C1114.56,1194.57 1169.26,1162.21 1176.79,1157.27C1184.32,1152.32 1184.96,1149.41 1180.88,1146.72C1176.8,1144.03 1153.05,1127.91 1148.35,1124.8C1143.65,1121.69 1139.01,1117.52 1136.22,1122.13C1133.43,1126.75 1132.13,1133.55 1123.18,1148.1C1114.23,1162.64 1104.27,1169.63 1078.75,1184.87C1053.22,1200.1 1015.6,1208.29 1009.32,1211.03ZM709.751,370.135C709.306,370.869 704.431,378.346 719.846,375.471C735.261,372.596 791.102,349.323 821.939,333.472C852.776,317.621 905.499,278.249 913.27,272.955C921.041,267.66 918.879,264.869 917.924,262.142C916.969,259.416 910.584,249.08 907.323,242.604C904.063,236.128 901.099,232.986 896.683,239.546C892.047,246.432 853.807,289.04 804.85,323.031C755.892,357.022 744.405,348.317 738.05,345.342C731.696,342.367 728.916,342.816 726.697,346.358C724.479,349.901 712.063,366.317 709.751,370.135ZM886.113,359.758C853.967,385.547 809.001,396.522 773.65,404.845C738.3,413.169 718.34,408.145 710.02,403.863C701.7,399.582 696.996,399.057 692.082,402.25C687.168,405.443 676.708,414.062 666.788,423.231C656.867,432.4 667.833,433.715 679.739,429.761C691.645,425.806 705.238,423.572 728.271,423.536C751.303,423.499 763.776,422.515 799.918,416.062C836.06,409.61 884.234,385.11 893.274,380.066C902.314,375.023 900.277,373.087 899.1,370.905C897.924,368.724 895.001,365.173 892.947,361.273C890.892,357.374 888.678,357.699 886.113,359.758ZM658.554,1425.67C658.199,1430.68 658.702,1443.38 658.933,1446.39C659.163,1449.4 664.025,1449.11 669.875,1449.08C675.725,1449.05 796.513,1449.6 802.454,1449.5C808.395,1449.4 810.44,1447.52 813.108,1440.9C815.775,1434.28 824.213,1423.42 835.041,1415.86C845.412,1408.62 863.066,1406.52 868.043,1405.37C873.02,1404.22 874.51,1400 865.574,1395.72C856.639,1391.44 816.909,1367.5 811.662,1363.63C806.415,1359.76 800.244,1362.75 800.269,1367.55C800.294,1372.36 798.626,1379.95 789.037,1387.55C779.448,1395.16 760.901,1407.31 721.463,1413.23C682.025,1419.16 659.025,1419.03 658.554,1425.67ZM719.042,721.081C717.59,725.507 708.486,747.058 702.796,765.437C697.107,783.816 690.969,787.998 703.988,803.428C717.008,818.858 754.155,856.824 811.331,893.188C868.506,929.553 970.694,949.853 984.734,953.05C998.773,956.247 991.644,946.956 980.328,930.562C969.012,914.169 965.568,909.959 961.41,911.204C957.252,912.449 948.407,916.2 932.291,913.62C916.175,911.04 903.63,908.568 843.575,873.798C783.519,839.027 735.872,737.445 730.117,724.522C724.362,711.599 720.493,716.655 719.042,721.081ZM1167.77,756.881C1163.31,768.017 1161.29,780.515 1171.83,780.354C1182.38,780.194 1249.11,762.413 1257.27,759.675C1265.42,756.938 1267.39,752.555 1266.9,745.476C1266.42,738.397 1265.06,733.02 1257.05,735.866C1249.04,738.713 1192.47,750.584 1181.05,750.562C1169.62,750.541 1169.74,751.936 1167.77,756.881ZM1116.64,691.52C1112.86,704.864 1112.18,714.559 1119.05,714.381C1125.92,714.202 1136.02,714.022 1165.81,711.425C1195.6,708.828 1247.85,692.156 1257.48,689.816C1267.1,687.477 1267.03,682.119 1267.16,675.805C1267.3,669.49 1263.45,665.989 1259.01,666.788C1254.58,667.588 1244.27,671.007 1214.26,678.173C1184.26,685.339 1138.17,687.496 1129,686.363C1119.83,685.231 1117.86,687.213 1116.64,691.52ZM1046.1,673.43C1041.62,698.18 1042.54,701.004 1046.3,702.545C1050.05,704.087 1053.2,705.295 1065.66,708.044C1078.12,710.792 1081.44,698.651 1083.56,691.998C1085.67,685.345 1085.59,682.317 1080.77,680.832C1075.94,679.348 1066.63,675.673 1059.84,672.917C1053.04,670.161 1047.11,667.841 1046.1,673.43ZM932.126,323.532C927.421,328.026 916.718,336.449 912.947,339.62C909.176,342.792 910.239,345.087 912.413,348.783C914.587,352.478 916.853,357.505 919.76,360.813C922.666,364.12 926.977,364.524 929.494,362.31C932.012,360.095 946.953,351.296 951.166,348.496C955.379,345.695 953.056,342.585 950.257,339.479C947.471,336.387 945.475,331.624 941.594,325.991C937.733,320.389 935.217,320.578 932.126,323.532ZM902.79,92.873C899.994,106.797 868.45,170.317 851.69,196.151C834.93,221.985 812.966,239.999 797.569,252.404C782.172,264.809 770.665,277.229 758.402,292.589C746.14,307.948 739.084,321.993 741.9,323.769C744.717,325.545 755.164,313.446 768.886,297.508C782.609,281.57 800.783,274.307 860.147,209.012C919.511,143.716 938.931,92.773 938.931,92.773L902.79,92.873ZM819.212,92.818C816.446,100.799 807.896,136.853 804.098,160.666C800.3,184.48 797.61,190.019 800.031,190.7C802.451,191.38 809.055,178.285 820.009,153.952C830.964,129.62 846.254,92.869 846.254,92.869L819.212,92.818ZM746.867,92.695C746.867,92.695 748.79,172.345 749.252,195.134C749.714,217.922 741.112,253.471 737.68,268.816C734.249,284.16 730.247,298.815 735.658,296.548C741.068,294.281 760.063,264.778 760.063,264.778C754.82,246.242 758.931,198.422 761.553,174.439C764.174,150.456 776.234,92.846 776.234,92.846L746.867,92.695ZM733.436,1268.83C731.698,1271.72 730.49,1271.76 734.751,1275.9C739.011,1280.04 766.441,1306.32 773.065,1311.14C779.689,1315.97 781.125,1308.6 778.672,1299.76C776.219,1290.93 774.82,1276.53 789.018,1228.69C803.216,1180.86 833.073,1131.03 838.387,1122.5C843.702,1113.96 830.668,1108.99 824.983,1106.5C819.299,1104.01 813.165,1101.91 811.245,1108.42C809.325,1114.93 800.922,1151.04 780.333,1200.4C759.744,1249.76 735.31,1265.71 733.436,1268.83ZM909.91,1216.72C909.379,1230.85 897.716,1293.14 887.462,1320.56C877.208,1347.97 864.035,1352.46 857.223,1359.22C850.41,1365.98 854.68,1368.36 867.332,1377.53C879.985,1386.69 896.406,1395.12 903.57,1397.71C910.733,1400.3 910.253,1396.62 906.749,1381.77C903.245,1366.93 904.639,1348.16 910.846,1313.46C917.053,1278.77 930.836,1230.09 933.884,1221.38C936.932,1212.68 924.848,1212.12 918.198,1210.29C911.547,1208.47 910.112,1211.33 909.91,1216.72ZM1040.65,989.286C1044.64,995.324 1049.97,998.46 1055.64,1005.01C1061.31,1011.55 1064.61,1009.11 1067.77,993.23C1070.94,977.352 1085.71,948.643 1107.15,909.4C1128.59,870.157 1165.01,822.388 1175.28,813.45C1185.55,804.513 1181.93,801.852 1169.61,798.913C1157.3,795.975 1155.88,802.422 1148.66,815.983C1141.44,829.545 1112.53,880.571 1092.46,912.817C1072.4,945.062 1053.96,962.713 1044.16,970.785C1034.36,978.857 1036.66,983.249 1040.65,989.286ZM1072.4,1017.57C1064.28,1026.13 1085.2,1039.18 1093.35,1048.05C1101.49,1056.92 1103.92,1027.48 1114.26,1003.9C1124.6,980.315 1163.71,935.578 1187.05,911.42C1210.39,887.262 1242.49,847.413 1256.17,834.662C1269.84,821.911 1267.68,805.923 1266.91,795.532C1266.14,785.14 1261.26,782.709 1255.94,784.833C1250.62,786.957 1242.49,791.846 1233.44,795.825C1224.4,799.804 1218.32,802.784 1214.4,811.955C1210.49,821.126 1179.46,876.006 1146.7,934.773C1113.95,993.539 1078.46,1011.18 1072.4,1017.57ZM1123.72,1063.5C1112.58,1074.3 1129.41,1085.73 1136.71,1091.31C1144.02,1096.9 1148.65,1093.53 1150.18,1083.45C1151.71,1073.36 1166.33,1054 1183.4,1024.46C1200.47,994.919 1247.73,947.123 1257.1,939.516C1266.47,931.909 1266.45,922.159 1266.8,911.123C1267.15,900.087 1266.19,894.334 1259.12,901.749C1252.06,909.165 1218.08,945.043 1195.77,983.669C1173.47,1022.3 1129.32,1058.07 1123.72,1063.5ZM1169.48,1109.27C1164.31,1113.32 1165.55,1114.07 1170.21,1118.82C1174.86,1123.56 1244.61,1167.38 1253.64,1171.72C1262.67,1176.07 1263.33,1178.3 1264.85,1167.98C1266.37,1157.65 1267.49,1039.7 1266.91,1026.9C1266.32,1014.11 1264.63,1001.99 1260.09,1008.8C1255.54,1015.61 1244.61,1025.66 1228.34,1051.07C1212.08,1076.49 1175.07,1104.9 1169.48,1109.27ZM660.093,1231.24C657.821,1234.52 660.687,1260.95 659.724,1273.86C658.762,1286.78 661.992,1290.77 667.294,1290.86C672.596,1290.96 698.334,1290.58 714.17,1290.2C730.005,1289.82 707.466,1273.43 692.427,1259.17C677.388,1244.91 663.194,1226.76 660.093,1231.24ZM910.856,1145.41C911.055,1151.88 911.493,1155.1 911.295,1168.26C911.098,1181.42 914.558,1185.75 924.001,1183.97C933.444,1182.19 988.685,1169.59 1014.85,1159.87C1041.02,1150.15 1102.11,1114.97 1115.58,1107.77C1129.06,1100.58 1113.81,1090.72 1105.7,1083.85C1097.59,1076.98 1089.57,1064.53 1082.34,1076.34C1075.11,1088.16 1044.42,1113.29 1013.42,1127.38C982.415,1141.47 934.065,1140.88 924.078,1140.08C914.091,1139.27 910.657,1138.93 910.856,1145.41ZM823.456,1053.42C820.224,1068.97 814.453,1075.75 829.51,1080.73C844.567,1085.7 891.07,1091.48 935.653,1088.43C980.237,1085.37 1049.52,1066.17 1064.91,1061.85C1080.3,1057.52 1075.74,1050.53 1066.52,1039.94C1057.31,1029.35 1052.27,1025.16 1044.18,1029.34C1036.09,1033.51 1012.35,1043.31 962.739,1055.18C913.125,1067.05 856.736,1053.72 842.847,1049.52C828.957,1045.33 824.409,1048.84 823.456,1053.42ZM661.967,458.367C661.129,467.836 661.705,476.424 669.224,478.747C676.744,481.071 709.6,487.618 729.238,490.404C748.877,493.19 764.424,492.525 803.656,489.257C842.887,485.99 939.38,451.485 943.76,456.136C948.14,460.787 932.538,476.149 928.617,479.812C924.697,483.476 917.899,485.059 937.007,495.277C956.115,505.495 1023.04,524.286 1079.23,540.092C1135.43,555.899 1237.92,557.659 1251.43,558.082C1264.95,558.506 1266.19,554.594 1263.87,544.188C1261.55,533.782 1251.96,518.833 1226.01,528.322C1201.69,537.213 1165.39,541.313 1083.95,522.286C1002.5,503.259 937.851,434.248 931.859,425.612C925.867,416.976 920.197,418.778 916,422.532C911.804,426.285 877.858,453.321 803.239,466.15C728.62,478.979 689.35,458.129 677.53,453.175C665.71,448.221 662.415,453.309 661.967,458.367ZM670.137,531.957C660.751,528.917 662.4,537.491 661.838,545.18C661.275,552.869 662.067,555.945 671.285,558.333C680.503,560.721 774.018,585.683 791.981,590.524C809.945,595.365 808.273,584.928 815.655,570.37C823.038,555.813 834.216,553.947 833.449,588.429C832.682,622.91 831.193,653.941 849.521,715.365C867.849,776.79 919.524,829.103 929.081,838.862C938.637,848.622 940.074,846.945 939.453,842.207C938.832,837.469 936.888,827.829 931.158,822.461C925.427,817.094 916.02,809.031 896.487,783.063C876.955,757.094 855.429,703.623 855.943,650.027C856.456,596.431 882.86,532.935 886.947,524.272C891.034,515.61 895.761,508.579 894.219,506.827C892.678,505.075 891.641,504.516 882.339,510.65C873.037,516.784 824.293,537.578 771.669,543.793C719.046,550.007 677.977,534.497 670.137,531.957ZM805.613,959.027C802.218,963.943 797.523,973.905 794.419,978.745C791.314,983.584 796.752,985.095 805.067,988.234C813.382,991.373 864.631,1008.93 917.804,1016.38C970.977,1023.83 1021.4,1018.84 1028.38,1019.12C1035.37,1019.41 1045.49,1017.93 1037.18,1009.97C1028.87,1002.02 1013.5,981.929 1008.46,976.136C1003.43,970.343 998.409,969.821 986.251,973.976C974.092,978.132 946.804,986.524 904.628,981.549C862.452,976.574 827.05,961.023 818.139,957.765C809.228,954.506 808.229,955.239 805.613,959.027ZM970.547,376.133C966.773,380.26 962.735,384.888 958.306,389.178C953.877,393.467 953.728,394.556 961.837,402.403C973.61,413.798 1005.22,437.11 1073.33,467.907C1136.33,496.4 1206.94,497.316 1216.29,496.801C1225.64,496.286 1230.96,502.511 1233.33,501.34C1235.7,500.17 1227.8,493.48 1221.68,486.712C1215.79,480.191 1211.2,474.054 1194.5,479.062C1177.8,484.07 1138.47,474.758 1082.32,450.465C1026.18,426.173 992.135,388.377 984.299,380.162C976.462,371.946 974.32,372.007 970.547,376.133ZM663.259,967.709C668.333,969.535 677.275,939.549 688.976,920.404C700.676,901.259 710.394,883.905 713.512,877.957C716.631,872.008 718.375,868.962 709.405,858.639C700.434,848.317 687.972,823.2 682.599,837.451C677.227,851.701 667.243,886.108 663.895,910.001C660.547,933.894 658.478,965.987 663.259,967.709ZM662.047,681.717C662.068,686.978 662.309,759.196 662.103,765.373C661.896,771.55 663.594,776.578 669.051,765.97C674.509,755.361 703.78,690.211 705.898,683.255C708.016,676.299 705.172,673.691 700.194,672.171C695.216,670.651 685.982,672.274 677.853,673.221C669.677,674.173 662.028,677.024 662.047,681.717ZM758.897,621.715C756.531,622.153 755.555,623.591 755.757,626.738C755.959,629.885 750.856,683.003 796.617,761.372C842.378,839.742 906.494,870.095 936.795,882.469C967.096,894.843 955.96,884.277 953.757,879.137C951.554,873.996 947.485,867.327 926.741,863.423C905.996,859.518 870.625,842.867 828.535,778.817C786.445,714.768 795.995,641.958 796.349,634.28C796.703,626.602 799.655,619.54 793.735,619.722C787.815,619.903 763.436,620.875 758.897,621.715ZM860.034,1130.72C859.458,1134.26 856.196,1158.08 853.312,1179.03C850.428,1199.98 841.808,1235.09 825.941,1272.91C810.073,1310.75 801.425,1311.77 797.362,1317.34C793.3,1322.92 790.798,1325.66 796.393,1331.07C801.987,1336.48 826.276,1353.46 833.096,1355.92C839.916,1358.38 836.576,1345.94 835.011,1331.85C833.446,1317.77 839.683,1299.5 848.828,1262.42C857.973,1225.34 879.412,1146.8 882.925,1139.49C886.438,1132.17 883.009,1129.8 873.139,1127.27C863.268,1124.74 860.662,1126.86 860.034,1130.72ZM922.092,780.483C930.849,797.245 933.771,788.664 930.452,775.623C927.133,762.582 926.258,730.663 931.52,684.718C936.782,638.773 948.598,585.999 953.78,574.613C958.962,563.227 961.888,568.669 967.659,582.606C973.43,596.544 977.234,603.442 986.284,608.117C995.559,612.908 1013.17,620.221 1056.03,627.165C1098.88,634.108 1184.77,634.482 1222.7,627.986C1260.64,621.491 1266.53,617.845 1267.25,605.271C1267.97,592.698 1265.58,586.472 1253.21,590.208C1240.85,593.944 1185.72,606.912 1100.95,599.058C1016.19,591.203 943.244,528.404 937.184,524.257C931.123,520.11 924.522,510.761 920.29,519.122C916.058,527.483 901.839,543.886 897.459,611.152C893.079,678.419 915.717,768.28 922.092,780.483ZM950.709,812.214C951.227,822.661 955.809,829.102 958.912,842.541C962.015,855.98 966.815,851.714 965.637,842.361C964.459,833.007 967.616,804.689 983.209,762.143C998.802,719.597 1014.84,675.418 1019.24,666.785C1023.65,658.151 1024.45,654.207 1018.79,651.861C1013.14,649.515 1004.64,643.801 992.809,635.294C980.981,626.787 983.024,636.197 983.525,660.76C984.025,685.324 978.359,731.09 971.337,755.787C964.315,780.485 950.191,801.767 950.709,812.214ZM980.27,875.011C973.863,882.546 981.974,891.781 986.936,902.913C991.898,914.045 994.91,912.361 997.246,902.524C999.582,892.688 1008.83,852.187 1023.42,816.808C1038.01,781.428 1057.63,745.559 1061.01,738.756C1064.39,731.954 1055.87,728.115 1051.25,724.597C1046.62,721.08 1041.56,719.294 1039.62,729.129C1037.68,738.963 1023.33,785.741 1012.93,812.509C1002.52,839.278 986.06,868.202 980.27,875.011ZM1098.8,750.597C1095.05,764.968 1078.6,817.041 1057.4,857.243C1036.2,897.445 1022.92,913.127 1012.12,925.642C1001.32,938.157 1006.24,937.09 1015.87,951.107C1025.5,965.123 1028.32,967.396 1031.07,953.585C1033.82,939.775 1048.53,905.375 1065.54,867.387C1082.55,829.399 1120.88,767.706 1130.05,757.357C1139.21,747.007 1128.87,747.972 1116.39,746.071C1103.91,744.169 1100.5,744.092 1098.8,750.597ZM1024.44,318.636C1013.99,328.457 1013.18,331.969 1019.09,338.498C1025.01,345.028 1066.72,384.271 1092.91,402.803C1119.11,421.336 1182.29,449.931 1193.75,454.221C1205.2,458.511 1199.89,449.131 1196.13,440.825C1192.37,432.519 1189.49,429.709 1177.35,430.943C1165.2,432.177 1145.85,423.04 1106.1,399.857C1066.34,376.674 1038.53,331.649 1033.31,323.153C1028.09,314.656 1026.4,316.794 1024.44,318.636ZM900.753,1426.1C900.818,1432.19 900.489,1441.13 900.492,1445.4C900.494,1449.67 901.809,1450.36 920.705,1449.94C939.602,1449.52 961.56,1450.75 949.354,1442.47C937.148,1434.18 916.521,1426.09 911.652,1423.01C906.782,1419.92 900.704,1421.55 900.753,1426.1ZM972.577,282.042C969.936,286.736 969.538,287.446 973.104,291.345C976.67,295.245 987.421,304.277 990.962,307.536C994.503,310.795 998.151,311.43 1001.83,309.066C1005.52,306.702 1010.77,304.697 1014.32,301.816C1017.86,298.934 1018.77,294.599 1016.45,290.762C1014.14,286.925 1002.15,266.407 998.675,260.427C995.202,254.447 991.839,252.521 989.967,256.176C988.095,259.832 975.815,276.287 972.577,282.042ZM776.571,1019.69C774.576,1025.09 732.862,1139.28 715.686,1164.93C698.51,1190.57 689.195,1199.7 684.707,1203.47C680.22,1207.24 679.683,1214.42 686.666,1223.8C693.648,1233.17 714.484,1253.3 718.189,1257.36C721.893,1261.42 726.113,1260.71 727.592,1256.2C729.07,1251.69 715.824,1242.83 728.351,1199.68C740.878,1156.54 775.639,1085.55 788.935,1064.32C802.231,1043.1 806.333,1032.23 798.031,1027.82C789.728,1023.42 778.463,1014.58 776.571,1019.69Z" style="fill:none;stroke:rgb(166,107,59);stroke-width:1px;"/>
    </g>
</svg>
