<svg version="1.1" xmlns="http://www.w3.org/2000/svg" viewBox="-1448.3299034757558 -1316.0729029303905 2896.6598069515117 2761.748086807715" fill="none" stroke="black" stroke-width="0.6%" vector-effect="non-scaling-stroke">
    <path d="M -1447.3299 259.91493 L 2.84124 1444.67518 L 2.84124 132.03998 L 1447.3299 -130.31265 L 1354.31299 -206.30557" />
    <path d="M -35.79701 100.47331 L 2.84124 132.03998" />
    <path d="M -35.79701 1320.82539 L -35.79701 100.47331" />
    <path d="M -555.75015 896.03428 L -35.79701 1320.82539" />
    <path d="M -555.75015 -324.3178 L -555.75015 896.03428" />
    <path d="M -1447.3299 -1052.72028 L -555.75015 -324.3178 L -465.30001 -340.74564 L -1314.23269 -1034.30633 L -1225.13931 -1050.48775 L -1267.78638 -1085.32954 L -1447.3299 -1052.72028 Z" />
    <path d="M -1447.3299 259.91493 L -1447.3299 -1052.72028" />
    <path d="M 2.84124 1444.67518 L 1447.3299 1182.32256 L 1447.3299 -130.31265" />
    <path d="M 94.51262 72.80284 L 98.52144 76.07797 L -35.79701 100.47331" />
    <path d="M 1310.15777 -147.9865 L 1247.03831 -136.52254" />
    <path d="M 1197.90243 -127.59833 L 1152.33481 -119.32219" />
    <path d="M 1111.50278 -111.90615 L 1090.89791 -108.16383" />
    <path d="M 1077.03898 -105.64672 L 1067.42819 -103.90118" />
    <path d="M 1037.27654 -98.42494 L 1014.42935 -94.27536" />
    <path d="M 957.79378 -83.98903 L 937.75236 -80.34904" />
    <path d="M 878.58021 -69.60201 L 870.96594 -68.21908" />
    <path d="M 827.05579 -60.24398 L 816.71843 -58.36648" />
    <path d="M 766.48385 -49.24271 L 740.6587 -44.55227" />
    <path d="M 671.67227 -32.02273 L 94.51262 72.80284" />
    <path d="M 1295.82925 -163.76184 L 1310.15806 -152.05549" />
    <path d="M 1295.82925 -163.76184 L 1302.61301 -164.99393" />
    <path d="M 1309.35805 -243.03284 L 1302.10786 -248.9561" />
    <path d="M 1273.32273 -272.47296 L 1253.50447 -288.66407" />
    <path d="M 1233.26378 -305.2003 L 1216.26697 -319.08636" />
    <path d="M 1175.01433 -352.78892 L 1166.47191 -359.7679" />
    <path d="M 1133.22395 -386.93081 L 1129.41319 -390.04413" />
    <path d="M 1102.30021 -412.19488 L 1098.95056 -414.93147" />
    <path d="M 1073.02224 -436.11438 L 1060.8929 -446.0238" />
    <path d="M 1024.01839 -476.14953 L -2.84124 -1315.0729 L -182.38476 -1282.46364 L -182.38476 -1223.3783" />
    <path d="M 1255.83026 -196.44019 L 1271.70383 -183.47181" />
    <path d="M -182.38476 -1282.46364 L -139.73768 -1247.62185 L -139.73768 -1226.95043 L -50.6443 -1243.13185 L -50.55901 -1243.06217 L -50.55901 -1217.50967" />
    <path d="M 1255.83026 -196.44019 L 1262.61402 -197.67228" />
    <path d="M -139.73768 -1247.62185 L -50.6443 -1263.80327 L 1024.01839 -385.82577" />
    <path d="M 1218.21391 -227.17199 L 1218.90791 -226.605" />
    <path d="M 1218.21391 -227.17199 L 1224.99767 -228.40408" />
    <path d="M 1060.83205 -355.74976 L 1067.47729 -356.95669" />
    <path d="M 1060.83205 -355.74976 L 1067.30918 -350.45807" />
    <path d="M 1174.93804 -262.52749 L 1197.41196 -244.16675" />
    <path d="M 1174.93804 -262.52749 L 1181.7218 -263.75958" />
    <path d="M 1093.0604 -329.41985 L 1095.65612 -329.89129" />
    <path d="M 1093.0604 -329.41985 L 1095.55 -327.3859" />
    <path d="M 1139.68101 -291.33177 L 1147.36332 -285.05547" />
    <path d="M 1139.68101 -291.33177 L 1146.46477 -292.56386" />
    <path d="M 671.67227 2.38796 L 675.93697 5.87214 L 675.93697 -123.73014 L 1354.31299 -246.93895 L 1354.31299 -117.33667 L 1314.42004 -110.09119 L 1314.42711 -210.07784 C 1314.43 -210.08 1248.98 -198.18 1247.19695 -197.84774 C 1244.88 -197.41 1249.74 -48.02 1247.62444 -97.95956 L 1201.20733 -89.52913 C 1199.08 -80.34 1205.07 -190.08 1205.06911 -190.08393 L 1142.45701 -178.75416 C 1141.39 -135.17 1182.49 -22.58 1162.79064 -82.55177 L 1117.05475 -74.24508 C 1126.44 11.41 1120.63 -37.85 1116.79899 -76.82884 C 1112.96 -115.8 1120.58 -174.6 1120.5835 -174.59667 L 1065.3488 -164.59604 C 1062.37 -153.62 1067.65 -95.37 1069.51655 -88.43389 C 1070.66 -84.2 1079.83 -99.24 1069.85311 -87.83029 C 1070.66 -84.2 1079.83 -99.24 1082.59467 -104.50326 C 1084.57 -108.24 1087.09 -111.41 1090.63655 -108.38994 C 1084.57 -108.24 1087.09 -111.41 1090.7673 -108.28086 C 1094.45 -105.15 1093.18 -92.71 1090.02956 -83.35891 C 1086.88 -74.01 1077.84 -58.82 1083.01015 -68.06179 L 1043.78691 -60.93794 C 1042.55 -52.45 1044.38 -54.47 1043.64103 -63.79875 C 1043 -71.86 1041.66 -82.01 1041.53895 -92.09936 C 1041.42 -102.19 1043.18 -142.28 1040.90123 -142.85026 C 1041.42 -102.19 1043.18 -142.28 1040.79259 -142.90825 C 1038.47 -143.52 1029.49 -122.96 1011.54934 -88.75324 C 1001.12 -68.86 988.24 -46 991.2264 -51.39173 L 935.66494 -41.30048 C 980.7 -99.58 999.31 -152.76 999.30764 -152.75882 L 964.6808 -146.37203 C 962 -132.27 931.78 -64.69 916.44981 -37.81057 L 827.45919 -21.64781 C 822.91 29.3 826.85 -18.16 829.36105 -42.06241 C 831.87 -65.96 843.43 -124.38 843.42698 -124.37592 L 815.29034 -119.41326 C 815.29 -119.41 817.13 -41.89 817.57222 -19.85211 L 767.68811 -10.79199 L 763.4234 -14.27617 C 762.91 -39.66 776.95 -116.66 776.16055 -112.24938" />
    <path d="M 749.21913 -7.4376 L 675.93697 5.87214" />
    <path d="M 827.45919 -21.64781 L 823.19448 -25.13199 C 818.65 25.81 822.58 -21.65 825.09635 -45.54659 L 829.36105 -42.06241" />
    <path d="M 935.66494 -41.30048 L 931.40024 -44.78466 C 976.44 -103.07 995.04 -156.24 993.27495 -151.64611" />
    <path d="M 1043.78691 -60.93794 L 1039.5222 -64.42212 C 1038.28 -55.94 1040.12 -57.96 1039.37633 -67.28293 L 1043.64103 -63.79875" />
    <path d="M 1117.05475 -74.24508 L 1112.79005 -77.72926 C 1122.17 7.92 1116.37 -41.34 1112.53428 -80.31302 L 1116.79899 -76.82884" />
    <path d="M 1201.20733 -89.52913 L 1196.94262 -93.01331 C 1194.82 -83.82 1200.8 -193.57 1200.57763 -189.27119" />
    <path d="M 1310.15534 -113.57537 L 1314.42004 -110.09119" />
    <path d="M -499.2583 885.77405 L -555.75015 896.03428" />
    <path d="M -494.99359 901.86413 L -499.2583 898.37995" />
    <path d="M -494.99359 901.86413 L -314.09332 869.00844 L -314.09332 223.02655 A 600 500.82128 129.24812 0 1 2.48215 -337.81593 L 2.48215 -388.16966 L -449.76852 -306.03045 L -449.76852 -304.64621 L -494.99359 -296.43229 L -494.99359 901.86413 Z" />
    <path d="M -465.30001 -340.74564 L -465.30001 -306.08408" />
    <path d="M 94.51262 76.80606 L 94.51262 72.80284" />
    <path d="M 1295.94279 -145.40473 C 1295.94 -146.17 1295.93 -146.93 1295.9298 -147.69842 C 1295.93 -148.46 1295.92 -149.23 1295.91642 -149.99242 C 1295.91 -150.76 1295.91 -151.52 1295.90267 -152.28671 C 1295.9 -153.05 1295.89 -153.82 1295.88858 -154.58127 C 1295.88 -156.11 1295.87 -157.64 1295.85946 -159.17112 C 1295.85 -160.7 1295.84 -162.23 1295.82925 -163.76184" />
    <path d="M 1302.12666 -256.33379 C 1301.32 -266.01 1303.61 -113.86 1302.11986 -241.71822" />
    <path d="M 1302.30864 -207.87468 C 1301.32 -266.01 1303.61 -113.86 1302.61301 -164.99393" />
    <path d="M 1293.36643 -263.48164 C 1292.27 -264.36 1294.56 -112.22 1293.355 -263.48526 C 1292.27 -264.36 1294.56 -112.22 1293.07485 -240.07544" />
    <path d="M 1293.26364 -206.23013 C 1292.27 -264.36 1294.56 -112.22 1293.68154 -144.99403" />
    <path d="M 1033.0634 -514.81274 L 1352.91646 -253.49931 L 1343.87145 -251.85653 L 1343.87145 -249.30128" />
    <path d="M 1060.88733 -453.31687 C 1058.85 -444.18 1065.59 -372.09 1067.51003 -357.91055" />
    <path d="M 1098.8698 -422.28943 C 1098.77 -431.51 1099.64 -352.94 1099.3132 -381.60124" />
    <path d="M 1167.84908 -365.90856 C 1167.94 -361.21 1153.69 -310.76 1146.46477 -292.56386" />
    <path d="M 1191.30402 -289.60149 C 1186.38 -275.62 1180.31 -260.06 1181.7218 -263.75958" />
    <path d="M 1196.63259 -305.17173 C 1203.99 -329.11 1199.76 -313.64 1191.30402 -289.60149 L 1182.25901 -287.95871 C 1177.34 -273.97 1171.27 -258.42 1168.93481 -252.54602 C 1166.6 -246.68 1167.58 -240.77 1168.71526 -237.07039 C 1169.85 -233.37 1173.53 -219.34 1173.92923 -218.43583" />
    <path d="M 1228.30731 -239.72241 C 1226.82 -232.16 1222.56 -222.09 1224.99767 -228.40408" />
    <path d="M 1228.65515 -264.22619 C 1230.39 -259.01 1229.79 -247.29 1228.30731 -239.72241 L 1219.26229 -238.07962 C 1217.78 -230.51 1213.52 -220.45 1215.68448 -226.01955" />
    <path d="M 1224.80177 -265.08106 C 1225.73 -267.7 1226.92 -269.44 1226.42354 -267.59256 C 1225.73 -267.7 1226.92 -269.44 1228.65515 -264.22619 L 1219.61013 -262.5834 C 1221.34 -257.37 1220.75 -245.65 1219.26229 -238.07962" />
    <path d="M 1216.26455 -326.23807 C 1215.27 -325.67 1217.75 -264.42 1217.99505 -266.06175" />
    <path d="M 1253.15879 -296.24701 C 1252.53 -262.42 1271.9 -126.53 1258.39513 -233.7768" />
    <path d="M 1262.25596 -200.59083 C 1252.53 -262.42 1271.9 -126.53 1262.61402 -197.67228" />
    <path d="M 1352.91646 -253.49931 L 1352.91646 -248.07988" />
    <path d="M 1130.2541 -396.59859 C 1130.2 -397.91 1126.34 -365.82 1125.50217 -354.13212" />
    <path d="M 1271.66165 -140.99471 C 1270.68 -173.25 1273.5 -279.6 1271.93443 -202.3514" />
    <path d="M 1272.52057 -236.3423 C 1270.68 -173.25 1273.5 -279.6 1273.50323 -279.59705 L 1243.98174 -303.75754 C 1243.48 -260.77 1262.86 -124.89 1249.35012 -232.13401" />
    <path d="M 1263.26571 -139.46981 C 1263.17 -140.18 1263.07 -140.88 1262.9757 -141.58834 C 1262.88 -142.29 1262.78 -143 1262.68669 -143.70677 C 1262.59 -144.41 1262.49 -145.12 1262.39867 -145.8251 C 1262.3 -146.53 1262.21 -147.24 1262.11165 -147.94333 C 1261.92 -149.36 1261.73 -150.77 1261.54063 -152.17948 C 1261.35 -153.59 1261.16 -155 1260.97366 -156.41518 C 1260.86 -157.25 1260.75 -158.08 1260.6405 -158.91834 C 1260.53 -159.75 1260.42 -160.59 1260.30878 -161.42133 C 1260.2 -162.26 1260.09 -163.09 1259.97854 -163.92413 C 1259.87 -164.76 1259.76 -165.59 1259.64978 -166.42676 C 1259.54 -167.26 1259.43 -168.1 1259.32253 -168.92918 C 1259.21 -169.76 1259.11 -170.6 1258.99681 -171.4314 C 1258.89 -172.27 1258.78 -173.1 1258.67265 -173.93341 C 1258.56 -174.77 1258.46 -175.6 1258.35006 -176.4352 C 1258.24 -177.27 1258.14 -178.1 1258.02909 -178.93676 C 1257.92 -179.77 1257.82 -180.6 1257.70976 -181.43808 C 1257.6 -182.27 1257.5 -183.11 1257.39211 -183.93914 C 1257.29 -184.77 1257.18 -185.61 1257.07616 -186.43993 C 1256.97 -187.27 1256.87 -188.11 1256.76196 -188.94045 C 1256.66 -189.77 1256.55 -190.61 1256.44955 -191.44068 C 1256.35 -192.27 1256.24 -193.11 1256.13897 -193.9406 C 1256.04 -194.77 1255.93 -195.61 1255.83026 -196.44019" />
    <path d="M -143.9171 -1230.36492 L -139.73768 -1226.95043" />
    <path d="M 1253.21134 -198.94478 C 1243.48 -260.77 1262.86 -124.89 1261.00446 -139.05912" />
    <path d="M -50.6443 -1243.13185 L -50.6443 -1263.80327" />
    <path d="M 810.91191 -539.25799 L 810.91191 -152.50347" />
    <path d="M 806.6472 -542.74217 L 810.91191 -539.25799" />
    <path d="M 781.05896 -563.64725 L 781.05896 -538.09475" />
    <path d="M 776.79425 -567.13143 L 781.05896 -563.64725" />
    <path d="M 533.70592 -765.72963 L 533.70592 -522.98095" />
    <path d="M 533.70592 -301.81371 L 533.70592 -30.51529" />
    <path d="M 529.44121 -769.21381 L 533.70592 -765.72963" />
    <path d="M 503.85297 -790.11889 L 503.85297 -764.56639" />
    <path d="M 499.58826 -793.60307 L 503.85297 -790.11889" />
    <path d="M 256.49993 -992.20127 L 256.49993 -749.45259" />
    <path d="M 256.49993 -528.28535 L 256.49993 -256.98693" />
    <path d="M 252.23523 -995.68545 L 256.49993 -992.20127" />
    <path d="M 226.64698 -1016.59053 L 226.64698 -991.03803" />
    <path d="M 222.38227 -1020.07471 L 226.64698 -1016.59053" />
    <path d="M -20.70605 -1218.67291 L -20.70605 -975.92423" />
    <path d="M -20.70605 -754.75699 L -20.70605 -483.45857" />
    <path d="M -24.97076 -1222.15709 L -20.70605 -1218.67291" />
    <path d="M 1033.0634 -514.81274 L 1024.01839 -513.16996 L 1343.87145 -251.85653" />
    <path d="M 1024.01839 -96.01695 L 1024.01839 -113.04017" />
    <path d="M 1024.01839 -191.20855 L 1024.01839 -513.16996" />
    <path d="M 1218.21391 -227.17199 C 1218.17 -227.05 1218.12 -226.92 1218.08016 -226.8004 C 1218.04 -226.68 1217.99 -226.55 1217.94574 -226.43025" />
    <path d="M 1061.66884 -348.83707 C 1061.65 -348.98 1061.63 -349.13 1061.61299 -349.26971 C 1061.59 -349.41 1061.58 -349.56 1061.55778 -349.70225 C 1061.54 -349.85 1061.52 -349.99 1061.50314 -350.13472 C 1061.49 -350.28 1061.47 -350.42 1061.44904 -350.56709 C 1061.43 -350.71 1061.41 -350.86 1061.39545 -350.99939 C 1061.38 -351.14 1061.36 -351.29 1061.34233 -351.43161 C 1061.32 -351.58 1061.31 -351.72 1061.28965 -351.86375 C 1061.27 -352.01 1061.25 -352.15 1061.23739 -352.29581 C 1061.22 -352.44 1061.2 -352.58 1061.18552 -352.72779 C 1061.17 -352.87 1061.15 -353.02 1061.13403 -353.15971 C 1061.12 -353.3 1061.1 -353.45 1061.0829 -353.59155 C 1061.07 -353.74 1061.05 -353.88 1061.0321 -354.02332 C 1061 -354.31 1060.96 -354.6 1060.93147 -354.88667 C 1060.9 -355.17 1060.86 -355.46 1060.83205 -355.74976" />
    <path d="M 1052.39245 -460.21757 C 1049.81 -442.54 1056.55 -370.44 1059.40759 -348.42637 C 1062.27 -326.41 1063.37 -277.39 1063.50265 -259.52528 C 1063.63 -241.66 1064.23 -211.52 1065.97911 -201.32495 C 1067.73 -191.13 1070.09 -195.23 1066.46475 -198.91779" />
    <path d="M 1068.726 -199.32848 C 1068.72 -199.36 1068.71 -199.39 1068.70562 -199.41391 C 1068.69 -199.46 1068.68 -199.51 1068.67207 -199.55728 C 1068.66 -199.61 1068.65 -199.65 1068.63923 -199.70102 C 1068.63 -199.75 1068.62 -199.8 1068.60706 -199.84509 C 1068.6 -199.89 1068.59 -199.94 1068.57555 -199.98945 C 1068.57 -200.04 1068.55 -200.09 1068.54466 -200.13407 C 1068.53 -200.18 1068.52 -200.23 1068.51438 -200.27893 C 1068.5 -200.33 1068.49 -200.38 1068.48467 -200.424 C 1068.47 -200.47 1068.47 -200.52 1068.45553 -200.56925 C 1068.45 -200.62 1068.44 -200.67 1068.42693 -200.71466 C 1068.42 -200.76 1068.41 -200.81 1068.39885 -200.86021 C 1068.39 -200.91 1068.38 -200.96 1068.37128 -201.00589 C 1068.36 -201.05 1068.35 -201.1 1068.34419 -201.15167 C 1068.34 -201.2 1068.33 -201.25 1068.31757 -201.29755 C 1068.31 -201.35 1068.3 -201.39 1068.2914 -201.44351 C 1068.28 -201.49 1068.27 -201.54 1068.26567 -201.58954 C 1068.26 -201.64 1068.25 -201.69 1068.24037 -201.73565 C 1068.23 -201.78 1068.23 -201.82 1068.21998 -201.85559 C 1068.21 -201.9 1068.21 -201.94 1068.19998 -201.97557 C 1068.19 -202.06 1068.17 -202.14 1068.16112 -202.21559 C 1068.15 -202.3 1068.14 -202.38 1068.12364 -202.45568 C 1068.11 -202.54 1068.1 -202.62 1068.08744 -202.69579 C 1068.08 -202.78 1068.06 -202.86 1068.05242 -202.93588 C 1068.04 -203.02 1068.03 -203.1 1068.01849 -203.17592 C 1068.01 -203.26 1068 -203.34 1067.98559 -203.41589 C 1067.97 -203.5 1067.96 -203.58 1067.95364 -203.65576 C 1067.94 -203.74 1067.93 -203.82 1067.92258 -203.89551 C 1067.91 -203.98 1067.9 -204.06 1067.89237 -204.13512 C 1067.88 -204.21 1067.87 -204.29 1067.86294 -204.3746 C 1067.85 -204.45 1067.84 -204.53 1067.83426 -204.61394 C 1067.82 -204.69 1067.82 -204.77 1067.80628 -204.85313 C 1067.8 -204.93 1067.79 -205.01 1067.77896 -205.09218 C 1067.77 -205.17 1067.76 -205.25 1067.75227 -205.33111 C 1067.74 -205.41 1067.73 -205.49 1067.72618 -205.56993 C 1067.72 -205.64 1067.71 -205.72 1067.70253 -205.79089 C 1067.69 -205.86 1067.69 -205.94 1067.67936 -206.01172 C 1067.66 -206.16 1067.65 -206.31 1067.63433 -206.453 C 1067.62 -206.6 1067.61 -206.75 1067.59094 -206.89378 C 1067.58 -207.04 1067.56 -207.19 1067.54908 -207.33407 C 1067.54 -207.48 1067.52 -207.63 1067.50864 -207.77388 C 1067.5 -207.92 1067.48 -208.07 1067.46951 -208.21322 C 1067.46 -208.36 1067.44 -208.51 1067.43161 -208.6521 C 1067.42 -208.8 1067.41 -208.94 1067.39486 -209.09054 C 1067.34 -209.77 1067.29 -210.45 1067.23657 -211.13293 C 1067.19 -211.81 1067.14 -212.49 1067.09656 -213.1671 C 1066.74 -218.71 1066.52 -224.18 1066.33751 -229.62316 C 1066.01 -239.82 1065.84 -249.92 1065.7639 -259.93598 C 1065.76 -260.14 1065.76 -260.35 1065.7592 -260.55036 C 1065.76 -260.76 1065.76 -260.96 1065.75396 -261.16517 C 1065.75 -261.37 1065.75 -261.58 1065.74821 -261.78038 C 1065.75 -261.99 1065.74 -262.19 1065.74199 -262.39596 C 1065.74 -262.6 1065.74 -262.81 1065.73534 -263.01187 C 1065.73 -263.22 1065.73 -263.42 1065.72827 -263.6281 C 1065.73 -263.83 1065.72 -264.04 1065.72082 -264.24463 C 1065.72 -264.45 1065.72 -264.66 1065.713 -264.86144 C 1065.71 -265.07 1065.71 -265.27 1065.70483 -265.47852 C 1065.7 -265.68 1065.7 -265.89 1065.69631 -266.09586 C 1065.69 -266.3 1065.69 -266.51 1065.68747 -266.71345 C 1065.68 -266.92 1065.68 -267.13 1065.67832 -267.33127 C 1065.68 -267.54 1065.67 -267.74 1065.66886 -267.94932 C 1065.67 -268.16 1065.66 -268.36 1065.6591 -268.5676 C 1065.65 -268.98 1065.65 -269.39 1065.63872 -269.80479 C 1065.63 -270.07 1065.63 -270.34 1065.62493 -270.60653 C 1065.62 -270.87 1065.62 -271.14 1065.61069 -271.4086 C 1065.61 -271.68 1065.6 -271.94 1065.596 -272.211 C 1065.59 -272.48 1065.59 -272.75 1065.58088 -273.01371 C 1065.57 -273.55 1065.56 -274.08 1065.54938 -274.62006 C 1065.54 -275.16 1065.53 -275.69 1065.51623 -276.2276 C 1065.5 -276.76 1065.49 -277.3 1065.48146 -277.83631 C 1065.47 -278.37 1065.46 -278.91 1065.44511 -279.44615 C 1065.43 -279.98 1065.42 -280.52 1065.40718 -281.0571 C 1065.39 -281.59 1065.38 -282.13 1065.36769 -282.66915 C 1065.34 -283.64 1065.32 -284.62 1065.29221 -285.59088 C 1065.27 -286.57 1065.24 -287.54 1065.21158 -288.51615 C 1065.16 -290.47 1065.1 -292.42 1065.03445 -294.37748 C 1064.91 -298.29 1064.77 -302.21 1064.61098 -306.14554 C 1063.99 -320.18 1063.41 -334.31 1061.66884 -348.83707 L 1059.40759 -348.42637" />
    <path d="M 1192.85964 -228.68416 C 1196.87 -234.09 1197.74 -235.07 1197.39019 -244.81376 C 1197.09 -253.24 1196.46 -264.15 1196.39906 -274.30589 C 1196.34 -284.46 1197.17 -323.56 1196.04715 -325.53784 C 1194.95 -327.47 1190.72 -312 1195.79575 -325.69688 C 1194.95 -327.47 1190.72 -312 1182.25901 -287.95871" />
    <path d="M 1067.27336 -344.2612 C 1067.03 -373.9 1073.66 -442.94 1073.6556 -442.94473 L 1052.39245 -460.21757" />
    <path d="M 1176.19048 -218.84653 C 1176.17 -218.93 1176.14 -219.01 1176.12002 -219.09066 C 1176.1 -219.17 1176.07 -219.25 1176.04973 -219.33495 C 1176 -219.5 1175.96 -219.66 1175.90959 -219.82398 C 1175.86 -219.99 1175.82 -220.15 1175.77001 -220.31353 C 1175.72 -220.48 1175.68 -220.64 1175.63091 -220.80356 C 1175.57 -221 1175.52 -221.2 1175.46098 -221.40491 C 1175.4 -221.61 1175.35 -221.81 1175.29163 -222.0068 C 1175.24 -222.21 1175.18 -222.41 1175.12279 -222.60916 C 1175.07 -222.81 1175.01 -223.01 1174.95441 -223.21193 C 1174.9 -223.41 1174.84 -223.61 1174.78644 -223.81506 C 1174.73 -224.02 1174.67 -224.22 1174.61882 -224.4185 C 1174.56 -224.62 1174.51 -224.82 1174.4515 -225.02221 C 1174.4 -225.22 1174.34 -225.42 1174.28446 -225.62616 C 1174.21 -225.88 1174.14 -226.14 1174.07235 -226.39448 C 1174 -226.65 1173.93 -226.91 1173.86055 -227.16304 C 1173.79 -227.42 1173.72 -227.68 1173.64896 -227.93179 C 1173.58 -228.19 1173.51 -228.44 1173.43752 -228.70065 C 1173.37 -228.94 1173.31 -229.17 1173.24255 -229.4099 C 1173.18 -229.65 1173.11 -229.88 1173.04757 -230.11912 C 1172.98 -230.36 1172.92 -230.59 1172.85251 -230.82825 C 1172.82 -230.95 1172.79 -231.06 1172.75493 -231.18276 C 1172.72 -231.3 1172.69 -231.42 1172.6573 -231.53722 C 1172.63 -231.65 1172.6 -231.76 1172.56629 -231.86735 C 1172.54 -231.98 1172.51 -232.09 1172.47522 -232.1974 C 1172.44 -232.31 1172.41 -232.42 1172.38407 -232.52738 C 1172.35 -232.64 1172.32 -232.75 1172.29283 -232.85727 C 1172.26 -232.97 1172.23 -233.08 1172.20148 -233.18705 C 1172.17 -233.3 1172.14 -233.41 1172.11001 -233.51671 C 1172.05 -233.74 1171.99 -233.96 1171.92659 -234.17557 C 1171.62 -235.28 1171.31 -236.39 1170.97652 -237.48109 C 1170.95 -237.55 1170.93 -237.62 1170.9125 -237.69261 C 1170.89 -237.76 1170.87 -237.83 1170.84985 -237.90558 C 1170.83 -237.98 1170.81 -238.05 1170.78863 -238.11993 C 1170.77 -238.19 1170.75 -238.26 1170.72885 -238.3356 C 1170.71 -238.41 1170.69 -238.48 1170.67056 -238.55253 C 1170.65 -238.63 1170.63 -238.7 1170.6138 -238.77063 C 1170.6 -238.84 1170.58 -238.92 1170.55861 -238.98985 C 1170.54 -239.06 1170.52 -239.14 1170.50503 -239.21011 C 1170.48 -239.33 1170.45 -239.45 1170.42071 -239.57343 C 1170.39 -239.69 1170.37 -239.82 1170.34098 -239.93898 C 1170.32 -240.06 1170.29 -240.18 1170.26601 -240.30634 C 1170.24 -240.43 1170.22 -240.55 1170.19594 -240.67513 C 1170.18 -240.74 1170.17 -240.8 1170.16279 -240.85991 C 1170.15 -240.92 1170.14 -240.98 1170.13091 -241.04489 C 1170.12 -241.11 1170.11 -241.17 1170.10033 -241.23001 C 1170.09 -241.29 1170.08 -241.35 1170.07105 -241.4152 C 1170.06 -241.48 1170.05 -241.54 1170.0431 -241.60042 C 1170.03 -241.66 1170.03 -241.72 1170.01648 -241.7856 C 1170.01 -241.85 1170 -241.91 1169.99119 -241.97069 C 1169.98 -242.03 1169.98 -242.09 1169.96727 -242.15562 C 1169.96 -242.22 1169.95 -242.27 1169.94543 -242.33417 C 1169.94 -242.39 1169.93 -242.45 1169.92487 -242.51247 C 1169.92 -242.57 1169.91 -242.63 1169.90559 -242.69047 C 1169.9 -242.75 1169.89 -242.81 1169.8876 -242.86811 C 1169.88 -242.93 1169.88 -242.99 1169.8709 -243.04535 C 1169.87 -243.1 1169.86 -243.16 1169.85548 -243.22213 C 1169.85 -243.34 1169.84 -243.46 1169.82851 -243.57413 C 1169.8 -244.04 1169.78 -244.5 1169.77151 -244.95468 C 1169.77 -245.38 1169.77 -245.8 1169.78923 -246.20619 C 1169.91 -248.96 1170.48 -251.16 1171.19606 -252.95671 C 1171.25 -253.08 1171.3 -253.21 1171.34484 -253.33117 C 1171.39 -253.46 1171.44 -253.58 1171.49348 -253.70599 C 1171.54 -253.83 1171.59 -253.96 1171.64199 -254.08112 C 1171.69 -254.21 1171.74 -254.33 1171.79038 -254.45655 C 1171.84 -254.58 1171.89 -254.71 1171.93866 -254.83225 C 1171.99 -254.96 1172.04 -255.08 1172.08683 -255.20821 C 1172.14 -255.33 1172.19 -255.46 1172.2349 -255.5844 C 1172.28 -255.71 1172.33 -255.84 1172.38286 -255.96083 C 1172.44 -256.1 1172.49 -256.23 1172.54331 -256.36954 C 1172.6 -256.51 1172.65 -256.64 1172.70365 -256.7785 C 1172.81 -257.05 1172.92 -257.32 1173.02402 -257.59714 C 1173.13 -257.87 1173.24 -258.14 1173.34398 -258.41671 C 1173.45 -258.69 1173.56 -258.96 1173.66355 -259.23717 C 1173.77 -259.51 1173.88 -259.78 1173.98273 -260.0585 C 1174.09 -260.33 1174.2 -260.61 1174.30154 -260.88066 C 1174.41 -261.15 1174.51 -261.43 1174.61997 -261.70367 C 1174.73 -261.98 1174.83 -262.25 1174.93804 -262.52749" />
    <path d="M 1093.06191 -329.25802 L 1093.0604 -329.41985" />
    <path d="M 1089.72325 -429.86374 C 1089.72 -429.86 1090.59 -351.29 1090.80066 -328.84732 C 1091.01 -306.4 1087.12 -274.83 1085.57307 -261.0925 C 1084.02 -247.36 1082.22 -234.51 1084.65964 -234.73016 C 1087.1 -234.95 1095.68 -256.78 1084.70057 -234.73574 C 1087.1 -234.95 1095.68 -256.78 1095.68446 -256.77893 C 1093.32 -276.83 1095.17 -322.06 1096.35756 -344.53722 C 1097.54 -367.01 1102.99 -418.88 1102.98962 -418.87778 L 1089.72325 -429.86374 Z" />
    <path d="M 1086.04384 -236.02622 C 1086.04 -236.04 1086.03 -236.06 1086.02865 -236.07561 C 1086.02 -236.09 1086.02 -236.11 1086.01404 -236.12562 C 1086.01 -236.14 1086 -236.16 1085.99971 -236.17726 C 1086 -236.19 1085.99 -236.21 1085.98596 -236.22938 C 1085.98 -236.25 1085.98 -236.26 1085.97279 -236.2819 C 1085.97 -236.3 1085.96 -236.32 1085.96017 -236.33478 C 1085.96 -236.35 1085.95 -236.37 1085.94808 -236.38794 C 1085.94 -236.41 1085.94 -236.42 1085.93651 -236.44134 C 1085.93 -236.46 1085.93 -236.48 1085.92544 -236.49494 C 1085.92 -236.51 1085.92 -236.53 1085.91485 -236.54869 C 1085.91 -236.57 1085.91 -236.58 1085.90557 -236.59791 C 1085.9 -236.61 1085.9 -236.63 1085.89667 -236.6472 C 1085.89 -236.66 1085.89 -236.68 1085.88813 -236.69654 C 1085.89 -236.71 1085.88 -236.73 1085.87992 -236.74592 C 1085.88 -236.76 1085.87 -236.78 1085.87205 -236.79533 C 1085.87 -236.81 1085.87 -236.83 1085.86449 -236.84475 C 1085.86 -236.86 1085.86 -236.88 1085.85724 -236.89417 C 1085.85 -236.91 1085.85 -236.93 1085.85029 -236.94358 C 1085.85 -236.96 1085.85 -236.98 1085.84361 -236.99296 C 1085.84 -237.01 1085.84 -237.03 1085.83721 -237.04231 C 1085.84 -237.06 1085.83 -237.08 1085.83107 -237.09162 C 1085.83 -237.11 1085.83 -237.12 1085.82518 -237.14089 C 1085.82 -237.16 1085.82 -237.17 1085.81954 -237.19011 C 1085.82 -237.21 1085.82 -237.22 1085.81412 -237.23927 C 1085.81 -237.27 1085.81 -237.3 1085.80397 -237.33743 C 1085.77 -237.68 1085.75 -238.03 1085.73847 -238.36176 C 1085.71 -239.22 1085.73 -240.04 1085.75613 -240.85181 C 1085.81 -242.24 1085.91 -243.57 1086.02009 -244.89552 C 1086.17 -246.66 1086.35 -248.39 1086.53477 -250.11249 C 1086.95 -253.93 1087.41 -257.7 1087.83432 -261.5032 C 1087.85 -261.63 1087.86 -261.76 1087.87804 -261.88969 C 1087.89 -262.02 1087.91 -262.15 1087.92187 -262.27602 C 1087.94 -262.4 1087.95 -262.53 1087.96581 -262.66222 C 1087.98 -262.79 1088 -262.92 1088.00984 -263.04832 C 1088.02 -263.18 1088.04 -263.31 1088.05393 -263.43432 C 1088.07 -263.56 1088.08 -263.69 1088.09808 -263.82026 C 1088.11 -263.95 1088.13 -264.08 1088.14228 -264.20614 C 1088.16 -264.33 1088.17 -264.46 1088.1865 -264.59199 C 1088.21 -264.76 1088.23 -264.93 1088.24447 -265.0975 C 1088.26 -265.27 1088.28 -265.43 1088.30246 -265.60299 C 1088.32 -265.77 1088.34 -265.94 1088.36044 -266.1085 C 1088.38 -266.28 1088.4 -266.45 1088.4184 -266.61403 C 1088.44 -266.78 1088.46 -266.95 1088.47632 -267.11962 C 1088.5 -267.29 1088.51 -267.46 1088.53419 -267.62527 C 1088.55 -267.79 1088.57 -267.96 1088.592 -268.13101 C 1088.61 -268.3 1088.63 -268.47 1088.64974 -268.63685 C 1088.69 -268.97 1088.73 -269.31 1088.76495 -269.64887 C 1088.8 -269.99 1088.84 -270.32 1088.87975 -270.66143 C 1088.92 -271 1088.96 -271.34 1088.99407 -271.67462 C 1089.03 -272.01 1089.07 -272.35 1089.10785 -272.68851 C 1089.15 -273.02 1089.18 -273.35 1089.21933 -273.68767 C 1089.26 -274.02 1089.29 -274.35 1089.33019 -274.68763 C 1089.37 -275.02 1089.4 -275.35 1089.44038 -275.68845 C 1089.48 -276.02 1089.51 -276.36 1089.54988 -276.69017 C 1089.59 -277.02 1089.62 -277.36 1089.65864 -277.69285 C 1089.69 -278.03 1089.73 -278.36 1089.76663 -278.69652 C 1089.84 -279.37 1089.91 -280.04 1089.98013 -280.70701 C 1090.24 -283.22 1090.5 -285.75 1090.74675 -288.28508 C 1090.99 -290.82 1091.23 -293.38 1091.44865 -295.94308 C 1092.34 -306.65 1093.13 -317.57 1093.06191 -329.25802 L 1090.80066 -328.84732" />
    <path d="M 1140.89685 -274.35373 C 1167.71 -316.27 1176.49 -358.9 1176.48707 -358.90322 L 1160.16058 -372.14388 C 1158.9 -359.56 1144.65 -309.11 1137.07644 -290.04681 C 1129.51 -270.98 1119.58 -261.48 1112.62759 -255.03258 C 1105.67 -248.59 1100.47 -240.69 1094.93412 -230.20613 C 1089.39 -219.72 1086.21 -208.59 1087.47943 -205.81737 C 1088.75 -203.04 1093.47 -211.01 1088.33475 -205.27451 C 1088.75 -203.04 1093.47 -211.01 1099.67021 -221.52842 C 1105.87 -232.04 1114.08 -232.44 1140.89685 -274.35373 Z" />
    <path d="M 1089.73986 -206.22988 C 1089.74 -206.24 1089.73 -206.25 1089.72578 -206.26144 C 1089.72 -206.27 1089.72 -206.28 1089.71203 -206.2938 C 1089.71 -206.3 1089.7 -206.32 1089.69865 -206.32691 C 1089.69 -206.34 1089.69 -206.35 1089.68563 -206.36073 C 1089.68 -206.37 1089.68 -206.38 1089.673 -206.39521 C 1089.67 -206.41 1089.66 -206.42 1089.66078 -206.4303 C 1089.66 -206.44 1089.65 -206.45 1089.64896 -206.46596 C 1089.65 -206.48 1089.64 -206.49 1089.63757 -206.50215 C 1089.63 -206.51 1089.63 -206.53 1089.62659 -206.53881 C 1089.62 -206.55 1089.62 -206.56 1089.61604 -206.57589 C 1089.61 -206.59 1089.61 -206.6 1089.60592 -206.61335 C 1089.6 -206.63 1089.6 -206.64 1089.59623 -206.65114 C 1089.59 -206.66 1089.59 -206.68 1089.58696 -206.68921 C 1089.58 -206.7 1089.58 -206.71 1089.57811 -206.72752 C 1089.58 -206.74 1089.57 -206.75 1089.56968 -206.76602 C 1089.57 -206.78 1089.56 -206.79 1089.56166 -206.80466 C 1089.56 -206.82 1089.55 -206.84 1089.55178 -206.85537 C 1089.55 -206.87 1089.55 -206.89 1089.54255 -206.90623 C 1089.54 -206.92 1089.54 -206.94 1089.53397 -206.95719 C 1089.53 -206.97 1089.53 -206.99 1089.526 -207.00819 C 1089.52 -207.03 1089.52 -207.04 1089.51862 -207.05919 C 1089.52 -207.08 1089.51 -207.09 1089.51181 -207.11015 C 1089.51 -207.13 1089.51 -207.14 1089.50554 -207.16103 C 1089.5 -207.18 1089.5 -207.19 1089.49978 -207.21182 C 1089.49 -207.33 1089.48 -207.45 1089.47182 -207.57069 C 1089.47 -207.69 1089.46 -207.81 1089.46226 -207.91961 C 1089.46 -208.67 1089.53 -209.34 1089.62405 -209.98699 C 1089.8 -211.22 1090.06 -212.35 1090.32912 -213.42876 C 1090.72 -214.95 1091.16 -216.38 1091.62618 -217.75871 C 1093.26 -222.54 1095.16 -226.75 1097.19537 -230.61682 C 1097.32 -230.84 1097.44 -231.07 1097.5564 -231.29759 C 1097.68 -231.52 1097.8 -231.75 1097.91872 -231.97504 C 1098.04 -232.2 1098.16 -232.42 1098.2824 -232.64901 C 1098.4 -232.87 1098.53 -233.1 1098.6475 -233.31933 C 1098.77 -233.54 1098.89 -233.76 1099.01407 -233.98582 C 1099.14 -234.21 1099.26 -234.43 1099.38218 -234.64832 C 1099.63 -235.09 1099.88 -235.53 1100.12324 -235.96065 C 1100.25 -236.18 1100.37 -236.39 1100.4963 -236.61012 C 1100.62 -236.83 1100.75 -237.04 1100.87113 -237.25491 C 1101 -237.47 1101.12 -237.68 1101.24778 -237.89483 C 1101.37 -238.11 1101.5 -238.32 1101.62631 -238.52972 C 1101.75 -238.74 1101.88 -238.95 1102.00675 -239.15941 C 1102.13 -239.37 1102.26 -239.58 1102.38918 -239.78372 C 1102.52 -239.99 1102.65 -240.2 1102.77362 -240.4025 C 1102.9 -240.61 1103.03 -240.81 1103.16013 -241.01559 C 1103.29 -241.21 1103.41 -241.41 1103.53625 -241.60345 C 1103.66 -241.8 1103.79 -241.99 1103.91438 -242.1857 C 1104.04 -242.38 1104.17 -242.57 1104.29456 -242.7622 C 1104.42 -242.95 1104.55 -243.14 1104.67681 -243.33283 C 1104.8 -243.52 1104.93 -243.71 1105.06115 -243.89747 C 1105.19 -244.08 1105.32 -244.27 1105.44762 -244.45601 C 1105.58 -244.64 1105.71 -244.83 1105.83623 -245.00834 C 1105.97 -245.19 1106.1 -245.37 1106.227 -245.55435 C 1106.36 -245.74 1106.49 -245.92 1106.61994 -246.09398 C 1106.75 -246.27 1106.88 -246.45 1107.01506 -246.62712 C 1107.15 -246.8 1107.28 -246.98 1107.41238 -247.15371 C 1107.55 -247.33 1107.68 -247.5 1107.81189 -247.67368 C 1108.08 -248.02 1108.35 -248.36 1108.61751 -248.69356 C 1108.89 -249.03 1109.16 -249.36 1109.43187 -249.68641 C 1111.19 -251.79 1113.02 -253.71 1114.88884 -255.44327 C 1114.97 -255.52 1115.05 -255.59 1115.12413 -255.66138 C 1115.2 -255.73 1115.28 -255.81 1115.35934 -255.87974 C 1115.44 -255.95 1115.52 -256.03 1115.59446 -256.09843 C 1115.67 -256.17 1115.75 -256.24 1115.82948 -256.3175 C 1115.91 -256.39 1115.99 -256.46 1116.06436 -256.53702 C 1116.14 -256.61 1116.22 -256.68 1116.2991 -256.75704 C 1116.38 -256.83 1116.46 -256.9 1116.53368 -256.97762 C 1116.61 -257.05 1116.69 -257.12 1116.76809 -257.19881 C 1116.89 -257.32 1117.02 -257.44 1117.14794 -257.55903 C 1117.27 -257.68 1117.4 -257.8 1117.52723 -257.92117 C 1117.65 -258.04 1117.78 -258.16 1117.90591 -258.28541 C 1118.03 -258.41 1118.16 -258.53 1118.28394 -258.65192 C 1118.41 -258.77 1118.54 -258.9 1118.66126 -259.02086 C 1118.79 -259.14 1118.91 -259.27 1119.03783 -259.39238 C 1119.16 -259.52 1119.29 -259.64 1119.4136 -259.76661 C 1119.54 -259.89 1119.66 -260.02 1119.78853 -260.1437 C 1119.91 -260.27 1120.04 -260.4 1120.16258 -260.52376 C 1120.29 -260.65 1120.41 -260.78 1120.53571 -260.90692 C 1120.66 -261.04 1120.78 -261.16 1120.90788 -261.29328 C 1121.03 -261.42 1121.16 -261.55 1121.27907 -261.68297 C 1121.4 -261.81 1121.53 -261.94 1121.64922 -262.07606 C 1121.77 -262.21 1121.9 -262.34 1122.0183 -262.47268 C 1122.14 -262.61 1122.26 -262.74 1122.38629 -262.8729 C 1122.51 -263.01 1122.63 -263.14 1122.75315 -263.27683 C 1122.89 -263.43 1123.03 -263.58 1123.16628 -263.73782 C 1123.3 -263.89 1123.44 -264.05 1123.57788 -264.20377 C 1123.85 -264.52 1124.12 -264.83 1124.3963 -265.15099 C 1124.94 -265.79 1125.48 -266.44 1126.01274 -267.10975 C 1127.08 -268.45 1128.13 -269.84 1129.15438 -271.30556 C 1132.92 -276.69 1136.38 -283.01 1139.3377 -290.4575 C 1139.4 -290.6 1139.45 -290.75 1139.50985 -290.89353 C 1139.57 -291.04 1139.62 -291.19 1139.68101 -291.33177" />
    <path d="M 671.67227 2.38796 L 671.67227 -127.21432 L 1350.04828 -250.42313 L 1354.31299 -246.93895" />
    <path d="M 671.67227 -127.21432 L 675.93697 -123.73014" />
    <path d="M 736.11549 -104.8886 C 730.64 -84.1 744.93 -20.11 749.21913 -7.4376" />
    <path d="M 781.21249 -113.17799 L 736.11549 -104.8886" />
    <path d="M 767.68811 -10.79199 C 767.17 -36.17 781.21 -113.18 781.21249 -113.17799" />
    <path d="M 884.60438 -131.88206 C 881.95 -123.6 873.76 -86.87 870.12359 -62.92922 C 866.48 -38.99 863.91 -33.11 865.75138 -33.04471 C 866.48 -38.99 863.91 -33.11 866.22698 -32.86266 C 868.55 -32.62 874.87 -46.57 885.36799 -72.26103 C 895.86 -97.95 910.51 -136.54 910.51343 -136.53789 L 884.60438 -131.88206 Z" />
    <path d="M 825.09635 -45.54659 C 827.61 -69.45 839.16 -127.86 838.30443 -123.47242" />
    <path d="M 1037.27424 -95.58354 C 1037.15 -105.67 1038.91 -145.76 1037.64477 -139.31945" />
    <path d="M 1039.37633 -67.28293 C 1038.74 -75.35 1037.4 -85.49 1037.27424 -95.58354 L 1041.53895 -92.09936" />
    <path d="M 1078.32996 -107.98744 C 1080.3 -111.73 1082.82 -114.9 1086.37184 -111.87411 L 1090.63655 -108.38994" />
    <path d="M 1086.37184 -111.87411 C 1080.3 -111.73 1082.82 -114.9 1086.50259 -111.76504 L 1090.50627 -108.49412" />
    <path d="M 1068.68526 -93.20116 C 1066.39 -87.68 1075.56 -102.73 1078.32996 -107.98744 L 1082.59467 -104.50326" />
    <path d="M 1112.53428 -80.31302 C 1108.69 -119.29 1116.32 -178.08 1115.79292 -173.7293" />
    <path d="M 1310.15534 -113.57537 L 1310.16211 -209.30249" />
    <path d="M 881.10328 -75.7452 C 891.6 -101.44 906.25 -140.02 904.50958 -135.45901" />
    <path d="M 866.6059 -42.56971 C 864.28 -36.1 870.61 -50.05 881.10328 -75.7452 L 885.36799 -72.26103" />
    <path d="M 1316.7687 -244.37879 C 1325.07 -237.6 1294.21 -262.8 1293.36643 -263.48164" />
    <path d="M 1207.62536 -333.30649 C 1206.22 -324.02 1208.71 -262.77 1209.59045 -254.78194 C 1210.13 -249.9 1214.45 -259.75 1210.35284 -253.4585 C 1210.13 -249.9 1214.45 -259.75 1215.75676 -263.43827 C 1216.69 -266.06 1217.88 -267.8 1217.37853 -265.94978 C 1216.69 -266.06 1217.88 -267.8 1219.61013 -262.5834" />
    <path d="M 1233.66842 -311.99856 L 1207.62536 -333.30649" />
    <path d="M 1231.4969 -228.89145 C 1230.07 -257.53 1233.67 -312 1233.66842 -311.99856" />
    <path d="M 1191.68646 -161.47134 C 1190.49 -157.86 1190.31 -157.31 1191.92453 -152.18297 C 1193.54 -147.05 1198.39 -134.26 1198.15953 -134.77652" />
    <path d="M 1199.5423 -180.33783 C 1198.7 -177.45 1193.15 -165.9 1191.68646 -161.47134" />
    <path d="M 1200.17924 -181.38521 C 1201.91 -180.1 1200.39 -183.22 1199.5423 -180.33783" />
    <path d="M 1186.81895 -220.7769 C 1185.55 -219.03 1189.91 -224.71 1192.85964 -228.68416" />
    <path d="M 1173.41295 -135.84311 C 1171.29 -133.19 1166.45 -128.9 1164.74895 -127.19508 C 1163.05 -125.49 1163.53 -122.85 1163.89239 -121.42132" />
    <path d="M 1177.69007 -129.94507 C 1175.95 -136.85 1174.81 -137.59 1174.44392 -136.6326 C 1175.95 -136.85 1174.81 -137.59 1173.41295 -135.84311" />
    <path d="M 1179.05649 -124.17547 C 1180.34 -117.61 1179.44 -123.01 1177.69007 -129.94507" />
    <path d="M 1073.71052 -166.10999 C 1072.76 -171.81 1070.55 -166.3 1077.51666 -163.417 C 1084.48 -160.54 1109.71 -162.68 1113.67067 -164.49598 C 1084.48 -160.54 1109.71 -162.68 1114.81374 -164.7088" />
    <path d="M 1142.43956 -176.39665 C 1137.57 -170.91 1161.38 -189.94 1147.35967 -179.6413" />
    <path d="M 1157.40178 -231.02193 C 1155.31 -226 1138.03 -198.46 1146.0082 -213.36472" />
    <path d="M 1163.76652 -216.59005 C 1166.57 -204.11 1163.68 -216.57 1162.20834 -224.10581 C 1160.74 -231.64 1159.4 -235.8 1158.90675 -233.05218 C 1160.74 -231.64 1159.4 -235.8 1157.40178 -231.02193" />
    <path d="M 1122.40469 -403.04343 C 1121.16 -396.26 1117.29 -364.17 1115.57703 -342.2987 C 1113.86 -320.42 1112.65 -316 1113.73978 -314.44085 C 1114.83 -312.88 1117.82 -323.25 1114.02388 -314.29148 C 1114.83 -312.88 1117.82 -323.25 1122.76473 -342.98956 C 1127.71 -362.73 1134.62 -393.01 1134.62076 -393.0133 L 1122.40469 -403.04343 Z" />
    <path d="M 1111.5048 -112.03462 C 1138.11 -104.07 1117.79 -109.94 1101.82232 -114.84609 C 1085.85 -119.76 1076.84 -132.03 1073.07782 -139.28968 C 1069.32 -146.55 1067.19 -148.79 1065.7987 -147.80625 C 1069.32 -146.55 1067.19 -148.79 1064.97443 -147.48673 C 1062.75 -146.18 1058.03 -141.61 1064.51425 -147.19365" />
    <path d="M 1081.32261 -113.32311 C 1091.73 -104.86 1097.36 -101.22 1082.13646 -112.66308" />
    <path d="M 1065.72144 -123.50549 C 1064.78 -124.62 1070.92 -121.79 1081.32261 -113.32311" />
    <path d="M 1050.74855 -199.10325 C 1050.94 -188.43 1050.93 -171.95 1050.79641 -196.07206" />
    <path d="M 1050.90124 -228.08026 C 1050.9 -219.5 1050.55 -209.78 1050.74855 -199.10325" />
    <path d="M 1053.8692 -223.10319 C 1052.58 -227.56 1050.9 -236.66 1051.27923 -231.62917 C 1052.58 -227.56 1050.9 -236.66 1050.90124 -228.08026" />
    <path d="M 1059.63099 -197.67662 C 1059.9 -196.25 1055.16 -218.64 1053.8692 -223.10319" />
    <path d="M 1070.04346 -260.18257 C 1068.12 -287.97 1067.51 -314.62 1067.27336 -344.2612" />
    <path d="M 1072.46812 -200.00814 C 1067.73 -191.13 1070.09 -195.23 1072.93733 -200.94132 C 1075.79 -206.66 1076.65 -207.34 1074.69236 -215.04421 C 1072.74 -222.75 1071.97 -232.4 1070.04346 -260.18257" />
    <path d="M -505.71764 -1164.65356 L -143.9171 -1230.36492" />
    <path d="M -505.71764 -1114.29983 L -505.71764 -1164.65356" />
    <path d="M -189.14217 -668.45223 A 600 500.82128 309.24812 0 0 -335.54355 -1020.14683" />
    <path d="M -189.14217 -517.99796 L -189.14217 -668.45223" />
    <path d="M -184.87746 -518.77253 L -184.87746 -664.96806 A 600 500.82128 309.24812 0 0 -333.32506 -1018.51017" />
    <path d="M -184.87746 -664.96806 L -189.14217 -668.45223" />
    <path d="M -501.45293 -1161.16938 L -50.55901 -1243.06217" />
    <path d="M -501.45293 -1110.81565 L -501.45293 -1161.16938 L -505.71764 -1164.65356" />
    <path d="M -475.86469 -1102.6571 A 600 500.82128 309.24812 0 0 -501.45293 -1110.81565" />
    <path d="M -475.86469 -1140.2643 L -24.97076 -1222.15709" />
    <path d="M -475.86469 -1089.91057 L -475.86469 -1140.2643" />
    <path d="M -159.28921 -644.06298 A 600 500.82128 309.24812 0 0 -217.09994 -882.23551" />
    <path d="M -228.51165 -902.08677 A 600 500.82128 309.24812 0 0 -320.25544 -1008.39485" />
    <path d="M -159.28921 -518.09651 L -159.28921 -644.06298" />
    <path d="M -471.59998 -1136.78012 L -20.70605 -1218.67291" />
    <path d="M -471.59998 -1086.42639 L -471.59998 -1136.78012 L -475.86469 -1140.2643" />
    <path d="M -155.02451 -640.5788 A 600 500.82128 309.24812 0 0 -214.25864 -881.36119" />
    <path d="M -228.51165 -905.45333 A 600 500.82128 309.24812 0 0 -318.11735 -1006.65978 A 600 500.82128 309.24812 0 0 -471.59998 -1086.42639" />
    <path d="M -155.02451 -514.61233 L -155.02451 -640.5788 L -159.28921 -644.06298" />
    <path d="M -76.33289 -528.90455 L -155.02451 -514.61233 L -159.28921 -518.09651" />
    <path d="M -228.51165 -938.18192 L 222.38227 -1020.07471" />
    <path d="M -228.51165 -887.82819 L -228.51165 -938.18192" />
    <path d="M 88.06382 -441.98059 A 600 500.82128 309.24812 0 0 -58.33756 -793.67519" />
    <path d="M 88.06382 -316.01413 L 88.06382 -441.98059" />
    <path d="M -224.24694 -934.69774 L 226.64698 -1016.59053" />
    <path d="M -224.24694 -884.34401 L -224.24694 -934.69774 L -228.51165 -938.18192" />
    <path d="M 92.32853 -438.49642 A 600 500.82128 309.24812 0 0 -56.11907 -792.03853" />
    <path d="M -198.6587 -876.18546 A 600 500.82128 309.24812 0 0 -224.24694 -884.34401" />
    <path d="M 92.32853 -312.52995 L 92.32853 -438.49642 L 88.06382 -441.98059" />
    <path d="M 117.91678 -317.17737 L 92.32853 -312.52995 L 88.06382 -316.01413" />
    <path d="M -198.6587 -913.79266 L 252.23523 -995.68545" />
    <path d="M -198.6587 -863.43893 L -198.6587 -913.79266" />
    <path d="M 117.91678 -417.59134 A 600 500.82128 309.24812 0 0 60.10605 -655.76387" />
    <path d="M 48.69434 -675.61513 A 600 500.82128 309.24812 0 0 -43.04945 -781.92321" />
    <path d="M 117.91678 -291.62487 L 117.91678 -417.59134" />
    <path d="M -194.39399 -910.30848 L 256.49993 -992.20127" />
    <path d="M -194.39399 -859.95475 L -194.39399 -910.30848 L -198.6587 -913.79266" />
    <path d="M 122.18148 -414.10716 A 600 500.82128 309.24812 0 0 62.94735 -654.88955" />
    <path d="M 48.69434 -678.98169 A 600 500.82128 309.24812 0 0 -40.91136 -780.18815 A 600 500.82128 309.24812 0 0 -194.39399 -859.95475" />
    <path d="M 122.18148 -288.14069 L 122.18148 -414.10716 L 117.91678 -417.59134" />
    <path d="M 200.8731 -302.43291 L 122.18148 -288.14069 L 117.91678 -291.62487" />
    <path d="M 48.69434 -711.71028 L 499.58826 -793.60307" />
    <path d="M 48.69434 -661.35655 L 48.69434 -711.71028" />
    <path d="M 365.26981 -215.50896 A 600 500.82128 309.24812 0 0 218.86843 -567.20355" />
    <path d="M 365.26981 -89.54249 L 365.26981 -215.50896" />
    <path d="M 52.95905 -708.2261 L 503.85297 -790.11889" />
    <path d="M 52.95905 -657.87237 L 52.95905 -708.2261 L 48.69434 -711.71028" />
    <path d="M 369.53452 -212.02478 A 600 500.82128 309.24812 0 0 221.08691 -565.56689" />
    <path d="M 78.54729 -649.71382 A 600 500.82128 309.24812 0 0 52.95905 -657.87237" />
    <path d="M 369.53452 -86.05831 L 369.53452 -212.02478 L 365.26981 -215.50896" />
    <path d="M 395.12276 -90.70573 L 369.53452 -86.05831 L 365.26981 -89.54249" />
    <path d="M 78.54729 -687.32102 L 529.44121 -769.21381" />
    <path d="M 78.54729 -636.96729 L 78.54729 -687.32102" />
    <path d="M 395.12276 -191.1197 A 600 500.82128 309.24812 0 0 337.31204 -429.29223" />
    <path d="M 325.90033 -449.14349 A 600 500.82128 309.24812 0 0 234.15653 -555.45157" />
    <path d="M 395.12276 -65.15323 L 395.12276 -191.1197" />
    <path d="M 82.812 -683.83684 L 533.70592 -765.72963" />
    <path d="M 82.812 -633.48311 L 82.812 -683.83684 L 78.54729 -687.32102" />
    <path d="M 399.38747 -187.63552 A 600 500.82128 309.24812 0 0 340.15334 -428.41791" />
    <path d="M 325.90033 -452.51005 A 600 500.82128 309.24812 0 0 236.29463 -553.71651 A 600 500.82128 309.24812 0 0 82.812 -633.48311" />
    <path d="M 399.38747 -61.66905 L 399.38747 -187.63552 L 395.12276 -191.1197" />
    <path d="M 478.07909 -75.96128 L 399.38747 -61.66905 L 395.12276 -65.15323" />
    <path d="M 325.90033 -485.23864 L 776.79425 -567.13143" />
    <path d="M 325.90033 -434.88491 L 325.90033 -485.23864" />
    <path d="M 641.21754 -26.49145 A 600 500.82128 309.24812 0 0 496.07441 -340.73191" />
    <path d="M 330.16503 -481.75446 L 781.05896 -563.64725" />
    <path d="M 330.16503 -431.40073 L 330.16503 -481.75446 L 325.90033 -485.23864" />
    <path d="M 645.18134 -27.21136 A 600 500.82128 309.24812 0 0 498.2929 -339.09526" />
    <path d="M 355.75328 -423.24218 A 600 500.82128 309.24812 0 0 330.16503 -431.40073" />
    <path d="M 355.75328 -460.84938 L 806.6472 -542.74217" />
    <path d="M 355.75328 -410.49565 L 355.75328 -460.84938" />
    <path d="M 668.28174 -31.40693 A 600 500.82128 309.24812 0 0 511.36252 -328.97993" />
    <path d="M 360.01799 -457.3652 L 810.91191 -539.25799" />
    <path d="M 360.01799 -407.01147 L 360.01799 -457.3652 L 355.75328 -460.84938" />
    <path d="M 671.67227 -34.66731 A 600 500.82128 309.24812 0 0 513.50061 -327.24487 A 600 500.82128 309.24812 0 0 360.01799 -407.01147" />
    <path d="M -27.3708 -412.55891 L -465.30001 -333.02082" />
    <path d="M -27.3708 -387.00642 L -27.3708 -412.55891" />
    <path d="M -31.63551 -416.04309 L -465.30001 -337.27957" />
    <path d="M -274.72384 -614.6413 L -704.91742 -536.50817" />
    <path d="M -274.72384 -564.28757 L -274.72384 -614.6413" />
    <path d="M -482.91526 -355.13694 A 600 500.82128 129.24812 0 1 -274.72384 -564.28757" />
    <path d="M -278.98854 -618.12548 L -709.18212 -539.99235" />
    <path d="M -304.57679 -639.03055 L -734.77037 -560.89743" />
    <path d="M -304.57679 -613.47806 L -304.57679 -639.03055" />
    <path d="M -308.8415 -642.51473 L -739.03508 -564.38161" />
    <path d="M -551.92982 -841.11294 L -982.12341 -762.97981" />
    <path d="M -551.92982 -790.75921 L -551.92982 -841.11294" />
    <path d="M -760.12125 -581.60857 A 600 500.82128 129.24812 0 1 -551.92982 -790.75921" />
    <path d="M -556.19453 -844.59712 L -986.38811 -766.46399" />
    <path d="M -581.78278 -865.50219 L -1011.97636 -787.36907" />
    <path d="M -581.78278 -839.9497 L -581.78278 -865.50219" />
    <path d="M -586.04748 -868.98637 L -1016.24107 -790.85325" />
    <path d="M -829.13581 -1067.58458 L -1259.32939 -989.45145" />
    <path d="M -829.13581 -1017.23085 L -829.13581 -1067.58458" />
    <path d="M -1037.32723 -808.08021 A 600 500.82128 129.24812 0 1 -829.13581 -1017.23085" />
    <path d="M -833.40052 -1071.06876 L -1263.5941 -992.93563" />
    <path d="M -858.98877 -1091.97383 L -1289.18235 -1013.84071" />
    <path d="M -858.98877 -1066.42134 L -858.98877 -1091.97383" />
    <path d="M -863.25347 -1095.45801 L -1293.44705 -1017.32489" />
    <path d="M -1225.13931 -1029.73116 L -1225.13931 -1050.48775" />
    <path d="M -499.2583 -299.91647 L -499.2583 898.37995" />
    <path d="M -454.03323 -308.13039 L -499.2583 -299.91647 L -494.99359 -296.43229" />
    <path d="M -454.03323 -309.51463 L -454.03323 -308.13039 L -449.76852 -304.64621" />
    <path d="M -1.78255 -391.65384 L -454.03323 -309.51463 L -449.76852 -306.03045" />
    <path d="M 1194.18578 -152.59367 C 1194.16 -152.67 1194.14 -152.74 1194.11746 -152.81184 C 1194.09 -152.88 1194.07 -152.96 1194.04951 -153.0304 C 1194.03 -153.1 1194 -153.18 1193.98198 -153.2494 C 1193.96 -153.32 1193.94 -153.4 1193.91495 -153.46892 C 1193.89 -153.54 1193.87 -153.62 1193.8485 -153.68901 C 1193.83 -153.76 1193.8 -153.84 1193.7827 -153.90975 C 1193.77 -153.95 1193.76 -153.98 1193.75009 -154.02038 C 1193.74 -154.06 1193.73 -154.09 1193.71769 -154.13122 C 1193.71 -154.17 1193.7 -154.21 1193.68551 -154.24226 C 1193.67 -154.28 1193.66 -154.32 1193.65358 -154.35351 C 1193.64 -154.39 1193.63 -154.42 1193.62434 -154.45641 C 1193.61 -154.49 1193.6 -154.53 1193.59534 -154.55949 C 1193.59 -154.59 1193.58 -154.63 1193.56661 -154.66279 C 1193.56 -154.7 1193.55 -154.73 1193.53815 -154.7663 C 1193.53 -154.8 1193.52 -154.84 1193.51 -154.87006 C 1193.5 -154.9 1193.49 -154.94 1193.48217 -154.97406 C 1193.47 -155.01 1193.46 -155.04 1193.45469 -155.07832 C 1193.45 -155.11 1193.44 -155.15 1193.4276 -155.18285 C 1193.42 -155.22 1193.41 -155.25 1193.40091 -155.28765 C 1193.39 -155.32 1193.38 -155.36 1193.37466 -155.39273 C 1193.37 -155.43 1193.36 -155.46 1193.3489 -155.49808 C 1193.34 -155.53 1193.33 -155.57 1193.32365 -155.60372 C 1193.32 -155.64 1193.31 -155.67 1193.29897 -155.70965 C 1193.29 -155.75 1193.28 -155.78 1193.27489 -155.81586 C 1193.27 -155.85 1193.26 -155.89 1193.25148 -155.92235 C 1193.24 -155.96 1193.24 -155.99 1193.22877 -156.02913 C 1193.21 -156.13 1193.19 -156.23 1193.16871 -156.33352 C 1193.15 -156.44 1193.13 -156.54 1193.11637 -156.63921 C 1193.07 -156.95 1193.03 -157.26 1193.02131 -157.5593 C 1192.99 -159.47 1193.57 -160.58 1193.94772 -161.88204 L 1191.68646 -161.47134" />
    <path d="M 1193.94772 -161.88204 C 1193.96 -161.91 1193.97 -161.94 1193.97835 -161.9741 C 1193.99 -162 1194 -162.04 1194.00926 -162.06562 C 1194.02 -162.1 1194.03 -162.13 1194.04043 -162.15663 C 1194.05 -162.19 1194.06 -162.22 1194.07181 -162.24717 C 1194.08 -162.28 1194.09 -162.31 1194.10341 -162.33728 C 1194.11 -162.37 1194.12 -162.4 1194.1352 -162.427 C 1194.15 -162.46 1194.16 -162.49 1194.16717 -162.51635 C 1194.18 -162.55 1194.19 -162.58 1194.1993 -162.60535 C 1194.21 -162.63 1194.22 -162.66 1194.23159 -162.69402 C 1194.24 -162.72 1194.25 -162.75 1194.26402 -162.78239 C 1194.27 -162.81 1194.29 -162.84 1194.29659 -162.87048 C 1194.31 -162.9 1194.32 -162.93 1194.32928 -162.9583 C 1194.35 -163.02 1194.37 -163.08 1194.39502 -163.13318 C 1194.42 -163.19 1194.44 -163.25 1194.46119 -163.30715 C 1194.48 -163.36 1194.5 -163.41 1194.52227 -163.46613 C 1194.54 -163.52 1194.56 -163.57 1194.58365 -163.62447 C 1194.6 -163.68 1194.62 -163.73 1194.64529 -163.78222 C 1194.67 -163.83 1194.69 -163.89 1194.70719 -163.93944 C 1194.73 -163.99 1194.75 -164.04 1194.76931 -164.09615 C 1194.79 -164.15 1194.81 -164.2 1194.83164 -164.2524 C 1194.85 -164.3 1194.87 -164.36 1194.89417 -164.40822 C 1194.92 -164.46 1194.94 -164.51 1194.95688 -164.56363 C 1194.98 -164.62 1195 -164.67 1195.01977 -164.71867 C 1195.04 -164.77 1195.06 -164.82 1195.08281 -164.87334 C 1195.1 -164.92 1195.12 -164.98 1195.146 -165.02769 C 1195.17 -165.08 1195.19 -165.13 1195.20934 -165.18172 C 1195.25 -165.28 1195.29 -165.39 1195.33639 -165.4889 C 1195.38 -165.59 1195.42 -165.69 1195.46392 -165.79503 C 1195.92 -166.89 1196.39 -167.97 1196.85318 -169.0384 C 1197.87 -171.38 1198.9 -173.68 1199.91857 -176.02732" />
    <path d="M 1198.38408 -140.70944 C 1198.3 -140.93 1198.22 -141.15 1198.1409 -141.37187 C 1198.06 -141.59 1197.98 -141.81 1197.89799 -142.03475 C 1197.82 -142.26 1197.74 -142.48 1197.6554 -142.69815 C 1197.57 -142.92 1197.49 -143.14 1197.41317 -143.36211 C 1197.34 -143.57 1197.26 -143.79 1197.18077 -144.00081 C 1197.1 -144.21 1197.03 -144.43 1196.94879 -144.64018 C 1196.87 -144.85 1196.79 -145.07 1196.7173 -145.2803 C 1196.68 -145.39 1196.64 -145.49 1196.60175 -145.60067 C 1196.56 -145.71 1196.52 -145.81 1196.48635 -145.92127 C 1196.45 -146.03 1196.41 -146.14 1196.37111 -146.24211 C 1196.33 -146.35 1196.29 -146.46 1196.25603 -146.5632 C 1196.22 -146.67 1196.18 -146.78 1196.14114 -146.88456 C 1196.1 -146.99 1196.06 -147.1 1196.02643 -147.20622 C 1195.99 -147.31 1195.95 -147.42 1195.91193 -147.52818 C 1195.87 -147.64 1195.84 -147.74 1195.79766 -147.85047 C 1195.76 -147.96 1195.72 -148.07 1195.68363 -148.17312 C 1195.65 -148.28 1195.61 -148.39 1195.56986 -148.49616 C 1195.53 -148.62 1195.48 -148.75 1195.43674 -148.87572 C 1195.39 -149 1195.35 -149.13 1195.30407 -149.2559 C 1195.26 -149.38 1195.22 -149.51 1195.17189 -149.63678 C 1195.15 -149.7 1195.13 -149.76 1195.106 -149.82751 C 1195.08 -149.89 1195.06 -149.95 1195.04026 -150.01845 C 1195.02 -150.08 1195 -150.15 1194.97469 -150.2096 C 1194.95 -150.27 1194.93 -150.34 1194.90928 -150.40099 C 1194.89 -150.46 1194.87 -150.53 1194.84406 -150.59262 C 1194.82 -150.66 1194.8 -150.72 1194.77903 -150.78452 C 1194.76 -150.85 1194.74 -150.91 1194.71423 -150.9767 C 1194.69 -151.04 1194.67 -151.1 1194.64965 -151.16918 C 1194.61 -151.3 1194.56 -151.43 1194.5213 -151.55516 C 1194.41 -151.9 1194.3 -152.24 1194.18578 -152.59367 L 1191.92453 -152.18297" />
    <path d="M 1167.0102 -127.60578 C 1167.02 -127.62 1167.04 -127.63 1167.04828 -127.64386 C 1167.06 -127.66 1167.07 -127.67 1167.0864 -127.68182 C 1167.11 -127.71 1167.14 -127.73 1167.16276 -127.7574 C 1167.19 -127.78 1167.21 -127.81 1167.23924 -127.83259 C 1167.26 -127.86 1167.29 -127.88 1167.31583 -127.90744 C 1167.34 -127.93 1167.37 -127.96 1167.39252 -127.98201 C 1167.42 -128.01 1167.44 -128.03 1167.46929 -128.05633 C 1167.49 -128.08 1167.52 -128.11 1167.54612 -128.13043 C 1167.57 -128.16 1167.6 -128.18 1167.62302 -128.20434 C 1167.66 -128.24 1167.7 -128.28 1167.74525 -128.32139 C 1167.79 -128.36 1167.83 -128.4 1167.86758 -128.43809 C 1167.91 -128.48 1167.95 -128.52 1167.99001 -128.55451 C 1168.03 -128.59 1168.07 -128.63 1168.11251 -128.67069 C 1168.15 -128.71 1168.19 -128.75 1168.23508 -128.78669 C 1168.28 -128.83 1168.32 -128.86 1168.35769 -128.90253 C 1168.4 -128.94 1168.44 -128.98 1168.48035 -129.01825 C 1168.52 -129.06 1168.56 -129.1 1168.60303 -129.13388 C 1168.66 -129.18 1168.71 -129.23 1168.76164 -129.28321 C 1168.81 -129.33 1168.87 -129.38 1168.92026 -129.43246 C 1168.97 -129.48 1169.03 -129.53 1169.07891 -129.58168 C 1169.13 -129.63 1169.18 -129.68 1169.23756 -129.73089 C 1169.29 -129.78 1169.34 -129.83 1169.39621 -129.88014 C 1169.45 -129.93 1169.5 -129.98 1169.55484 -130.02944 C 1169.61 -130.08 1169.66 -130.13 1169.71345 -130.17882 C 1169.77 -130.23 1169.82 -130.28 1169.87204 -130.32832 C 1169.99 -130.44 1170.12 -130.56 1170.23785 -130.67384 C 1170.36 -130.79 1170.48 -130.9 1170.60338 -131.02034 C 1170.85 -131.25 1171.09 -131.48 1171.33332 -131.71733 C 1171.82 -132.18 1172.3 -132.66 1172.78626 -133.13525 C 1173.7 -134.05 1174.62 -134.99 1175.49837 -136.03773" />
    <path d="M 1166.15365 -121.83201 C 1166.15 -121.88 1166.14 -121.93 1166.12884 -121.97573 C 1166.12 -122.01 1166.12 -122.03 1166.114 -122.06378 C 1166.11 -122.09 1166.1 -122.12 1166.09946 -122.15185 C 1166.09 -122.18 1166.09 -122.21 1166.08522 -122.23994 C 1166.08 -122.27 1166.08 -122.3 1166.0713 -122.32803 C 1166.07 -122.36 1166.06 -122.39 1166.05772 -122.41613 C 1166.05 -122.45 1166.05 -122.47 1166.04448 -122.50421 C 1166.04 -122.53 1166.04 -122.56 1166.03161 -122.59229 C 1166.03 -122.62 1166.02 -122.65 1166.01913 -122.68033 C 1166.02 -122.71 1166.01 -122.74 1166.00705 -122.76834 C 1166 -122.8 1166 -122.83 1165.99538 -122.85629 C 1165.99 -122.89 1165.99 -122.91 1165.98416 -122.94418 C 1165.98 -122.97 1165.98 -123 1165.9734 -123.03199 C 1165.97 -123.06 1165.97 -123.09 1165.96311 -123.1197 C 1165.96 -123.15 1165.96 -123.18 1165.95332 -123.20728 C 1165.95 -123.24 1165.95 -123.27 1165.94405 -123.29473 C 1165.94 -123.32 1165.94 -123.35 1165.93532 -123.38202 C 1165.93 -123.43 1165.93 -123.48 1165.92153 -123.53291 C 1165.92 -123.58 1165.91 -123.63 1165.90954 -123.68308 C 1165.91 -123.73 1165.9 -123.78 1165.89948 -123.83237 C 1165.9 -123.88 1165.89 -123.93 1165.89143 -123.9806 C 1165.89 -124.03 1165.89 -124.07 1165.88596 -124.11464 C 1165.88 -124.16 1165.88 -124.2 1165.88234 -124.24748 C 1165.88 -124.29 1165.88 -124.34 1165.88063 -124.37892 C 1165.88 -124.42 1165.88 -124.47 1165.88091 -124.50879 C 1165.88 -124.55 1165.88 -124.59 1165.88321 -124.6369 C 1165.88 -124.68 1165.89 -124.72 1165.88759 -124.76307 C 1165.89 -124.85 1165.9 -124.93 1165.90262 -125.00891 C 1165.93 -125.38 1165.99 -125.71 1166.07289 -125.99524 C 1166.29 -126.76 1166.64 -127.23 1167.0102 -127.60578 L 1164.74895 -127.19508" />
    <path d="M 1079.77792 -163.82769 C 1079.72 -163.85 1079.66 -163.88 1079.59744 -163.90376 C 1079.54 -163.93 1079.48 -163.96 1079.41673 -163.98297 C 1079.36 -164.01 1079.3 -164.04 1079.23577 -164.06551 C 1079.21 -164.08 1079.18 -164.09 1079.1452 -164.10809 C 1079.11 -164.12 1079.08 -164.14 1079.05456 -164.15157 C 1079.02 -164.17 1078.99 -164.18 1078.96387 -164.196 C 1078.93 -164.21 1078.9 -164.23 1078.87311 -164.24139 C 1078.84 -164.26 1078.81 -164.27 1078.78229 -164.28779 C 1078.75 -164.3 1078.72 -164.32 1078.6914 -164.33522 C 1078.66 -164.35 1078.63 -164.37 1078.60046 -164.38372 C 1078.57 -164.4 1078.54 -164.42 1078.50945 -164.43333 C 1078.48 -164.45 1078.45 -164.47 1078.41838 -164.48408 C 1078.39 -164.5 1078.36 -164.52 1078.32725 -164.53602 C 1078.28 -164.56 1078.23 -164.59 1078.18328 -164.62055 C 1078.14 -164.65 1078.09 -164.68 1078.03918 -164.70834 C 1078.02 -164.72 1077.99 -164.74 1077.96707 -164.75352 C 1077.94 -164.77 1077.92 -164.78 1077.89493 -164.7996 C 1077.87 -164.82 1077.85 -164.83 1077.82276 -164.84661 C 1077.8 -164.86 1077.77 -164.88 1077.75055 -164.89457 C 1077.73 -164.91 1077.7 -164.93 1077.67832 -164.94353 C 1077.65 -164.96 1077.63 -164.98 1077.60606 -164.99351 C 1077.58 -165.01 1077.56 -165.03 1077.53377 -165.04456 C 1077.51 -165.06 1077.49 -165.08 1077.46146 -165.0967 C 1077.44 -165.11 1077.41 -165.13 1077.38914 -165.14999 C 1077.37 -165.17 1077.34 -165.19 1077.31679 -165.20447 C 1077.29 -165.22 1077.27 -165.24 1077.24443 -165.26017 C 1077.22 -165.28 1077.2 -165.3 1077.17206 -165.31717 C 1077.07 -165.4 1076.97 -165.48 1076.87045 -165.56972 C 1076.77 -165.66 1076.67 -165.75 1076.56935 -165.84998 C 1076.37 -166.05 1076.17 -166.27 1075.97264 -166.51957" />
    <path d="M 1114.79139 -164.70454 C 1114.62 -164.68 1114.46 -164.65 1114.29078 -164.6189 C 1114.12 -164.59 1113.96 -164.56 1113.78984 -164.53503 C 1113.62 -164.51 1113.46 -164.48 1113.2886 -164.45292 C 1113.12 -164.43 1112.95 -164.4 1112.78704 -164.37252 C 1112.62 -164.35 1112.45 -164.32 1112.28519 -164.29383 C 1112.12 -164.27 1111.95 -164.24 1111.78303 -164.21681 C 1111.62 -164.19 1111.45 -164.17 1111.28058 -164.14146 C 1111.11 -164.12 1110.95 -164.09 1110.77784 -164.06774 C 1110.61 -164.04 1110.44 -164.02 1110.27482 -163.99565 C 1110.11 -163.97 1109.94 -163.95 1109.77151 -163.92517 C 1109.6 -163.9 1109.44 -163.88 1109.26792 -163.8563 C 1109.1 -163.83 1108.93 -163.81 1108.76406 -163.78901 C 1108.6 -163.77 1108.43 -163.74 1108.25992 -163.72331 C 1108.09 -163.7 1107.92 -163.68 1107.75551 -163.65919 C 1107.59 -163.64 1107.42 -163.62 1107.25082 -163.59664 C 1107.08 -163.58 1106.91 -163.56 1106.74586 -163.53567 C 1106.53 -163.51 1106.31 -163.48 1106.09221 -163.45912 C 1105.87 -163.43 1105.66 -163.41 1105.4381 -163.3852 C 1105.22 -163.36 1105 -163.34 1104.78354 -163.31392 C 1104.57 -163.29 1104.35 -163.27 1104.12854 -163.24529 C 1103.91 -163.22 1103.69 -163.2 1103.47308 -163.17933 C 1103.25 -163.16 1103.04 -163.14 1102.81717 -163.11607 C 1102.6 -163.1 1102.38 -163.08 1102.1608 -163.05552 C 1101.94 -163.04 1101.72 -163.02 1101.50397 -162.99773 C 1101.28 -162.98 1101.07 -162.96 1100.84667 -162.94274 C 1100.63 -162.92 1100.41 -162.91 1100.18891 -162.89058 C 1099.97 -162.87 1099.75 -162.86 1099.53066 -162.84132 C 1099.31 -162.83 1099.09 -162.81 1098.87194 -162.79502 C 1097.99 -162.74 1097.11 -162.68 1096.23196 -162.64087 C 1090.82 -162.54 1085.44 -162.05 1079.77792 -163.82769 L 1077.51666 -163.417" />
    <path d="M 1148.26946 -213.77542 C 1148.4 -213.95 1148.54 -214.13 1148.67481 -214.31508 C 1148.81 -214.5 1148.94 -214.68 1149.07919 -214.85767 C 1149.21 -215.04 1149.35 -215.22 1149.48257 -215.40323 C 1149.62 -215.59 1149.75 -215.77 1149.88494 -215.95179 C 1150.02 -216.14 1150.15 -216.32 1150.28628 -216.50337 C 1150.42 -216.69 1150.55 -216.87 1150.68659 -217.05803 C 1150.82 -217.24 1150.95 -217.43 1151.08583 -217.6158 C 1151.22 -217.8 1151.35 -217.99 1151.48399 -218.17674 C 1151.63 -218.39 1151.78 -218.6 1151.92786 -218.80774 C 1152.08 -219.02 1152.22 -219.23 1152.37032 -219.44286 C 1152.52 -219.66 1152.66 -219.87 1152.81131 -220.0822 C 1152.88 -220.19 1152.96 -220.3 1153.03124 -220.40349 C 1153.1 -220.51 1153.18 -220.62 1153.25079 -220.72589 C 1153.32 -220.83 1153.4 -220.94 1153.46995 -221.0494 C 1153.54 -221.16 1153.62 -221.27 1153.68871 -221.37405 C 1153.76 -221.48 1153.83 -221.59 1153.90706 -221.69986 C 1153.98 -221.81 1154.05 -221.92 1154.12499 -222.02686 C 1154.2 -222.14 1154.27 -222.25 1154.3425 -222.35506 C 1154.41 -222.46 1154.49 -222.57 1154.55957 -222.6845 C 1154.63 -222.79 1154.7 -222.9 1154.77619 -223.0152 C 1154.85 -223.13 1154.92 -223.24 1154.99234 -223.3472 C 1155.05 -223.43 1155.1 -223.52 1155.16002 -223.60617 C 1155.22 -223.69 1155.27 -223.78 1155.3274 -223.86596 C 1155.38 -223.95 1155.44 -224.04 1155.49448 -224.12659 C 1155.55 -224.21 1155.61 -224.3 1155.66125 -224.38809 C 1155.72 -224.48 1155.77 -224.56 1155.82769 -224.65048 C 1155.88 -224.74 1155.94 -224.83 1155.99381 -224.91378 C 1156.1 -225.09 1156.21 -225.27 1156.325 -225.44326 C 1156.77 -226.15 1157.2 -226.87 1157.63356 -227.60527 C 1158.33 -228.82 1159.04 -230.02 1159.66303 -231.43263 L 1157.40178 -231.02193" />
    <path d="M 1159.66303 -231.43263 C 1159.68 -231.47 1159.69 -231.5 1159.70397 -231.52974 C 1159.72 -231.56 1159.73 -231.59 1159.74535 -231.62577 C 1159.76 -231.66 1159.77 -231.69 1159.78719 -231.72069 C 1159.8 -231.75 1159.82 -231.78 1159.82952 -231.81443 C 1159.84 -231.85 1159.86 -231.88 1159.87236 -231.90696 C 1159.89 -231.94 1159.9 -231.97 1159.91573 -231.9982 C 1159.93 -232.03 1159.94 -232.06 1159.95966 -232.0881 C 1159.97 -232.12 1159.99 -232.15 1160.00417 -232.17657" />
    <path d="M 1064.54727 -145.83183 C 1064.58 -145.86 1064.62 -145.89 1064.65185 -145.92336 C 1064.69 -145.95 1064.72 -145.98 1064.75657 -146.01439 C 1064.79 -146.04 1064.83 -146.07 1064.86143 -146.1049 C 1064.9 -146.13 1064.93 -146.16 1064.96644 -146.19486 C 1065 -146.22 1065.04 -146.25 1065.0716 -146.28425 C 1065.11 -146.31 1065.14 -146.34 1065.17693 -146.37306 C 1065.21 -146.4 1065.25 -146.43 1065.28242 -146.46125 C 1065.32 -146.49 1065.35 -146.52 1065.38809 -146.54879 C 1065.42 -146.57 1065.45 -146.6 1065.48196 -146.62589 C 1065.51 -146.65 1065.54 -146.68 1065.57599 -146.70243 C 1065.61 -146.73 1065.64 -146.75 1065.67017 -146.77839 C 1065.7 -146.8 1065.73 -146.83 1065.7645 -146.85375 C 1065.8 -146.88 1065.83 -146.9 1065.85901 -146.92848 C 1065.89 -146.95 1065.92 -146.98 1065.95369 -147.00253 C 1065.99 -147.03 1066.02 -147.05 1066.04856 -147.07588 C 1066.08 -147.1 1066.11 -147.12 1066.14362 -147.14849 C 1066.18 -147.17 1066.21 -147.2 1066.23889 -147.22031 C 1066.27 -147.24 1066.3 -147.27 1066.33437 -147.29129 C 1066.37 -147.31 1066.4 -147.34 1066.43008 -147.36138 C 1066.46 -147.38 1066.49 -147.41 1066.52604 -147.43051 C 1066.56 -147.45 1066.59 -147.48 1066.62226 -147.49861 C 1066.65 -147.52 1066.69 -147.54 1066.71876 -147.5656 C 1066.75 -147.59 1066.78 -147.61 1066.81555 -147.63139 C 1066.85 -147.65 1066.88 -147.67 1066.91267 -147.69586" />
    <path d="M 1084.65173 -112.86868 C 1084.47 -113.01 1084.29 -113.16 1084.11044 -113.30627 C 1083.93 -113.45 1083.76 -113.59 1083.58386 -113.7338 L 1081.32261 -113.32311" />
    <path d="M 1083.58386 -113.7338 C 1083.41 -113.88 1083.23 -114.02 1083.05809 -114.1597 C 1082.88 -114.3 1082.71 -114.44 1082.53234 -114.58176 C 1082.36 -114.72 1082.18 -114.86 1082.0066 -114.99984 C 1081.83 -115.14 1081.66 -115.28 1081.48089 -115.41377 C 1081.31 -115.55 1081.13 -115.69 1080.95521 -115.82338 C 1080.78 -115.96 1080.6 -116.09 1080.42957 -116.22849 C 1080.25 -116.36 1080.08 -116.5 1079.90399 -116.62892 C 1079.73 -116.76 1079.55 -116.89 1079.37846 -117.02447 C 1079.2 -117.16 1079.03 -117.29 1078.85301 -117.41493 C 1078.68 -117.54 1078.5 -117.67 1078.32765 -117.80009 C 1078.15 -117.93 1077.98 -118.05 1077.8024 -118.17972 C 1077.63 -118.31 1077.45 -118.43 1077.27727 -118.55358 C 1077.1 -118.68 1076.93 -118.8 1076.75229 -118.92143 C 1076.58 -119.04 1076.4 -119.16 1076.22746 -119.283 C 1076.05 -119.4 1075.88 -119.52 1075.70283 -119.63802 C 1075.53 -119.76 1075.35 -119.87 1075.17839 -119.98621 C 1075.04 -120.08 1074.9 -120.17 1074.76321 -120.25694 C 1074.62 -120.35 1074.49 -120.44 1074.34818 -120.52304 C 1074.21 -120.61 1074.07 -120.7 1073.93334 -120.78437 C 1073.8 -120.87 1073.66 -120.96 1073.5187 -121.04075 C 1073.38 -121.13 1073.24 -121.21 1073.10427 -121.29202 C 1072.97 -121.37 1072.83 -121.46 1072.69008 -121.53802 C 1072.55 -121.62 1072.41 -121.7 1072.27615 -121.77856 C 1072.14 -121.86 1072 -121.94 1071.8625 -122.01347 C 1071.72 -122.09 1071.59 -122.17 1071.44916 -122.24256 C 1071.31 -122.32 1071.17 -122.39 1071.03615 -122.46566 C 1070.9 -122.54 1070.76 -122.61 1070.6235 -122.68257 C 1070.49 -122.75 1070.35 -122.82 1070.21124 -122.89311 C 1069.66 -123.17 1069.11 -123.43 1068.56672 -123.66776 C 1067.58 -124.1 1066.6 -124.47 1065.6316 -124.76044" />
    <path d="M 1053.05767 -196.48275 C 1053.05 -196.73 1053.05 -196.99 1053.04692 -197.23966 C 1053.04 -197.49 1053.04 -197.74 1053.03542 -197.99712 C 1053.03 -198.25 1053.03 -198.5 1053.02308 -198.7552 C 1053.02 -198.88 1053.02 -199.01 1053.01657 -199.13448 C 1053.01 -199.26 1053.01 -199.39 1053.00981 -199.51394 L 1050.74855 -199.10325" />
    <path d="M 1053.00981 -199.51394 C 1053 -199.8 1053 -200.09 1052.99524 -200.37904 C 1052.99 -200.67 1052.99 -200.95 1052.98292 -201.24247 C 1052.98 -201.53 1052.98 -201.82 1052.97276 -202.10426 C 1052.97 -202.39 1052.97 -202.68 1052.96467 -202.96447 C 1052.96 -203.25 1052.96 -203.54 1052.95855 -203.82313 C 1052.96 -204.11 1052.96 -204.39 1052.95433 -204.6803 C 1052.95 -204.97 1052.95 -205.25 1052.95189 -205.53604 C 1052.95 -205.82 1052.95 -206.11 1052.95116 -206.39041 C 1052.95 -206.67 1052.95 -206.96 1052.95203 -207.24346 C 1052.95 -207.53 1052.95 -207.81 1052.9544 -208.09526 C 1052.96 -208.38 1052.96 -208.66 1052.95819 -208.94588 C 1052.96 -209.23 1052.96 -209.51 1052.96328 -209.7954 C 1052.97 -210.08 1052.97 -210.36 1052.96958 -210.64389 C 1052.97 -210.93 1052.97 -211.21 1052.97698 -211.49143 C 1052.98 -211.77 1052.98 -212.06 1052.98538 -212.33812 C 1052.99 -212.62 1052.99 -212.9 1052.99466 -213.18404 C 1053 -213.49 1053 -213.8 1053.00564 -214.10472 C 1053.01 -214.41 1053.01 -214.72 1053.01739 -215.02471 C 1053.02 -215.33 1053.03 -215.64 1053.02975 -215.94417 C 1053.03 -216.25 1053.04 -216.56 1053.04256 -216.86322 C 1053.05 -217.11 1053.05 -217.36 1053.05327 -217.61581 C 1053.06 -217.87 1053.06 -218.12 1053.06408 -218.36832 C 1053.07 -218.61 1053.07 -218.85 1053.07435 -219.08389 C 1053.08 -219.32 1053.08 -219.56 1053.08454 -219.79954 C 1053.09 -220.03 1053.09 -220.27 1053.09436 -220.50202 C 1053.1 -220.74 1053.1 -220.97 1053.10392 -221.20472 C 1053.11 -221.44 1053.11 -221.67 1053.11313 -221.90773 C 1053.12 -222.14 1053.12 -222.38 1053.12188 -222.61113 C 1053.13 -223.14 1053.13 -223.67 1053.13949 -224.20594 C 1053.14 -224.74 1053.15 -225.27 1053.153 -225.80426" />
    <path d="M -505.71764 -1114.29983 L -501.45293 -1110.81565" />
    <path d="M -475.86469 -1089.91057 L -471.59998 -1086.42639" />
    <path d="M 88.06382 -394.59579 L -76.33289 -528.90455" />
    <path d="M 365.26981 -168.12415 L 200.8731 -302.43291" />
    <path d="M 557.28932 -11.24814 L 478.07909 -75.96128" />
    <path d="M -232.82035 -83.19576 L -13.06022 96.34378" />
    <path d="M -159.28921 -523.41995 L -376.10173 -484.04177" />
    <path d="M -228.51165 -887.82819 L -224.24694 -884.34401" />
    <path d="M -198.6587 -863.43893 L -194.39399 -859.95475" />
    <path d="M 48.69434 -661.35655 L 52.95905 -657.87237" />
    <path d="M 78.54729 -636.96729 L 82.812 -633.48311" />
    <path d="M 325.90033 -434.88491 L 330.16503 -431.40073" />
    <path d="M 355.75328 -410.49565 L 360.01799 -407.01147" />
    <path d="M -863.25347 -1095.45801 L -858.98877 -1091.97383" />
    <path d="M -833.40052 -1071.06876 L -829.13581 -1067.58458" />
    <path d="M -586.04748 -868.98637 L -581.78278 -865.50219" />
    <path d="M -556.19453 -844.59712 L -551.92982 -841.11294" />
    <path d="M -308.8415 -642.51473 L -304.57679 -639.03055" />
    <path d="M -278.98854 -618.12548 L -274.72384 -614.6413" />
    <path d="M -31.63551 -416.04309 L -27.3708 -412.55891" />
    <path d="M -314.09332 374.5875 L -35.79701 324.04244" />
    <path d="M -314.09332 315.98772 L -35.79701 265.44265" />
    <path d="M -16.67822 97.0009 L -234.18095 -80.69439" />
    <path d="M -1.78255 -391.65384 L 2.48215 -388.16966" />
    <path d="M 1171.19606 -252.95671 L 1168.93481 -252.54602" />
    <path d="M 1139.3377 -290.4575 L 1137.07644 -290.04681" />
    <path d="M 1211.98398 -255.21666 L 1209.59045 -254.78194" />
    <path d="M 1122.9259 -343.63342 L 1115.57703 -342.2987" />
    <path d="M 1114.37676 -314.55654 L 1113.73978 -314.44085" />
    <path d="M 1065.7639 -259.93598 L 1063.50265 -259.52528" />
    <path d="M 1068.24037 -201.73565 L 1065.97911 -201.32495" />
    <path d="M 1170.97652 -237.48109 L 1168.71526 -237.07039" />
    <path d="M 1087.83432 -261.5032 L 1085.57307 -261.0925" />
    <path d="M 1084.74276 -234.74526 L 1084.65964 -234.73016" />
    <path d="M 1089.73749 -206.22749 L 1087.47943 -205.81737" />
    <path d="M 1097.19537 -230.61682 L 1094.93412 -230.20613" />
    <path d="M 1114.88884 -255.44327 L 1112.62759 -255.03258" />
    <path d="M 865.46705 -33.48351 L 866.22698 -32.86266" />
    <path d="M 1200.13295 -180.4451 L 1199.5423 -180.33783" />
    <path d="M 1175.36938 -136.19844 L 1173.41295 -135.84311" />
    <path d="M 1066.61786 -147.78521 L 1064.97443 -147.48673" />
    <path d="M 1052.50178 -228.37095 L 1050.90124 -228.08026" />
    <path d="M 1226.42354 -267.59256 L 1217.37853 -265.94978" />
</svg>