<svg version="1.1" xmlns="http://www.w3.org/2000/svg" viewBox="-1446.5172075003272 -1331.2422488536758 2893.0344150006545 2662.4844977073517" fill="none" stroke="black" stroke-width="0.6%" vector-effect="non-scaling-stroke">
    <path d="M -1445.51721 240.39047 L 0 1330.24225 L 0 0 L 1445.51721 -240.39047 L 0 -1330.24225 L -179.67136 -1300.36278 L -179.67136 -532.85166" />
    <path d="M -38.51425 -29.03793 L 0 0" />
    <path d="M -38.51425 1207.68335 L -38.51425 -29.03793" />
    <path d="M -556.79874 816.9213 L -38.51425 1207.68335" />
    <path d="M -556.79874 -419.79998 L -556.79874 816.9213" />
    <path d="M -1445.51721 -1089.85177 L -556.79874 -419.79998 L -466.2842 -434.85261 L -1312.49246 -1072.85371 L -1223.33563 -1087.68055 L -1265.84584 -1119.73124 L -1445.51721 -1089.85177 Z" />
    <path d="M -1445.51721 240.39047 L -1445.51721 -1089.85177" />
    <path d="M 0 1330.24225 L 1445.51721 1089.85177 L 1445.51721 -240.39047" />
    <path d="M 95.89984 -51.39108 L -38.51425 -29.03793" />
    <path d="M 91.90388 -54.40385 L 95.89984 -51.39108" />
    <path d="M 1312.49246 -257.38854 L 91.90388 -54.40385" />
    <path d="M -48.00433 -1283.13893 L 1312.49246 -257.38854" />
    <path d="M -137.16115 -1268.31209 L -48.00433 -1283.13893" />
    <path d="M -179.67136 -1300.36278 L -137.16115 -1268.31209 L -137.16115 -539.92114" />
    <path d="M -466.2842 801.86867 L -556.79874 816.9213" />
    <path d="M -466.2842 -434.85261 L -466.2842 801.86867" />
    <path d="M 91.90388 -50.72655 L 91.90388 -54.40385" />
    <path d="M -48.00433 -522.18106 L -48.00433 -1283.13893" />
    <path d="M -1223.33563 -1005.63367 L -1223.33563 -1087.68055" />
    <path d="M -426.72913 312.85925 L -426.72913 253.47344 L -38.51425 188.91305" />
    <path d="M -466.2842 283.03659 L -426.72913 312.85925 L -38.51425 248.29886" />
    <path d="M -466.2842 223.65078 L -426.72913 253.47344" />
    <path d="M -38.51425 17.2375 L -466.2842 -305.28086" />
    <path d="M -466.2842 -308.61271 L -38.51425 13.90565" />
    <path d="M 485.59218 -119.87447 L -83.3934 -548.86275 L -520.98125 -476.0916" />
</svg>