<svg version="1.1" xmlns="http://www.w3.org/2000/svg" viewBox="-1462.3024282445815 -1507.643317212789 2749.101723402706 2760.2036299879837" fill="none" stroke="black" stroke-width="0.6%" vector-effect="non-scaling-stroke">
    <path d="M 979.9559 257.92651 L 978.68155 256.85761" />
    <path d="M 978.68155 -524.13208 L 978.68155 -302.60247" />
    <path d="M 978.68155 -279.48345 L 978.68155 256.85761" />
    <path d="M 979.9559 257.92651 L 979.9559 768.05244" />
    <path d="M 904.78952 421.65754 L 979.9559 257.92651" />
    <path d="M 903.51518 420.58864 L 978.68155 256.85761" />
    <path d="M 904.78952 421.65754 L 903.51518 420.58864" />
    <path d="M 635.82426 923.30511 L 630.72687 919.02951 L 548.90471 666.21951" />
    <path d="M 858.79546 857.65063 L 635.82426 923.30511 L 554.0021 670.49511 A 100 74.65646 129.98932 0 1 599.19323 551.85516 L 634.09757 523.7117 L 818.61553 491.31912 A 100 74.65646 309.98932 0 0 904.78952 421.65754" />
    <path d="M 763.59928 -677.7421 A 250 186.64115 129.98932 0 1 839.11018 -686.16724" />
    <path d="M 898.23762 -669.62375 A 250 186.64115 129.98932 0 1 924.26047 -652.34159 A 250 186.64115 129.98932 0 1 945.80734 -629.72313" />
    <path d="M 972.38751 -574.37663 A 250 186.64115 129.98932 0 1 978.25714 -537.62898 L 978.68155 -524.13208" />
    <path d="M 817.34118 490.25022 A 100 74.65646 309.98932 0 0 903.51518 420.58864" />
    <path d="M 806.61573 492.1331 L 817.34118 490.25022" />
    <path d="M 806.61573 492.1331 L 806.61573 -169.74862 A 600 447.93877 309.98932 0 0 803.28293 -227.83685" />
    <path d="M 800.14383 -250.03155 A 600 447.93877 309.98932 0 0 676.00513 -477.45145 A 600 447.93877 309.98932 0 0 505.79631 -554.34533" />
    <path d="M 471.51755 -591.73784 A 57.5 42.92747 309.98932 0 0 484.0344 -562.24966 A 57.5 42.92747 309.98932 0 0 505.79631 -554.34533" />
    <path d="M 763.59928 -677.7421 L 471.51755 -591.73784 L 465.40068 -596.86856 A 57.5 42.92747 309.98932 0 0 466.48995 -586.77611 A 57.5 42.92747 309.98932 0 0 477.91753 -567.38037 L 484.0344 -562.24966" />
    <path d="M 826.83347 214.79306 A 3.5 2.61298 129.98932 0 1 821.57306 218.36127 A 3.5 2.61298 129.98932 0 1 826.07157 212.99812 A 3.5 2.61298 129.98932 0 1 826.83347 214.79306 Z" />
    <path d="M 826.83347 171.40474 A 3.5 2.61298 129.98932 0 1 821.57306 174.97296 A 3.5 2.61298 129.98932 0 1 826.07157 169.60981 A 3.5 2.61298 129.98932 0 1 826.83347 171.40474 Z" />
    <path d="M 826.83347 128.01642 A 3.5 2.61298 129.98932 0 1 821.57306 131.58464 A 3.5 2.61298 129.98932 0 1 826.07157 126.22149 A 3.5 2.61298 129.98932 0 1 826.83347 128.01642 Z" />
    <path d="M 826.83347 84.62811 A 3.5 2.61298 129.98932 0 1 821.57306 88.19633 A 3.5 2.61298 129.98932 0 1 826.07157 82.83318 A 3.5 2.61298 129.98932 0 1 826.83347 84.62811 Z" />
    <path d="M 826.83347 41.23979 A 3.5 2.61298 129.98932 0 1 821.57306 44.80801 A 3.5 2.61298 129.98932 0 1 826.07157 39.44486 A 3.5 2.61298 129.98932 0 1 826.83347 41.23979 Z" />
    <path d="M 826.83347 -2.14852 A 3.5 2.61298 129.98932 0 1 821.57306 1.41969 A 3.5 2.61298 129.98932 0 1 826.07157 -3.94346 A 3.5 2.61298 129.98932 0 1 826.83347 -2.14852 Z" />
    <path d="M 826.83347 -45.53684 A 3.5 2.61298 129.98932 0 1 821.57306 -41.96862 A 3.5 2.61298 129.98932 0 1 826.07157 -47.33177 A 3.5 2.61298 129.98932 0 1 826.83347 -45.53684 Z" />
    <path d="M 826.83347 -88.92515 A 3.5 2.61298 129.98932 0 1 821.57306 -85.35694 A 3.5 2.61298 129.98932 0 1 826.07157 -90.72009 A 3.5 2.61298 129.98932 0 1 826.83347 -88.92515 Z" />
    <path d="M 826.83347 -132.31347 A 3.5 2.61298 129.98932 0 1 821.57306 -128.74525 A 3.5 2.61298 129.98932 0 1 826.07157 -134.1084 A 3.5 2.61298 129.98932 0 1 826.83347 -132.31347 Z" />
    <path d="M 826.83347 -175.70179 A 3.5 2.61298 129.98932 0 1 821.57306 -172.13357 A 3.5 2.61298 129.98932 0 1 826.07157 -177.49672 A 3.5 2.61298 129.98932 0 1 826.83347 -175.70179 Z" />
    <path d="M 616.96074 -535.47256 A 3.5 2.61298 129.98932 0 1 616.56534 -535.73019 A 3.5 2.61298 129.98932 1 1 621.06385 -541.09334 A 3.5 2.61298 129.98932 0 1 616.96074 -535.47256 Z" />
    <path d="M 645.32039 -519.82085 A 3.5 2.61298 129.98932 0 1 645.08599 -519.98962 A 3.5 2.61298 129.98932 1 1 649.5845 -525.35277 A 3.5 2.61298 129.98932 0 1 645.32039 -519.82085 Z" />
    <path d="M 671.95099 -501.72312 A 3.5 2.61298 129.98932 0 1 671.86777 -501.78915 A 3.5 2.61298 129.98932 0 1 676.36629 -507.1523 A 3.5 2.61298 129.98932 0 1 671.95099 -501.72312 Z" />
    <path d="M 696.7228 -481.26754 A 3.5 2.61298 129.98932 0 1 701.27873 -486.58058 A 3.5 2.61298 129.98932 0 1 696.78022 -481.21743 A 3.5 2.61298 129.98932 0 1 696.7228 -481.26754 Z" />
    <path d="M 819.51915 -210.86624 A 3.5 2.61298 129.98932 0 1 824.77223 -214.64416 A 3.5 2.61298 129.98932 0 1 820.27371 -209.28101 A 3.5 2.61298 129.98932 0 1 819.51915 -210.86624 Z" />
    <path d="M 809.22081 -281.74386 A 3.5 2.61298 129.98932 0 1 814.41541 -285.92417 A 3.5 2.61298 129.98932 1 1 809.9169 -280.56102 A 3.5 2.61298 129.98932 0 1 809.22081 -281.74386 Z" />
    <path d="M 774.95629 -378.02154 A 3.5 2.61298 129.98932 0 1 779.95637 -382.74844 A 3.5 2.61298 129.98932 1 1 775.45786 -377.38529 A 3.5 2.61298 129.98932 0 1 774.95629 -378.02154 Z" />
    <path d="M 788.82456 -347.48319 A 3.5 2.61298 129.98932 0 1 793.90337 -352.03671 A 3.5 2.61298 129.98932 1 1 789.40486 -346.67356 A 3.5 2.61298 129.98932 0 1 788.82456 -347.48319 Z" />
    <path d="M 800.26464 -315.33843 A 3.5 2.61298 129.98932 0 1 805.4084 -319.70946 A 3.5 2.61298 129.98932 1 1 800.90989 -314.34631 A 3.5 2.61298 129.98932 0 1 800.26464 -315.33843 Z" />
    <path d="M 719.51514 -458.55375 A 3.5 2.61298 129.98932 0 1 724.20047 -463.73785 A 3.5 2.61298 129.98932 0 1 719.70195 -458.3747 A 3.5 2.61298 129.98932 0 1 719.51514 -458.55375 Z" />
    <path d="M 740.21695 -433.69243 A 3.5 2.61298 129.98932 0 1 745.01981 -438.73538 A 3.5 2.61298 129.98932 0 1 740.5213 -433.37224 A 3.5 2.61298 129.98932 0 1 740.21695 -433.69243 Z" />
    <path d="M 758.7274 -406.8047 A 3.5 2.61298 129.98932 0 1 763.63535 -411.695 A 3.5 2.61298 129.98932 0 1 759.13683 -406.33185 A 3.5 2.61298 129.98932 0 1 758.7274 -406.8047 Z" />
    <path d="M 818.61553 491.31912 L 817.34118 490.25022" />
    <path d="M 735.97418 -676.53966 L 757.48241 -682.87282" />
    <path d="M 918.1436 -657.47231 A 250 186.64115 309.98932 0 0 892.12075 -674.75447" />
    <path d="M 832.99332 -691.29796 A 250 186.64115 309.98932 0 0 757.48241 -682.87282" />
    <path d="M 800.49887 489.32908 L 800.49887 -174.87934 A 600 447.93877 309.98932 0 0 797.90424 -226.25308" />
    <path d="M 795.07817 -248.53995 A 600 447.93877 309.98932 0 0 672.93139 -479.99855" />
    <path d="M 554.0021 670.49511 L 548.90471 666.21951" />
    <path d="M 629.00018 519.4361 L 802.79269 488.9264" />
    <path d="M 594.09584 547.57956 L 629.00018 519.4361" />
    <path d="M 594.09584 547.57956 A 100 74.65646 309.98932 0 0 548.90471 666.21951" />
    <path d="M 599.19323 551.85516 L 594.09584 547.57956" />
    <path d="M 634.09757 523.7117 L 629.00018 519.4361" />
    <path d="M 806.61573 492.1331 L 802.79269 488.9264" />
    <path d="M 763.59928 -677.7421 L 757.48241 -682.87282" />
    <path d="M 806.61573 -169.74862 L 800.49887 -174.87934" />
    <path d="M -285.77271 -412.36455 L -253.40428 -385.21449" />
    <path d="M -274.91251 -378.88134 L -253.40428 -385.21449" />
    <path d="M -274.91251 -378.88134 L -268.79564 -373.75062" />
    <path d="M 23.28609 -459.75488 L -171.31486 -402.4541" />
    <path d="M -200.48052 -393.86619 L -268.79564 -373.75062" />
    <path d="M 17.16922 -464.88559 L 23.28609 -459.75488 A 57.5 42.92747 129.98932 0 1 -10.99268 -402.17541" />
    <path d="M 17.16922 -464.88559 L 465.40068 -596.86856" />
    <path d="M 735.97418 -676.53966 L 703.60576 -703.68971" />
    <path d="M 725.11399 -710.02287 L 703.60576 -703.68971" />
    <path d="M 725.11399 -710.02287 L 718.99712 -715.15359" />
    <path d="M 426.91539 -629.14933 L 718.99712 -715.15359" />
    <path d="M 433.03226 -624.01861 L 426.91539 -629.14933 A 57.5 42.92747 309.98932 0 0 427.39509 -622.35873" />
    <path d="M 433.03226 -624.01861 L -15.19921 -492.03565" />
    <path d="M -21.31608 -497.16636 L -15.19921 -492.03565" />
    <path d="M -313.39781 -411.16211 L -245.08268 -431.27768" />
    <path d="M -215.91703 -439.86559 L -21.31608 -497.16636" />
    <path d="M -313.39781 -411.16211 L -307.28094 -406.03139" />
    <path d="M -285.77271 -412.36455 L -307.28094 -406.03139" />
    <path d="M -285.77271 -401.95135 L -262.5932 -382.50879" />
    <path d="M 23.16553 -456.23803 L 466.48995 -586.77611" />
    <path d="M -285.77271 -401.95135 L -285.77271 -412.36455" />
    <path d="M -274.91251 -378.88134 A 250 186.64115 309.98932 0 0 -489.57037 -112.35504 L -483.4535 -107.22433 L -483.87792 -93.47748 L -483.87792 1251.56031 L -311.8121 1200.89507 L -311.8121 159.57548 A 600 447.93877 129.98932 0 1 -107.28319 -315.69396" />
    <path d="M -489.57037 -112.35504 L -489.99479 -98.6082 L -483.87792 -93.47748" />
    <path d="M -489.99479 -98.6082 L -489.99479 1246.42959 L -483.87792 1251.56031" />
    <path d="M -483.4535 -107.22433 A 250 186.64115 129.98932 0 1 -268.79564 -373.75062" />
    <path d="M -89.55226 -333.8731 A 600 447.93877 129.98932 0 1 -10.99268 -402.17541" />
    <path d="M -332.02983 556.02349 A 3.5 2.61298 129.98932 0 1 -326.76943 552.45528 A 3.5 2.61298 129.98932 0 1 -331.26794 557.81843 A 3.5 2.61298 129.98932 0 1 -332.02983 556.02349 Z" />
    <path d="M -332.02983 512.63518 A 3.5 2.61298 129.98932 0 1 -326.76943 509.06696 A 3.5 2.61298 129.98932 0 1 -331.26794 514.43011 A 3.5 2.61298 129.98932 0 1 -332.02983 512.63518 Z" />
    <path d="M -332.02983 469.24686 A 3.5 2.61298 129.98932 0 1 -326.76943 465.67864 A 3.5 2.61298 129.98932 0 1 -331.26794 471.04179 A 3.5 2.61298 129.98932 0 1 -332.02983 469.24686 Z" />
    <path d="M -332.02983 425.85855 A 3.5 2.61298 129.98932 0 1 -326.76943 422.29033 A 3.5 2.61298 129.98932 0 1 -331.26794 427.65348 A 3.5 2.61298 129.98932 0 1 -332.02983 425.85855 Z" />
    <path d="M -332.02983 382.47023 A 3.5 2.61298 129.98932 0 1 -326.76943 378.90201 A 3.5 2.61298 129.98932 0 1 -331.26794 384.26516 A 3.5 2.61298 129.98932 0 1 -332.02983 382.47023 Z" />
    <path d="M -332.02983 339.08191 A 3.5 2.61298 129.98932 0 1 -326.76943 335.5137 A 3.5 2.61298 129.98932 0 1 -331.26794 340.87685 A 3.5 2.61298 129.98932 0 1 -332.02983 339.08191 Z" />
    <path d="M -332.02983 295.6936 A 3.5 2.61298 129.98932 0 1 -326.76943 292.12538 A 3.5 2.61298 129.98932 0 1 -331.26794 297.48853 A 3.5 2.61298 129.98932 0 1 -332.02983 295.6936 Z" />
    <path d="M -332.02983 252.30528 A 3.5 2.61298 129.98932 0 1 -326.76943 248.73706 A 3.5 2.61298 129.98932 0 1 -331.26794 254.10021 A 3.5 2.61298 129.98932 0 1 -332.02983 252.30528 Z" />
    <path d="M -332.02983 208.91697 A 3.5 2.61298 129.98932 0 1 -326.76943 205.34875 A 3.5 2.61298 129.98932 0 1 -331.26794 210.7119 A 3.5 2.61298 129.98932 0 1 -332.02983 208.91697 Z" />
    <path d="M -332.02983 165.52865 A 3.5 2.61298 129.98932 0 1 -326.76943 161.96043 A 3.5 2.61298 129.98932 0 1 -331.26794 167.32358 A 3.5 2.61298 129.98932 0 1 -332.02983 165.52865 Z" />
    <path d="M -122.15711 -317.83731 A 3.5 2.61298 129.98932 0 1 -126.26022 -317.00319 A 3.5 2.61298 129.98932 0 1 -121.7617 -322.36634 A 3.5 2.61298 129.98932 0 1 -122.15711 -317.83731 Z" />
    <path d="M -150.51676 -285.48445 A 3.5 2.61298 129.98932 0 1 -154.78087 -284.46666 A 3.5 2.61298 129.98932 0 1 -150.28235 -289.82981 A 3.5 2.61298 129.98932 0 1 -150.51676 -285.48445 Z" />
    <path d="M -177.14736 -251.70382 A 3.5 2.61298 129.98932 0 1 -181.56265 -250.49425 A 3.5 2.61298 129.98932 0 1 -177.06414 -255.8574 A 3.5 2.61298 129.98932 0 1 -177.14736 -251.70382 Z" />
    <path d="M -201.91917 -216.65998 A 3.5 2.61298 129.98932 0 1 -206.4751 -215.25146 A 3.5 2.61298 129.98932 0 1 -201.97659 -220.61461 A 3.5 2.61298 129.98932 0 1 -201.91917 -216.65998 Z" />
    <path d="M -324.71552 126.05676 A 3.5 2.61298 129.98932 0 1 -329.96859 129.41095 A 3.5 2.61298 129.98932 0 1 -325.47008 124.0478 A 3.5 2.61298 129.98932 0 1 -324.71552 126.05676 Z" />
    <path d="M -314.41717 49.11439 A 3.5 2.61298 129.98932 0 1 -319.61178 52.03176 A 3.5 2.61298 129.98932 0 1 -315.11327 46.66861 A 3.5 2.61298 129.98932 0 1 -314.41717 49.11439 Z" />
    <path d="M -320.84578 87.78094 A 3.5 2.61298 129.98932 0 1 -326.07689 90.91783 A 3.5 2.61298 129.98932 0 1 -321.57837 85.55468 A 3.5 2.61298 129.98932 0 1 -320.84578 87.78094 Z" />
    <path d="M -280.15266 -67.34186 A 3.5 2.61298 129.98932 0 1 -285.15274 -65.08563 A 3.5 2.61298 129.98932 1 1 -280.65422 -70.44878 A 3.5 2.61298 129.98932 0 1 -280.15266 -67.34186 Z" />
    <path d="M -294.02092 -28.63641 A 3.5 2.61298 129.98932 0 1 -299.09974 -26.16044 A 3.5 2.61298 129.98932 0 1 -294.60123 -31.52359 A 3.5 2.61298 129.98932 0 1 -294.02092 -28.63641 Z" />
    <path d="M -305.46101 10.24548 A 3.5 2.61298 129.98932 0 1 -310.60477 12.94219 A 3.5 2.61298 129.98932 1 1 -306.10626 7.57904 A 3.5 2.61298 129.98932 0 1 -305.46101 10.24548 Z" />
    <path d="M -224.7115 -180.52366 A 3.5 2.61298 129.98932 0 1 -229.39683 -178.90999 A 3.5 2.61298 129.98932 0 1 -224.89832 -184.27314 A 3.5 2.61298 129.98932 0 1 -224.7115 -180.52366 Z" />
    <path d="M -245.41332 -143.47093 A 3.5 2.61298 129.98932 0 1 -250.21618 -141.6469 A 3.5 2.61298 129.98932 0 1 -245.71767 -147.01005 A 3.5 2.61298 129.98932 0 1 -245.41332 -143.47093 Z" />
    <path d="M -263.92377 -105.68229 A 3.5 2.61298 129.98932 0 1 -268.83171 -103.64373 A 3.5 2.61298 129.98932 0 1 -264.3332 -109.00688 A 3.5 2.61298 129.98932 0 1 -263.92377 -105.68229 Z" />
    <path d="M 725.11399 -710.02287 A 250 186.64115 129.98932 0 1 800.62489 -718.44801" />
    <path d="M 859.75232 -701.90452 A 250 186.64115 129.98932 0 1 885.77518 -684.62236 A 250 186.64115 129.98932 0 1 900.9271 -669.81663" />
    <path d="M 466.51673 -586.65821 A 57.5 42.92747 129.98932 0 1 466.15607 -586.67779" />
    <path d="M 768.13044 -202.02939 A 600 447.93877 309.98932 0 0 767.90293 -217.41912" />
    <path d="M 766.7117 -240.18737 A 600 447.93877 309.98932 0 0 656.15591 -492.86867" />
    <path d="M 768.13044 495.01144 L 768.13044 353.57846" />
    <path d="M 768.13044 276.20165 L 768.13044 -202.02939 L 762.01357 -207.16011 A 600 447.93877 309.98932 0 0 761.94438 -215.66461" />
    <path d="M 788.34817 182.51229 A 3.5 2.61298 129.98932 0 1 783.08777 186.0805 A 3.5 2.61298 129.98932 0 1 787.58628 180.71735 A 3.5 2.61298 129.98932 0 1 788.34817 182.51229 Z" />
    <path d="M 788.34817 139.12397 A 3.5 2.61298 129.98932 0 1 783.08777 142.69219 A 3.5 2.61298 129.98932 0 1 787.58628 137.32904 A 3.5 2.61298 129.98932 0 1 788.34817 139.12397 Z" />
    <path d="M 788.34817 95.73565 A 3.5 2.61298 129.98932 0 1 783.08777 99.30387 A 3.5 2.61298 129.98932 0 1 787.58628 93.94072 A 3.5 2.61298 129.98932 0 1 788.34817 95.73565 Z" />
    <path d="M 788.34817 52.34734 A 3.5 2.61298 129.98932 0 1 783.08777 55.91556 A 3.5 2.61298 129.98932 0 1 787.58628 50.55241 A 3.5 2.61298 129.98932 0 1 788.34817 52.34734 Z" />
    <path d="M 788.34817 8.95902 A 3.5 2.61298 129.98932 0 1 783.08777 12.52724 A 3.5 2.61298 129.98932 0 1 787.58628 7.16409 A 3.5 2.61298 129.98932 0 1 788.34817 8.95902 Z" />
    <path d="M 788.34817 -34.42929 A 3.5 2.61298 129.98932 0 1 783.08777 -30.86108 A 3.5 2.61298 129.98932 0 1 787.58628 -36.22423 A 3.5 2.61298 129.98932 0 1 788.34817 -34.42929 Z" />
    <path d="M 788.34817 -77.81761 A 3.5 2.61298 129.98932 0 1 783.08777 -74.24939 A 3.5 2.61298 129.98932 0 1 787.58628 -79.61254 A 3.5 2.61298 129.98932 0 1 788.34817 -77.81761 Z" />
    <path d="M 788.34817 -121.20592 A 3.5 2.61298 129.98932 0 1 783.08777 -117.63771 A 3.5 2.61298 129.98932 0 1 787.58628 -123.00086 A 3.5 2.61298 129.98932 0 1 788.34817 -121.20592 Z" />
    <path d="M 788.34817 -164.59424 A 3.5 2.61298 129.98932 0 1 783.08777 -161.02602 A 3.5 2.61298 129.98932 0 1 787.58628 -166.38917 A 3.5 2.61298 129.98932 0 1 788.34817 -164.59424 Z" />
    <path d="M 788.34817 -207.98256 A 3.5 2.61298 129.98932 0 1 783.08777 -204.41434 A 3.5 2.61298 129.98932 0 1 787.58628 -209.77749 A 3.5 2.61298 129.98932 0 1 788.34817 -207.98256 Z" />
    <path d="M 770.73551 -314.02463 A 3.5 2.61298 129.98932 0 1 775.93012 -318.20494 A 3.5 2.61298 129.98932 1 1 771.43161 -312.84179 A 3.5 2.61298 129.98932 0 1 770.73551 -314.02463 Z" />
    <path d="M 781.21062 -244.45662 A 3.5 2.61298 129.98932 0 1 786.28693 -246.92493 A 3.5 2.61298 129.98932 0 1 786.86473 -246.12148" />
    <path d="M 777.16412 -279.14392 A 3.5 2.61298 129.98932 0 1 782.39523 -283.1262 A 3.5 2.61298 129.98932 0 1 777.89671 -277.76305 A 3.5 2.61298 129.98932 0 1 777.16412 -279.14392 Z" />
    <path d="M 761.77935 -347.6192 A 3.5 2.61298 129.98932 0 1 765.74362 -352.4627" />
    <path d="M 767.34722 -348.69816 A 3.5 2.61298 129.98932 0 1 762.4246 -346.62708 A 3.5 2.61298 129.98932 0 1 761.77935 -347.6192" />
    <path d="M 750.33927 -379.76396 A 3.5 2.61298 129.98932 0 1 750.90081 -382.96591" />
    <path d="M 753.23002 -378.61737 A 3.5 2.61298 129.98932 0 1 750.91957 -378.95433 A 3.5 2.61298 129.98932 0 1 750.33927 -379.76396" />
    <path d="M 879.65831 -689.75308 A 250 186.64115 309.98932 0 0 853.63545 -707.03524" />
    <path d="M 794.50802 -723.57873 A 250 186.64115 309.98932 0 0 718.99712 -715.15359" />
    <path d="M 761.05933 -238.52301 A 600 447.93877 309.98932 0 0 652.88912 -495.18562" />
    <path d="M 762.01357 496.08527 L 762.01357 355.37959" />
    <path d="M 762.01357 271.07093 L 762.01357 -207.16011" />
    <path d="M -528.48008 -130.88897 L -528.48008 1214.14882 L -522.36321 1219.27954 L -489.99479 1209.74857" />
    <path d="M -528.05567 -144.63581 L -528.48008 -130.88897 L -522.36321 -125.75825 L -522.36321 1219.27954" />
    <path d="M -313.39781 -411.16211 A 250 186.64115 309.98932 0 0 -528.05567 -144.63581 L -521.9388 -139.5051 L -522.36321 -125.75825" />
    <path d="M -521.9388 -139.5051 A 250 186.64115 129.98932 0 1 -307.28094 -406.03139" />
    <path d="M 762.01357 -41.08386 L 646.23255 -138.1989" />
    <path d="M 517.18318 -89.78677 L 762.01357 115.57255" />
    <path d="M 517.18318 -89.78677 L 517.18318 -100.19996 L 646.23255 -138.1989" />
    <path d="M 517.18318 -100.19996 L 762.01357 105.15935" />
    <path d="M 761.95947 -214.68251 L 761.08891 -215.41271" />
    <path d="M 740.68801 -232.52462 L 646.23255 -311.75216" />
    <path d="M 517.18318 -263.34003 L 602.44973 -191.81999" />
    <path d="M 622.85063 -174.70808 L 762.01357 -57.98071" />
    <path d="M 517.18318 -263.34003 L 517.18318 -273.75322 L 646.23255 -311.75216" />
    <path d="M 517.18318 -273.75322 L 611.63864 -194.52569" />
    <path d="M 632.03955 -177.41378 L 762.01357 -68.39391" />
    <path d="M 694.34002 -444.95375 L 646.23255 -485.30542" />
    <path d="M 517.18318 -436.89329 L 755.5983 -236.915" />
    <path d="M 517.18318 -436.89329 L 517.18318 -447.30649 L 646.23255 -485.30542" />
    <path d="M 517.18318 -447.30649 L 760.76421 -242.99512" />
    <path d="M -773.31047 279.78939 L -644.26111 241.79045" />
    <path d="M -773.31047 279.78939 L -528.48008 485.1487" />
    <path d="M -528.48008 338.90549 L -644.26111 241.79045" />
    <path d="M -773.31047 290.20258 L -773.31047 279.78939" />
    <path d="M -773.31047 290.20258 L -528.48008 495.5619" />
    <path d="M -773.31047 106.23613 L -644.26111 68.23719" />
    <path d="M -773.31047 106.23613 L -528.48008 311.59544" />
    <path d="M -528.48008 165.35223 L -644.26111 68.23719" />
    <path d="M -773.31047 116.64932 L -773.31047 106.23613" />
    <path d="M -773.31047 116.64932 L -528.48008 322.00864" />
    <path d="M -773.31047 -67.31714 L -644.26111 -105.31607" />
    <path d="M -773.31047 -67.31714 L -528.48008 138.04218" />
    <path d="M -528.48008 -8.20104 L -644.26111 -105.31607" />
    <path d="M -773.31047 -56.90394 L -773.31047 -67.31714" />
    <path d="M -773.31047 -56.90394 L -528.48008 148.45537" />
    <path d="M -773.31047 -240.8704 L -644.26111 -278.86934" />
    <path d="M -773.31047 -240.8704 L -528.48008 -35.51109" />
    <path d="M -523.70589 -177.74979 L -644.26111 -278.86934" />
    <path d="M -773.31047 -230.45721 L -773.31047 -240.8704" />
    <path d="M -773.31047 -230.45721 L -528.48008 -25.09789" />
    <path d="M 452.6585 -938.55362 L 160.57677 -852.54936 L 154.4599 -857.68008 A 57.5 42.92747 309.98932 0 0 155.54917 -847.58762 A 57.5 42.92747 309.98932 0 0 166.97675 -828.19189 L 173.09362 -823.06117 A 57.5 42.92747 309.98932 0 0 194.85553 -815.15684" />
    <path d="M 160.57677 -852.54936 A 57.5 42.92747 309.98932 0 0 173.09362 -823.06117" />
    <path d="M 495.67495 -430.56014 A 600 447.93877 309.98932 0 0 475.09242 -570.05805" />
    <path d="M 447.86636 -635.3184 A 600 447.93877 309.98932 0 0 365.06435 -738.26296 A 600 447.93877 309.98932 0 0 194.85553 -815.15684" />
    <path d="M 495.67495 610.75945 L 495.67495 433.80372" />
    <path d="M 495.67495 47.67091 L 495.67495 -137.26085" />
    <path d="M 495.67495 -160.37986 L 495.67495 -430.56014 L 489.55808 -435.69085 A 600 447.93877 309.98932 0 0 465.25478 -586.4124" />
    <path d="M 556.76015 592.77274 L 495.67495 610.75945 L 489.55808 605.62873 L 489.55808 435.60485" />
    <path d="M 667.74077 -784.94359 L 667.74077 -700.06102" />
    <path d="M 667.74077 -479.35965 L 667.74077 -467.26471" />
    <path d="M 667.74077 -310.6083 L 667.74077 -293.71145" />
    <path d="M 667.74077 -137.05504 L 667.74077 -120.15818" />
    <path d="M 667.74077 36.49823 L 667.74077 191.99661" />
    <path d="M 667.74077 383.13847 L 667.74077 512.6351" />
    <path d="M 667.31636 -798.4405 L 667.74077 -784.94359" />
    <path d="M 452.6585 -938.55362 A 250 186.64115 129.98932 0 1 528.1694 -946.97876" />
    <path d="M 587.29683 -930.43527 A 250 186.64115 129.98932 0 1 613.31969 -913.15311 A 250 186.64115 129.98932 0 1 634.86656 -890.53464" />
    <path d="M 661.44672 -835.18815 A 250 186.64115 129.98932 0 1 667.31636 -798.4405" />
    <path d="M 515.89269 -46.01846 A 3.5 2.61298 129.98932 0 1 510.63228 -42.45024 A 3.5 2.61298 129.98932 0 1 515.13079 -47.81339 A 3.5 2.61298 129.98932 0 1 515.89269 -46.01846 Z" />
    <path d="M 515.89269 -89.40678 A 3.5 2.61298 129.98932 0 1 510.63228 -85.83856 A 3.5 2.61298 129.98932 0 1 515.13079 -91.20171 A 3.5 2.61298 129.98932 0 1 515.89269 -89.40678 Z" />
    <path d="M 515.89269 -132.79509 A 3.5 2.61298 129.98932 0 1 510.63228 -129.22687 A 3.5 2.61298 129.98932 0 1 515.13079 -134.59002 A 3.5 2.61298 129.98932 0 1 515.89269 -132.79509 Z" />
    <path d="M 515.89269 -176.18341 A 3.5 2.61298 129.98932 0 1 510.63228 -172.61519 A 3.5 2.61298 129.98932 0 1 515.13079 -177.97834 A 3.5 2.61298 129.98932 0 1 515.89269 -176.18341 Z" />
    <path d="M 515.89269 -219.57172 A 3.5 2.61298 129.98932 0 1 510.63228 -216.00351 A 3.5 2.61298 129.98932 0 1 515.13079 -221.36666 A 3.5 2.61298 129.98932 0 1 515.89269 -219.57172 Z" />
    <path d="M 515.89269 -262.96004 A 3.5 2.61298 129.98932 0 1 510.63228 -259.39182 A 3.5 2.61298 129.98932 0 1 515.13079 -264.75497 A 3.5 2.61298 129.98932 0 1 515.89269 -262.96004 Z" />
    <path d="M 515.89269 -306.34836 A 3.5 2.61298 129.98932 0 1 510.63228 -302.78014 A 3.5 2.61298 129.98932 0 1 515.13079 -308.14329 A 3.5 2.61298 129.98932 0 1 515.89269 -306.34836 Z" />
    <path d="M 515.89269 -349.73667 A 3.5 2.61298 129.98932 0 1 510.63228 -346.16845 A 3.5 2.61298 129.98932 0 1 515.13079 -351.5316 A 3.5 2.61298 129.98932 0 1 515.89269 -349.73667 Z" />
    <path d="M 515.89269 -393.12499 A 3.5 2.61298 129.98932 0 1 510.63228 -389.55677 A 3.5 2.61298 129.98932 0 1 515.13079 -394.91992 A 3.5 2.61298 129.98932 0 1 515.89269 -393.12499 Z" />
    <path d="M 515.89269 -436.5133 A 3.5 2.61298 129.98932 0 1 510.63228 -432.94509 A 3.5 2.61298 129.98932 0 1 515.13079 -438.30824 A 3.5 2.61298 129.98932 0 1 515.89269 -436.5133 Z" />
    <path d="M 463.75518 -639.99691 A 3.5 2.61298 129.98932 0 1 469.01559 -643.55995 A 3.5 2.61298 129.98932 0 1 469.77748 -641.77019" />
    <path d="M 306.01996 -796.28408 A 3.5 2.61298 129.98932 0 1 305.62455 -796.54171 A 3.5 2.61298 129.98932 1 1 310.12307 -801.90486 A 3.5 2.61298 129.98932 0 1 306.01996 -796.28408 Z" />
    <path d="M 334.37961 -780.63237 A 3.5 2.61298 129.98932 0 1 334.14521 -780.80114 A 3.5 2.61298 129.98932 1 1 338.64372 -786.16429 A 3.5 2.61298 129.98932 0 1 334.37961 -780.63237 Z" />
    <path d="M 361.01021 -762.53464 A 3.5 2.61298 129.98932 0 1 360.92699 -762.60066 A 3.5 2.61298 129.98932 0 1 365.42551 -767.96381 A 3.5 2.61298 129.98932 0 1 361.01021 -762.53464 Z" />
    <path d="M 385.78202 -742.07905 A 3.5 2.61298 129.98932 0 1 390.33795 -747.3921 A 3.5 2.61298 129.98932 0 1 385.83944 -742.02895 A 3.5 2.61298 129.98932 0 1 385.78202 -742.07905 Z" />
    <path d="M 408.57435 -719.36527 A 3.5 2.61298 129.98932 0 1 413.25968 -724.54936 A 3.5 2.61298 129.98932 0 1 408.76117 -719.18621 A 3.5 2.61298 129.98932 0 1 408.57435 -719.36527 Z" />
    <path d="M 429.27617 -694.50395 A 3.5 2.61298 129.98932 0 1 434.07903 -699.5469 A 3.5 2.61298 129.98932 0 1 429.58052 -694.18375 A 3.5 2.61298 129.98932 0 1 429.27617 -694.50395 Z" />
    <path d="M 447.78662 -667.61621 A 3.5 2.61298 129.98932 0 1 452.69456 -672.50652 A 3.5 2.61298 129.98932 0 1 448.19605 -667.14337 A 3.5 2.61298 129.98932 0 1 447.78662 -667.61621 Z" />
    <path d="M 508.57837 -471.67776 A 3.5 2.61298 129.98932 0 1 513.83145 -475.45568 A 3.5 2.61298 129.98932 0 1 509.33293 -470.09253 A 3.5 2.61298 129.98932 0 1 508.57837 -471.67776 Z" />
    <path d="M 504.70864 -507.67467 A 3.5 2.61298 129.98932 0 1 509.93974 -511.65695 A 3.5 2.61298 129.98932 0 1 505.44123 -506.2938 A 3.5 2.61298 129.98932 0 1 504.70864 -507.67467 Z" />
    <path d="M 498.28003 -542.55537 A 3.5 2.61298 129.98932 0 1 503.47463 -546.73568 A 3.5 2.61298 129.98932 1 1 498.97612 -541.37253 A 3.5 2.61298 129.98932 0 1 498.28003 -542.55537 Z" />
    <path d="M -287.6547 -720.56639 L -482.25565 -663.26562" />
    <path d="M -511.4213 -654.67771 L -579.73643 -634.56214" />
    <path d="M -287.6547 -720.56639 A 57.5 42.92747 129.98932 0 1 -321.93346 -662.98692" />
    <path d="M -622.75288 -101.23603 A 600 447.93877 129.98932 0 1 -622.74473 -104.16537" />
    <path d="M -604.1512 -245.22587 A 600 447.93877 129.98932 0 1 -418.22397 -576.50547" />
    <path d="M -400.49304 -594.68462 A 600 447.93877 129.98932 0 1 -321.93346 -662.98692" />
    <path d="M -622.75288 940.08355 L -622.75288 416.48758" />
    <path d="M -622.75288 259.83117 L -622.75288 242.93431" />
    <path d="M -622.75288 86.2779 L -622.75288 69.38105" />
    <path d="M -622.75288 -87.27536 L -622.75288 -101.23603" />
    <path d="M -794.8187 990.7488 L -622.75288 940.08355" />
    <path d="M -794.8187 -354.289 L -794.8187 990.7488" />
    <path d="M -794.39429 -368.03584 L -794.8187 -354.289" />
    <path d="M -794.39429 -368.03584 A 250 186.64115 129.98932 0 1 -579.73643 -634.56214" />
    <path d="M -591.09344 -328.15337 A 3.5 2.61298 129.98932 0 1 -596.09352 -325.89714 A 3.5 2.61298 129.98932 1 1 -591.595 -331.26029 A 3.5 2.61298 129.98932 0 1 -591.09344 -328.15337 Z" />
    <path d="M -433.09789 -578.64882 A 3.5 2.61298 129.98932 0 1 -437.201 -577.81471 A 3.5 2.61298 129.98932 0 1 -432.70248 -583.17786 A 3.5 2.61298 129.98932 0 1 -433.09789 -578.64882 Z" />
    <path d="M -461.45754 -546.29597 A 3.5 2.61298 129.98932 0 1 -465.72165 -545.27818 A 3.5 2.61298 129.98932 0 1 -461.22313 -550.64133 A 3.5 2.61298 129.98932 0 1 -461.45754 -546.29597 Z" />
    <path d="M -488.08814 -512.51533 A 3.5 2.61298 129.98932 0 1 -492.50343 -511.30576 A 3.5 2.61298 129.98932 0 1 -488.00492 -516.66891 A 3.5 2.61298 129.98932 0 1 -488.08814 -512.51533 Z" />
    <path d="M -512.85995 -477.47149 A 3.5 2.61298 129.98932 0 1 -517.41588 -476.06297 A 3.5 2.61298 129.98932 0 1 -512.91737 -481.42612 A 3.5 2.61298 129.98932 0 1 -512.85995 -477.47149 Z" />
    <path d="M -535.65228 -441.33518 A 3.5 2.61298 129.98932 0 1 -540.33761 -439.72151 A 3.5 2.61298 129.98932 0 1 -535.8391 -445.08466 A 3.5 2.61298 129.98932 0 1 -535.65228 -441.33518 Z" />
    <path d="M -556.3541 -404.28245 A 3.5 2.61298 129.98932 0 1 -561.15696 -402.45842 A 3.5 2.61298 129.98932 0 1 -556.65845 -407.82157 A 3.5 2.61298 129.98932 0 1 -556.3541 -404.28245 Z" />
    <path d="M -574.86455 -366.49381 A 3.5 2.61298 129.98932 0 1 -579.77249 -364.45525 A 3.5 2.61298 129.98932 0 1 -575.27398 -369.8184 A 3.5 2.61298 129.98932 0 1 -574.86455 -366.49381 Z" />
    <path d="M -604.96171 -289.44792 A 3.5 2.61298 129.98932 0 1 -610.04052 -286.97195 A 3.5 2.61298 129.98932 0 1 -605.54201 -292.3351 A 3.5 2.61298 129.98932 0 1 -604.96171 -289.44792 Z" />
    <path d="M -596.71349 -673.17606 L -564.34507 -646.02601" />
    <path d="M -585.85329 -639.69285 L -564.34507 -646.02601" />
    <path d="M -585.85329 -639.69285 L -579.73643 -634.56214" />
    <path d="M -293.77156 -725.69711 L -287.6547 -720.56639" />
    <path d="M -293.77156 -725.69711 L 154.4599 -857.68008" />
    <path d="M 452.6585 -938.55362 L 446.54163 -943.68433" />
    <path d="M 425.0334 -937.35118 L 446.54163 -943.68433" />
    <path d="M 425.0334 -937.35118 L 392.66498 -964.50123" />
    <path d="M 414.1732 -970.83439 L 392.66498 -964.50123" />
    <path d="M 414.1732 -970.83439 L 408.05634 -975.9651" />
    <path d="M 115.97461 -889.96085 L 408.05634 -975.9651" />
    <path d="M 122.09147 -884.83013 L 115.97461 -889.96085 A 57.5 42.92747 309.98932 0 0 116.45431 -883.17025" />
    <path d="M 122.09147 -884.83013 L -326.13999 -752.84716" />
    <path d="M -332.25686 -757.97788 L -326.13999 -752.84716" />
    <path d="M -624.33859 -671.97362 L -556.02346 -692.0892" />
    <path d="M -526.85781 -700.6771 L -332.25686 -757.97788" />
    <path d="M -624.33859 -671.97362 L -618.22172 -666.84291" />
    <path d="M -596.71349 -673.17606 L -618.22172 -666.84291" />
    <path d="M 444.87202 -634.43671 A 600 447.93877 309.98932 0 0 361.99061 -740.81007" />
    <path d="M 489.55808 42.54019 L 489.55808 -135.45972" />
    <path d="M 489.55808 -158.57874 L 489.55808 -435.69085" />
    <path d="M 607.20282 -918.28382 A 250 186.64115 309.98932 0 0 581.17997 -935.56599" />
    <path d="M 522.05253 -952.10948 A 250 186.64115 309.98932 0 0 446.54163 -943.68433" />
    <path d="M -800.93557 985.61808 L -794.8187 990.7488" />
    <path d="M -800.93557 -359.41972 L -800.93557 985.61808" />
    <path d="M -800.93557 -359.41972 L -794.8187 -354.289" />
    <path d="M -800.51115 -373.16656 L -800.93557 -359.41972" />
    <path d="M -800.51115 -373.16656 L -794.39429 -368.03584" />
    <path d="M -585.85329 -639.69285 A 250 186.64115 309.98932 0 0 -800.51115 -373.16656" />
    <path d="M -596.71349 -662.76287 L -596.71349 -673.17606" />
    <path d="M -596.71349 -662.76287 L -573.53398 -643.32031" />
    <path d="M -287.77525 -717.04955 L 155.54917 -847.58762" />
    <path d="M 414.1732 -970.83439 A 250 186.64115 129.98932 0 1 489.68411 -979.25953" />
    <path d="M 548.81154 -962.71604 A 250 186.64115 129.98932 0 1 574.8344 -945.43388 A 250 186.64115 129.98932 0 1 589.98632 -930.62814" />
    <path d="M 155.57595 -847.46973 A 57.5 42.92747 129.98932 0 1 155.21528 -847.48931" />
    <path d="M 457.18966 -462.84091 A 600 447.93877 309.98932 0 0 443.01 -579.86237" />
    <path d="M 427.07946 -629.19764 A 600 447.93877 309.98932 0 0 345.21513 -753.68019" />
    <path d="M 457.18966 578.47868 L 457.18966 445.13582" />
    <path d="M 457.18966 15.39014 L 457.18966 -125.92875" />
    <path d="M 457.18966 -149.04776 L 457.18966 -462.84091 L 451.07279 -467.97162 A 600 447.93877 309.98932 0 0 438.48848 -578.531" />
    <path d="M 489.55808 568.94771 L 457.18966 578.47868 L 451.07279 573.34796 L 451.07279 446.93694" />
    <path d="M 477.40739 -78.29923 A 3.5 2.61298 129.98932 0 1 472.14698 -74.73101 A 3.5 2.61298 129.98932 0 1 476.6455 -80.09416 A 3.5 2.61298 129.98932 0 1 477.40739 -78.29923 Z" />
    <path d="M 477.40739 -121.68755 A 3.5 2.61298 129.98932 0 1 472.14698 -118.11933 A 3.5 2.61298 129.98932 0 1 476.6455 -123.48248 A 3.5 2.61298 129.98932 0 1 477.40739 -121.68755 Z" />
    <path d="M 477.40739 -165.07586 A 3.5 2.61298 129.98932 0 1 472.14698 -161.50764 A 3.5 2.61298 129.98932 0 1 476.6455 -166.87079 A 3.5 2.61298 129.98932 0 1 477.40739 -165.07586 Z" />
    <path d="M 477.40739 -208.46418 A 3.5 2.61298 129.98932 0 1 472.14698 -204.89596 A 3.5 2.61298 129.98932 0 1 476.6455 -210.25911 A 3.5 2.61298 129.98932 0 1 477.40739 -208.46418 Z" />
    <path d="M 477.40739 -251.85249 A 3.5 2.61298 129.98932 0 1 472.14698 -248.28428 A 3.5 2.61298 129.98932 0 1 476.6455 -253.64743 A 3.5 2.61298 129.98932 0 1 477.40739 -251.85249 Z" />
    <path d="M 477.40739 -295.24081 A 3.5 2.61298 129.98932 0 1 472.14698 -291.67259 A 3.5 2.61298 129.98932 0 1 476.6455 -297.03574 A 3.5 2.61298 129.98932 0 1 477.40739 -295.24081 Z" />
    <path d="M 477.40739 -338.62912 A 3.5 2.61298 129.98932 0 1 472.14698 -335.06091 A 3.5 2.61298 129.98932 0 1 476.6455 -340.42406 A 3.5 2.61298 129.98932 0 1 477.40739 -338.62912 Z" />
    <path d="M 477.40739 -382.01744 A 3.5 2.61298 129.98932 0 1 472.14698 -378.44922 A 3.5 2.61298 129.98932 0 1 476.6455 -383.81237 A 3.5 2.61298 129.98932 0 1 477.40739 -382.01744 Z" />
    <path d="M 477.40739 -425.40576 A 3.5 2.61298 129.98932 0 1 472.14698 -421.83754 A 3.5 2.61298 129.98932 0 1 476.6455 -427.20069 A 3.5 2.61298 129.98932 0 1 477.40739 -425.40576 Z" />
    <path d="M 477.40739 -468.79407 A 3.5 2.61298 129.98932 0 1 472.14698 -465.22586 A 3.5 2.61298 129.98932 0 1 476.6455 -470.58901 A 3.5 2.61298 129.98932 0 1 477.40739 -468.79407 Z" />
    <path d="M 459.79473 -574.83614 A 3.5 2.61298 129.98932 0 1 464.98934 -579.01645 A 3.5 2.61298 129.98932 1 1 460.49083 -573.6533 A 3.5 2.61298 129.98932 0 1 459.79473 -574.83614 Z" />
    <path d="M 470.09308 -503.95853 A 3.5 2.61298 129.98932 0 1 475.34615 -507.73645 A 3.5 2.61298 129.98932 0 1 470.84764 -502.3733 A 3.5 2.61298 129.98932 0 1 470.09308 -503.95853 Z" />
    <path d="M 466.22334 -539.95544 A 3.5 2.61298 129.98932 0 1 471.45445 -543.93772 A 3.5 2.61298 129.98932 0 1 466.95593 -538.57457 A 3.5 2.61298 129.98932 0 1 466.22334 -539.95544 Z" />
    <path d="M 439.39848 -640.57548 A 3.5 2.61298 129.98932 0 1 439.96003 -643.77742" />
    <path d="M 442.28924 -639.42889 A 3.5 2.61298 129.98932 0 1 439.97878 -639.76585 A 3.5 2.61298 129.98932 0 1 439.39848 -640.57548" />
    <path d="M 568.71753 -950.56459 A 250 186.64115 309.98932 0 0 542.69467 -967.84676" />
    <path d="M 483.56724 -984.39025 A 250 186.64115 309.98932 0 0 408.05634 -975.9651" />
    <path d="M 425.65782 -621.84719 A 600 447.93877 309.98932 0 0 341.94834 -755.99714" />
    <path d="M 451.07279 10.25942 L 451.07279 -124.12763" />
    <path d="M 451.07279 -147.24664 L 451.07279 -467.97162" />
    <path d="M -839.42086 -391.70049 L -839.42086 953.33731 L -833.304 958.46803 L -800.93557 948.93706" />
    <path d="M -838.99645 -405.44733 L -839.42086 -391.70049 L -833.304 -386.56977 L -833.304 958.46803" />
    <path d="M -624.33859 -671.97362 A 250 186.64115 309.98932 0 0 -838.99645 -405.44733 L -832.87958 -400.31661 L -833.304 -386.56977" />
    <path d="M -832.87958 -400.31661 A 250 186.64115 129.98932 0 1 -618.22172 -666.84291" />
    <path d="M 451.07279 -301.89538 L 335.29176 -399.01041" />
    <path d="M 206.2424 -350.59828 L 449.30116 -146.72498" />
    <path d="M 206.2424 -350.59828 L 206.2424 -361.01148 L 335.29176 -399.01041" />
    <path d="M 206.2424 -361.01148 L 451.07279 -155.65216" />
    <path d="M 451.01868 -475.49402 L 356.84002 -554.48939" />
    <path d="M 218.60174 -513.78475 L 451.07279 -318.79223" />
    <path d="M 227.79066 -516.49045 L 451.07279 -329.20543" />
    <path d="M 383.39923 -705.76526 L 335.29176 -746.11694" />
    <path d="M 206.2424 -697.70481 L 330.19297 -593.73731" />
    <path d="M 371.75031 -558.87976 L 450.47494 -492.84696" />
    <path d="M 206.2424 -697.70481 L 206.2424 -708.118 L 335.29176 -746.11694" />
    <path d="M 206.2424 -708.118 L 339.38188 -596.44301" />
    <path d="M 380.93922 -561.58546 L 449.82342 -503.80664" />
    <path d="M -1084.25126 18.97787 L -955.20189 -19.02106" />
    <path d="M -1084.25126 18.97787 L -839.42086 224.33719" />
    <path d="M -839.42086 78.09397 L -955.20189 -19.02106" />
    <path d="M -1084.25126 29.39107 L -1084.25126 18.97787" />
    <path d="M -1084.25126 29.39107 L -839.42086 234.75038" />
    <path d="M -1084.25126 -154.57539 L -955.20189 -192.57433" />
    <path d="M -1084.25126 -154.57539 L -839.42086 50.78392" />
    <path d="M -839.42086 -95.45929 L -955.20189 -192.57433" />
    <path d="M -1084.25126 -144.16219 L -1084.25126 -154.57539" />
    <path d="M -1084.25126 -144.16219 L -839.42086 61.19712" />
    <path d="M -1084.25126 -328.12865 L -955.20189 -366.12759" />
    <path d="M -1084.25126 -328.12865 L -839.42086 -122.76934" />
    <path d="M -839.42086 -269.01255 L -955.20189 -366.12759" />
    <path d="M -1084.25126 -317.71546 L -1084.25126 -328.12865" />
    <path d="M -1084.25126 -317.71546 L -839.42086 -112.35614" />
    <path d="M -1084.25126 -501.68192 L -955.20189 -539.68085" />
    <path d="M -1084.25126 -501.68192 L -839.42086 -296.3226" />
    <path d="M -834.64667 -438.56131 L -955.20189 -539.68085" />
    <path d="M -1084.25126 -491.26872 L -1084.25126 -501.68192" />
    <path d="M -1084.25126 -491.26872 L -839.42086 -285.90941" />
    <path d="M 141.71772 -1199.36513 L -150.36402 -1113.36088 L -156.48088 -1118.49159 A 57.5 42.92747 309.98932 0 0 -155.39161 -1108.39914 A 57.5 42.92747 309.98932 0 0 -143.96403 -1089.00341 L -137.84717 -1083.87269 A 57.5 42.92747 309.98932 0 0 -116.08525 -1075.96836" />
    <path d="M -150.36402 -1113.36088 A 57.5 42.92747 309.98932 0 0 -137.84717 -1083.87269" />
    <path d="M 184.73417 -691.37165 A 600 447.93877 309.98932 0 0 164.15164 -830.86956" />
    <path d="M 136.92558 -896.12992 A 600 447.93877 309.98932 0 0 54.12357 -999.07448 A 600 447.93877 309.98932 0 0 -116.08525 -1075.96836" />
    <path d="M 184.73417 -213.14061 L 184.73417 -503.81235" />
    <path d="M 184.73417 -550.90657 L 184.73417 -691.37165 L 178.6173 -696.50237 A 600 447.93877 309.98932 0 0 154.314 -847.22392" />
    <path d="M 356.79999 -1045.75511 L 356.79999 -960.87253" />
    <path d="M 356.79999 -740.17117 L 356.79999 -728.07623" />
    <path d="M 356.79999 -397.86655 L 356.79999 -380.9697" />
    <path d="M 356.79999 -224.31329 L 356.79999 -119.6817" />
    <path d="M 356.79999 -97.25908 L 356.79999 -68.81491" />
    <path d="M 356.37558 -1059.25202 L 356.79999 -1045.75511" />
    <path d="M 141.71772 -1199.36513 A 250 186.64115 129.98932 0 1 198.39825 -1208.38627" />
    <path d="M 276.35605 -1191.24679 A 250 186.64115 129.98932 0 1 302.37891 -1173.96462 A 250 186.64115 129.98932 0 1 323.92577 -1151.34616" />
    <path d="M 350.50594 -1095.99966 A 250 186.64115 129.98932 0 1 356.37558 -1059.25202" />
    <path d="M 204.9519 -306.82998 A 3.5 2.61298 129.98932 0 1 199.6915 -303.26176 A 3.5 2.61298 129.98932 0 1 204.19001 -308.62491 A 3.5 2.61298 129.98932 0 1 204.9519 -306.82998 Z" />
    <path d="M 204.9519 -350.21829 A 3.5 2.61298 129.98932 0 1 199.6915 -346.65008 A 3.5 2.61298 129.98932 0 1 204.19001 -352.01323 A 3.5 2.61298 129.98932 0 1 204.9519 -350.21829 Z" />
    <path d="M 204.9519 -393.60661 A 3.5 2.61298 129.98932 0 1 199.6915 -390.03839 A 3.5 2.61298 129.98932 0 1 204.19001 -395.40154 A 3.5 2.61298 129.98932 0 1 204.9519 -393.60661 Z" />
    <path d="M 204.9519 -436.99492 A 3.5 2.61298 129.98932 0 1 199.6915 -433.42671 A 3.5 2.61298 129.98932 0 1 204.19001 -438.78986 A 3.5 2.61298 129.98932 0 1 204.9519 -436.99492 Z" />
    <path d="M 204.9519 -480.38324 A 3.5 2.61298 129.98932 0 1 199.6915 -476.81502 A 3.5 2.61298 129.98932 0 1 204.19001 -482.17817 A 3.5 2.61298 129.98932 0 1 204.9519 -480.38324 Z" />
    <path d="M 204.9519 -567.15987 A 3.5 2.61298 129.98932 0 1 199.6915 -563.59165 A 3.5 2.61298 129.98932 0 1 204.19001 -568.9548 A 3.5 2.61298 129.98932 0 1 204.9519 -567.15987 Z" />
    <path d="M 204.9519 -610.54819 A 3.5 2.61298 129.98932 0 1 199.6915 -606.97997 A 3.5 2.61298 129.98932 0 1 204.19001 -612.34312 A 3.5 2.61298 129.98932 0 1 204.9519 -610.54819 Z" />
    <path d="M 204.9519 -653.9365 A 3.5 2.61298 129.98932 0 1 199.6915 -650.36829 A 3.5 2.61298 129.98932 0 1 204.19001 -655.73144 A 3.5 2.61298 129.98932 0 1 204.9519 -653.9365 Z" />
    <path d="M 204.9519 -697.32482 A 3.5 2.61298 129.98932 0 1 199.6915 -693.7566 A 3.5 2.61298 129.98932 0 1 204.19001 -699.11975 A 3.5 2.61298 129.98932 0 1 204.9519 -697.32482 Z" />
    <path d="M 152.8144 -900.80843 A 3.5 2.61298 129.98932 0 1 158.07481 -904.37147 A 3.5 2.61298 129.98932 0 1 158.8367 -902.58171" />
    <path d="M -4.92082 -1057.09559 A 3.5 2.61298 129.98932 0 1 -5.31623 -1057.35322 A 3.5 2.61298 129.98932 1 1 -0.81771 -1062.71637 A 3.5 2.61298 129.98932 0 1 -4.92082 -1057.09559 Z" />
    <path d="M 23.43883 -1041.44389 A 3.5 2.61298 129.98932 0 1 23.20442 -1041.61266 A 3.5 2.61298 129.98932 1 1 27.70294 -1046.97581 A 3.5 2.61298 129.98932 0 1 23.43883 -1041.44389 Z" />
    <path d="M 50.06943 -1023.34615 A 3.5 2.61298 129.98932 0 1 49.98621 -1023.41218 A 3.5 2.61298 129.98932 0 1 54.48472 -1028.77533 A 3.5 2.61298 129.98932 0 1 50.06943 -1023.34615 Z" />
    <path d="M 74.84124 -1002.89057 A 3.5 2.61298 129.98932 0 1 79.39717 -1008.20361 A 3.5 2.61298 129.98932 0 1 74.89866 -1002.84046 A 3.5 2.61298 129.98932 0 1 74.84124 -1002.89057 Z" />
    <path d="M 97.63357 -980.17679 A 3.5 2.61298 129.98932 0 1 102.3189 -985.36088 A 3.5 2.61298 129.98932 0 1 97.82039 -979.99773 A 3.5 2.61298 129.98932 0 1 97.63357 -980.17679 Z" />
    <path d="M 118.33539 -955.31547 A 3.5 2.61298 129.98932 0 1 123.13825 -960.35842 A 3.5 2.61298 129.98932 0 1 118.63974 -954.99527 A 3.5 2.61298 129.98932 0 1 118.33539 -955.31547 Z" />
    <path d="M 136.84584 -928.42773 A 3.5 2.61298 129.98932 0 1 141.75378 -933.31803 A 3.5 2.61298 129.98932 0 1 137.25527 -927.95488 A 3.5 2.61298 129.98932 0 1 136.84584 -928.42773 Z" />
    <path d="M 197.63759 -732.48927 A 3.5 2.61298 129.98932 0 1 202.89066 -736.26719 A 3.5 2.61298 129.98932 0 1 198.39215 -730.90404 A 3.5 2.61298 129.98932 0 1 197.63759 -732.48927 Z" />
    <path d="M 193.76785 -768.48618 A 3.5 2.61298 129.98932 0 1 198.99896 -772.46847 A 3.5 2.61298 129.98932 0 1 194.50044 -767.10532 A 3.5 2.61298 129.98932 0 1 193.76785 -768.48618 Z" />
    <path d="M 187.33924 -803.36689 A 3.5 2.61298 129.98932 0 1 192.53385 -807.5472 A 3.5 2.61298 129.98932 1 1 188.03534 -802.18405 A 3.5 2.61298 129.98932 0 1 187.33924 -803.36689 Z" />
    <path d="M -598.59548 -981.37791 L -780.45556 -927.82871" />
    <path d="M -805.85557 -920.34961 L -890.67721 -895.37365" />
    <path d="M -598.59548 -981.37791 A 57.5 42.92747 129.98932 0 1 -632.87424 -923.79844" />
    <path d="M -933.69366 -362.04755 A 600 447.93877 129.98932 0 1 -933.68551 -364.97689" />
    <path d="M -915.09198 -506.03738 A 600 447.93877 129.98932 0 1 -729.16476 -837.31699" />
    <path d="M -711.43382 -855.49613 A 600 447.93877 129.98932 0 1 -632.87424 -923.79844" />
    <path d="M -933.69366 679.27203 L -933.69366 155.67606" />
    <path d="M -933.69366 -0.98035 L -933.69366 -17.8772" />
    <path d="M -933.69366 -174.53361 L -933.69366 -191.43047" />
    <path d="M -933.69366 -348.08688 L -933.69366 -362.04755" />
    <path d="M -1105.75948 729.93728 L -933.69366 679.27203" />
    <path d="M -1105.75948 -615.10051 L -1105.75948 729.93728" />
    <path d="M -1105.33507 -628.84736 L -1105.75948 -615.10051" />
    <path d="M -1105.33507 -628.84736 A 250 186.64115 129.98932 0 1 -890.67721 -895.37365" />
    <path d="M -902.03422 -588.96489 A 3.5 2.61298 129.98932 0 1 -907.0343 -586.70866 A 3.5 2.61298 129.98932 1 1 -902.53579 -592.07181 A 3.5 2.61298 129.98932 0 1 -902.03422 -588.96489 Z" />
    <path d="M -744.03867 -839.46034 A 3.5 2.61298 129.98932 0 1 -748.14178 -838.62623 A 3.5 2.61298 129.98932 0 1 -743.64327 -843.98938 A 3.5 2.61298 129.98932 0 1 -744.03867 -839.46034 Z" />
    <path d="M -772.39832 -807.10748 A 3.5 2.61298 129.98932 0 1 -776.66243 -806.0897 A 3.5 2.61298 129.98932 0 1 -772.16392 -811.45285 A 3.5 2.61298 129.98932 0 1 -772.39832 -807.10748 Z" />
    <path d="M -799.02892 -773.32685 A 3.5 2.61298 129.98932 0 1 -803.44422 -772.11728 A 3.5 2.61298 129.98932 0 1 -798.9457 -777.48043 A 3.5 2.61298 129.98932 0 1 -799.02892 -773.32685 Z" />
    <path d="M -823.80073 -738.28301 A 3.5 2.61298 129.98932 0 1 -828.35666 -736.87449 A 3.5 2.61298 129.98932 0 1 -823.85815 -742.23764 A 3.5 2.61298 129.98932 0 1 -823.80073 -738.28301 Z" />
    <path d="M -846.59307 -702.1467 A 3.5 2.61298 129.98932 0 1 -851.27839 -700.53302 A 3.5 2.61298 129.98932 0 1 -846.77988 -705.89617 A 3.5 2.61298 129.98932 0 1 -846.59307 -702.1467 Z" />
    <path d="M -867.29488 -665.09396 A 3.5 2.61298 129.98932 0 1 -872.09774 -663.26994 A 3.5 2.61298 129.98932 0 1 -867.59923 -668.63309 A 3.5 2.61298 129.98932 0 1 -867.29488 -665.09396 Z" />
    <path d="M -885.80533 -627.30533 A 3.5 2.61298 129.98932 0 1 -890.71327 -625.26676 A 3.5 2.61298 129.98932 0 1 -886.21476 -630.62991 A 3.5 2.61298 129.98932 0 1 -885.80533 -627.30533 Z" />
    <path d="M -915.90249 -550.25944 A 3.5 2.61298 129.98932 0 1 -920.9813 -547.78347 A 3.5 2.61298 129.98932 0 1 -916.48279 -553.14662 A 3.5 2.61298 129.98932 0 1 -915.90249 -550.25944 Z" />
    <path d="M -907.65427 -933.98758 L -875.28585 -906.83753" />
    <path d="M -896.79408 -900.50437 L -875.28585 -906.83753" />
    <path d="M -896.79408 -900.50437 L -890.67721 -895.37365" />
    <path d="M -604.71235 -986.50863 L -598.59548 -981.37791" />
    <path d="M -604.71235 -986.50863 L -156.48088 -1118.49159" />
    <path d="M 141.71772 -1199.36513 L 135.60085 -1204.49585" />
    <path d="M 114.09262 -1198.16269 L 135.60085 -1204.49585" />
    <path d="M 114.09262 -1198.16269 L 83.52483 -1223.8024" />
    <path d="M -194.96618 -1150.77236 L 32.70699 -1217.81135" />
    <path d="M -188.84931 -1145.64165 L -194.96618 -1150.77236 A 57.5 42.92747 309.98932 0 0 -194.48648 -1143.98177" />
    <path d="M -188.84931 -1145.64165 L -637.08077 -1013.65868" />
    <path d="M -643.19764 -1018.7894 L -637.08077 -1013.65868" />
    <path d="M -935.27937 -932.78514 L -792.78536 -974.74289" />
    <path d="M -717.72224 -996.84542 L -643.19764 -1018.7894" />
    <path d="M -935.27937 -932.78514 L -929.1625 -927.65442" />
    <path d="M -907.65427 -933.98758 L -929.1625 -927.65442" />
    <path d="M 133.93123 -895.24823 A 600 447.93877 309.98932 0 0 51.04982 -1001.62158" />
    <path d="M 178.6173 -218.27133 L 178.6173 -502.01122" />
    <path d="M 178.6173 -549.10544 L 178.6173 -696.50237" />
    <path d="M 296.26204 -1179.09534 A 250 186.64115 309.98932 0 0 270.23918 -1196.3775" />
    <path d="M 183.14968 -1213.12902 A 250 186.64115 309.98932 0 0 135.60085 -1204.49585" />
    <path d="M -1111.87635 724.80656 L -1105.75948 729.93728" />
    <path d="M -1111.87635 -620.23123 L -1111.87635 724.80656" />
    <path d="M -1111.87635 -620.23123 L -1105.75948 -615.10051" />
    <path d="M -1111.45194 -633.97808 L -1111.87635 -620.23123" />
    <path d="M -1111.45194 -633.97808 L -1105.33507 -628.84736" />
    <path d="M -896.79408 -900.50437 A 250 186.64115 309.98932 0 0 -1111.45194 -633.97808" />
    <path d="M -907.65427 -923.57438 L -907.65427 -933.98758" />
    <path d="M -907.65427 -923.57438 L -884.47476 -904.13183" />
    <path d="M -598.71603 -977.86106 L -155.39161 -1108.39914" />
    <path d="M 158.07594 -1240.62352 A 250 186.64115 129.98932 0 1 263.89361 -1206.24539 A 250 186.64115 129.98932 0 1 279.04553 -1191.43966" />
    <path d="M -155.36483 -1108.28125 A 57.5 42.92747 129.98932 0 1 -155.7255 -1108.30082" />
    <path d="M 146.24888 -723.65242 A 600 447.93877 309.98932 0 0 132.06922 -840.67389" />
    <path d="M 116.13868 -890.00916 A 600 447.93877 309.98932 0 0 34.27435 -1014.49171" />
    <path d="M 146.24888 -245.42138 L 146.24888 -492.48025" />
    <path d="M 146.24888 -539.57447 L 146.24888 -723.65242 L 140.13201 -728.78314 A 600 447.93877 309.98932 0 0 127.5477 -839.34251" />
    <path d="M 166.46661 -339.11075 A 3.5 2.61298 129.98932 0 1 161.2062 -335.54253 A 3.5 2.61298 129.98932 0 1 165.70472 -340.90568 A 3.5 2.61298 129.98932 0 1 166.46661 -339.11075 Z" />
    <path d="M 166.46661 -382.49906 A 3.5 2.61298 129.98932 0 1 161.2062 -378.93084 A 3.5 2.61298 129.98932 0 1 165.70472 -384.29399 A 3.5 2.61298 129.98932 0 1 166.46661 -382.49906 Z" />
    <path d="M 166.46661 -425.88738 A 3.5 2.61298 129.98932 0 1 161.2062 -422.31916 A 3.5 2.61298 129.98932 0 1 165.70472 -427.68231 A 3.5 2.61298 129.98932 0 1 166.46661 -425.88738 Z" />
    <path d="M 166.46661 -469.27569 A 3.5 2.61298 129.98932 0 1 161.2062 -465.70748 A 3.5 2.61298 129.98932 0 1 165.70472 -471.07063 A 3.5 2.61298 129.98932 0 1 166.46661 -469.27569 Z" />
    <path d="M 166.46661 -556.05233 A 3.5 2.61298 129.98932 0 1 161.2062 -552.48411 A 3.5 2.61298 129.98932 0 1 165.70472 -557.84726 A 3.5 2.61298 129.98932 0 1 166.46661 -556.05233 Z" />
    <path d="M 166.46661 -599.44064 A 3.5 2.61298 129.98932 0 1 161.2062 -595.87242 A 3.5 2.61298 129.98932 0 1 165.70472 -601.23557 A 3.5 2.61298 129.98932 0 1 166.46661 -599.44064 Z" />
    <path d="M 166.46661 -642.82896 A 3.5 2.61298 129.98932 0 1 161.2062 -639.26074 A 3.5 2.61298 129.98932 0 1 165.70472 -644.62389 A 3.5 2.61298 129.98932 0 1 166.46661 -642.82896 Z" />
    <path d="M 166.46661 -686.21727 A 3.5 2.61298 129.98932 0 1 161.2062 -682.64906 A 3.5 2.61298 129.98932 0 1 165.70472 -688.01221 A 3.5 2.61298 129.98932 0 1 166.46661 -686.21727 Z" />
    <path d="M 166.46661 -729.60559 A 3.5 2.61298 129.98932 0 1 161.2062 -726.03737 A 3.5 2.61298 129.98932 0 1 165.70472 -731.40052 A 3.5 2.61298 129.98932 0 1 166.46661 -729.60559 Z" />
    <path d="M 148.85395 -835.64766 A 3.5 2.61298 129.98932 0 1 154.04856 -839.82797 A 3.5 2.61298 129.98932 1 1 149.55004 -834.46482 A 3.5 2.61298 129.98932 0 1 148.85395 -835.64766 Z" />
    <path d="M 159.1523 -764.77004 A 3.5 2.61298 129.98932 0 1 164.40537 -768.54796 A 3.5 2.61298 129.98932 0 1 159.90686 -763.18481 A 3.5 2.61298 129.98932 0 1 159.1523 -764.77004 Z" />
    <path d="M 155.28256 -800.76695 A 3.5 2.61298 129.98932 0 1 160.51366 -804.74924 A 3.5 2.61298 129.98932 0 1 156.01515 -799.38609 A 3.5 2.61298 129.98932 0 1 155.28256 -800.76695 Z" />
    <path d="M 128.4577 -901.38699 A 3.5 2.61298 129.98932 0 1 129.01925 -904.58894" />
    <path d="M 131.34845 -900.24041 A 3.5 2.61298 129.98932 0 1 129.038 -900.57737 A 3.5 2.61298 129.98932 0 1 128.4577 -901.38699" />
    <path d="M 257.77675 -1211.37611 A 250 186.64115 309.98932 0 0 130.09088 -1243.92148" />
    <path d="M 114.71704 -882.65871 A 600 447.93877 309.98932 0 0 31.00756 -1016.80866" />
    <path d="M 140.13201 -250.5521 L 140.13201 -490.67913" />
    <path d="M 140.13201 -537.77334 L 140.13201 -728.78314" />
    <path d="M -1150.36165 -652.512 L -1150.36165 692.52579 L -1144.24478 697.65651 L -1111.87635 688.12554" />
    <path d="M -1149.93723 -666.25885 L -1150.36165 -652.512 L -1144.24478 -647.38128 L -1144.24478 697.65651" />
    <path d="M -935.27937 -932.78514 A 250 186.64115 309.98932 0 0 -1149.93723 -666.25885 L -1143.82036 -661.12813 L -1144.24478 -647.38128" />
    <path d="M -1143.82036 -661.12813 A 250 186.64115 129.98932 0 1 -929.1625 -927.65442" />
    <path d="M 140.13201 -562.70689 L 24.35098 -659.82193" />
    <path d="M -104.69838 -611.4098 L 23.89584 -503.54729" />
    <path d="M 65.45318 -468.68974 L 140.13201 -406.05048" />
    <path d="M -104.69838 -611.4098 L -104.69838 -621.82299 L 24.35098 -659.82193" />
    <path d="M -104.69838 -621.82299 L 33.08475 -506.25299" />
    <path d="M 74.64209 -471.39544 L 140.13201 -416.46368" />
    <path d="M 140.0779 -736.30554 L 45.89924 -815.3009" />
    <path d="M -92.33904 -774.59627 L 140.13201 -579.60375" />
    <path d="M -83.15013 -777.30197 L 140.13201 -590.01694" />
    <path d="M 72.45845 -966.57678 L 24.35098 -1006.92846" />
    <path d="M -104.69838 -958.51632 L 19.25219 -854.54882" />
    <path d="M 60.80953 -819.69128 L 139.53416 -753.65848" />
    <path d="M -104.69838 -958.51632 L -104.69838 -968.92952 L 24.35098 -1006.92846" />
    <path d="M -104.69838 -968.92952 L 28.4411 -857.25452" />
    <path d="M 69.99844 -822.39698 L 138.88264 -764.61815" />
    <path d="M -1395.19204 -241.83364 L -1266.14267 -279.83258" />
    <path d="M -1395.19204 -241.83364 L -1150.36165 -36.47433" />
    <path d="M -1150.36165 -182.71754 L -1266.14267 -279.83258" />
    <path d="M -1395.19204 -231.42045 L -1395.19204 -241.83364" />
    <path d="M -1395.19204 -231.42045 L -1150.36165 -26.06113" />
    <path d="M -1395.19204 -415.38691 L -1266.14267 -453.38584" />
    <path d="M -1395.19204 -415.38691 L -1150.36165 -210.02759" />
    <path d="M -1150.36165 -356.27081 L -1266.14267 -453.38584" />
    <path d="M -1395.19204 -404.97371 L -1395.19204 -415.38691" />
    <path d="M -1395.19204 -404.97371 L -1150.36165 -199.6144" />
    <path d="M -1395.19204 -588.94017 L -1266.14267 -626.93911" />
    <path d="M -1395.19204 -588.94017 L -1150.36165 -383.58086" />
    <path d="M -1150.36165 -529.82407 L -1266.14267 -626.93911" />
    <path d="M -1395.19204 -578.52697 L -1395.19204 -588.94017" />
    <path d="M -1395.19204 -578.52697 L -1150.36165 -373.16766" />
    <path d="M -1395.19204 -762.49343 L -1266.14267 -800.49237" />
    <path d="M -1395.19204 -762.49343 L -1150.36165 -557.13412" />
    <path d="M -1145.58745 -699.37282 L -1266.14267 -800.49237" />
    <path d="M -1395.19204 -752.08024 L -1395.19204 -762.49343" />
    <path d="M -1395.19204 -752.08024 L -1150.36165 -546.72092" />
    <path d="M -169.22307 -1460.17665 L -461.3048 -1374.17239 L -467.42166 -1379.30311 A 57.5 42.92747 309.98932 0 0 -466.33239 -1369.21065 A 57.5 42.92747 309.98932 0 0 -454.90482 -1349.81492 L -448.78795 -1344.6842 A 57.5 42.92747 309.98932 0 0 -427.02603 -1336.77987" />
    <path d="M -461.3048 -1374.17239 A 57.5 42.92747 309.98932 0 0 -448.78795 -1344.6842" />
    <path d="M -126.20661 -952.18317 A 600 447.93877 309.98932 0 0 -146.78914 -1091.68108" />
    <path d="M -174.0152 -1156.94144 A 600 447.93877 309.98932 0 0 -174.55348 -1157.95126" />
    <path d="M -185.93952 -1177.71762 A 600 447.93877 309.98932 0 0 -256.81721 -1259.886 A 600 447.93877 309.98932 0 0 -427.02603 -1336.77987" />
    <path d="M -126.20661 -473.95213 L -126.20661 -764.62387" />
    <path d="M -126.20661 -811.71809 L -126.20661 -952.18317 L -132.32348 -957.31389 A 600 447.93877 309.98932 0 0 -156.62679 -1108.03544" />
    <path d="M 45.85921 -1306.56663 L 45.85921 -1241.75997" />
    <path d="M 45.85921 -1000.98269 L 45.85921 -988.88774" />
    <path d="M 45.85921 -658.67807 L 45.85921 -641.78122" />
    <path d="M 45.85921 -462.92024 L 45.85921 -329.62642" />
    <path d="M 45.43479 -1320.06353 L 45.85921 -1306.56663" />
    <path d="M -169.22307 -1460.17665 A 250 186.64115 129.98932 0 1 -8.56187 -1434.77614 A 250 186.64115 129.98932 0 1 45.43479 -1320.06353" />
    <path d="M -105.98888 -567.64149 A 3.5 2.61298 129.98932 0 1 -111.24929 -564.07328 A 3.5 2.61298 129.98932 0 1 -106.75077 -569.43643 A 3.5 2.61298 129.98932 0 1 -105.98888 -567.64149 Z" />
    <path d="M -105.98888 -611.02981 A 3.5 2.61298 129.98932 0 1 -111.24929 -607.46159 A 3.5 2.61298 129.98932 0 1 -106.75077 -612.82474 A 3.5 2.61298 129.98932 0 1 -105.98888 -611.02981 Z" />
    <path d="M -105.98888 -654.41812 A 3.5 2.61298 129.98932 0 1 -111.24929 -650.84991 A 3.5 2.61298 129.98932 0 1 -106.75077 -656.21306 A 3.5 2.61298 129.98932 0 1 -105.98888 -654.41812 Z" />
    <path d="M -105.98888 -697.80644 A 3.5 2.61298 129.98932 0 1 -111.24929 -694.23822 A 3.5 2.61298 129.98932 0 1 -106.75077 -699.60137 A 3.5 2.61298 129.98932 0 1 -105.98888 -697.80644 Z" />
    <path d="M -105.98888 -741.19476 A 3.5 2.61298 129.98932 0 1 -111.24929 -737.62654 A 3.5 2.61298 129.98932 0 1 -106.75077 -742.98969 A 3.5 2.61298 129.98932 0 1 -105.98888 -741.19476 Z" />
    <path d="M -105.98888 -827.97139 A 3.5 2.61298 129.98932 0 1 -111.24929 -824.40317 A 3.5 2.61298 129.98932 0 1 -106.75077 -829.76632 A 3.5 2.61298 129.98932 0 1 -105.98888 -827.97139 Z" />
    <path d="M -105.98888 -871.3597 A 3.5 2.61298 129.98932 0 1 -111.24929 -867.79149 A 3.5 2.61298 129.98932 0 1 -106.75077 -873.15464 A 3.5 2.61298 129.98932 0 1 -105.98888 -871.3597 Z" />
    <path d="M -105.98888 -914.74802 A 3.5 2.61298 129.98932 0 1 -111.24929 -911.1798 A 3.5 2.61298 129.98932 0 1 -106.75077 -916.54295 A 3.5 2.61298 129.98932 0 1 -105.98888 -914.74802 Z" />
    <path d="M -105.98888 -958.13634 A 3.5 2.61298 129.98932 0 1 -111.24929 -954.56812 A 3.5 2.61298 129.98932 0 1 -106.75077 -959.93127 A 3.5 2.61298 129.98932 0 1 -105.98888 -958.13634 Z" />
    <path d="M -158.12638 -1161.61994 A 3.5 2.61298 129.98932 0 1 -157.89254 -1162.85712" />
    <path d="M -152.33792 -1164.49269 A 3.5 2.61298 129.98932 0 1 -152.10408 -1163.39322" />
    <path d="M -315.8616 -1317.90711 A 3.5 2.61298 129.98932 0 1 -316.25701 -1318.16474 A 3.5 2.61298 129.98932 1 1 -311.7585 -1323.52789 A 3.5 2.61298 129.98932 0 1 -315.8616 -1317.90711 Z" />
    <path d="M -287.50196 -1302.2554 A 3.5 2.61298 129.98932 0 1 -287.73636 -1302.42417 A 3.5 2.61298 129.98932 1 1 -283.23785 -1307.78732 A 3.5 2.61298 129.98932 0 1 -287.50196 -1302.2554 Z" />
    <path d="M -260.87136 -1284.15767 A 3.5 2.61298 129.98932 0 1 -260.95457 -1284.2237 A 3.5 2.61298 129.98932 0 1 -256.45606 -1289.58685 A 3.5 2.61298 129.98932 0 1 -260.87136 -1284.15767 Z" />
    <path d="M -236.09955 -1263.70209 A 3.5 2.61298 129.98932 0 1 -231.54361 -1269.01513 A 3.5 2.61298 129.98932 0 1 -236.04213 -1263.65198 A 3.5 2.61298 129.98932 0 1 -236.09955 -1263.70209 Z" />
    <path d="M -213.30721 -1240.9883 A 3.5 2.61298 129.98932 0 1 -208.62188 -1246.1724 A 3.5 2.61298 129.98932 0 1 -213.12039 -1240.80925 A 3.5 2.61298 129.98932 0 1 -213.30721 -1240.9883 Z" />
    <path d="M -192.60539 -1216.12698 A 3.5 2.61298 129.98932 0 1 -187.80253 -1221.16993 A 3.5 2.61298 129.98932 0 1 -192.30105 -1215.80678 A 3.5 2.61298 129.98932 0 1 -192.60539 -1216.12698 Z" />
    <path d="M -174.09495 -1189.23925 A 3.5 2.61298 129.98932 0 1 -169.187 -1194.12955 A 3.5 2.61298 129.98932 0 1 -173.68551 -1188.7664 A 3.5 2.61298 129.98932 0 1 -174.09495 -1189.23925 Z" />
    <path d="M -113.30319 -993.30079 A 3.5 2.61298 129.98932 0 1 -108.05012 -997.07871 A 3.5 2.61298 129.98932 0 1 -112.54863 -991.71556 A 3.5 2.61298 129.98932 0 1 -113.30319 -993.30079 Z" />
    <path d="M -117.17293 -1029.2977 A 3.5 2.61298 129.98932 0 1 -111.94182 -1033.27998 A 3.5 2.61298 129.98932 0 1 -116.44034 -1027.91683 A 3.5 2.61298 129.98932 0 1 -117.17293 -1029.2977 Z" />
    <path d="M -123.60154 -1064.17841 A 3.5 2.61298 129.98932 0 1 -118.40693 -1068.35871 A 3.5 2.61298 129.98932 1 1 -122.90544 -1062.99556 A 3.5 2.61298 129.98932 0 1 -123.60154 -1064.17841 Z" />
    <path d="M -909.53626 -1242.18942 L -1201.61799 -1156.18517" />
    <path d="M -909.53626 -1242.18942 A 57.5 42.92747 129.98932 0 1 -943.81502 -1184.60996" />
    <path d="M -1244.63445 -622.85907 A 600 447.93877 129.98932 0 1 -1244.62629 -625.78841" />
    <path d="M -1226.03276 -766.8489 A 600 447.93877 129.98932 0 1 -943.81502 -1184.60996" />
    <path d="M -1244.63445 418.46052 L -1244.63445 -105.13546" />
    <path d="M -1244.63445 -261.79187 L -1244.63445 -278.68872" />
    <path d="M -1244.63445 -435.34513 L -1244.63445 -452.24198" />
    <path d="M -1244.63445 -608.89839 L -1244.63445 -622.85907" />
    <path d="M -1416.70027 469.12576 L -1244.63445 418.46052" />
    <path d="M -1416.70027 -875.91203 L -1416.70027 469.12576" />
    <path d="M -1416.27585 -889.65888 L -1416.70027 -875.91203" />
    <path d="M -1416.27585 -889.65888 A 250 186.64115 129.98932 0 1 -1201.61799 -1156.18517" />
    <path d="M -1212.975 -849.7764 A 3.5 2.61298 129.98932 0 1 -1217.97508 -847.52018 A 3.5 2.61298 129.98932 1 1 -1213.47657 -852.88333 A 3.5 2.61298 129.98932 0 1 -1212.975 -849.7764 Z" />
    <path d="M -1054.97945 -1100.27186 A 3.5 2.61298 129.98932 0 1 -1059.08256 -1099.43774 A 3.5 2.61298 129.98932 0 1 -1054.58405 -1104.80089 A 3.5 2.61298 129.98932 0 1 -1054.97945 -1100.27186 Z" />
    <path d="M -1083.3391 -1067.919 A 3.5 2.61298 129.98932 0 1 -1087.60321 -1066.90121 A 3.5 2.61298 129.98932 0 1 -1083.1047 -1072.26436 A 3.5 2.61298 129.98932 0 1 -1083.3391 -1067.919 Z" />
    <path d="M -1109.9697 -1034.13837 A 3.5 2.61298 129.98932 0 1 -1114.385 -1032.9288 A 3.5 2.61298 129.98932 0 1 -1109.88649 -1038.29195 A 3.5 2.61298 129.98932 0 1 -1109.9697 -1034.13837 Z" />
    <path d="M -1134.74151 -999.09453 A 3.5 2.61298 129.98932 0 1 -1139.29744 -997.68601 A 3.5 2.61298 129.98932 0 1 -1134.79893 -1003.04916 A 3.5 2.61298 129.98932 0 1 -1134.74151 -999.09453 Z" />
    <path d="M -1157.53385 -962.95821 A 3.5 2.61298 129.98932 0 1 -1162.21918 -961.34454 A 3.5 2.61298 129.98932 0 1 -1157.72066 -966.70769 A 3.5 2.61298 129.98932 0 1 -1157.53385 -962.95821 Z" />
    <path d="M -1178.23567 -925.90548 A 3.5 2.61298 129.98932 0 1 -1183.03852 -924.08145 A 3.5 2.61298 129.98932 0 1 -1178.54001 -929.4446 A 3.5 2.61298 129.98932 0 1 -1178.23567 -925.90548 Z" />
    <path d="M -1196.74611 -888.11684 A 3.5 2.61298 129.98932 0 1 -1201.65406 -886.07828 A 3.5 2.61298 129.98932 0 1 -1197.15554 -891.44143 A 3.5 2.61298 129.98932 0 1 -1196.74611 -888.11684 Z" />
    <path d="M -1226.84327 -811.07096 A 3.5 2.61298 129.98932 0 1 -1231.92208 -808.59499 A 3.5 2.61298 129.98932 0 1 -1227.42357 -813.95814 A 3.5 2.61298 129.98932 0 1 -1226.84327 -811.07096 Z" />
    <path d="M -1218.59506 -1194.79909 L -1186.22663 -1167.64904" />
    <path d="M -1207.73486 -1161.31589 L -1186.22663 -1167.64904" />
    <path d="M -1207.73486 -1161.31589 L -1201.61799 -1156.18517" />
    <path d="M -915.65313 -1247.32014 L -909.53626 -1242.18942" />
    <path d="M -915.65313 -1247.32014 L -467.42166 -1379.30311" />
    <path d="M -169.22307 -1460.17665 L -175.33993 -1465.30737" />
    <path d="M -196.84816 -1458.97421 L -175.33993 -1465.30737" />
    <path d="M -196.84816 -1458.97421 L -229.21659 -1486.12426" />
    <path d="M -207.70836 -1492.45742 L -229.21659 -1486.12426" />
    <path d="M -207.70836 -1492.45742 L -213.82523 -1497.58814" />
    <path d="M -505.90696 -1411.58388 L -213.82523 -1497.58814" />
    <path d="M -499.79009 -1406.45316 L -505.90696 -1411.58388 A 57.5 42.92747 309.98932 0 0 -505.42726 -1404.79328" />
    <path d="M -499.79009 -1406.45316 L -948.02155 -1274.47019" />
    <path d="M -954.13842 -1279.60091 L -948.02155 -1274.47019" />
    <path d="M -1246.22015 -1193.59666 L -954.13842 -1279.60091" />
    <path d="M -1246.22015 -1193.59666 L -1240.10328 -1188.46594" />
    <path d="M -1218.59506 -1194.79909 L -1240.10328 -1188.46594" />
    <path d="M -177.00955 -1156.05974 A 600 447.93877 309.98932 0 0 -177.52735 -1157.0756" />
    <path d="M -188.493 -1176.96575 A 600 447.93877 309.98932 0 0 -259.89096 -1262.4331" />
    <path d="M -132.32348 -479.08285 L -132.32348 -762.82274" />
    <path d="M -132.32348 -809.91696 L -132.32348 -957.31389" />
    <path d="M -14.67874 -1439.90686 A 250 186.64115 309.98932 0 0 -175.33993 -1465.30737" />
    <path d="M -1422.81713 463.99504 L -1416.70027 469.12576" />
    <path d="M -1422.81713 -881.04275 L -1422.81713 463.99504" />
    <path d="M -1422.81713 -881.04275 L -1416.70027 -875.91203" />
    <path d="M -1422.39272 -894.78959 L -1422.81713 -881.04275" />
    <path d="M -1422.39272 -894.78959 L -1416.27585 -889.65888" />
    <path d="M -1207.73486 -1161.31589 A 250 186.64115 309.98932 0 0 -1422.39272 -894.78959" />
    <path d="M -1218.59506 -1184.3859 L -1218.59506 -1194.79909" />
    <path d="M -1218.59506 -1184.3859 L -1195.41554 -1164.94334" />
    <path d="M -909.65681 -1238.67258 L -466.33239 -1369.21065" />
    <path d="M -207.70836 -1492.45742 A 250 186.64115 129.98932 0 1 -47.04717 -1467.05691 A 250 186.64115 129.98932 0 1 -31.89525 -1452.25118" />
    <path d="M -164.6919 -506.2329 L -164.6919 -753.29177" />
    <path d="M -164.6919 -800.38599 L -164.6919 -984.46394 L -170.80877 -989.59466 A 600 447.93877 309.98932 0 0 -183.39308 -1100.15403" />
    <path d="M -164.6919 -984.46394 A 600 447.93877 309.98932 0 0 -178.87156 -1101.4854" />
    <path d="M -194.8021 -1150.82068 A 600 447.93877 309.98932 0 0 -195.21763 -1151.86665" />
    <path d="M -204.09287 -1172.37232 A 600 447.93877 309.98932 0 0 -276.66643 -1275.30322" />
    <path d="M -466.30561 -1369.09276 A 57.5 42.92747 129.98932 0 1 -466.66628 -1369.11234" />
    <path d="M -144.47417 -599.92226 A 3.5 2.61298 129.98932 0 1 -149.73458 -596.35405 A 3.5 2.61298 129.98932 0 1 -145.23607 -601.7172 A 3.5 2.61298 129.98932 0 1 -144.47417 -599.92226 Z" />
    <path d="M -144.47417 -643.31058 A 3.5 2.61298 129.98932 0 1 -149.73458 -639.74236 A 3.5 2.61298 129.98932 0 1 -145.23607 -645.10551 A 3.5 2.61298 129.98932 0 1 -144.47417 -643.31058 Z" />
    <path d="M -144.47417 -686.69889 A 3.5 2.61298 129.98932 0 1 -149.73458 -683.13068 A 3.5 2.61298 129.98932 0 1 -145.23607 -688.49383 A 3.5 2.61298 129.98932 0 1 -144.47417 -686.69889 Z" />
    <path d="M -144.47417 -730.08721 A 3.5 2.61298 129.98932 0 1 -149.73458 -726.51899 A 3.5 2.61298 129.98932 0 1 -145.23607 -731.88214 A 3.5 2.61298 129.98932 0 1 -144.47417 -730.08721 Z" />
    <path d="M -144.47417 -816.86384 A 3.5 2.61298 129.98932 0 1 -149.73458 -813.29562 A 3.5 2.61298 129.98932 0 1 -145.23607 -818.65877 A 3.5 2.61298 129.98932 0 1 -144.47417 -816.86384 Z" />
    <path d="M -144.47417 -860.25216 A 3.5 2.61298 129.98932 0 1 -149.73458 -856.68394 A 3.5 2.61298 129.98932 0 1 -145.23607 -862.04709 A 3.5 2.61298 129.98932 0 1 -144.47417 -860.25216 Z" />
    <path d="M -144.47417 -903.64047 A 3.5 2.61298 129.98932 0 1 -149.73458 -900.07226 A 3.5 2.61298 129.98932 0 1 -145.23607 -905.43541 A 3.5 2.61298 129.98932 0 1 -144.47417 -903.64047 Z" />
    <path d="M -144.47417 -947.02879 A 3.5 2.61298 129.98932 0 1 -149.73458 -943.46057 A 3.5 2.61298 129.98932 0 1 -145.23607 -948.82372 A 3.5 2.61298 129.98932 0 1 -144.47417 -947.02879 Z" />
    <path d="M -144.47417 -990.41711 A 3.5 2.61298 129.98932 0 1 -149.73458 -986.84889 A 3.5 2.61298 129.98932 0 1 -145.23607 -992.21204 A 3.5 2.61298 129.98932 0 1 -144.47417 -990.41711 Z" />
    <path d="M -151.78849 -1025.58156 A 3.5 2.61298 129.98932 0 1 -146.53541 -1029.35948 A 3.5 2.61298 129.98932 0 1 -151.03392 -1023.99633 A 3.5 2.61298 129.98932 0 1 -151.78849 -1025.58156 Z" />
    <path d="M -162.08683 -1096.45918 A 3.5 2.61298 129.98932 0 1 -156.89222 -1100.63948 A 3.5 2.61298 129.98932 1 1 -161.39074 -1095.27633 A 3.5 2.61298 129.98932 0 1 -162.08683 -1096.45918 Z" />
    <path d="M -155.65822 -1061.57847 A 3.5 2.61298 129.98932 0 1 -150.42712 -1065.56075 A 3.5 2.61298 129.98932 0 1 -154.92563 -1060.1976 A 3.5 2.61298 129.98932 0 1 -155.65822 -1061.57847 Z" />
    <path d="M -53.16404 -1472.18763 A 250 186.64115 309.98932 0 0 -213.82523 -1497.58814" />
    <path d="M -196.22374 -1143.47022 A 600 447.93877 309.98932 0 0 -198.91454 -1150.77808" />
    <path d="M -207.4164 -1171.3937 A 600 447.93877 309.98932 0 0 -279.93323 -1277.62017" />
    <path d="M -170.80877 -511.36362 L -170.80877 -751.49064" />
    <path d="M -170.80877 -798.58486 L -170.80877 -989.59466" />
    <path d="M -1461.30243 -913.32352 L -1461.30243 431.71427 L -1455.18556 436.84499 L -1422.81713 427.31402" />
    <path d="M -1460.87801 -927.07036 L -1461.30243 -913.32352 L -1455.18556 -908.1928 L -1455.18556 436.84499" />
    <path d="M -1246.22015 -1193.59666 A 250 186.64115 309.98932 0 0 -1460.87801 -927.07036 L -1454.76114 -921.93964 L -1455.18556 -908.1928" />
    <path d="M -1454.76114 -921.93964 A 250 186.64115 129.98932 0 1 -1240.10328 -1188.46594" />
    <path d="M -308.27391 670.52864 L -308.27391 615.42547 L 238.03507 454.56332 L -291.8069 10.14143" />
    <path d="M -311.8121 667.56086 L -308.27391 670.52864 L 238.03507 509.66648 L 238.03507 454.56332" />
    <path d="M -311.8121 612.4577 L -308.27391 615.42547" />
    <path d="M -522.51703 -183.37406 L -602.74769 -250.67009" />
    <path d="M -877.09895 -317.51311 L -892.00924 -313.12273" />
    <path d="M -1183.39608 -227.32309 L -1198.30637 -222.93271" />
    <path d="M 241.47639 508.65317 L 241.47639 453.55001 L 787.78537 292.68785 L 328.70553 -92.38003" />
    <path d="M 238.03507 505.76666 L 241.47639 508.65317 L 787.78537 347.79101 L 787.78537 292.68785" />
    <path d="M -601.90199 -253.86055 L -521.76669 -186.64451" />
    <path d="M -290.96121 6.95096 L 241.47639 453.55001" />
    <path d="M 306.13184 -111.31444 L -26.37183 -390.21251" />
    <path d="M -119.43743 -468.27426 L -183.2674 -521.81369 L -279.74699 -493.40501" />
    <path d="M -308.91265 -484.8171 L -534.48867 -418.39563" />
    <path d="M -778.79089 -878.94249 L 104.89262 -137.72471 L 104.89262 -146.40238 A 200 99.39449 180 0 0 367.90096 -108.54309 L 378.90624 -111.55565 L 1083.68784 -319.0805 L 1104.44951 -326.10483 A 200 99.39449 180 0 0 1181.74004 -404.59247 L 1181.74004 -395.91481" />
    <path d="M -778.79089 -887.62016 L 104.89262 -146.40238" />
    <path d="M -806.72507 -929.60774 A 200 99.39449 180 0 0 -778.79089 -878.94249 L -778.79089 -887.62016" />
    <path d="M -729.43454 -1016.77305 A 200 99.39449 180 0 0 -806.72507 -938.2854 L -806.72507 -929.60774" />
    <path d="M -806.72507 -938.2854 A 200 99.39449 180 0 0 -778.79089 -887.62016" />
    <path d="M 367.90096 -99.86543 L 367.90096 -108.54309" />
    <path d="M 104.89262 -137.72471 A 200 99.39449 180 0 0 367.90096 -99.86543 L 378.90624 -102.87799 L 378.90624 -111.55565" />
    <path d="M 378.90624 -102.87799 L 1083.68784 -310.40284 L 1083.68784 -319.0805" />
    <path d="M 1083.68784 -310.40284 L 1104.44951 -317.42717 L 1104.44951 -326.10483" />
    <path d="M 1104.44951 -317.42717 A 200 99.39449 180 0 0 1181.74004 -395.91481" />
    <path d="M 1156.52213 -400.25364 A 175 86.97018 180 0 0 1132.29763 -440.2469 L 1132.29763 -448.92457 L 248.61413 -1190.14234 A 175 86.97018 180 0 0 18.48182 -1223.26922 L 8.85221 -1220.63323 L -695.92939 -1013.10838 L -714.09586 -1006.96209 A 175 86.97018 180 0 0 -781.72507 -938.2854 A 175 86.97018 180 0 0 -757.28266 -893.95331 L 126.40085 -152.73553 A 175 86.97018 180 0 0 356.53315 -119.60866 L 366.16276 -122.24465 L 1070.94436 -329.7695 L 1089.11083 -335.91578 A 175 86.97018 180 0 0 1156.74004 -404.59247 A 175 86.97018 180 0 0 1132.29763 -448.92457" />
    <path d="M 1132.29763 -440.2469 L 248.61413 -1181.46468 L 248.61413 -1190.14234" />
    <path d="M 248.61413 -1181.46468 A 175 86.97018 180 0 0 18.48182 -1214.59155 L 18.48182 -1223.26922" />
    <path d="M 18.48182 -1214.59155 L 8.85221 -1211.95557 L 8.85221 -1220.63323" />
    <path d="M 8.85221 -1211.95557 L -695.92939 -1004.43072 L -695.92939 -1013.10838" />
    <path d="M -695.92939 -1004.43072 L -714.09586 -998.28443 L -714.09586 -1006.96209" />
    <path d="M -714.09586 -998.28443 A 175 86.97018 180 0 0 -781.50715 -933.94657" />
    <path d="M -708.67287 -1023.79737 L -729.43454 -1016.77305" />
    <path d="M -3.89126 -1231.32223 L -708.67287 -1023.79737" />
    <path d="M 7.11401 -1234.33478 L -3.89126 -1231.32223" />
    <path d="M 270.12235 -1196.4755 A 200 99.39449 180 0 0 7.11401 -1234.33478" />
    <path d="M 1181.74004 -404.59247 A 200 99.39449 180 0 0 1153.80586 -455.25772 L 270.12235 -1196.4755" />
    <path d="M 1285.79929 514.46243 L 1280.7019 510.18683" />
    <path d="M 1285.79929 514.46243 L 1285.79929 1078.51053 L 941.66765 1179.84103 L 859.84549 927.03102 A 100 74.65646 129.98932 0 1 905.03662 808.39108 L 939.94096 780.24762 L 1124.45892 747.85503 A 100 74.65646 309.98932 0 0 1210.63292 678.19346 L 1285.79929 514.46243 Z" />
    <path d="M 941.66765 1179.84103 L 936.57026 1175.56543 L 854.7481 922.75543" />
    <path d="M 859.84549 927.03102 L 854.7481 922.75543" />
    <path d="M 899.93923 804.11548 A 100 74.65646 309.98932 0 0 854.7481 922.75543" />
    <path d="M 905.03662 808.39108 L 899.93923 804.11548 L 934.84357 775.97202 L 1119.36153 743.57944 A 100 74.65646 309.98932 0 0 1205.53553 673.91786 L 1280.7019 510.18683" />
    <path d="M 939.94096 780.24762 L 934.84357 775.97202" />
    <path d="M 1124.45892 747.85503 L 1119.36153 743.57944" />
    <path d="M 1210.63292 678.19346 L 1205.53553 673.91786" />
    <path d="M 918.1436 -657.47231 L 924.26047 -652.34159" />
    <path d="M 879.65831 -689.75308 L 885.77518 -684.62236" />
    <path d="M 607.20282 -918.28382 L 613.31969 -913.15311" />
    <path d="M 568.71753 -950.56459 L 574.8344 -945.43388" />
    <path d="M 296.26204 -1179.09534 L 302.37891 -1173.96462" />
    <path d="M 257.77675 -1211.37611 L 263.89361 -1206.24539" />
    <path d="M -14.67874 -1439.90686 L -8.56187 -1434.77614" />
    <path d="M -53.16404 -1472.18763 L -47.04717 -1467.05691" />
</svg>