<svg version="1.1" xmlns="http://www.w3.org/2000/svg" viewBox="-1462.2941408180334 -1507.6395470802097 2749.0882215141696 2760.1960995957297" fill="none" stroke="black" stroke-width="0.6%" vector-effect="non-scaling-stroke">
    <path d="M 979.95604 257.93234 L 978.68172 256.86345" />
    <path d="M 978.68172 -524.12839 L 978.68172 -302.60739" />
    <path d="M 978.68172 -279.48856 L 978.68172 256.86345" />
    <path d="M 979.95604 257.93234 L 979.95604 768.05464" />
    <path d="M 904.7892 421.66319 L 979.95604 257.93234" />
    <path d="M 903.51488 420.59429 L 978.68172 256.86345" />
    <path d="M 904.7892 421.66319 L 903.51488 420.59429" />
    <path d="M 635.82229 923.30987 L 630.72499 919.03428 L 548.90232 666.2229" />
    <path d="M 858.78498 857.66001 L 635.82229 923.30987 L 553.99962 670.49849 A 100 74.65713 129.98975 0 1 599.19103 551.85859 L 634.09558 523.71535 L 818.61468 491.32423 A 100 74.65713 309.98975 0 0 904.7892 421.66319" />
    <path d="M 763.59812 -677.74064 A 250 186.64281 129.98975 0 1 839.10864 -686.16524" />
    <path d="M 898.23446 -669.62259 A 250 186.64281 129.98975 0 1 924.26075 -652.33833 A 250 186.64281 129.98975 0 1 945.80995 -629.71652" />
    <path d="M 972.38818 -574.37107 A 250 186.64281 129.98975 0 1 978.2573 -537.62533 L 978.68172 -524.12839" />
    <path d="M 817.34035 490.25534 A 100 74.65713 309.98975 0 0 903.51488 420.59429" />
    <path d="M 806.61484 492.13813 L 817.34035 490.25534" />
    <path d="M 806.61484 492.13813 L 806.61484 -169.74541 A 600 447.94276 309.98975 0 0 803.28094 -227.84298" />
    <path d="M 800.14143 -250.0374 A 600 447.94276 309.98975 0 0 676.00452 -477.44927 A 600 447.94276 309.98975 0 0 505.79357 -554.3457" />
    <path d="M 471.51459 -591.73861 A 57.5 42.92785 309.98975 0 0 484.03142 -562.25033 A 57.5 42.92785 309.98975 0 0 505.79357 -554.3457" />
    <path d="M 763.59812 -677.74064 L 471.51459 -591.73861 L 465.39783 -596.86932 A 57.5 42.92785 309.98975 0 0 466.48711 -586.77683 A 57.5 42.92785 309.98975 0 0 477.91466 -567.38103 L 484.03142 -562.25033" />
    <path d="M 826.8327 214.7975 A 3.5 2.613 129.98975 0 1 821.57225 218.36568 A 3.5 2.613 129.98975 0 1 826.0708 213.00256 A 3.5 2.613 129.98975 0 1 826.8327 214.7975 Z" />
    <path d="M 826.8327 171.40906 A 3.5 2.613 129.98975 0 1 821.57225 174.97724 A 3.5 2.613 129.98975 0 1 826.0708 169.61412 A 3.5 2.613 129.98975 0 1 826.8327 171.40906 Z" />
    <path d="M 826.8327 128.02063 A 3.5 2.613 129.98975 0 1 821.57225 131.58881 A 3.5 2.613 129.98975 0 1 826.0708 126.22569 A 3.5 2.613 129.98975 0 1 826.8327 128.02063 Z" />
    <path d="M 826.8327 84.63219 A 3.5 2.613 129.98975 0 1 821.57225 88.20037 A 3.5 2.613 129.98975 0 1 826.0708 82.83725 A 3.5 2.613 129.98975 0 1 826.8327 84.63219 Z" />
    <path d="M 826.8327 41.24376 A 3.5 2.613 129.98975 0 1 821.57225 44.81194 A 3.5 2.613 129.98975 0 1 826.0708 39.44882 A 3.5 2.613 129.98975 0 1 826.8327 41.24376 Z" />
    <path d="M 826.8327 -2.14468 A 3.5 2.613 129.98975 0 1 821.57225 1.4235 A 3.5 2.613 129.98975 0 1 826.0708 -3.93962 A 3.5 2.613 129.98975 0 1 826.8327 -2.14468 Z" />
    <path d="M 826.8327 -45.53311 A 3.5 2.613 129.98975 0 1 821.57225 -41.96494 A 3.5 2.613 129.98975 0 1 826.0708 -47.32805 A 3.5 2.613 129.98975 0 1 826.8327 -45.53311 Z" />
    <path d="M 826.8327 -88.92155 A 3.5 2.613 129.98975 0 1 821.57225 -85.35337 A 3.5 2.613 129.98975 1 1 826.0708 -90.71649 A 3.5 2.613 129.98975 0 1 826.8327 -88.92155 Z" />
    <path d="M 826.8327 -132.30998 A 3.5 2.613 129.98975 0 1 821.57225 -128.74181 A 3.5 2.613 129.98975 0 1 826.0708 -134.10492 A 3.5 2.613 129.98975 0 1 826.8327 -132.30998 Z" />
    <path d="M 826.8327 -175.69842 A 3.5 2.613 129.98975 0 1 821.57225 -172.13024 A 3.5 2.613 129.98975 0 1 826.0708 -177.49336 A 3.5 2.613 129.98975 0 1 826.8327 -175.69842 Z" />
    <path d="M 616.95868 -535.47195 A 3.5 2.613 129.98975 0 1 616.56327 -535.72959 A 3.5 2.613 129.98975 1 1 621.06182 -541.0927 A 3.5 2.613 129.98975 0 1 616.95868 -535.47195 Z" />
    <path d="M 645.3185 -519.81996 A 3.5 2.613 129.98975 0 1 645.08409 -519.98874 A 3.5 2.613 129.98975 0 1 649.58265 -525.35185 A 3.5 2.613 129.98975 0 1 645.3185 -519.81996 Z" />
    <path d="M 671.94927 -501.72195 A 3.5 2.613 129.98975 0 1 671.86604 -501.78799 A 3.5 2.613 129.98975 1 1 676.3646 -507.1511 A 3.5 2.613 129.98975 0 1 671.94927 -501.72195 Z" />
    <path d="M 696.72123 -481.2661 A 3.5 2.613 129.98975 0 1 701.2772 -486.57912 A 3.5 2.613 129.98975 1 1 696.77864 -481.216 A 3.5 2.613 129.98975 0 1 696.72123 -481.2661 Z" />
    <path d="M 819.51834 -210.86303 A 3.5 2.613 129.98975 0 1 824.77145 -214.64091 A 3.5 2.613 129.98975 0 1 820.2729 -209.2778 A 3.5 2.613 129.98975 0 1 819.51834 -210.86303 Z" />
    <path d="M 809.21993 -281.74093 A 3.5 2.613 129.98975 0 1 814.41457 -285.9212 A 3.5 2.613 129.98975 0 1 809.91602 -280.55808 A 3.5 2.613 129.98975 0 1 809.21993 -281.74093 Z" />
    <path d="M 774.9552 -378.01916 A 3.5 2.613 129.98975 0 1 779.95532 -382.74603 A 3.5 2.613 129.98975 0 1 775.45676 -377.38291 A 3.5 2.613 129.98975 0 1 774.9552 -378.01916 Z" />
    <path d="M 788.82356 -347.48061 A 3.5 2.613 129.98975 0 1 793.90241 -352.0341 A 3.5 2.613 129.98975 0 1 789.40385 -346.67099 A 3.5 2.613 129.98975 0 1 788.82356 -347.48061 Z" />
    <path d="M 800.26371 -315.33567 A 3.5 2.613 129.98975 0 1 805.40751 -319.70666 A 3.5 2.613 129.98975 0 1 800.90896 -314.34354 A 3.5 2.613 129.98975 0 1 800.26371 -315.33567 Z" />
    <path d="M 719.51371 -458.55207 A 3.5 2.613 129.98975 0 1 724.19907 -463.73613 A 3.5 2.613 129.98975 1 1 719.70052 -458.37301 A 3.5 2.613 129.98975 0 1 719.51371 -458.55207 Z" />
    <path d="M 740.21565 -433.6905 A 3.5 2.613 129.98975 0 1 745.01855 -438.73342 A 3.5 2.613 129.98975 1 1 740.51999 -433.37031 A 3.5 2.613 129.98975 0 1 740.21565 -433.6905 Z" />
    <path d="M 758.72621 -406.80254 A 3.5 2.613 129.98975 0 1 763.63419 -411.69281 A 3.5 2.613 129.98975 1 1 759.13564 -406.32969 A 3.5 2.613 129.98975 0 1 758.72621 -406.80254 Z" />
    <path d="M 818.61468 491.32423 L 817.34035 490.25534" />
    <path d="M 735.973 -676.53836 L 757.48136 -682.87135" />
    <path d="M 918.14399 -657.46904 A 250 186.64281 309.98975 0 0 892.1177 -674.7533" />
    <path d="M 832.99188 -691.29595 A 250 186.64281 309.98975 0 0 757.48136 -682.87135" />
    <path d="M 800.49808 489.3341 L 800.49808 -174.87611 A 600 447.94276 309.98975 0 0 797.90248 -226.25933" />
    <path d="M 795.076 -248.54592 A 600 447.94276 309.98975 0 0 672.93083 -479.99637" />
    <path d="M 553.99962 670.49849 L 548.90232 666.2229" />
    <path d="M 628.99828 519.43976 L 802.79186 488.93144" />
    <path d="M 594.09373 547.583 L 628.99828 519.43976" />
    <path d="M 594.09373 547.583 A 100 74.65713 309.98975 0 0 548.90232 666.2229" />
    <path d="M 599.19103 551.85859 L 594.09373 547.583" />
    <path d="M 634.09558 523.71535 L 628.99828 519.43976" />
    <path d="M 806.61484 492.13813 L 802.79186 488.93144" />
    <path d="M 763.59812 -677.74064 L 757.48136 -682.87135" />
    <path d="M 806.61484 -169.74541 L 800.49808 -174.87611" />
    <path d="M -285.77941 -412.37072 L -253.41155 -385.22073" />
    <path d="M -274.91991 -378.88774 L -253.41155 -385.22073" />
    <path d="M -274.91991 -378.88774 L -268.80315 -373.75703" />
    <path d="M 23.28038 -459.75906 L -171.32231 -402.45961" />
    <path d="M -200.48809 -393.87194 L -268.80315 -373.75703" />
    <path d="M 17.16362 -464.88977 L 23.28038 -459.75906 A 57.5 42.92785 129.98975 0 1 -10.9986 -402.17973" />
    <path d="M 17.16362 -464.88977 L 465.39783 -596.86932" />
    <path d="M 735.973 -676.53836 L 703.60514 -703.68835" />
    <path d="M 725.1135 -710.02134 L 703.60514 -703.68835" />
    <path d="M 725.1135 -710.02134 L 718.99674 -715.15205" />
    <path d="M 426.91321 -629.15002 L 718.99674 -715.15205" />
    <path d="M 433.02997 -624.01931 L 426.91321 -629.15002 A 57.5 42.92785 309.98975 0 0 427.3929 -622.35951" />
    <path d="M 433.02997 -624.01931 L -15.20424 -492.03976" />
    <path d="M -21.321 -497.17047 L -15.20424 -492.03976" />
    <path d="M -313.40453 -411.16844 L -245.08947 -431.28335" />
    <path d="M -215.92369 -439.87102 L -21.321 -497.17047" />
    <path d="M -313.40453 -411.16844 L -307.28777 -406.03773" />
    <path d="M -285.77941 -412.37072 L -307.28777 -406.03773" />
    <path d="M -285.77941 -401.9575 L -262.60046 -382.51512" />
    <path d="M 23.15981 -456.24208 L 466.48711 -586.77683" />
    <path d="M -285.77941 -401.9575 L -285.77941 -412.37072" />
    <path d="M -274.91991 -378.88774 A 250 186.64281 309.98975 0 0 -489.57909 -112.36252 L -483.46233 -107.23182 L -483.88675 -93.48494 L -483.88675 1251.55655 L -311.81987 1200.89262 L -311.81987 159.57017 A 600 447.94276 129.98975 0 1 -107.29035 -315.69816" />
    <path d="M -489.57909 -112.36252 L -490.00351 -98.61565 L -483.88675 -93.48494" />
    <path d="M -490.00351 -98.61565 L -490.00351 1246.42584 L -483.88675 1251.55655" />
    <path d="M -483.46233 -107.23182 A 250 186.64281 129.98975 0 1 -268.80315 -373.75703" />
    <path d="M -89.55932 -333.87724 A 600 447.94276 129.98975 0 1 -10.9986 -402.17973" />
    <path d="M -332.03773 556.0191 A 3.5 2.613 129.98975 0 1 -326.77728 552.45092 A 3.5 2.613 129.98975 1 1 -331.27583 557.81404 A 3.5 2.613 129.98975 0 1 -332.03773 556.0191 Z" />
    <path d="M -332.03773 512.63067 A 3.5 2.613 129.98975 0 1 -326.77728 509.06249 A 3.5 2.613 129.98975 1 1 -331.27583 514.42561 A 3.5 2.613 129.98975 0 1 -332.03773 512.63067 Z" />
    <path d="M -332.03773 469.24223 A 3.5 2.613 129.98975 0 1 -326.77728 465.67405 A 3.5 2.613 129.98975 1 1 -331.27583 471.03717 A 3.5 2.613 129.98975 0 1 -332.03773 469.24223 Z" />
    <path d="M -332.03773 425.8538 A 3.5 2.613 129.98975 0 1 -326.77728 422.28562 A 3.5 2.613 129.98975 1 1 -331.27583 427.64874 A 3.5 2.613 129.98975 0 1 -332.03773 425.8538 Z" />
    <path d="M -332.03773 382.46536 A 3.5 2.613 129.98975 0 1 -326.77728 378.89718 A 3.5 2.613 129.98975 1 1 -331.27583 384.2603 A 3.5 2.613 129.98975 0 1 -332.03773 382.46536 Z" />
    <path d="M -332.03773 339.07693 A 3.5 2.613 129.98975 0 1 -326.77728 335.50875 A 3.5 2.613 129.98975 1 1 -331.27583 340.87186 A 3.5 2.613 129.98975 0 1 -332.03773 339.07693 Z" />
    <path d="M -332.03773 295.68849 A 3.5 2.613 129.98975 0 1 -326.77728 292.12031 A 3.5 2.613 129.98975 1 1 -331.27583 297.48343 A 3.5 2.613 129.98975 0 1 -332.03773 295.68849 Z" />
    <path d="M -332.03773 252.30006 A 3.5 2.613 129.98975 0 1 -326.77728 248.73188 A 3.5 2.613 129.98975 1 1 -331.27583 254.09499 A 3.5 2.613 129.98975 0 1 -332.03773 252.30006 Z" />
    <path d="M -332.03773 208.91162 A 3.5 2.613 129.98975 0 1 -326.77728 205.34344 A 3.5 2.613 129.98975 1 1 -331.27583 210.70656 A 3.5 2.613 129.98975 0 1 -332.03773 208.91162 Z" />
    <path d="M -332.03773 165.52319 A 3.5 2.613 129.98975 0 1 -326.77728 161.95501 A 3.5 2.613 129.98975 1 1 -331.27583 167.31812 A 3.5 2.613 129.98975 0 1 -332.03773 165.52319 Z" />
    <path d="M -122.16371 -317.84233 A 3.5 2.613 129.98975 0 1 -126.26685 -317.00826 A 3.5 2.613 129.98975 0 1 -121.7683 -322.37137 A 3.5 2.613 129.98975 0 1 -122.16371 -317.84233 Z" />
    <path d="M -150.52353 -285.48963 A 3.5 2.613 129.98975 0 1 -154.78768 -284.47188 A 3.5 2.613 129.98975 0 1 -150.28912 -289.83499 A 3.5 2.613 129.98975 0 1 -150.52353 -285.48963 Z" />
    <path d="M -177.1543 -251.70912 A 3.5 2.613 129.98975 0 1 -181.56963 -250.49959 A 3.5 2.613 129.98975 0 1 -177.07107 -255.86271 A 3.5 2.613 129.98975 0 1 -177.1543 -251.70912 Z" />
    <path d="M -201.92626 -216.66539 A 3.5 2.613 129.98975 0 1 -206.48223 -215.25692 A 3.5 2.613 129.98975 1 1 -201.98367 -220.62003 A 3.5 2.613 129.98975 0 1 -201.92626 -216.66539 Z" />
    <path d="M -324.72337 126.05124 A 3.5 2.613 129.98975 0 1 -329.97648 129.4054 A 3.5 2.613 129.98975 1 1 -325.47793 124.04228 A 3.5 2.613 129.98975 0 1 -324.72337 126.05124 Z" />
    <path d="M -314.42496 49.10875 A 3.5 2.613 129.98975 0 1 -319.6196 52.02609 A 3.5 2.613 129.98975 0 1 -315.12105 46.66297 A 3.5 2.613 129.98975 0 1 -314.42496 49.10875 Z" />
    <path d="M -320.85361 87.77535 A 3.5 2.613 129.98975 0 1 -326.08475 90.91221 A 3.5 2.613 129.98975 0 1 -321.5862 85.54909 A 3.5 2.613 129.98975 0 1 -320.85361 87.77535 Z" />
    <path d="M -280.16023 -67.34752 A 3.5 2.613 129.98975 0 1 -285.16035 -65.09133 A 3.5 2.613 129.98975 0 1 -280.66179 -70.45445 A 3.5 2.613 129.98975 0 1 -280.16023 -67.34752 Z" />
    <path d="M -294.02858 -28.64208 A 3.5 2.613 129.98975 0 1 -299.10744 -26.16616 A 3.5 2.613 129.98975 0 1 -294.60888 -31.52927 A 3.5 2.613 129.98975 0 1 -294.02858 -28.64208 Z" />
    <path d="M -305.46874 10.23982 A 3.5 2.613 129.98975 0 1 -310.61254 12.93648 A 3.5 2.613 129.98975 0 1 -306.11398 7.57337 A 3.5 2.613 129.98975 0 1 -305.46874 10.23982 Z" />
    <path d="M -224.71874 -180.52918 A 3.5 2.613 129.98975 0 1 -229.4041 -178.91554 A 3.5 2.613 129.98975 0 1 -224.90555 -184.27866 A 3.5 2.613 129.98975 0 1 -224.71874 -180.52918 Z" />
    <path d="M -245.42068 -143.47651 A 3.5 2.613 129.98975 0 1 -250.22358 -141.65253 A 3.5 2.613 129.98975 0 1 -245.72502 -147.01564 A 3.5 2.613 129.98975 0 1 -245.42068 -143.47651 Z" />
    <path d="M -263.93124 -105.68793 A 3.5 2.613 129.98975 0 1 -268.83922 -103.64941 A 3.5 2.613 129.98975 0 1 -264.34067 -109.01252 A 3.5 2.613 129.98975 0 1 -263.93124 -105.68793 Z" />
    <path d="M 725.1135 -710.02134 A 250 186.64281 129.98975 0 1 800.62402 -718.44594" />
    <path d="M 859.74984 -701.90329 A 250 186.64281 129.98975 0 1 885.77613 -684.61903 A 250 186.64281 129.98975 0 1 900.9278 -669.81338" />
    <path d="M 466.51398 -586.65856 A 57.5 42.92785 129.98975 0 1 466.1522 -586.67821" />
    <path d="M 768.13022 -202.0261 A 600 447.94276 309.98975 0 0 767.9024 -217.42601" />
    <path d="M 766.71073 -240.19396 A 600 447.94276 309.98975 0 0 656.15566 -492.86649" />
    <path d="M 768.13022 495.01606 L 768.13022 353.58267" />
    <path d="M 768.13022 276.20633 L 768.13022 -202.0261 L 762.01346 -207.15681 A 600 447.94276 309.98975 0 0 761.94409 -215.67163" />
    <path d="M 788.34808 182.5168 A 3.5 2.613 129.98975 0 1 783.08763 186.08498 A 3.5 2.613 129.98975 0 1 787.58618 180.72186 A 3.5 2.613 129.98975 0 1 788.34808 182.5168 Z" />
    <path d="M 788.34808 139.12837 A 3.5 2.613 129.98975 0 1 783.08763 142.69654 A 3.5 2.613 129.98975 0 1 787.58618 137.33343 A 3.5 2.613 129.98975 0 1 788.34808 139.12837 Z" />
    <path d="M 788.34808 95.73993 A 3.5 2.613 129.98975 0 1 783.08763 99.30811 A 3.5 2.613 129.98975 0 1 787.58618 93.94499 A 3.5 2.613 129.98975 0 1 788.34808 95.73993 Z" />
    <path d="M 788.34808 52.3515 A 3.5 2.613 129.98975 0 1 783.08763 55.91967 A 3.5 2.613 129.98975 0 1 787.58618 50.55656 A 3.5 2.613 129.98975 0 1 788.34808 52.3515 Z" />
    <path d="M 788.34808 8.96306 A 3.5 2.613 129.98975 0 1 783.08763 12.53124 A 3.5 2.613 129.98975 0 1 787.58618 7.16812 A 3.5 2.613 129.98975 0 1 788.34808 8.96306 Z" />
    <path d="M 788.34808 -34.42537 A 3.5 2.613 129.98975 0 1 783.08763 -30.8572 A 3.5 2.613 129.98975 0 1 787.58618 -36.22031 A 3.5 2.613 129.98975 0 1 788.34808 -34.42537 Z" />
    <path d="M 788.34808 -77.81381 A 3.5 2.613 129.98975 0 1 783.08763 -74.24563 A 3.5 2.613 129.98975 0 1 787.58618 -79.60875 A 3.5 2.613 129.98975 0 1 788.34808 -77.81381 Z" />
    <path d="M 788.34808 -121.20224 A 3.5 2.613 129.98975 0 1 783.08763 -117.63407 A 3.5 2.613 129.98975 1 1 787.58618 -122.99718 A 3.5 2.613 129.98975 0 1 788.34808 -121.20224 Z" />
    <path d="M 788.34808 -164.59068 A 3.5 2.613 129.98975 0 1 783.08763 -161.0225 A 3.5 2.613 129.98975 0 1 787.58618 -166.38562 A 3.5 2.613 129.98975 0 1 788.34808 -164.59068 Z" />
    <path d="M 788.34808 -207.97911 A 3.5 2.613 129.98975 0 1 783.08763 -204.41094 A 3.5 2.613 129.98975 0 1 787.58618 -209.77405 A 3.5 2.613 129.98975 0 1 788.34808 -207.97911 Z" />
    <path d="M 770.73531 -314.02163 A 3.5 2.613 129.98975 0 1 775.92995 -318.2019 A 3.5 2.613 129.98975 0 1 771.4314 -312.83878 A 3.5 2.613 129.98975 0 1 770.73531 -314.02163 Z" />
    <path d="M 781.21413 -244.46438 A 3.5 2.613 129.98975 0 1 786.28683 -246.92161 A 3.5 2.613 129.98975 0 1 786.86098 -246.12706" />
    <path d="M 777.16396 -279.14077 A 3.5 2.613 129.98975 0 1 782.3951 -283.12301 A 3.5 2.613 129.98975 0 1 777.89655 -277.7599 A 3.5 2.613 129.98975 0 1 777.16396 -279.14077 Z" />
    <path d="M 761.77909 -347.61636 A 3.5 2.613 129.98975 0 1 765.74277 -352.4599" />
    <path d="M 767.34669 -348.69459 A 3.5 2.613 129.98975 0 1 762.42434 -346.62424 A 3.5 2.613 129.98975 0 1 761.77909 -347.61636" />
    <path d="M 750.33894 -379.76131 A 3.5 2.613 129.98975 0 1 750.90018 -382.96282" />
    <path d="M 753.22923 -378.61455 A 3.5 2.613 129.98975 0 1 750.91923 -378.95168 A 3.5 2.613 129.98975 0 1 750.33894 -379.76131" />
    <path d="M 879.65937 -689.74973 A 250 186.64281 309.98975 0 0 853.63308 -707.034" />
    <path d="M 794.50726 -723.57665 A 250 186.64281 309.98975 0 0 718.99674 -715.15205" />
    <path d="M 761.0586 -238.52972 A 600 447.94276 309.98975 0 0 652.88893 -495.18345" />
    <path d="M 762.01346 496.08982 L 762.01346 355.38371" />
    <path d="M 762.01346 271.07563 L 762.01346 -207.15681" />
    <path d="M -528.48813 -130.89634 L -528.48813 1214.14515 L -522.37137 1219.27585 L -490.00351 1209.74536" />
    <path d="M -528.06371 -144.64322 L -528.48813 -130.89634 L -522.37137 -125.76564 L -522.37137 1219.27585" />
    <path d="M -313.40453 -411.16844 A 250 186.64281 309.98975 0 0 -528.06371 -144.64322 L -521.94695 -139.51252 L -522.37137 -125.76564" />
    <path d="M -521.94695 -139.51252 A 250 186.64281 129.98975 0 1 -307.28777 -406.03773" />
    <path d="M 762.01346 -41.08119 L 646.23802 -138.19303" />
    <path d="M 517.18786 -89.78185 L 762.01346 115.57658" />
    <path d="M 517.18786 -89.78185 L 517.18786 -100.19507 L 646.23802 -138.19303" />
    <path d="M 517.18786 -100.19507 L 762.01346 105.16336" />
    <path d="M 761.95934 -214.68033 L 761.08063 -215.41739" />
    <path d="M 740.67995 -232.52937 L 646.23802 -311.74677" />
    <path d="M 517.18786 -263.33559 L 602.44088 -191.8258" />
    <path d="M 622.84156 -174.71382 L 762.01346 -57.97716" />
    <path d="M 517.18786 -263.33559 L 517.18786 -273.74881 L 646.23802 -311.74677" />
    <path d="M 517.18786 -273.74881 L 611.62979 -194.53142" />
    <path d="M 632.03047 -177.41943 L 762.01346 -68.39038" />
    <path d="M 694.33701 -444.95533 L 646.23802 -485.30051" />
    <path d="M 517.18786 -436.88933 L 755.58941 -236.91936" />
    <path d="M 517.18786 -436.88933 L 517.18786 -447.30256 L 646.23802 -485.30051" />
    <path d="M 517.18786 -447.30256 L 760.76407 -242.99211" />
    <path d="M -773.31372 279.78444 L -644.26357 241.78649" />
    <path d="M -773.31372 279.78444 L -528.48813 485.14287" />
    <path d="M -528.48813 338.89832 L -644.26357 241.78649" />
    <path d="M -773.31372 290.19766 L -773.31372 279.78444" />
    <path d="M -773.31372 290.19766 L -528.48813 495.55609" />
    <path d="M -773.31372 106.2307 L -644.26357 68.23275" />
    <path d="M -773.31372 106.2307 L -528.48813 311.58913" />
    <path d="M -528.48813 165.34458 L -644.26357 68.23275" />
    <path d="M -773.31372 116.64392 L -773.31372 106.2307" />
    <path d="M -773.31372 116.64392 L -528.48813 322.00235" />
    <path d="M -773.31372 -67.32304 L -644.26357 -105.32099" />
    <path d="M -773.31372 -67.32304 L -528.48813 138.03539" />
    <path d="M -528.48813 -8.20916 L -644.26357 -105.32099" />
    <path d="M -773.31372 -56.90982 L -773.31372 -67.32304" />
    <path d="M -773.31372 -56.90982 L -528.48813 148.44861" />
    <path d="M -773.31372 -240.87678 L -644.26357 -278.87473" />
    <path d="M -773.31372 -240.87678 L -528.48813 -35.51835" />
    <path d="M -523.71372 -177.75816 L -644.26357 -278.87473" />
    <path d="M -773.31372 -230.46356 L -773.31372 -240.87678" />
    <path d="M -773.31372 -230.46356 L -528.48813 -25.10513" />
    <path d="M 452.66278 -938.55158 L 160.57926 -852.54955 L 154.4625 -857.68025 A 57.5 42.92785 309.98975 0 0 155.55178 -847.58776 A 57.5 42.92785 309.98975 0 0 166.97932 -828.19197 L 173.09608 -823.06126 A 57.5 42.92785 309.98975 0 0 194.85823 -815.15664" />
    <path d="M 160.57926 -852.54955 A 57.5 42.92785 309.98975 0 0 173.09608 -823.06126" />
    <path d="M 495.6795 -430.55634 A 600 447.94276 309.98975 0 0 475.09869 -570.04897" />
    <path d="M 447.86822 -635.32008 A 600 447.94276 309.98975 0 0 365.06919 -738.2602 A 600 447.94276 309.98975 0 0 194.85823 -815.15664" />
    <path d="M 495.6795 610.7661 L 495.6795 433.80395" />
    <path d="M 495.6795 47.6761 L 495.6795 -137.27181" />
    <path d="M 495.6795 -160.39063 L 495.6795 -430.55634 L 489.56274 -435.68705 A 600 447.94276 309.98975 0 0 465.25737 -586.41474" />
    <path d="M 556.75427 592.78305 L 495.6795 610.7661 L 489.56274 605.6354 L 489.56274 435.60499" />
    <path d="M 667.74638 -784.93932 L 667.74638 -700.06172" />
    <path d="M 667.74638 -479.35074 L 667.74638 -467.25941" />
    <path d="M 667.74638 -310.60163 L 667.74638 -293.70567" />
    <path d="M 667.74638 -137.04789 L 667.74638 -120.15193" />
    <path d="M 667.74638 36.50585 L 667.74638 192.00489" />
    <path d="M 667.74638 383.14002 L 667.74638 512.63779" />
    <path d="M 667.32196 -798.43626 L 667.74638 -784.93932" />
    <path d="M 452.66278 -938.55158 A 250 186.64281 129.98975 0 1 528.1733 -946.97618" />
    <path d="M 587.29912 -930.43353 A 250 186.64281 129.98975 0 1 613.32542 -913.14926 A 250 186.64281 129.98975 0 1 634.87461 -890.52746" />
    <path d="M 661.45284 -835.182 A 250 186.64281 129.98975 0 1 667.32196 -798.43626" />
    <path d="M 515.89736 -46.01343 A 3.5 2.613 129.98975 0 1 510.63691 -42.44526 A 3.5 2.613 129.98975 0 1 515.13547 -47.80837 A 3.5 2.613 129.98975 0 1 515.89736 -46.01343 Z" />
    <path d="M 515.89736 -89.40187 A 3.5 2.613 129.98975 0 1 510.63691 -85.83369 A 3.5 2.613 129.98975 0 1 515.13547 -91.19681 A 3.5 2.613 129.98975 0 1 515.89736 -89.40187 Z" />
    <path d="M 515.89736 -132.79031 A 3.5 2.613 129.98975 0 1 510.63691 -129.22213 A 3.5 2.613 129.98975 0 1 515.13547 -134.58524 A 3.5 2.613 129.98975 0 1 515.89736 -132.79031 Z" />
    <path d="M 515.89736 -176.17874 A 3.5 2.613 129.98975 0 1 510.63691 -172.61056 A 3.5 2.613 129.98975 0 1 515.13547 -177.97368 A 3.5 2.613 129.98975 0 1 515.89736 -176.17874 Z" />
    <path d="M 515.89736 -219.56718 A 3.5 2.613 129.98975 0 1 510.63691 -215.999 A 3.5 2.613 129.98975 0 1 515.13547 -221.36211 A 3.5 2.613 129.98975 0 1 515.89736 -219.56718 Z" />
    <path d="M 515.89736 -262.95561 A 3.5 2.613 129.98975 0 1 510.63691 -259.38743 A 3.5 2.613 129.98975 0 1 515.13547 -264.75055 A 3.5 2.613 129.98975 0 1 515.89736 -262.95561 Z" />
    <path d="M 515.89736 -306.34405 A 3.5 2.613 129.98975 0 1 510.63691 -302.77587 A 3.5 2.613 129.98975 0 1 515.13547 -308.13899 A 3.5 2.613 129.98975 0 1 515.89736 -306.34405 Z" />
    <path d="M 515.89736 -349.73248 A 3.5 2.613 129.98975 0 1 510.63691 -346.1643 A 3.5 2.613 129.98975 1 1 515.13547 -351.52742 A 3.5 2.613 129.98975 0 1 515.89736 -349.73248 Z" />
    <path d="M 515.89736 -393.12092 A 3.5 2.613 129.98975 0 1 510.63691 -389.55274 A 3.5 2.613 129.98975 0 1 515.13547 -394.91586 A 3.5 2.613 129.98975 0 1 515.89736 -393.12092 Z" />
    <path d="M 515.89736 -436.50935 A 3.5 2.613 129.98975 0 1 510.63691 -432.94117 A 3.5 2.613 129.98975 0 1 515.13547 -438.30429 A 3.5 2.613 129.98975 0 1 515.89736 -436.50935 Z" />
    <path d="M 463.75955 -639.99917 A 3.5 2.613 129.98975 0 1 469.01998 -643.55696 A 3.5 2.613 129.98975 0 1 469.78186 -641.7724" />
    <path d="M 306.02334 -796.28288 A 3.5 2.613 129.98975 0 1 305.62793 -796.54052 A 3.5 2.613 129.98975 1 1 310.12648 -801.90364 A 3.5 2.613 129.98975 0 1 306.02334 -796.28288 Z" />
    <path d="M 334.38317 -780.63089 A 3.5 2.613 129.98975 0 1 334.14876 -780.79967 A 3.5 2.613 129.98975 0 1 338.64731 -786.16279 A 3.5 2.613 129.98975 0 1 334.38317 -780.63089 Z" />
    <path d="M 361.01393 -762.53289 A 3.5 2.613 129.98975 0 1 360.93071 -762.59892 A 3.5 2.613 129.98975 1 1 365.42926 -767.96204 A 3.5 2.613 129.98975 0 1 361.01393 -762.53289 Z" />
    <path d="M 385.78589 -742.07704 A 3.5 2.613 129.98975 0 1 390.34186 -747.39005 A 3.5 2.613 129.98975 1 1 385.84331 -742.02694 A 3.5 2.613 129.98975 0 1 385.78589 -742.07704 Z" />
    <path d="M 408.57837 -719.363 A 3.5 2.613 129.98975 0 1 413.26373 -724.54706 A 3.5 2.613 129.98975 1 1 408.76518 -719.18395 A 3.5 2.613 129.98975 0 1 408.57837 -719.363 Z" />
    <path d="M 429.28031 -694.50144 A 3.5 2.613 129.98975 0 1 434.08321 -699.54436 A 3.5 2.613 129.98975 1 1 429.58465 -694.18124 A 3.5 2.613 129.98975 0 1 429.28031 -694.50144 Z" />
    <path d="M 447.79087 -667.61347 A 3.5 2.613 129.98975 0 1 452.69886 -672.50374 A 3.5 2.613 129.98975 1 1 448.2003 -667.14063 A 3.5 2.613 129.98975 0 1 447.79087 -667.61347 Z" />
    <path d="M 508.583 -471.67396 A 3.5 2.613 129.98975 0 1 513.83611 -475.45185 A 3.5 2.613 129.98975 0 1 509.33756 -470.08873 A 3.5 2.613 129.98975 0 1 508.583 -471.67396 Z" />
    <path d="M 504.71324 -507.67101 A 3.5 2.613 129.98975 0 1 509.94438 -511.65325 A 3.5 2.613 129.98975 0 1 505.44583 -506.29013 A 3.5 2.613 129.98975 0 1 504.71324 -507.67101 Z" />
    <path d="M 498.28459 -542.55186 A 3.5 2.613 129.98975 0 1 503.47924 -546.73213 A 3.5 2.613 129.98975 0 1 498.98068 -541.36902 A 3.5 2.613 129.98975 0 1 498.28459 -542.55186 Z" />
    <path d="M -287.65496 -720.57 L -482.25765 -663.27055" />
    <path d="M -511.42343 -654.68288 L -579.73849 -634.56797" />
    <path d="M -287.65496 -720.57 A 57.5 42.92785 129.98975 0 1 -321.93394 -662.99066" />
    <path d="M -622.75521 -101.24076 A 600 447.94276 129.98975 0 1 -622.74706 -104.16902" />
    <path d="M -604.15347 -245.23059 A 600 447.94276 129.98975 0 1 -418.22569 -576.5091" />
    <path d="M -400.49466 -594.68818 A 600 447.94276 129.98975 0 1 -321.93394 -662.99066" />
    <path d="M -622.75521 940.08168 L -622.75521 416.48536" />
    <path d="M -622.75521 259.82759 L -622.75521 242.93162" />
    <path d="M -622.75521 86.27385 L -622.75521 69.37788" />
    <path d="M -622.75521 -87.27989 L -622.75521 -101.24076" />
    <path d="M -794.82208 990.74562 L -622.75521 940.08168" />
    <path d="M -794.82208 -354.29587 L -794.82208 990.74562" />
    <path d="M -794.39767 -368.04275 L -794.82208 -354.29587" />
    <path d="M -794.39767 -368.04275 A 250 186.64281 129.98975 0 1 -579.73849 -634.56797" />
    <path d="M -591.09557 -328.15846 A 3.5 2.613 129.98975 0 1 -596.09569 -325.90227 A 3.5 2.613 129.98975 0 1 -591.59713 -331.26538 A 3.5 2.613 129.98975 0 1 -591.09557 -328.15846 Z" />
    <path d="M -433.09905 -578.65327 A 3.5 2.613 129.98975 0 1 -437.20219 -577.81919 A 3.5 2.613 129.98975 0 1 -432.70363 -583.18231 A 3.5 2.613 129.98975 0 1 -433.09905 -578.65327 Z" />
    <path d="M -461.45887 -546.30056 A 3.5 2.613 129.98975 0 1 -465.72301 -545.28281 A 3.5 2.613 129.98975 0 1 -461.22446 -550.64593 A 3.5 2.613 129.98975 0 1 -461.45887 -546.30056 Z" />
    <path d="M -488.08963 -512.52006 A 3.5 2.613 129.98975 0 1 -492.50497 -511.31053 A 3.5 2.613 129.98975 0 1 -488.00641 -516.67364 A 3.5 2.613 129.98975 0 1 -488.08963 -512.52006 Z" />
    <path d="M -512.8616 -477.47633 A 3.5 2.613 129.98975 0 1 -517.41756 -476.06785 A 3.5 2.613 129.98975 1 1 -512.91901 -481.43097 A 3.5 2.613 129.98975 0 1 -512.8616 -477.47633 Z" />
    <path d="M -535.65407 -441.34011 A 3.5 2.613 129.98975 0 1 -540.33944 -439.72648 A 3.5 2.613 129.98975 0 1 -535.84088 -445.08959 A 3.5 2.613 129.98975 0 1 -535.65407 -441.34011 Z" />
    <path d="M -556.35602 -404.28745 A 3.5 2.613 129.98975 0 1 -561.15891 -402.46346 A 3.5 2.613 129.98975 0 1 -556.66036 -407.82658 A 3.5 2.613 129.98975 0 1 -556.35602 -404.28745 Z" />
    <path d="M -574.86658 -366.49886 A 3.5 2.613 129.98975 0 1 -579.77456 -364.46034 A 3.5 2.613 129.98975 0 1 -575.27601 -369.82346 A 3.5 2.613 129.98975 0 1 -574.86658 -366.49886 Z" />
    <path d="M -604.96392 -289.45302 A 3.5 2.613 129.98975 0 1 -610.04277 -286.97709 A 3.5 2.613 129.98975 0 1 -605.54422 -292.34021 A 3.5 2.613 129.98975 0 1 -604.96392 -289.45302 Z" />
    <path d="M -596.71475 -673.18166 L -564.34689 -646.03167" />
    <path d="M -585.85525 -639.69867 L -564.34689 -646.03167" />
    <path d="M -585.85525 -639.69867 L -579.73849 -634.56797" />
    <path d="M -293.77172 -725.7007 L -287.65496 -720.57" />
    <path d="M -293.77172 -725.7007 L 154.4625 -857.68025" />
    <path d="M 452.66278 -938.55158 L 446.54602 -943.68228" />
    <path d="M 425.03766 -937.34929 L 446.54602 -943.68228" />
    <path d="M 425.03766 -937.34929 L 392.6698 -964.49928" />
    <path d="M 414.17816 -970.83227 L 392.6698 -964.49928" />
    <path d="M 414.17816 -970.83227 L 408.0614 -975.96298" />
    <path d="M 115.97788 -889.96095 L 408.0614 -975.96298" />
    <path d="M 122.09464 -884.83025 L 115.97788 -889.96095 A 57.5 42.92785 309.98975 0 0 116.45756 -883.17045" />
    <path d="M 122.09464 -884.83025 L -326.13958 -752.85069" />
    <path d="M -332.25634 -757.9814 L -326.13958 -752.85069" />
    <path d="M -624.33987 -671.97937 L -556.02481 -692.09428" />
    <path d="M -526.85903 -700.68195 L -332.25634 -757.9814" />
    <path d="M -624.33987 -671.97937 L -618.22311 -666.84866" />
    <path d="M -596.71475 -673.18166 L -618.22311 -666.84866" />
    <path d="M 444.87404 -634.43846 A 600 447.94276 309.98975 0 0 361.9955 -740.8073" />
    <path d="M 489.56274 42.54539 L 489.56274 -135.47077" />
    <path d="M 489.56274 -158.58959 L 489.56274 -435.68705" />
    <path d="M 607.20865 -918.27997 A 250 186.64281 309.98975 0 0 581.18236 -935.56424" />
    <path d="M 522.05654 -952.10689 A 250 186.64281 309.98975 0 0 446.54602 -943.68228" />
    <path d="M -800.93885 985.61491 L -794.82208 990.74562" />
    <path d="M -800.93885 -359.42658 L -800.93885 985.61491" />
    <path d="M -800.93885 -359.42658 L -794.82208 -354.29587" />
    <path d="M -800.51443 -373.17346 L -800.93885 -359.42658" />
    <path d="M -800.51443 -373.17346 L -794.39767 -368.04275" />
    <path d="M -585.85525 -639.69867 A 250 186.64281 309.98975 0 0 -800.51443 -373.17346" />
    <path d="M -596.71475 -662.76843 L -596.71475 -673.18166" />
    <path d="M -596.71475 -662.76843 L -573.5358 -643.32605" />
    <path d="M -287.77553 -717.05302 L 155.55178 -847.58776" />
    <path d="M 414.17816 -970.83227 A 250 186.64281 129.98975 0 1 489.68868 -979.25688" />
    <path d="M 548.8145 -962.71423 A 250 186.64281 129.98975 0 1 574.8408 -945.42996 A 250 186.64281 129.98975 0 1 589.99246 -930.62432" />
    <path d="M 155.57864 -847.46949 A 57.5 42.92785 129.98975 0 1 155.21686 -847.48915" />
    <path d="M 457.19488 -462.83704 A 600 447.94276 309.98975 0 0 443.01355 -579.86519" />
    <path d="M 427.08239 -629.19983 A 600 447.94276 309.98975 0 0 345.22032 -753.67742" />
    <path d="M 457.19488 578.48541 L 457.19488 445.13549" />
    <path d="M 457.19488 15.3954 L 457.19488 -125.94027" />
    <path d="M 457.19488 -149.0591 L 457.19488 -462.83704 L 451.07812 -467.96774 A 600 447.94276 309.98975 0 0 438.49221 -578.53392" />
    <path d="M 489.56274 568.95491 L 457.19488 578.48541 L 451.07812 573.3547 L 451.07812 446.93653" />
    <path d="M 477.41274 -78.29413 A 3.5 2.613 129.98975 0 1 472.15229 -74.72596 A 3.5 2.613 129.98975 0 1 476.65085 -80.08907 A 3.5 2.613 129.98975 0 1 477.41274 -78.29413 Z" />
    <path d="M 477.41274 -121.68257 A 3.5 2.613 129.98975 0 1 472.15229 -118.11439 A 3.5 2.613 129.98975 0 1 476.65085 -123.47751 A 3.5 2.613 129.98975 0 1 477.41274 -121.68257 Z" />
    <path d="M 477.41274 -165.071 A 3.5 2.613 129.98975 0 1 472.15229 -161.50283 A 3.5 2.613 129.98975 0 1 476.65085 -166.86594 A 3.5 2.613 129.98975 0 1 477.41274 -165.071 Z" />
    <path d="M 477.41274 -208.45944 A 3.5 2.613 129.98975 0 1 472.15229 -204.89126 A 3.5 2.613 129.98975 0 1 476.65085 -210.25438 A 3.5 2.613 129.98975 0 1 477.41274 -208.45944 Z" />
    <path d="M 477.41274 -251.84787 A 3.5 2.613 129.98975 0 1 472.15229 -248.2797 A 3.5 2.613 129.98975 0 1 476.65085 -253.64281 A 3.5 2.613 129.98975 0 1 477.41274 -251.84787 Z" />
    <path d="M 477.41274 -295.23631 A 3.5 2.613 129.98975 0 1 472.15229 -291.66813 A 3.5 2.613 129.98975 0 1 476.65085 -297.03125 A 3.5 2.613 129.98975 0 1 477.41274 -295.23631 Z" />
    <path d="M 477.41274 -338.62474 A 3.5 2.613 129.98975 0 1 472.15229 -335.05657 A 3.5 2.613 129.98975 0 1 476.65085 -340.41968 A 3.5 2.613 129.98975 0 1 477.41274 -338.62474 Z" />
    <path d="M 477.41274 -382.01318 A 3.5 2.613 129.98975 0 1 472.15229 -378.445 A 3.5 2.613 129.98975 1 1 476.65085 -383.80812 A 3.5 2.613 129.98975 0 1 477.41274 -382.01318 Z" />
    <path d="M 477.41274 -425.40161 A 3.5 2.613 129.98975 0 1 472.15229 -421.83344 A 3.5 2.613 129.98975 0 1 476.65085 -427.19655 A 3.5 2.613 129.98975 0 1 477.41274 -425.40161 Z" />
    <path d="M 477.41274 -468.79005 A 3.5 2.613 129.98975 0 1 472.15229 -465.22187 A 3.5 2.613 129.98975 0 1 476.65085 -470.58499 A 3.5 2.613 129.98975 0 1 477.41274 -468.79005 Z" />
    <path d="M 459.79997 -574.83256 A 3.5 2.613 129.98975 0 1 464.99462 -579.01283 A 3.5 2.613 129.98975 0 1 460.49606 -573.64971 A 3.5 2.613 129.98975 0 1 459.79997 -574.83256 Z" />
    <path d="M 470.09838 -503.95466 A 3.5 2.613 129.98975 0 1 475.35149 -507.73254 A 3.5 2.613 129.98975 0 1 470.85294 -502.36943 A 3.5 2.613 129.98975 0 1 470.09838 -503.95466 Z" />
    <path d="M 466.22862 -539.9517 A 3.5 2.613 129.98975 0 1 471.45976 -543.93395 A 3.5 2.613 129.98975 0 1 466.96121 -538.57083 A 3.5 2.613 129.98975 0 1 466.22862 -539.9517 Z" />
    <path d="M 439.4036 -640.57225 A 3.5 2.613 129.98975 0 1 439.96484 -643.77376" />
    <path d="M 442.2939 -639.42548 A 3.5 2.613 129.98975 0 1 439.9839 -639.76262 A 3.5 2.613 129.98975 0 1 439.4036 -640.57225" />
    <path d="M 568.72404 -950.56067 A 250 186.64281 309.98975 0 0 542.69774 -967.84493" />
    <path d="M 483.57192 -984.38758 A 250 186.64281 309.98975 0 0 408.0614 -975.96298" />
    <path d="M 425.66099 -621.84956 A 600 447.94276 309.98975 0 0 341.95359 -755.99438" />
    <path d="M 451.07812 10.26469 L 451.07812 -124.13923" />
    <path d="M 451.07812 -147.25806 L 451.07812 -467.96774" />
    <path d="M -839.42346 -391.70728 L -839.42346 953.33421 L -833.3067 958.46492 L -800.93885 948.93442" />
    <path d="M -838.99905 -405.45416 L -839.42346 -391.70728 L -833.3067 -386.57657 L -833.3067 958.46492" />
    <path d="M -624.33987 -671.97937 A 250 186.64281 309.98975 0 0 -838.99905 -405.45416 L -832.88229 -400.32345 L -833.3067 -386.57657" />
    <path d="M -832.88229 -400.32345 A 250 186.64281 129.98975 0 1 -618.22311 -666.84866" />
    <path d="M 451.07812 -301.89213 L 335.30268 -399.00396" />
    <path d="M 206.25252 -350.59278 L 449.29235 -146.73225" />
    <path d="M 206.25252 -350.59278 L 206.25252 -361.00601 L 335.30268 -399.00396" />
    <path d="M 206.25252 -361.00601 L 451.07812 -155.64758" />
    <path d="M 451.024 -475.49127 L 356.8403 -554.49206" />
    <path d="M 218.60123 -513.7885 L 451.07812 -318.78809" />
    <path d="M 227.79014 -516.49411 L 451.07812 -329.20132" />
    <path d="M 383.40167 -705.76626 L 335.30268 -746.11144" />
    <path d="M 206.25252 -697.70026 L 330.19299 -593.73965" />
    <path d="M 371.74976 -558.88205 L 450.48026 -492.84332" />
    <path d="M 206.25252 -697.70026 L 206.25252 -708.11349 L 335.30268 -746.11144" />
    <path d="M 206.25252 -708.11349 L 339.3819 -596.44527" />
    <path d="M 380.93867 -561.58766 L 449.82873 -503.80304" />
    <path d="M -1084.24906 18.9735 L -955.1989 -19.02445" />
    <path d="M -1084.24906 18.9735 L -839.42346 224.33193" />
    <path d="M -839.42346 78.08739 L -955.1989 -19.02445" />
    <path d="M -1084.24906 29.38673 L -1084.24906 18.9735" />
    <path d="M -1084.24906 29.38673 L -839.42346 234.74516" />
    <path d="M -1084.24906 -154.58024 L -955.1989 -192.57819" />
    <path d="M -1084.24906 -154.58024 L -839.42346 50.77819" />
    <path d="M -839.42346 -95.46636 L -955.1989 -192.57819" />
    <path d="M -1084.24906 -144.16701 L -1084.24906 -154.58024" />
    <path d="M -1084.24906 -144.16701 L -839.42346 61.19142" />
    <path d="M -1084.24906 -328.13398 L -955.1989 -366.13193" />
    <path d="M -1084.24906 -328.13398 L -839.42346 -122.77555" />
    <path d="M -839.42346 -269.0201 L -955.1989 -366.13193" />
    <path d="M -1084.24906 -317.72075 L -1084.24906 -328.13398" />
    <path d="M -1084.24906 -317.72075 L -839.42346 -112.36232" />
    <path d="M -1084.24906 -501.68772 L -955.1989 -539.68567" />
    <path d="M -1084.24906 -501.68772 L -839.42346 -296.32929" />
    <path d="M -834.64906 -438.56909 L -955.1989 -539.68567" />
    <path d="M -1084.24906 -491.27449 L -1084.24906 -501.68772" />
    <path d="M -1084.24906 -491.27449 L -839.42346 -285.91606" />
    <path d="M 141.72745 -1199.36251 L -150.35608 -1113.36048 L -156.47284 -1118.49119 A 57.5 42.92785 309.98975 0 0 -155.38356 -1108.3987 A 57.5 42.92785 309.98975 0 0 -143.95602 -1089.0029 L -137.83926 -1083.87219 A 57.5 42.92785 309.98975 0 0 -116.0771 -1075.96757" />
    <path d="M -150.35608 -1113.36048 A 57.5 42.92785 309.98975 0 0 -137.83926 -1083.87219" />
    <path d="M 184.74416 -691.36727 A 600 447.94276 309.98975 0 0 164.16335 -830.8599" />
    <path d="M 136.93289 -896.13101 A 600 447.94276 309.98975 0 0 54.13385 -999.07113 A 600 447.94276 309.98975 0 0 -116.0771 -1075.96757" />
    <path d="M 184.74416 -213.13484 L 184.74416 -503.81951" />
    <path d="M 184.74416 -550.91322 L 184.74416 -691.36727 L 178.6274 -696.49798 A 600 447.94276 309.98975 0 0 154.32203 -847.22567" />
    <path d="M 356.81104 -1045.75025 L 356.81104 -960.87266" />
    <path d="M 356.81104 -740.16167 L 356.81104 -728.07034" />
    <path d="M 356.81104 -397.85883 L 356.81104 -380.96286" />
    <path d="M 356.81104 -224.30509 L 356.81104 -119.69516" />
    <path d="M 356.81104 -97.27121 L 356.81104 -68.80604" />
    <path d="M 356.38662 -1059.2472 L 356.81104 -1045.75025" />
    <path d="M 141.72745 -1199.36251 A 250 186.64281 129.98975 0 1 198.40933 -1208.38322" />
    <path d="M 276.36378 -1191.24446 A 250 186.64281 129.98975 0 1 302.39008 -1173.9602 A 250 186.64281 129.98975 0 1 323.93927 -1151.33839" />
    <path d="M 350.5175 -1095.99293 A 250 186.64281 129.98975 0 1 356.38662 -1059.2472" />
    <path d="M 204.96202 -306.82437 A 3.5 2.613 129.98975 0 1 199.70158 -303.25619 A 3.5 2.613 129.98975 0 1 204.20013 -308.61931 A 3.5 2.613 129.98975 0 1 204.96202 -306.82437 Z" />
    <path d="M 204.96202 -350.2128 A 3.5 2.613 129.98975 0 1 199.70158 -346.64463 A 3.5 2.613 129.98975 0 1 204.20013 -352.00774 A 3.5 2.613 129.98975 0 1 204.96202 -350.2128 Z" />
    <path d="M 204.96202 -393.60124 A 3.5 2.613 129.98975 0 1 199.70158 -390.03306 A 3.5 2.613 129.98975 0 1 204.20013 -395.39618 A 3.5 2.613 129.98975 0 1 204.96202 -393.60124 Z" />
    <path d="M 204.96202 -436.98967 A 3.5 2.613 129.98975 0 1 199.70158 -433.4215 A 3.5 2.613 129.98975 0 1 204.20013 -438.78461 A 3.5 2.613 129.98975 0 1 204.96202 -436.98967 Z" />
    <path d="M 204.96202 -480.37811 A 3.5 2.613 129.98975 0 1 199.70158 -476.80993 A 3.5 2.613 129.98975 0 1 204.20013 -482.17305 A 3.5 2.613 129.98975 0 1 204.96202 -480.37811 Z" />
    <path d="M 204.96202 -567.15498 A 3.5 2.613 129.98975 0 1 199.70158 -563.5868 A 3.5 2.613 129.98975 0 1 204.20013 -568.94992 A 3.5 2.613 129.98975 0 1 204.96202 -567.15498 Z" />
    <path d="M 204.96202 -610.54342 A 3.5 2.613 129.98975 0 1 199.70158 -606.97524 A 3.5 2.613 129.98975 1 1 204.20013 -612.33835 A 3.5 2.613 129.98975 0 1 204.96202 -610.54342 Z" />
    <path d="M 204.96202 -653.93185 A 3.5 2.613 129.98975 0 1 199.70158 -650.36367 A 3.5 2.613 129.98975 0 1 204.20013 -655.72679 A 3.5 2.613 129.98975 0 1 204.96202 -653.93185 Z" />
    <path d="M 204.96202 -697.32029 A 3.5 2.613 129.98975 0 1 199.70158 -693.75211 A 3.5 2.613 129.98975 0 1 204.20013 -699.11522 A 3.5 2.613 129.98975 0 1 204.96202 -697.32029 Z" />
    <path d="M 152.82421 -900.81011 A 3.5 2.613 129.98975 0 1 158.08464 -904.36789 A 3.5 2.613 129.98975 0 1 158.84652 -902.58334" />
    <path d="M -4.91199 -1057.09382 A 3.5 2.613 129.98975 0 1 -5.30741 -1057.35146 A 3.5 2.613 129.98975 1 1 -0.80885 -1062.71457 A 3.5 2.613 129.98975 0 1 -4.91199 -1057.09382 Z" />
    <path d="M 23.44783 -1041.44183 A 3.5 2.613 129.98975 0 1 23.21342 -1041.61061 A 3.5 2.613 129.98975 0 1 27.71197 -1046.97372 A 3.5 2.613 129.98975 0 1 23.44783 -1041.44183 Z" />
    <path d="M 50.07859 -1023.34382 A 3.5 2.613 129.98975 0 1 49.99537 -1023.40985 A 3.5 2.613 129.98975 1 1 54.49392 -1028.77297 A 3.5 2.613 129.98975 0 1 50.07859 -1023.34382 Z" />
    <path d="M 74.85055 -1002.88797 A 3.5 2.613 129.98975 0 1 79.40652 -1008.20099 A 3.5 2.613 129.98975 1 1 74.90797 -1002.83787 A 3.5 2.613 129.98975 0 1 74.85055 -1002.88797 Z" />
    <path d="M 97.64303 -980.17393 A 3.5 2.613 129.98975 0 1 102.3284 -985.358 A 3.5 2.613 129.98975 1 1 97.82984 -979.99488 A 3.5 2.613 129.98975 0 1 97.64303 -980.17393 Z" />
    <path d="M 118.34498 -955.31237 A 3.5 2.613 129.98975 0 1 123.14787 -960.35529 A 3.5 2.613 129.98975 1 1 118.64932 -954.99217 A 3.5 2.613 129.98975 0 1 118.34498 -955.31237 Z" />
    <path d="M 136.85554 -928.42441 A 3.5 2.613 129.98975 0 1 141.76352 -933.31468 A 3.5 2.613 129.98975 1 1 137.26496 -927.95156 A 3.5 2.613 129.98975 0 1 136.85554 -928.42441 Z" />
    <path d="M 197.64766 -732.4849 A 3.5 2.613 129.98975 0 1 202.90078 -736.26278 A 3.5 2.613 129.98975 0 1 198.40222 -730.89966 A 3.5 2.613 129.98975 0 1 197.64766 -732.4849 Z" />
    <path d="M 193.7779 -768.48194 A 3.5 2.613 129.98975 0 1 199.00905 -772.46418 A 3.5 2.613 129.98975 0 1 194.51049 -767.10107 A 3.5 2.613 129.98975 0 1 193.7779 -768.48194 Z" />
    <path d="M 187.34925 -803.3628 A 3.5 2.613 129.98975 0 1 192.5439 -807.54307 A 3.5 2.613 129.98975 0 1 188.04535 -802.17995 A 3.5 2.613 129.98975 0 1 187.34925 -803.3628 Z" />
    <path d="M -598.5903 -981.38093 L -780.45312 -927.83265" />
    <path d="M -805.85321 -920.35376 L -890.67382 -895.3789" />
    <path d="M -598.5903 -981.38093 A 57.5 42.92785 129.98975 0 1 -632.86927 -923.80159" />
    <path d="M -933.69054 -362.0517 A 600 447.94276 129.98975 0 1 -933.68239 -364.97996" />
    <path d="M -915.0888 -506.04153 A 600 447.94276 129.98975 0 1 -729.16103 -837.32003" />
    <path d="M -711.42999 -855.49911 A 600 447.94276 129.98975 0 1 -632.86927 -923.80159" />
    <path d="M -933.69054 679.27075 L -933.69054 155.67443" />
    <path d="M -933.69054 -0.98335 L -933.69054 -17.87931" />
    <path d="M -933.69054 -174.53709 L -933.69054 -191.43305" />
    <path d="M -933.69054 -348.09083 L -933.69054 -362.0517" />
    <path d="M -1105.75742 729.93468 L -933.69054 679.27075" />
    <path d="M -1105.75742 -615.10681 L -1105.75742 729.93468" />
    <path d="M -1105.333 -628.85369 L -1105.75742 -615.10681" />
    <path d="M -1105.333 -628.85369 A 250 186.64281 129.98975 0 1 -890.67382 -895.3789" />
    <path d="M -902.0309 -588.96939 A 3.5 2.613 129.98975 0 1 -907.03102 -586.7132 A 3.5 2.613 129.98975 0 1 -902.53247 -592.07632 A 3.5 2.613 129.98975 0 1 -902.0309 -588.96939 Z" />
    <path d="M -744.03439 -839.4642 A 3.5 2.613 129.98975 0 1 -748.13753 -838.63012 A 3.5 2.613 129.98975 0 1 -743.63897 -843.99324 A 3.5 2.613 129.98975 0 1 -744.03439 -839.4642 Z" />
    <path d="M -772.39421 -807.11149 A 3.5 2.613 129.98975 0 1 -776.65835 -806.09374 A 3.5 2.613 129.98975 0 1 -772.1598 -811.45686 A 3.5 2.613 129.98975 0 1 -772.39421 -807.11149 Z" />
    <path d="M -799.02497 -773.33099 A 3.5 2.613 129.98975 0 1 -803.4403 -772.12146 A 3.5 2.613 129.98975 0 1 -798.94175 -777.48458 A 3.5 2.613 129.98975 0 1 -799.02497 -773.33099 Z" />
    <path d="M -823.79693 -738.28726 A 3.5 2.613 129.98975 0 1 -828.3529 -736.87878 A 3.5 2.613 129.98975 1 1 -823.85435 -742.2419 A 3.5 2.613 129.98975 0 1 -823.79693 -738.28726 Z" />
    <path d="M -846.58941 -702.15104 A 3.5 2.613 129.98975 0 1 -851.27477 -700.53741 A 3.5 2.613 129.98975 0 1 -846.77622 -705.90053 A 3.5 2.613 129.98975 0 1 -846.58941 -702.15104 Z" />
    <path d="M -867.29136 -665.09838 A 3.5 2.613 129.98975 0 1 -872.09425 -663.27439 A 3.5 2.613 129.98975 0 1 -867.5957 -668.63751 A 3.5 2.613 129.98975 0 1 -867.29136 -665.09838 Z" />
    <path d="M -885.80191 -627.3098 A 3.5 2.613 129.98975 0 1 -890.7099 -625.27128 A 3.5 2.613 129.98975 0 1 -886.21134 -630.63439 A 3.5 2.613 129.98975 0 1 -885.80191 -627.3098 Z" />
    <path d="M -915.89926 -550.26395 A 3.5 2.613 129.98975 0 1 -920.97811 -547.78803 A 3.5 2.613 129.98975 0 1 -916.47956 -553.15114 A 3.5 2.613 129.98975 0 1 -915.89926 -550.26395 Z" />
    <path d="M -907.65008 -933.99259 L -875.28223 -906.8426" />
    <path d="M -896.79058 -900.50961 L -875.28223 -906.8426" />
    <path d="M -896.79058 -900.50961 L -890.67382 -895.3789" />
    <path d="M -604.70706 -986.51164 L -598.5903 -981.38093" />
    <path d="M -604.70706 -986.51164 L -156.47284 -1118.49119" />
    <path d="M 141.72745 -1199.36251 L 135.61068 -1204.49322" />
    <path d="M 114.10232 -1198.16023 L 135.61068 -1204.49322" />
    <path d="M 114.10232 -1198.16023 L 83.53389 -1223.80087" />
    <path d="M -194.95746 -1150.77189 L 32.73117 -1217.81327" />
    <path d="M -188.8407 -1145.64118 L -194.95746 -1150.77189 A 57.5 42.92785 309.98975 0 0 -194.47777 -1143.98138" />
    <path d="M -188.8407 -1145.64118 L -637.07492 -1013.66163" />
    <path d="M -643.19168 -1018.79234 L -637.07492 -1013.66163" />
    <path d="M -935.2752 -932.79031 L -792.78402 -974.74588" />
    <path d="M -717.73178 -996.8445 L -643.19168 -1018.79234" />
    <path d="M -935.2752 -932.79031 L -929.15844 -927.6596" />
    <path d="M -907.65008 -933.99259 L -929.15844 -927.6596" />
    <path d="M 133.93871 -895.2494 A 600 447.94276 309.98975 0 0 51.06016 -1001.61823" />
    <path d="M 178.6274 -218.26554 L 178.6274 -502.01847" />
    <path d="M 178.6274 -549.11219 L 178.6274 -696.49798" />
    <path d="M 296.27332 -1179.0909 A 250 186.64281 309.98975 0 0 270.24702 -1196.37517" />
    <path d="M 183.16125 -1213.1261 A 250 186.64281 309.98975 0 0 135.61068 -1204.49322" />
    <path d="M -1111.87418 724.80398 L -1105.75742 729.93468" />
    <path d="M -1111.87418 -620.23751 L -1111.87418 724.80398" />
    <path d="M -1111.87418 -620.23751 L -1105.75742 -615.10681" />
    <path d="M -1111.44976 -633.98439 L -1111.87418 -620.23751" />
    <path d="M -1111.44976 -633.98439 L -1105.333 -628.85369" />
    <path d="M -896.79058 -900.50961 A 250 186.64281 309.98975 0 0 -1111.44976 -633.98439" />
    <path d="M -907.65008 -923.57937 L -907.65008 -933.99259" />
    <path d="M -907.65008 -923.57937 L -884.47114 -904.13699" />
    <path d="M -598.71086 -977.86395 L -155.38356 -1108.3987" />
    <path d="M 158.09105 -1240.62051 A 250 186.64281 129.98975 0 1 263.90546 -1206.24089 A 250 186.64281 129.98975 0 1 279.05713 -1191.43525" />
    <path d="M -155.3567 -1108.28043 A 57.5 42.92785 129.98975 0 1 -155.71848 -1108.30008" />
    <path d="M 146.25955 -723.64797 A 600 447.94276 309.98975 0 0 132.07821 -840.67613" />
    <path d="M 116.14705 -890.01076 A 600 447.94276 309.98975 0 0 34.28499 -1014.48836" />
    <path d="M 146.25955 -245.41553 L 146.25955 -492.48797" />
    <path d="M 146.25955 -539.58169 L 146.25955 -723.64797 L 140.14278 -728.77868 A 600 447.94276 309.98975 0 0 127.55687 -839.34485" />
    <path d="M 166.4774 -339.10507 A 3.5 2.613 129.98975 0 1 161.21696 -335.53689 A 3.5 2.613 129.98975 0 1 165.71551 -340.90001 A 3.5 2.613 129.98975 0 1 166.4774 -339.10507 Z" />
    <path d="M 166.4774 -382.4935 A 3.5 2.613 129.98975 0 1 161.21696 -378.92532 A 3.5 2.613 129.98975 0 1 165.71551 -384.28844 A 3.5 2.613 129.98975 0 1 166.4774 -382.4935 Z" />
    <path d="M 166.4774 -425.88194 A 3.5 2.613 129.98975 0 1 161.21696 -422.31376 A 3.5 2.613 129.98975 0 1 165.71551 -427.67688 A 3.5 2.613 129.98975 0 1 166.4774 -425.88194 Z" />
    <path d="M 166.4774 -469.27037 A 3.5 2.613 129.98975 0 1 161.21696 -465.7022 A 3.5 2.613 129.98975 0 1 165.71551 -471.06531 A 3.5 2.613 129.98975 0 1 166.4774 -469.27037 Z" />
    <path d="M 166.4774 -556.04724 A 3.5 2.613 129.98975 0 1 161.21696 -552.47907 A 3.5 2.613 129.98975 0 1 165.71551 -557.84218 A 3.5 2.613 129.98975 0 1 166.4774 -556.04724 Z" />
    <path d="M 166.4774 -599.43568 A 3.5 2.613 129.98975 0 1 161.21696 -595.8675 A 3.5 2.613 129.98975 0 1 165.71551 -601.23062 A 3.5 2.613 129.98975 0 1 166.4774 -599.43568 Z" />
    <path d="M 166.4774 -642.82411 A 3.5 2.613 129.98975 0 1 161.21696 -639.25594 A 3.5 2.613 129.98975 1 1 165.71551 -644.61905 A 3.5 2.613 129.98975 0 1 166.4774 -642.82411 Z" />
    <path d="M 166.4774 -686.21255 A 3.5 2.613 129.98975 0 1 161.21696 -682.64437 A 3.5 2.613 129.98975 0 1 165.71551 -688.00749 A 3.5 2.613 129.98975 0 1 166.4774 -686.21255 Z" />
    <path d="M 166.4774 -729.60098 A 3.5 2.613 129.98975 0 1 161.21696 -726.03281 A 3.5 2.613 129.98975 0 1 165.71551 -731.39592 A 3.5 2.613 129.98975 0 1 166.4774 -729.60098 Z" />
    <path d="M 148.86463 -835.64349 A 3.5 2.613 129.98975 0 1 154.05928 -839.82376 A 3.5 2.613 129.98975 0 1 149.56073 -834.46065 A 3.5 2.613 129.98975 0 1 148.86463 -835.64349 Z" />
    <path d="M 159.16304 -764.7656 A 3.5 2.613 129.98975 0 1 164.41616 -768.54348 A 3.5 2.613 129.98975 0 1 159.9176 -763.18036 A 3.5 2.613 129.98975 0 1 159.16304 -764.7656 Z" />
    <path d="M 155.29328 -800.76264 A 3.5 2.613 129.98975 0 1 160.52443 -804.74488 A 3.5 2.613 129.98975 0 1 156.02587 -799.38176 A 3.5 2.613 129.98975 0 1 155.29328 -800.76264 Z" />
    <path d="M 128.46826 -901.38318 A 3.5 2.613 129.98975 0 1 129.02951 -904.58469" />
    <path d="M 131.35856 -900.23642 A 3.5 2.613 129.98975 0 1 129.04856 -900.57355 A 3.5 2.613 129.98975 0 1 128.46826 -901.38318" />
    <path d="M 257.7887 -1211.3716 A 250 186.64281 309.98975 0 0 130.10583 -1243.9191" />
    <path d="M 114.72565 -882.6605 A 600 447.94276 309.98975 0 0 31.01825 -1016.80531" />
    <path d="M 140.14278 -250.54624 L 140.14278 -490.68693" />
    <path d="M 140.14278 -537.78065 L 140.14278 -728.77868" />
    <path d="M -1150.3588 -652.51821 L -1150.3588 692.52328 L -1144.24204 697.65399 L -1111.87418 688.12349" />
    <path d="M -1149.93438 -666.26509 L -1150.3588 -652.51821 L -1144.24204 -647.3875 L -1144.24204 697.65399" />
    <path d="M -935.2752 -932.79031 A 250 186.64281 309.98975 0 0 -1149.93438 -666.26509 L -1143.81762 -661.13438 L -1144.24204 -647.3875" />
    <path d="M -1143.81762 -661.13438 A 250 186.64281 129.98975 0 1 -929.15844 -927.6596" />
    <path d="M 140.14278 -562.70306 L 24.36735 -659.81489" />
    <path d="M -104.68281 -611.40372 L 23.89593 -503.55254" />
    <path d="M 65.4527 -468.69494 L 140.14278 -406.04529" />
    <path d="M -104.68281 -611.40372 L -104.68281 -621.81694 L 24.36735 -659.81489" />
    <path d="M -104.68281 -621.81694 L 33.08484 -506.25816" />
    <path d="M 74.64161 -471.40055 L 140.14278 -416.45851" />
    <path d="M 140.08866 -736.3022 L 45.90496 -815.30299" />
    <path d="M -92.33411 -774.59943 L 140.14278 -579.59903" />
    <path d="M -83.1452 -777.30504 L 140.14278 -590.01225" />
    <path d="M 72.46633 -966.57719 L 24.36735 -1006.92237" />
    <path d="M -104.68281 -958.5112 L 19.25765 -854.55059" />
    <path d="M 60.81442 -819.69298 L 139.54492 -753.65425" />
    <path d="M -104.68281 -958.5112 L -104.68281 -968.92442 L 24.36735 -1006.92237" />
    <path d="M -104.68281 -968.92442 L 28.44656 -857.2562" />
    <path d="M 70.00333 -822.3986 L 138.8934 -764.61397" />
    <path d="M -1395.1844 -241.83743 L -1266.13424 -279.83538" />
    <path d="M -1395.1844 -241.83743 L -1150.3588 -36.479" />
    <path d="M -1150.3588 -182.72355 L -1266.13424 -279.83538" />
    <path d="M -1395.1844 -231.4242 L -1395.1844 -241.83743" />
    <path d="M -1395.1844 -231.4242 L -1150.3588 -26.06577" />
    <path d="M -1395.1844 -415.39117 L -1266.13424 -453.38912" />
    <path d="M -1395.1844 -415.39117 L -1150.3588 -210.03274" />
    <path d="M -1150.3588 -356.27729 L -1266.13424 -453.38912" />
    <path d="M -1395.1844 -404.97795 L -1395.1844 -415.39117" />
    <path d="M -1395.1844 -404.97795 L -1150.3588 -199.61952" />
    <path d="M -1395.1844 -588.94491 L -1266.13424 -626.94286" />
    <path d="M -1395.1844 -588.94491 L -1150.3588 -383.58648" />
    <path d="M -1150.3588 -529.83103 L -1266.13424 -626.94286" />
    <path d="M -1395.1844 -578.53169 L -1395.1844 -588.94491" />
    <path d="M -1395.1844 -578.53169 L -1150.3588 -373.17326" />
    <path d="M -1395.1844 -762.49865 L -1266.13424 -800.4966" />
    <path d="M -1395.1844 -762.49865 L -1150.3588 -557.14022" />
    <path d="M -1145.5844 -699.38002 L -1266.13424 -800.4966" />
    <path d="M -1395.1844 -752.08543 L -1395.1844 -762.49865" />
    <path d="M -1395.1844 -752.08543 L -1150.3588 -546.727" />
    <path d="M -169.20789 -1460.17345 L -461.29142 -1374.17142 L -467.40818 -1379.30212 A 57.5 42.92785 309.98975 0 0 -466.3189 -1369.20963 A 57.5 42.92785 309.98975 0 0 -454.89136 -1349.81384 L -448.7746 -1344.68313 A 57.5 42.92785 309.98975 0 0 -427.01244 -1336.77851" />
    <path d="M -461.29142 -1374.17142 A 57.5 42.92785 309.98975 0 0 -448.7746 -1344.68313" />
    <path d="M -126.19117 -952.17821 A 600 447.94276 309.98975 0 0 -146.77199 -1091.67084" />
    <path d="M -174.00245 -1156.94195 A 600 447.94276 309.98975 0 0 -174.54143 -1157.95306" />
    <path d="M -185.92782 -1177.71923 A 600 447.94276 309.98975 0 0 -256.80149 -1259.88207 A 600 447.94276 309.98975 0 0 -427.01244 -1336.77851" />
    <path d="M -126.19117 -473.94577 L -126.19117 -764.63044" />
    <path d="M -126.19117 -811.72416 L -126.19117 -952.17821 L -132.30793 -957.30891 A 600 447.94276 309.98975 0 0 -156.61331 -1108.0366" />
    <path d="M 45.87571 -1306.56119 L 45.87571 -1241.75961" />
    <path d="M 45.87571 -1000.9726 L 45.87571 -988.88128" />
    <path d="M 45.87571 -658.66976 L 45.87571 -641.77379" />
    <path d="M 45.87571 -462.93063 L 45.87571 -329.61697" />
    <path d="M 45.45129 -1320.05813 L 45.87571 -1306.56119" />
    <path d="M -169.20789 -1460.17345 A 250 186.64281 129.98975 0 1 -8.54526 -1434.77113 A 250 186.64281 129.98975 0 1 45.45129 -1320.05813" />
    <path d="M -105.97331 -567.6353 A 3.5 2.613 129.98975 0 1 -111.23376 -564.06713 A 3.5 2.613 129.98975 0 1 -106.73521 -569.43024 A 3.5 2.613 129.98975 0 1 -105.97331 -567.6353 Z" />
    <path d="M -105.97331 -611.02374 A 3.5 2.613 129.98975 0 1 -111.23376 -607.45556 A 3.5 2.613 129.98975 0 1 -106.73521 -612.81868 A 3.5 2.613 129.98975 0 1 -105.97331 -611.02374 Z" />
    <path d="M -105.97331 -654.41217 A 3.5 2.613 129.98975 0 1 -111.23376 -650.844 A 3.5 2.613 129.98975 0 1 -106.73521 -656.20711 A 3.5 2.613 129.98975 0 1 -105.97331 -654.41217 Z" />
    <path d="M -105.97331 -697.80061 A 3.5 2.613 129.98975 0 1 -111.23376 -694.23243 A 3.5 2.613 129.98975 0 1 -106.73521 -699.59555 A 3.5 2.613 129.98975 0 1 -105.97331 -697.80061 Z" />
    <path d="M -105.97331 -741.18904 A 3.5 2.613 129.98975 0 1 -111.23376 -737.62087 A 3.5 2.613 129.98975 0 1 -106.73521 -742.98398 A 3.5 2.613 129.98975 0 1 -105.97331 -741.18904 Z" />
    <path d="M -105.97331 -827.96591 A 3.5 2.613 129.98975 0 1 -111.23376 -824.39774 A 3.5 2.613 129.98975 0 1 -106.73521 -829.76085 A 3.5 2.613 129.98975 0 1 -105.97331 -827.96591 Z" />
    <path d="M -105.97331 -871.35435 A 3.5 2.613 129.98975 0 1 -111.23376 -867.78617 A 3.5 2.613 129.98975 1 1 -106.73521 -873.14929 A 3.5 2.613 129.98975 0 1 -105.97331 -871.35435 Z" />
    <path d="M -105.97331 -914.74278 A 3.5 2.613 129.98975 0 1 -111.23376 -911.17461 A 3.5 2.613 129.98975 0 1 -106.73521 -916.53772 A 3.5 2.613 129.98975 0 1 -105.97331 -914.74278 Z" />
    <path d="M -105.97331 -958.13122 A 3.5 2.613 129.98975 0 1 -111.23376 -954.56304 A 3.5 2.613 129.98975 0 1 -106.73521 -959.92616 A 3.5 2.613 129.98975 0 1 -105.97331 -958.13122 Z" />
    <path d="M -158.11112 -1161.62104 A 3.5 2.613 129.98975 0 1 -157.87451 -1162.86052" />
    <path d="M -152.32543 -1164.49441 A 3.5 2.613 129.98975 0 1 -152.08882 -1163.39427" />
    <path d="M -315.84733 -1317.90475 A 3.5 2.613 129.98975 0 1 -316.24275 -1318.16239 A 3.5 2.613 129.98975 1 1 -311.74419 -1323.52551 A 3.5 2.613 129.98975 0 1 -315.84733 -1317.90475 Z" />
    <path d="M -287.48751 -1302.25276 A 3.5 2.613 129.98975 0 1 -287.72192 -1302.42154 A 3.5 2.613 129.98975 0 1 -283.22337 -1307.78466 A 3.5 2.613 129.98975 0 1 -287.48751 -1302.25276 Z" />
    <path d="M -260.85675 -1284.15476 A 3.5 2.613 129.98975 0 1 -260.93997 -1284.22079 A 3.5 2.613 129.98975 1 1 -256.44141 -1289.58391 A 3.5 2.613 129.98975 0 1 -260.85675 -1284.15476 Z" />
    <path d="M -236.08478 -1263.69891 A 3.5 2.613 129.98975 0 1 -231.52882 -1269.01192 A 3.5 2.613 129.98975 1 1 -236.02737 -1263.64881 A 3.5 2.613 129.98975 0 1 -236.08478 -1263.69891 Z" />
    <path d="M -213.29231 -1240.98487 A 3.5 2.613 129.98975 0 1 -208.60694 -1246.16893 A 3.5 2.613 129.98975 1 1 -213.1055 -1240.80582 A 3.5 2.613 129.98975 0 1 -213.29231 -1240.98487 Z" />
    <path d="M -192.59036 -1216.12331 A 3.5 2.613 129.98975 0 1 -187.78747 -1221.16622 A 3.5 2.613 129.98975 1 1 -192.28602 -1215.80311 A 3.5 2.613 129.98975 0 1 -192.59036 -1216.12331 Z" />
    <path d="M -174.0798 -1189.23534 A 3.5 2.613 129.98975 0 1 -169.17182 -1194.12561 A 3.5 2.613 129.98975 1 1 -173.67037 -1188.76249 A 3.5 2.613 129.98975 0 1 -174.0798 -1189.23534 Z" />
    <path d="M -113.28767 -993.29583 A 3.5 2.613 129.98975 0 1 -108.03456 -997.07371 A 3.5 2.613 129.98975 0 1 -112.53312 -991.7106 A 3.5 2.613 129.98975 0 1 -113.28767 -993.29583 Z" />
    <path d="M -117.15743 -1029.29287 A 3.5 2.613 129.98975 0 1 -111.92629 -1033.27512 A 3.5 2.613 129.98975 0 1 -116.42485 -1027.912 A 3.5 2.613 129.98975 0 1 -117.15743 -1029.29287 Z" />
    <path d="M -123.58608 -1064.17373 A 3.5 2.613 129.98975 0 1 -118.39144 -1068.354 A 3.5 2.613 129.98975 0 1 -122.88999 -1062.99088 A 3.5 2.613 129.98975 0 1 -123.58608 -1064.17373 Z" />
    <path d="M -909.52564 -1242.19186 L -1201.60916 -1156.18983" />
    <path d="M -909.52564 -1242.19186 A 57.5 42.92785 129.98975 0 1 -943.80461 -1184.61253" />
    <path d="M -1244.62588 -622.86263 A 600 447.94276 129.98975 0 1 -1244.61773 -625.79089" />
    <path d="M -1226.02414 -766.85246 A 600 447.94276 129.98975 0 1 -943.80461 -1184.61253" />
    <path d="M -1244.62588 418.45981 L -1244.62588 -105.13651" />
    <path d="M -1244.62588 -261.79428 L -1244.62588 -278.69025" />
    <path d="M -1244.62588 -435.34802 L -1244.62588 -452.24399" />
    <path d="M -1244.62588 -608.90176 L -1244.62588 -622.86263" />
    <path d="M -1416.69276 469.12375 L -1244.62588 418.45981" />
    <path d="M -1416.69276 -875.91774 L -1416.69276 469.12375" />
    <path d="M -1416.26834 -889.66462 L -1416.69276 -875.91774" />
    <path d="M -1416.26834 -889.66462 A 250 186.64281 129.98975 0 1 -1201.60916 -1156.18983" />
    <path d="M -1212.96624 -849.78032 A 3.5 2.613 129.98975 0 1 -1217.96636 -847.52414 A 3.5 2.613 129.98975 0 1 -1213.46781 -852.88725 A 3.5 2.613 129.98975 0 1 -1212.96624 -849.78032 Z" />
    <path d="M -1054.96972 -1100.27513 A 3.5 2.613 129.98975 0 1 -1059.07286 -1099.44106 A 3.5 2.613 129.98975 0 1 -1054.57431 -1104.80417 A 3.5 2.613 129.98975 0 1 -1054.96972 -1100.27513 Z" />
    <path d="M -1083.32955 -1067.92243 A 3.5 2.613 129.98975 0 1 -1087.59369 -1066.90468 A 3.5 2.613 129.98975 0 1 -1083.09513 -1072.26779 A 3.5 2.613 129.98975 0 1 -1083.32955 -1067.92243 Z" />
    <path d="M -1109.96031 -1034.14192 A 3.5 2.613 129.98975 0 1 -1114.37564 -1032.93239 A 3.5 2.613 129.98975 0 1 -1109.87709 -1038.29551 A 3.5 2.613 129.98975 0 1 -1109.96031 -1034.14192 Z" />
    <path d="M -1134.73227 -999.0982 A 3.5 2.613 129.98975 0 1 -1139.28824 -997.68972 A 3.5 2.613 129.98975 1 1 -1134.78969 -1003.05283 A 3.5 2.613 129.98975 0 1 -1134.73227 -999.0982 Z" />
    <path d="M -1157.52475 -962.96198 A 3.5 2.613 129.98975 0 1 -1162.21011 -961.34835 A 3.5 2.613 129.98975 0 1 -1157.71156 -966.71146 A 3.5 2.613 129.98975 0 1 -1157.52475 -962.96198 Z" />
    <path d="M -1178.22669 -925.90932 A 3.5 2.613 129.98975 0 1 -1183.02959 -924.08533 A 3.5 2.613 129.98975 0 1 -1178.53103 -929.44844 A 3.5 2.613 129.98975 0 1 -1178.22669 -925.90932 Z" />
    <path d="M -1196.73725 -888.12073 A 3.5 2.613 129.98975 0 1 -1201.64523 -886.08221 A 3.5 2.613 129.98975 0 1 -1197.14668 -891.44533 A 3.5 2.613 129.98975 0 1 -1196.73725 -888.12073 Z" />
    <path d="M -1226.8346 -811.07489 A 3.5 2.613 129.98975 0 1 -1231.91345 -808.59896 A 3.5 2.613 129.98975 0 1 -1227.41489 -813.96208 A 3.5 2.613 129.98975 0 1 -1226.8346 -811.07489 Z" />
    <path d="M -1218.58542 -1194.80352 L -1186.21756 -1167.65353" />
    <path d="M -1207.72592 -1161.32054 L -1186.21756 -1167.65353" />
    <path d="M -1207.72592 -1161.32054 L -1201.60916 -1156.18983" />
    <path d="M -915.6424 -1247.32257 L -909.52564 -1242.19186" />
    <path d="M -915.6424 -1247.32257 L -467.40818 -1379.30212" />
    <path d="M -169.20789 -1460.17345 L -175.32465 -1465.30415" />
    <path d="M -196.83301 -1458.97116 L -175.32465 -1465.30415" />
    <path d="M -196.83301 -1458.97116 L -229.20087 -1486.12115" />
    <path d="M -207.69251 -1492.45414 L -229.20087 -1486.12115" />
    <path d="M -207.69251 -1492.45414 L -213.80927 -1497.58485" />
    <path d="M -505.8928 -1411.58282 L -213.80927 -1497.58485" />
    <path d="M -499.77604 -1406.45211 L -505.8928 -1411.58282 A 57.5 42.92785 309.98975 0 0 -505.41311 -1404.79231" />
    <path d="M -499.77604 -1406.45211 L -948.01026 -1274.47256" />
    <path d="M -954.12702 -1279.60327 L -948.01026 -1274.47256" />
    <path d="M -1246.21054 -1193.60124 L -954.12702 -1279.60327" />
    <path d="M -1246.21054 -1193.60124 L -1240.09378 -1188.47053" />
    <path d="M -1218.58542 -1194.80352 L -1240.09378 -1188.47053" />
    <path d="M -176.99663 -1156.06033 A 600 447.94276 309.98975 0 0 -177.51512 -1157.07747" />
    <path d="M -188.48111 -1176.96744 A 600 447.94276 309.98975 0 0 -259.87518 -1262.42917" />
    <path d="M -132.30793 -479.07648 L -132.30793 -762.82941" />
    <path d="M -132.30793 -809.92312 L -132.30793 -957.30891" />
    <path d="M -14.66202 -1439.90184 A 250 186.64281 309.98975 0 0 -175.32465 -1465.30415" />
    <path d="M -1422.80952 463.99304 L -1416.69276 469.12375" />
    <path d="M -1422.80952 -881.04845 L -1422.80952 463.99304" />
    <path d="M -1422.80952 -881.04845 L -1416.69276 -875.91774" />
    <path d="M -1422.3851 -894.79533 L -1422.80952 -881.04845" />
    <path d="M -1422.3851 -894.79533 L -1416.26834 -889.66462" />
    <path d="M -1207.72592 -1161.32054 A 250 186.64281 309.98975 0 0 -1422.3851 -894.79533" />
    <path d="M -1218.58542 -1184.3903 L -1218.58542 -1194.80352" />
    <path d="M -1218.58542 -1184.3903 L -1195.40647 -1164.94792" />
    <path d="M -909.6462 -1238.67489 L -466.3189 -1369.20963" />
    <path d="M -207.69251 -1492.45414 A 250 186.64281 129.98975 0 1 -47.02988 -1467.05183 A 250 186.64281 129.98975 0 1 -31.87821 -1452.24619" />
    <path d="M -164.67579 -506.22647 L -164.67579 -753.29891" />
    <path d="M -164.67579 -800.39262 L -164.67579 -984.4589 L -170.79255 -989.58961 A 600 447.94276 309.98975 0 0 -183.37847 -1100.15578" />
    <path d="M -164.67579 -984.4589 A 600 447.94276 309.98975 0 0 -178.85713 -1101.48706" />
    <path d="M -194.78829 -1150.8217 A 600 447.94276 309.98975 0 0 -195.20436 -1151.869" />
    <path d="M -204.07996 -1172.37446 A 600 447.94276 309.98975 0 0 -276.65035 -1275.29929" />
    <path d="M -466.29203 -1369.09136 A 57.5 42.92785 129.98975 0 1 -466.65382 -1369.11101" />
    <path d="M -144.45793 -599.916 A 3.5 2.613 129.98975 0 1 -149.71838 -596.34782 A 3.5 2.613 129.98975 0 1 -145.21983 -601.71094 A 3.5 2.613 129.98975 0 1 -144.45793 -599.916 Z" />
    <path d="M -144.45793 -643.30444 A 3.5 2.613 129.98975 0 1 -149.71838 -639.73626 A 3.5 2.613 129.98975 0 1 -145.21983 -645.09937 A 3.5 2.613 129.98975 0 1 -144.45793 -643.30444 Z" />
    <path d="M -144.45793 -686.69287 A 3.5 2.613 129.98975 0 1 -149.71838 -683.12469 A 3.5 2.613 129.98975 0 1 -145.21983 -688.48781 A 3.5 2.613 129.98975 0 1 -144.45793 -686.69287 Z" />
    <path d="M -144.45793 -730.08131 A 3.5 2.613 129.98975 0 1 -149.71838 -726.51313 A 3.5 2.613 129.98975 0 1 -145.21983 -731.87625 A 3.5 2.613 129.98975 0 1 -144.45793 -730.08131 Z" />
    <path d="M -144.45793 -816.85818 A 3.5 2.613 129.98975 0 1 -149.71838 -813.29 A 3.5 2.613 129.98975 0 1 -145.21983 -818.65312 A 3.5 2.613 129.98975 0 1 -144.45793 -816.85818 Z" />
    <path d="M -144.45793 -860.24661 A 3.5 2.613 129.98975 0 1 -149.71838 -856.67843 A 3.5 2.613 129.98975 0 1 -145.21983 -862.04155 A 3.5 2.613 129.98975 0 1 -144.45793 -860.24661 Z" />
    <path d="M -144.45793 -903.63505 A 3.5 2.613 129.98975 0 1 -149.71838 -900.06687 A 3.5 2.613 129.98975 1 1 -145.21983 -905.42999 A 3.5 2.613 129.98975 0 1 -144.45793 -903.63505 Z" />
    <path d="M -144.45793 -947.02348 A 3.5 2.613 129.98975 0 1 -149.71838 -943.4553 A 3.5 2.613 129.98975 0 1 -145.21983 -948.81842 A 3.5 2.613 129.98975 0 1 -144.45793 -947.02348 Z" />
    <path d="M -144.45793 -990.41192 A 3.5 2.613 129.98975 0 1 -149.71838 -986.84374 A 3.5 2.613 129.98975 0 1 -145.21983 -992.20686 A 3.5 2.613 129.98975 0 1 -144.45793 -990.41192 Z" />
    <path d="M -151.77229 -1025.57653 A 3.5 2.613 129.98975 0 1 -146.51918 -1029.35441 A 3.5 2.613 129.98975 0 1 -151.01773 -1023.99129 A 3.5 2.613 129.98975 0 1 -151.77229 -1025.57653 Z" />
    <path d="M -162.0707 -1096.45443 A 3.5 2.613 129.98975 0 1 -156.87606 -1100.6347 A 3.5 2.613 129.98975 0 1 -161.37461 -1095.27158 A 3.5 2.613 129.98975 0 1 -162.0707 -1096.45443 Z" />
    <path d="M -155.64205 -1061.57357 A 3.5 2.613 129.98975 0 1 -150.41091 -1065.55581 A 3.5 2.613 129.98975 0 1 -154.90946 -1060.1927 A 3.5 2.613 129.98975 0 1 -155.64205 -1061.57357 Z" />
    <path d="M -53.14664 -1472.18253 A 250 186.64281 309.98975 0 0 -213.80927 -1497.58485" />
    <path d="M -196.20969 -1143.47143 A 600 447.94276 309.98975 0 0 -198.90107 -1150.78052" />
    <path d="M -207.40329 -1171.39593 A 600 447.94276 309.98975 0 0 -279.91709 -1277.61625" />
    <path d="M -170.79255 -511.35717 L -170.79255 -751.49787" />
    <path d="M -170.79255 -798.59158 L -170.79255 -989.58961" />
    <path d="M -1461.29414 -913.32914 L -1461.29414 431.71235 L -1455.17738 436.84305 L -1422.80952 427.31255" />
    <path d="M -1460.86972 -927.07602 L -1461.29414 -913.32914 L -1455.17738 -908.19844 L -1455.17738 436.84305" />
    <path d="M -1246.21054 -1193.60124 A 250 186.64281 309.98975 0 0 -1460.86972 -927.07602 L -1454.75296 -921.94532 L -1455.17738 -908.19844" />
    <path d="M -1454.75296 -921.94532 A 250 186.64281 129.98975 0 1 -1240.09378 -1188.47053" />
    <path d="M -308.28147 670.52486 L -308.28147 615.42154 L 238.03087 454.56355 L -291.81371 10.13269" />
    <path d="M -311.81987 667.55687 L -308.28147 670.52486 L 238.03087 509.66686 L 238.03087 454.56355" />
    <path d="M -311.81987 612.45355 L -308.28147 615.42154" />
    <path d="M -522.52406 -183.38594 L -602.74905 -250.67825" />
    <path d="M -877.09064 -317.51109 L -892.0001 -313.1211" />
    <path d="M -1183.3877 -227.32398 L -1198.29716 -222.93399" />
    <path d="M 241.4722 508.65358 L 241.4722 453.55027 L 787.78454 292.69228 L 328.69739 -92.38762" />
    <path d="M 238.03087 505.76701 L 241.4722 508.65358 L 787.78454 347.79559 L 787.78454 292.69228" />
    <path d="M -601.90333 -253.86871 L -521.77366 -186.65637" />
    <path d="M -290.96799 6.94222 L 241.4722 453.55027" />
    <path d="M 306.12434 -111.32178 L -26.37421 -390.21982" />
    <path d="M -119.43741 -468.28075 L -183.25123 -521.80744 L -279.7375 -493.39771" />
    <path d="M -308.90329 -484.81004 L -534.49919 -418.38484" />
    <path d="M -778.78966 -878.94827 L 104.87838 -137.73214 L 104.87838 -146.40983 A 200 99.39366 180 0 0 367.88593 -108.54951 L 378.89127 -111.56198 L 1083.6772 -319.08146 L 1104.43902 -326.10562 A 200 99.39366 180 0 0 1181.73119 -404.59324 L 1181.73119 -395.91556" />
    <path d="M -778.78966 -887.62595 L 104.87838 -146.40983" />
    <path d="M -806.72278 -929.6122 A 200 99.39366 180 0 0 -778.78966 -878.94827 L -778.78966 -887.62595" />
    <path d="M -729.43062 -1016.77751 A 200 99.39366 180 0 0 -806.72278 -938.28989 L -806.72278 -929.6122" />
    <path d="M -806.72278 -938.28989 A 200 99.39366 180 0 0 -778.78966 -887.62595" />
    <path d="M 367.88593 -99.87182 L 367.88593 -108.54951" />
    <path d="M 104.87838 -137.73214 A 200 99.39366 180 0 0 367.88593 -99.87182 L 378.89127 -102.8843 L 378.89127 -111.56198" />
    <path d="M 378.89127 -102.8843 L 1083.6772 -310.40378 L 1083.6772 -319.08146" />
    <path d="M 1083.6772 -310.40378 L 1104.43902 -317.42794 L 1104.43902 -326.10562" />
    <path d="M 1104.43902 -317.42794 A 200 99.39366 180 0 0 1181.73119 -395.91556" />
    <path d="M 1156.51327 -400.2544 A 175 86.96945 180 0 0 1132.28971 -440.2465 L 1132.28971 -448.92419 L 248.62167 -1190.14031 A 175 86.96945 180 0 0 18.49006 -1223.26809 L 8.86039 -1220.63218 L -695.92554 -1013.1127 L -714.09214 -1006.96656 A 175 86.96945 180 0 0 -781.72278 -938.28989 A 175 86.96945 180 0 0 -757.2813 -893.95895 L 126.38674 -152.74282 A 175 86.96945 180 0 0 356.51835 -119.61504 L 366.14801 -122.25096 L 1070.93395 -329.77044 L 1089.10054 -335.91658 A 175 86.96945 180 0 0 1156.73119 -404.59324 A 175 86.96945 180 0 0 1132.28971 -448.92419" />
    <path d="M 1132.28971 -440.2465 L 248.62167 -1181.46262 L 248.62167 -1190.14031" />
    <path d="M 248.62167 -1181.46262 A 175 86.96945 180 0 0 18.49006 -1214.59041 L 18.49006 -1223.26809" />
    <path d="M 18.49006 -1214.59041 L 8.86039 -1211.95449 L 8.86039 -1220.63218" />
    <path d="M 8.86039 -1211.95449 L -695.92554 -1004.43501 L -695.92554 -1013.1127" />
    <path d="M -695.92554 -1004.43501 L -714.09214 -998.28887 L -714.09214 -1006.96656" />
    <path d="M -714.09214 -998.28887 A 175 86.96945 180 0 0 -781.50486 -933.95105" />
    <path d="M -708.66879 -1023.80167 L -729.43062 -1016.77751" />
    <path d="M -3.88286 -1231.32115 L -708.66879 -1023.80167" />
    <path d="M 7.12248 -1234.33363 L -3.88286 -1231.32115" />
    <path d="M 270.13003 -1196.4733 A 200 99.39366 180 0 0 7.12248 -1234.33363" />
    <path d="M 1181.73119 -404.59324 A 200 99.39366 180 0 0 1153.79807 -455.25718 L 270.13003 -1196.4733" />
    <path d="M 1285.79408 514.46769 L 1280.69678 510.1921" />
    <path d="M 1285.79408 514.46769 L 1285.79408 1078.51735 L 941.66032 1179.84522 L 859.83766 927.03383 A 100 74.65713 129.98975 0 1 905.02907 808.39394 L 939.93362 780.2507 L 1124.45271 747.85958 A 100 74.65713 309.98975 0 0 1210.62724 678.19854 L 1285.79408 514.46769 Z" />
    <path d="M 941.66032 1179.84522 L 936.56302 1175.56963 L 854.74036 922.75824" />
    <path d="M 859.83766 927.03383 L 854.74036 922.75824" />
    <path d="M 899.93177 804.11835 A 100 74.65713 309.98975 0 0 854.74036 922.75824" />
    <path d="M 905.02907 808.39394 L 899.93177 804.11835 L 934.83632 775.97511 L 1119.35541 743.58399 A 100 74.65713 309.98975 0 0 1205.52994 673.92295 L 1280.69678 510.1921" />
    <path d="M 939.93362 780.2507 L 934.83632 775.97511" />
    <path d="M 1124.45271 747.85958 L 1119.35541 743.58399" />
    <path d="M 1210.62724 678.19854 L 1205.52994 673.92295" />
    <path d="M 918.14399 -657.46904 L 924.26075 -652.33833" />
    <path d="M 879.65937 -689.74973 L 885.77613 -684.61903" />
    <path d="M 607.20865 -918.27997 L 613.32542 -913.14926" />
    <path d="M 568.72404 -950.56067 L 574.8408 -945.42996" />
    <path d="M 296.27332 -1179.0909 L 302.39008 -1173.9602" />
    <path d="M 257.7887 -1211.3716 L 263.90546 -1206.24089" />
    <path d="M -14.66202 -1439.90184 L -8.54526 -1434.77113" />
    <path d="M -53.14664 -1472.18253 L -47.02988 -1467.05183" />
</svg>