<svg version="1.1" xmlns="http://www.w3.org/2000/svg" viewBox="-1684.4090291362263 -1379.4344247673746 3011.9226838222176 2949.20123231851" fill="none" stroke="black" stroke-width="0.6%" vector-effect="non-scaling-stroke">
    <path d="M -393.83523 743.21908 L -393.83523 686.90637 L 120.1565 514.59013 L -394.59956 186.68226" />
    <path d="M -1470.14114 57.59495 L -1325.21191 149.91719" />
    <path d="M -1111.94401 285.77226 L -967.01479 378.09451" />
    <path d="M -753.74689 513.94958 L -608.81766 606.27182" />
    <path d="M -395.54977 742.12689 L -393.83523 743.21908 L 120.1565 570.90284 L 120.1565 514.59013" />
    <path d="M -395.54977 685.81418 L -393.83523 686.90637" />
    <path d="M -608.81766 50.22189 L -752.79668 -41.49505" />
    <path d="M -967.01479 -177.95542 L -998.4755 -197.9964 L -1042.93352 -183.09181" />
    <path d="M -1357.71618 -77.56061 L -1407.77747 -60.77751" />
    <path d="M -995.23775 -195.93391 L -995.23775 -199.08186 L -967.01479 -181.10338" />
    <path d="M 123.39424 569.81738 L 123.39424 513.50467 L 637.38597 341.18843 L -242.22307 -219.13664" />
    <path d="M 120.1565 567.75489 L 123.39424 569.81738 L 637.38597 397.50114 L 637.38597 341.18843" />
    <path d="M -752.61892 -44.52977 L -608.81766 47.07394" />
    <path d="M -394.4218 183.64754 L 123.39424 513.50467" />
    <path d="M -438.85788 -344.39617 L -481.24603 -371.3981 L -685.4223 -302.9478" />
    <path d="M -992.87223 -199.87491 L -995.23775 -199.08186" />
    <path d="M -1453.76768 -1034.30362 L -1453.76768 -1044.94539 L -1474.00358 -1038.16129" />
    <path d="M -1453.76768 -1034.30362 L -1427.42527 -1017.52308" />
    <path d="M -1453.76768 -1044.94539 L -1416.47995 -1021.19251" />
    <path d="M -1675.96322 -762.67141 A 250 179.45482 122.49779 0 1 -1474.00358 -1038.16129" />
    <path d="M -1675.96322 -762.67141 L -1676.36253 -748.61666 L -1676.36253 625.94563 L -1639.07479 613.44488" />
    <path d="M -1436.71585 -1014.4084 A 250 179.45482 302.49779 0 0 -1638.67549 -738.91852 L -1631.62898 -734.42979 L -1632.02829 -720.37504 L -1632.02829 654.18724 L -1470.14114 599.91441 L -1470.14114 28.18577" />
    <path d="M -1436.71585 -1014.4084 L -1416.47995 -1021.19251" />
    <path d="M -1639.07479 -724.86377 L -1639.07479 649.69851 L -1632.02829 654.18724" />
    <path d="M -1638.67549 -738.91852 L -1639.07479 -724.86377 L -1632.02829 -720.37504" />
    <path d="M -1154.99468 -1098.21393 L -739.17151 -1237.61907 A 57.5 41.27461 302.49779 0 0 -724.54665 -1215.0245 L -717.50015 -1210.53577 A 57.5 41.27461 302.49779 0 0 -700.89886 -1205.71236" />
    <path d="M -1436.71585 -1014.4084 L -1429.66935 -1009.91967" />
    <path d="M -1154.86589 -1102.0478 L -1429.66935 -1009.91967" />
    <path d="M -1161.9124 -1106.53653 L -1154.86589 -1102.0478 A 57.5 41.27461 122.49779 0 1 -1187.11688 -1042.70728" />
    <path d="M -1161.9124 -1106.53653 L -740.19635 -1247.91726 A 57.5 41.27461 302.49779 0 0 -739.17151 -1237.61907" />
    <path d="M -733.14985 -1243.42853 L -740.19635 -1247.91726" />
    <path d="M -458.3464 -1335.55666 L -733.14985 -1243.42853 A 57.5 41.27461 302.49779 0 0 -717.50015 -1210.53577" />
    <path d="M -458.3464 -1335.55666 L -465.3929 -1340.04539" />
    <path d="M -485.62879 -1333.26129 L -465.3929 -1340.04539" />
    <path d="M -485.62879 -1333.26129 L -522.91652 -1357.01417" />
    <path d="M -502.68063 -1363.79828 L -522.91652 -1357.01417" />
    <path d="M -502.68063 -1363.79828 L -509.72713 -1368.28701" />
    <path d="M -784.53058 -1276.15888 L -509.72713 -1368.28701" />
    <path d="M -777.48408 -1271.67014 L -784.53058 -1276.15888 A 57.5 41.27461 302.49779 0 0 -784.10858 -1269.44927" />
    <path d="M -777.48408 -1271.67014 L -1199.20013 -1130.28942" />
    <path d="M -1206.24663 -1134.77815 L -1199.20013 -1130.28942" />
    <path d="M -1481.05008 -1042.65002 L -1206.24663 -1134.77815" />
    <path d="M -1481.05008 -1042.65002 L -1474.00358 -1038.16129" />
    <path d="M -1481.05008 -1042.65002 A 250 179.45482 302.49779 0 0 -1683.00972 -767.16014 L -1683.40903 -753.10539 L -1683.40903 621.45689 L -1676.36253 625.94563" />
    <path d="M -1683.00972 -767.16014 L -1675.96322 -762.67141" />
    <path d="M -1683.40903 -753.10539 L -1676.36253 -748.61666" />
    <path d="M -1631.62898 -734.42979 A 250 179.45482 122.49779 0 1 -1429.66935 -1009.91967" />
    <path d="M -1470.14114 -464.26284 A 600 430.69158 122.49779 0 1 -1468.87421 -503.09581" />
    <path d="M -1450.61784 -620.15614 A 600 430.69158 122.49779 0 1 -1187.11688 -1042.70728" />
    <path d="M -1470.14114 -100.50417 L -1470.14114 -149.17711" />
    <path d="M -1470.14114 -277.86704 L -1470.14114 -326.53998" />
    <path d="M -1470.14114 -455.22992 L -1470.14114 -464.26284" />
    <path d="M -1489.16288 -147.50075 A 3.5 2.51237 122.49779 0 1 -1484.44942 -151.40247 A 3.5 2.51237 122.49779 0 1 -1488.21029 -145.49858 A 3.5 2.51237 122.49779 0 1 -1489.16288 -147.50075 Z" />
    <path d="M -1489.16288 -324.86362 A 3.5 2.51237 122.49779 0 1 -1484.44942 -328.76534 A 3.5 2.51237 122.49779 0 1 -1488.21029 -322.86146 A 3.5 2.51237 122.49779 0 1 -1489.16288 -324.86362 Z" />
    <path d="M -1291.7053 -954.9057 A 3.5 2.51237 122.49779 0 1 -1295.32992 -953.81489 A 3.5 2.51237 122.49779 0 1 -1291.56905 -959.71877 A 3.5 2.51237 122.49779 0 1 -1291.7053 -954.9057 Z" />
    <path d="M -1318.38732 -921.43138 A 3.5 2.51237 122.49779 0 1 -1322.16342 -920.15053 A 3.5 2.51237 122.49779 0 1 -1318.40255 -926.05441 A 3.5 2.51237 122.49779 0 1 -1318.38732 -921.43138 Z" />
    <path d="M -1343.44257 -886.52302 A 3.5 2.51237 122.49779 0 1 -1347.36091 -885.04398 A 3.5 2.51237 122.49779 0 1 -1343.60004 -890.94787 A 3.5 2.51237 122.49779 0 1 -1343.44257 -886.52302 Z" />
    <path d="M -1388.19303 -813.0906 A 3.5 2.51237 122.49779 0 1 -1392.36543 -811.19467 A 3.5 2.51237 122.49779 1 1 -1388.60456 -817.09856 A 3.5 2.51237 122.49779 0 1 -1388.19303 -813.0906 Z" />
    <path d="M -1425.08567 -736.03772 A 3.5 2.51237 122.49779 0 1 -1429.46751 -733.70435 A 3.5 2.51237 122.49779 0 1 -1425.70664 -739.60823 A 3.5 2.51237 122.49779 0 1 -1425.08567 -736.03772 Z" />
    <path d="M -1407.67022 -774.9243 A 3.5 2.51237 122.49779 0 1 -1411.95319 -772.81169 A 3.5 2.51237 122.49779 0 1 -1408.19232 -778.71558 A 3.5 2.51237 122.49779 0 1 -1407.67022 -774.9243 Z" />
    <path d="M -1366.74899 -850.35068 A 3.5 2.51237 122.49779 0 1 -1370.79965 -848.66629 A 3.5 2.51237 122.49779 0 1 -1367.03878 -854.57017 A 3.5 2.51237 122.49779 0 1 -1366.74899 -850.35068 Z" />
    <path d="M -1482.28125 -498.33019 A 3.5 2.51237 122.49779 0 1 -1486.9878 -494.6473 A 3.5 2.51237 122.49779 0 1 -1483.22693 -500.55118 A 3.5 2.51237 122.49779 0 1 -1482.28125 -498.33019 Z" />
    <path d="M -1453.40241 -656.86413 A 3.5 2.51237 122.49779 0 1 -1457.94502 -654.08127 A 3.5 2.51237 122.49779 0 1 -1454.18415 -659.98515 A 3.5 2.51237 122.49779 0 1 -1453.40241 -656.86413 Z" />
    <path d="M -1440.35453 -696.62032 A 3.5 2.51237 122.49779 0 1 -1444.82306 -694.06316 A 3.5 2.51237 122.49779 0 1 -1441.06219 -699.96705 A 3.5 2.51237 122.49779 0 1 -1440.35453 -696.62032 Z" />
    <path d="M -424.92111 -821.52497 A 600 430.69158 302.49779 0 0 -451.36571 -985.84299" />
    <path d="M -468.41083 -1027.024 A 600 430.69158 302.49779 0 0 -473.07655 -1036.38149" />
    <path d="M -483.89952 -1055.89431 A 600 430.69158 302.49779 0 0 -584.71424 -1162.48561" />
    <path d="M -424.92111 -351.00389 L -424.92111 -451.00527" />
    <path d="M -424.92111 -479.54811 L -424.92111 -646.44531" />
    <path d="M -424.92111 -693.34072 L -424.92111 -821.52497" />
    <path d="M -331.07613 -1329.19484 A 250 179.45482 302.49779 0 0 -465.3929 -1340.04539" />
    <path d="M -502.68063 -1363.79828 A 250 179.45482 122.49779 0 1 -368.36386 -1352.94772 A 250 179.45482 122.49779 0 1 -350.74291 -1339.46549" />
    <path d="M -462.20884 -359.27111 L -462.20884 -474.75816" />
    <path d="M -462.20884 -503.301 L -462.20884 -593.28424" />
    <path d="M -462.20884 -680.83997 L -462.20884 -845.27786 L -469.25534 -849.76659 A 600 430.69158 302.49779 0 0 -483.99165 -974.90511" />
    <path d="M -462.20884 -845.27786 A 600 430.69158 302.49779 0 0 -478.56602 -976.72406" />
    <path d="M -492.1127 -1019.07793 A 600 430.69158 302.49779 0 0 -495.90747 -1028.7274" />
    <path d="M -504.79561 -1048.88887 A 600 430.69158 302.49779 0 0 -603.94374 -1173.44272" />
    <path d="M -737.81949 -1232.6271 A 600 430.69158 302.49779 0 0 -745.2331 -1233.95398 A 57.5 41.27461 122.49779 0 1 -749.21895 -1234.25065" />
    <path d="M -443.1871 -452.58845 A 3.5 2.51237 122.49779 0 1 -447.90056 -448.68673 A 3.5 2.51237 122.49779 1 1 -444.13969 -454.59062 A 3.5 2.51237 122.49779 0 1 -443.1871 -452.58845 Z" />
    <path d="M -443.1871 -496.92917 A 3.5 2.51237 122.49779 0 1 -445.90649 -492.91614" />
    <path d="M -448.84431 -494.78758 A 3.5 2.51237 122.49779 0 1 -444.13969 -498.93133 A 3.5 2.51237 122.49779 0 1 -443.1871 -496.92917" />
    <path d="M -443.1871 -541.26988 A 3.5 2.51237 122.49779 0 1 -447.90056 -537.36817 A 3.5 2.51237 122.49779 1 1 -444.13969 -543.27205 A 3.5 2.51237 122.49779 0 1 -443.1871 -541.26988 Z" />
    <path d="M -443.1871 -585.6106 A 3.5 2.51237 122.49779 0 1 -447.90056 -581.70889 A 3.5 2.51237 122.49779 1 1 -444.13969 -587.61277 A 3.5 2.51237 122.49779 0 1 -443.1871 -585.6106 Z" />
    <path d="M -443.1871 -718.63276 A 3.5 2.51237 122.49779 0 1 -447.90056 -714.73104 A 3.5 2.51237 122.49779 1 1 -444.13969 -720.63493 A 3.5 2.51237 122.49779 0 1 -443.1871 -718.63276 Z" />
    <path d="M -443.1871 -762.97348 A 3.5 2.51237 122.49779 0 1 -447.90056 -759.07176 A 3.5 2.51237 122.49779 0 1 -444.13969 -764.97565 A 3.5 2.51237 122.49779 0 1 -443.1871 -762.97348 Z" />
    <path d="M -443.1871 -807.3142 A 3.5 2.51237 122.49779 0 1 -447.90056 -803.41248 A 3.5 2.51237 122.49779 1 1 -444.13969 -809.31637 A 3.5 2.51237 122.49779 0 1 -443.1871 -807.3142 Z" />
    <path d="M -443.1871 -851.65492 A 3.5 2.51237 122.49779 0 1 -447.90056 -847.7532 A 3.5 2.51237 122.49779 1 1 -444.13969 -853.65708 A 3.5 2.51237 122.49779 0 1 -443.1871 -851.65492 Z" />
    <path d="M -450.06873 -887.48518 A 3.5 2.51237 122.49779 0 1 -445.36217 -891.60109 A 3.5 2.51237 122.49779 1 1 -449.12304 -885.69721 A 3.5 2.51237 122.49779 0 1 -450.06873 -887.48518 Z" />
    <path d="M -459.75787 -959.76925 A 3.5 2.51237 122.49779 0 1 -455.10632 -964.29554 A 3.5 2.51237 122.49779 0 1 -458.86719 -958.39165 A 3.5 2.51237 122.49779 0 1 -459.75787 -959.76925 Z" />
    <path d="M -453.70955 -924.21612 A 3.5 2.51237 122.49779 0 1 -449.02366 -928.54057 A 3.5 2.51237 122.49779 1 1 -452.78453 -922.63668 A 3.5 2.51237 122.49779 0 1 -453.70955 -924.21612 Z" />
    <path d="M -491.99545 -1057.66336 A 3.5 2.51237 122.49779 0 1 -488.25058 -1063.0146" />
    <path d="M -486.59619 -1060.35102 A 3.5 2.51237 122.49779 0 1 -491.28779 -1056.84153 A 3.5 2.51237 122.49779 0 1 -491.99545 -1057.66336" />
    <path d="M -478.94757 -1026.6558 A 3.5 2.51237 122.49779 0 1 -474.40496 -1031.56182 A 3.5 2.51237 122.49779 0 1 -478.16583 -1025.65793 A 3.5 2.51237 122.49779 0 1 -478.94757 -1026.6558 Z" />
    <path d="M -507.26431 -1086.84296 A 3.5 2.51237 122.49779 0 1 -507.09438 -1090.12037" />
    <path d="M -504.19156 -1086.2902 A 3.5 2.51237 122.49779 0 1 -506.64333 -1086.18679 A 3.5 2.51237 122.49779 0 1 -507.26431 -1086.84296" />
    <path d="M -1611.7924 -62.04836 L -1611.7924 -72.69013 L -1325.21191 109.86624" />
    <path d="M -1611.7924 -72.69013 L -1490.37703 -113.39476" />
    <path d="M -1611.7924 -239.41124 L -1611.7924 -250.05301 L -1325.21191 -67.49664" />
    <path d="M -1611.7924 -250.05301 L -1490.37703 -290.75763" />
    <path d="M -1611.7924 -416.77411 L -1611.7924 -427.41588 L -1325.21191 -244.85951" />
    <path d="M -1611.7924 -427.41588 L -1490.37703 -468.12051" />
    <path d="M -1611.7924 -594.13699 L -1611.7924 -604.77876 L -1325.21191 -422.22239" />
    <path d="M -1611.7924 -604.77876 L -1490.37703 -645.48338" />
    <path d="M -417.87461 -817.03624 A 600 430.69158 302.49779 0 0 -446.51957 -987.46766" />
    <path d="M -464.25886 -1028.41596 A 600 430.69158 302.49779 0 0 -469.09911 -1037.71493" />
    <path d="M -480.31247 -1057.09687 A 600 430.69158 302.49779 0 0 -581.17583 -1160.26505 A 600 430.69158 302.49779 0 0 -700.89886 -1205.71236" />
    <path d="M -417.87461 -353.93782 L -417.87461 -446.51654" />
    <path d="M -417.87461 -475.05938 L -417.87461 -648.80766" />
    <path d="M -417.87461 -695.70307 L -417.87461 -817.03624 L -424.92111 -821.52497" />
    <path d="M -255.98745 -1181.6941 L -255.98745 -1132.30206" />
    <path d="M -255.98745 -1109.16083 L -255.98745 -1105.09023" />
    <path d="M -255.98745 -910.94909 L -255.98745 -862.27615" />
    <path d="M -255.98745 -703.08049 L -255.98745 -684.91327" />
    <path d="M -255.98745 -556.22334 L -255.98745 -507.5504" />
    <path d="M -256.38676 -1195.48112 L -255.98745 -1181.6941" />
    <path d="M -458.3464 -1335.55666 A 250 179.45482 122.49779 0 1 -324.02963 -1324.7061 A 250 179.45482 122.49779 0 1 -256.38676 -1195.48112" />
    <path d="M -398.85287 -424.34683 A 3.5 2.51237 122.49779 0 1 -403.56633 -420.44511 A 3.5 2.51237 122.49779 1 1 -399.80546 -426.349 A 3.5 2.51237 122.49779 0 1 -398.85287 -424.34683 Z" />
    <path d="M -398.85287 -468.68755 A 3.5 2.51237 122.49779 0 1 -401.57225 -464.67452" />
    <path d="M -404.51008 -466.54596 A 3.5 2.51237 122.49779 0 1 -399.80546 -470.68972 A 3.5 2.51237 122.49779 0 1 -398.85287 -468.68755" />
    <path d="M -398.85287 -513.02827 A 3.5 2.51237 122.49779 0 1 -403.56633 -509.12655 A 3.5 2.51237 122.49779 1 1 -399.80546 -515.03043 A 3.5 2.51237 122.49779 0 1 -398.85287 -513.02827 Z" />
    <path d="M -398.85287 -557.36898 A 3.5 2.51237 122.49779 0 1 -403.56633 -553.46727 A 3.5 2.51237 122.49779 1 1 -399.80546 -559.37115 A 3.5 2.51237 122.49779 0 1 -398.85287 -557.36898 Z" />
    <path d="M -398.85287 -601.7097 A 3.5 2.51237 122.49779 0 1 -403.56633 -597.80799 A 3.5 2.51237 122.49779 1 1 -399.80546 -603.71187 A 3.5 2.51237 122.49779 0 1 -398.85287 -601.7097 Z" />
    <path d="M -397.63871 -479.73637 L -276.22334 -520.44099" />
    <path d="M -397.63871 -469.09459 L -397.63871 -479.73637 L -275.59264 -401.99106" />
    <path d="M -398.85287 -646.05042 A 3.5 2.51237 122.49779 0 1 -403.56633 -642.14871 A 3.5 2.51237 122.49779 1 1 -399.80546 -648.05259 A 3.5 2.51237 122.49779 0 1 -398.85287 -646.05042 Z" />
    <path d="M -398.85287 -734.73186 A 3.5 2.51237 122.49779 0 1 -403.56633 -730.83014 A 3.5 2.51237 122.49779 0 1 -399.80546 -736.73403 A 3.5 2.51237 122.49779 0 1 -398.85287 -734.73186 Z" />
    <path d="M -398.85287 -779.07258 A 3.5 2.51237 122.49779 0 1 -403.56633 -775.17086 A 3.5 2.51237 122.49779 1 1 -399.80546 -781.07475 A 3.5 2.51237 122.49779 0 1 -398.85287 -779.07258 Z" />
    <path d="M -398.85287 -823.4133 A 3.5 2.51237 122.49779 0 1 -403.56633 -819.51158 A 3.5 2.51237 122.49779 1 1 -399.80546 -825.41547 A 3.5 2.51237 122.49779 0 1 -398.85287 -823.4133 Z" />
    <path d="M -397.63871 -646.45747 L -397.63871 -655.59176" />
    <path d="M -397.63871 -834.46212 L -276.22334 -875.16674" />
    <path d="M -397.63871 -823.82034 L -397.63871 -834.46212 L -261.89931 -747.99394" />
    <path d="M -596.31044 -1188.03753 A 3.5 2.51237 122.49779 0 1 -596.44669 -1188.11619 A 3.5 2.51237 122.49779 0 1 -592.68582 -1194.02008 A 3.5 2.51237 122.49779 0 1 -596.31044 -1188.03753 Z" />
    <path d="M -569.62842 -1172.45355 A 3.5 2.51237 122.49779 0 1 -565.85232 -1178.34763 A 3.5 2.51237 122.49779 0 1 -569.61319 -1172.44374 A 3.5 2.51237 122.49779 0 1 -569.62842 -1172.45355 Z" />
    <path d="M -544.57317 -1154.34478 A 3.5 2.51237 122.49779 0 1 -540.65483 -1160.13605 A 3.5 2.51237 122.49779 0 1 -544.4157 -1154.23216 A 3.5 2.51237 122.49779 0 1 -544.57317 -1154.34478 Z" />
    <path d="M -521.26675 -1133.79944 A 3.5 2.51237 122.49779 0 1 -517.2161 -1139.47407 A 3.5 2.51237 122.49779 1 1 -520.97697 -1133.57019 A 3.5 2.51237 122.49779 0 1 -521.26675 -1133.79944 Z" />
    <path d="M -499.82271 -1110.91763 A 3.5 2.51237 122.49779 0 1 -495.65031 -1116.46236 A 3.5 2.51237 122.49779 1 1 -499.41118 -1110.55847 A 3.5 2.51237 122.49779 0 1 -499.82271 -1110.91763 Z" />
    <path d="M -480.34552 -1085.81083 A 3.5 2.51237 122.49779 0 1 -476.06255 -1091.21301 A 3.5 2.51237 122.49779 0 1 -479.82342 -1085.30913 A 3.5 2.51237 122.49779 0 1 -480.34552 -1085.81083 Z" />
    <path d="M -461.51668 -1063.39818 A 3.5 2.51237 122.49779 0 1 -459.34064 -1064.1277" />
    <path d="M -405.7345 -859.24356 A 3.5 2.51237 122.49779 0 1 -401.02794 -863.35947 A 3.5 2.51237 122.49779 1 1 -404.78881 -857.45559 A 3.5 2.51237 122.49779 0 1 -405.7345 -859.24356 Z" />
    <path d="M -409.37532 -895.9745 A 3.5 2.51237 122.49779 0 1 -404.68943 -900.29895 A 3.5 2.51237 122.49779 1 1 -408.4503 -894.39506 A 3.5 2.51237 122.49779 0 1 -409.37532 -895.9745 Z" />
    <path d="M -415.42364 -931.52763 A 3.5 2.51237 122.49779 0 1 -410.77209 -936.05392 A 3.5 2.51237 122.49779 0 1 -414.53296 -930.15003 A 3.5 2.51237 122.49779 0 1 -415.42364 -931.52763 Z" />
    <path d="M -423.84999 -965.72973 A 3.5 2.51237 122.49779 0 1 -419.24628 -970.45019 A 3.5 2.51237 122.49779 0 1 -423.00715 -964.54631 A 3.5 2.51237 122.49779 0 1 -423.84999 -965.72973 Z" />
    <path d="M -397.63871 -1001.18322 L -397.63871 -1003.85502" />
    <path d="M -375.41036 -1357.43646 A 250 179.45482 302.49779 0 0 -509.72713 -1368.28701" />
    <path d="M -496.90554 -1017.47112 A 600 430.69158 302.49779 0 0 -500.54427 -1027.17291" />
    <path d="M -509.08797 -1047.44985 A 600 430.69158 302.49779 0 0 -607.6734 -1175.36306" />
    <path d="M -469.25534 -363.75984 L -469.25534 -479.24689" />
    <path d="M -469.25534 -507.78973 L -469.25534 -587.39298" />
    <path d="M -469.25534 -678.47762 L -469.25534 -849.76659" />
    <path d="M -1611.7924 -62.04836 L -1325.21191 120.50801" />
    <path d="M -1325.21191 -8.18192 L -1490.37703 -113.39476" />
    <path d="M -1611.7924 -239.41124 L -1325.21191 -56.85486" />
    <path d="M -1325.21191 -185.5448 L -1490.37703 -290.75763" />
    <path d="M -1611.7924 -416.77411 L -1325.21191 -234.21774" />
    <path d="M -1325.21191 -362.90767 L -1490.37703 -468.12051" />
    <path d="M -1611.7924 -594.13699 L -1325.21191 -411.58061" />
    <path d="M -1324.75452 -539.97919 L -1490.37703 -645.48338" />
    <path d="M -151.61091 -323.01271 L -111.05822 -297.17999" />
    <path d="M -154.17727 -442.69568 L -276.22334 -520.44099" />
    <path d="M -397.63871 -469.09459 L -286.53796 -398.32163" />
    <path d="M -158.21053 -316.575 L -111.05822 -286.53822" />
    <path d="M -396.08824 -656.11156 L -111.05822 -474.54287" />
    <path d="M -111.05822 -592.59103 L -274.67287 -696.81619" />
    <path d="M -397.63871 -646.45747 L -111.05822 -463.9011" />
    <path d="M -213.66626 -717.26871 L -111.88984 -652.4355" />
    <path d="M -140.48394 -788.69856 L -276.22334 -875.16674" />
    <path d="M -397.63871 -823.82034 L -272.84463 -744.32451" />
    <path d="M -224.61158 -713.59928 L -111.40172 -641.48279" />
    <path d="M -388.20713 -1005.81692 L -377.2065 -998.80935" />
    <path d="M -343.8729 -977.57531 L -181.70895 -874.27427" />
    <path d="M -397.63871 -1001.18322 L -170.26575 -856.34299" />
    <path d="M -1122.85296 -814.47271 L -973.29851 -864.61099" />
    <path d="M -917.54633 -883.30196 L -848.04951 -906.60084 L -841.00301 -902.11211" />
    <path d="M -1325.21191 -524.92808 L -1325.21191 849.63421 L -1318.16541 854.12294 L -1280.87767 841.62219" />
    <path d="M -1324.8126 -538.98283 L -1325.21191 -524.92808 L -1318.16541 -520.43934 L -1318.16541 854.12294" />
    <path d="M -1122.85296 -814.47271 A 250 179.45482 302.49779 0 0 -1324.8126 -538.98283 L -1317.7661 -534.49409 A 250 179.45482 122.49779 0 1 -1115.80646 -809.98397" />
    <path d="M -426.33346 -1047.98156 L -174.41466 -1132.43759" />
    <path d="M -426.33346 -1047.98156 A 57.5 41.27461 302.49779 0 0 -425.91146 -1041.27196" />
    <path d="M -111.05822 -621.58928 A 600 430.69158 302.49779 0 0 -125.79453 -746.7278" />
    <path d="M -138.70842 -789.29381 A 600 430.69158 302.49779 0 0 -249.47628 -947.18574" />
    <path d="M -111.05822 -135.58253 L -111.05822 -251.06958" />
    <path d="M -111.05822 -279.61242 L -111.05822 -359.21566" />
    <path d="M -111.05822 -450.30031 L -111.05822 -621.58928" />
    <path d="M -1095.57056 -816.76808 L -1058.28283 -793.01519" />
    <path d="M -1078.51873 -786.23109 L -1058.28283 -793.01519" />
    <path d="M -1078.51873 -786.23109 L -1071.47222 -781.74236" />
    <path d="M -796.66877 -873.87049 L -948.59396 -822.93742" />
    <path d="M -974.38557 -814.29075 L -1071.47222 -781.74236" />
    <path d="M -803.71527 -878.35922 L -796.66877 -873.87049 A 57.5 41.27461 122.49779 0 1 -828.91976 -814.52997" />
    <path d="M -803.71527 -878.35922 L -381.99923 -1019.73995 A 57.5 41.27461 302.49779 0 0 -380.97439 -1009.44175 A 57.5 41.27461 302.49779 0 0 -366.34953 -986.84719 L -359.30303 -982.35845 A 57.5 41.27461 302.49779 0 0 -342.70174 -977.53504" />
    <path d="M -374.95273 -1015.25121 L -381.99923 -1019.73995" />
    <path d="M -100.14927 -1107.37934 L -374.95273 -1015.25121 A 57.5 41.27461 302.49779 0 0 -359.30303 -982.35845" />
    <path d="M -100.14927 -1107.37934 L -107.19578 -1111.86808" />
    <path d="M -127.43167 -1105.08397 L -107.19578 -1111.86808" />
    <path d="M -127.43167 -1105.08397 L -164.7194 -1128.83686" />
    <path d="M -144.48351 -1135.62096 L -164.7194 -1128.83686" />
    <path d="M -144.48351 -1135.62096 L -145.02781 -1135.96769" />
    <path d="M -419.28696 -1043.49283 L -426.33346 -1047.98156" />
    <path d="M -419.28696 -1043.49283 L -841.00301 -902.11211" />
    <path d="M -1122.85296 -814.47271 L -1115.80646 -809.98397" />
    <path d="M -1095.57056 -816.76808 L -1115.80646 -809.98397" />
    <path d="M -1317.7661 -534.49409 L -1318.16541 -520.43934" />
    <path d="M -387.03598 -1005.77666 A 57.5 41.27461 122.49779 0 1 -391.02182 -1006.07334" />
    <path d="M -104.01172 -617.10054 A 600 430.69158 302.49779 0 0 -120.3689 -748.54674" />
    <path d="M -133.91558 -790.90061 A 600 430.69158 302.49779 0 0 -245.74662 -945.26541" />
    <path d="M -379.62237 -1004.44978 A 600 430.69158 302.49779 0 0 -387.03598 -1005.77666" />
    <path d="M -104.01172 -617.10054 L -111.05822 -621.58928" />
    <path d="M -104.01172 -131.09379 L -104.01172 -246.58084" />
    <path d="M -104.01172 -275.12368 L -104.01172 -365.10692" />
    <path d="M -104.01172 -452.66266 L -104.01172 -617.10054" />
    <path d="M -144.48351 -1135.62096 A 250 179.45482 122.49779 0 1 -142.96825 -1136.12274" />
    <path d="M 1.94444 -1116.03047 A 250 179.45482 122.49779 0 1 7.45421 -1111.28818" />
    <path d="M -84.98998 -224.41113 A 3.5 2.51237 122.49779 0 1 -89.70344 -220.50942 A 3.5 2.51237 122.49779 1 1 -85.94257 -226.4133 A 3.5 2.51237 122.49779 0 1 -84.98998 -224.41113 Z" />
    <path d="M -84.98998 -268.75185 A 3.5 2.51237 122.49779 0 1 -87.70937 -264.73882" />
    <path d="M -90.64719 -266.61026 A 3.5 2.51237 122.49779 0 1 -85.94257 -270.75402 A 3.5 2.51237 122.49779 0 1 -84.98998 -268.75185" />
    <path d="M -84.98998 -313.09257 A 3.5 2.51237 122.49779 0 1 -89.70344 -309.19085 A 3.5 2.51237 122.49779 1 1 -85.94257 -315.09474 A 3.5 2.51237 122.49779 0 1 -84.98998 -313.09257 Z" />
    <path d="M -84.98998 -357.43329 A 3.5 2.51237 122.49779 0 1 -89.70344 -353.53157 A 3.5 2.51237 122.49779 1 1 -85.94257 -359.43546 A 3.5 2.51237 122.49779 0 1 -84.98998 -357.43329 Z" />
    <path d="M -84.98998 -490.45545 A 3.5 2.51237 122.49779 0 1 -89.70344 -486.55373 A 3.5 2.51237 122.49779 1 1 -85.94257 -492.45761 A 3.5 2.51237 122.49779 0 1 -84.98998 -490.45545 Z" />
    <path d="M -84.98998 -534.79616 A 3.5 2.51237 122.49779 0 1 -89.70344 -530.89445 A 3.5 2.51237 122.49779 0 1 -85.94257 -536.79833 A 3.5 2.51237 122.49779 0 1 -84.98998 -534.79616 Z" />
    <path d="M -84.98998 -579.13688 A 3.5 2.51237 122.49779 0 1 -89.70344 -575.23517 A 3.5 2.51237 122.49779 1 1 -85.94257 -581.13905 A 3.5 2.51237 122.49779 0 1 -84.98998 -579.13688 Z" />
    <path d="M -84.98998 -623.4776 A 3.5 2.51237 122.49779 0 1 -89.70344 -619.57588 A 3.5 2.51237 122.49779 1 1 -85.94257 -625.47977 A 3.5 2.51237 122.49779 0 1 -84.98998 -623.4776 Z" />
    <path d="M -133.79833 -829.48604 A 3.5 2.51237 122.49779 0 1 -130.05345 -834.83728" />
    <path d="M -128.39907 -832.17371 A 3.5 2.51237 122.49779 0 1 -133.09067 -828.66421 A 3.5 2.51237 122.49779 0 1 -133.79833 -829.48604" />
    <path d="M -149.06719 -858.66564 A 3.5 2.51237 122.49779 0 1 -148.89726 -861.94306" />
    <path d="M -145.99444 -858.11288 A 3.5 2.51237 122.49779 0 1 -148.44621 -858.00947 A 3.5 2.51237 122.49779 0 1 -149.06719 -858.66564" />
    <path d="M -91.87161 -659.30786 A 3.5 2.51237 122.49779 0 1 -87.16505 -663.42378 A 3.5 2.51237 122.49779 1 1 -90.92592 -657.51989 A 3.5 2.51237 122.49779 0 1 -91.87161 -659.30786 Z" />
    <path d="M -95.51243 -696.0388 A 3.5 2.51237 122.49779 0 1 -90.82654 -700.36325 A 3.5 2.51237 122.49779 1 1 -94.58741 -694.45937 A 3.5 2.51237 122.49779 0 1 -95.51243 -696.0388 Z" />
    <path d="M -101.56075 -731.59193 A 3.5 2.51237 122.49779 0 1 -96.9092 -736.11822 A 3.5 2.51237 122.49779 0 1 -100.67007 -730.21434 A 3.5 2.51237 122.49779 0 1 -101.56075 -731.59193 Z" />
    <path d="M -120.75045 -798.47848 A 3.5 2.51237 122.49779 0 1 -116.20784 -803.3845 A 3.5 2.51237 122.49779 0 1 -119.96871 -797.48062 A 3.5 2.51237 122.49779 0 1 -120.75045 -798.47848 Z" />
    <path d="M -1095.57056 -806.12631 L -1095.57056 -816.76808" />
    <path d="M -1095.57056 -806.12631 L -1069.22815 -789.34576" />
    <path d="M -1078.51873 -786.23109 A 250 179.45482 302.49779 0 0 -1280.47836 -510.74121 L -1273.43186 -506.25248 L -1273.83117 -492.19772 L -1273.83117 882.36456 L -1111.94401 828.09173 L -1111.94401 256.36308" />
    <path d="M -1280.87767 -496.68646 L -1280.87767 877.87582 L -1273.83117 882.36456" />
    <path d="M -1280.47836 -510.74121 L -1280.87767 -496.68646 L -1273.83117 -492.19772" />
    <path d="M -1273.43186 -506.25248 A 250 179.45482 122.49779 0 1 -1071.47222 -781.74236" />
    <path d="M -1111.94401 -236.08552 A 600 430.69158 122.49779 0 1 -1110.67709 -274.91849" />
    <path d="M -1092.42072 -391.97882 A 600 430.69158 122.49779 0 1 -895.93001 -751.04551" />
    <path d="M -878.84933 -768.70767 A 600 430.69158 122.49779 0 1 -828.91976 -814.52997" />
    <path d="M -1111.94401 127.67315 L -1111.94401 79.00021" />
    <path d="M -1111.94401 -49.68973 L -1111.94401 -98.36267" />
    <path d="M -1111.94401 -227.0526 L -1111.94401 -236.08552" />
    <path d="M -1130.96576 80.67657 A 3.5 2.51237 122.49779 0 1 -1126.2523 76.77485 A 3.5 2.51237 122.49779 0 1 -1130.01316 82.67873 A 3.5 2.51237 122.49779 0 1 -1130.96576 80.67657 Z" />
    <path d="M -1253.59528 166.12895 L -1253.59528 155.48718 L -967.01479 338.04355" />
    <path d="M -1253.59528 155.48718 L -1132.17991 114.78256" />
    <path d="M -1130.96576 -96.68631 A 3.5 2.51237 122.49779 0 1 -1126.2523 -100.58803 A 3.5 2.51237 122.49779 0 1 -1130.01316 -94.68414 A 3.5 2.51237 122.49779 0 1 -1130.96576 -96.68631 Z" />
    <path d="M -1253.59528 -11.23392 L -1253.59528 -21.87569 L -967.01479 160.68068" />
    <path d="M -1253.59528 -21.87569 L -1132.17991 -62.58032" />
    <path d="M -1253.59528 -188.5968 L -1253.59528 -199.23857 L -967.01479 -16.6822" />
    <path d="M -1253.59528 -199.23857 L -1132.17991 -239.94319" />
    <path d="M -1082.1574 -468.443 A 3.5 2.51237 122.49779 0 1 -1086.62594 -465.88585 A 3.5 2.51237 122.49779 0 1 -1082.86507 -471.78973 A 3.5 2.51237 122.49779 0 1 -1082.1574 -468.443 Z" />
    <path d="M -933.50818 -726.72839 A 3.5 2.51237 122.49779 0 1 -937.1328 -725.63757 A 3.5 2.51237 122.49779 0 1 -933.37193 -731.54146 A 3.5 2.51237 122.49779 0 1 -933.50818 -726.72839 Z" />
    <path d="M -960.1902 -693.25407 A 3.5 2.51237 122.49779 0 1 -963.9663 -691.97321 A 3.5 2.51237 122.49779 0 1 -960.20543 -697.8771 A 3.5 2.51237 122.49779 0 1 -960.1902 -693.25407 Z" />
    <path d="M -985.24545 -658.34571 A 3.5 2.51237 122.49779 0 1 -989.16379 -656.86667 A 3.5 2.51237 122.49779 0 1 -985.40292 -662.77055 A 3.5 2.51237 122.49779 0 1 -985.24545 -658.34571 Z" />
    <path d="M -1008.55187 -622.17337 A 3.5 2.51237 122.49779 0 1 -1012.60252 -620.48897 A 3.5 2.51237 122.49779 0 1 -1008.84165 -626.39286 A 3.5 2.51237 122.49779 0 1 -1008.55187 -622.17337 Z" />
    <path d="M -1029.99591 -584.91329 A 3.5 2.51237 122.49779 0 1 -1034.16831 -583.01736 A 3.5 2.51237 122.49779 1 1 -1030.40744 -588.92124 A 3.5 2.51237 122.49779 0 1 -1029.99591 -584.91329 Z" />
    <path d="M -1049.4731 -546.74698 A 3.5 2.51237 122.49779 0 1 -1053.75607 -544.63438 A 3.5 2.51237 122.49779 0 1 -1049.9952 -550.53826 A 3.5 2.51237 122.49779 0 1 -1049.4731 -546.74698 Z" />
    <path d="M -1066.88854 -507.86041 A 3.5 2.51237 122.49779 0 1 -1071.27039 -505.52703 A 3.5 2.51237 122.49779 0 1 -1067.50952 -511.43092 A 3.5 2.51237 122.49779 0 1 -1066.88854 -507.86041 Z" />
    <path d="M -1124.08412 -270.15287 A 3.5 2.51237 122.49779 0 1 -1128.79068 -266.46998 A 3.5 2.51237 122.49779 0 1 -1125.02981 -272.37387 A 3.5 2.51237 122.49779 0 1 -1124.08412 -270.15287 Z" />
    <path d="M -1095.20529 -428.68681 A 3.5 2.51237 122.49779 0 1 -1099.74789 -425.90395 A 3.5 2.51237 122.49779 0 1 -1095.98703 -431.80784 A 3.5 2.51237 122.49779 0 1 -1095.20529 -428.68681 Z" />
    <path d="M -1253.59528 -365.95967 L -1253.59528 -376.60144 L -967.01479 -194.04507" />
    <path d="M -1253.59528 -376.60144 L -1132.17991 -417.30607" />
    <path d="M -796.79756 -870.03662 L -380.97439 -1009.44175" />
    <path d="M -59.67749 -588.85893 A 600 430.69158 302.49779 0 0 -88.32245 -759.29035" />
    <path d="M -106.06174 -800.23864 A 600 430.69158 302.49779 0 0 -222.97871 -932.08773 A 600 430.69158 302.49779 0 0 -342.70174 -977.53504" />
    <path d="M -59.67749 -102.85217 L -59.67749 -218.33923" />
    <path d="M -59.67749 -246.88206 L -59.67749 -420.63035" />
    <path d="M -59.67749 -467.52575 L -59.67749 -588.85893 L -66.72399 -593.34766 A 600 430.69158 302.49779 0 0 -93.16858 -757.66568" />
    <path d="M 102.20967 -953.51679 L 102.20967 -876.91292" />
    <path d="M 102.20967 -682.77178 L 102.20967 -634.09884" />
    <path d="M 102.20967 -474.90318 L 102.20967 -456.73596" />
    <path d="M 102.20967 -328.04603 L 102.20967 -279.37309" />
    <path d="M 102.20967 -150.68315 L 102.20967 -143.90025" />
    <path d="M 102.20967 -118.04085 L 102.20967 0.27255" />
    <path d="M 101.81036 -967.3038 L 102.20967 -953.51679" />
    <path d="M -100.14927 -1107.37934 A 250 179.45482 122.49779 0 1 34.1675 -1096.52879 A 250 179.45482 122.49779 0 1 101.81036 -967.3038" />
    <path d="M -40.65574 -196.16951 A 3.5 2.51237 122.49779 0 1 -45.3692 -192.2678 A 3.5 2.51237 122.49779 1 1 -41.60833 -198.17168 A 3.5 2.51237 122.49779 0 1 -40.65574 -196.16951 Z" />
    <path d="M -40.65574 -240.51023 A 3.5 2.51237 122.49779 0 1 -43.37513 -236.4972" />
    <path d="M -46.31295 -238.36864 A 3.5 2.51237 122.49779 0 1 -41.60833 -242.5124 A 3.5 2.51237 122.49779 0 1 -40.65574 -240.51023" />
    <path d="M -40.65574 -284.85095 A 3.5 2.51237 122.49779 0 1 -45.3692 -280.94923 A 3.5 2.51237 122.49779 1 1 -41.60833 -286.85312 A 3.5 2.51237 122.49779 0 1 -40.65574 -284.85095 Z" />
    <path d="M -40.65574 -329.19167 A 3.5 2.51237 122.49779 0 1 -45.3692 -325.28995 A 3.5 2.51237 122.49779 1 1 -41.60833 -331.19384 A 3.5 2.51237 122.49779 0 1 -40.65574 -329.19167 Z" />
    <path d="M -40.65574 -373.53239 A 3.5 2.51237 122.49779 0 1 -45.3692 -369.63067 A 3.5 2.51237 122.49779 1 1 -41.60833 -375.53456 A 3.5 2.51237 122.49779 0 1 -40.65574 -373.53239 Z" />
    <path d="M -39.44159 -251.55905 L 81.97378 -292.26368" />
    <path d="M -39.44159 -240.91728 L -39.44159 -251.55905 L 165.6725 -120.89808" />
    <path d="M -40.65574 -417.87311 A 3.5 2.51237 122.49779 0 1 -45.3692 -413.97139 A 3.5 2.51237 122.49779 1 1 -41.60833 -419.87528 A 3.5 2.51237 122.49779 0 1 -40.65574 -417.87311 Z" />
    <path d="M -40.65574 -506.55455 A 3.5 2.51237 122.49779 0 1 -45.3692 -502.65283 A 3.5 2.51237 122.49779 0 1 -41.60833 -508.55671 A 3.5 2.51237 122.49779 0 1 -40.65574 -506.55455 Z" />
    <path d="M -40.65574 -550.89526 A 3.5 2.51237 122.49779 0 1 -45.3692 -546.99355 A 3.5 2.51237 122.49779 1 1 -41.60833 -552.89743 A 3.5 2.51237 122.49779 0 1 -40.65574 -550.89526 Z" />
    <path d="M -40.65574 -595.23598 A 3.5 2.51237 122.49779 0 1 -45.3692 -591.33427 A 3.5 2.51237 122.49779 1 1 -41.60833 -597.23815 A 3.5 2.51237 122.49779 0 1 -40.65574 -595.23598 Z" />
    <path d="M -39.44159 -418.28015 L -39.44159 -427.41445" />
    <path d="M -39.44159 -606.2848 L 81.97378 -646.98943" />
    <path d="M -39.44159 -595.64303 L -39.44159 -606.2848 L 96.29781 -519.81663" />
    <path d="M -238.11332 -959.86021 A 3.5 2.51237 122.49779 0 1 -238.24957 -959.93888 A 3.5 2.51237 122.49779 0 1 -234.4887 -965.84276 A 3.5 2.51237 122.49779 0 1 -238.11332 -959.86021 Z" />
    <path d="M -211.4313 -944.27624 A 3.5 2.51237 122.49779 0 1 -207.6552 -950.17031 A 3.5 2.51237 122.49779 0 1 -211.41607 -944.26643 A 3.5 2.51237 122.49779 0 1 -211.4313 -944.27624 Z" />
    <path d="M -186.37605 -926.16747 A 3.5 2.51237 122.49779 0 1 -182.45771 -931.95874 A 3.5 2.51237 122.49779 0 1 -186.21858 -926.05485 A 3.5 2.51237 122.49779 0 1 -186.37605 -926.16747 Z" />
    <path d="M -163.06963 -905.62213 A 3.5 2.51237 122.49779 0 1 -159.01898 -911.29676 A 3.5 2.51237 122.49779 1 1 -162.77985 -905.39287 A 3.5 2.51237 122.49779 0 1 -163.06963 -905.62213 Z" />
    <path d="M -141.62559 -882.74032 A 3.5 2.51237 122.49779 0 1 -137.45319 -888.28504 A 3.5 2.51237 122.49779 1 1 -141.21406 -882.38116 A 3.5 2.51237 122.49779 0 1 -141.62559 -882.74032 Z" />
    <path d="M -122.1484 -857.63351 A 3.5 2.51237 122.49779 0 1 -117.86543 -863.0357 A 3.5 2.51237 122.49779 0 1 -121.6263 -857.13181 A 3.5 2.51237 122.49779 0 1 -122.1484 -857.63351 Z" />
    <path d="M -104.73296 -830.42403 A 3.5 2.51237 122.49779 0 1 -100.35111 -835.67174 A 3.5 2.51237 122.49779 0 1 -104.11198 -829.76785 A 3.5 2.51237 122.49779 0 1 -104.73296 -830.42403 Z" />
    <path d="M -47.53738 -631.06624 A 3.5 2.51237 122.49779 0 1 -42.83082 -635.18216 A 3.5 2.51237 122.49779 1 1 -46.59169 -629.27827 A 3.5 2.51237 122.49779 0 1 -47.53738 -631.06624 Z" />
    <path d="M -51.1782 -667.79719 A 3.5 2.51237 122.49779 0 1 -46.49231 -672.12163 A 3.5 2.51237 122.49779 1 1 -50.25318 -666.21775 A 3.5 2.51237 122.49779 0 1 -51.1782 -667.79719 Z" />
    <path d="M -57.22652 -703.35032 A 3.5 2.51237 122.49779 0 1 -52.57497 -707.8766 A 3.5 2.51237 122.49779 0 1 -56.33584 -701.97272 A 3.5 2.51237 122.49779 0 1 -57.22652 -703.35032 Z" />
    <path d="M -65.65287 -737.55242 A 3.5 2.51237 122.49779 0 1 -61.04916 -742.27288 A 3.5 2.51237 122.49779 0 1 -64.81003 -736.36899 A 3.5 2.51237 122.49779 0 1 -65.65287 -737.55242 Z" />
    <path d="M -39.44159 -773.0059 L -39.44159 -775.67771" />
    <path d="M 27.121 -1101.01752 A 250 179.45482 302.49779 0 0 -107.19578 -1111.86808" />
    <path d="M -110.21371 -798.84669 A 600 430.69158 302.49779 0 0 -226.51712 -934.30829" />
    <path d="M -66.72399 -107.34091 L -66.72399 -222.82796" />
    <path d="M -66.72399 -251.3708 L -66.72399 -418.268" />
    <path d="M -66.72399 -465.16341 L -66.72399 -593.34766" />
    <path d="M -1253.59528 166.12895 L -967.01479 348.68533" />
    <path d="M -967.01479 219.99539 L -1132.17991 114.78256" />
    <path d="M -1253.59528 -11.23392 L -967.01479 171.32245" />
    <path d="M -967.01479 42.63252 L -1132.17991 -62.58032" />
    <path d="M -1253.59528 -188.5968 L -967.01479 -6.04042" />
    <path d="M -967.01479 -134.73036 L -1132.17991 -239.94319" />
    <path d="M -1253.59528 -365.95967 L -967.01479 -183.4033" />
    <path d="M -966.5574 -311.80187 L -1132.17991 -417.30607" />
    <path d="M 207.62343 -94.17467 L 247.1389 -69.00268" />
    <path d="M 247.1389 -187.05084 L 81.97378 -292.26368" />
    <path d="M -39.44159 -240.91728 L 136.6831 -128.72303" />
    <path d="M 187.89519 -96.1001 L 247.1389 -58.36091" />
    <path d="M -37.89111 -427.93425 L 247.1389 -246.36555" />
    <path d="M 247.1389 -364.41372 L 83.52425 -468.63887" />
    <path d="M -39.44159 -418.28015 L 247.1389 -235.72378" />
    <path d="M 144.53086 -489.0914 L 246.30728 -424.25819" />
    <path d="M 217.71318 -560.52125 L 81.97378 -646.98943" />
    <path d="M -39.44159 -595.64303 L 85.35249 -516.1472" />
    <path d="M 133.58554 -485.42197 L 246.7954 -413.30547" />
    <path d="M -30.01001 -777.63961 L -19.00938 -770.63203" />
    <path d="M 14.32422 -749.39799 L 176.48818 -646.09695" />
    <path d="M -39.44159 -773.0059 L 187.93137 -628.16568" />
    <path d="M -764.65584 -586.29539 L -681.21543 -614.26887" />
    <path d="M -651.85844 -624.11083 L -489.85239 -678.42352 L -482.80589 -673.93479" />
    <path d="M -967.01479 -296.75076 L -967.01479 1077.81152 L -959.96828 1082.30025 L -922.68055 1069.7995" />
    <path d="M -966.61548 -310.80551 L -967.01479 -296.75076 L -959.96828 -292.26203 L -959.96828 1082.30025" />
    <path d="M -764.65584 -586.29539 A 250 179.45482 302.49779 0 0 -966.61548 -310.80551 L -959.56898 -306.31678 L -959.96828 -292.26203" />
    <path d="M -68.13634 -819.80425 L 206.66711 -911.93238" />
    <path d="M -68.13634 -819.80425 A 57.5 41.27461 302.49779 0 0 -67.71434 -813.09464" />
    <path d="M 247.1389 -393.41196 A 600 430.69158 302.49779 0 0 232.4026 -518.55048" />
    <path d="M 219.4887 -561.11649 A 600 430.69158 302.49779 0 0 108.72084 -719.00843" />
    <path d="M 247.1389 670.76529 L 247.1389 528.33186" />
    <path d="M 247.1389 92.59479 L 247.1389 -93.10363" />
    <path d="M 247.1389 -113.53578 L 247.1389 -393.41196" />
    <path d="M 340.98388 -901.08183 A 250 179.45482 302.49779 0 0 206.66711 -911.93238" />
    <path d="M -737.37344 -588.59076 L -700.08571 -564.83788" />
    <path d="M -720.3216 -558.05378 L -700.08571 -564.83788" />
    <path d="M -720.3216 -558.05378 L -713.2751 -553.56504" />
    <path d="M -438.47165 -645.69317 L -600.47771 -591.38048" />
    <path d="M -629.8347 -581.53852 L -713.2751 -553.56504" />
    <path d="M -445.51815 -650.18191 L -438.47165 -645.69317 A 57.5 41.27461 122.49779 0 1 -470.72264 -586.35266" />
    <path d="M -445.51815 -650.18191 L -23.80211 -791.56263 A 57.5 41.27461 302.49779 0 0 -22.77727 -781.26444 A 57.5 41.27461 302.49779 0 0 -8.1524 -758.66987 L -1.1059 -754.18114 A 57.5 41.27461 302.49779 0 0 15.49538 -749.35773" />
    <path d="M -16.7556 -787.0739 L -23.80211 -791.56263" />
    <path d="M 258.04785 -879.20203 L -16.7556 -787.0739 A 57.5 41.27461 302.49779 0 0 -1.1059 -754.18114" />
    <path d="M 258.04785 -879.20203 L 251.00135 -883.69076" />
    <path d="M 230.76545 -876.90666 L 251.00135 -883.69076" />
    <path d="M 230.76545 -876.90666 L 193.47772 -900.65954" />
    <path d="M 213.71361 -907.44365 L 193.47772 -900.65954" />
    <path d="M 213.71361 -907.44365 L 206.66711 -911.93238" />
    <path d="M -61.08984 -815.31552 L -68.13634 -819.80425" />
    <path d="M -61.08984 -815.31552 L -482.80589 -673.93479" />
    <path d="M -764.65584 -586.29539 L -757.60934 -581.80666" />
    <path d="M -737.37344 -588.59076 L -757.60934 -581.80666" />
    <path d="M -959.56898 -306.31678 A 250 179.45482 122.49779 0 1 -757.60934 -581.80666" />
    <path d="M -28.83886 -777.59935 A 57.5 41.27461 122.49779 0 1 -32.8247 -777.89602" />
    <path d="M 254.1854 -388.92323 A 600 430.69158 302.49779 0 0 237.82822 -520.36943" />
    <path d="M 224.28154 -562.7233 A 600 430.69158 302.49779 0 0 112.4505 -717.0881" />
    <path d="M -21.42525 -776.27247 A 600 430.69158 302.49779 0 0 -28.83886 -777.59935" />
    <path d="M 254.1854 -388.92323 L 247.1389 -393.41196" />
    <path d="M 254.1854 675.25402 L 247.1389 670.76529" />
    <path d="M 254.1854 675.25402 L 254.1854 525.96952" />
    <path d="M 254.1854 97.08352 L 254.1854 -93.29331" />
    <path d="M 254.1854 -113.75268 L 254.1854 -388.92323" />
    <path d="M 291.47314 662.75327 L 254.1854 675.25402" />
    <path d="M 213.71361 -907.44365 A 250 179.45482 122.49779 0 1 348.03038 -896.59309 A 250 179.45482 122.49779 0 1 365.65134 -883.11086" />
    <path d="M 273.20714 3.76618 A 3.5 2.51237 122.49779 0 1 268.49368 7.6679 A 3.5 2.51237 122.49779 1 1 272.25455 1.76401 A 3.5 2.51237 122.49779 0 1 273.20714 3.76618 Z" />
    <path d="M 273.20714 -40.57454 A 3.5 2.51237 122.49779 0 1 268.49368 -36.67282 A 3.5 2.51237 122.49779 1 1 272.25455 -42.57671 A 3.5 2.51237 122.49779 0 1 273.20714 -40.57454 Z" />
    <path d="M 273.20714 -84.91526 A 3.5 2.51237 122.49779 0 1 268.49368 -81.01354 A 3.5 2.51237 122.49779 1 1 272.25455 -86.91742 A 3.5 2.51237 122.49779 0 1 273.20714 -84.91526 Z" />
    <path d="M 273.20714 -129.25597 A 3.5 2.51237 122.49779 0 1 268.49368 -125.35426 A 3.5 2.51237 122.49779 1 1 272.25455 -131.25814 A 3.5 2.51237 122.49779 0 1 273.20714 -129.25597 Z" />
    <path d="M 273.20714 -173.59669 A 3.5 2.51237 122.49779 0 1 268.49368 -169.69498 A 3.5 2.51237 122.49779 1 1 272.25455 -175.59886 A 3.5 2.51237 122.49779 0 1 273.20714 -173.59669 Z" />
    <path d="M 273.20714 -217.93741 A 3.5 2.51237 122.49779 0 1 268.49368 -214.0357 A 3.5 2.51237 122.49779 1 1 272.25455 -219.93958 A 3.5 2.51237 122.49779 0 1 273.20714 -217.93741 Z" />
    <path d="M 273.20714 -262.27813 A 3.5 2.51237 122.49779 0 1 268.49368 -258.37641 A 3.5 2.51237 122.49779 1 1 272.25455 -264.2803 A 3.5 2.51237 122.49779 0 1 273.20714 -262.27813 Z" />
    <path d="M 273.20714 -306.61885 A 3.5 2.51237 122.49779 0 1 268.49368 -302.71713 A 3.5 2.51237 122.49779 0 1 272.25455 -308.62102 A 3.5 2.51237 122.49779 0 1 273.20714 -306.61885 Z" />
    <path d="M 273.20714 -350.95957 A 3.5 2.51237 122.49779 0 1 268.49368 -347.05785 A 3.5 2.51237 122.49779 1 1 272.25455 -352.96174 A 3.5 2.51237 122.49779 0 1 273.20714 -350.95957 Z" />
    <path d="M 273.20714 -395.30029 A 3.5 2.51237 122.49779 0 1 268.49368 -391.39857 A 3.5 2.51237 122.49779 1 1 272.25455 -397.30246 A 3.5 2.51237 122.49779 0 1 273.20714 -395.30029 Z" />
    <path d="M 224.39879 -601.30873 A 3.5 2.51237 122.49779 0 1 228.14367 -606.65997" />
    <path d="M 229.79805 -603.9964 A 3.5 2.51237 122.49779 0 1 225.10645 -600.4869 A 3.5 2.51237 122.49779 0 1 224.39879 -601.30873" />
    <path d="M 209.12993 -630.48833 A 3.5 2.51237 122.49779 0 1 209.29987 -633.76575" />
    <path d="M 212.20269 -629.93557 A 3.5 2.51237 122.49779 0 1 209.75091 -629.83216 A 3.5 2.51237 122.49779 0 1 209.12993 -630.48833" />
    <path d="M 266.32551 -431.13055 A 3.5 2.51237 122.49779 0 1 271.03207 -435.24646 A 3.5 2.51237 122.49779 1 1 267.2712 -429.34258 A 3.5 2.51237 122.49779 0 1 266.32551 -431.13055 Z" />
    <path d="M 262.68469 -467.86149 A 3.5 2.51237 122.49779 0 1 267.37058 -472.18594 A 3.5 2.51237 122.49779 1 1 263.60971 -466.28205 A 3.5 2.51237 122.49779 0 1 262.68469 -467.86149 Z" />
    <path d="M 256.63637 -503.41462 A 3.5 2.51237 122.49779 0 1 261.28792 -507.94091 A 3.5 2.51237 122.49779 0 1 257.52705 -502.03702 A 3.5 2.51237 122.49779 0 1 256.63637 -503.41462 Z" />
    <path d="M 237.44668 -570.30117 A 3.5 2.51237 122.49779 0 1 241.98928 -575.20719 A 3.5 2.51237 122.49779 0 1 238.22841 -569.3033 A 3.5 2.51237 122.49779 0 1 237.44668 -570.30117 Z" />
    <path d="M -737.37344 -577.94899 L -737.37344 -588.59076" />
    <path d="M -737.37344 -577.94899 L -711.03103 -561.16845" />
    <path d="M -720.3216 -558.05378 A 250 179.45482 302.49779 0 0 -922.28124 -282.5639 L -915.23474 -278.07516 L -915.63405 -264.02041 L -915.63405 1110.54187 L -753.74689 1056.26904 L -753.74689 484.5404" />
    <path d="M -922.68055 -268.50914 L -922.68055 1106.05314 L -915.63405 1110.54187" />
    <path d="M -922.28124 -282.5639 L -922.68055 -268.50914 L -915.63405 -264.02041" />
    <path d="M -915.23474 -278.07516 A 250 179.45482 122.49779 0 1 -713.2751 -553.56504" />
    <path d="M -753.74689 -7.90821 A 600 430.69158 122.49779 0 1 -752.47997 -46.74118" />
    <path d="M -734.22359 -163.80151 A 600 430.69158 122.49779 0 1 -537.73289 -522.86819" />
    <path d="M -520.65221 -540.53036 A 600 430.69158 122.49779 0 1 -470.72264 -586.35266" />
    <path d="M -753.74689 355.85046 L -753.74689 307.17752" />
    <path d="M -753.74689 178.48759 L -753.74689 129.81465" />
    <path d="M -753.74689 1.12471 L -753.74689 -7.90821" />
    <path d="M -772.76863 308.85388 A 3.5 2.51237 122.49779 0 1 -768.05517 304.95216 A 3.5 2.51237 122.49779 0 1 -771.81604 310.85605 A 3.5 2.51237 122.49779 0 1 -772.76863 308.85388 Z" />
    <path d="M -895.39816 394.30627 L -895.39816 383.6645 L -608.81766 566.22087" />
    <path d="M -895.39816 383.6645 L -773.98279 342.95987" />
    <path d="M -772.76863 131.49101 A 3.5 2.51237 122.49779 0 1 -768.05517 127.58929 A 3.5 2.51237 122.49779 0 1 -771.81604 133.49317 A 3.5 2.51237 122.49779 0 1 -772.76863 131.49101 Z" />
    <path d="M -895.39816 216.94339 L -895.39816 206.30162 L -608.81766 388.85799" />
    <path d="M -895.39816 206.30162 L -773.98279 165.597" />
    <path d="M -895.39816 39.58052 L -895.39816 28.93875 L -608.81766 211.49512" />
    <path d="M -895.39816 28.93875 L -773.98279 -11.76588" />
    <path d="M -723.96028 -240.26569 A 3.5 2.51237 122.49779 0 1 -728.42881 -237.70853 A 3.5 2.51237 122.49779 0 1 -724.66795 -243.61242 A 3.5 2.51237 122.49779 0 1 -723.96028 -240.26569 Z" />
    <path d="M -575.31106 -498.55107 A 3.5 2.51237 122.49779 0 1 -578.93568 -497.46026 A 3.5 2.51237 122.49779 0 1 -575.17481 -503.36415 A 3.5 2.51237 122.49779 0 1 -575.31106 -498.55107 Z" />
    <path d="M -601.99308 -465.07676 A 3.5 2.51237 122.49779 0 1 -605.76918 -463.7959 A 3.5 2.51237 122.49779 0 1 -602.00831 -469.69978 A 3.5 2.51237 122.49779 0 1 -601.99308 -465.07676 Z" />
    <path d="M -627.04833 -430.16839 A 3.5 2.51237 122.49779 0 1 -630.96667 -428.68935 A 3.5 2.51237 122.49779 0 1 -627.2058 -434.59324 A 3.5 2.51237 122.49779 0 1 -627.04833 -430.16839 Z" />
    <path d="M -650.35474 -393.99605 A 3.5 2.51237 122.49779 0 1 -654.4054 -392.31166 A 3.5 2.51237 122.49779 0 1 -650.64453 -398.21554 A 3.5 2.51237 122.49779 0 1 -650.35474 -393.99605 Z" />
    <path d="M -671.79879 -356.73597 A 3.5 2.51237 122.49779 0 1 -675.97119 -354.84004 A 3.5 2.51237 122.49779 1 1 -672.21032 -360.74393 A 3.5 2.51237 122.49779 0 1 -671.79879 -356.73597 Z" />
    <path d="M -691.27598 -318.56967 A 3.5 2.51237 122.49779 0 1 -695.55895 -316.45706 A 3.5 2.51237 122.49779 0 1 -691.79808 -322.36095 A 3.5 2.51237 122.49779 0 1 -691.27598 -318.56967 Z" />
    <path d="M -708.69142 -279.68309 A 3.5 2.51237 122.49779 0 1 -713.07327 -277.34972 A 3.5 2.51237 122.49779 0 1 -709.3124 -283.2536 A 3.5 2.51237 122.49779 0 1 -708.69142 -279.68309 Z" />
    <path d="M -765.887 -41.97556 A 3.5 2.51237 122.49779 0 1 -770.59356 -38.29267 A 3.5 2.51237 122.49779 0 1 -766.83269 -44.19655 A 3.5 2.51237 122.49779 0 1 -765.887 -41.97556 Z" />
    <path d="M -737.00817 -200.5095 A 3.5 2.51237 122.49779 0 1 -741.55077 -197.72664 A 3.5 2.51237 122.49779 0 1 -737.7899 -203.63053 A 3.5 2.51237 122.49779 0 1 -737.00817 -200.5095 Z" />
    <path d="M -895.39816 -137.78236 L -895.39816 -148.42413 L -608.81766 34.13224" />
    <path d="M -895.39816 -148.42413 L -773.98279 -189.12875" />
    <path d="M -438.60043 -641.85931 L -22.77727 -781.26444" />
    <path d="M 298.51964 -360.68161 A 600 430.69158 302.49779 0 0 269.87467 -531.11303" />
    <path d="M 252.13538 -572.06133 A 600 430.69158 302.49779 0 0 135.21841 -703.91042 A 600 430.69158 302.49779 0 0 15.49538 -749.35773" />
    <path d="M 298.51964 703.49564 L 298.51964 511.10642" />
    <path d="M 298.51964 125.32514 L 298.51964 -97.2105" />
    <path d="M 298.51964 -118.26453 L 298.51964 -360.68161 L 291.47314 -365.17035 A 600 430.69158 302.49779 0 0 265.02854 -529.48836" />
    <path d="M 430.21001 659.34631 L 298.51964 703.49564 L 291.47314 699.0069 L 291.47314 513.46877" />
    <path d="M 460.40679 -725.33947 L 460.40679 -648.73561" />
    <path d="M 460.40679 -454.59446 L 460.40679 -405.92152" />
    <path d="M 460.40679 -277.23159 L 460.40679 -228.55865" />
    <path d="M 460.40679 -99.86871 L 460.40679 -51.19577" />
    <path d="M 460.40679 77.49416 L 460.40679 228.44986" />
    <path d="M 460.40679 456.83359 L 460.40679 615.89832" />
    <path d="M 460.00749 -739.12649 L 460.40679 -725.33947" />
    <path d="M 258.04785 -879.20203 A 250 179.45482 122.49779 0 1 392.36462 -868.35148 A 250 179.45482 122.49779 0 1 460.00749 -739.12649" />
    <path d="M 317.54138 32.0078 A 3.5 2.51237 122.49779 0 1 312.82792 35.90952 A 3.5 2.51237 122.49779 1 1 316.58879 30.00563 A 3.5 2.51237 122.49779 0 1 317.54138 32.0078 Z" />
    <path d="M 317.54138 -12.33292 A 3.5 2.51237 122.49779 0 1 312.82792 -8.4312 A 3.5 2.51237 122.49779 1 1 316.58879 -14.33509 A 3.5 2.51237 122.49779 0 1 317.54138 -12.33292 Z" />
    <path d="M 317.54138 -56.67364 A 3.5 2.51237 122.49779 0 1 312.82792 -52.77192 A 3.5 2.51237 122.49779 1 1 316.58879 -58.67581 A 3.5 2.51237 122.49779 0 1 317.54138 -56.67364 Z" />
    <path d="M 317.49459 -100.4369 A 3.5 2.51237 122.49779 0 1 312.82792 -97.11264 A 3.5 2.51237 122.49779 0 1 311.88523 -99.37745" />
    <path d="M 317.54138 -145.35508 A 3.5 2.51237 122.49779 0 1 312.82792 -141.45336 A 3.5 2.51237 122.49779 1 1 316.58879 -147.35724 A 3.5 2.51237 122.49779 0 1 317.54138 -145.35508 Z" />
    <path d="M 318.75553 -23.38174 L 440.1709 -64.08636" />
    <path d="M 318.75553 -12.73997 L 318.75553 -23.38174 L 605.33602 159.17463" />
    <path d="M 317.54138 -189.69579 A 3.5 2.51237 122.49779 0 1 312.82792 -185.79408 A 3.5 2.51237 122.49779 1 1 316.58879 -191.69796 A 3.5 2.51237 122.49779 0 1 317.54138 -189.69579 Z" />
    <path d="M 317.54138 -234.03651 A 3.5 2.51237 122.49779 0 1 312.82792 -230.1348 A 3.5 2.51237 122.49779 1 1 316.58879 -236.03868 A 3.5 2.51237 122.49779 0 1 317.54138 -234.03651 Z" />
    <path d="M 317.54138 -278.37723 A 3.5 2.51237 122.49779 0 1 312.82792 -274.47551 A 3.5 2.51237 122.49779 0 1 316.58879 -280.3794 A 3.5 2.51237 122.49779 0 1 317.54138 -278.37723 Z" />
    <path d="M 317.54138 -322.71795 A 3.5 2.51237 122.49779 0 1 312.82792 -318.81623 A 3.5 2.51237 122.49779 1 1 316.58879 -324.72012 A 3.5 2.51237 122.49779 0 1 317.54138 -322.71795 Z" />
    <path d="M 317.54138 -367.05867 A 3.5 2.51237 122.49779 0 1 312.82792 -363.15695 A 3.5 2.51237 122.49779 1 1 316.58879 -369.06084 A 3.5 2.51237 122.49779 0 1 317.54138 -367.05867 Z" />
    <path d="M 318.75553 -200.74461 L 440.1709 -241.44924" />
    <path d="M 318.75553 -190.10284 L 318.75553 -200.74461 L 400.6347 -148.58627" />
    <path d="M 318.75553 -378.10749 L 440.1709 -418.81211" />
    <path d="M 318.75553 -367.46571 L 318.75553 -378.10749 L 583.05668 -209.74342" />
    <path d="M 120.08381 -731.6829 A 3.5 2.51237 122.49779 0 1 119.94756 -731.76156 A 3.5 2.51237 122.49779 0 1 123.70842 -737.66545 A 3.5 2.51237 122.49779 0 1 120.08381 -731.6829 Z" />
    <path d="M 146.76582 -716.09892 A 3.5 2.51237 122.49779 0 1 150.54192 -721.993 A 3.5 2.51237 122.49779 0 1 146.78105 -716.08911 A 3.5 2.51237 122.49779 0 1 146.76582 -716.09892 Z" />
    <path d="M 171.82107 -697.99015 A 3.5 2.51237 122.49779 0 1 175.73941 -703.78142 A 3.5 2.51237 122.49779 0 1 171.97854 -697.87754 A 3.5 2.51237 122.49779 0 1 171.82107 -697.99015 Z" />
    <path d="M 195.12749 -677.44482 A 3.5 2.51237 122.49779 0 1 199.17815 -683.11944 A 3.5 2.51237 122.49779 1 1 195.41728 -677.21556 A 3.5 2.51237 122.49779 0 1 195.12749 -677.44482 Z" />
    <path d="M 216.57153 -654.563 A 3.5 2.51237 122.49779 0 1 220.74393 -660.10773 A 3.5 2.51237 122.49779 1 1 216.98306 -654.20384 A 3.5 2.51237 122.49779 0 1 216.57153 -654.563 Z" />
    <path d="M 236.04872 -629.4562 A 3.5 2.51237 122.49779 0 1 240.33169 -634.85838 A 3.5 2.51237 122.49779 0 1 236.57083 -628.9545 A 3.5 2.51237 122.49779 0 1 236.04872 -629.4562 Z" />
    <path d="M 253.46417 -602.24671 A 3.5 2.51237 122.49779 0 1 257.84601 -607.49442 A 3.5 2.51237 122.49779 0 1 254.08514 -601.59054 A 3.5 2.51237 122.49779 0 1 253.46417 -602.24671 Z" />
    <path d="M 310.65975 -402.88893 A 3.5 2.51237 122.49779 0 1 315.3663 -407.00485 A 3.5 2.51237 122.49779 1 1 311.60544 -401.10096 A 3.5 2.51237 122.49779 0 1 310.65975 -402.88893 Z" />
    <path d="M 307.01893 -439.61987 A 3.5 2.51237 122.49779 0 1 311.70482 -443.94432 A 3.5 2.51237 122.49779 1 1 307.94395 -438.04043 A 3.5 2.51237 122.49779 0 1 307.01893 -439.61987 Z" />
    <path d="M 300.9706 -475.173 A 3.5 2.51237 122.49779 0 1 305.62216 -479.69929 A 3.5 2.51237 122.49779 0 1 301.86129 -473.7954 A 3.5 2.51237 122.49779 0 1 300.9706 -475.173 Z" />
    <path d="M 292.54425 -509.3751 A 3.5 2.51237 122.49779 0 1 297.14796 -514.09557 A 3.5 2.51237 122.49779 0 1 293.38709 -508.19168 A 3.5 2.51237 122.49779 0 1 292.54425 -509.3751 Z" />
    <path d="M 318.75553 -544.82859 L 318.75553 -547.50039" />
    <path d="M 385.31812 -872.84021 A 250 179.45482 302.49779 0 0 251.00135 -883.69076" />
    <path d="M 247.98341 -570.66937 A 600 430.69158 302.49779 0 0 131.68 -706.13098" />
    <path d="M 291.47314 120.83641 L 291.47314 -96.26124" />
    <path d="M 291.47314 -117.1652 L 291.47314 -365.17035" />
    <path d="M -895.39816 394.30627 L -608.81766 576.86264" />
    <path d="M -608.81766 448.17271 L -773.98279 342.95987" />
    <path d="M -895.39816 216.94339 L -608.81766 399.49977" />
    <path d="M -608.81766 270.80983 L -773.98279 165.597" />
    <path d="M -895.39816 39.58052 L -608.81766 222.13689" />
    <path d="M -608.81766 93.44696 L -773.98279 -11.76588" />
    <path d="M -895.39816 -137.78236 L -608.81766 44.77402" />
    <path d="M -608.36028 -83.62456 L -773.98279 -189.12875" />
    <path d="M 605.33602 41.12647 L 440.1709 -64.08636" />
    <path d="M 318.75553 -12.73997 L 605.33602 169.81641" />
    <path d="M 424.43601 -133.42445 L 605.33602 -18.18824" />
    <path d="M 605.33602 -136.2364 L 545.85138 -174.12907" />
    <path d="M 522.05007 -189.29089 L 440.1709 -241.44924" />
    <path d="M 318.75553 -190.10284 L 389.68938 -144.91684" />
    <path d="M 413.49069 -129.75502 L 605.33602 -7.54647" />
    <path d="M 578.48537 -330.70357 L 440.1709 -418.81211" />
    <path d="M 318.75553 -367.46571 L 572.11136 -206.07399" />
    <path d="M 595.91267 -190.91217 L 604.99252 -185.12816" />
    <path d="M 328.18711 -549.4623 L 339.18774 -542.45472" />
    <path d="M 372.52134 -521.22068 L 534.6853 -417.91964" />
    <path d="M 318.75553 -544.82859 L 546.1285 -399.98836" />
    <path d="M -406.45872 -358.11808 L -323.01831 -386.09156" />
    <path d="M -293.66132 -395.93352 L -131.65527 -450.24621 L -124.60876 -445.75748" />
    <path d="M -608.81766 -68.57345 L -608.81766 1305.98883 L -601.77116 1310.47757 L -564.48343 1297.97682" />
    <path d="M -608.41836 -82.6282 L -608.81766 -68.57345 L -601.77116 -64.08471 L -601.77116 1310.47757" />
    <path d="M -406.45872 -358.11808 A 250 179.45482 302.49779 0 0 -608.41836 -82.6282 L -601.37185 -78.13947 L -601.77116 -64.08471" />
    <path d="M 290.06078 -591.62694 L 564.86423 -683.75507" />
    <path d="M 290.06078 -591.62694 A 57.5 41.27461 302.49779 0 0 290.48278 -584.91733" />
    <path d="M 605.33602 -165.23465 A 600 430.69158 302.49779 0 0 604.62227 -193.83208" />
    <path d="M 603.01321 -216.43386 A 600 430.69158 302.49779 0 0 466.91796 -490.83111" />
    <path d="M 605.33602 559.44664 L 605.33602 408.24592" />
    <path d="M 605.33602 320.7721 L 605.33602 -165.23465" />
    <path d="M 699.181 -672.90451 A 250 179.45482 302.49779 0 0 564.86423 -683.75507" />
    <path d="M -379.17632 -360.41345 L -341.88859 -336.66057" />
    <path d="M -362.12448 -329.87646 L -341.88859 -336.66057" />
    <path d="M -362.12448 -329.87646 L -355.07798 -325.38773" />
    <path d="M -80.27453 -417.51586 L -242.28058 -363.20317" />
    <path d="M -271.63758 -353.36121 L -355.07798 -325.38773" />
    <path d="M -87.32103 -422.00459 L -80.27453 -417.51586 A 57.5 41.27461 122.49779 0 1 -112.52551 -358.17534" />
    <path d="M -87.32103 -422.00459 L 334.39502 -563.38532 A 57.5 41.27461 302.49779 0 0 335.41985 -553.08712 A 57.5 41.27461 302.49779 0 0 350.04472 -530.49256 L 357.09122 -526.00382 A 57.5 41.27461 302.49779 0 0 373.6925 -521.18041" />
    <path d="M 341.44152 -558.89658 L 334.39502 -563.38532" />
    <path d="M 616.24497 -651.02471 L 341.44152 -558.89658 A 57.5 41.27461 302.49779 0 0 357.09122 -526.00382" />
    <path d="M 616.24497 -651.02471 L 609.19847 -655.51345" />
    <path d="M 588.96257 -648.72934 L 609.19847 -655.51345" />
    <path d="M 588.96257 -648.72934 L 551.67484 -672.48223" />
    <path d="M 571.91073 -679.26633 L 551.67484 -672.48223" />
    <path d="M 571.91073 -679.26633 L 564.86423 -683.75507" />
    <path d="M 297.10728 -587.1382 L 290.06078 -591.62694" />
    <path d="M 297.10728 -587.1382 L -124.60876 -445.75748" />
    <path d="M -406.45872 -358.11808 L -399.41222 -353.62935" />
    <path d="M -379.17632 -360.41345 L -399.41222 -353.62935" />
    <path d="M -601.37185 -78.13947 A 250 179.45482 122.49779 0 1 -399.41222 -353.62935" />
    <path d="M 329.35827 -549.42203 A 57.5 41.27461 122.49779 0 1 325.37242 -549.71871" />
    <path d="M 612.38252 -160.74592 A 600 430.69158 302.49779 0 0 611.28891 -196.06707" />
    <path d="M 609.40502 -218.57672 A 600 430.69158 302.49779 0 0 470.64763 -488.91078" />
    <path d="M 336.77187 -548.09515 A 600 430.69158 302.49779 0 0 329.35827 -549.42203" />
    <path d="M 612.38252 -160.74592 L 605.33602 -165.23465" />
    <path d="M 612.38252 557.99435 L 612.38252 405.88357" />
    <path d="M 612.38252 325.26084 L 612.38252 -160.74592" />
    <path d="M 571.91073 -679.26633 A 250 179.45482 122.49779 0 1 706.2275 -668.41578 A 250 179.45482 122.49779 0 1 723.84846 -654.93355" />
    <path d="M 631.40426 231.9435 A 3.5 2.51237 122.49779 0 1 626.6908 235.84521 A 3.5 2.51237 122.49779 1 1 630.45167 229.94133 A 3.5 2.51237 122.49779 0 1 631.40426 231.9435 Z" />
    <path d="M 631.40426 187.60278 A 3.5 2.51237 122.49779 0 1 626.6908 191.50449 A 3.5 2.51237 122.49779 1 1 630.45167 185.60061 A 3.5 2.51237 122.49779 0 1 631.40426 187.60278 Z" />
    <path d="M 631.40426 143.26206 A 3.5 2.51237 122.49779 0 1 626.6908 147.16378 A 3.5 2.51237 122.49779 1 1 630.45167 141.25989 A 3.5 2.51237 122.49779 0 1 631.40426 143.26206 Z" />
    <path d="M 631.40426 98.92134 A 3.5 2.51237 122.49779 0 1 626.6908 102.82306 A 3.5 2.51237 122.49779 1 1 630.45167 96.91917 A 3.5 2.51237 122.49779 0 1 631.40426 98.92134 Z" />
    <path d="M 631.40426 54.58062 A 3.5 2.51237 122.49779 0 1 626.6908 58.48234 A 3.5 2.51237 122.49779 1 1 630.45167 52.57845 A 3.5 2.51237 122.49779 0 1 631.40426 54.58062 Z" />
    <path d="M 631.40426 10.2399 A 3.5 2.51237 122.49779 0 1 626.6908 14.14162 A 3.5 2.51237 122.49779 1 1 630.45167 8.23773 A 3.5 2.51237 122.49779 0 1 631.40426 10.2399 Z" />
    <path d="M 631.40426 -34.10082 A 3.5 2.51237 122.49779 0 1 626.6908 -30.1991 A 3.5 2.51237 122.49779 1 1 630.45167 -36.10298 A 3.5 2.51237 122.49779 0 1 631.40426 -34.10082 Z" />
    <path d="M 631.40426 -78.44154 A 3.5 2.51237 122.49779 0 1 626.6908 -74.53982 A 3.5 2.51237 122.49779 0 1 630.45167 -80.4437 A 3.5 2.51237 122.49779 0 1 631.40426 -78.44154 Z" />
    <path d="M 631.40426 -122.78225 A 3.5 2.51237 122.49779 0 1 626.6908 -118.88054 A 3.5 2.51237 122.49779 1 1 630.45167 -124.78442 A 3.5 2.51237 122.49779 0 1 631.40426 -122.78225 Z" />
    <path d="M 631.40426 -167.12297 A 3.5 2.51237 122.49779 0 1 626.6908 -163.22126 A 3.5 2.51237 122.49779 1 1 630.45167 -169.12514 A 3.5 2.51237 122.49779 0 1 631.40426 -167.12297 Z" />
    <path d="M 582.59591 -373.13141 A 3.5 2.51237 122.49779 0 1 586.34079 -378.48265" />
    <path d="M 587.99517 -375.81908 A 3.5 2.51237 122.49779 0 1 583.30358 -372.30958 A 3.5 2.51237 122.49779 0 1 582.59591 -373.13141" />
    <path d="M 567.32705 -402.31102 A 3.5 2.51237 122.49779 0 1 567.49699 -405.58843" />
    <path d="M 570.39981 -401.75825 A 3.5 2.51237 122.49779 0 1 567.94803 -401.65484 A 3.5 2.51237 122.49779 0 1 567.32705 -402.31102" />
    <path d="M 628.79943 -201.93749 A 3.5 2.51237 122.49779 0 1 625.89808 -200.96481" />
    <path d="M 620.88181 -239.68418 A 3.5 2.51237 122.49779 0 1 625.5677 -244.00862 A 3.5 2.51237 122.49779 1 1 621.80683 -238.10474 A 3.5 2.51237 122.49779 0 1 620.88181 -239.68418 Z" />
    <path d="M 614.83349 -275.23731 A 3.5 2.51237 122.49779 0 1 619.48504 -279.76359 A 3.5 2.51237 122.49779 0 1 615.72417 -273.85971 A 3.5 2.51237 122.49779 0 1 614.83349 -275.23731 Z" />
    <path d="M 606.40714 -309.43941 A 3.5 2.51237 122.49779 0 1 611.01085 -314.15987 A 3.5 2.51237 122.49779 0 1 607.24998 -308.25598 A 3.5 2.51237 122.49779 0 1 606.40714 -309.43941 Z" />
    <path d="M 595.6438 -342.12386 A 3.5 2.51237 122.49779 0 1 600.1864 -347.02987 A 3.5 2.51237 122.49779 0 1 596.42553 -341.12599 A 3.5 2.51237 122.49779 0 1 595.6438 -342.12386 Z" />
    <path d="M -379.17632 -349.77168 L -379.17632 -360.41345" />
    <path d="M -379.17632 -349.77168 L -352.83391 -332.99114" />
    <path d="M -362.12448 -329.87646 A 250 179.45482 302.49779 0 0 -564.08412 -54.38658 L -557.03762 -49.89785 L -557.43693 -35.84309 L -557.43693 1338.71919 L -555.96891 1338.22703" />
    <path d="M -564.08412 -54.38658 L -564.48343 -40.33183 L -557.43693 -35.84309" />
    <path d="M -564.48343 -40.33183 L -564.48343 1334.23045 L -557.43693 1338.71919" />
    <path d="M -557.03762 -49.89785 A 250 179.45482 122.49779 0 1 -355.07798 -325.38773" />
    <path d="M -395.54977 220.26911 A 600 430.69158 122.49779 0 1 -179.53577 -294.69088" />
    <path d="M -162.45509 -312.35305 A 600 430.69158 122.49779 0 1 -112.52551 -358.17534" />
    <path d="M -395.54977 898.29648 L -395.54977 220.26911" />
    <path d="M -414.57151 625.71263 A 3.5 2.51237 122.49779 0 1 -409.85805 621.81091 A 3.5 2.51237 122.49779 0 1 -413.61892 627.7148 A 3.5 2.51237 122.49779 0 1 -414.57151 625.71263 Z" />
    <path d="M -414.57151 581.37191 A 3.5 2.51237 122.49779 0 1 -409.85805 577.4702 A 3.5 2.51237 122.49779 0 1 -413.61892 583.37408 A 3.5 2.51237 122.49779 0 1 -414.57151 581.37191 Z" />
    <path d="M -414.57151 537.03119 A 3.5 2.51237 122.49779 0 1 -409.85805 533.12948 A 3.5 2.51237 122.49779 0 1 -413.61892 539.03336 A 3.5 2.51237 122.49779 0 1 -414.57151 537.03119 Z" />
    <path d="M -414.57151 492.69048 A 3.5 2.51237 122.49779 0 1 -409.85805 488.78876 A 3.5 2.51237 122.49779 0 1 -413.61892 494.69264 A 3.5 2.51237 122.49779 0 1 -414.57151 492.69048 Z" />
    <path d="M -414.57151 448.34976 A 3.5 2.51237 122.49779 0 1 -409.85805 444.44804 A 3.5 2.51237 122.49779 0 1 -413.61892 450.35192 A 3.5 2.51237 122.49779 0 1 -414.57151 448.34976 Z" />
    <path d="M -414.57151 404.00904 A 3.5 2.51237 122.49779 0 1 -409.85805 400.10732 A 3.5 2.51237 122.49779 0 1 -413.61892 406.01121 A 3.5 2.51237 122.49779 0 1 -414.57151 404.00904 Z" />
    <path d="M -414.57151 359.66832 A 3.5 2.51237 122.49779 0 1 -409.85805 355.7666 A 3.5 2.51237 122.49779 0 1 -413.61892 361.67049 A 3.5 2.51237 122.49779 0 1 -414.57151 359.66832 Z" />
    <path d="M -414.57151 315.3276 A 3.5 2.51237 122.49779 0 1 -409.85805 311.42588 A 3.5 2.51237 122.49779 0 1 -413.61892 317.32977 A 3.5 2.51237 122.49779 0 1 -414.57151 315.3276 Z" />
    <path d="M -414.57151 270.98688 A 3.5 2.51237 122.49779 0 1 -409.85805 267.08516 A 3.5 2.51237 122.49779 0 1 -413.61892 272.98905 A 3.5 2.51237 122.49779 0 1 -414.57151 270.98688 Z" />
    <path d="M -414.57151 226.64616 A 3.5 2.51237 122.49779 0 1 -409.85805 222.74445 A 3.5 2.51237 122.49779 0 1 -413.61892 228.64833 A 3.5 2.51237 122.49779 0 1 -414.57151 226.64616 Z" />
    <path d="M -217.11394 -270.37376 A 3.5 2.51237 122.49779 0 1 -220.73856 -269.28295 A 3.5 2.51237 122.49779 0 1 -216.97769 -275.18683 A 3.5 2.51237 122.49779 0 1 -217.11394 -270.37376 Z" />
    <path d="M -243.79596 -236.89944 A 3.5 2.51237 122.49779 0 1 -247.57205 -235.61859 A 3.5 2.51237 122.49779 0 1 -243.81118 -241.52247 A 3.5 2.51237 122.49779 0 1 -243.79596 -236.89944 Z" />
    <path d="M -268.8512 -201.99108 A 3.5 2.51237 122.49779 0 1 -272.76955 -200.51204 A 3.5 2.51237 122.49779 0 1 -269.00868 -206.41592 A 3.5 2.51237 122.49779 0 1 -268.8512 -201.99108 Z" />
    <path d="M -292.15762 -165.81874 A 3.5 2.51237 122.49779 0 1 -296.20828 -164.13434 A 3.5 2.51237 122.49779 0 1 -292.44741 -170.03823 A 3.5 2.51237 122.49779 0 1 -292.15762 -165.81874 Z" />
    <path d="M -407.68988 186.20176 A 3.5 2.51237 122.49779 0 1 -412.39644 189.88465 A 3.5 2.51237 122.49779 0 1 -408.63557 183.98076 A 3.5 2.51237 122.49779 0 1 -407.68988 186.20176 Z" />
    <path d="M -398.00074 107.42109 A 3.5 2.51237 122.49779 0 1 -402.65229 110.65673 A 3.5 2.51237 122.49779 0 1 -398.89142 104.75284 A 3.5 2.51237 122.49779 0 1 -398.00074 107.42109 Z" />
    <path d="M -404.04906 147.02964 A 3.5 2.51237 122.49779 0 1 -408.73495 150.49014 A 3.5 2.51237 122.49779 0 1 -404.97408 144.58625 A 3.5 2.51237 122.49779 0 1 -404.04906 147.02964 Z" />
    <path d="M -365.76316 -12.08837 A 3.5 2.51237 122.49779 0 1 -370.23169 -9.53122 A 3.5 2.51237 122.49779 0 1 -366.47082 -15.4351 A 3.5 2.51237 122.49779 0 1 -365.76316 -12.08837 Z" />
    <path d="M -378.81104 27.66781 A 3.5 2.51237 122.49779 0 1 -383.35365 30.45067 A 3.5 2.51237 122.49779 0 1 -379.59278 24.54679 A 3.5 2.51237 122.49779 0 1 -378.81104 27.66781 Z" />
    <path d="M -389.57438 67.5691 A 3.5 2.51237 122.49779 0 1 -394.1781 70.57849 A 3.5 2.51237 122.49779 0 1 -390.41723 64.6746 A 3.5 2.51237 122.49779 0 1 -389.57438 67.5691 Z" />
    <path d="M -313.60166 -128.55866 A 3.5 2.51237 122.49779 0 1 -317.77406 -126.66273 A 3.5 2.51237 122.49779 1 1 -314.01319 -132.56661 A 3.5 2.51237 122.49779 0 1 -313.60166 -128.55866 Z" />
    <path d="M -333.07885 -90.39235 A 3.5 2.51237 122.49779 0 1 -337.36183 -88.27975 A 3.5 2.51237 122.49779 0 1 -333.60096 -94.18363 A 3.5 2.51237 122.49779 0 1 -333.07885 -90.39235 Z" />
    <path d="M -350.4943 -51.50578 A 3.5 2.51237 122.49779 0 1 -354.87615 -49.1724 A 3.5 2.51237 122.49779 0 1 -351.11528 -55.07629 A 3.5 2.51237 122.49779 0 1 -350.4943 -51.50578 Z" />
    <path d="M -80.40331 -413.68199 L 335.41985 -553.08712" />
    <path d="M 656.71676 -132.5043 A 600 430.69158 302.49779 0 0 651.36241 -209.50175" />
    <path d="M 647.72153 -231.42237 A 600 430.69158 302.49779 0 0 493.41553 -475.7331 A 600 430.69158 302.49779 0 0 373.6925 -521.18041" />
    <path d="M 656.71676 548.85702 L 656.71676 -132.5043 L 649.67026 -136.99303 A 600 430.69158 302.49779 0 0 645.21069 -207.43938" />
    <path d="M 818.60392 -497.16216 L 818.60392 -288.71086" />
    <path d="M 818.60392 -265.56963 L 818.60392 318.69541" />
    <path d="M 818.20461 -510.94917 L 818.60392 -497.16216" />
    <path d="M 616.24497 -651.02471 A 250 179.45482 122.49779 0 1 750.56174 -640.17416 A 250 179.45482 122.49779 0 1 818.20461 -510.94917" />
    <path d="M 675.7385 260.18511 A 3.5 2.51237 122.49779 0 1 671.02504 264.08683 A 3.5 2.51237 122.49779 1 1 674.78591 258.18295 A 3.5 2.51237 122.49779 0 1 675.7385 260.18511 Z" />
    <path d="M 675.7385 215.8444 A 3.5 2.51237 122.49779 0 1 671.02504 219.74611 A 3.5 2.51237 122.49779 1 1 674.78591 213.84223 A 3.5 2.51237 122.49779 0 1 675.7385 215.8444 Z" />
    <path d="M 675.7385 171.50368 A 3.5 2.51237 122.49779 0 1 671.02504 175.40539 A 3.5 2.51237 122.49779 1 1 674.78591 169.50151 A 3.5 2.51237 122.49779 0 1 675.7385 171.50368 Z" />
    <path d="M 675.7385 127.16296 A 3.5 2.51237 122.49779 0 1 671.02504 131.06468 A 3.5 2.51237 122.49779 1 1 674.78591 125.16079 A 3.5 2.51237 122.49779 0 1 675.7385 127.16296 Z" />
    <path d="M 675.7385 82.82224 A 3.5 2.51237 122.49779 0 1 671.02504 86.72396 A 3.5 2.51237 122.49779 1 1 674.78591 80.82007 A 3.5 2.51237 122.49779 0 1 675.7385 82.82224 Z" />
    <path d="M 675.7385 38.48152 A 3.5 2.51237 122.49779 0 1 671.02504 42.38324 A 3.5 2.51237 122.49779 1 1 674.78591 36.47935 A 3.5 2.51237 122.49779 0 1 675.7385 38.48152 Z" />
    <path d="M 675.7385 -5.8592 A 3.5 2.51237 122.49779 0 1 671.02504 -1.95748 A 3.5 2.51237 122.49779 1 1 674.78591 -7.86137 A 3.5 2.51237 122.49779 0 1 675.7385 -5.8592 Z" />
    <path d="M 675.7385 -50.19992 A 3.5 2.51237 122.49779 0 1 671.02504 -46.2982 A 3.5 2.51237 122.49779 0 1 674.78591 -52.20208 A 3.5 2.51237 122.49779 0 1 675.7385 -50.19992 Z" />
    <path d="M 675.7385 -94.54064 A 3.5 2.51237 122.49779 0 1 671.02504 -90.63892 A 3.5 2.51237 122.49779 1 1 674.78591 -96.5428 A 3.5 2.51237 122.49779 0 1 675.7385 -94.54064 Z" />
    <path d="M 675.7385 -138.88135 A 3.5 2.51237 122.49779 0 1 671.02504 -134.97964 A 3.5 2.51237 122.49779 1 1 674.78591 -140.88352 A 3.5 2.51237 122.49779 0 1 675.7385 -138.88135 Z" />
    <path d="M 478.28093 -503.50558 A 3.5 2.51237 122.49779 0 1 478.14468 -503.58425 A 3.5 2.51237 122.49779 0 1 481.90555 -509.48813 A 3.5 2.51237 122.49779 0 1 478.28093 -503.50558 Z" />
    <path d="M 504.96294 -487.92161 A 3.5 2.51237 122.49779 0 1 508.73904 -493.81568 A 3.5 2.51237 122.49779 0 1 504.97817 -487.9118 A 3.5 2.51237 122.49779 0 1 504.96294 -487.92161 Z" />
    <path d="M 530.01819 -469.81284 A 3.5 2.51237 122.49779 0 1 533.93653 -475.60411 A 3.5 2.51237 122.49779 0 1 530.17566 -469.70022 A 3.5 2.51237 122.49779 0 1 530.01819 -469.81284 Z" />
    <path d="M 553.32461 -449.2675 A 3.5 2.51237 122.49779 0 1 557.37527 -454.94213 A 3.5 2.51237 122.49779 1 1 553.6144 -449.03824 A 3.5 2.51237 122.49779 0 1 553.32461 -449.2675 Z" />
    <path d="M 668.85687 -174.71161 A 3.5 2.51237 122.49779 0 1 673.56343 -178.82753 A 3.5 2.51237 122.49779 1 1 669.80256 -172.92365 A 3.5 2.51237 122.49779 0 1 668.85687 -174.71161 Z" />
    <path d="M 659.16773 -246.99569 A 3.5 2.51237 122.49779 0 1 663.81928 -251.52198 A 3.5 2.51237 122.49779 0 1 660.05841 -245.61809 A 3.5 2.51237 122.49779 0 1 659.16773 -246.99569 Z" />
    <path d="M 665.21605 -211.44256 A 3.5 2.51237 122.49779 0 1 666.09101 -214.43953" />
    <path d="M 669.952 -215.73393 A 3.5 2.51237 122.49779 0 1 666.14107 -209.86312 A 3.5 2.51237 122.49779 0 1 665.21605 -211.44256" />
    <path d="M 626.93015 -344.8898 A 3.5 2.51237 122.49779 0 1 631.39868 -349.97185 A 3.5 2.51237 122.49779 0 1 627.63781 -344.06796 A 3.5 2.51237 122.49779 0 1 626.93015 -344.8898 Z" />
    <path d="M 639.97803 -313.88224 A 3.5 2.51237 122.49779 0 1 644.52064 -318.78826 A 3.5 2.51237 122.49779 0 1 640.75977 -312.88437 A 3.5 2.51237 122.49779 0 1 639.97803 -313.88224 Z" />
    <path d="M 650.74137 -281.19779 A 3.5 2.51237 122.49779 0 1 655.34508 -285.91825 A 3.5 2.51237 122.49779 0 1 651.58421 -280.01437 A 3.5 2.51237 122.49779 0 1 650.74137 -281.19779 Z" />
    <path d="M 574.76865 -426.38569 A 3.5 2.51237 122.49779 0 1 578.94105 -431.93041 A 3.5 2.51237 122.49779 1 1 575.18018 -426.02653 A 3.5 2.51237 122.49779 0 1 574.76865 -426.38569 Z" />
    <path d="M 594.24584 -401.27888 A 3.5 2.51237 122.49779 0 1 598.52882 -406.68107 A 3.5 2.51237 122.49779 0 1 594.76795 -400.77718 A 3.5 2.51237 122.49779 0 1 594.24584 -401.27888 Z" />
    <path d="M 611.66129 -374.0694 A 3.5 2.51237 122.49779 0 1 616.04313 -379.31711 A 3.5 2.51237 122.49779 0 1 612.28227 -373.41323 A 3.5 2.51237 122.49779 0 1 611.66129 -374.0694 Z" />
    <path d="M 743.51524 -644.6629 A 250 179.45482 302.49779 0 0 609.19847 -655.51345" />
    <path d="M 649.67026 550.30931 L 649.67026 -136.99303" />
    <path d="M 641.85312 -229.45498 A 600 430.69158 302.49779 0 0 489.87712 -477.95367" />
    <path d="M -940.83779 -779.65248 L 77.14669 -131.18003 L 77.14669 -140.04818 A 200 92.42516 180 0 0 346.0788 -116.24858 L 356.47552 -119.50877 L 1019.56532 -341.81029 L 1038.9291 -349.2024 A 200 92.42516 180 0 0 1102.12364 -416.62252 L 1102.12364 -407.75438" />
    <path d="M -940.83779 -788.52062 L 77.14669 -140.04818" />
    <path d="M -978.95063 -833.92531 A 200 92.42516 180 0 0 -940.83779 -779.65248 L -940.83779 -788.52062" />
    <path d="M -915.75609 -910.21358 A 200 92.42516 180 0 0 -978.95063 -842.79345 L -978.95063 -833.92531" />
    <path d="M -978.95063 -842.79345 A 200 92.42516 180 0 0 -940.83779 -788.52062" />
    <path d="M 346.0788 -107.38044 L 346.0788 -116.24858" />
    <path d="M 77.14669 -131.18003 A 200 92.42516 180 0 0 346.0788 -107.38044 L 356.47552 -110.64063 L 356.47552 -119.50877" />
    <path d="M 356.47552 -110.64063 L 1019.56532 -332.94215 L 1019.56532 -341.81029" />
    <path d="M 1019.56532 -332.94215 L 1038.9291 -340.33425 L 1038.9291 -349.2024" />
    <path d="M 1038.9291 -340.33425 A 200 92.42516 180 0 0 1102.12364 -407.75438" />
    <path d="M 1076.86041 -412.18845 A 175 80.87202 180 0 0 1043.77491 -455.24311 L 1043.77491 -464.11125 L 25.79043 -1112.5837 A 175 80.87202 180 0 0 -209.52517 -1133.40835 L -218.6223 -1130.55568 L -881.7121 -908.25416 L -898.65541 -901.78607 A 175 80.87202 180 0 0 -953.95063 -842.79345 A 175 80.87202 180 0 0 -920.60189 -795.30473 L 97.38258 -146.83228 A 175 80.87202 180 0 0 332.69818 -126.00763 L 341.79531 -128.8603 L 1004.88511 -351.16182 L 1021.82842 -357.62991 A 175 80.87202 180 0 0 1077.12364 -416.62252 A 175 80.87202 180 0 0 1043.77491 -464.11125" />
    <path d="M 1043.77491 -455.24311 L 25.79043 -1103.71555 L 25.79043 -1112.5837" />
    <path d="M 25.79043 -1103.71555 A 175 80.87202 180 0 0 -209.52517 -1124.5402 L -209.52517 -1133.40835" />
    <path d="M -209.52517 -1124.5402 L -218.6223 -1121.68753 L -218.6223 -1130.55568" />
    <path d="M -218.6223 -1121.68753 L -881.7121 -899.38602 L -881.7121 -908.25416" />
    <path d="M -881.7121 -899.38602 L -898.65541 -892.91792 L -898.65541 -901.78607" />
    <path d="M -898.65541 -892.91792 A 175 80.87202 180 0 0 -953.6874 -838.35938" />
    <path d="M -896.39231 -917.60569 L -915.75609 -910.21358" />
    <path d="M -233.30251 -1139.9072 L -896.39231 -917.60569" />
    <path d="M -222.90579 -1143.1674 L -233.30251 -1139.9072" />
    <path d="M 46.02633 -1119.3678 A 200 92.42516 180 0 0 -222.90579 -1143.1674" />
    <path d="M 1102.12364 -416.62252 A 200 92.42516 180 0 0 1064.0108 -470.89536 L 46.02633 -1119.3678" />
    <path d="M 831.8161 309.38715 L 824.476 304.71139" />
    <path d="M 831.8161 309.38715 L 831.8161 823.23899" />
    <path d="M 508.04179 994.36216 L 500.70168 989.6864 L 423.71976 732.5137" />
    <path d="M 775.3748 904.7385 L 508.04179 994.36216 L 431.05987 737.18947 A 100 71.78193 122.49779 0 1 473.57769 615.28989 L 506.41724 586.02245 L 680.01992 550.24279 A 100 71.78193 302.49779 0 0 761.09624 477.80232 L 831.8161 309.38715" />
    <path d="M 431.05987 737.18947 L 423.71976 732.5137" />
    <path d="M 466.23758 610.61412 A 100 71.78193 302.49779 0 0 423.71976 732.5137" />
    <path d="M 473.57769 615.28989 L 466.23758 610.61412 L 499.07714 581.34669 L 672.67982 545.56702 A 100 71.78193 302.49779 0 0 753.75614 473.12656 L 824.476 304.71139" />
    <path d="M 506.41724 586.02245 L 499.07714 581.34669" />
    <path d="M 680.01992 550.24279 L 672.67982 545.56702" />
    <path d="M 761.09624 477.80232 L 753.75614 473.12656" />
    <path d="M 1184.14114 533.82386 L 1176.80104 529.14809" />
    <path d="M 1184.14114 533.82386 L 1184.14114 1110.2532 L 860.36683 1218.79886 L 783.38491 961.62617 A 100 71.78193 122.49779 0 1 825.90273 839.72659 L 858.74228 810.45915 L 1032.34496 774.67949 A 100 71.78193 302.49779 0 0 1113.42128 702.23902 L 1184.14114 533.82386 Z" />
    <path d="M 860.36683 1218.79886 L 853.02672 1214.1231 L 776.0448 956.9504" />
    <path d="M 783.38491 961.62617 L 776.0448 956.9504" />
    <path d="M 818.56262 835.05083 A 100 71.78193 302.49779 0 0 776.0448 956.9504" />
    <path d="M 825.90273 839.72659 L 818.56262 835.05083 L 851.40217 805.78339 L 1025.00485 770.00373 A 100 71.78193 302.49779 0 0 1106.08117 697.56326 L 1176.80104 529.14809" />
    <path d="M 858.74228 810.45915 L 851.40217 805.78339" />
    <path d="M 1032.34496 774.67949 L 1025.00485 770.00373" />
    <path d="M 1113.42128 702.23902 L 1106.08117 697.56326" />
    <path d="M 81.76791 -1096.59984 C 106.27 -1106.04 148.75 -1078.98 121.73198 -1071.14209" />
    <path d="M 146.95581 -1026.53127 C 106.27 -1106.04 148.75 -1078.98 152.09686 -986.56514 C 155.44 -894.15 197.92 -867.09 181.07676 -903.35319" />
    <path d="M 431.84894 -829.31863 C 576.04 -806.79 618.52 -779.73 467.59681 -822.2778" />
    <path d="M 551.53462 -797.3509 C 576.04 -806.79 618.52 -779.73 591.4987 -771.89315" />
    <path d="M 616.72252 -727.28233 C 576.04 -806.79 618.52 -779.73 621.55195 -693.88284" />
    <path d="M 813.47925 -545.02247 C 625.21 -594.9 667.69 -567.84 856.74694 -537.69174 C 1045.8 -507.54 1088.28 -480.48 937.36353 -523.02886" />
    <path d="M 1021.30134 -498.10197 C 1045.8 -507.54 1088.28 -480.48 1061.26541 -472.64421" />
    <path d="M 1326.51365 -227.35762 L 1326.51365 -238.4428 L 1180.81521 -189.59725 L 977.78038 -318.9337" />
    <path d="M 1092.11091 -378.87673 C 1094.98 -295.66 1137.46 -268.6 1326.51365 -238.4428" />
    <path d="M 1180.81521 -178.51207 L 1180.81521 -189.59725" />
    <path d="M 1326.51365 -227.35762 L 1180.81521 -178.51207 L 966.379 -315.11138" />
    <path d="M 942.57769 -330.2732 L 818.60392 -409.24648" />
    <path d="M 953.97907 -334.09552 L 818.60392 -420.33166" />
    <path d="M 102.20967 -465.25713 C 106.27 -485.27 148.75 -458.21 133.06242 -437.08227" />
    <path d="M 552.23664 -176.26974 C 576.04 -186.02 618.52 -158.96 602.82913 -137.83333" />
    <path d="M 818.60392 76.66875 C 625.21 25.87 667.69 52.93 856.74694 83.07832 C 1045.8 113.23 1088.28 140.29 1091.6303 232.70279 C 1094.98 325.12 1137.46 352.17 1326.51365 382.32726 L 1180.81521 431.17281 L 818.60392 200.4384" />
    <path d="M 1326.51365 393.41244 L 1326.51365 382.32726" />
    <path d="M 1180.81521 442.25799 L 1180.81521 431.17281" />
    <path d="M 1326.51365 393.41244 L 1180.81521 442.25799 L 818.60392 211.52358" />
    <path d="M -204.359 -474.66225 L -154.29771 -491.44534" />
    <path d="M -203.64387 987.6617 L -196.30377 992.33746" />
    <path d="M -196.30377 1568.76681 L -196.30377 992.33746" />
    <path d="M -203.64387 1564.09104 L -196.30377 1568.76681 L 127.47055 1460.22114 L 204.45247 1151.43192" />
    <path d="M -203.64387 987.6617 L -203.64387 1564.09104" />
    <path d="M 161.93465 1058.04063 A 100 71.78193 122.49779 0 1 181.19726 1065.4949 L 173.85715 1060.81913 A 100 71.78193 302.49779 0 0 154.59454 1053.36486 L 121.75499 1046.11641 L -51.84769 1126.73769 A 100 71.78193 122.49779 0 1 -111.95046 1128.68061" />
    <path d="M 181.19726 1065.4949 A 100 71.78193 122.49779 0 1 204.45247 1151.43192" />
    <path d="M 154.59454 1053.36486 L 161.93465 1058.04063 L 129.0951 1050.79217 L -44.50758 1131.41345 A 100 71.78193 122.49779 0 1 -108.37921 1131.17361 A 100 71.78193 122.49779 0 1 -125.5839 1113.33482 L -196.30377 992.33746" />
    <path d="M 121.75499 1046.11641 L 129.0951 1050.79217" />
    <path d="M -51.84769 1126.73769 L -44.50758 1131.41345" />
    <path d="M -555.96891 763.225 L -548.6288 767.90076" />
    <path d="M -548.6288 1344.3301 L -548.6288 767.90076" />
    <path d="M -555.96891 1339.65434 L -548.6288 1344.3301 L -224.85449 1235.78444 L -203.64387 1150.7046" />
    <path d="M -555.96891 763.225 L -555.96891 1339.65434" />
    <path d="M -173.7729 1030.8864 L -147.87257 926.99522" />
    <path d="M -190.39039 833.60392 A 100 71.78193 122.49779 0 1 -171.12778 841.05819 L -178.46788 836.38243 A 100 71.78193 302.49779 0 0 -197.73049 828.92816 L -230.57004 821.6797 L -404.17272 902.30098 A 100 71.78193 122.49779 0 1 -464.27549 904.24391" />
    <path d="M -171.12778 841.05819 A 100 71.78193 122.49779 0 1 -147.87257 926.99522" />
    <path d="M -197.73049 828.92816 L -190.39039 833.60392 L -223.22994 826.35547 L -396.83262 906.97675 A 100 71.78193 122.49779 0 1 -460.70425 906.7369 A 100 71.78193 122.49779 0 1 -477.90894 888.89812 L -548.6288 767.90076" />
    <path d="M -230.57004 821.6797 L -223.22994 826.35547" />
    <path d="M -404.17272 902.30098 L -396.83262 906.97675" />
    <path d="M -331.07613 -1329.19484 L -324.02963 -1324.7061" />
    <path d="M -375.41036 -1357.43646 L -368.36386 -1352.94772" />
    <path d="M 27.121 -1101.01752 L 34.1675 -1096.52879" />
    <path d="M 340.98388 -901.08183 L 348.03038 -896.59309" />
    <path d="M 385.31812 -872.84021 L 392.36462 -868.35148" />
    <path d="M 699.181 -672.90451 L 706.2275 -668.41578" />
    <path d="M 743.51524 -644.6629 L 750.56174 -640.17416" />
</svg>