<svg version="1.1" xmlns="http://www.w3.org/2000/svg" viewBox="-1446.5172075156545 -1279.9119715223392 2893.034415031309 2925.2273631803387" fill="none" stroke="black" stroke-width="0.6%" vector-effect="non-scaling-stroke">
    <path d="M 631.51572 189.454 L 629.56025 187.63158 L 91.90388 298.15471 L 95.89984 301.87879 L -38.51425 329.50957 L 0 365.40342 L 1445.51721 68.25622 L 1321.23652 -47.56875" />
    <path d="M 631.51572 189.454 L 631.51572 -175.94942 L 1321.23652 -317.73161 L 1062.09427 -559.24253 L 372.37347 -417.46034 L 631.51572 -175.94942" />
    <path d="M 372.37347 240.50008 L 372.37347 -417.46034" />
    <path d="M -556.79874 1035.48745 L -38.51425 1518.50928 L -38.51425 329.50957" />
    <path d="M -466.2842 1016.88086 L -556.79874 1035.48745" />
    <path d="M 91.90388 302.70022 L 91.90388 298.15471" />
    <path d="M 1321.23652 47.67181 L 631.51572 189.454" />
    <path d="M -48.00433 -1220.68745 L 734.07963 -491.81433" />
    <path d="M -137.16115 -1202.35996 L -48.00433 -1220.68745" />
    <path d="M -179.67136 -1241.97789 L -137.16115 -1202.35996 L -137.16115 -496.94977" />
    <path d="M 0 -1278.91197 L -179.67136 -1241.97789 L -179.67136 -488.21117" />
    <path d="M 824.59417 -510.42091 L 0 -1278.91197" />
    <path d="M 1321.23652 47.67181 L 1321.23652 -317.73161" />
    <path d="M -466.2842 -172.11885 L -466.2842 1016.88086" />
    <path d="M -466.2842 -172.11885 L -1312.49246 -960.75343 L -1223.33563 -979.08092 L -1265.84584 -1018.69885 L -1445.51721 -981.76477 L -556.79874 -153.51227 L -556.79874 1035.48745" />
    <path d="M -1223.33563 -877.66259 L -1223.33563 -979.08092" />
    <path d="M -1445.51721 297.1472 L -1445.51721 -981.76477" />
    <path d="M -48.00433 -475.02122 L -48.00433 -1220.68745" />
    <path d="M -1445.51721 297.1472 L 0 1644.31539 L 1445.51721 1347.16819 L 1445.51721 68.25622" />
    <path d="M 0 1644.31539 L 0 365.40342" />
    <path d="M -556.79874 -153.51227 L -466.2842 -172.11885" />
    <path d="M -426.72913 540.86132 L -426.72913 483.76703 L -38.51425 403.96379" />
    <path d="M -466.2842 503.99746 L -426.72913 540.86132 L -38.51425 461.05807" />
    <path d="M -466.2842 446.90318 L -426.72913 483.76703" />
    <path d="M 82.58552 304.61574 L -661.78131 -389.10642 L -692.36655 -382.81918" />
    <path d="M -658.16073 -385.73217 L -658.16073 -389.85068 L 86.2061 303.87148" />
    <path d="M 372.37347 -83.24476 L -83.3934 -508.00251 L -658.16073 -389.85068" />
</svg>