<svg version="1.1" xmlns="http://www.w3.org/2000/svg" viewBox="-1676.0602949506485 -1383.283918868767 3009.5484554490586 2951.543792590148" fill="none" stroke="black" stroke-width="0.6%" vector-effect="non-scaling-stroke">
    <path d="M -390.5591 741.07762 L -390.5591 684.79671 L -205.69317 623.15799" />
    <path d="M -1476.52675 42.61583 L -1318.63279 144.16848" />
    <path d="M -1120.09925 271.8593 L -962.20529 373.41195" />
    <path d="M -763.67175 501.10277 L -605.7778 602.65542" />
    <path d="M -407.24425 730.34623 L -390.5591 741.07762 L -137.87651 656.8272" />
    <path d="M -407.24425 674.06532 L -390.5591 684.79671" />
    <path d="M 643.33322 361.89456 L 643.33322 340.07229 L 536.57384 271.40786" />
    <path d="M 624.85543 346.23323 L 643.33322 340.07229" />
    <path d="M -1476.34519 -115.04944 L -1476.34519 -123.00888" />
    <path d="M -605.7778 436.91393 L -763.67175 335.36128" />
    <path d="M -962.20529 207.67046 L -1120.09925 106.11781" />
    <path d="M -1318.63279 -21.573 L -1476.34519 -123.00888" />
    <path d="M -361.46132 545.41707 L -361.46132 534.33815 L -142.8521 643.44185 A 100 46.30856 180 0 0 -16.4423 651.0924 L -11.23135 649.46755 L 630.36619 435.54359 L 640.07665 431.85593 A 100 46.30856 180 0 0 671.93545 397.96269 A 100 46.30856 180 0 0 659.77209 375.82776 L 505.67112 245.21546 L 566.81507 224.8286" />
    <path d="M -407.24425 560.68219 L -361.46132 545.41707 L -142.8521 654.52077 A 100 46.30856 180 0 0 -16.4423 662.17132 L -11.23135 660.54647 L 630.36619 446.6225 L 640.07665 442.93485 A 100 46.30856 180 0 0 671.93545 409.04161" />
    <path d="M -407.24425 549.60327 L -361.46132 534.33815" />
    <path d="M -16.4423 662.17132 L -16.4423 651.0924" />
    <path d="M -11.23135 660.54647 L -11.23135 649.46755" />
    <path d="M 630.36619 446.6225 L 630.36619 435.54359" />
    <path d="M 640.07665 442.93485 L 640.07665 431.85593" />
    <path d="M 566.81507 235.90752 L 566.81507 224.8286" />
    <path d="M 515.05209 253.16654 L 566.81507 235.90752" />
    <path d="M -486.92485 -452.90528 L -362.85433 -373.10685" />
    <path d="M -215.31856 -278.21627 L 566.81507 224.8286" />
    <path d="M -486.92485 -452.90528 L -650.96184 -398.21143" />
    <path d="M -1072.58238 -257.63306 L -1120.09925 -241.7898" />
    <path d="M -1435.60475 -136.59272 L -1476.34519 -123.00888" />
    <path d="M -1444.87719 -1039.10598 L -1444.87719 -1049.74174 L -1465.1655 -1042.97713" />
    <path d="M -1444.87719 -1039.10598 L -1433.56418 -1031.82979" />
    <path d="M -1444.87719 -1049.74174 L -1422.67351 -1035.461" />
    <path d="M -1667.64826 -767.79917 A 250 179.81805 122.74791 0 1 -1465.1655 -1042.97713" />
    <path d="M -1667.64826 -767.79917 L -1668.04861 -753.75266 L -1668.04861 620.03338 L -1645.84493 612.63014" />
    <path d="M -1442.96182 -1028.69639 A 250 179.81805 302.74791 0 0 -1645.44458 -753.51843 L -1638.43289 -749.00872 L -1638.83324 -734.96221 L -1638.83324 638.82383 L -1476.52675 584.70696 L -1476.52675 14.35019" />
    <path d="M -1645.44458 -753.51843 L -1645.84493 -739.47192 L -1638.83324 -734.96221" />
    <path d="M -1645.84493 -739.47192 L -1645.84493 634.31412 L -1638.83324 638.82383" />
    <path d="M -1442.96182 -1028.69639 L -1422.67351 -1035.461" />
    <path d="M -1160.56396 -1112.21883 L -743.61067 -1251.24102 A 57.5 41.35815 302.74791 0 0 -729.07931 -1228.73192 L -722.06762 -1224.22221 A 57.5 41.35815 302.74791 0 0 -705.29195 -1219.30465" />
    <path d="M -1442.96182 -1028.69639 L -1435.95013 -1024.18668" />
    <path d="M -1160.43487 -1116.05006 L -1435.95013 -1024.18668" />
    <path d="M -1167.44656 -1120.55977 L -1160.43487 -1116.05006 A 57.5 41.35815 122.74791 0 1 -1192.76939 -1056.76802" />
    <path d="M -1167.44656 -1120.55977 L -744.63816 -1261.5342 A 57.5 41.35815 302.74791 0 0 -743.61067 -1251.24102" />
    <path d="M -737.62647 -1257.02449 L -744.63816 -1261.5342" />
    <path d="M -462.11121 -1348.88787 L -737.62647 -1257.02449 A 57.5 41.35815 302.74791 0 0 -722.06762 -1224.22221" />
    <path d="M -462.11121 -1348.88787 L -469.1229 -1353.39757" />
    <path d="M -489.41121 -1346.63297 L -469.1229 -1353.39757" />
    <path d="M -489.41121 -1346.63297 L -511.61489 -1360.91371" />
    <path d="M -491.32658 -1367.67831 L -511.61489 -1360.91371" />
    <path d="M -491.32658 -1367.67831 L -498.33827 -1372.18802" />
    <path d="M -773.85353 -1280.32465 L -498.33827 -1372.18802" />
    <path d="M -766.84184 -1275.81494 L -773.85353 -1280.32465 A 57.5 41.35815 302.74791 0 0 -773.43039 -1273.61816" />
    <path d="M -766.84184 -1275.81494 L -1189.65024 -1134.84051" />
    <path d="M -1196.66192 -1139.35022 L -1189.65024 -1134.84051" />
    <path d="M -1472.17719 -1047.48684 L -1196.66192 -1139.35022" />
    <path d="M -1472.17719 -1047.48684 L -1465.1655 -1042.97713" />
    <path d="M -1472.17719 -1047.48684 A 250 179.81805 302.74791 0 0 -1674.65995 -772.30887 L -1675.06029 -758.26237 L -1675.06029 615.52367 L -1668.04861 620.03338" />
    <path d="M -1674.65995 -772.30887 L -1667.64826 -767.79917" />
    <path d="M -1675.06029 -758.26237 L -1668.04861 -753.75266" />
    <path d="M -1638.43289 -749.00872 A 250 179.81805 122.74791 0 1 -1435.95013 -1024.18668" />
    <path d="M -1476.52675 -115.16622 L -1476.52675 -162.91253" />
    <path d="M -1476.52675 -292.42893 L -1476.52675 -340.17524" />
    <path d="M -1476.52675 -469.69165 L -1476.52675 -478.86932 A 600 431.56333 122.74791 0 1 -1475.32161 -516.66285" />
    <path d="M -1457.01534 -634.40521 A 600 431.56333 122.74791 0 1 -1192.76939 -1056.76802" />
    <path d="M -1495.59776 -117.98516 A 3.5 2.51745 122.74791 0 1 -1490.8641 -121.87591 A 3.5 2.51745 122.74791 1 1 -1494.6507 -115.9885 A 3.5 2.51745 122.74791 0 1 -1495.59776 -117.98516 Z" />
    <path d="M -1495.59776 -162.30084 A 3.5 2.51745 122.74791 0 1 -1490.8641 -166.19159 A 3.5 2.51745 122.74791 1 1 -1494.6507 -160.30418 A 3.5 2.51745 122.74791 0 1 -1495.59776 -162.30084 Z" />
    <path d="M -1495.59776 -295.24788 A 3.5 2.51745 122.74791 0 1 -1490.8641 -299.13863 A 3.5 2.51745 122.74791 1 1 -1494.6507 -293.25122 A 3.5 2.51745 122.74791 0 1 -1495.59776 -295.24788 Z" />
    <path d="M -1495.59776 -339.56356 A 3.5 2.51745 122.74791 0 1 -1490.8641 -343.45431 A 3.5 2.51745 122.74791 1 1 -1494.6507 -337.5669 A 3.5 2.51745 122.74791 0 1 -1495.59776 -339.56356 Z" />
    <path d="M -1495.59776 -472.51059 A 3.5 2.51745 122.74791 0 1 -1490.8641 -476.40134 A 3.5 2.51745 122.74791 1 1 -1494.6507 -470.51393 A 3.5 2.51745 122.74791 0 1 -1495.59776 -472.51059 Z" />
    <path d="M -1297.62873 -969.09699 A 3.5 2.51745 122.74791 0 1 -1301.27073 -968.01471 A 3.5 2.51745 122.74791 0 1 -1297.48413 -973.90212 A 3.5 2.51745 122.74791 0 1 -1297.62873 -969.09699 Z" />
    <path d="M -1324.37985 -935.66222 A 3.5 2.51745 122.74791 0 1 -1328.17373 -934.39013 A 3.5 2.51745 122.74791 0 1 -1324.38712 -940.27754 A 3.5 2.51745 122.74791 0 1 -1324.37985 -935.66222 Z" />
    <path d="M -1349.5 -900.79297 A 3.5 2.51745 122.74791 0 1 -1353.43649 -899.32291 A 3.5 2.51745 122.74791 0 1 -1349.64989 -905.21033 A 3.5 2.51745 122.74791 0 1 -1349.5 -900.79297 Z" />
    <path d="M -1372.86679 -864.6591 A 3.5 2.51745 122.74791 0 1 -1376.93594 -862.98391 A 3.5 2.51745 122.74791 1 1 -1373.14933 -868.87132 A 3.5 2.51745 122.74791 0 1 -1372.86679 -864.6591 Z" />
    <path d="M -1488.69831 -512.92683 A 3.5 2.51745 122.74791 0 1 -1493.42505 -509.25478 A 3.5 2.51745 122.74791 1 1 -1489.63845 -515.14219 A 3.5 2.51745 122.74791 0 1 -1488.69831 -512.92683 Z" />
    <path d="M -1446.66299 -711.07253 A 3.5 2.51745 122.74791 0 1 -1451.15109 -708.52539 A 3.5 2.51745 122.74791 0 1 -1447.36448 -714.4128 A 3.5 2.51745 122.74791 0 1 -1446.66299 -711.07253 Z" />
    <path d="M -1459.74467 -671.34889 A 3.5 2.51745 122.74791 0 1 -1464.30704 -668.57623 A 3.5 2.51745 122.74791 0 1 -1460.52043 -674.46365 A 3.5 2.51745 122.74791 0 1 -1459.74467 -671.34889 Z" />
    <path d="M -1394.36638 -827.43666 A 3.5 2.51745 122.74791 0 1 -1398.55758 -825.55015 A 3.5 2.51745 122.74791 0 1 -1394.77098 -831.43756 A 3.5 2.51745 122.74791 0 1 -1394.36638 -827.43666 Z" />
    <path d="M -1413.89402 -789.30699 A 3.5 2.51745 122.74791 0 1 -1418.19608 -787.204 A 3.5 2.51745 122.74791 0 1 -1414.40948 -793.09142 A 3.5 2.51745 122.74791 0 1 -1413.89402 -789.30699 Z" />
    <path d="M -1431.35458 -750.45585 A 3.5 2.51745 122.74791 0 1 -1435.75577 -748.1323 A 3.5 2.51745 122.74791 0 1 -1431.96916 -754.01971 A 3.5 2.51745 122.74791 0 1 -1431.35458 -750.45585 Z" />
    <path d="M -333.88696 -1342.08387 A 250 179.81805 302.74791 0 0 -469.1229 -1353.39757" />
    <path d="M -428.54628 -415.35794 L -428.54628 -457.27776" />
    <path d="M -428.54628 -485.95434 L -428.54628 -660.12119" />
    <path d="M -428.54628 -692.44093 L -428.54628 -835.13865 A 600 431.56333 302.74791 0 0 -455.05359 -999.36793" />
    <path d="M -466.32796 -1027.92853 A 600 431.56333 302.74791 0 0 -470.64304 -1037.40119" />
    <path d="M -480.68946 -1057.18039 A 600 431.56333 302.74791 0 0 -587.40878 -1175.14492" />
    <path d="M -491.32658 -1367.67831 A 250 179.81805 122.74791 0 1 -356.09064 -1356.36461 A 250 179.81805 122.74791 0 1 -345.35365 -1348.65697" />
    <path d="M -450.74996 -429.63868 L -450.74996 -471.5585" />
    <path d="M -450.74996 -500.23508 L -450.74996 -638.04261" />
    <path d="M -450.74996 -685.03769 L -450.74996 -849.41939 L -457.76164 -853.92909 A 600 431.56333 302.74791 0 0 -476.09127 -992.35347" />
    <path d="M -450.74996 -849.41939 A 600 431.56333 302.74791 0 0 -470.89579 -994.08577" />
    <path d="M -480.72509 -1023.12818 A 600 431.56333 302.74791 0 0 -484.5278 -1032.77168" />
    <path d="M -493.43813 -1052.92968 A 600 431.56333 302.74791 0 0 -598.75843 -1181.9" />
    <path d="M -738.55443 -1238.40151 A 57.5 41.35815 122.74791 0 1 -751.28299 -1243.01266 A 57.5 41.35815 122.74791 0 1 -756.25796 -1247.02411" />
    <path d="M -431.67894 -456.93701 A 3.5 2.51745 122.74791 0 1 -436.41261 -453.04626 A 3.5 2.51745 122.74791 0 1 -432.626 -458.93367 A 3.5 2.51745 122.74791 0 1 -431.67894 -456.93701 Z" />
    <path d="M -431.67894 -501.25269 A 3.5 2.51745 122.74791 0 1 -436.41261 -497.36194 A 3.5 2.51745 122.74791 0 1 -432.626 -503.24935 A 3.5 2.51745 122.74791 0 1 -431.67894 -501.25269 Z" />
    <path d="M -431.67894 -545.56837 A 3.5 2.51745 122.74791 0 1 -436.41261 -541.67762 A 3.5 2.51745 122.74791 0 1 -432.626 -547.56503 A 3.5 2.51745 122.74791 0 1 -431.67894 -545.56837 Z" />
    <path d="M -431.67894 -589.88405 A 3.5 2.51745 122.74791 0 1 -436.41261 -585.9933 A 3.5 2.51745 122.74791 0 1 -432.626 -591.88071 A 3.5 2.51745 122.74791 0 1 -431.67894 -589.88405 Z" />
    <path d="M -431.67894 -634.19972 A 3.5 2.51745 122.74791 0 1 -436.41261 -630.30897 A 3.5 2.51745 122.74791 0 1 -432.626 -636.19639 A 3.5 2.51745 122.74791 0 1 -431.67894 -634.19972 Z" />
    <path d="M -431.67894 -722.83108 A 3.5 2.51745 122.74791 0 1 -436.41261 -718.94033 A 3.5 2.51745 122.74791 0 1 -432.626 -724.82774 A 3.5 2.51745 122.74791 0 1 -431.67894 -722.83108 Z" />
    <path d="M -431.67894 -767.14676 A 3.5 2.51745 122.74791 0 1 -436.41261 -763.25601 A 3.5 2.51745 122.74791 1 1 -432.626 -769.14342 A 3.5 2.51745 122.74791 0 1 -431.67894 -767.14676 Z" />
    <path d="M -431.67894 -811.46244 A 3.5 2.51745 122.74791 0 1 -436.41261 -807.57169 A 3.5 2.51745 122.74791 0 1 -432.626 -813.4591 A 3.5 2.51745 122.74791 0 1 -431.67894 -811.46244 Z" />
    <path d="M -431.67894 -855.77812 A 3.5 2.51745 122.74791 0 1 -436.41261 -851.88737 A 3.5 2.51745 122.74791 0 1 -432.626 -857.77478 A 3.5 2.51745 122.74791 0 1 -431.67894 -855.77812 Z" />
    <path d="M -438.5784 -891.59347 A 3.5 2.51745 122.74791 0 1 -433.85165 -895.69831 A 3.5 2.51745 122.74791 1 1 -437.63826 -889.81089 A 3.5 2.51745 122.74791 0 1 -438.5784 -891.59347 Z" />
    <path d="M -448.29264 -963.84422 A 3.5 2.51745 122.74791 0 1 -445.48287 -968.52794" />
    <path d="M -444.08118 -963.21513 A 3.5 2.51745 122.74791 0 1 -447.40765 -962.47183 A 3.5 2.51745 122.74791 0 1 -448.29264 -963.84422" />
    <path d="M -442.22865 -928.30649 A 3.5 2.51745 122.74791 0 1 -437.52263 -932.61975 A 3.5 2.51745 122.74791 0 1 -437.26579 -932.41993" />
    <path d="M -436.73711 -929.53798 A 3.5 2.51745 122.74791 0 1 -441.30923 -926.73234 A 3.5 2.51745 122.74791 0 1 -442.22865 -928.30649" />
    <path d="M -456.74082 -998.03353 A 3.5 2.51745 122.74791 0 1 -456.84983 -998.76903" />
    <path d="M -454.11209 -996.66496 A 3.5 2.51745 122.74791 0 1 -455.90379 -996.85524 A 3.5 2.51745 122.74791 0 1 -456.74082 -998.03353" />
    <path d="M -462.11121 -1348.88787 A 250 179.81805 122.74791 0 1 -326.87527 -1337.57417 A 250 179.81805 122.74791 0 1 -259.62844 -1208.73509 L -259.2281 -1194.95555 L -259.2281 -1131.0209" />
    <path d="M -259.2281 -1107.89199 L -259.2281 -1103.82815" />
    <path d="M -259.2281 -923.31443 L -259.2281 -875.56812" />
    <path d="M -259.2281 -716.57592 L -259.2281 -698.30541" />
    <path d="M -259.2281 -568.789 L -259.2281 -521.0427" />
    <path d="M -421.53459 -830.62894 L -428.54628 -835.13865" />
    <path d="M -421.53459 -410.84823 L -421.53459 -452.76806" />
    <path d="M -421.53459 -481.44463 L -421.53459 -662.45905" />
    <path d="M -421.53459 -694.77879 L -421.53459 -830.62894 A 600 431.56333 302.74791 0 0 -450.24783 -1000.97029" />
    <path d="M -461.99324 -1029.37383 A 600 431.56333 302.74791 0 0 -466.47615 -1038.79053" />
    <path d="M -476.89631 -1058.44512 A 600 431.56333 302.74791 0 0 -583.88779 -1172.91361 A 600 431.56333 302.74791 0 0 -705.29195 -1219.30465" />
    <path d="M -402.46357 -438.14656 A 3.5 2.51745 122.74791 0 1 -407.19724 -434.25581 A 3.5 2.51745 122.74791 0 1 -403.41064 -440.14322 A 3.5 2.51745 122.74791 0 1 -402.46357 -438.14656 Z" />
    <path d="M -402.46357 -482.46224 A 3.5 2.51745 122.74791 0 1 -407.19724 -478.57149 A 3.5 2.51745 122.74791 0 1 -403.41064 -484.4589 A 3.5 2.51745 122.74791 0 1 -402.46357 -482.46224 Z" />
    <path d="M -402.46357 -526.77792 A 3.5 2.51745 122.74791 0 1 -407.19724 -522.88717 A 3.5 2.51745 122.74791 0 1 -403.41064 -528.77458 A 3.5 2.51745 122.74791 0 1 -402.46357 -526.77792 Z" />
    <path d="M -402.46357 -571.0936 A 3.5 2.51745 122.74791 0 1 -407.19724 -567.20285 A 3.5 2.51745 122.74791 0 1 -403.41064 -573.09026 A 3.5 2.51745 122.74791 0 1 -402.46357 -571.0936 Z" />
    <path d="M -402.46357 -615.40928 A 3.5 2.51745 122.74791 0 1 -407.19724 -611.51853 A 3.5 2.51745 122.74791 0 1 -403.41064 -617.40594 A 3.5 2.51745 122.74791 0 1 -402.46357 -615.40928 Z" />
    <path d="M -402.46357 -659.72496 A 3.5 2.51745 122.74791 0 1 -407.19724 -655.8342 A 3.5 2.51745 122.74791 0 1 -403.41064 -661.72162 A 3.5 2.51745 122.74791 0 1 -402.46357 -659.72496 Z" />
    <path d="M -402.46357 -704.04063 A 3.5 2.51745 122.74791 0 1 -404.30302 -700.52421" />
    <path d="M -406.30485 -699.85675 A 3.5 2.51745 122.74791 0 1 -407.19724 -700.14988 A 3.5 2.51745 122.74791 0 1 -403.41064 -706.03729 A 3.5 2.51745 122.74791 0 1 -402.46357 -704.04063" />
    <path d="M -402.46357 -748.35631 A 3.5 2.51745 122.74791 0 1 -407.19724 -744.46556 A 3.5 2.51745 122.74791 1 1 -403.41064 -750.35297 A 3.5 2.51745 122.74791 0 1 -402.46357 -748.35631 Z" />
    <path d="M -402.46357 -792.67199 A 3.5 2.51745 122.74791 0 1 -407.19724 -788.78124 A 3.5 2.51745 122.74791 0 1 -403.41064 -794.66865 A 3.5 2.51745 122.74791 0 1 -402.46357 -792.67199 Z" />
    <path d="M -402.46357 -836.98767 A 3.5 2.51745 122.74791 0 1 -407.19724 -833.09692 A 3.5 2.51745 122.74791 0 1 -403.41064 -838.98433 A 3.5 2.51745 122.74791 0 1 -402.46357 -836.98767 Z" />
    <path d="M -600.43261 -1201.55884 A 3.5 2.51745 122.74791 0 1 -600.57721 -1201.64268 A 3.5 2.51745 122.74791 1 1 -596.79061 -1207.53009 A 3.5 2.51745 122.74791 0 1 -600.43261 -1201.55884 Z" />
    <path d="M -573.68148 -1185.96301 A 3.5 2.51745 122.74791 0 1 -569.88761 -1191.84572 A 3.5 2.51745 122.74791 0 1 -573.67421 -1185.95831 A 3.5 2.51745 122.74791 0 1 -573.68148 -1185.96301 Z" />
    <path d="M -548.56133 -1167.84507 A 3.5 2.51745 122.74791 0 1 -544.62485 -1173.62492 A 3.5 2.51745 122.74791 0 1 -548.41145 -1167.73751 A 3.5 2.51745 122.74791 0 1 -548.56133 -1167.84507 Z" />
    <path d="M -525.19455 -1147.2933 A 3.5 2.51745 122.74791 0 1 -521.1254 -1152.95647 A 3.5 2.51745 122.74791 0 1 -524.91201 -1147.06906 A 3.5 2.51745 122.74791 0 1 -525.19455 -1147.2933 Z" />
    <path d="M -409.36303 -872.80302 A 3.5 2.51745 122.74791 0 1 -404.63628 -876.90786 A 3.5 2.51745 122.74791 1 1 -408.42289 -871.02045 A 3.5 2.51745 122.74791 0 1 -409.36303 -872.80302 Z" />
    <path d="M -419.07727 -945.05378 A 3.5 2.51745 122.74791 0 1 -414.40567 -949.56879 A 3.5 2.51745 122.74791 0 1 -418.19228 -943.68138 A 3.5 2.51745 122.74791 0 1 -419.07727 -945.05378 Z" />
    <path d="M -413.01328 -909.51604 A 3.5 2.51745 122.74791 0 1 -408.30726 -913.8293 A 3.5 2.51745 122.74791 0 1 -412.09386 -907.94189 A 3.5 2.51745 122.74791 0 1 -413.01328 -909.51604 Z" />
    <path d="M -451.39835 -1042.91756 A 3.5 2.51745 122.74791 0 1 -451.62457 -1043.74241" />
    <path d="M -445.98254 -1045.6236 A 3.5 2.51745 122.74791 0 1 -450.69685 -1042.10076 A 3.5 2.51745 122.74791 0 1 -451.39835 -1042.91756" />
    <path d="M -427.52545 -979.24309 A 3.5 2.51745 122.74791 0 1 -422.90182 -983.9522 A 3.5 2.51745 122.74791 0 1 -426.68842 -978.06479 A 3.5 2.51745 122.74791 0 1 -427.52545 -979.24309 Z" />
    <path d="M -503.69496 -1124.40781 A 3.5 2.51745 122.74791 0 1 -499.50376 -1129.94106 A 3.5 2.51745 122.74791 1 1 -503.29036 -1124.05364 A 3.5 2.51745 122.74791 0 1 -503.69496 -1124.40781 Z" />
    <path d="M -484.16732 -1099.3001 A 3.5 2.51745 122.74791 0 1 -479.86525 -1104.69081 A 3.5 2.51745 122.74791 1 1 -483.65186 -1098.8034 A 3.5 2.51745 122.74791 0 1 -484.16732 -1099.3001 Z" />
    <path d="M -466.70676 -1072.0925 A 3.5 2.51745 122.74791 0 1 -462.30557 -1077.32874 A 3.5 2.51745 122.74791 1 1 -466.09217 -1071.44133 A 3.5 2.51745 122.74791 0 1 -466.70676 -1072.0925 Z" />
    <path d="M -363.10233 -1360.87432 A 250 179.81805 302.74791 0 0 -498.33827 -1372.18802" />
    <path d="M -457.76164 -434.14839 L -457.76164 -476.06821" />
    <path d="M -457.76164 -504.74479 L -457.76164 -622.39149" />
    <path d="M -457.76164 -682.69983 L -457.76164 -853.92909" />
    <path d="M -485.47743 -1021.54364 A 600 431.56333 302.74791 0 0 -489.12374 -1031.23929" />
    <path d="M -497.68874 -1051.51242 A 600 431.56333 302.74791 0 0 -602.40572 -1183.93493" />
    <path d="M -1088.44969 -809.86251 L -1088.44969 -820.49827 L -1108.738 -813.73366" />
    <path d="M -1088.44969 -809.86251 L -1077.13668 -802.58632" />
    <path d="M -1088.44969 -820.49827 L -1066.24601 -806.21753" />
    <path d="M -1311.62111 849.27685 L -1289.41743 841.87361" />
    <path d="M -1311.62111 -524.50919 L -1311.62111 849.27685" />
    <path d="M -1311.22076 -538.5557 L -1311.62111 -524.50919" />
    <path d="M -1311.22076 -538.5557 A 250 179.81805 122.74791 0 1 -1108.738 -813.73366" />
    <path d="M -1086.53432 -799.45292 A 250 179.81805 302.74791 0 0 -1289.01708 -524.27496 L -1282.00539 -519.76525 L -1282.40574 -505.71874 L -1282.40574 868.06729 L -1120.09925 813.95043 L -1120.09925 243.59366" />
    <path d="M -1289.01708 -524.27496 L -1289.41743 -510.22845 L -1282.40574 -505.71874" />
    <path d="M -1289.41743 -510.22845 L -1289.41743 863.55759 L -1282.40574 868.06729" />
    <path d="M -1086.53432 -799.45292 L -1066.24601 -806.21753" />
    <path d="M -804.13646 -882.97536 L -387.18317 -1021.99756 A 57.5 41.35815 302.74791 0 0 -372.65181 -999.48845 L -365.64012 -994.97874 A 57.5 41.35815 302.74791 0 0 -348.86445 -990.06119" />
    <path d="M -1086.53432 -799.45292 L -1079.52263 -794.94322" />
    <path d="M -804.00737 -886.80659 L -946.80427 -839.19469" />
    <path d="M -971.94844 -830.81102 L -1079.52263 -794.94322" />
    <path d="M -811.01906 -891.3163 L -804.00737 -886.80659 A 57.5 41.35815 122.74791 0 1 -836.34189 -827.52455" />
    <path d="M -811.01906 -891.3163 L -388.21066 -1032.29073 A 57.5 41.35815 302.74791 0 0 -387.18317 -1021.99756" />
    <path d="M -381.19897 -1027.78102 L -388.21066 -1032.29073" />
    <path d="M -105.68371 -1119.6444 L -381.19897 -1027.78102 A 57.5 41.35815 302.74791 0 0 -365.64012 -994.97874" />
    <path d="M -105.68371 -1119.6444 L -112.6954 -1124.15411" />
    <path d="M -132.98371 -1117.3895 L -112.6954 -1124.15411" />
    <path d="M -132.98371 -1117.3895 L -155.18739 -1131.67024" />
    <path d="M -134.89908 -1138.43485 L -155.18739 -1131.67024" />
    <path d="M -134.89908 -1138.43485 L -135.18739 -1138.62028" />
    <path d="M -417.42603 -1051.08118 L -165.5689 -1135.05637" />
    <path d="M -410.41434 -1046.57147 L -417.42603 -1051.08118 A 57.5 41.35815 302.74791 0 0 -417.00289 -1044.37469" />
    <path d="M -410.41434 -1046.57147 L -833.22274 -905.59704" />
    <path d="M -840.23443 -910.10675 L -833.22274 -905.59704" />
    <path d="M -1115.74969 -818.24337 L -966.56009 -867.98675" />
    <path d="M -910.58037 -886.65173 L -840.23443 -910.10675" />
    <path d="M -1115.74969 -818.24337 L -1108.738 -813.73366" />
    <path d="M -1115.74969 -818.24337 A 250 179.81805 302.74791 0 0 -1318.23245 -543.06541 L -1318.63279 -529.0189 L -1318.63279 844.76714 L -1311.62111 849.27685" />
    <path d="M -1318.23245 -543.06541 L -1311.22076 -538.5557" />
    <path d="M -1318.63279 -529.0189 L -1311.62111 -524.50919" />
    <path d="M -1282.00539 -519.76525 A 250 179.81805 122.74791 0 1 -1079.52263 -794.94322" />
    <path d="M -1120.09925 114.07725 L -1120.09925 66.33094" />
    <path d="M -1120.09925 -63.18546 L -1120.09925 -110.93177" />
    <path d="M -1120.09925 -240.44818 L -1120.09925 -249.62586 A 600 431.56333 122.74791 0 1 -1118.89411 -287.41938" />
    <path d="M -1100.58784 -405.16174 A 600 431.56333 122.74791 0 1 -904.32089 -763.28171" />
    <path d="M -887.21281 -780.95489 A 600 431.56333 122.74791 0 1 -836.34189 -827.52455" />
    <path d="M -1139.17026 111.2583 A 3.5 2.51745 122.74791 0 1 -1134.4366 107.36755 A 3.5 2.51745 122.74791 1 1 -1138.2232 113.25496 A 3.5 2.51745 122.74791 0 1 -1139.17026 111.2583 Z" />
    <path d="M -1139.17026 66.94263 A 3.5 2.51745 122.74791 0 1 -1134.4366 63.05187 A 3.5 2.51745 122.74791 1 1 -1138.2232 68.93929 A 3.5 2.51745 122.74791 0 1 -1139.17026 66.94263 Z" />
    <path d="M -1139.17026 -66.00441 A 3.5 2.51745 122.74791 0 1 -1134.4366 -69.89516 A 3.5 2.51745 122.74791 1 1 -1138.2232 -64.00775 A 3.5 2.51745 122.74791 0 1 -1139.17026 -66.00441 Z" />
    <path d="M -1139.17026 -110.32009 A 3.5 2.51745 122.74791 0 1 -1134.4366 -114.21084 A 3.5 2.51745 122.74791 1 1 -1138.2232 -108.32343 A 3.5 2.51745 122.74791 0 1 -1139.17026 -110.32009 Z" />
    <path d="M -1139.17026 -243.26712 A 3.5 2.51745 122.74791 0 1 -1134.4366 -247.15788 A 3.5 2.51745 122.74791 1 1 -1138.2232 -241.27046 A 3.5 2.51745 122.74791 0 1 -1139.17026 -243.26712 Z" />
    <path d="M -941.20123 -739.85352 A 3.5 2.51745 122.74791 0 1 -944.84323 -738.77124 A 3.5 2.51745 122.74791 0 1 -941.05663 -744.65865 A 3.5 2.51745 122.74791 0 1 -941.20123 -739.85352 Z" />
    <path d="M -967.95235 -706.41876 A 3.5 2.51745 122.74791 0 1 -971.74623 -705.14666 A 3.5 2.51745 122.74791 0 1 -967.95962 -711.03407 A 3.5 2.51745 122.74791 0 1 -967.95235 -706.41876 Z" />
    <path d="M -993.0725 -671.5495 A 3.5 2.51745 122.74791 0 1 -997.00899 -670.07945 A 3.5 2.51745 122.74791 0 1 -993.22239 -675.96686 A 3.5 2.51745 122.74791 0 1 -993.0725 -671.5495 Z" />
    <path d="M -1016.43929 -635.41563 A 3.5 2.51745 122.74791 0 1 -1020.50844 -633.74044 A 3.5 2.51745 122.74791 1 1 -1016.72183 -639.62785 A 3.5 2.51745 122.74791 0 1 -1016.43929 -635.41563 Z" />
    <path d="M -1132.27081 -283.68337 A 3.5 2.51745 122.74791 0 1 -1136.99755 -280.01131 A 3.5 2.51745 122.74791 1 1 -1133.21095 -285.89872 A 3.5 2.51745 122.74791 0 1 -1132.27081 -283.68337 Z" />
    <path d="M -1090.23549 -481.82906 A 3.5 2.51745 122.74791 0 1 -1094.72359 -479.28192 A 3.5 2.51745 122.74791 0 1 -1090.93698 -485.16934 A 3.5 2.51745 122.74791 0 1 -1090.23549 -481.82906 Z" />
    <path d="M -1103.31717 -442.10542 A 3.5 2.51745 122.74791 0 1 -1107.87954 -439.33277 A 3.5 2.51745 122.74791 0 1 -1104.09293 -445.22018 A 3.5 2.51745 122.74791 0 1 -1103.31717 -442.10542 Z" />
    <path d="M -1037.93888 -598.19319 A 3.5 2.51745 122.74791 0 1 -1042.13008 -596.30668 A 3.5 2.51745 122.74791 0 1 -1038.34348 -602.19409 A 3.5 2.51745 122.74791 0 1 -1037.93888 -598.19319 Z" />
    <path d="M -1057.46652 -560.06352 A 3.5 2.51745 122.74791 0 1 -1061.76859 -557.96054 A 3.5 2.51745 122.74791 0 1 -1057.98198 -563.84795 A 3.5 2.51745 122.74791 0 1 -1057.46652 -560.06352 Z" />
    <path d="M -1074.92708 -521.21238 A 3.5 2.51745 122.74791 0 1 -1079.32827 -518.88883 A 3.5 2.51745 122.74791 0 1 -1075.54166 -524.77625 A 3.5 2.51745 122.74791 0 1 -1074.92708 -521.21238 Z" />
    <path d="M -42.93404 -1133.90338 A 250 179.81805 302.74791 0 0 -112.6954 -1124.15411" />
    <path d="M -72.11878 -186.11447 L -72.11878 -228.03429" />
    <path d="M -72.11878 -256.71087 L -72.11878 -430.87772" />
    <path d="M -72.11878 -463.19746 L -72.11878 -605.89518 A 600 431.56333 302.74791 0 0 -98.62609 -770.12447" />
    <path d="M -109.90046 -798.68506 A 600 431.56333 302.74791 0 0 -230.98128 -945.90146" />
    <path d="M -134.89908 -1138.43485 A 250 179.81805 122.74791 0 1 -134.10176 -1138.69898" />
    <path d="M -382.12693 -1009.15804 A 57.5 41.35815 122.74791 0 1 -394.85549 -1013.76919 A 57.5 41.35815 122.74791 0 1 -399.83046 -1017.78065" />
    <path d="M -94.32246 -620.17592 A 600 431.56333 302.74791 0 0 -114.46829 -764.8423" />
    <path d="M -124.29759 -793.88471 A 600 431.56333 302.74791 0 0 -242.33093 -952.65653" />
    <path d="M -94.32246 -200.39521 L -94.32246 -242.31504" />
    <path d="M -94.32246 -270.99161 L -94.32246 -408.79914" />
    <path d="M -94.32246 -455.79422 L -94.32246 -620.17592 L -101.33414 -624.68563 A 600 431.56333 302.74791 0 0 -119.66377 -763.11" />
    <path d="M -75.25144 -227.69354 A 3.5 2.51745 122.74791 0 1 -79.98511 -223.80279 A 3.5 2.51745 122.74791 0 1 -76.1985 -229.6902 A 3.5 2.51745 122.74791 0 1 -75.25144 -227.69354 Z" />
    <path d="M -75.25144 -272.00922 A 3.5 2.51745 122.74791 0 1 -79.98511 -268.11847 A 3.5 2.51745 122.74791 0 1 -76.1985 -274.00588 A 3.5 2.51745 122.74791 0 1 -75.25144 -272.00922 Z" />
    <path d="M -75.25144 -316.3249 A 3.5 2.51745 122.74791 0 1 -79.98511 -312.43415 A 3.5 2.51745 122.74791 0 1 -76.1985 -318.32156 A 3.5 2.51745 122.74791 0 1 -75.25144 -316.3249 Z" />
    <path d="M -75.25144 -360.64058 A 3.5 2.51745 122.74791 0 1 -79.98511 -356.74983 A 3.5 2.51745 122.74791 0 1 -76.1985 -362.63724 A 3.5 2.51745 122.74791 0 1 -75.25144 -360.64058 Z" />
    <path d="M -75.25144 -404.95626 A 3.5 2.51745 122.74791 0 1 -79.98511 -401.06551 A 3.5 2.51745 122.74791 0 1 -76.1985 -406.95292 A 3.5 2.51745 122.74791 0 1 -75.25144 -404.95626 Z" />
    <path d="M -75.25144 -493.58761 A 3.5 2.51745 122.74791 0 1 -79.98511 -489.69686 A 3.5 2.51745 122.74791 0 1 -76.1985 -495.58427 A 3.5 2.51745 122.74791 0 1 -75.25144 -493.58761 Z" />
    <path d="M -75.25144 -537.90329 A 3.5 2.51745 122.74791 0 1 -79.98511 -534.01254 A 3.5 2.51745 122.74791 1 1 -76.1985 -539.89995 A 3.5 2.51745 122.74791 0 1 -75.25144 -537.90329 Z" />
    <path d="M -75.25144 -582.21897 A 3.5 2.51745 122.74791 0 1 -79.98511 -578.32822 A 3.5 2.51745 122.74791 0 1 -76.1985 -584.21563 A 3.5 2.51745 122.74791 0 1 -75.25144 -582.21897 Z" />
    <path d="M -75.25144 -626.53465 A 3.5 2.51745 122.74791 0 1 -79.98511 -622.6439 A 3.5 2.51745 122.74791 0 1 -76.1985 -628.53131 A 3.5 2.51745 122.74791 0 1 -75.25144 -626.53465 Z" />
    <path d="M -91.86514 -734.60076 A 3.5 2.51745 122.74791 0 1 -89.05537 -739.28447" />
    <path d="M -87.65368 -733.97166 A 3.5 2.51745 122.74791 0 1 -90.98015 -733.22836 A 3.5 2.51745 122.74791 0 1 -91.86514 -734.60076" />
    <path d="M -82.1509 -662.35 A 3.5 2.51745 122.74791 0 1 -77.42415 -666.45484 A 3.5 2.51745 122.74791 1 1 -81.21076 -660.56743 A 3.5 2.51745 122.74791 0 1 -82.1509 -662.35 Z" />
    <path d="M -85.80115 -699.06302 A 3.5 2.51745 122.74791 0 1 -81.09513 -703.37628 A 3.5 2.51745 122.74791 0 1 -80.83829 -703.17646" />
    <path d="M -80.30961 -700.29452 A 3.5 2.51745 122.74791 0 1 -84.88173 -697.48887 A 3.5 2.51745 122.74791 0 1 -85.80115 -699.06302" />
    <path d="M -100.31332 -768.79007 A 3.5 2.51745 122.74791 0 1 -100.42233 -769.52556" />
    <path d="M -97.68459 -767.42149 A 3.5 2.51745 122.74791 0 1 -99.47629 -767.61177 A 3.5 2.51745 122.74791 0 1 -100.31332 -768.79007" />
    <path d="M -65.10709 -601.38547 A 600 431.56333 302.74791 0 0 -93.82033 -771.72682" />
    <path d="M -105.56574 -800.13036 A 600 431.56333 302.74791 0 0 -227.4603 -943.67014 A 600 431.56333 302.74791 0 0 -348.86445 -990.06119" />
    <path d="M -65.10709 -181.60476 L -65.10709 -223.52459" />
    <path d="M -65.10709 -252.20116 L -65.10709 -433.21558" />
    <path d="M -65.10709 -465.53533 L -65.10709 -601.38547 L -72.11878 -605.89518" />
    <path d="M 97.1994 -965.71208 L 97.1994 -874.58468" />
    <path d="M 97.1994 -694.07096 L 97.1994 -646.32466" />
    <path d="M 97.1994 -487.33245 L 97.1994 -469.06194" />
    <path d="M 97.1994 -339.54554 L 97.1994 -291.79923" />
    <path d="M 97.1994 -162.28282 L 97.1994 -147.8105" />
    <path d="M 97.1994 -120.85496 L 97.1994 -77.2141" />
    <path d="M 96.79906 -979.49162 L 97.1994 -965.71208" />
    <path d="M -105.68371 -1119.6444 A 250 179.81805 122.74791 0 1 2.991 -1121.41017" />
    <path d="M 14.21522 -1116.78815 A 250 179.81805 122.74791 0 1 29.55223 -1108.3307 A 250 179.81805 122.74791 0 1 96.79906 -979.49162" />
    <path d="M -46.03608 -208.90309 A 3.5 2.51745 122.74791 0 1 -50.76974 -205.01234 A 3.5 2.51745 122.74791 0 1 -46.98314 -210.89975 A 3.5 2.51745 122.74791 0 1 -46.03608 -208.90309 Z" />
    <path d="M -46.03608 -253.21877 A 3.5 2.51745 122.74791 0 1 -50.76974 -249.32802 A 3.5 2.51745 122.74791 0 1 -46.98314 -255.21543 A 3.5 2.51745 122.74791 0 1 -46.03608 -253.21877 Z" />
    <path d="M -46.03608 -297.53445 A 3.5 2.51745 122.74791 0 1 -50.76974 -293.6437 A 3.5 2.51745 122.74791 0 1 -46.98314 -299.53111 A 3.5 2.51745 122.74791 0 1 -46.03608 -297.53445 Z" />
    <path d="M -46.03608 -341.85013 A 3.5 2.51745 122.74791 0 1 -50.76974 -337.95938 A 3.5 2.51745 122.74791 0 1 -46.98314 -343.84679 A 3.5 2.51745 122.74791 0 1 -46.03608 -341.85013 Z" />
    <path d="M -46.03608 -386.16581 A 3.5 2.51745 122.74791 0 1 -50.76974 -382.27506 A 3.5 2.51745 122.74791 0 1 -46.98314 -388.16247 A 3.5 2.51745 122.74791 0 1 -46.03608 -386.16581 Z" />
    <path d="M -46.03608 -430.48149 A 3.5 2.51745 122.74791 0 1 -50.76974 -426.59074 A 3.5 2.51745 122.74791 0 1 -46.98314 -432.47815 A 3.5 2.51745 122.74791 0 1 -46.03608 -430.48149 Z" />
    <path d="M -46.03608 -474.79717 A 3.5 2.51745 122.74791 0 1 -47.87552 -471.28074" />
    <path d="M -49.87735 -470.61328 A 3.5 2.51745 122.74791 0 1 -50.76974 -470.90641 A 3.5 2.51745 122.74791 0 1 -46.98314 -476.79383 A 3.5 2.51745 122.74791 0 1 -46.03608 -474.79717" />
    <path d="M -46.03608 -519.11284 A 3.5 2.51745 122.74791 0 1 -50.76974 -515.22209 A 3.5 2.51745 122.74791 1 1 -46.98314 -521.1095 A 3.5 2.51745 122.74791 0 1 -46.03608 -519.11284 Z" />
    <path d="M -46.03608 -563.42852 A 3.5 2.51745 122.74791 0 1 -50.76974 -559.53777 A 3.5 2.51745 122.74791 0 1 -46.98314 -565.42518 A 3.5 2.51745 122.74791 0 1 -46.03608 -563.42852 Z" />
    <path d="M -46.03608 -607.7442 A 3.5 2.51745 122.74791 0 1 -50.76974 -603.85345 A 3.5 2.51745 122.74791 0 1 -46.98314 -609.74086 A 3.5 2.51745 122.74791 0 1 -46.03608 -607.7442 Z" />
    <path d="M -244.00511 -972.31537 A 3.5 2.51745 122.74791 0 1 -244.14971 -972.39921 A 3.5 2.51745 122.74791 1 1 -240.36311 -978.28662 A 3.5 2.51745 122.74791 0 1 -244.00511 -972.31537 Z" />
    <path d="M -217.25398 -956.71954 A 3.5 2.51745 122.74791 0 1 -213.46011 -962.60225 A 3.5 2.51745 122.74791 0 1 -217.24671 -956.71484 A 3.5 2.51745 122.74791 0 1 -217.25398 -956.71954 Z" />
    <path d="M -192.13384 -938.6016 A 3.5 2.51745 122.74791 0 1 -188.19735 -944.38146 A 3.5 2.51745 122.74791 0 1 -191.98395 -938.49404 A 3.5 2.51745 122.74791 0 1 -192.13384 -938.6016 Z" />
    <path d="M -168.76705 -918.04983 A 3.5 2.51745 122.74791 0 1 -164.6979 -923.713 A 3.5 2.51745 122.74791 0 1 -168.48451 -917.82559 A 3.5 2.51745 122.74791 0 1 -168.76705 -918.04983 Z" />
    <path d="M -52.93553 -643.55955 A 3.5 2.51745 122.74791 0 1 -48.20878 -647.66439 A 3.5 2.51745 122.74791 1 1 -51.99539 -641.77698 A 3.5 2.51745 122.74791 0 1 -52.93553 -643.55955 Z" />
    <path d="M -62.64977 -715.81031 A 3.5 2.51745 122.74791 0 1 -57.97817 -720.32532 A 3.5 2.51745 122.74791 0 1 -61.76478 -714.43791 A 3.5 2.51745 122.74791 0 1 -62.64977 -715.81031 Z" />
    <path d="M -56.58578 -680.27257 A 3.5 2.51745 122.74791 0 1 -51.87976 -684.58584 A 3.5 2.51745 122.74791 0 1 -55.66636 -678.69842 A 3.5 2.51745 122.74791 0 1 -56.58578 -680.27257 Z" />
    <path d="M -94.97085 -813.67409 A 3.5 2.51745 122.74791 0 1 -90.48275 -818.7447 A 3.5 2.51745 122.74791 0 1 -94.26935 -812.85729 A 3.5 2.51745 122.74791 0 1 -94.97085 -813.67409 Z" />
    <path d="M -71.09795 -749.99962 A 3.5 2.51745 122.74791 0 1 -66.47432 -754.70874 A 3.5 2.51745 122.74791 0 1 -70.26092 -748.82132 A 3.5 2.51745 122.74791 0 1 -71.09795 -749.99962 Z" />
    <path d="M -147.26746 -895.16434 A 3.5 2.51745 122.74791 0 1 -143.07626 -900.69759 A 3.5 2.51745 122.74791 1 1 -146.86286 -894.81018 A 3.5 2.51745 122.74791 0 1 -147.26746 -895.16434 Z" />
    <path d="M -127.73982 -870.05663 A 3.5 2.51745 122.74791 0 1 -123.43775 -875.44734 A 3.5 2.51745 122.74791 1 1 -127.22436 -869.55993 A 3.5 2.51745 122.74791 0 1 -127.73982 -870.05663 Z" />
    <path d="M -110.27926 -842.84903 A 3.5 2.51745 122.74791 0 1 -105.87807 -848.08527 A 3.5 2.51745 122.74791 1 1 -109.66467 -842.19786 A 3.5 2.51745 122.74791 0 1 -110.27926 -842.84903 Z" />
    <path d="M -129.04993 -792.30017 A 600 431.56333 302.74791 0 0 -245.97822 -954.69146" />
    <path d="M -101.33414 -204.90492 L -101.33414 -246.82474" />
    <path d="M -101.33414 -275.50132 L -101.33414 -393.14802" />
    <path d="M -101.33414 -453.45636 L -101.33414 -624.68563" />
    <path d="M -386.34644 -473.28499 L -275.74676 -402.15059" />
    <path d="M -165.47167 -331.22496 L -101.33414 -289.97364" />
    <path d="M -143.12622 -446.36945 L -264.61657 -524.5084 L -284.90488 -517.74379 L -291.91657 -522.2535 L -373.06982 -495.19507 L -366.05813 -490.68536 L -386.34644 -483.92075 L -264.85609 -405.7818" />
    <path d="M -158.83075 -337.58949 L -101.33414 -300.6094" />
    <path d="M -386.34644 -473.28499 L -386.34644 -483.92075" />
    <path d="M -386.34644 -650.5477 L -101.33414 -467.23635" />
    <path d="M -101.33414 -596.75276 L -264.61657 -701.77111 L -284.90488 -695.00651 L -291.91657 -699.51621 L -373.06982 -672.45778 L -366.05813 -667.94807 L -386.34644 -661.18347 L -101.33414 -477.87211" />
    <path d="M -386.34644 -650.5477 L -386.34644 -661.18347" />
    <path d="M -386.34644 -827.81042 L -262.1402 -747.92469" />
    <path d="M -229.04585 -726.6394 L -101.68399 -644.72408" />
    <path d="M -129.51966 -792.14355 L -264.61657 -879.03383 L -284.90488 -872.26922 L -291.91657 -876.77893 L -373.06982 -849.7205 L -366.05813 -845.21079 L -386.34644 -838.44618 L -251.24953 -751.5559" />
    <path d="M -218.15518 -730.27061 L -102.17678 -655.67679" />
    <path d="M -386.34644 -827.81042 L -386.34644 -838.44618" />
    <path d="M -386.34644 -1005.07313 L -161.27084 -860.31126" />
    <path d="M -345.5888 -989.49481 L -172.99512 -878.48773" />
    <path d="M -386.34644 -1005.07313 L -386.34644 -1010.00637" />
    <path d="M -1603.64509 -78.04427 L -1318.63279 105.26708" />
    <path d="M -1318.63279 -13.61357 L -1481.91522 -118.63192 L -1502.20353 -111.86731 L -1509.21522 -116.37702 L -1590.36847 -89.31859 L -1583.35678 -84.80888 L -1603.64509 -78.04427" />
    <path d="M -1603.64509 -67.40851 L -1318.63279 115.90284" />
    <path d="M -1603.64509 -67.40851 L -1603.64509 -78.04427" />
    <path d="M -1603.64509 -255.30699 L -1318.63279 -71.99564" />
    <path d="M -1318.63279 -190.87628 L -1481.91522 -295.89464 L -1502.20353 -289.13003 L -1509.21522 -293.63974 L -1590.36847 -266.5813 L -1583.35678 -262.0716 L -1603.64509 -255.30699" />
    <path d="M -1603.64509 -244.67123 L -1318.63279 -61.35987" />
    <path d="M -1603.64509 -244.67123 L -1603.64509 -255.30699" />
    <path d="M -1603.64509 -432.5697 L -1318.63279 -249.25835" />
    <path d="M -1318.63279 -368.13899 L -1481.91522 -473.15735 L -1502.20353 -466.39274 L -1509.21522 -470.90245 L -1590.36847 -443.84402 L -1583.35678 -439.33431 L -1603.64509 -432.5697" />
    <path d="M -1603.64509 -421.93394 L -1318.63279 -238.62259" />
    <path d="M -1603.64509 -421.93394 L -1603.64509 -432.5697" />
    <path d="M -1603.64509 -609.83242 L -1318.63279 -426.52107" />
    <path d="M -1318.11151 -545.06643 L -1481.91522 -650.42007 L -1502.20353 -643.65546 L -1509.21522 -648.16517 L -1590.36847 -621.10673 L -1583.35678 -616.59703 L -1603.64509 -609.83242" />
    <path d="M -1603.64509 -599.19665 L -1318.63279 -415.8853" />
    <path d="M -1603.64509 -599.19665 L -1603.64509 -609.83242" />
    <path d="M -373.06982 -488.34749 L -373.06982 -495.19507" />
    <path d="M -373.06982 -665.61021 L -373.06982 -672.45778" />
    <path d="M -373.06982 -842.87292 L -373.06982 -849.7205" />
    <path d="M -1590.36847 -82.47102 L -1590.36847 -89.31859" />
    <path d="M -1590.36847 -259.73373 L -1590.36847 -266.5813" />
    <path d="M -1590.36847 -436.99645 L -1590.36847 -443.84402" />
    <path d="M -1590.36847 -614.25916 L -1590.36847 -621.10673" />
    <path d="M -732.02219 -580.61904 L -732.02219 -591.2548 L -752.3105 -584.4902" />
    <path d="M -732.02219 -580.61904 L -720.70918 -573.34285" />
    <path d="M -732.02219 -591.2548 L -709.81851 -576.97406" />
    <path d="M -955.19361 1078.52031 L -932.98993 1071.11708" />
    <path d="M -955.19361 -295.26572 L -955.19361 1078.52031" />
    <path d="M -954.79326 -309.31223 L -955.19361 -295.26572" />
    <path d="M -954.79326 -309.31223 A 250 179.81805 122.74791 0 1 -752.3105 -584.4902" />
    <path d="M -730.10682 -570.20946 A 250 179.81805 302.74791 0 0 -932.58958 -295.03149 L -925.57789 -290.52178 L -925.97824 -276.47527 L -925.97824 1097.31076 L -763.67175 1043.1939 L -763.67175 472.83712" />
    <path d="M -932.58958 -295.03149 L -932.98993 -280.98498 L -925.97824 -276.47527" />
    <path d="M -932.98993 -280.98498 L -932.98993 1092.80106 L -925.97824 1097.31076" />
    <path d="M -730.10682 -570.20946 L -709.81851 -576.97406" />
    <path d="M -447.70896 -653.73189 L -30.75567 -792.75409 A 57.5 41.35815 302.74791 0 0 -16.22431 -770.24498 L -9.21262 -765.73527 A 57.5 41.35815 302.74791 0 0 7.56305 -760.81772" />
    <path d="M -730.10682 -570.20946 L -723.09513 -565.69975" />
    <path d="M -447.57987 -657.56312 L -610.76638 -603.15284" />
    <path d="M -640.13025 -593.36222 L -723.09513 -565.69975" />
    <path d="M -454.59156 -662.07283 L -447.57987 -657.56312 A 57.5 41.35815 122.74791 0 1 -479.91439 -598.28108" />
    <path d="M -454.59156 -662.07283 L -31.78316 -803.04726 A 57.5 41.35815 302.74791 0 0 -30.75567 -792.75409" />
    <path d="M -24.77147 -798.53755 L -31.78316 -803.04726" />
    <path d="M 250.74379 -890.40093 L -24.77147 -798.53755 A 57.5 41.35815 302.74791 0 0 -9.21262 -765.73527" />
    <path d="M 250.74379 -890.40093 L 243.7321 -894.91064" />
    <path d="M 223.44379 -888.14603 L 243.7321 -894.91064" />
    <path d="M 223.44379 -888.14603 L 201.24011 -902.42677" />
    <path d="M 221.52842 -909.19138 L 201.24011 -902.42677" />
    <path d="M 221.52842 -909.19138 L 214.51673 -913.70109" />
    <path d="M -60.99853 -821.83771 L 214.51673 -913.70109" />
    <path d="M -53.98684 -817.328 L -60.99853 -821.83771 A 57.5 41.35815 302.74791 0 0 -60.57539 -815.13122" />
    <path d="M -53.98684 -817.328 L -476.79524 -676.35357" />
    <path d="M -483.80693 -680.86328 L -476.79524 -676.35357" />
    <path d="M -759.32219 -588.9999 L -676.35731 -616.66238" />
    <path d="M -646.99344 -626.45299 L -483.80693 -680.86328" />
    <path d="M -759.32219 -588.9999 L -752.3105 -584.4902" />
    <path d="M -759.32219 -588.9999 A 250 179.81805 302.74791 0 0 -961.80495 -313.82194 L -962.20529 -299.77543 L -962.20529 1074.01061 L -955.19361 1078.52031" />
    <path d="M -961.80495 -313.82194 L -954.79326 -309.31223" />
    <path d="M -962.20529 -299.77543 L -955.19361 -295.26572" />
    <path d="M -925.57789 -290.52178 A 250 179.81805 122.74791 0 1 -723.09513 -565.69975" />
    <path d="M -763.67175 343.32072 L -763.67175 295.57441" />
    <path d="M -763.67175 166.058 L -763.67175 118.3117" />
    <path d="M -763.67175 -11.20471 L -763.67175 -20.38239 A 600 431.56333 122.74791 0 1 -762.46661 -58.17591" />
    <path d="M -744.16034 -175.91827 A 600 431.56333 122.74791 0 1 -547.89339 -534.03824" />
    <path d="M -530.78531 -551.71142 A 600 431.56333 122.74791 0 1 -479.91439 -598.28108" />
    <path d="M -782.74276 340.50177 A 3.5 2.51745 122.74791 0 1 -778.0091 336.61102 A 3.5 2.51745 122.74791 1 1 -781.7957 342.49843 A 3.5 2.51745 122.74791 0 1 -782.74276 340.50177 Z" />
    <path d="M -782.74276 296.18609 A 3.5 2.51745 122.74791 0 1 -778.0091 292.29534 A 3.5 2.51745 122.74791 1 1 -781.7957 298.18275 A 3.5 2.51745 122.74791 0 1 -782.74276 296.18609 Z" />
    <path d="M -782.74276 163.23906 A 3.5 2.51745 122.74791 0 1 -778.0091 159.34831 A 3.5 2.51745 122.74791 1 1 -781.7957 165.23572 A 3.5 2.51745 122.74791 0 1 -782.74276 163.23906 Z" />
    <path d="M -782.74276 118.92338 A 3.5 2.51745 122.74791 0 1 -778.0091 115.03263 A 3.5 2.51745 122.74791 1 1 -781.7957 120.92004 A 3.5 2.51745 122.74791 0 1 -782.74276 118.92338 Z" />
    <path d="M -782.74276 -14.02366 A 3.5 2.51745 122.74791 0 1 -778.0091 -17.91441 A 3.5 2.51745 122.74791 1 1 -781.7957 -12.027 A 3.5 2.51745 122.74791 0 1 -782.74276 -14.02366 Z" />
    <path d="M -584.77373 -510.61005 A 3.5 2.51745 122.74791 0 1 -588.41573 -509.52777 A 3.5 2.51745 122.74791 0 1 -584.62913 -515.41518 A 3.5 2.51745 122.74791 0 1 -584.77373 -510.61005 Z" />
    <path d="M -611.52485 -477.17529 A 3.5 2.51745 122.74791 0 1 -615.31873 -475.90319 A 3.5 2.51745 122.74791 0 1 -611.53213 -481.7906 A 3.5 2.51745 122.74791 0 1 -611.52485 -477.17529 Z" />
    <path d="M -636.645 -442.30603 A 3.5 2.51745 122.74791 0 1 -640.58149 -440.83598 A 3.5 2.51745 122.74791 0 1 -636.79489 -446.72339 A 3.5 2.51745 122.74791 0 1 -636.645 -442.30603 Z" />
    <path d="M -660.01179 -406.17216 A 3.5 2.51745 122.74791 0 1 -664.08094 -404.49697 A 3.5 2.51745 122.74791 1 1 -660.29433 -410.38438 A 3.5 2.51745 122.74791 0 1 -660.01179 -406.17216 Z" />
    <path d="M -775.84331 -54.4399 A 3.5 2.51745 122.74791 0 1 -780.57005 -50.76784 A 3.5 2.51745 122.74791 1 1 -776.78345 -56.65526 A 3.5 2.51745 122.74791 0 1 -775.84331 -54.4399 Z" />
    <path d="M -733.80799 -252.58559 A 3.5 2.51745 122.74791 0 1 -738.29609 -250.03846 A 3.5 2.51745 122.74791 0 1 -734.50948 -255.92587 A 3.5 2.51745 122.74791 0 1 -733.80799 -252.58559 Z" />
    <path d="M -746.88967 -212.86196 A 3.5 2.51745 122.74791 0 1 -751.45204 -210.0893 A 3.5 2.51745 122.74791 0 1 -747.66543 -215.97671 A 3.5 2.51745 122.74791 0 1 -746.88967 -212.86196 Z" />
    <path d="M -681.51138 -368.94972 A 3.5 2.51745 122.74791 0 1 -685.70258 -367.06321 A 3.5 2.51745 122.74791 0 1 -681.91598 -372.95062 A 3.5 2.51745 122.74791 0 1 -681.51138 -368.94972 Z" />
    <path d="M -701.03902 -330.82005 A 3.5 2.51745 122.74791 0 1 -705.34109 -328.71707 A 3.5 2.51745 122.74791 0 1 -701.55448 -334.60448 A 3.5 2.51745 122.74791 0 1 -701.03902 -330.82005 Z" />
    <path d="M -718.49958 -291.96892 A 3.5 2.51745 122.74791 0 1 -722.90077 -289.64537 A 3.5 2.51745 122.74791 0 1 -719.11416 -295.53278 A 3.5 2.51745 122.74791 0 1 -718.49958 -291.96892 Z" />
    <path d="M 378.96804 -883.59694 A 250 179.81805 302.74791 0 0 243.7321 -894.91064" />
    <path d="M 284.30872 686.92458 L 284.30872 562.00634" />
    <path d="M 284.30872 43.129 L 284.30872 -95.05497" />
    <path d="M 284.30872 -115.82533 L 284.30872 -376.65171 A 600 431.56333 302.74791 0 0 257.80141 -540.881" />
    <path d="M 246.52704 -569.44159 A 600 431.56333 302.74791 0 0 125.44622 -716.65799" />
    <path d="M 221.52842 -909.19138 A 250 179.81805 122.74791 0 1 356.76436 -897.87768 A 250 179.81805 122.74791 0 1 367.50135 -890.17003" />
    <path d="M -25.69943 -779.91457 A 57.5 41.35815 122.74791 0 1 -38.42799 -784.52572 A 57.5 41.35815 122.74791 0 1 -43.40296 -788.53718" />
    <path d="M 262.10504 -390.93245 A 600 431.56333 302.74791 0 0 241.95921 -535.59883" />
    <path d="M 232.1299 -564.64125 A 600 431.56333 302.74791 0 0 114.09657 -723.41307" />
    <path d="M 262.10504 672.64384 L 262.10504 569.40958" />
    <path d="M 262.10504 28.84826 L 262.10504 -93.35148" />
    <path d="M 262.10504 -113.86923 L 262.10504 -390.93245 L 255.09335 -395.44216 A 600 431.56333 302.74791 0 0 236.76373 -533.86653" />
    <path d="M 284.30872 665.2406 L 262.10504 672.64384 L 255.09335 668.13413 L 255.09335 571.74744" />
    <path d="M 281.17606 1.54993 A 3.5 2.51745 122.74791 0 1 276.44239 5.44068 A 3.5 2.51745 122.74791 0 1 280.229 -0.44673 A 3.5 2.51745 122.74791 0 1 281.17606 1.54993 Z" />
    <path d="M 281.17606 -42.76575 A 3.5 2.51745 122.74791 0 1 276.44239 -38.875 A 3.5 2.51745 122.74791 0 1 280.229 -44.76241 A 3.5 2.51745 122.74791 0 1 281.17606 -42.76575 Z" />
    <path d="M 281.17606 -87.08143 A 3.5 2.51745 122.74791 0 1 276.44239 -83.19068 A 3.5 2.51745 122.74791 0 1 280.229 -89.07809 A 3.5 2.51745 122.74791 0 1 281.17606 -87.08143 Z" />
    <path d="M 281.17606 -131.39711 A 3.5 2.51745 122.74791 0 1 276.44239 -127.50636 A 3.5 2.51745 122.74791 0 1 280.229 -133.39377 A 3.5 2.51745 122.74791 0 1 281.17606 -131.39711 Z" />
    <path d="M 281.17606 -175.71279 A 3.5 2.51745 122.74791 0 1 276.44239 -171.82204 A 3.5 2.51745 122.74791 0 1 280.229 -177.70945 A 3.5 2.51745 122.74791 0 1 281.17606 -175.71279 Z" />
    <path d="M 281.17606 -220.02847 A 3.5 2.51745 122.74791 0 1 276.44239 -216.13772 A 3.5 2.51745 122.74791 0 1 280.229 -222.02513 A 3.5 2.51745 122.74791 0 1 281.17606 -220.02847 Z" />
    <path d="M 281.17606 -264.34415 A 3.5 2.51745 122.74791 0 1 276.44239 -260.45339 A 3.5 2.51745 122.74791 0 1 280.229 -266.34081 A 3.5 2.51745 122.74791 0 1 281.17606 -264.34415 Z" />
    <path d="M 281.17606 -308.65982 A 3.5 2.51745 122.74791 0 1 276.44239 -304.76907 A 3.5 2.51745 122.74791 1 1 280.229 -310.65648 A 3.5 2.51745 122.74791 0 1 281.17606 -308.65982 Z" />
    <path d="M 281.17606 -352.9755 A 3.5 2.51745 122.74791 0 1 276.44239 -349.08475 A 3.5 2.51745 122.74791 0 1 280.229 -354.97216 A 3.5 2.51745 122.74791 0 1 281.17606 -352.9755 Z" />
    <path d="M 281.17606 -397.29118 A 3.5 2.51745 122.74791 0 1 276.44239 -393.40043 A 3.5 2.51745 122.74791 0 1 280.229 -399.28784 A 3.5 2.51745 122.74791 0 1 281.17606 -397.29118 Z" />
    <path d="M 264.56236 -505.35729 A 3.5 2.51745 122.74791 0 1 267.37213 -510.041" />
    <path d="M 268.77382 -504.7282 A 3.5 2.51745 122.74791 0 1 265.44735 -503.98489 A 3.5 2.51745 122.74791 0 1 264.56236 -505.35729" />
    <path d="M 274.2766 -433.10653 A 3.5 2.51745 122.74791 0 1 279.00335 -437.21137 A 3.5 2.51745 122.74791 1 1 275.21674 -431.32396 A 3.5 2.51745 122.74791 0 1 274.2766 -433.10653 Z" />
    <path d="M 270.62635 -469.81955 A 3.5 2.51745 122.74791 0 1 275.33237 -474.13282 A 3.5 2.51745 122.74791 0 1 275.58921 -473.933" />
    <path d="M 276.11789 -471.05105 A 3.5 2.51745 122.74791 0 1 271.54577 -468.2454 A 3.5 2.51745 122.74791 0 1 270.62635 -469.81955" />
    <path d="M 256.11418 -539.5466 A 3.5 2.51745 122.74791 0 1 256.00517 -540.28209" />
    <path d="M 258.74291 -538.17802 A 3.5 2.51745 122.74791 0 1 256.95121 -538.3683 A 3.5 2.51745 122.74791 0 1 256.11418 -539.5466" />
    <path d="M 291.32041 -372.142 A 600 431.56333 302.74791 0 0 262.60716 -542.48335" />
    <path d="M 250.86176 -570.88689 A 600 431.56333 302.74791 0 0 128.9672 -714.42667 A 600 431.56333 302.74791 0 0 7.56305 -760.81772" />
    <path d="M 291.32041 691.43429 L 291.32041 559.66847" />
    <path d="M 291.32041 47.63871 L 291.32041 -95.84447" />
    <path d="M 291.32041 -116.73595 L 291.32041 -372.142 L 284.30872 -376.65171" />
    <path d="M 444.9254 640.21871 L 291.32041 691.43429 L 284.30872 686.92458" />
    <path d="M 453.6269 -736.46862 L 453.6269 -645.34121" />
    <path d="M 453.6269 -464.8275 L 453.6269 -417.08119" />
    <path d="M 453.6269 -287.56478 L 453.6269 -239.81847" />
    <path d="M 453.6269 -110.30207 L 453.6269 -62.55576" />
    <path d="M 453.6269 66.96065 L 453.6269 152.02937" />
    <path d="M 453.6269 505.55161 L 453.6269 627.91704" />
    <path d="M 453.22656 -750.24815 L 453.6269 -736.46862" />
    <path d="M 250.74379 -890.40093 A 250 179.81805 122.74791 0 1 385.97973 -879.08723 A 250 179.81805 122.74791 0 1 453.22656 -750.24815" />
    <path d="M 310.39142 20.34037 A 3.5 2.51745 122.74791 0 1 305.65776 24.23113 A 3.5 2.51745 122.74791 0 1 309.44436 18.34371 A 3.5 2.51745 122.74791 0 1 310.39142 20.34037 Z" />
    <path d="M 310.39142 -23.9753 A 3.5 2.51745 122.74791 0 1 305.65776 -20.08455 A 3.5 2.51745 122.74791 0 1 309.44436 -25.97196 A 3.5 2.51745 122.74791 0 1 310.39142 -23.9753 Z" />
    <path d="M 310.39142 -68.29098 A 3.5 2.51745 122.74791 0 1 305.65776 -64.40023 A 3.5 2.51745 122.74791 0 1 309.44436 -70.28764 A 3.5 2.51745 122.74791 0 1 310.39142 -68.29098 Z" />
    <path d="M 310.39142 -156.92234 A 3.5 2.51745 122.74791 0 1 305.65776 -153.03159 A 3.5 2.51745 122.74791 0 1 309.44436 -158.919 A 3.5 2.51745 122.74791 0 1 310.39142 -156.92234 Z" />
    <path d="M 310.39142 -201.23802 A 3.5 2.51745 122.74791 0 1 305.65776 -197.34727 A 3.5 2.51745 122.74791 0 1 309.44436 -203.23468 A 3.5 2.51745 122.74791 0 1 310.39142 -201.23802 Z" />
    <path d="M 310.39142 -245.5537 A 3.5 2.51745 122.74791 0 1 305.65776 -241.66295 A 3.5 2.51745 122.74791 0 1 309.44436 -247.55036 A 3.5 2.51745 122.74791 0 1 310.39142 -245.5537 Z" />
    <path d="M 310.39142 -289.86938 A 3.5 2.51745 122.74791 0 1 305.65776 -285.97862 A 3.5 2.51745 122.74791 1 1 309.44436 -291.86604 A 3.5 2.51745 122.74791 0 1 310.39142 -289.86938 Z" />
    <path d="M 310.39142 -334.18505 A 3.5 2.51745 122.74791 0 1 305.65776 -330.2943 A 3.5 2.51745 122.74791 0 1 309.44436 -336.18171 A 3.5 2.51745 122.74791 0 1 310.39142 -334.18505 Z" />
    <path d="M 310.39142 -378.50073 A 3.5 2.51745 122.74791 0 1 305.65776 -374.60998 A 3.5 2.51745 122.74791 0 1 309.44436 -380.49739 A 3.5 2.51745 122.74791 0 1 310.39142 -378.50073 Z" />
    <path d="M 112.42239 -743.0719 A 3.5 2.51745 122.74791 0 1 112.27779 -743.15574 A 3.5 2.51745 122.74791 1 1 116.06439 -749.04316 A 3.5 2.51745 122.74791 0 1 112.42239 -743.0719 Z" />
    <path d="M 139.17352 -727.47607 A 3.5 2.51745 122.74791 0 1 142.96739 -733.35878 A 3.5 2.51745 122.74791 0 1 139.18079 -727.47137 A 3.5 2.51745 122.74791 0 1 139.17352 -727.47607 Z" />
    <path d="M 164.29366 -709.35814 A 3.5 2.51745 122.74791 0 1 168.23015 -715.13799 A 3.5 2.51745 122.74791 0 1 164.44355 -709.25058 A 3.5 2.51745 122.74791 0 1 164.29366 -709.35814 Z" />
    <path d="M 187.66045 -688.80636 A 3.5 2.51745 122.74791 0 1 191.7296 -694.46953 A 3.5 2.51745 122.74791 0 1 187.94299 -688.58212 A 3.5 2.51745 122.74791 0 1 187.66045 -688.80636 Z" />
    <path d="M 303.49197 -414.31609 A 3.5 2.51745 122.74791 0 1 308.21872 -418.42092 A 3.5 2.51745 122.74791 1 1 304.43211 -412.53351 A 3.5 2.51745 122.74791 0 1 303.49197 -414.31609 Z" />
    <path d="M 293.77773 -486.56684 A 3.5 2.51745 122.74791 0 1 298.44933 -491.08186 A 3.5 2.51745 122.74791 0 1 294.66272 -485.19445 A 3.5 2.51745 122.74791 0 1 293.77773 -486.56684 Z" />
    <path d="M 299.84172 -451.02911 A 3.5 2.51745 122.74791 0 1 304.54774 -455.34237 A 3.5 2.51745 122.74791 0 1 300.76114 -449.45496 A 3.5 2.51745 122.74791 0 1 299.84172 -451.02911 Z" />
    <path d="M 261.45665 -584.43062 A 3.5 2.51745 122.74791 0 1 265.94475 -589.50123 A 3.5 2.51745 122.74791 0 1 262.15815 -583.61382 A 3.5 2.51745 122.74791 0 1 261.45665 -584.43062 Z" />
    <path d="M 285.32955 -520.75615 A 3.5 2.51745 122.74791 0 1 289.95318 -525.46527 A 3.5 2.51745 122.74791 0 1 286.16658 -519.57786 A 3.5 2.51745 122.74791 0 1 285.32955 -520.75615 Z" />
    <path d="M 209.16004 -665.92087 A 3.5 2.51745 122.74791 0 1 213.35124 -671.45412 A 3.5 2.51745 122.74791 1 1 209.56464 -665.56671 A 3.5 2.51745 122.74791 0 1 209.16004 -665.92087 Z" />
    <path d="M 228.68768 -640.81316 A 3.5 2.51745 122.74791 0 1 232.98975 -646.20387 A 3.5 2.51745 122.74791 1 1 229.20314 -640.31646 A 3.5 2.51745 122.74791 0 1 228.68768 -640.81316 Z" />
    <path d="M 246.14824 -613.60556 A 3.5 2.51745 122.74791 0 1 250.54943 -618.84181 A 3.5 2.51745 122.74791 1 1 246.76283 -612.9544 A 3.5 2.51745 122.74791 0 1 246.14824 -613.60556 Z" />
    <path d="M 349.75267 -902.38738 A 250 179.81805 302.74791 0 0 214.51673 -913.70109" />
    <path d="M 227.37757 -563.0567 A 600 431.56333 302.74791 0 0 110.44928 -725.44799" />
    <path d="M 255.09335 24.33855 L 255.09335 -93.05752" />
    <path d="M 255.09335 -113.53285 L 255.09335 -395.44216" />
    <path d="M -29.91894 -244.04152 L 158.84825 -122.63213" />
    <path d="M 202.59089 -94.49818 L 255.09335 -60.73017" />
    <path d="M 255.09335 -190.24657 L 91.81093 -295.26493 L 71.52262 -288.50032 L 64.51093 -293.01003 L -16.64232 -265.9516 L -9.63063 -261.44189 L -29.91894 -254.67728 L 182.93842 -117.77382" />
    <path d="M 221.06079 -93.25466 L 255.09335 -71.36593" />
    <path d="M -29.91894 -244.04152 L -29.91894 -254.67728" />
    <path d="M -29.91894 -421.30423 L 255.09335 -237.99288" />
    <path d="M 255.09335 -367.50929 L 91.81093 -472.52765 L 71.52262 -465.76304 L 64.51093 -470.27274 L -16.64232 -443.21431 L -9.63063 -438.70461 L -29.91894 -431.94 L 255.09335 -248.62865" />
    <path d="M -29.91894 -421.30423 L -29.91894 -431.94" />
    <path d="M -29.91894 -598.56695 L 94.2873 -518.68123" />
    <path d="M 127.38165 -497.39593 L 254.74351 -415.48061" />
    <path d="M 226.90784 -562.90008 L 91.81093 -649.79036 L 71.52262 -643.02575 L 64.51093 -647.53546 L -16.64232 -620.47703 L -9.63063 -615.96732 L -29.91894 -609.20271 L 105.17797 -522.31244" />
    <path d="M 138.27232 -501.02714 L 254.25072 -426.43332" />
    <path d="M -29.91894 -598.56695 L -29.91894 -609.20271" />
    <path d="M -29.91894 -775.82966 L 195.15666 -631.0678" />
    <path d="M 10.83869 -760.25134 L 183.43238 -649.24426" />
    <path d="M -29.91894 -775.82966 L -29.91894 -780.7629" />
    <path d="M -1247.21759 151.19919 L -962.20529 334.51055" />
    <path d="M -962.20529 215.6299 L -1125.48772 110.61155 L -1145.77603 117.37615 L -1152.78772 112.86645 L -1233.94097 139.92488 L -1226.92928 144.43459 L -1247.21759 151.19919" />
    <path d="M -1247.21759 161.83496 L -962.20529 345.14631" />
    <path d="M -1247.21759 161.83496 L -1247.21759 151.19919" />
    <path d="M -1247.21759 -26.06352 L -962.20529 157.24783" />
    <path d="M -962.20529 38.36719 L -1125.48772 -66.65117 L -1145.77603 -59.88656 L -1152.78772 -64.39627 L -1233.94097 -37.33784 L -1226.92928 -32.82813 L -1247.21759 -26.06352" />
    <path d="M -1247.21759 -15.42776 L -962.20529 167.88359" />
    <path d="M -1247.21759 -15.42776 L -1247.21759 -26.06352" />
    <path d="M -1247.21759 -203.32623 L -962.20529 -20.01488" />
    <path d="M -962.20529 -138.89553 L -1125.48772 -243.91388 L -1145.77603 -237.14927 L -1152.78772 -241.65898 L -1233.94097 -214.60055 L -1226.92928 -210.09084 L -1247.21759 -203.32623" />
    <path d="M -1247.21759 -192.69047 L -962.20529 -9.37912" />
    <path d="M -1247.21759 -192.69047 L -1247.21759 -203.32623" />
    <path d="M -1247.21759 -380.58895 L -962.20529 -197.2776" />
    <path d="M -961.68401 -315.82296 L -1125.48772 -421.1766 L -1145.77603 -414.41199 L -1152.78772 -418.9217 L -1233.94097 -391.86327 L -1226.92928 -387.35356 L -1247.21759 -380.58895" />
    <path d="M -1247.21759 -369.95319 L -962.20529 -186.64184" />
    <path d="M -1247.21759 -369.95319 L -1247.21759 -380.58895" />
    <path d="M -16.64232 -259.10403 L -16.64232 -265.9516" />
    <path d="M -16.64232 -436.36674 L -16.64232 -443.21431" />
    <path d="M -16.64232 -613.62946 L -16.64232 -620.47703" />
    <path d="M -1233.94097 146.77245 L -1233.94097 139.92488" />
    <path d="M -1233.94097 -30.49026 L -1233.94097 -37.33784" />
    <path d="M -1233.94097 -207.75298 L -1233.94097 -214.60055" />
    <path d="M -1233.94097 -385.01569 L -1233.94097 -391.86327" />
    <path d="M -375.59469 -351.37557 L -375.59469 -362.01134 L -395.883 -355.24673" />
    <path d="M -375.59469 -351.37557 L -364.28168 -344.09938" />
    <path d="M -375.59469 -362.01134 L -353.39101 -347.73059" />
    <path d="M -598.76611 1307.76378 L -576.56243 1300.36054" />
    <path d="M -598.76611 -66.02225 L -598.76611 1307.76378" />
    <path d="M -598.36576 -80.06876 L -598.76611 -66.02225" />
    <path d="M -598.36576 -80.06876 A 250 179.81805 122.74791 0 1 -395.883 -355.24673" />
    <path d="M -373.67932 -340.96599 A 250 179.81805 302.74791 0 0 -576.16208 -65.78802 L -569.15039 -61.27831 L -569.55074 -47.23181 L -569.55074 1326.55423 L -558.79948 1322.96951" />
    <path d="M -576.16208 -65.78802 L -576.56243 -51.74151 L -569.55074 -47.23181" />
    <path d="M -576.56243 -51.74151 L -576.56243 1322.04452 L -569.55074 1326.55423" />
    <path d="M -373.67932 -340.96599 L -353.39101 -347.73059" />
    <path d="M -91.28146 -424.48842 L 325.67183 -563.51062 A 57.5 41.35815 302.74791 0 0 340.20319 -541.00151 L 347.21488 -536.4918 A 57.5 41.35815 302.74791 0 0 363.99055 -531.57425" />
    <path d="M -373.67932 -340.96599 L -366.66763 -336.45628" />
    <path d="M -91.15237 -428.31966 L -254.33888 -373.90937" />
    <path d="M -283.70275 -364.11875 L -366.66763 -336.45628" />
    <path d="M -98.16406 -432.82936 L -91.15237 -428.31966 A 57.5 41.35815 122.74791 0 1 -123.48689 -369.03761" />
    <path d="M -98.16406 -432.82936 L 324.64434 -573.80379 A 57.5 41.35815 302.74791 0 0 325.67183 -563.51062" />
    <path d="M 331.65603 -569.29408 L 324.64434 -573.80379" />
    <path d="M 607.17129 -661.15746 L 331.65603 -569.29408 A 57.5 41.35815 302.74791 0 0 347.21488 -536.4918" />
    <path d="M 607.17129 -661.15746 L 600.1596 -665.66717" />
    <path d="M 579.87129 -658.90256 L 600.1596 -665.66717" />
    <path d="M 579.87129 -658.90256 L 557.66761 -673.1833" />
    <path d="M 577.95592 -679.94791 L 557.66761 -673.1833" />
    <path d="M 577.95592 -679.94791 L 570.94423 -684.45762" />
    <path d="M 295.42897 -592.59424 L 570.94423 -684.45762" />
    <path d="M 302.44066 -588.08453 L 295.42897 -592.59424 A 57.5 41.35815 302.74791 0 0 295.85211 -585.88775" />
    <path d="M 302.44066 -588.08453 L -120.36774 -447.1101" />
    <path d="M -127.37943 -451.61981 L -120.36774 -447.1101" />
    <path d="M -402.89469 -359.75644 L -319.92981 -387.41891" />
    <path d="M -290.56594 -397.20953 L -127.37943 -451.61981" />
    <path d="M -402.89469 -359.75644 L -395.883 -355.24673" />
    <path d="M -402.89469 -359.75644 A 250 179.81805 302.74791 0 0 -605.37745 -84.57847 L -605.7778 -70.53196 L -605.7778 1303.25408 L -598.76611 1307.76378" />
    <path d="M -605.37745 -84.57847 L -598.36576 -80.06876" />
    <path d="M -605.7778 -70.53196 L -598.76611 -66.02225" />
    <path d="M -569.15039 -61.27831 A 250 179.81805 122.74791 0 1 -366.66763 -336.45628" />
    <path d="M -407.24425 896.77641 L -407.24425 208.86108 A 600 431.56333 122.74791 0 1 -191.46589 -304.79477" />
    <path d="M -174.35781 -322.46795 A 600 431.56333 122.74791 0 1 -123.48689 -369.03761" />
    <path d="M -426.31526 614.06092 A 3.5 2.51745 122.74791 0 1 -421.5816 610.17017 A 3.5 2.51745 122.74791 1 1 -425.3682 616.05758 A 3.5 2.51745 122.74791 0 1 -426.31526 614.06092 Z" />
    <path d="M -426.31526 569.74524 A 3.5 2.51745 122.74791 0 1 -421.5816 565.85449 A 3.5 2.51745 122.74791 1 1 -425.3682 571.7419 A 3.5 2.51745 122.74791 0 1 -426.31526 569.74524 Z" />
    <path d="M -426.31526 525.42956 A 3.5 2.51745 122.74791 0 1 -421.5816 521.53881 A 3.5 2.51745 122.74791 1 1 -425.3682 527.42622 A 3.5 2.51745 122.74791 0 1 -426.31526 525.42956 Z" />
    <path d="M -426.31526 481.11388 A 3.5 2.51745 122.74791 0 1 -421.5816 477.22313 A 3.5 2.51745 122.74791 1 1 -425.3682 483.11054 A 3.5 2.51745 122.74791 0 1 -426.31526 481.11388 Z" />
    <path d="M -426.31526 436.7982 A 3.5 2.51745 122.74791 0 1 -421.5816 432.90745 A 3.5 2.51745 122.74791 1 1 -425.3682 438.79487 A 3.5 2.51745 122.74791 0 1 -426.31526 436.7982 Z" />
    <path d="M -426.31526 392.48253 A 3.5 2.51745 122.74791 0 1 -421.5816 388.59178 A 3.5 2.51745 122.74791 1 1 -425.3682 394.47919 A 3.5 2.51745 122.74791 0 1 -426.31526 392.48253 Z" />
    <path d="M -426.31526 348.16685 A 3.5 2.51745 122.74791 0 1 -421.5816 344.2761 A 3.5 2.51745 122.74791 1 1 -425.3682 350.16351 A 3.5 2.51745 122.74791 0 1 -426.31526 348.16685 Z" />
    <path d="M -426.31526 303.85117 A 3.5 2.51745 122.74791 0 1 -421.5816 299.96042 A 3.5 2.51745 122.74791 1 1 -425.3682 305.84783 A 3.5 2.51745 122.74791 0 1 -426.31526 303.85117 Z" />
    <path d="M -426.31526 259.53549 A 3.5 2.51745 122.74791 0 1 -421.5816 255.64474 A 3.5 2.51745 122.74791 1 1 -425.3682 261.53215 A 3.5 2.51745 122.74791 0 1 -426.31526 259.53549 Z" />
    <path d="M -426.31526 215.21981 A 3.5 2.51745 122.74791 0 1 -421.5816 211.32906 A 3.5 2.51745 122.74791 1 1 -425.3682 217.21647 A 3.5 2.51745 122.74791 0 1 -426.31526 215.21981 Z" />
    <path d="M -228.34623 -281.36658 A 3.5 2.51745 122.74791 0 1 -231.98823 -280.2843 A 3.5 2.51745 122.74791 0 1 -228.20163 -286.17171 A 3.5 2.51745 122.74791 0 1 -228.34623 -281.36658 Z" />
    <path d="M -255.09735 -247.93182 A 3.5 2.51745 122.74791 0 1 -258.89123 -246.65972 A 3.5 2.51745 122.74791 0 1 -255.10463 -252.54714 A 3.5 2.51745 122.74791 0 1 -255.09735 -247.93182 Z" />
    <path d="M -280.2175 -213.06256 A 3.5 2.51745 122.74791 0 1 -284.15399 -211.59251 A 3.5 2.51745 122.74791 0 1 -280.36739 -217.47992 A 3.5 2.51745 122.74791 0 1 -280.2175 -213.06256 Z" />
    <path d="M -303.58429 -176.9287 A 3.5 2.51745 122.74791 0 1 -307.65344 -175.2535 A 3.5 2.51745 122.74791 1 1 -303.86683 -181.14091 A 3.5 2.51745 122.74791 0 1 -303.58429 -176.9287 Z" />
    <path d="M -419.41581 174.80357 A 3.5 2.51745 122.74791 0 1 -424.14255 178.47562 A 3.5 2.51745 122.74791 1 1 -420.35595 172.58821 A 3.5 2.51745 122.74791 0 1 -419.41581 174.80357 Z" />
    <path d="M -409.70157 96.0749 A 3.5 2.51745 122.74791 0 1 -414.37317 99.29999 A 3.5 2.51745 122.74791 0 1 -410.58656 93.41258 A 3.5 2.51745 122.74791 0 1 -409.70157 96.0749 Z" />
    <path d="M -415.76556 135.65639 A 3.5 2.51745 122.74791 0 1 -420.47158 139.1062 A 3.5 2.51745 122.74791 0 1 -416.68497 133.21878 A 3.5 2.51745 122.74791 0 1 -415.76556 135.65639 Z" />
    <path d="M -377.38049 -23.34212 A 3.5 2.51745 122.74791 0 1 -381.86859 -20.79499 A 3.5 2.51745 122.74791 0 1 -378.08198 -26.6824 A 3.5 2.51745 122.74791 0 1 -377.38049 -23.34212 Z" />
    <path d="M -390.46217 16.38151 A 3.5 2.51745 122.74791 0 1 -395.02454 19.15417 A 3.5 2.51745 122.74791 0 1 -391.23793 13.26676 A 3.5 2.51745 122.74791 0 1 -390.46217 16.38151 Z" />
    <path d="M -401.25339 56.25194 A 3.5 2.51745 122.74791 0 1 -405.87702 59.25095 A 3.5 2.51745 122.74791 0 1 -402.09041 53.36353 A 3.5 2.51745 122.74791 0 1 -401.25339 56.25194 Z" />
    <path d="M -325.08388 -139.70625 A 3.5 2.51745 122.74791 0 1 -329.27508 -137.81974 A 3.5 2.51745 122.74791 0 1 -325.48848 -143.70715 A 3.5 2.51745 122.74791 0 1 -325.08388 -139.70625 Z" />
    <path d="M -344.61152 -101.57658 A 3.5 2.51745 122.74791 0 1 -348.91359 -99.4736 A 3.5 2.51745 122.74791 0 1 -345.12698 -105.36101 A 3.5 2.51745 122.74791 0 1 -344.61152 -101.57658 Z" />
    <path d="M -362.07208 -62.72545 A 3.5 2.51745 122.74791 0 1 -366.47327 -60.4019 A 3.5 2.51745 122.74791 0 1 -362.68667 -66.28931 A 3.5 2.51745 122.74791 0 1 -362.07208 -62.72545 Z" />
    <path d="M 735.39554 -654.35347 A 250 179.81805 302.74791 0 0 600.1596 -665.66717" />
    <path d="M 640.73622 552.15199 L 640.73622 442.64789" />
    <path d="M 640.73622 338.40198 L 640.73622 -147.40824 A 600 431.56333 302.74791 0 0 637.89934 -203.78317" />
    <path d="M 635.13213 -225.98943 A 600 431.56333 302.74791 0 0 481.87372 -487.41452" />
    <path d="M 577.95592 -679.94791 A 250 179.81805 122.74791 0 1 713.19186 -668.63421 A 250 179.81805 122.74791 0 1 723.92885 -660.92656" />
    <path d="M 330.72807 -550.6711 A 57.5 41.35815 122.74791 0 1 317.99951 -555.28225 A 57.5 41.35815 122.74791 0 1 313.02454 -559.29371" />
    <path d="M 618.53254 -161.68898 A 600 431.56333 302.74791 0 0 617.43799 -196.96087" />
    <path d="M 615.55039 -219.46041 A 600 431.56333 302.74791 0 0 470.52407 -494.1696" />
    <path d="M 618.53254 556.69664 L 618.53254 450.56813" />
    <path d="M 618.53254 324.12124 L 618.53254 -161.68898 L 611.52085 -166.19869 A 600 431.56333 302.74791 0 0 610.8068 -194.74987" />
    <path d="M 637.60356 230.79339 A 3.5 2.51745 122.74791 0 1 632.86989 234.68415 A 3.5 2.51745 122.74791 0 1 636.65649 228.79673 A 3.5 2.51745 122.74791 0 1 637.60356 230.79339 Z" />
    <path d="M 637.60356 186.47772 A 3.5 2.51745 122.74791 0 1 632.86989 190.36847 A 3.5 2.51745 122.74791 0 1 636.65649 184.48106 A 3.5 2.51745 122.74791 0 1 637.60356 186.47772 Z" />
    <path d="M 637.60356 142.16204 A 3.5 2.51745 122.74791 0 1 632.86989 146.05279 A 3.5 2.51745 122.74791 0 1 636.65649 140.16538 A 3.5 2.51745 122.74791 0 1 637.60356 142.16204 Z" />
    <path d="M 637.60356 97.84636 A 3.5 2.51745 122.74791 0 1 632.86989 101.73711 A 3.5 2.51745 122.74791 0 1 636.65649 95.8497 A 3.5 2.51745 122.74791 0 1 637.60356 97.84636 Z" />
    <path d="M 637.60356 53.53068 A 3.5 2.51745 122.74791 0 1 632.86989 57.42143 A 3.5 2.51745 122.74791 0 1 636.65649 51.53402 A 3.5 2.51745 122.74791 0 1 637.60356 53.53068 Z" />
    <path d="M 637.60356 9.215 A 3.5 2.51745 122.74791 0 1 632.86989 13.10575 A 3.5 2.51745 122.74791 0 1 636.65649 7.21834 A 3.5 2.51745 122.74791 0 1 637.60356 9.215 Z" />
    <path d="M 637.60356 -35.10068 A 3.5 2.51745 122.74791 0 1 632.86989 -31.20993 A 3.5 2.51745 122.74791 0 1 636.65649 -37.09734 A 3.5 2.51745 122.74791 0 1 637.60356 -35.10068 Z" />
    <path d="M 637.60356 -79.41636 A 3.5 2.51745 122.74791 0 1 632.86989 -75.5256 A 3.5 2.51745 122.74791 1 1 636.65649 -81.41302 A 3.5 2.51745 122.74791 0 1 637.60356 -79.41636 Z" />
    <path d="M 637.60356 -123.73203 A 3.5 2.51745 122.74791 0 1 632.86989 -119.84128 A 3.5 2.51745 122.74791 0 1 636.65649 -125.72869 A 3.5 2.51745 122.74791 0 1 637.60356 -123.73203 Z" />
    <path d="M 637.60356 -168.04771 A 3.5 2.51745 122.74791 0 1 632.86989 -164.15696 A 3.5 2.51745 122.74791 0 1 636.65649 -170.04437 A 3.5 2.51745 122.74791 0 1 637.60356 -168.04771 Z" />
    <path d="M 620.98986 -276.11382 A 3.5 2.51745 122.74791 0 1 623.79963 -280.79753" />
    <path d="M 625.20132 -275.48473 A 3.5 2.51745 122.74791 0 1 621.87485 -274.74143 A 3.5 2.51745 122.74791 0 1 620.98986 -276.11382" />
    <path d="M 634.94359 -202.79765 A 3.5 2.51745 122.74791 0 1 632.1315 -201.86004" />
    <path d="M 627.05385 -240.57609 A 3.5 2.51745 122.74791 0 1 631.75987 -244.88935 A 3.5 2.51745 122.74791 0 1 632.01671 -244.68953" />
    <path d="M 632.54539 -241.80758 A 3.5 2.51745 122.74791 0 1 627.97327 -239.00194 A 3.5 2.51745 122.74791 0 1 627.05385 -240.57609" />
    <path d="M 612.54168 -310.30313 A 3.5 2.51745 122.74791 0 1 613.44732 -313.83746" />
    <path d="M 615.1704 -308.93455 A 3.5 2.51745 122.74791 0 1 613.37871 -309.12484 A 3.5 2.51745 122.74791 0 1 612.54168 -310.30313" />
    <path d="M 647.74791 -142.89853 A 600 431.56333 302.74791 0 0 644.19011 -205.88066" />
    <path d="M 641.14239 -227.99339 A 600 431.56333 302.74791 0 0 485.3947 -485.1832 A 600 431.56333 302.74791 0 0 363.99055 -531.57425" />
    <path d="M 647.74791 550.71683 L 647.74791 439.23987" />
    <path d="M 647.74791 365.63635 L 647.74791 -142.89853 L 640.73622 -147.40824" />
    <path d="M 810.0544 -507.22515 L 810.0544 -284.3127" />
    <path d="M 810.0544 -261.18378 L 810.0544 353.02484" />
    <path d="M 809.65405 -521.00469 L 810.0544 -507.22515" />
    <path d="M 607.17129 -661.15746 A 250 179.81805 122.74791 0 1 742.40723 -649.84376 A 250 179.81805 122.74791 0 1 809.65405 -521.00469" />
    <path d="M 666.81892 249.58384 A 3.5 2.51745 122.74791 0 1 662.08526 253.47459 A 3.5 2.51745 122.74791 0 1 665.87186 247.58718 A 3.5 2.51745 122.74791 0 1 666.81892 249.58384 Z" />
    <path d="M 666.81892 205.26816 A 3.5 2.51745 122.74791 0 1 662.08526 209.15892 A 3.5 2.51745 122.74791 0 1 665.87186 203.2715 A 3.5 2.51745 122.74791 0 1 666.81892 205.26816 Z" />
    <path d="M 666.81892 160.95249 A 3.5 2.51745 122.74791 0 1 662.08526 164.84324 A 3.5 2.51745 122.74791 0 1 665.87186 158.95583 A 3.5 2.51745 122.74791 0 1 666.81892 160.95249 Z" />
    <path d="M 666.81892 116.63681 A 3.5 2.51745 122.74791 0 1 662.08526 120.52756 A 3.5 2.51745 122.74791 0 1 665.87186 114.64015 A 3.5 2.51745 122.74791 0 1 666.81892 116.63681 Z" />
    <path d="M 666.81892 72.32113 A 3.5 2.51745 122.74791 0 1 662.08526 76.21188 A 3.5 2.51745 122.74791 0 1 665.87186 70.32447 A 3.5 2.51745 122.74791 0 1 666.81892 72.32113 Z" />
    <path d="M 666.81892 28.00545 A 3.5 2.51745 122.74791 0 1 662.08526 31.8962 A 3.5 2.51745 122.74791 0 1 665.87186 26.00879 A 3.5 2.51745 122.74791 0 1 666.81892 28.00545 Z" />
    <path d="M 666.81892 -16.31023 A 3.5 2.51745 122.74791 0 1 662.08526 -12.41948 A 3.5 2.51745 122.74791 0 1 665.87186 -18.30689 A 3.5 2.51745 122.74791 0 1 666.81892 -16.31023 Z" />
    <path d="M 666.81892 -60.62591 A 3.5 2.51745 122.74791 0 1 662.08526 -56.73516 A 3.5 2.51745 122.74791 1 1 665.87186 -62.62257 A 3.5 2.51745 122.74791 0 1 666.81892 -60.62591 Z" />
    <path d="M 666.81892 -104.94159 A 3.5 2.51745 122.74791 0 1 662.08526 -101.05084 A 3.5 2.51745 122.74791 0 1 665.87186 -106.93825 A 3.5 2.51745 122.74791 0 1 666.81892 -104.94159 Z" />
    <path d="M 666.81892 -149.25726 A 3.5 2.51745 122.74791 0 1 662.08526 -145.36651 A 3.5 2.51745 122.74791 0 1 665.87186 -151.25393 A 3.5 2.51745 122.74791 0 1 666.81892 -149.25726 Z" />
    <path d="M 468.84989 -513.82844 A 3.5 2.51745 122.74791 0 1 468.70529 -513.91228 A 3.5 2.51745 122.74791 1 1 472.49189 -519.79969 A 3.5 2.51745 122.74791 0 1 468.84989 -513.82844 Z" />
    <path d="M 495.60101 -498.23261 A 3.5 2.51745 122.74791 0 1 499.39489 -504.11532 A 3.5 2.51745 122.74791 0 1 495.60829 -498.22791 A 3.5 2.51745 122.74791 0 1 495.60101 -498.23261 Z" />
    <path d="M 520.72116 -480.11467 A 3.5 2.51745 122.74791 0 1 524.65765 -485.89452 A 3.5 2.51745 122.74791 0 1 520.87105 -480.00711 A 3.5 2.51745 122.74791 0 1 520.72116 -480.11467 Z" />
    <path d="M 544.08795 -459.56289 A 3.5 2.51745 122.74791 0 1 548.1571 -465.22607 A 3.5 2.51745 122.74791 0 1 544.37049 -459.33865 A 3.5 2.51745 122.74791 0 1 544.08795 -459.56289 Z" />
    <path d="M 659.91947 -185.07262 A 3.5 2.51745 122.74791 0 1 664.64622 -189.17745 A 3.5 2.51745 122.74791 1 1 660.85961 -183.29004 A 3.5 2.51745 122.74791 0 1 659.91947 -185.07262 Z" />
    <path d="M 650.20523 -257.32337 A 3.5 2.51745 122.74791 0 1 654.87683 -261.83839 A 3.5 2.51745 122.74791 0 1 651.09022 -255.95098 A 3.5 2.51745 122.74791 0 1 650.20523 -257.32337 Z" />
    <path d="M 617.88415 -355.18715 A 3.5 2.51745 122.74791 0 1 622.37225 -360.25776 A 3.5 2.51745 122.74791 0 1 618.58564 -354.37035 A 3.5 2.51745 122.74791 0 1 617.88415 -355.18715 Z" />
    <path d="M 630.96583 -324.187 A 3.5 2.51745 122.74791 0 1 635.5282 -329.08162 A 3.5 2.51745 122.74791 0 1 631.74159 -323.19421 A 3.5 2.51745 122.74791 0 1 630.96583 -324.187 Z" />
    <path d="M 641.75705 -291.51268 A 3.5 2.51745 122.74791 0 1 646.38068 -296.2218 A 3.5 2.51745 122.74791 0 1 642.59408 -290.33439 A 3.5 2.51745 122.74791 0 1 641.75705 -291.51268 Z" />
    <path d="M 565.58754 -436.6774 A 3.5 2.51745 122.74791 0 1 569.77874 -442.21065 A 3.5 2.51745 122.74791 1 1 565.99214 -436.32324 A 3.5 2.51745 122.74791 0 1 565.58754 -436.6774 Z" />
    <path d="M 585.11518 -411.5697 A 3.5 2.51745 122.74791 0 1 589.41725 -416.9604 A 3.5 2.51745 122.74791 1 1 585.63064 -411.07299 A 3.5 2.51745 122.74791 0 1 585.11518 -411.5697 Z" />
    <path d="M 602.57574 -384.36209 A 3.5 2.51745 122.74791 0 1 606.97693 -389.59834 A 3.5 2.51745 122.74791 1 1 603.19033 -383.71093 A 3.5 2.51745 122.74791 0 1 602.57574 -384.36209 Z" />
    <path d="M 706.18017 -673.14392 A 250 179.81805 302.74791 0 0 570.94423 -684.45762" />
    <path d="M 609.19476 -217.34129 A 600 431.56333 302.74791 0 0 466.87678 -496.20453" />
    <path d="M 611.52085 558.13179 L 611.52085 452.90599" />
    <path d="M 611.52085 319.61153 L 611.52085 -166.19869" />
    <path d="M 326.50856 -14.79805 L 611.52085 168.5133" />
    <path d="M 611.52085 38.99689 L 448.23843 -66.02146 L 427.95012 -59.25685 L 420.93843 -63.76656 L 339.78518 -36.70813 L 346.79687 -32.19842 L 326.50856 -25.43381 L 611.52085 157.87754" />
    <path d="M 326.50856 -14.79805 L 326.50856 -25.43381" />
    <path d="M 326.50856 -192.06077 L 397.13548 -146.63565" />
    <path d="M 420.81872 -131.4033 L 611.52085 -8.74941" />
    <path d="M 611.52085 -138.26582 L 553.43926 -175.62216" />
    <path d="M 529.75601 -190.85451 L 448.23843 -243.28418 L 427.95012 -236.51957 L 420.93843 -241.02928 L 339.78518 -213.97084 L 346.79687 -209.46114 L 326.50856 -202.69653 L 408.02615 -150.26686" />
    <path d="M 431.70939 -135.03451 L 611.52085 -19.38518" />
    <path d="M 326.50856 -192.06077 L 326.50856 -202.69653" />
    <path d="M 326.50856 -369.32348 L 578.64666 -207.15582" />
    <path d="M 602.32991 -191.92347 L 611.17101 -186.23714" />
    <path d="M 584.02074 -333.21579 L 448.23843 -420.54689 L 427.95012 -413.78228 L 420.93843 -418.29199 L 339.78518 -391.23356 L 346.79687 -386.72385 L 326.50856 -379.95924 L 589.53733 -210.78703" />
    <path d="M 326.50856 -369.32348 L 326.50856 -379.95924" />
    <path d="M 326.50856 -546.5862 L 551.58416 -401.82433" />
    <path d="M 367.26619 -531.00787 L 539.85988 -420.0008" />
    <path d="M 326.50856 -546.5862 L 326.50856 -551.51943" />
    <path d="M -890.79009 380.44266 L -605.7778 563.75401" />
    <path d="M -605.7778 444.87337 L -769.06022 339.85501 L -789.34853 346.61962 L -796.36022 342.10992 L -877.51347 369.16835 L -870.50178 373.67805 L -890.79009 380.44266" />
    <path d="M -890.79009 391.07843 L -605.7778 574.38978" />
    <path d="M -890.79009 391.07843 L -890.79009 380.44266" />
    <path d="M -890.79009 203.17995 L -605.7778 386.4913" />
    <path d="M -605.7778 267.61066 L -769.06022 162.5923 L -789.34853 169.35691 L -796.36022 164.8472 L -877.51347 191.90563 L -870.50178 196.41534 L -890.79009 203.17995" />
    <path d="M -890.79009 213.81571 L -605.7778 397.12706" />
    <path d="M -890.79009 213.81571 L -890.79009 203.17995" />
    <path d="M -890.79009 25.91723 L -605.7778 209.22858" />
    <path d="M -605.7778 90.34794 L -769.06022 -14.67041 L -789.34853 -7.90581 L -796.36022 -12.41551 L -877.51347 14.64292 L -870.50178 19.15263 L -890.79009 25.91723" />
    <path d="M -890.79009 36.553 L -605.7778 219.86435" />
    <path d="M -890.79009 36.553 L -890.79009 25.91723" />
    <path d="M -890.79009 -151.34548 L -605.7778 31.96587" />
    <path d="M -605.25651 -86.5795 L -769.06022 -191.93313 L -789.34853 -185.16852 L -796.36022 -189.67823 L -877.51347 -162.6198 L -870.50178 -158.11009 L -890.79009 -151.34548" />
    <path d="M -890.79009 -140.70972 L -605.7778 42.60163" />
    <path d="M -890.79009 -140.70972 L -890.79009 -151.34548" />
    <path d="M 339.78518 -29.86056 L 339.78518 -36.70813" />
    <path d="M 339.78518 -207.12327 L 339.78518 -213.97084" />
    <path d="M 339.78518 -384.38599 L 339.78518 -391.23356" />
    <path d="M -877.51347 376.01592 L -877.51347 369.16835" />
    <path d="M -877.51347 198.7532 L -877.51347 191.90563" />
    <path d="M -877.51347 21.49049 L -877.51347 14.64292" />
    <path d="M -877.51347 -155.77222 L -877.51347 -162.6198" />
    <path d="M -934.69225 -782.81566 L 78.26301 -131.31324 L 78.26301 -140.17638 A 200 92.61712 180 0 0 347.00907 -115.88174 L 357.43098 -119.13145 L 1022.23835 -340.79412 L 1041.65925 -348.16944 A 200 92.61712 180 0 0 1105.37687 -415.95591 L 1105.37687 -407.09278" />
    <path d="M -934.69225 -791.6788 L 78.26301 -140.17638" />
    <path d="M -972.38577 -836.93253 A 200 92.61712 180 0 0 -934.69225 -782.81566 L -934.69225 -791.6788" />
    <path d="M -908.66815 -913.58214 A 200 92.61712 180 0 0 -972.38577 -845.79566 L -972.38577 -836.93253" />
    <path d="M -972.38577 -845.79566 A 200 92.61712 180 0 0 -934.69225 -791.6788" />
    <path d="M 347.00907 -107.0186 L 347.00907 -115.88174" />
    <path d="M 78.26301 -131.31324 A 200 92.61712 180 0 0 347.00907 -107.0186 L 357.43098 -110.26831 L 357.43098 -119.13145" />
    <path d="M 357.43098 -110.26831 L 1022.23835 -331.93099 L 1022.23835 -340.79412" />
    <path d="M 1022.23835 -331.93099 L 1041.65925 -339.3063 L 1041.65925 -348.16944" />
    <path d="M 1041.65925 -339.3063 A 200 92.61712 180 0 0 1105.37687 -407.09278" />
    <path d="M 1080.11502 -411.52435 A 175 81.03998 180 0 0 1047.39505 -454.44503 L 1047.39505 -463.30817 L 34.43978 -1114.81059 A 175 81.03998 180 0 0 -200.71302 -1136.0684 L -209.83219 -1133.2249 L -874.63956 -911.56223 L -891.63285 -905.10883 A 175 81.03998 180 0 0 -947.38577 -845.79566 A 175 81.03998 180 0 0 -914.40394 -798.44341 L 98.55133 -146.94099 A 175 81.03998 180 0 0 333.70412 -125.68317 L 342.82329 -128.52667 L 1007.63066 -350.18935 L 1024.62396 -356.64275 A 175 81.03998 180 0 0 1080.37687 -415.95591 A 175 81.03998 180 0 0 1047.39505 -463.30817" />
    <path d="M 1047.39505 -454.44503 L 34.43978 -1105.94745 L 34.43978 -1114.81059" />
    <path d="M 34.43978 -1105.94745 A 175 81.03998 180 0 0 -200.71302 -1127.20527 L -200.71302 -1136.0684" />
    <path d="M -200.71302 -1127.20527 L -209.83219 -1124.36177 L -209.83219 -1133.2249" />
    <path d="M -209.83219 -1124.36177 L -874.63956 -902.69909 L -874.63956 -911.56223" />
    <path d="M -874.63956 -902.69909 L -891.63285 -896.24569 L -891.63285 -905.10883" />
    <path d="M -891.63285 -896.24569 A 175 81.03998 180 0 0 -947.12392 -841.36409" />
    <path d="M -889.24724 -920.95745 L -908.66815 -913.58214" />
    <path d="M -224.43987 -1142.62013 L -889.24724 -920.95745" />
    <path d="M -214.01796 -1145.86984 L -224.43987 -1142.62013" />
    <path d="M 54.72809 -1121.5752 A 200 92.61712 180 0 0 -214.01796 -1145.86984" />
    <path d="M 1105.37687 -415.95591 A 200 92.61712 180 0 0 1067.68336 -470.07278 L 54.72809 -1121.5752" />
    <path d="M 838.10115 308.4959 L 830.79731 303.79829" />
    <path d="M 838.10115 308.4959 L 838.10115 829.22226" />
    <path d="M 513.48818 992.83345 L 506.18434 988.13584 L 429.00302 731.04878" />
    <path d="M 786.18602 901.90947 L 513.48818 992.83345 L 436.30686 735.74639 A 100 71.92722 122.74791 0 1 478.93481 613.94857 L 511.85942 584.72308 L 685.91178 549.09801 A 100 71.92722 302.74791 0 0 767.19811 476.76121 L 838.10115 308.4959" />
    <path d="M 436.30686 735.74639 L 429.00302 731.04878" />
    <path d="M 471.63097 609.25096 A 100 71.92722 302.74791 0 0 429.00302 731.04878" />
    <path d="M 478.93481 613.94857 L 471.63097 609.25096 L 504.55558 580.02547 L 678.60794 544.4004 A 100 71.92722 302.74791 0 0 759.89426 472.0636 L 830.79731 303.79829" />
    <path d="M 511.85942 584.72308 L 504.55558 580.02547" />
    <path d="M 685.91178 549.09801 L 678.60794 544.4004" />
    <path d="M 767.19811 476.76121 L 759.89426 472.0636" />
    <path d="M 1194.29493 537.58904 L 1186.99109 532.89143" />
    <path d="M 1194.29493 537.58904 L 1194.29493 1113.69287 L 869.68196 1221.92659 L 792.50063 964.83954 A 100 71.92722 122.74791 0 1 835.12859 843.04171 L 868.0532 813.81622 L 1042.10555 778.19115 A 100 71.92722 302.74791 0 0 1123.39188 705.85436 L 1194.29493 537.58904 Z" />
    <path d="M 869.68196 1221.92659 L 862.37811 1217.22898 L 785.19679 960.14192" />
    <path d="M 792.50063 964.83954 L 785.19679 960.14192" />
    <path d="M 827.82474 838.3441 A 100 71.92722 302.74791 0 0 785.19679 960.14192" />
    <path d="M 835.12859 843.04171 L 827.82474 838.3441 L 860.74936 809.11861 L 1034.80171 773.49354 A 100 71.92722 302.74791 0 0 1116.08804 701.15674 L 1186.99109 532.89143" />
    <path d="M 868.0532 813.81622 L 860.74936 809.11861" />
    <path d="M 1042.10555 778.19115 L 1034.80171 773.49354" />
    <path d="M 1123.39188 705.85436 L 1116.08804 701.15674" />
    <path d="M 77.72619 -1106.78351 C 118.97 -1109.51 161.24 -1082.33 142.5695 -1065.07824" />
    <path d="M 160.10931 -1025.12059 C 118.97 -1109.51 161.24 -1082.33 163.87341 -989.71806 C 166.51 -897.11 208.77 -869.92 192.22545 -906.26864" />
    <path d="M 428.97745 -834.10558 C 586.42 -808.87 628.69 -781.68 468.90455 -826.51276" />
    <path d="M 545.1721 -806.13634 C 586.42 -808.87 628.69 -781.68 610.0154 -764.43107" />
    <path d="M 627.55521 -724.47341 C 586.42 -808.87 628.69 -781.68 631.1129 -694.55085" />
    <path d="M 806.16008 -549.13238 C 633.95 -596.46 676.22 -569.28 865.04226 -538.7473 C 1053.86 -508.22 1096.13 -481.03 936.35045 -525.86559" />
    <path d="M 1012.618 -505.48916 C 1053.86 -508.22 1096.13 -481.03 1078.63158 -462.22464" />
    <path d="M 1332.48816 -227.02121 L 1332.48816 -238.10013 L 1186.41232 -189.39495 L 984.40864 -319.31766" />
    <path d="M 1098.93361 -383.77336 C 1101.4 -295.81 1143.67 -268.63 1332.48816 -238.10013" />
    <path d="M 1186.41232 -178.31603 L 1186.41232 -189.39495" />
    <path d="M 1332.48816 -227.02121 L 1186.41232 -178.31603 L 973.06419 -315.53515" />
    <path d="M 949.38094 -330.7675 L 810.0544 -420.37815" />
    <path d="M 458.00989 -646.80261 L 453.6269 -649.62162" />
    <path d="M 101.58239 -876.04608 L 97.1994 -878.86509" />
    <path d="M 960.72539 -334.55001 L 810.0544 -431.45707" />
    <path d="M 469.35434 -650.58512 L 453.6269 -660.70054" />
    <path d="M 112.92684 -879.82859 L 97.1994 -889.94401" />
    <path d="M 97.1994 -478.40575 C 118.97 -489.09 161.24 -461.91 148.30256 -436.19392" />
    <path d="M 529.65506 -190.91944 C 586.42 -188.45 628.69 -161.26 529.80808 -190.87187" />
    <path d="M 562.61943 -178.68305 C 586.42 -188.45 628.69 -161.26 611.52085 -141.99174" />
    <path d="M 810.0544 72.04196 C 633.95 23.96 676.22 51.14 865.04226 81.6722 C 1053.86 112.2 1096.13 139.39 1098.76521 231.99579 C 1101.4 324.6 1143.67 351.79 1332.48816 382.31937 L 1186.41232 431.02455 L 810.0544 188.96243" />
    <path d="M 1332.48816 393.39829 L 1332.48816 382.31937" />
    <path d="M 1186.41232 442.10347 L 1186.41232 431.02455" />
    <path d="M 1332.48816 393.39829 L 1186.41232 442.10347 L 810.0544 200.04135" />
    <path d="M -193.1168 -478.52189 L -144.22615 -494.8232" />
    <path d="M -202.60571 986.45844 L -195.30186 991.15605" />
    <path d="M -195.30186 1567.25987 L -195.30186 991.15605" />
    <path d="M -202.60571 1562.56226 L -195.30186 1567.25987 L 129.31111 1459.02615 L 206.49243 1150.47089" />
    <path d="M -202.60571 986.45844 L -202.60571 1562.56226" />
    <path d="M 163.86448 1057.09943 A 100 71.92722 122.74791 0 1 183.40549 1064.71052 L 176.10164 1060.01291 A 100 71.92722 302.74791 0 0 156.56064 1052.40181 L 123.63602 1045.13203 L -50.41633 1125.5734 A 100 71.92722 122.74791 0 1 -110.93133 1127.33354" />
    <path d="M 183.40549 1064.71052 A 100 71.92722 122.74791 0 1 206.49243 1150.47089" />
    <path d="M 156.56064 1052.40181 L 163.86448 1057.09943 L 130.93987 1049.82964 L -43.11249 1130.27101 A 100 71.92722 122.74791 0 1 -107.37806 1129.83573 A 100 71.92722 122.74791 0 1 -124.39882 1112.13982 L -195.30186 991.15605" />
    <path d="M 123.63602 1045.13203 L 130.93987 1049.82964" />
    <path d="M -50.41633 1125.5734 L -43.11249 1130.27101" />
    <path d="M -558.79948 757.36529 L -551.49564 762.06291" />
    <path d="M -551.49564 1338.16673 L -551.49564 762.06291" />
    <path d="M -558.79948 1333.46912 L -551.49564 1338.16673 L -226.88267 1229.933 L -202.60571 1132.87864" />
    <path d="M -558.79948 757.36529 L -558.79948 1333.46912" />
    <path d="M -175.5752 1024.81618 L -149.70135 921.37775" />
    <path d="M -192.3293 828.00628 A 100 71.92722 122.74791 0 1 -172.78829 835.61737 L -180.09213 830.91976 A 100 71.92722 302.74791 0 0 -199.63314 823.30867 L -232.55775 816.03889 L -406.61011 896.48025 A 100 71.92722 122.74791 0 1 -467.1251 898.24039" />
    <path d="M -172.78829 835.61737 A 100 71.92722 122.74791 0 1 -149.70135 921.37775" />
    <path d="M -199.63314 823.30867 L -192.3293 828.00628 L -225.25391 820.7365 L -399.30627 901.17786 A 100 71.92722 122.74791 0 1 -463.57184 900.74259 A 100 71.92722 122.74791 0 1 -480.59259 883.04668 L -551.49564 762.06291" />
    <path d="M -232.55775 816.03889 L -225.25391 820.7365" />
    <path d="M -406.61011 896.48025 L -399.30627 901.17786" />
    <path d="M -142.8521 654.52077 L -142.8521 643.44185" />
    <path d="M 671.93545 397.96269 L 671.93545 409.04161" />
    <path d="M -333.88696 -1342.08387 L -326.87527 -1337.57417" />
    <path d="M -363.10233 -1360.87432 L -356.09064 -1356.36461" />
    <path d="M -757.08912 -1246.74699 L -751.28299 -1243.01266" />
    <path d="M 22.96932 -1112.56462 L 29.55223 -1108.3307" />
    <path d="M -400.66162 -1017.50352 L -394.85549 -1013.76919" />
    <path d="M 378.96804 -883.59694 L 385.97973 -879.08723" />
    <path d="M 349.75267 -902.38738 L 356.76436 -897.87768" />
    <path d="M -44.23412 -788.26005 L -38.42799 -784.52572" />
    <path d="M 735.39554 -654.35347 L 742.40723 -649.84376" />
    <path d="M 706.18017 -673.14392 L 713.19186 -668.63421" />
    <path d="M 312.19338 -559.01658 L 317.99951 -555.28225" />
</svg>