<svg version="1.1" xmlns="http://www.w3.org/2000/svg" viewBox="-1676.0602949506485 -1383.283918868767 3009.5484554490586 2951.543792590148" fill="none" stroke="black" stroke-width="0.6%" vector-effect="non-scaling-stroke">
    <path d="M -390.5591 741.07762 L -390.5591 684.79671 L 124.76399 512.97567 L -391.17014 181.14232" />
    <path d="M -1461.62691 52.19896 L -1318.63279 144.16848" />
    <path d="M -1105.19941 281.44243 L -962.20529 373.41195" />
    <path d="M -748.77191 510.6859 L -605.7778 602.65542" />
    <path d="M -392.34441 739.92936 L -390.5591 741.07762 L 124.76399 569.25658 L 124.76399 512.97567" />
    <path d="M -392.34441 683.64845 L -390.5591 684.79671" />
    <path d="M -605.7778 43.11312 L -747.59764 -48.10114" />
    <path d="M -962.20529 -186.13035 L -988.34156 -202.94041 L -1036.70846 -186.81373" />
    <path d="M -1350.84018 -82.0747 L -1399.73083 -65.77339" />
    <path d="M -985.09543 -200.8526 L -985.09543 -201.36408" />
    <path d="M 128.01012 568.17424 L 128.01012 511.89333 L 643.33322 340.07229 L -235.31775 -225.04964" />
    <path d="M 124.76399 566.08643 L 128.01012 568.17424 L 643.33322 396.3532 L 643.33322 340.07229" />
    <path d="M -390.97277 178.09911 L 128.01012 511.89333" />
    <path d="M -428.63315 -349.3843 L -469.77233 -375.84379 L -680.24888 -305.66588" />
    <path d="M -1444.87719 -1039.10598 L -1444.87719 -1049.74174 L -1465.1655 -1042.97713" />
    <path d="M -1444.87719 -1039.10598 L -1418.66434 -1022.24666" />
    <path d="M -1444.87719 -1049.74174 L -1407.77367 -1025.87787" />
    <path d="M -1667.64826 -767.79917 A 250 179.81805 122.74791 0 1 -1465.1655 -1042.97713" />
    <path d="M -1667.64826 -767.79917 L -1668.04861 -753.75266 L -1668.04861 620.03338 L -1630.94509 607.66218" />
    <path d="M -1428.06198 -1019.11326 A 250 179.81805 302.74791 0 0 -1630.54474 -743.9353 L -1623.53306 -739.42559 L -1623.9334 -725.37908 L -1623.9334 648.40695 L -1461.62691 594.29009 L -1461.62691 23.93332" />
    <path d="M -1428.06198 -1019.11326 L -1407.77367 -1025.87787" />
    <path d="M -1630.94509 -729.88879 L -1630.94509 643.89725 L -1623.9334 648.40695" />
    <path d="M -1630.54474 -743.9353 L -1630.94509 -729.88879 L -1623.9334 -725.37908" />
    <path d="M -1145.66412 -1102.6357 L -728.71083 -1241.6579 A 57.5 41.35815 302.74791 0 0 -714.17947 -1219.14879 L -707.16778 -1214.63908 A 57.5 41.35815 302.74791 0 0 -690.39211 -1209.72153" />
    <path d="M -1428.06198 -1019.11326 L -1421.05029 -1014.60356" />
    <path d="M -1145.53503 -1106.46693 L -1421.05029 -1014.60356" />
    <path d="M -1152.54672 -1110.97664 L -1145.53503 -1106.46693 A 57.5 41.35815 122.74791 0 1 -1177.86955 -1047.18489" />
    <path d="M -1152.54672 -1110.97664 L -729.73832 -1251.95107 A 57.5 41.35815 302.74791 0 0 -728.71083 -1241.6579" />
    <path d="M -722.72663 -1247.44136 L -729.73832 -1251.95107" />
    <path d="M -447.21137 -1339.30474 L -722.72663 -1247.44136 A 57.5 41.35815 302.74791 0 0 -707.16778 -1214.63908" />
    <path d="M -447.21137 -1339.30474 L -454.22306 -1343.81444" />
    <path d="M -474.51137 -1337.04984 L -454.22306 -1343.81444" />
    <path d="M -474.51137 -1337.04984 L -511.61489 -1360.91371" />
    <path d="M -491.32658 -1367.67831 L -511.61489 -1360.91371" />
    <path d="M -491.32658 -1367.67831 L -498.33827 -1372.18802" />
    <path d="M -773.85353 -1280.32465 L -498.33827 -1372.18802" />
    <path d="M -766.84184 -1275.81494 L -773.85353 -1280.32465 A 57.5 41.35815 302.74791 0 0 -773.43039 -1273.61816" />
    <path d="M -766.84184 -1275.81494 L -1189.65024 -1134.84051" />
    <path d="M -1196.66192 -1139.35022 L -1189.65024 -1134.84051" />
    <path d="M -1472.17719 -1047.48684 L -1196.66192 -1139.35022" />
    <path d="M -1472.17719 -1047.48684 L -1465.1655 -1042.97713" />
    <path d="M -1472.17719 -1047.48684 A 250 179.81805 302.74791 0 0 -1674.65995 -772.30887 L -1675.06029 -758.26237 L -1675.06029 615.52367 L -1668.04861 620.03338" />
    <path d="M -1674.65995 -772.30887 L -1667.64826 -767.79917" />
    <path d="M -1675.06029 -758.26237 L -1668.04861 -753.75266" />
    <path d="M -1623.53306 -739.42559 A 250 179.81805 122.74791 0 1 -1421.05029 -1014.60356" />
    <path d="M -1461.62691 -469.2862 A 600 431.56333 122.74791 0 1 -1460.42177 -507.07972" />
    <path d="M -1442.1155 -624.82208 A 600 431.56333 122.74791 0 1 -1177.86955 -1047.18489" />
    <path d="M -1461.62691 -105.58309 L -1461.62691 -153.3294" />
    <path d="M -1461.62691 -282.8458 L -1461.62691 -330.59211" />
    <path d="M -1461.62691 -460.10852 L -1461.62691 -469.2862" />
    <path d="M -1480.69792 -152.71771 A 3.5 2.51745 122.74791 0 1 -1475.96426 -156.60846 A 3.5 2.51745 122.74791 1 1 -1479.75086 -150.72105 A 3.5 2.51745 122.74791 0 1 -1480.69792 -152.71771 Z" />
    <path d="M -1480.69792 -329.98043 A 3.5 2.51745 122.74791 0 1 -1475.96426 -333.87118 A 3.5 2.51745 122.74791 1 1 -1479.75086 -327.98377 A 3.5 2.51745 122.74791 0 1 -1480.69792 -329.98043 Z" />
    <path d="M -1282.72889 -959.51386 A 3.5 2.51745 122.74791 0 1 -1286.37089 -958.43158 A 3.5 2.51745 122.74791 0 1 -1282.58429 -964.31899 A 3.5 2.51745 122.74791 0 1 -1282.72889 -959.51386 Z" />
    <path d="M -1309.48002 -926.0791 A 3.5 2.51745 122.74791 0 1 -1313.27389 -924.807 A 3.5 2.51745 122.74791 0 1 -1309.48729 -930.69441 A 3.5 2.51745 122.74791 0 1 -1309.48002 -926.0791 Z" />
    <path d="M -1334.60016 -891.20984 A 3.5 2.51745 122.74791 0 1 -1338.53665 -889.73979 A 3.5 2.51745 122.74791 0 1 -1334.75005 -895.6272 A 3.5 2.51745 122.74791 0 1 -1334.60016 -891.20984 Z" />
    <path d="M -1379.46654 -817.85353 A 3.5 2.51745 122.74791 0 1 -1383.65774 -815.96702 A 3.5 2.51745 122.74791 0 1 -1379.87114 -821.85443 A 3.5 2.51745 122.74791 0 1 -1379.46654 -817.85353 Z" />
    <path d="M -1416.45474 -740.87272 A 3.5 2.51745 122.74791 0 1 -1420.85593 -738.54917 A 3.5 2.51745 122.74791 0 1 -1417.06933 -744.43658 A 3.5 2.51745 122.74791 0 1 -1416.45474 -740.87272 Z" />
    <path d="M -1398.99418 -779.72386 A 3.5 2.51745 122.74791 0 1 -1403.29625 -777.62088 A 3.5 2.51745 122.74791 0 1 -1399.50964 -783.50829 A 3.5 2.51745 122.74791 0 1 -1398.99418 -779.72386 Z" />
    <path d="M -1357.96695 -855.07597 A 3.5 2.51745 122.74791 0 1 -1362.0361 -853.40078 A 3.5 2.51745 122.74791 1 1 -1358.24949 -859.28819 A 3.5 2.51745 122.74791 0 1 -1357.96695 -855.07597 Z" />
    <path d="M -1473.79847 -503.3437 A 3.5 2.51745 122.74791 0 1 -1478.52522 -499.67165 A 3.5 2.51745 122.74791 1 1 -1474.73861 -505.55906 A 3.5 2.51745 122.74791 0 1 -1473.79847 -503.3437 Z" />
    <path d="M -1444.84483 -661.76576 A 3.5 2.51745 122.74791 0 1 -1449.4072 -658.99311 A 3.5 2.51745 122.74791 0 1 -1445.62059 -664.88052 A 3.5 2.51745 122.74791 0 1 -1444.84483 -661.76576 Z" />
    <path d="M -1431.76315 -701.4894 A 3.5 2.51745 122.74791 0 1 -1436.25125 -698.94226 A 3.5 2.51745 122.74791 0 1 -1432.46465 -704.82967 A 3.5 2.51745 122.74791 0 1 -1431.76315 -701.4894 Z" />
    <path d="M -413.64644 -825.55552 A 600 431.56333 302.74791 0 0 -440.15376 -989.7848" />
    <path d="M -457.24198 -1030.95801 A 600 431.56333 302.74791 0 0 -461.91756 -1040.31048" />
    <path d="M -472.76777 -1059.82167 A 600 431.56333 302.74791 0 0 -572.50894 -1165.56179" />
    <path d="M -413.64644 -355.86018 L -413.64644 -447.69463" />
    <path d="M -413.64644 -476.37121 L -413.64644 -650.53806" />
    <path d="M -413.64644 -697.40889 L -413.64644 -825.55552" />
    <path d="M -318.98712 -1332.50074 A 250 179.81805 302.74791 0 0 -454.22306 -1343.81444" />
    <path d="M -491.32658 -1367.67831 A 250 179.81805 122.74791 0 1 -356.09064 -1356.36461 A 250 179.81805 122.74791 0 1 -338.56019 -1342.84475" />
    <path d="M -450.74996 -363.60917 L -450.74996 -471.5585" />
    <path d="M -450.74996 -500.23508 L -450.74996 -601.68046" />
    <path d="M -450.74996 -685.03769 L -450.74996 -849.41939 L -457.76164 -853.92909 A 600 431.56333 302.74791 0 0 -472.53137 -978.98934" />
    <path d="M -450.74996 -849.41939 A 600 431.56333 302.74791 0 0 -467.14457 -980.78542" />
    <path d="M -480.72509 -1023.12818 A 600 431.56333 302.74791 0 0 -484.5278 -1032.77168" />
    <path d="M -493.43813 -1052.92968 A 600 431.56333 302.74791 0 0 -591.64542 -1176.58461" />
    <path d="M -727.40882 -1236.82674 A 600 431.56333 302.74791 0 0 -734.50732 -1238.0951 A 57.5 41.35815 122.74791 0 1 -738.4994 -1238.39415" />
    <path d="M -431.67894 -456.93701 A 3.5 2.51745 122.74791 0 1 -436.41261 -453.04626 A 3.5 2.51745 122.74791 0 1 -432.626 -458.93367 A 3.5 2.51745 122.74791 0 1 -431.67894 -456.93701 Z" />
    <path d="M -431.67894 -501.25269 A 3.5 2.51745 122.74791 0 1 -436.41261 -497.36194 A 3.5 2.51745 122.74791 0 1 -432.626 -503.24935 A 3.5 2.51745 122.74791 0 1 -431.67894 -501.25269 Z" />
    <path d="M -431.67894 -545.56837 A 3.5 2.51745 122.74791 0 1 -436.41261 -541.67762 A 3.5 2.51745 122.74791 0 1 -432.626 -547.56503 A 3.5 2.51745 122.74791 0 1 -431.67894 -545.56837 Z" />
    <path d="M -431.67894 -589.88405 A 3.5 2.51745 122.74791 0 1 -436.41261 -585.9933 A 3.5 2.51745 122.74791 0 1 -432.626 -591.88071 A 3.5 2.51745 122.74791 0 1 -431.67894 -589.88405 Z" />
    <path d="M -431.67894 -634.19972 A 3.5 2.51745 122.74791 0 1 -435.37601 -630.0094" />
    <path d="M -433.80281 -636.49335 A 3.5 2.51745 122.74791 0 1 -432.626 -636.19639 A 3.5 2.51745 122.74791 0 1 -431.67894 -634.19972" />
    <path d="M -431.67894 -722.83108 A 3.5 2.51745 122.74791 0 1 -436.41261 -718.94033 A 3.5 2.51745 122.74791 0 1 -432.626 -724.82774 A 3.5 2.51745 122.74791 0 1 -431.67894 -722.83108 Z" />
    <path d="M -431.67894 -767.14676 A 3.5 2.51745 122.74791 0 1 -436.41261 -763.25601 A 3.5 2.51745 122.74791 1 1 -432.626 -769.14342 A 3.5 2.51745 122.74791 0 1 -431.67894 -767.14676 Z" />
    <path d="M -431.67894 -811.46244 A 3.5 2.51745 122.74791 0 1 -436.41261 -807.57169 A 3.5 2.51745 122.74791 0 1 -432.626 -813.4591 A 3.5 2.51745 122.74791 0 1 -431.67894 -811.46244 Z" />
    <path d="M -431.67894 -855.77812 A 3.5 2.51745 122.74791 0 1 -436.41261 -851.88737 A 3.5 2.51745 122.74791 0 1 -432.626 -857.77478 A 3.5 2.51745 122.74791 0 1 -431.67894 -855.77812 Z" />
    <path d="M -438.5784 -891.59347 A 3.5 2.51745 122.74791 0 1 -433.85165 -895.69831 A 3.5 2.51745 122.74791 1 1 -437.63826 -889.81089 A 3.5 2.51745 122.74791 0 1 -438.5784 -891.59347 Z" />
    <path d="M -448.29264 -963.84422 A 3.5 2.51745 122.74791 0 1 -443.62104 -968.35924 A 3.5 2.51745 122.74791 0 1 -447.40765 -962.47183 A 3.5 2.51745 122.74791 0 1 -448.29264 -963.84422 Z" />
    <path d="M -442.22865 -928.30649 A 3.5 2.51745 122.74791 0 1 -437.52263 -932.61975 A 3.5 2.51745 122.74791 0 1 -441.30923 -926.73234 A 3.5 2.51745 122.74791 0 1 -442.22865 -928.30649 Z" />
    <path d="M -480.61372 -1061.708 A 3.5 2.51745 122.74791 0 1 -477.21571 -1067.0782" />
    <path d="M -475.27315 -1063.95653 A 3.5 2.51745 122.74791 0 1 -479.91222 -1060.8912 A 3.5 2.51745 122.74791 0 1 -480.61372 -1061.708" />
    <path d="M -467.53204 -1030.70786 A 3.5 2.51745 122.74791 0 1 -462.96967 -1035.60247 A 3.5 2.51745 122.74791 0 1 -466.75627 -1029.71506 A 3.5 2.51745 122.74791 0 1 -467.53204 -1030.70786 Z" />
    <path d="M -495.92213 -1090.88295 A 3.5 2.51745 122.74791 0 1 -495.88795 -1093.87518" />
    <path d="M -493.09682 -1090.19866 A 3.5 2.51745 122.74791 0 1 -495.30754 -1090.23178 A 3.5 2.51745 122.74791 0 1 -495.92213 -1090.88295" />
    <path d="M -1603.64509 -67.40851 L -1603.64509 -78.04427 L -1318.63279 105.26708" />
    <path d="M -1603.64509 -78.04427 L -1481.91522 -118.63192" />
    <path d="M -1603.64509 -244.67123 L -1603.64509 -255.30699 L -1318.63279 -71.99564" />
    <path d="M -1603.64509 -255.30699 L -1481.91522 -295.89464" />
    <path d="M -1603.64509 -421.93394 L -1603.64509 -432.5697 L -1318.63279 -249.25835" />
    <path d="M -1603.64509 -432.5697 L -1481.91522 -473.15735" />
    <path d="M -1603.64509 -599.19665 L -1603.64509 -609.83242 L -1318.63279 -426.52107" />
    <path d="M -1603.64509 -609.83242 L -1481.91522 -650.42007" />
    <path d="M -406.63475 -821.04581 A 600 431.56333 302.74791 0 0 -435.348 -991.38716" />
    <path d="M -453.13221 -1032.32831 A 600 431.56333 302.74791 0 0 -457.98272 -1041.62245" />
    <path d="M -469.22434 -1061.00313 A 600 431.56333 302.74791 0 0 -568.98796 -1163.33048 A 600 431.56333 302.74791 0 0 -690.39211 -1209.72153" />
    <path d="M -406.63475 -358.47176 L -406.63475 -443.18493" />
    <path d="M -406.63475 -471.8615 L -406.63475 -652.87592" />
    <path d="M -406.63475 -699.74676 L -406.63475 -821.04581 L -413.64644 -825.55552" />
    <path d="M -244.32826 -1185.37242 L -244.32826 -1135.98886" />
    <path d="M -244.32826 -1112.85995 L -244.32826 -1108.79611" />
    <path d="M -244.32826 -913.7313 L -244.32826 -865.985" />
    <path d="M -244.32826 -706.99279 L -244.32826 -688.72228" />
    <path d="M -244.32826 -559.20588 L -244.32826 -511.45957" />
    <path d="M -244.72861 -1199.15196 L -244.32826 -1185.37242" />
    <path d="M -447.21137 -1339.30474 A 250 179.81805 122.74791 0 1 -311.97543 -1327.99104 A 250 179.81805 122.74791 0 1 -244.72861 -1199.15196" />
    <path d="M -387.56374 -428.56343 A 3.5 2.51745 122.74791 0 1 -392.2974 -424.67268 A 3.5 2.51745 122.74791 0 1 -388.5108 -430.56009 A 3.5 2.51745 122.74791 0 1 -387.56374 -428.56343 Z" />
    <path d="M -387.56374 -472.87911 A 3.5 2.51745 122.74791 0 1 -392.2974 -468.98836 A 3.5 2.51745 122.74791 0 1 -388.5108 -474.87577 A 3.5 2.51745 122.74791 0 1 -387.56374 -472.87911 Z" />
    <path d="M -387.56374 -517.19479 A 3.5 2.51745 122.74791 0 1 -392.2974 -513.30404 A 3.5 2.51745 122.74791 0 1 -388.5108 -519.19145 A 3.5 2.51745 122.74791 0 1 -387.56374 -517.19479 Z" />
    <path d="M -387.56374 -561.51047 A 3.5 2.51745 122.74791 0 1 -392.2974 -557.61972 A 3.5 2.51745 122.74791 0 1 -388.5108 -563.50713 A 3.5 2.51745 122.74791 0 1 -387.56374 -561.51047 Z" />
    <path d="M -387.56374 -605.82615 A 3.5 2.51745 122.74791 0 1 -392.2974 -601.9354 A 3.5 2.51745 122.74791 0 1 -388.5108 -607.82281 A 3.5 2.51745 122.74791 0 1 -387.56374 -605.82615 Z" />
    <path d="M -386.34644 -483.92075 L -264.61657 -524.5084" />
    <path d="M -386.34644 -473.28499 L -386.34644 -483.92075 L -264.85609 -405.7818" />
    <path d="M -387.56374 -650.14183 A 3.5 2.51745 122.74791 0 1 -392.2974 -646.25108 A 3.5 2.51745 122.74791 0 1 -388.5108 -652.13849 A 3.5 2.51745 122.74791 0 1 -387.56374 -650.14183 Z" />
    <path d="M -387.56374 -738.77318 A 3.5 2.51745 122.74791 0 1 -392.2974 -734.88243 A 3.5 2.51745 122.74791 1 1 -388.5108 -740.76984 A 3.5 2.51745 122.74791 0 1 -387.56374 -738.77318 Z" />
    <path d="M -387.56374 -783.08886 A 3.5 2.51745 122.74791 0 1 -392.2974 -779.19811 A 3.5 2.51745 122.74791 0 1 -388.5108 -785.08552 A 3.5 2.51745 122.74791 0 1 -387.56374 -783.08886 Z" />
    <path d="M -387.56374 -827.40454 A 3.5 2.51745 122.74791 0 1 -392.2974 -823.51379 A 3.5 2.51745 122.74791 0 1 -388.5108 -829.4012 A 3.5 2.51745 122.74791 0 1 -387.56374 -827.40454 Z" />
    <path d="M -386.34644 -650.5477 L -386.34644 -659.64053" />
    <path d="M -386.34644 -838.44618 L -264.61657 -879.03383" />
    <path d="M -386.34644 -827.81042 L -386.34644 -838.44618 L -251.24953 -751.5559" />
    <path d="M -585.53277 -1191.97571 A 3.5 2.51745 122.74791 0 1 -585.67737 -1192.05955 A 3.5 2.51745 122.74791 1 1 -581.89077 -1197.94696 A 3.5 2.51745 122.74791 0 1 -585.53277 -1191.97571 Z" />
    <path d="M -558.78165 -1176.37988 A 3.5 2.51745 122.74791 0 1 -554.98777 -1182.26259 A 3.5 2.51745 122.74791 0 1 -558.77437 -1176.37518 A 3.5 2.51745 122.74791 0 1 -558.78165 -1176.37988 Z" />
    <path d="M -533.6615 -1158.26194 A 3.5 2.51745 122.74791 0 1 -529.72501 -1164.0418 A 3.5 2.51745 122.74791 0 1 -533.51161 -1158.15438 A 3.5 2.51745 122.74791 0 1 -533.6615 -1158.26194 Z" />
    <path d="M -510.29471 -1137.71017 A 3.5 2.51745 122.74791 0 1 -506.22556 -1143.37334 A 3.5 2.51745 122.74791 0 1 -510.01217 -1137.48593 A 3.5 2.51745 122.74791 0 1 -510.29471 -1137.71017 Z" />
    <path d="M -488.79512 -1114.82468 A 3.5 2.51745 122.74791 0 1 -484.60392 -1120.35793 A 3.5 2.51745 122.74791 1 1 -488.39052 -1114.47052 A 3.5 2.51745 122.74791 0 1 -488.79512 -1114.82468 Z" />
    <path d="M -469.26748 -1089.71697 A 3.5 2.51745 122.74791 0 1 -464.96541 -1095.10768 A 3.5 2.51745 122.74791 1 1 -468.75202 -1089.22027 A 3.5 2.51745 122.74791 0 1 -469.26748 -1089.71697 Z" />
    <path d="M -450.43165 -1067.26907 A 3.5 2.51745 122.74791 0 1 -448.16642 -1068.02435" />
    <path d="M -394.46319 -863.21989 A 3.5 2.51745 122.74791 0 1 -389.73645 -867.32473 A 3.5 2.51745 122.74791 1 1 -393.52305 -861.43732 A 3.5 2.51745 122.74791 0 1 -394.46319 -863.21989 Z" />
    <path d="M -398.11344 -899.93291 A 3.5 2.51745 122.74791 0 1 -393.40742 -904.24618 A 3.5 2.51745 122.74791 0 1 -397.19403 -898.35876 A 3.5 2.51745 122.74791 0 1 -398.11344 -899.93291 Z" />
    <path d="M -404.17743 -935.47065 A 3.5 2.51745 122.74791 0 1 -399.50583 -939.98566 A 3.5 2.51745 122.74791 0 1 -403.29244 -934.09825 A 3.5 2.51745 122.74791 0 1 -404.17743 -935.47065 Z" />
    <path d="M -412.62561 -969.65996 A 3.5 2.51745 122.74791 0 1 -408.00198 -974.36908 A 3.5 2.51745 122.74791 0 1 -411.78859 -968.48166 A 3.5 2.51745 122.74791 0 1 -412.62561 -969.65996 Z" />
    <path d="M -386.34644 -1005.07313 L -386.34644 -1007.72545" />
    <path d="M -363.10233 -1360.87432 A 250 179.81805 302.74791 0 0 -498.33827 -1372.18802" />
    <path d="M -485.47743 -1021.54364 A 600 431.56333 302.74791 0 0 -489.12374 -1031.23929" />
    <path d="M -497.68874 -1051.51242 A 600 431.56333 302.74791 0 0 -595.35736 -1178.51903" />
    <path d="M -457.76164 -368.11887 L -457.76164 -476.06821" />
    <path d="M -457.76164 -504.74479 L -457.76164 -594.43227" />
    <path d="M -457.76164 -682.69983 L -457.76164 -853.92909" />
    <path d="M -1603.64509 -67.40851 L -1318.63279 115.90284" />
    <path d="M -1318.63279 -13.61357 L -1481.91522 -118.63192" />
    <path d="M -1603.64509 -244.67123 L -1318.63279 -61.35987" />
    <path d="M -1318.63279 -190.87628 L -1481.91522 -295.89464" />
    <path d="M -1603.64509 -421.93394 L -1318.63279 -238.62259" />
    <path d="M -1318.63279 -368.13899 L -1481.91522 -473.15735" />
    <path d="M -1603.64509 -599.19665 L -1318.63279 -415.8853" />
    <path d="M -1318.11151 -545.06643 L -1481.91522 -650.42007" />
    <path d="M -143.93091 -328.00636 L -101.33414 -300.6094" />
    <path d="M -143.12622 -446.36945 L -264.61657 -524.5084" />
    <path d="M -386.34644 -473.28499 L -275.74676 -402.15059" />
    <path d="M -150.57183 -321.64184 L -101.33414 -289.97364" />
    <path d="M -384.76652 -660.16731 L -101.33414 -477.87211" />
    <path d="M -101.33414 -596.75276 L -263.03666 -700.75496" />
    <path d="M -386.34644 -650.5477 L -101.33414 -467.23635" />
    <path d="M -203.25534 -720.68748 L -102.17678 -655.67679" />
    <path d="M -129.51966 -792.14355 L -264.61657 -879.03383" />
    <path d="M -386.34644 -827.81042 L -262.1402 -747.92469" />
    <path d="M -214.14601 -717.05627 L -101.68399 -644.72408" />
    <path d="M -374.80417 -1008.28526 L -370.13244 -1005.28054" />
    <path d="M -330.68897 -979.91168 L -172.99512 -878.48773" />
    <path d="M -386.34644 -1005.07313 L -161.27084 -860.31126" />
    <path d="M -1115.74969 -818.24337 L -966.56009 -867.98675" />
    <path d="M -910.58037 -886.65173 L -840.23443 -910.10675 L -833.22274 -905.59704" />
    <path d="M -1318.63279 -529.0189 L -1318.63279 844.76714 L -1311.62111 849.27685 L -1274.51759 836.90565" />
    <path d="M -1318.23245 -543.06541 L -1318.63279 -529.0189 L -1311.62111 -524.50919 L -1311.62111 849.27685" />
    <path d="M -1115.74969 -818.24337 A 250 179.81805 302.74791 0 0 -1318.23245 -543.06541 L -1311.22076 -538.5557 A 250 179.81805 122.74791 0 1 -1108.738 -813.73366" />
    <path d="M -417.42603 -1051.08118 L -165.5689 -1135.05637" />
    <path d="M -417.42603 -1051.08118 A 57.5 41.35815 302.74791 0 0 -417.00289 -1044.37469" />
    <path d="M -101.33414 -624.68563 A 600 431.56333 302.74791 0 0 -116.10387 -749.74587" />
    <path d="M -129.04993 -792.30017 A 600 431.56333 302.74791 0 0 -238.92986 -949.27556" />
    <path d="M -101.33414 -138.8754 L -101.33414 -246.82474" />
    <path d="M -101.33414 -275.50132 L -101.33414 -365.1888" />
    <path d="M -101.33414 -453.45636 L -101.33414 -624.68563" />
    <path d="M -1088.44969 -820.49827 L -1051.34617 -796.6344" />
    <path d="M -1071.63448 -789.86979 L -1051.34617 -796.6344" />
    <path d="M -1071.63448 -789.86979 L -1064.62279 -785.36009" />
    <path d="M -789.10753 -877.22346 L -942.18415 -826.18406" />
    <path d="M -967.9734 -817.58531 L -1064.62279 -785.36009" />
    <path d="M -796.11922 -881.73317 L -789.10753 -877.22346 A 57.5 41.35815 122.74791 0 1 -821.44205 -817.94142" />
    <path d="M -796.11922 -881.73317 L -373.31082 -1022.7076 A 57.5 41.35815 302.74791 0 0 -372.28333 -1012.41443 A 57.5 41.35815 302.74791 0 0 -357.75197 -989.90532 L -350.74028 -985.39561 A 57.5 41.35815 302.74791 0 0 -333.96461 -980.47806" />
    <path d="M -366.29913 -1018.19789 L -373.31082 -1022.7076" />
    <path d="M -90.78387 -1110.06127 L -366.29913 -1018.19789 A 57.5 41.35815 302.74791 0 0 -350.74028 -985.39561" />
    <path d="M -90.78387 -1110.06127 L -97.79556 -1114.57098" />
    <path d="M -118.08387 -1107.80637 L -97.79556 -1114.57098" />
    <path d="M -118.08387 -1107.80637 L -155.18739 -1131.67024" />
    <path d="M -134.89908 -1138.43485 L -155.18739 -1131.67024" />
    <path d="M -134.89908 -1138.43485 L -135.18739 -1138.62028" />
    <path d="M -410.41434 -1046.57147 L -417.42603 -1051.08118" />
    <path d="M -410.41434 -1046.57147 L -833.22274 -905.59704" />
    <path d="M -1115.74969 -818.24337 L -1108.738 -813.73366" />
    <path d="M -1088.44969 -820.49827 L -1108.738 -813.73366" />
    <path d="M -1311.22076 -538.5557 L -1311.62111 -524.50919" />
    <path d="M -378.07982 -1008.85163 A 57.5 41.35815 122.74791 0 1 -382.0719 -1009.15069" />
    <path d="M -94.32246 -620.17592 A 600 431.56333 302.74791 0 0 -110.71707 -751.54195" />
    <path d="M -124.29759 -793.88471 A 600 431.56333 302.74791 0 0 -235.21792 -947.34114" />
    <path d="M -370.98132 -1007.58327 A 600 431.56333 302.74791 0 0 -378.07982 -1008.85163" />
    <path d="M -94.32246 -620.17592 L -101.33414 -624.68563" />
    <path d="M -94.32246 -134.3657 L -94.32246 -242.31504" />
    <path d="M -94.32246 -270.99161 L -94.32246 -372.43699" />
    <path d="M -94.32246 -455.79422 L -94.32246 -620.17592" />
    <path d="M -134.89908 -1138.43485 A 250 179.81805 122.74791 0 1 -134.10176 -1138.69898" />
    <path d="M 14.30791 -1116.74652 A 250 179.81805 122.74791 0 1 17.86731 -1113.60128" />
    <path d="M -75.25144 -227.69354 A 3.5 2.51745 122.74791 0 1 -79.98511 -223.80279 A 3.5 2.51745 122.74791 0 1 -76.1985 -229.6902 A 3.5 2.51745 122.74791 0 1 -75.25144 -227.69354 Z" />
    <path d="M -75.25144 -272.00922 A 3.5 2.51745 122.74791 0 1 -79.98511 -268.11847 A 3.5 2.51745 122.74791 0 1 -76.1985 -274.00588 A 3.5 2.51745 122.74791 0 1 -75.25144 -272.00922 Z" />
    <path d="M -75.25144 -316.3249 A 3.5 2.51745 122.74791 0 1 -79.98511 -312.43415 A 3.5 2.51745 122.74791 0 1 -76.1985 -318.32156 A 3.5 2.51745 122.74791 0 1 -75.25144 -316.3249 Z" />
    <path d="M -75.25144 -360.64058 A 3.5 2.51745 122.74791 0 1 -79.98511 -356.74983 A 3.5 2.51745 122.74791 0 1 -76.1985 -362.63724 A 3.5 2.51745 122.74791 0 1 -75.25144 -360.64058 Z" />
    <path d="M -75.25144 -404.95626 A 3.5 2.51745 122.74791 0 1 -78.94851 -400.76594" />
    <path d="M -77.37531 -407.24989 A 3.5 2.51745 122.74791 0 1 -76.1985 -406.95292 A 3.5 2.51745 122.74791 0 1 -75.25144 -404.95626" />
    <path d="M -75.25144 -493.58761 A 3.5 2.51745 122.74791 0 1 -79.98511 -489.69686 A 3.5 2.51745 122.74791 0 1 -76.1985 -495.58427 A 3.5 2.51745 122.74791 0 1 -75.25144 -493.58761 Z" />
    <path d="M -75.25144 -537.90329 A 3.5 2.51745 122.74791 0 1 -79.98511 -534.01254 A 3.5 2.51745 122.74791 1 1 -76.1985 -539.89995 A 3.5 2.51745 122.74791 0 1 -75.25144 -537.90329 Z" />
    <path d="M -75.25144 -582.21897 A 3.5 2.51745 122.74791 0 1 -79.98511 -578.32822 A 3.5 2.51745 122.74791 0 1 -76.1985 -584.21563 A 3.5 2.51745 122.74791 0 1 -75.25144 -582.21897 Z" />
    <path d="M -75.25144 -626.53465 A 3.5 2.51745 122.74791 0 1 -79.98511 -622.6439 A 3.5 2.51745 122.74791 0 1 -76.1985 -628.53131 A 3.5 2.51745 122.74791 0 1 -75.25144 -626.53465 Z" />
    <path d="M -124.18622 -832.46454 A 3.5 2.51745 122.74791 0 1 -120.78821 -837.83473" />
    <path d="M -118.84565 -834.71306 A 3.5 2.51745 122.74791 0 1 -123.48472 -831.64774 A 3.5 2.51745 122.74791 0 1 -124.18622 -832.46454" />
    <path d="M -139.49463 -861.63948 A 3.5 2.51745 122.74791 0 1 -139.46045 -864.63171" />
    <path d="M -136.66932 -860.95519 A 3.5 2.51745 122.74791 0 1 -138.88004 -860.98831 A 3.5 2.51745 122.74791 0 1 -139.49463 -861.63948" />
    <path d="M -82.1509 -662.35 A 3.5 2.51745 122.74791 0 1 -77.42415 -666.45484 A 3.5 2.51745 122.74791 1 1 -81.21076 -660.56743 A 3.5 2.51745 122.74791 0 1 -82.1509 -662.35 Z" />
    <path d="M -85.80115 -699.06302 A 3.5 2.51745 122.74791 0 1 -81.09513 -703.37628 A 3.5 2.51745 122.74791 0 1 -84.88173 -697.48887 A 3.5 2.51745 122.74791 0 1 -85.80115 -699.06302 Z" />
    <path d="M -91.86514 -734.60076 A 3.5 2.51745 122.74791 0 1 -87.19354 -739.11577 A 3.5 2.51745 122.74791 0 1 -90.98015 -733.22836 A 3.5 2.51745 122.74791 0 1 -91.86514 -734.60076 Z" />
    <path d="M -111.10454 -801.46439 A 3.5 2.51745 122.74791 0 1 -106.54217 -806.35901 A 3.5 2.51745 122.74791 0 1 -110.32878 -800.47159 A 3.5 2.51745 122.74791 0 1 -111.10454 -801.46439 Z" />
    <path d="M -1088.44969 -809.86251 L -1088.44969 -820.49827" />
    <path d="M -1088.44969 -809.86251 L -1062.23684 -793.00319" />
    <path d="M -1071.63448 -789.86979 A 250 179.81805 302.74791 0 0 -1274.11724 -514.69183 L -1267.10556 -510.18212 L -1267.5059 -496.13561 L -1267.5059 877.65042 L -1105.19941 823.53356 L -1105.19941 253.17678" />
    <path d="M -1274.51759 -500.64532 L -1274.51759 873.14072 L -1267.5059 877.65042" />
    <path d="M -1274.11724 -514.69183 L -1274.51759 -500.64532 L -1267.5059 -496.13561" />
    <path d="M -1267.10556 -510.18212 A 250 179.81805 122.74791 0 1 -1064.62279 -785.36009" />
    <path d="M -1105.19941 -240.04273 A 600 431.56333 122.74791 0 1 -1103.99427 -277.83625" />
    <path d="M -1085.688 -395.57861 A 600 431.56333 122.74791 0 1 -889.42105 -753.69858" />
    <path d="M -872.31297 -771.37176 A 600 431.56333 122.74791 0 1 -821.44205 -817.94142" />
    <path d="M -1105.19941 123.66038 L -1105.19941 75.91407" />
    <path d="M -1105.19941 -53.60234 L -1105.19941 -101.34864" />
    <path d="M -1105.19941 -230.86505 L -1105.19941 -240.04273" />
    <path d="M -1124.27042 76.52575 A 3.5 2.51745 122.74791 0 1 -1119.53676 72.635 A 3.5 2.51745 122.74791 1 1 -1123.32336 78.52241 A 3.5 2.51745 122.74791 0 1 -1124.27042 76.52575 Z" />
    <path d="M -1247.21759 161.83496 L -1247.21759 151.19919 L -962.20529 334.51055" />
    <path d="M -1247.21759 151.19919 L -1125.48772 110.61155" />
    <path d="M -1124.27042 -100.73696 A 3.5 2.51745 122.74791 0 1 -1119.53676 -104.62771 A 3.5 2.51745 122.74791 1 1 -1123.32336 -98.7403 A 3.5 2.51745 122.74791 0 1 -1124.27042 -100.73696 Z" />
    <path d="M -1247.21759 -15.42776 L -1247.21759 -26.06352 L -962.20529 157.24783" />
    <path d="M -1247.21759 -26.06352 L -1125.48772 -66.65117" />
    <path d="M -1247.21759 -192.69047 L -1247.21759 -203.32623 L -962.20529 -20.01488" />
    <path d="M -1247.21759 -203.32623 L -1125.48772 -243.91388" />
    <path d="M -1075.33565 -472.24593 A 3.5 2.51745 122.74791 0 1 -1079.82375 -469.6988 A 3.5 2.51745 122.74791 0 1 -1076.03715 -475.58621 A 3.5 2.51745 122.74791 0 1 -1075.33565 -472.24593 Z" />
    <path d="M -926.30139 -730.27039 A 3.5 2.51745 122.74791 0 1 -929.94339 -729.18811 A 3.5 2.51745 122.74791 0 1 -926.15679 -735.07552 A 3.5 2.51745 122.74791 0 1 -926.30139 -730.27039 Z" />
    <path d="M -953.05252 -696.83563 A 3.5 2.51745 122.74791 0 1 -956.84639 -695.56353 A 3.5 2.51745 122.74791 0 1 -953.05979 -701.45094 A 3.5 2.51745 122.74791 0 1 -953.05252 -696.83563 Z" />
    <path d="M -978.17266 -661.96637 A 3.5 2.51745 122.74791 0 1 -982.10915 -660.49632 A 3.5 2.51745 122.74791 0 1 -978.32255 -666.38373 A 3.5 2.51745 122.74791 0 1 -978.17266 -661.96637 Z" />
    <path d="M -1001.53945 -625.8325 A 3.5 2.51745 122.74791 0 1 -1005.6086 -624.15731 A 3.5 2.51745 122.74791 1 1 -1001.82199 -630.04472 A 3.5 2.51745 122.74791 0 1 -1001.53945 -625.8325 Z" />
    <path d="M -1023.03904 -588.61006 A 3.5 2.51745 122.74791 0 1 -1027.23024 -586.72355 A 3.5 2.51745 122.74791 0 1 -1023.44364 -592.61096 A 3.5 2.51745 122.74791 0 1 -1023.03904 -588.61006 Z" />
    <path d="M -1042.56668 -550.48039 A 3.5 2.51745 122.74791 0 1 -1046.86875 -548.37741 A 3.5 2.51745 122.74791 0 1 -1043.08214 -554.26482 A 3.5 2.51745 122.74791 0 1 -1042.56668 -550.48039 Z" />
    <path d="M -1060.02724 -511.62926 A 3.5 2.51745 122.74791 0 1 -1064.42843 -509.30571 A 3.5 2.51745 122.74791 0 1 -1060.64183 -515.19312 A 3.5 2.51745 122.74791 0 1 -1060.02724 -511.62926 Z" />
    <path d="M -1117.37097 -274.10024 A 3.5 2.51745 122.74791 0 1 -1122.09772 -270.42818 A 3.5 2.51745 122.74791 1 1 -1118.31111 -276.3156 A 3.5 2.51745 122.74791 0 1 -1117.37097 -274.10024 Z" />
    <path d="M -1088.41733 -432.5223 A 3.5 2.51745 122.74791 0 1 -1092.9797 -429.74964 A 3.5 2.51745 122.74791 0 1 -1089.19309 -435.63705 A 3.5 2.51745 122.74791 0 1 -1088.41733 -432.5223 Z" />
    <path d="M -1247.21759 -369.95319 L -1247.21759 -380.58895 L -962.20529 -197.2776" />
    <path d="M -1247.21759 -380.58895 L -1125.48772 -421.1766" />
    <path d="M -789.23662 -873.39223 L -372.28333 -1012.41443" />
    <path d="M -50.20725 -591.80234 A 600 431.56333 302.74791 0 0 -78.9205 -762.14369" />
    <path d="M -96.70471 -803.08484 A 600 431.56333 302.74791 0 0 -212.56046 -934.08701 A 600 431.56333 302.74791 0 0 -333.96461 -980.47806" />
    <path d="M -50.20725 -105.99212 L -50.20725 -213.94146" />
    <path d="M -50.20725 -242.61803 L -50.20725 -423.63246" />
    <path d="M -50.20725 -470.50329 L -50.20725 -591.80234 L -57.21894 -596.31205 A 600 431.56333 302.74791 0 0 -83.72626 -760.54134" />
    <path d="M 112.09924 -956.12896 L 112.09924 -879.55264" />
    <path d="M 112.09924 -684.48784 L 112.09924 -636.74153" />
    <path d="M 112.09924 -477.74932 L 112.09924 -459.47881" />
    <path d="M 112.09924 -329.96241 L 112.09924 -282.2161" />
    <path d="M 112.09924 -152.69969 L 112.09924 -139.26513" />
    <path d="M 112.09924 -114.44739 L 112.09924 -1.60146" />
    <path d="M 111.69889 -969.90849 L 112.09924 -956.12896" />
    <path d="M -90.78387 -1110.06127 A 250 179.81805 122.74791 0 1 44.45207 -1098.74757 A 250 179.81805 122.74791 0 1 111.69889 -969.90849" />
    <path d="M -31.13624 -199.31997 A 3.5 2.51745 122.74791 0 1 -35.8699 -195.42921 A 3.5 2.51745 122.74791 0 1 -32.0833 -201.31663 A 3.5 2.51745 122.74791 0 1 -31.13624 -199.31997 Z" />
    <path d="M -31.13624 -243.63564 A 3.5 2.51745 122.74791 0 1 -35.8699 -239.74489 A 3.5 2.51745 122.74791 0 1 -32.0833 -245.6323 A 3.5 2.51745 122.74791 0 1 -31.13624 -243.63564 Z" />
    <path d="M -31.13624 -287.95132 A 3.5 2.51745 122.74791 0 1 -35.8699 -284.06057 A 3.5 2.51745 122.74791 0 1 -32.0833 -289.94798 A 3.5 2.51745 122.74791 0 1 -31.13624 -287.95132 Z" />
    <path d="M -31.13624 -332.267 A 3.5 2.51745 122.74791 0 1 -35.8699 -328.37625 A 3.5 2.51745 122.74791 0 1 -32.0833 -334.26366 A 3.5 2.51745 122.74791 0 1 -31.13624 -332.267 Z" />
    <path d="M -31.13624 -376.58268 A 3.5 2.51745 122.74791 0 1 -35.8699 -372.69193 A 3.5 2.51745 122.74791 0 1 -32.0833 -378.57934 A 3.5 2.51745 122.74791 0 1 -31.13624 -376.58268 Z" />
    <path d="M -29.91894 -254.67728 L 91.81093 -295.26493" />
    <path d="M -29.91894 -244.04152 L -29.91894 -254.67728 L 182.93842 -117.77382" />
    <path d="M -31.13624 -420.89836 A 3.5 2.51745 122.74791 0 1 -35.8699 -417.00761 A 3.5 2.51745 122.74791 0 1 -32.0833 -422.89502 A 3.5 2.51745 122.74791 0 1 -31.13624 -420.89836 Z" />
    <path d="M -31.13624 -509.52972 A 3.5 2.51745 122.74791 0 1 -35.8699 -505.63896 A 3.5 2.51745 122.74791 1 1 -32.0833 -511.52638 A 3.5 2.51745 122.74791 0 1 -31.13624 -509.52972 Z" />
    <path d="M -31.13624 -553.84539 A 3.5 2.51745 122.74791 0 1 -35.8699 -549.95464 A 3.5 2.51745 122.74791 0 1 -32.0833 -555.84205 A 3.5 2.51745 122.74791 0 1 -31.13624 -553.84539 Z" />
    <path d="M -31.13624 -598.16107 A 3.5 2.51745 122.74791 0 1 -35.8699 -594.27032 A 3.5 2.51745 122.74791 0 1 -32.0833 -600.15773 A 3.5 2.51745 122.74791 0 1 -31.13624 -598.16107 Z" />
    <path d="M -29.91894 -421.30423 L -29.91894 -430.39706" />
    <path d="M -29.91894 -609.20271 L 91.81093 -649.79036" />
    <path d="M -29.91894 -598.56695 L -29.91894 -609.20271 L 105.17797 -522.31244" />
    <path d="M -229.10527 -962.73224 A 3.5 2.51745 122.74791 0 1 -229.24987 -962.81608 A 3.5 2.51745 122.74791 1 1 -225.46327 -968.7035 A 3.5 2.51745 122.74791 0 1 -229.10527 -962.73224 Z" />
    <path d="M -202.35415 -947.13641 A 3.5 2.51745 122.74791 0 1 -198.56027 -953.01912 A 3.5 2.51745 122.74791 0 1 -202.34688 -947.13171 A 3.5 2.51745 122.74791 0 1 -202.35415 -947.13641 Z" />
    <path d="M -177.234 -929.01848 A 3.5 2.51745 122.74791 0 1 -173.29751 -934.79833 A 3.5 2.51745 122.74791 0 1 -177.08411 -928.91092 A 3.5 2.51745 122.74791 0 1 -177.234 -929.01848 Z" />
    <path d="M -153.86721 -908.4667 A 3.5 2.51745 122.74791 0 1 -149.79806 -914.12987 A 3.5 2.51745 122.74791 0 1 -153.58467 -908.24246 A 3.5 2.51745 122.74791 0 1 -153.86721 -908.4667 Z" />
    <path d="M -132.36762 -885.58121 A 3.5 2.51745 122.74791 0 1 -128.17642 -891.11446 A 3.5 2.51745 122.74791 1 1 -131.96302 -885.22705 A 3.5 2.51745 122.74791 0 1 -132.36762 -885.58121 Z" />
    <path d="M -112.83998 -860.4735 A 3.5 2.51745 122.74791 0 1 -108.53791 -865.86421 A 3.5 2.51745 122.74791 1 1 -112.32452 -859.9768 A 3.5 2.51745 122.74791 0 1 -112.83998 -860.4735 Z" />
    <path d="M -95.37942 -833.2659 A 3.5 2.51745 122.74791 0 1 -90.97823 -838.50215 A 3.5 2.51745 122.74791 1 1 -94.76484 -832.61473 A 3.5 2.51745 122.74791 0 1 -95.37942 -833.2659 Z" />
    <path d="M -38.03569 -633.97643 A 3.5 2.51745 122.74791 0 1 -33.30895 -638.08126 A 3.5 2.51745 122.74791 1 1 -37.09555 -632.19385 A 3.5 2.51745 122.74791 0 1 -38.03569 -633.97643 Z" />
    <path d="M -41.68594 -670.68944 A 3.5 2.51745 122.74791 0 1 -36.97992 -675.00271 A 3.5 2.51745 122.74791 0 1 -40.76653 -669.1153 A 3.5 2.51745 122.74791 0 1 -41.68594 -670.68944 Z" />
    <path d="M -47.74993 -706.22718 A 3.5 2.51745 122.74791 0 1 -43.07833 -710.7422 A 3.5 2.51745 122.74791 0 1 -46.86494 -704.85478 A 3.5 2.51745 122.74791 0 1 -47.74993 -706.22718 Z" />
    <path d="M -56.19812 -740.41649 A 3.5 2.51745 122.74791 0 1 -51.57448 -745.12561 A 3.5 2.51745 122.74791 0 1 -55.36109 -739.2382 A 3.5 2.51745 122.74791 0 1 -56.19812 -740.41649 Z" />
    <path d="M -29.91894 -775.82966 L -29.91894 -778.48198" />
    <path d="M 37.44038 -1103.25728 A 250 179.81805 302.74791 0 0 -97.79556 -1114.57098" />
    <path d="M -100.81448 -801.71455 A 600 431.56333 302.74791 0 0 -216.08144 -936.31833" />
    <path d="M -57.21894 -110.50183 L -57.21894 -218.45117" />
    <path d="M -57.21894 -247.12774 L -57.21894 -421.29459" />
    <path d="M -57.21894 -468.16542 L -57.21894 -596.31205" />
    <path d="M -1247.21759 161.83496 L -962.20529 345.14631" />
    <path d="M -962.20529 215.6299 L -1125.48772 110.61155" />
    <path d="M -1247.21759 -15.42776 L -962.20529 167.88359" />
    <path d="M -962.20529 38.36719 L -1125.48772 -66.65117" />
    <path d="M -1247.21759 -192.69047 L -962.20529 -9.37912" />
    <path d="M -962.20529 -138.89553 L -1125.48772 -243.91388" />
    <path d="M -1247.21759 -369.95319 L -962.20529 -186.64184" />
    <path d="M -961.68401 -315.82296 L -1125.48772 -421.1766" />
    <path d="M 221.06079 -93.25466 L 255.09335 -71.36593" />
    <path d="M 255.09335 -190.24657 L 91.81093 -295.26493" />
    <path d="M -29.91894 -244.04152 L 158.84825 -122.63213" />
    <path d="M 202.59089 -94.49818 L 255.09335 -60.73017" />
    <path d="M -28.33902 -430.92384 L 255.09335 -248.62865" />
    <path d="M 255.09335 -367.50929 L 93.39084 -471.51149" />
    <path d="M -29.91894 -421.30423 L 255.09335 -237.99288" />
    <path d="M 153.17216 -491.44401 L 254.25072 -426.43332" />
    <path d="M 226.90784 -562.90008 L 91.81093 -649.79036" />
    <path d="M -29.91894 -598.56695 L 94.2873 -518.68123" />
    <path d="M 142.28149 -487.8128 L 254.74351 -415.48061" />
    <path d="M -18.37667 -779.04179 L -13.70494 -776.03707" />
    <path d="M 25.73853 -750.66821 L 183.43238 -649.24426" />
    <path d="M -29.91894 -775.82966 L 195.15666 -631.0678" />
    <path d="M -759.32219 -588.9999 L -676.35731 -616.66238" />
    <path d="M -646.99344 -626.45299 L -483.80693 -680.86328 L -476.79524 -676.35357" />
    <path d="M -962.20529 -299.77543 L -962.20529 1074.01061 L -955.19361 1078.52031 L -918.09009 1066.14911" />
    <path d="M -961.80495 -313.82194 L -962.20529 -299.77543 L -955.19361 -295.26572 L -955.19361 1078.52031" />
    <path d="M -759.32219 -588.9999 A 250 179.81805 302.74791 0 0 -961.80495 -313.82194 L -954.79326 -309.31223 A 250 179.81805 122.74791 0 1 -752.3105 -584.4902" />
    <path d="M -60.99853 -821.83771 L 214.51673 -913.70109" />
    <path d="M -60.99853 -821.83771 A 57.5 41.35815 302.74791 0 0 -60.57539 -815.13122" />
    <path d="M 255.09335 -395.44216 A 600 431.56333 302.74791 0 0 240.32363 -520.5024" />
    <path d="M 227.37757 -563.0567 A 600 431.56333 302.74791 0 0 117.49764 -720.03209" />
    <path d="M 255.09335 668.13413 L 255.09335 525.80165" />
    <path d="M 255.09335 90.36806 L 255.09335 -93.05752" />
    <path d="M 255.09335 -113.53285 L 255.09335 -395.44216" />
    <path d="M 349.75267 -902.38738 A 250 179.81805 302.74791 0 0 214.51673 -913.70109" />
    <path d="M -732.02219 -591.2548 L -694.91867 -567.39093" />
    <path d="M -715.20698 -560.62633 L -694.91867 -567.39093" />
    <path d="M -715.20698 -560.62633 L -708.19529 -556.11662" />
    <path d="M -432.68003 -647.97999 L -595.86654 -593.56971" />
    <path d="M -625.23041 -583.77909 L -708.19529 -556.11662" />
    <path d="M -439.69172 -652.4897 L -432.68003 -647.97999 A 57.5 41.35815 122.74791 0 1 -465.01455 -588.69795" />
    <path d="M -439.69172 -652.4897 L -16.88332 -793.46413 A 57.5 41.35815 302.74791 0 0 -15.85583 -783.17096 A 57.5 41.35815 302.74791 0 0 -1.32447 -760.66185 L 5.68722 -756.15214 A 57.5 41.35815 302.74791 0 0 22.46289 -751.23459" />
    <path d="M -9.87163 -788.95442 L -16.88332 -793.46413" />
    <path d="M 265.64363 -880.8178 L -9.87163 -788.95442 A 57.5 41.35815 302.74791 0 0 5.68722 -756.15214" />
    <path d="M 265.64363 -880.8178 L 258.63194 -885.32751" />
    <path d="M 238.34363 -878.5629 L 258.63194 -885.32751" />
    <path d="M 238.34363 -878.5629 L 201.24011 -902.42677" />
    <path d="M 221.52842 -909.19138 L 201.24011 -902.42677" />
    <path d="M 221.52842 -909.19138 L 214.51673 -913.70109" />
    <path d="M -53.98684 -817.328 L -60.99853 -821.83771" />
    <path d="M -53.98684 -817.328 L -476.79524 -676.35357" />
    <path d="M -759.32219 -588.9999 L -752.3105 -584.4902" />
    <path d="M -732.02219 -591.2548 L -752.3105 -584.4902" />
    <path d="M -954.79326 -309.31223 L -955.19361 -295.26572" />
    <path d="M -21.65232 -779.60817 A 57.5 41.35815 122.74791 0 1 -25.6444 -779.90722" />
    <path d="M 262.10504 -390.93245 A 600 431.56333 302.74791 0 0 245.71043 -522.29848" />
    <path d="M 232.1299 -564.64125 A 600 431.56333 302.74791 0 0 121.20958 -718.09767" />
    <path d="M -14.55382 -778.3398 A 600 431.56333 302.74791 0 0 -21.65232 -779.60817" />
    <path d="M 262.10504 -390.93245 L 255.09335 -395.44216" />
    <path d="M 262.10504 672.64384 L 255.09335 668.13413" />
    <path d="M 262.10504 672.64384 L 262.10504 523.46379" />
    <path d="M 262.10504 94.87777 L 262.10504 -93.35148" />
    <path d="M 262.10504 -113.86923 L 262.10504 -390.93245" />
    <path d="M 299.20856 660.27264 L 262.10504 672.64384" />
    <path d="M 221.52842 -909.19138 A 250 179.81805 122.74791 0 1 356.76436 -897.87768 A 250 179.81805 122.74791 0 1 374.29481 -884.35782" />
    <path d="M 281.17606 1.54993 A 3.5 2.51745 122.74791 0 1 276.44239 5.44068 A 3.5 2.51745 122.74791 0 1 280.229 -0.44673 A 3.5 2.51745 122.74791 0 1 281.17606 1.54993 Z" />
    <path d="M 281.17606 -42.76575 A 3.5 2.51745 122.74791 0 1 276.44239 -38.875 A 3.5 2.51745 122.74791 0 1 280.229 -44.76241 A 3.5 2.51745 122.74791 0 1 281.17606 -42.76575 Z" />
    <path d="M 281.17606 -87.08143 A 3.5 2.51745 122.74791 0 1 276.44239 -83.19068 A 3.5 2.51745 122.74791 0 1 280.229 -89.07809 A 3.5 2.51745 122.74791 0 1 281.17606 -87.08143 Z" />
    <path d="M 281.17606 -131.39711 A 3.5 2.51745 122.74791 0 1 276.44239 -127.50636 A 3.5 2.51745 122.74791 0 1 280.229 -133.39377 A 3.5 2.51745 122.74791 0 1 281.17606 -131.39711 Z" />
    <path d="M 281.17606 -175.71279 A 3.5 2.51745 122.74791 0 1 276.44239 -171.82204 A 3.5 2.51745 122.74791 0 1 280.229 -177.70945 A 3.5 2.51745 122.74791 0 1 281.17606 -175.71279 Z" />
    <path d="M 281.17606 -220.02847 A 3.5 2.51745 122.74791 0 1 276.44239 -216.13772 A 3.5 2.51745 122.74791 0 1 280.229 -222.02513 A 3.5 2.51745 122.74791 0 1 281.17606 -220.02847 Z" />
    <path d="M 281.17606 -264.34415 A 3.5 2.51745 122.74791 0 1 276.44239 -260.45339 A 3.5 2.51745 122.74791 0 1 280.229 -266.34081 A 3.5 2.51745 122.74791 0 1 281.17606 -264.34415 Z" />
    <path d="M 281.17606 -308.65982 A 3.5 2.51745 122.74791 0 1 276.44239 -304.76907 A 3.5 2.51745 122.74791 1 1 280.229 -310.65648 A 3.5 2.51745 122.74791 0 1 281.17606 -308.65982 Z" />
    <path d="M 281.17606 -352.9755 A 3.5 2.51745 122.74791 0 1 276.44239 -349.08475 A 3.5 2.51745 122.74791 0 1 280.229 -354.97216 A 3.5 2.51745 122.74791 0 1 281.17606 -352.9755 Z" />
    <path d="M 281.17606 -397.29118 A 3.5 2.51745 122.74791 0 1 276.44239 -393.40043 A 3.5 2.51745 122.74791 0 1 280.229 -399.28784 A 3.5 2.51745 122.74791 0 1 281.17606 -397.29118 Z" />
    <path d="M 232.24128 -603.22107 A 3.5 2.51745 122.74791 0 1 235.63929 -608.59126" />
    <path d="M 237.58185 -605.46959 A 3.5 2.51745 122.74791 0 1 232.94278 -602.40427 A 3.5 2.51745 122.74791 0 1 232.24128 -603.22107" />
    <path d="M 216.93287 -632.39601 A 3.5 2.51745 122.74791 0 1 216.96705 -635.38824" />
    <path d="M 219.75818 -631.71172 A 3.5 2.51745 122.74791 0 1 217.54746 -631.74484 A 3.5 2.51745 122.74791 0 1 216.93287 -632.39601" />
    <path d="M 274.2766 -433.10653 A 3.5 2.51745 122.74791 0 1 279.00335 -437.21137 A 3.5 2.51745 122.74791 1 1 275.21674 -431.32396 A 3.5 2.51745 122.74791 0 1 274.2766 -433.10653 Z" />
    <path d="M 270.62635 -469.81955 A 3.5 2.51745 122.74791 0 1 275.33237 -474.13282 A 3.5 2.51745 122.74791 0 1 271.54577 -468.2454 A 3.5 2.51745 122.74791 0 1 270.62635 -469.81955 Z" />
    <path d="M 264.56236 -505.35729 A 3.5 2.51745 122.74791 0 1 269.23396 -509.8723 A 3.5 2.51745 122.74791 0 1 265.44735 -503.98489 A 3.5 2.51745 122.74791 0 1 264.56236 -505.35729 Z" />
    <path d="M 245.32296 -572.22092 A 3.5 2.51745 122.74791 0 1 249.88533 -577.11554 A 3.5 2.51745 122.74791 0 1 246.09872 -571.22813 A 3.5 2.51745 122.74791 0 1 245.32296 -572.22092 Z" />
    <path d="M -732.02219 -580.61904 L -732.02219 -591.2548" />
    <path d="M -732.02219 -580.61904 L -705.80934 -563.75972" />
    <path d="M -715.20698 -560.62633 A 250 179.81805 302.74791 0 0 -917.68974 -285.44836 L -910.67806 -280.93865 L -911.0784 -266.89215 L -911.0784 1106.89389 L -748.77191 1052.77703 L -748.77191 482.42025" />
    <path d="M -918.09009 -271.40185 L -918.09009 1102.38418 L -911.0784 1106.89389" />
    <path d="M -917.68974 -285.44836 L -918.09009 -271.40185 L -911.0784 -266.89215" />
    <path d="M -910.67806 -280.93865 A 250 179.81805 122.74791 0 1 -708.19529 -556.11662" />
    <path d="M -748.77191 -10.79926 A 600 431.56333 122.74791 0 1 -747.56677 -48.59278" />
    <path d="M -729.2605 -166.33514 A 600 431.56333 122.74791 0 1 -532.99355 -524.45511" />
    <path d="M -515.88548 -542.12829 A 600 431.56333 122.74791 0 1 -465.01455 -588.69795" />
    <path d="M -748.77191 352.90385 L -748.77191 305.15754" />
    <path d="M -748.77191 175.64113 L -748.77191 127.89482" />
    <path d="M -748.77191 -1.62158 L -748.77191 -10.79926" />
    <path d="M -767.84292 305.76922 A 3.5 2.51745 122.74791 0 1 -763.10926 301.87847 A 3.5 2.51745 122.74791 1 1 -766.89586 307.76588 A 3.5 2.51745 122.74791 0 1 -767.84292 305.76922 Z" />
    <path d="M -890.79009 391.07843 L -890.79009 380.44266 L -605.7778 563.75401" />
    <path d="M -890.79009 380.44266 L -769.06022 339.85501" />
    <path d="M -767.84292 128.50651 A 3.5 2.51745 122.74791 0 1 -763.10926 124.61576 A 3.5 2.51745 122.74791 1 1 -766.89586 130.50317 A 3.5 2.51745 122.74791 0 1 -767.84292 128.50651 Z" />
    <path d="M -890.79009 213.81571 L -890.79009 203.17995 L -605.7778 386.4913" />
    <path d="M -890.79009 203.17995 L -769.06022 162.5923" />
    <path d="M -890.79009 36.553 L -890.79009 25.91723 L -605.7778 209.22858" />
    <path d="M -890.79009 25.91723 L -769.06022 -14.67041" />
    <path d="M -718.90815 -243.00246 A 3.5 2.51745 122.74791 0 1 -723.39625 -240.45533 A 3.5 2.51745 122.74791 0 1 -719.60965 -246.34274 A 3.5 2.51745 122.74791 0 1 -718.90815 -243.00246 Z" />
    <path d="M -569.87389 -501.02692 A 3.5 2.51745 122.74791 0 1 -573.51589 -499.94464 A 3.5 2.51745 122.74791 0 1 -569.72929 -505.83205 A 3.5 2.51745 122.74791 0 1 -569.87389 -501.02692 Z" />
    <path d="M -596.62502 -467.59216 A 3.5 2.51745 122.74791 0 1 -600.41889 -466.32006 A 3.5 2.51745 122.74791 0 1 -596.63229 -472.20748 A 3.5 2.51745 122.74791 0 1 -596.62502 -467.59216 Z" />
    <path d="M -621.74516 -432.7229 A 3.5 2.51745 122.74791 0 1 -625.68165 -431.25285 A 3.5 2.51745 122.74791 0 1 -621.89505 -437.14026 A 3.5 2.51745 122.74791 0 1 -621.74516 -432.7229 Z" />
    <path d="M -645.11195 -396.58904 A 3.5 2.51745 122.74791 0 1 -649.1811 -394.91384 A 3.5 2.51745 122.74791 1 1 -645.39449 -400.80125 A 3.5 2.51745 122.74791 0 1 -645.11195 -396.58904 Z" />
    <path d="M -666.61154 -359.36659 A 3.5 2.51745 122.74791 0 1 -670.80274 -357.48008 A 3.5 2.51745 122.74791 0 1 -667.01614 -363.36749 A 3.5 2.51745 122.74791 0 1 -666.61154 -359.36659 Z" />
    <path d="M -686.13918 -321.23692 A 3.5 2.51745 122.74791 0 1 -690.44125 -319.13394 A 3.5 2.51745 122.74791 0 1 -686.65464 -325.02135 A 3.5 2.51745 122.74791 0 1 -686.13918 -321.23692 Z" />
    <path d="M -703.59974 -282.38579 A 3.5 2.51745 122.74791 0 1 -708.00093 -280.06224 A 3.5 2.51745 122.74791 0 1 -704.21433 -285.94965 A 3.5 2.51745 122.74791 0 1 -703.59974 -282.38579 Z" />
    <path d="M -760.94347 -44.85677 A 3.5 2.51745 122.74791 0 1 -765.67022 -41.18472 A 3.5 2.51745 122.74791 1 1 -761.88361 -47.07213 A 3.5 2.51745 122.74791 0 1 -760.94347 -44.85677 Z" />
    <path d="M -731.98983 -203.27883 A 3.5 2.51745 122.74791 0 1 -736.5522 -200.50617 A 3.5 2.51745 122.74791 0 1 -732.76559 -206.39358 A 3.5 2.51745 122.74791 0 1 -731.98983 -203.27883 Z" />
    <path d="M -890.79009 -140.70972 L -890.79009 -151.34548 L -605.7778 31.96587" />
    <path d="M -890.79009 -151.34548 L -769.06022 -191.93313" />
    <path d="M -432.80912 -644.14876 L -15.85583 -783.17096" />
    <path d="M 306.22025 -362.55887 A 600 431.56333 302.74791 0 0 277.507 -532.90022" />
    <path d="M 259.72279 -573.84137 A 600 431.56333 302.74791 0 0 143.86704 -704.84354 A 600 431.56333 302.74791 0 0 22.46289 -751.23459" />
    <path d="M 306.22025 701.01741 L 306.22025 508.75472" />
    <path d="M 306.22025 123.25135 L 306.22025 -97.94494" />
    <path d="M 306.22025 -119.172 L 306.22025 -362.55887 L 299.20856 -367.06858 A 600 431.56333 302.74791 0 0 272.70124 -531.29787" />
    <path d="M 435.5197 657.90588 L 306.22025 701.01741 L 299.20856 696.50771 L 299.20856 511.09259" />
    <path d="M 468.52674 -726.88549 L 468.52674 -650.30917" />
    <path d="M 468.52674 -455.24437 L 468.52674 -407.49806" />
    <path d="M 468.52674 -277.98165 L 468.52674 -230.23534" />
    <path d="M 468.52674 -100.71894 L 468.52674 -52.97263" />
    <path d="M 468.52674 76.54378 L 468.52674 227.64201" />
    <path d="M 468.52674 454.63786 L 468.52674 611.97068" />
    <path d="M 468.12639 -740.66503 L 468.52674 -726.88549" />
    <path d="M 265.64363 -880.8178 A 250 179.81805 122.74791 0 1 400.87957 -869.5041 A 250 179.81805 122.74791 0 1 468.12639 -740.66503" />
    <path d="M 325.29126 29.9235 A 3.5 2.51745 122.74791 0 1 320.5576 33.81425 A 3.5 2.51745 122.74791 0 1 324.3442 27.92684 A 3.5 2.51745 122.74791 0 1 325.29126 29.9235 Z" />
    <path d="M 325.29126 -14.39218 A 3.5 2.51745 122.74791 0 1 320.5576 -10.50142 A 3.5 2.51745 122.74791 0 1 324.3442 -16.38884 A 3.5 2.51745 122.74791 0 1 325.29126 -14.39218 Z" />
    <path d="M 325.29126 -58.70785 A 3.5 2.51745 122.74791 0 1 320.5576 -54.8171 A 3.5 2.51745 122.74791 0 1 324.3442 -60.70451 A 3.5 2.51745 122.74791 0 1 325.29126 -58.70785 Z" />
    <path d="M 324.96117 -101.46202 A 3.5 2.51745 122.74791 0 1 320.5576 -99.13278 A 3.5 2.51745 122.74791 0 1 319.70401 -100.37132" />
    <path d="M 325.29126 -147.33921 A 3.5 2.51745 122.74791 0 1 320.5576 -143.44846 A 3.5 2.51745 122.74791 0 1 324.3442 -149.33587 A 3.5 2.51745 122.74791 0 1 325.29126 -147.33921 Z" />
    <path d="M 326.50856 -25.43381 L 448.23843 -66.02146" />
    <path d="M 326.50856 -14.79805 L 326.50856 -25.43381 L 611.52085 157.87754" />
    <path d="M 325.29126 -191.65489 A 3.5 2.51745 122.74791 0 1 320.5576 -187.76414 A 3.5 2.51745 122.74791 0 1 324.3442 -193.65155 A 3.5 2.51745 122.74791 0 1 325.29126 -191.65489 Z" />
    <path d="M 325.29126 -235.97057 A 3.5 2.51745 122.74791 0 1 320.5576 -232.07982 A 3.5 2.51745 122.74791 0 1 324.3442 -237.96723 A 3.5 2.51745 122.74791 0 1 325.29126 -235.97057 Z" />
    <path d="M 325.29126 -280.28625 A 3.5 2.51745 122.74791 0 1 320.5576 -276.3955 A 3.5 2.51745 122.74791 1 1 324.3442 -282.28291 A 3.5 2.51745 122.74791 0 1 325.29126 -280.28625 Z" />
    <path d="M 325.29126 -324.60193 A 3.5 2.51745 122.74791 0 1 320.5576 -320.71117 A 3.5 2.51745 122.74791 0 1 324.3442 -326.59859 A 3.5 2.51745 122.74791 0 1 325.29126 -324.60193 Z" />
    <path d="M 325.29126 -368.9176 A 3.5 2.51745 122.74791 0 1 320.5576 -365.02685 A 3.5 2.51745 122.74791 0 1 324.3442 -370.91427 A 3.5 2.51745 122.74791 0 1 325.29126 -368.9176 Z" />
    <path d="M 326.50856 -202.69653 L 448.23843 -243.28418" />
    <path d="M 326.50856 -192.06077 L 326.50856 -202.69653 L 408.02615 -150.26686" />
    <path d="M 326.50856 -379.95924 L 448.23843 -420.54689" />
    <path d="M 326.50856 -369.32348 L 326.50856 -379.95924 L 589.53733 -210.78703" />
    <path d="M 127.32223 -733.48878 A 3.5 2.51745 122.74791 0 1 127.17763 -733.57262 A 3.5 2.51745 122.74791 1 1 130.96423 -739.46003 A 3.5 2.51745 122.74791 0 1 127.32223 -733.48878 Z" />
    <path d="M 154.07335 -717.89295 A 3.5 2.51745 122.74791 0 1 157.86723 -723.77566 A 3.5 2.51745 122.74791 0 1 154.08062 -717.88824 A 3.5 2.51745 122.74791 0 1 154.07335 -717.89295 Z" />
    <path d="M 179.1935 -699.77501 A 3.5 2.51745 122.74791 0 1 183.12999 -705.55486 A 3.5 2.51745 122.74791 0 1 179.34339 -699.66745 A 3.5 2.51745 122.74791 0 1 179.1935 -699.77501 Z" />
    <path d="M 202.56029 -679.22323 A 3.5 2.51745 122.74791 0 1 206.62944 -684.88641 A 3.5 2.51745 122.74791 0 1 202.84283 -678.99899 A 3.5 2.51745 122.74791 0 1 202.56029 -679.22323 Z" />
    <path d="M 224.05988 -656.33774 A 3.5 2.51745 122.74791 0 1 228.25108 -661.87099 A 3.5 2.51745 122.74791 1 1 224.46448 -655.98358 A 3.5 2.51745 122.74791 0 1 224.05988 -656.33774 Z" />
    <path d="M 243.58752 -631.23004 A 3.5 2.51745 122.74791 0 1 247.88959 -636.62074 A 3.5 2.51745 122.74791 1 1 244.10298 -630.73333 A 3.5 2.51745 122.74791 0 1 243.58752 -631.23004 Z" />
    <path d="M 261.04808 -604.02243 A 3.5 2.51745 122.74791 0 1 265.44927 -609.25868 A 3.5 2.51745 122.74791 1 1 261.66266 -603.37127 A 3.5 2.51745 122.74791 0 1 261.04808 -604.02243 Z" />
    <path d="M 318.39181 -404.73296 A 3.5 2.51745 122.74791 0 1 323.11855 -408.83779 A 3.5 2.51745 122.74791 1 1 319.33195 -402.95038 A 3.5 2.51745 122.74791 0 1 318.39181 -404.73296 Z" />
    <path d="M 314.74156 -441.44598 A 3.5 2.51745 122.74791 0 1 319.44758 -445.75924 A 3.5 2.51745 122.74791 0 1 315.66097 -439.87183 A 3.5 2.51745 122.74791 0 1 314.74156 -441.44598 Z" />
    <path d="M 308.67757 -476.98371 A 3.5 2.51745 122.74791 0 1 313.34916 -481.49873 A 3.5 2.51745 122.74791 0 1 309.56256 -475.61132 A 3.5 2.51745 122.74791 0 1 308.67757 -476.98371 Z" />
    <path d="M 300.22938 -511.17302 A 3.5 2.51745 122.74791 0 1 304.85302 -515.88214 A 3.5 2.51745 122.74791 0 1 301.06641 -509.99473 A 3.5 2.51745 122.74791 0 1 300.22938 -511.17302 Z" />
    <path d="M 326.50856 -546.5862 L 326.50856 -549.23851" />
    <path d="M 393.86788 -874.01381 A 250 179.81805 302.74791 0 0 258.63194 -885.32751" />
    <path d="M 255.61302 -572.47108 A 600 431.56333 302.74791 0 0 140.34606 -707.07486" />
    <path d="M 299.20856 118.74164 L 299.20856 -96.88327" />
    <path d="M 299.20856 -117.93822 L 299.20856 -367.06858" />
    <path d="M -890.79009 391.07843 L -605.7778 574.38978" />
    <path d="M -605.7778 444.87337 L -769.06022 339.85501" />
    <path d="M -890.79009 213.81571 L -605.7778 397.12706" />
    <path d="M -605.7778 267.61066 L -769.06022 162.5923" />
    <path d="M -890.79009 36.553 L -605.7778 219.86435" />
    <path d="M -605.7778 90.34794 L -769.06022 -14.67041" />
    <path d="M -890.79009 -140.70972 L -605.7778 42.60163" />
    <path d="M -605.25651 -86.5795 L -769.06022 -191.93313" />
    <path d="M 611.52085 38.99689 L 448.23843 -66.02146" />
    <path d="M 326.50856 -14.79805 L 611.52085 168.5133" />
    <path d="M 431.70939 -135.03451 L 611.52085 -19.38518" />
    <path d="M 611.52085 -138.26582 L 553.43926 -175.62216" />
    <path d="M 529.75601 -190.85451 L 448.23843 -243.28418" />
    <path d="M 326.50856 -192.06077 L 397.13548 -146.63565" />
    <path d="M 420.81872 -131.4033 L 611.52085 -8.74941" />
    <path d="M 584.02074 -333.21579 L 448.23843 -420.54689" />
    <path d="M 326.50856 -369.32348 L 578.64666 -207.15582" />
    <path d="M 602.32991 -191.92347 L 611.17101 -186.23714" />
    <path d="M 338.05083 -549.79832 L 342.72256 -546.7936" />
    <path d="M 382.16603 -521.42474 L 539.85988 -420.0008" />
    <path d="M 326.50856 -546.5862 L 551.58416 -401.82433" />
    <path d="M -402.89469 -359.75644 L -319.92981 -387.41891" />
    <path d="M -290.56594 -397.20953 L -127.37943 -451.61981 L -120.36774 -447.1101" />
    <path d="M -605.7778 -70.53196 L -605.7778 1303.25408 L -598.76611 1307.76378 L -561.66259 1295.39258" />
    <path d="M -605.37745 -84.57847 L -605.7778 -70.53196 L -598.76611 -66.02225 L -598.76611 1307.76378" />
    <path d="M -402.89469 -359.75644 A 250 179.81805 302.74791 0 0 -605.37745 -84.57847 L -598.36576 -80.06876 L -598.76611 -66.02225" />
    <path d="M 295.42897 -592.59424 L 570.94423 -684.45762" />
    <path d="M 295.42897 -592.59424 A 57.5 41.35815 302.74791 0 0 295.85211 -585.88775" />
    <path d="M 611.52085 -166.19869 A 600 431.56333 302.74791 0 0 610.8068 -194.74987" />
    <path d="M 609.19476 -217.34129 A 600 431.56333 302.74791 0 0 473.92514 -490.78862" />
    <path d="M 611.52085 558.13179 L 611.52085 406.9602" />
    <path d="M 611.52085 319.61153 L 611.52085 -166.19869" />
    <path d="M 706.18017 -673.14392 A 250 179.81805 302.74791 0 0 570.94423 -684.45762" />
    <path d="M -375.59469 -362.01134 L -338.49117 -338.14747" />
    <path d="M -358.77948 -331.38286 L -338.49117 -338.14747" />
    <path d="M -358.77948 -331.38286 L -351.76779 -326.87315" />
    <path d="M -76.25253 -418.73653 L -239.43904 -364.32624" />
    <path d="M -268.80291 -354.53563 L -351.76779 -326.87315" />
    <path d="M -83.26422 -423.24623 L -76.25253 -418.73653 A 57.5 41.35815 122.74791 0 1 -108.58705 -359.45449" />
    <path d="M -83.26422 -423.24623 L 339.54418 -564.22066 A 57.5 41.35815 302.74791 0 0 340.57167 -553.92749 A 57.5 41.35815 302.74791 0 0 355.10303 -531.41838 L 362.11472 -526.90868 A 57.5 41.35815 302.74791 0 0 378.89039 -521.99112" />
    <path d="M 346.55587 -559.71096 L 339.54418 -564.22066" />
    <path d="M 622.07113 -651.57433 L 346.55587 -559.71096 A 57.5 41.35815 302.74791 0 0 362.11472 -526.90868" />
    <path d="M 622.07113 -651.57433 L 615.05944 -656.08404" />
    <path d="M 594.77113 -649.31943 L 615.05944 -656.08404" />
    <path d="M 594.77113 -649.31943 L 557.66761 -673.1833" />
    <path d="M 577.95592 -679.94791 L 557.66761 -673.1833" />
    <path d="M 577.95592 -679.94791 L 570.94423 -684.45762" />
    <path d="M 302.44066 -588.08453 L 295.42897 -592.59424" />
    <path d="M 302.44066 -588.08453 L -120.36774 -447.1101" />
    <path d="M -402.89469 -359.75644 L -395.883 -355.24673" />
    <path d="M -375.59469 -362.01134 L -395.883 -355.24673" />
    <path d="M -598.36576 -80.06876 A 250 179.81805 122.74791 0 1 -395.883 -355.24673" />
    <path d="M 334.77518 -550.3647 A 57.5 41.35815 122.74791 0 1 330.7831 -550.66375" />
    <path d="M 618.53254 -161.68898 A 600 431.56333 302.74791 0 0 617.43799 -196.96087" />
    <path d="M 615.55039 -219.46041 A 600 431.56333 302.74791 0 0 477.63708 -488.8542" />
    <path d="M 341.87368 -549.09634 A 600 431.56333 302.74791 0 0 334.77518 -550.3647" />
    <path d="M 618.53254 -161.68898 L 611.52085 -166.19869" />
    <path d="M 618.53254 556.69664 L 618.53254 404.62234" />
    <path d="M 618.53254 324.12124 L 618.53254 -161.68898" />
    <path d="M 577.95592 -679.94791 A 250 179.81805 122.74791 0 1 713.19186 -668.63421 A 250 179.81805 122.74791 0 1 730.72231 -655.11435" />
    <path d="M 637.60356 230.79339 A 3.5 2.51745 122.74791 0 1 632.86989 234.68415 A 3.5 2.51745 122.74791 0 1 636.65649 228.79673 A 3.5 2.51745 122.74791 0 1 637.60356 230.79339 Z" />
    <path d="M 637.60356 186.47772 A 3.5 2.51745 122.74791 0 1 632.86989 190.36847 A 3.5 2.51745 122.74791 0 1 636.65649 184.48106 A 3.5 2.51745 122.74791 0 1 637.60356 186.47772 Z" />
    <path d="M 637.60356 142.16204 A 3.5 2.51745 122.74791 0 1 632.86989 146.05279 A 3.5 2.51745 122.74791 0 1 636.65649 140.16538 A 3.5 2.51745 122.74791 0 1 637.60356 142.16204 Z" />
    <path d="M 637.60356 97.84636 A 3.5 2.51745 122.74791 0 1 632.86989 101.73711 A 3.5 2.51745 122.74791 0 1 636.65649 95.8497 A 3.5 2.51745 122.74791 0 1 637.60356 97.84636 Z" />
    <path d="M 637.60356 53.53068 A 3.5 2.51745 122.74791 0 1 632.86989 57.42143 A 3.5 2.51745 122.74791 0 1 636.65649 51.53402 A 3.5 2.51745 122.74791 0 1 637.60356 53.53068 Z" />
    <path d="M 637.60356 9.215 A 3.5 2.51745 122.74791 0 1 632.86989 13.10575 A 3.5 2.51745 122.74791 0 1 636.65649 7.21834 A 3.5 2.51745 122.74791 0 1 637.60356 9.215 Z" />
    <path d="M 637.60356 -35.10068 A 3.5 2.51745 122.74791 0 1 632.86989 -31.20993 A 3.5 2.51745 122.74791 0 1 636.65649 -37.09734 A 3.5 2.51745 122.74791 0 1 637.60356 -35.10068 Z" />
    <path d="M 637.60356 -79.41636 A 3.5 2.51745 122.74791 0 1 632.86989 -75.5256 A 3.5 2.51745 122.74791 1 1 636.65649 -81.41302 A 3.5 2.51745 122.74791 0 1 637.60356 -79.41636 Z" />
    <path d="M 637.60356 -123.73203 A 3.5 2.51745 122.74791 0 1 632.86989 -119.84128 A 3.5 2.51745 122.74791 0 1 636.65649 -125.72869 A 3.5 2.51745 122.74791 0 1 637.60356 -123.73203 Z" />
    <path d="M 637.60356 -168.04771 A 3.5 2.51745 122.74791 0 1 632.86989 -164.15696 A 3.5 2.51745 122.74791 0 1 636.65649 -170.04437 A 3.5 2.51745 122.74791 0 1 637.60356 -168.04771 Z" />
    <path d="M 588.66878 -373.9776 A 3.5 2.51745 122.74791 0 1 592.06679 -379.3478" />
    <path d="M 594.00935 -376.22612 A 3.5 2.51745 122.74791 0 1 589.37028 -373.1608 A 3.5 2.51745 122.74791 0 1 588.66878 -373.9776" />
    <path d="M 573.36037 -403.15254 A 3.5 2.51745 122.74791 0 1 573.39455 -406.14477" />
    <path d="M 576.18568 -402.46825 A 3.5 2.51745 122.74791 0 1 573.97496 -402.50138 A 3.5 2.51745 122.74791 0 1 573.36037 -403.15254" />
    <path d="M 634.94359 -202.79765 A 3.5 2.51745 122.74791 0 1 632.1315 -201.86004" />
    <path d="M 627.05385 -240.57609 A 3.5 2.51745 122.74791 0 1 631.75987 -244.88935 A 3.5 2.51745 122.74791 0 1 627.97327 -239.00194 A 3.5 2.51745 122.74791 0 1 627.05385 -240.57609 Z" />
    <path d="M 620.98986 -276.11382 A 3.5 2.51745 122.74791 0 1 625.66146 -280.62884 A 3.5 2.51745 122.74791 0 1 621.87485 -274.74143 A 3.5 2.51745 122.74791 0 1 620.98986 -276.11382 Z" />
    <path d="M 612.54168 -310.30313 A 3.5 2.51745 122.74791 0 1 617.16531 -315.01225 A 3.5 2.51745 122.74791 0 1 613.37871 -309.12484 A 3.5 2.51745 122.74791 0 1 612.54168 -310.30313 Z" />
    <path d="M 601.75046 -342.97745 A 3.5 2.51745 122.74791 0 1 606.31283 -347.87207 A 3.5 2.51745 122.74791 0 1 602.52622 -341.98466 A 3.5 2.51745 122.74791 0 1 601.75046 -342.97745 Z" />
    <path d="M -375.59469 -351.37557 L -375.59469 -362.01134" />
    <path d="M -375.59469 -351.37557 L -349.38184 -334.51626" />
    <path d="M -358.77948 -331.38286 A 250 179.81805 302.74791 0 0 -561.26224 -56.20489 L -554.25056 -51.69518 L -554.6509 -37.64868 L -554.6509 1336.13736 L -553.19013 1335.6503" />
    <path d="M -561.26224 -56.20489 L -561.66259 -42.15839 L -554.6509 -37.64868" />
    <path d="M -561.66259 -42.15839 L -561.66259 1331.62765 L -554.6509 1336.13736" />
    <path d="M -554.25056 -51.69518 A 250 179.81805 122.74791 0 1 -351.76779 -326.87315" />
    <path d="M -392.34441 218.44421 A 600 431.56333 122.74791 0 1 -176.56605 -295.21165" />
    <path d="M -159.45798 -312.88482 A 600 431.56333 122.74791 0 1 -108.58705 -359.45449" />
    <path d="M -392.34441 896.08733 L -392.34441 218.44421" />
    <path d="M -411.41543 623.64405 A 3.5 2.51745 122.74791 0 1 -406.68176 619.7533 A 3.5 2.51745 122.74791 1 1 -410.46836 625.64071 A 3.5 2.51745 122.74791 0 1 -411.41543 623.64405 Z" />
    <path d="M -411.41543 579.32837 A 3.5 2.51745 122.74791 0 1 -406.68176 575.43762 A 3.5 2.51745 122.74791 1 1 -410.46836 581.32503 A 3.5 2.51745 122.74791 0 1 -411.41543 579.32837 Z" />
    <path d="M -411.41543 535.01269 A 3.5 2.51745 122.74791 0 1 -406.68176 531.12194 A 3.5 2.51745 122.74791 1 1 -410.46836 537.00935 A 3.5 2.51745 122.74791 0 1 -411.41543 535.01269 Z" />
    <path d="M -411.41543 490.69701 A 3.5 2.51745 122.74791 0 1 -406.68176 486.80626 A 3.5 2.51745 122.74791 1 1 -410.46836 492.69367 A 3.5 2.51745 122.74791 0 1 -411.41543 490.69701 Z" />
    <path d="M -411.41543 446.38133 A 3.5 2.51745 122.74791 0 1 -406.68176 442.49058 A 3.5 2.51745 122.74791 1 1 -410.46836 448.37799 A 3.5 2.51745 122.74791 0 1 -411.41543 446.38133 Z" />
    <path d="M -411.41543 402.06565 A 3.5 2.51745 122.74791 0 1 -406.68176 398.1749 A 3.5 2.51745 122.74791 1 1 -410.46836 404.06232 A 3.5 2.51745 122.74791 0 1 -411.41543 402.06565 Z" />
    <path d="M -411.41543 357.74998 A 3.5 2.51745 122.74791 0 1 -406.68176 353.85923 A 3.5 2.51745 122.74791 1 1 -410.46836 359.74664 A 3.5 2.51745 122.74791 0 1 -411.41543 357.74998 Z" />
    <path d="M -411.41543 313.4343 A 3.5 2.51745 122.74791 0 1 -406.68176 309.54355 A 3.5 2.51745 122.74791 1 1 -410.46836 315.43096 A 3.5 2.51745 122.74791 0 1 -411.41543 313.4343 Z" />
    <path d="M -411.41543 269.11862 A 3.5 2.51745 122.74791 0 1 -406.68176 265.22787 A 3.5 2.51745 122.74791 1 1 -410.46836 271.11528 A 3.5 2.51745 122.74791 0 1 -411.41543 269.11862 Z" />
    <path d="M -411.41543 224.80294 A 3.5 2.51745 122.74791 0 1 -406.68176 220.91219 A 3.5 2.51745 122.74791 1 1 -410.46836 226.7996 A 3.5 2.51745 122.74791 0 1 -411.41543 224.80294 Z" />
    <path d="M -213.44639 -271.78345 A 3.5 2.51745 122.74791 0 1 -217.08839 -270.70117 A 3.5 2.51745 122.74791 0 1 -213.30179 -276.58858 A 3.5 2.51745 122.74791 0 1 -213.44639 -271.78345 Z" />
    <path d="M -240.19752 -238.34869 A 3.5 2.51745 122.74791 0 1 -243.99139 -237.0766 A 3.5 2.51745 122.74791 0 1 -240.20479 -242.96401 A 3.5 2.51745 122.74791 0 1 -240.19752 -238.34869 Z" />
    <path d="M -265.31767 -203.47944 A 3.5 2.51745 122.74791 0 1 -269.25416 -202.00938 A 3.5 2.51745 122.74791 0 1 -265.46755 -207.89679 A 3.5 2.51745 122.74791 0 1 -265.31767 -203.47944 Z" />
    <path d="M -288.68445 -167.34557 A 3.5 2.51745 122.74791 0 1 -292.7536 -165.67037 A 3.5 2.51745 122.74791 1 1 -288.96699 -171.55778 A 3.5 2.51745 122.74791 0 1 -288.68445 -167.34557 Z" />
    <path d="M -404.51597 184.3867 A 3.5 2.51745 122.74791 0 1 -409.24272 188.05875 A 3.5 2.51745 122.74791 1 1 -405.45611 182.17134 A 3.5 2.51745 122.74791 0 1 -404.51597 184.3867 Z" />
    <path d="M -394.80173 105.65803 A 3.5 2.51745 122.74791 0 1 -399.47333 108.88312 A 3.5 2.51745 122.74791 0 1 -395.68672 102.99571 A 3.5 2.51745 122.74791 0 1 -394.80173 105.65803 Z" />
    <path d="M -400.86572 145.23952 A 3.5 2.51745 122.74791 0 1 -405.57174 148.68932 A 3.5 2.51745 122.74791 0 1 -401.78514 142.80191 A 3.5 2.51745 122.74791 0 1 -400.86572 145.23952 Z" />
    <path d="M -362.48065 -13.759 A 3.5 2.51745 122.74791 0 1 -366.96875 -11.21186 A 3.5 2.51745 122.74791 0 1 -363.18215 -17.09927 A 3.5 2.51745 122.74791 0 1 -362.48065 -13.759 Z" />
    <path d="M -375.56233 25.96464 A 3.5 2.51745 122.74791 0 1 -380.1247 28.7373 A 3.5 2.51745 122.74791 0 1 -376.33809 22.84989 A 3.5 2.51745 122.74791 0 1 -375.56233 25.96464 Z" />
    <path d="M -386.35355 65.83506 A 3.5 2.51745 122.74791 0 1 -390.97718 68.83407 A 3.5 2.51745 122.74791 0 1 -387.19058 62.94666 A 3.5 2.51745 122.74791 0 1 -386.35355 65.83506 Z" />
    <path d="M -310.18404 -130.12313 A 3.5 2.51745 122.74791 0 1 -314.37524 -128.23661 A 3.5 2.51745 122.74791 0 1 -310.58864 -134.12402 A 3.5 2.51745 122.74791 0 1 -310.18404 -130.12313 Z" />
    <path d="M -329.71168 -91.99346 A 3.5 2.51745 122.74791 0 1 -334.01375 -89.89047 A 3.5 2.51745 122.74791 0 1 -330.22714 -95.77788 A 3.5 2.51745 122.74791 0 1 -329.71168 -91.99346 Z" />
    <path d="M -347.17224 -53.14232 A 3.5 2.51745 122.74791 0 1 -351.57343 -50.81877 A 3.5 2.51745 122.74791 0 1 -347.78683 -56.70618 A 3.5 2.51745 122.74791 0 1 -347.17224 -53.14232 Z" />
    <path d="M -76.38162 -414.90529 L 340.57167 -553.92749" />
    <path d="M 662.64775 -133.3154 A 600 431.56333 302.74791 0 0 657.28345 -210.2463" />
    <path d="M 653.63419 -232.15846 A 600 431.56333 302.74791 0 0 500.29454 -475.60008 A 600 431.56333 302.74791 0 0 378.89039 -521.99112" />
    <path d="M 662.64775 547.66713 L 662.64775 -133.3154 L 655.63606 -137.82511 A 600 431.56333 302.74791 0 0 651.16856 -208.20745" />
    <path d="M 824.95424 -497.64202 L 824.95424 -289.28066" />
    <path d="M 824.95424 -266.15175 L 824.95424 317.66492" />
    <path d="M 824.55389 -511.42156 L 824.95424 -497.64202" />
    <path d="M 622.07113 -651.57433 A 250 179.81805 122.74791 0 1 757.30707 -640.26063 A 250 179.81805 122.74791 0 1 824.55389 -511.42156" />
    <path d="M 681.71876 259.16697 A 3.5 2.51745 122.74791 0 1 676.9851 263.05772 A 3.5 2.51745 122.74791 0 1 680.7717 257.17031 A 3.5 2.51745 122.74791 0 1 681.71876 259.16697 Z" />
    <path d="M 681.71876 214.85129 A 3.5 2.51745 122.74791 0 1 676.9851 218.74204 A 3.5 2.51745 122.74791 0 1 680.7717 212.85463 A 3.5 2.51745 122.74791 0 1 681.71876 214.85129 Z" />
    <path d="M 681.71876 170.53561 A 3.5 2.51745 122.74791 0 1 676.9851 174.42637 A 3.5 2.51745 122.74791 0 1 680.7717 168.53895 A 3.5 2.51745 122.74791 0 1 681.71876 170.53561 Z" />
    <path d="M 681.71876 126.21994 A 3.5 2.51745 122.74791 0 1 676.9851 130.11069 A 3.5 2.51745 122.74791 0 1 680.7717 124.22328 A 3.5 2.51745 122.74791 0 1 681.71876 126.21994 Z" />
    <path d="M 681.71876 81.90426 A 3.5 2.51745 122.74791 0 1 676.9851 85.79501 A 3.5 2.51745 122.74791 0 1 680.7717 79.9076 A 3.5 2.51745 122.74791 0 1 681.71876 81.90426 Z" />
    <path d="M 681.71876 37.58858 A 3.5 2.51745 122.74791 0 1 676.9851 41.47933 A 3.5 2.51745 122.74791 0 1 680.7717 35.59192 A 3.5 2.51745 122.74791 0 1 681.71876 37.58858 Z" />
    <path d="M 681.71876 -6.7271 A 3.5 2.51745 122.74791 0 1 676.9851 -2.83635 A 3.5 2.51745 122.74791 0 1 680.7717 -8.72376 A 3.5 2.51745 122.74791 0 1 681.71876 -6.7271 Z" />
    <path d="M 681.71876 -51.04278 A 3.5 2.51745 122.74791 0 1 676.9851 -47.15203 A 3.5 2.51745 122.74791 1 1 680.7717 -53.03944 A 3.5 2.51745 122.74791 0 1 681.71876 -51.04278 Z" />
    <path d="M 681.71876 -95.35846 A 3.5 2.51745 122.74791 0 1 676.9851 -91.46771 A 3.5 2.51745 122.74791 0 1 680.7717 -97.35512 A 3.5 2.51745 122.74791 0 1 681.71876 -95.35846 Z" />
    <path d="M 681.71876 -139.67414 A 3.5 2.51745 122.74791 0 1 676.9851 -135.78339 A 3.5 2.51745 122.74791 0 1 680.7717 -141.6708 A 3.5 2.51745 122.74791 0 1 681.71876 -139.67414 Z" />
    <path d="M 483.74973 -504.24531 A 3.5 2.51745 122.74791 0 1 483.60512 -504.32915 A 3.5 2.51745 122.74791 1 1 487.39173 -510.21656 A 3.5 2.51745 122.74791 0 1 483.74973 -504.24531 Z" />
    <path d="M 510.50085 -488.64948 A 3.5 2.51745 122.74791 0 1 514.29473 -494.53219 A 3.5 2.51745 122.74791 0 1 510.50812 -488.64478 A 3.5 2.51745 122.74791 0 1 510.50085 -488.64948 Z" />
    <path d="M 535.621 -470.53154 A 3.5 2.51745 122.74791 0 1 539.55749 -476.31139 A 3.5 2.51745 122.74791 0 1 535.77089 -470.42398 A 3.5 2.51745 122.74791 0 1 535.621 -470.53154 Z" />
    <path d="M 558.98779 -449.97976 A 3.5 2.51745 122.74791 0 1 563.05694 -455.64294 A 3.5 2.51745 122.74791 0 1 559.27033 -449.75553 A 3.5 2.51745 122.74791 0 1 558.98779 -449.97976 Z" />
    <path d="M 674.81931 -175.48949 A 3.5 2.51745 122.74791 0 1 679.54605 -179.59432 A 3.5 2.51745 122.74791 1 1 675.75945 -173.70691 A 3.5 2.51745 122.74791 0 1 674.81931 -175.48949 Z" />
    <path d="M 665.10507 -247.74024 A 3.5 2.51745 122.74791 0 1 669.77666 -252.25526 A 3.5 2.51745 122.74791 0 1 665.99006 -246.36785 A 3.5 2.51745 122.74791 0 1 665.10507 -247.74024 Z" />
    <path d="M 671.16905 -212.20251 A 3.5 2.51745 122.74791 0 1 672.01859 -215.15935" />
    <path d="M 675.94496 -216.46849 A 3.5 2.51745 122.74791 0 1 672.08847 -210.62836 A 3.5 2.51745 122.74791 0 1 671.16905 -212.20251" />
    <path d="M 632.78398 -345.60402 A 3.5 2.51745 122.74791 0 1 637.27209 -350.67463 A 3.5 2.51745 122.74791 0 1 633.48548 -344.78722 A 3.5 2.51745 122.74791 0 1 632.78398 -345.60402 Z" />
    <path d="M 645.86567 -314.60388 A 3.5 2.51745 122.74791 0 1 650.42804 -319.49849 A 3.5 2.51745 122.74791 0 1 646.64143 -313.61108 A 3.5 2.51745 122.74791 0 1 645.86567 -314.60388 Z" />
    <path d="M 656.65688 -281.92955 A 3.5 2.51745 122.74791 0 1 661.28052 -286.63867 A 3.5 2.51745 122.74791 0 1 657.49391 -280.75126 A 3.5 2.51745 122.74791 0 1 656.65688 -281.92955 Z" />
    <path d="M 580.48738 -427.09427 A 3.5 2.51745 122.74791 0 1 584.67858 -432.62752 A 3.5 2.51745 122.74791 1 1 580.89198 -426.74011 A 3.5 2.51745 122.74791 0 1 580.48738 -427.09427 Z" />
    <path d="M 600.01502 -401.98657 A 3.5 2.51745 122.74791 0 1 604.31708 -407.37727 A 3.5 2.51745 122.74791 1 1 600.53048 -401.48986 A 3.5 2.51745 122.74791 0 1 600.01502 -401.98657 Z" />
    <path d="M 617.47558 -374.77897 A 3.5 2.51745 122.74791 0 1 621.87677 -380.01521 A 3.5 2.51745 122.74791 1 1 618.09016 -374.1278 A 3.5 2.51745 122.74791 0 1 617.47558 -374.77897 Z" />
    <path d="M 750.29538 -644.77034 A 250 179.81805 302.74791 0 0 615.05944 -656.08404" />
    <path d="M 655.63606 549.10228 L 655.63606 -137.82511" />
    <path d="M 647.80336 -230.21432 A 600 431.56333 302.74791 0 0 496.77356 -477.83139" />
    <path d="M -934.69225 -782.81566 L 78.26301 -131.31324 L 78.26301 -140.17638 A 200 92.61712 180 0 0 347.00907 -115.88174 L 357.43098 -119.13145 L 1022.23835 -340.79412 L 1041.65925 -348.16944 A 200 92.61712 180 0 0 1105.37687 -415.95591 L 1105.37687 -407.09278" />
    <path d="M -934.69225 -791.6788 L 78.26301 -140.17638" />
    <path d="M -972.38577 -836.93253 A 200 92.61712 180 0 0 -934.69225 -782.81566 L -934.69225 -791.6788" />
    <path d="M -908.66815 -913.58214 A 200 92.61712 180 0 0 -972.38577 -845.79566 L -972.38577 -836.93253" />
    <path d="M -972.38577 -845.79566 A 200 92.61712 180 0 0 -934.69225 -791.6788" />
    <path d="M 347.00907 -107.0186 L 347.00907 -115.88174" />
    <path d="M 78.26301 -131.31324 A 200 92.61712 180 0 0 347.00907 -107.0186 L 357.43098 -110.26831 L 357.43098 -119.13145" />
    <path d="M 357.43098 -110.26831 L 1022.23835 -331.93099 L 1022.23835 -340.79412" />
    <path d="M 1022.23835 -331.93099 L 1041.65925 -339.3063 L 1041.65925 -348.16944" />
    <path d="M 1041.65925 -339.3063 A 200 92.61712 180 0 0 1105.37687 -407.09278" />
    <path d="M 1080.11502 -411.52435 A 175 81.03998 180 0 0 1047.39505 -454.44503 L 1047.39505 -463.30817 L 34.43978 -1114.81059 A 175 81.03998 180 0 0 -200.71302 -1136.0684 L -209.83219 -1133.2249 L -874.63956 -911.56223 L -891.63285 -905.10883 A 175 81.03998 180 0 0 -947.38577 -845.79566 A 175 81.03998 180 0 0 -914.40394 -798.44341 L 98.55133 -146.94099 A 175 81.03998 180 0 0 333.70412 -125.68317 L 342.82329 -128.52667 L 1007.63066 -350.18935 L 1024.62396 -356.64275 A 175 81.03998 180 0 0 1080.37687 -415.95591 A 175 81.03998 180 0 0 1047.39505 -463.30817" />
    <path d="M 1047.39505 -454.44503 L 34.43978 -1105.94745 L 34.43978 -1114.81059" />
    <path d="M 34.43978 -1105.94745 A 175 81.03998 180 0 0 -200.71302 -1127.20527 L -200.71302 -1136.0684" />
    <path d="M -200.71302 -1127.20527 L -209.83219 -1124.36177 L -209.83219 -1133.2249" />
    <path d="M -209.83219 -1124.36177 L -874.63956 -902.69909 L -874.63956 -911.56223" />
    <path d="M -874.63956 -902.69909 L -891.63285 -896.24569 L -891.63285 -905.10883" />
    <path d="M -891.63285 -896.24569 A 175 81.03998 180 0 0 -947.12392 -841.36409" />
    <path d="M -889.24724 -920.95745 L -908.66815 -913.58214" />
    <path d="M -224.43987 -1142.62013 L -889.24724 -920.95745" />
    <path d="M -214.01796 -1145.86984 L -224.43987 -1142.62013" />
    <path d="M 54.72809 -1121.5752 A 200 92.61712 180 0 0 -214.01796 -1145.86984" />
    <path d="M 1105.37687 -415.95591 A 200 92.61712 180 0 0 1067.68336 -470.07278 L 54.72809 -1121.5752" />
    <path d="M 838.10115 308.4959 L 830.79731 303.79829" />
    <path d="M 838.10115 308.4959 L 838.10115 820.63536" />
    <path d="M 513.48818 992.83345 L 506.18434 988.13584 L 429.00302 731.04878" />
    <path d="M 778.92047 904.33198 L 513.48818 992.83345 L 436.30686 735.74639 A 100 71.92722 122.74791 0 1 478.93481 613.94857 L 511.85942 584.72308 L 685.91178 549.09801 A 100 71.92722 302.74791 0 0 767.19811 476.76121 L 838.10115 308.4959" />
    <path d="M 436.30686 735.74639 L 429.00302 731.04878" />
    <path d="M 471.63097 609.25096 A 100 71.92722 302.74791 0 0 429.00302 731.04878" />
    <path d="M 478.93481 613.94857 L 471.63097 609.25096 L 504.55558 580.02547 L 678.60794 544.4004 A 100 71.92722 302.74791 0 0 759.89426 472.0636 L 830.79731 303.79829" />
    <path d="M 511.85942 584.72308 L 504.55558 580.02547" />
    <path d="M 685.91178 549.09801 L 678.60794 544.4004" />
    <path d="M 767.19811 476.76121 L 759.89426 472.0636" />
    <path d="M 1188.68558 533.98128 L 1181.38174 529.28366" />
    <path d="M 1188.68558 533.98128 L 1188.68558 1110.0851 L 864.07261 1218.31883 L 786.89128 961.23177 A 100 71.92722 122.74791 0 1 829.51923 839.43395 L 862.44385 810.20846 L 1036.4962 774.58339 A 100 71.92722 302.74791 0 0 1117.78253 702.24659 L 1188.68558 533.98128 Z" />
    <path d="M 864.07261 1218.31883 L 856.76876 1213.62121 L 779.58744 956.53416" />
    <path d="M 786.89128 961.23177 L 779.58744 956.53416" />
    <path d="M 822.21539 834.73633 A 100 71.92722 302.74791 0 0 779.58744 956.53416" />
    <path d="M 829.51923 839.43395 L 822.21539 834.73633 L 855.14001 805.51084 L 1029.19236 769.88577 A 100 71.92722 302.74791 0 0 1110.47869 697.54898 L 1181.38174 529.28366" />
    <path d="M 862.44385 810.20846 L 855.14001 805.51084" />
    <path d="M 1036.4962 774.58339 L 1029.19236 769.88577" />
    <path d="M 1117.78253 702.24659 L 1110.47869 697.54898" />
    <path d="M 77.72619 -1106.78351 C 118.97 -1109.51 161.24 -1082.33 142.5695 -1065.07824" />
    <path d="M 160.10931 -1025.12059 C 118.97 -1109.51 161.24 -1082.33 163.87341 -989.71806 C 166.51 -897.11 208.77 -869.92 192.22545 -906.26864" />
    <path d="M 438.87878 -832.32984 C 586.42 -808.87 628.69 -781.68 468.90455 -826.51276" />
    <path d="M 545.1721 -806.13634 C 586.42 -808.87 628.69 -781.68 610.0154 -764.43107" />
    <path d="M 627.55521 -724.47341 C 586.42 -808.87 628.69 -781.68 631.1129 -694.55085" />
    <path d="M 819.56349 -546.58334 C 633.95 -596.46 676.22 -569.28 865.04226 -538.7473 C 1053.86 -508.22 1096.13 -481.03 936.35045 -525.86559" />
    <path d="M 1012.618 -505.48916 C 1053.86 -508.22 1096.13 -481.03 1078.63158 -462.22464" />
    <path d="M 1332.48816 -227.02121 L 1332.48816 -238.10013 L 1186.41232 -189.39495 L 984.40864 -319.31766" />
    <path d="M 1098.93361 -383.77336 C 1101.4 -295.81 1143.67 -268.63 1332.48816 -238.10013" />
    <path d="M 1186.41232 -178.31603 L 1186.41232 -189.39495" />
    <path d="M 1332.48816 -227.02121 L 1186.41232 -178.31603 L 973.06419 -315.53515" />
    <path d="M 949.38094 -330.7675 L 824.95424 -410.79502" />
    <path d="M 960.72539 -334.55001 L 824.95424 -421.87394" />
    <path d="M 469.35434 -650.58512 L 468.52674 -651.11741" />
    <path d="M 112.92684 -879.82859 L 112.09924 -880.36088" />
    <path d="M 112.09924 -470.65086 C 118.97 -489.09 161.24 -461.91 148.30256 -436.19392" />
    <path d="M 529.65506 -190.91944 C 586.42 -188.45 628.69 -161.26 529.80808 -190.87187" />
    <path d="M 562.61943 -178.68305 C 586.42 -188.45 628.69 -161.26 611.52085 -141.99174" />
    <path d="M 824.95424 74.82501 C 633.95 23.96 676.22 51.14 865.04226 81.6722 C 1053.86 112.2 1096.13 139.39 1098.76521 231.99579 C 1101.4 324.6 1143.67 351.79 1332.48816 382.31937 L 1186.41232 431.02455 L 824.95424 198.54556" />
    <path d="M 1332.48816 393.39829 L 1332.48816 382.31937" />
    <path d="M 1186.41232 442.10347 L 1186.41232 431.02455" />
    <path d="M 1332.48816 393.39829 L 1186.41232 442.10347 L 824.95424 209.62448" />
    <path d="M -193.1168 -478.52189 L -144.22615 -494.8232" />
    <path d="M -202.60571 986.45844 L -195.30186 991.15605" />
    <path d="M -195.30186 1567.25987 L -195.30186 991.15605" />
    <path d="M -202.60571 1562.56226 L -195.30186 1567.25987 L 129.31111 1459.02615 L 206.49243 1150.47089" />
    <path d="M -202.60571 986.45844 L -202.60571 1562.56226" />
    <path d="M 163.86448 1057.09943 A 100 71.92722 122.74791 0 1 183.40549 1064.71052 L 176.10164 1060.01291 A 100 71.92722 302.74791 0 0 156.56064 1052.40181 L 123.63602 1045.13203 L -50.41633 1125.5734 A 100 71.92722 122.74791 0 1 -110.93133 1127.33354" />
    <path d="M 183.40549 1064.71052 A 100 71.92722 122.74791 0 1 206.49243 1150.47089" />
    <path d="M 156.56064 1052.40181 L 163.86448 1057.09943 L 130.93987 1049.82964 L -43.11249 1130.27101 A 100 71.92722 122.74791 0 1 -107.37806 1129.83573 A 100 71.92722 122.74791 0 1 -124.39882 1112.13982 L -195.30186 991.15605" />
    <path d="M 123.63602 1045.13203 L 130.93987 1049.82964" />
    <path d="M -50.41633 1125.5734 L -43.11249 1130.27101" />
    <path d="M -553.19013 760.97306 L -545.88629 765.67067" />
    <path d="M -545.88629 1341.77449 L -545.88629 765.67067" />
    <path d="M -553.19013 1337.07688 L -545.88629 1341.77449 L -221.27332 1233.54077 L -202.60571 1158.91145" />
    <path d="M -553.19013 760.97306 L -553.19013 1337.07688" />
    <path d="M -171.01135 1032.60361 L -144.092 924.98551" />
    <path d="M -186.71995 831.61405 A 100 71.92722 122.74791 0 1 -167.17894 839.22514 L -174.48278 834.52753 A 100 71.92722 302.74791 0 0 -194.02379 826.91643 L -226.9484 819.64665 L -401.00076 900.08802 A 100 71.92722 122.74791 0 1 -461.51575 901.84816" />
    <path d="M -167.17894 839.22514 A 100 71.92722 122.74791 0 1 -144.092 924.98551" />
    <path d="M -194.02379 826.91643 L -186.71995 831.61405 L -219.64456 824.34426 L -393.69691 904.78563 A 100 71.92722 122.74791 0 1 -457.96249 904.35035 A 100 71.92722 122.74791 0 1 -474.98324 886.65444 L -545.88629 765.67067" />
    <path d="M -226.9484 819.64665 L -219.64456 824.34426" />
    <path d="M -401.00076 900.08802 L -393.69691 904.78563" />
    <path d="M -318.98712 -1332.50074 L -311.97543 -1327.99104" />
    <path d="M -363.10233 -1360.87432 L -356.09064 -1356.36461" />
    <path d="M 37.44038 -1103.25728 L 44.45207 -1098.74757" />
    <path d="M 349.75267 -902.38738 L 356.76436 -897.87768" />
    <path d="M 393.86788 -874.01381 L 400.87957 -869.5041" />
    <path d="M 706.18017 -673.14392 L 713.19186 -668.63421" />
    <path d="M 750.29538 -644.77034 L 757.30707 -640.26063" />
</svg>