<svg version="1.1" xmlns="http://www.w3.org/2000/svg" viewBox="-1446.5322885432747 -1279.9229149926653 2893.0645770865494 2925.2479227370613" fill="none" stroke="black" stroke-width="0.6%" vector-effect="non-scaling-stroke">
    <path d="M 631.53428 189.46209 L 629.57876 187.63965 L 91.92557 298.16743 L 95.92163 301.89155 L -38.49167 329.5235 L 0.02362 365.41768 L 1445.53229 68.25798 L 1321.25101 -47.56554" />
    <path d="M 631.53428 189.46209 L 631.53428 -175.94 L 1321.25101 -317.72816 L 1062.10182 -559.24136 L 372.3851 -417.4532 L 631.53428 -175.94" />
    <path d="M 372.3851 240.51211 L 372.3851 -417.4532" />
    <path d="M -556.79003 1035.4925 L -38.49167 1518.51889 L -38.49167 329.5235" />
    <path d="M -466.27602 1016.88513 L -556.79003 1035.4925" />
    <path d="M 91.92557 302.71304 L 91.92557 298.16743" />
    <path d="M 1321.25101 47.67393 L 631.53428 189.46209" />
    <path d="M -48.02627 -1220.69724 L 734.08662 -491.8098" />
    <path d="M -137.18257 -1202.36898 L -48.02627 -1220.69724" />
    <path d="M -179.69392 -1241.98728 L -137.18257 -1202.36898 L -137.18257 -1092.31677 L -48.02627 -1110.64503 L -47.94125 -1110.5658 L -47.94125 -571.0942 L -189.9505 -541.90072" />
    <path d="M -0.02362 -1278.92291 L -179.69392 -1241.98728 L -179.69392 -1088.31656" />
    <path d="M 824.60062 -510.41717 L -0.02362 -1278.92291" />
    <path d="M 1321.25101 47.67393 L 1321.25101 -317.72816" />
    <path d="M -466.27602 -172.11026 L -466.27602 1016.88513" />
    <path d="M -466.27602 -172.11026 L -1312.50693 -960.75227 L -1223.35064 -979.08053 L -1265.86199 -1018.69884 L -1445.53229 -981.76321 L -556.79003 -153.50289 L -466.27602 -172.11026 Z" />
    <path d="M -1223.35064 -877.66337 L -1223.35064 -979.08053" />
    <path d="M -1445.53229 297.14412 L -1445.53229 -981.76321" />
    <path d="M -179.69392 -544.00921 L -179.69392 -488.22152" />
    <path d="M -141.34868 -1096.19937 L -137.18257 -1092.31677" />
    <path d="M -137.18257 -552.74846 L -137.18257 -496.96077" />
    <path d="M -48.02627 -475.03421 L -48.02627 -571.07672" />
    <path d="M -48.02627 -1110.64503 L -48.02627 -1220.69724" />
    <path d="M -1445.53229 297.14412 L 0.02362 1644.32501 L 1445.53229 1347.1653 L 1445.53229 68.25798" />
    <path d="M 0.02362 1644.32501 L 0.02362 365.41768" />
    <path d="M -556.79003 -153.50289 L -556.79003 1035.4925" />
    <path d="M -935.12557 -928.18333 L -1215.67451 -870.50963" />
    <path d="M -930.87444 -924.2215 L -1211.42338 -866.5478" />
    <path d="M -930.87444 -924.2215 L -935.12557 -928.18333" />
    <path d="M -930.87444 -924.2215 A 600 488.29735 312.98257 0 0 -1081.12885 -745.12026" />
    <path d="M -425.23759 -1033.00329 L -47.94125 -1110.5658" />
    <path d="M -429.48872 -1036.96512 L -141.34868 -1096.19937" />
    <path d="M -429.48872 -1036.96512 L -425.23759 -1033.00329 A 600 488.29735 132.98257 0 1 -316.37306 -960.66663 A 600 488.29735 132.98257 0 1 -189.9505 -541.90072" />
    <path d="M -318.50587 -962.63978 A 600 488.29735 132.98257 0 1 -194.20164 -545.86255 L -189.9505 -541.90072" />
    <path d="M -426.72171 540.8666 L -426.72171 483.77252 L -38.49167 403.96232" />
    <path d="M -466.27602 504.00409 L -426.72171 540.8666 L -38.49167 461.0564" />
    <path d="M -466.27602 446.91001 L -426.72171 483.77252" />
    <path d="M 82.60271 304.62958 L -661.79897 -389.11302 L -692.37934 -382.82648" />
    <path d="M -658.17841 -385.73885 L -658.17841 -389.85732 L 86.22327 303.88529" />
    <path d="M 372.3851 -83.23326 L -83.41447 -508.01412 L -658.17841 -389.85732" />
</svg>