<svg version="1.1" xmlns="http://www.w3.org/2000/svg" viewBox="-1446.5172075003272 -1331.2422488536758 2893.0344150006545 2662.4844977073517" fill="none" stroke="black" stroke-width="0.6%" vector-effect="non-scaling-stroke">
    <path d="M -1445.51721 240.39047 L -1445.51721 -1089.85177 L 0 0 L 1445.51721 -240.39047 L 0 -1330.24225 L -179.67136 -1300.36278 L -137.16115 -1268.31209 L -137.16115 -539.92114" />
    <path d="M 0 1330.24225 L 0 0" />
    <path d="M -1445.51721 240.39047 L 0 1330.24225 L 1445.51721 1089.85177 L 1445.51721 -240.39047" />
    <path d="M -1265.84584 -1119.73124 L -1445.51721 -1089.85177" />
    <path d="M -179.67136 -1300.36278 L -179.67136 -532.85166" />
    <path d="M -1223.33563 -1087.68055 L -1265.84584 -1119.73124" />
    <path d="M -1312.49246 -1072.85371 L -1223.33563 -1087.68055" />
    <path d="M 48.00433 -47.10332 L -1312.49246 -1072.85371" />
    <path d="M 1312.49246 -257.38854 L 48.00433 -47.10332" />
    <path d="M -48.00433 -1283.13893 L 1312.49246 -257.38854" />
    <path d="M -137.16115 -1268.31209 L -48.00433 -1283.13893" />
    <path d="M -1223.33563 -1005.63367 L -1223.33563 -1087.68055" />
    <path d="M -48.00433 -522.18106 L -48.00433 -1283.13893" />
    <path d="M 485.59218 -119.87447 L -83.3934 -548.86275 L -520.98125 -476.0916" />
</svg>