<svg version="1.1" xmlns="http://www.w3.org/2000/svg" viewBox="-1462.3024282445815 -1507.643317212789 2749.101723402706 2758.493390537036" fill="none" stroke="black" stroke-width="0.6%" vector-effect="non-scaling-stroke">
    <path d="M 979.9559 257.92651 L 976.6426 255.14737" />
    <path d="M 976.6426 -525.84232 L 976.6426 -302.00209" />
    <path d="M 976.6426 -278.88308 L 976.6426 255.14737" />
    <path d="M 979.9559 257.92651 L 979.9559 768.05244" />
    <path d="M 904.78952 421.65754 L 979.9559 257.92651" />
    <path d="M 901.47622 418.8784 L 976.6426 255.14737" />
    <path d="M 904.78952 421.65754 L 901.47622 418.8784" />
    <path d="M 635.82426 923.30511 L 630.72687 919.02951 L 548.90471 666.21951" />
    <path d="M 858.79546 857.65063 L 635.82426 923.30511 L 554.0021 670.49511 A 100 74.65646 129.98932 0 1 599.19323 551.85516 L 634.09757 523.7117 L 818.61553 491.31912 A 100 74.65646 309.98932 0 0 904.78952 421.65754" />
    <path d="M 761.56032 -679.45234 A 250 186.64115 129.98932 0 1 837.07123 -687.87748" />
    <path d="M 896.19866 -671.33399 A 250 186.64115 129.98932 0 1 922.22152 -654.05183 A 250 186.64115 129.98932 0 1 943.76838 -631.43337" />
    <path d="M 970.34855 -576.08687 A 250 186.64115 129.98932 0 1 976.21818 -539.33922 L 976.6426 -525.84232" />
    <path d="M 815.30222 488.53998 A 100 74.65646 309.98932 0 0 901.47622 418.8784" />
    <path d="M 804.57678 490.42286 L 815.30222 488.53998" />
    <path d="M 804.57678 490.42286 L 804.57678 -171.45886 A 600 447.93877 309.98932 0 0 801.50038 -227.31198" />
    <path d="M 798.46581 -249.53745 A 600 447.93877 309.98932 0 0 673.96618 -479.16169 A 600 447.93877 309.98932 0 0 503.75736 -556.05556" />
    <path d="M 469.47859 -593.44808 A 57.5 42.92747 309.98932 0 0 481.99544 -563.9599 A 57.5 42.92747 309.98932 0 0 503.75736 -556.05556" />
    <path d="M 761.56032 -679.45234 L 469.47859 -593.44808 L 464.3812 -597.72368 A 57.5 42.92747 309.98932 0 0 465.13506 -589.26799 A 57.5 42.92747 309.98932 0 0 476.89805 -568.23549 L 481.99544 -563.9599" />
    <path d="M 824.79451 213.08282 A 3.5 2.61298 129.98932 0 1 819.5341 216.65103 A 3.5 2.61298 129.98932 0 1 824.03262 211.28788 A 3.5 2.61298 129.98932 0 1 824.79451 213.08282 Z" />
    <path d="M 824.79451 169.6945 A 3.5 2.61298 129.98932 0 1 819.5341 173.26272 A 3.5 2.61298 129.98932 0 1 824.03262 167.89957 A 3.5 2.61298 129.98932 0 1 824.79451 169.6945 Z" />
    <path d="M 824.79451 126.30619 A 3.5 2.61298 129.98932 0 1 819.5341 129.8744 A 3.5 2.61298 129.98932 0 1 824.03262 124.51125 A 3.5 2.61298 129.98932 0 1 824.79451 126.30619 Z" />
    <path d="M 824.79451 82.91787 A 3.5 2.61298 129.98932 0 1 819.5341 86.48609 A 3.5 2.61298 129.98932 0 1 824.03262 81.12294 A 3.5 2.61298 129.98932 0 1 824.79451 82.91787 Z" />
    <path d="M 824.79451 39.52955 A 3.5 2.61298 129.98932 0 1 819.5341 43.09777 A 3.5 2.61298 129.98932 0 1 824.03262 37.73462 A 3.5 2.61298 129.98932 0 1 824.79451 39.52955 Z" />
    <path d="M 824.79451 -3.85876 A 3.5 2.61298 129.98932 0 1 819.5341 -0.29055 A 3.5 2.61298 129.98932 0 1 824.03262 -5.6537 A 3.5 2.61298 129.98932 0 1 824.79451 -3.85876 Z" />
    <path d="M 824.79451 -47.24708 A 3.5 2.61298 129.98932 0 1 819.5341 -43.67886 A 3.5 2.61298 129.98932 0 1 824.03262 -49.04201 A 3.5 2.61298 129.98932 0 1 824.79451 -47.24708 Z" />
    <path d="M 824.79451 -90.63539 A 3.5 2.61298 129.98932 0 1 819.5341 -87.06718 A 3.5 2.61298 129.98932 0 1 824.03262 -92.43033 A 3.5 2.61298 129.98932 0 1 824.79451 -90.63539 Z" />
    <path d="M 824.79451 -134.02371 A 3.5 2.61298 129.98932 0 1 819.5341 -130.45549 A 3.5 2.61298 129.98932 0 1 824.03262 -135.81864 A 3.5 2.61298 129.98932 0 1 824.79451 -134.02371 Z" />
    <path d="M 824.79451 -177.41203 A 3.5 2.61298 129.98932 0 1 819.5341 -173.84381 A 3.5 2.61298 129.98932 0 1 824.03262 -179.20696 A 3.5 2.61298 129.98932 0 1 824.79451 -177.41203 Z" />
    <path d="M 614.92179 -537.1828 A 3.5 2.61298 129.98932 0 1 614.52638 -537.44043 A 3.5 2.61298 129.98932 1 1 619.02489 -542.80358 A 3.5 2.61298 129.98932 0 1 614.92179 -537.1828 Z" />
    <path d="M 643.28143 -521.53109 A 3.5 2.61298 129.98932 0 1 643.04703 -521.69986 A 3.5 2.61298 129.98932 1 1 647.54554 -527.06301 A 3.5 2.61298 129.98932 0 1 643.28143 -521.53109 Z" />
    <path d="M 669.91203 -503.43336 A 3.5 2.61298 129.98932 0 1 669.82882 -503.49939 A 3.5 2.61298 129.98932 0 1 674.32733 -508.86254 A 3.5 2.61298 129.98932 0 1 669.91203 -503.43336 Z" />
    <path d="M 694.68384 -482.97778 A 3.5 2.61298 129.98932 0 1 699.23978 -488.29082 A 3.5 2.61298 129.98932 0 1 694.74126 -482.92767 A 3.5 2.61298 129.98932 0 1 694.68384 -482.97778 Z" />
    <path d="M 817.4802 -212.57648 A 3.5 2.61298 129.98932 0 1 822.73327 -216.3544 A 3.5 2.61298 129.98932 0 1 818.23476 -210.99125 A 3.5 2.61298 129.98932 0 1 817.4802 -212.57648 Z" />
    <path d="M 807.18185 -283.4541 A 3.5 2.61298 129.98932 0 1 812.37646 -287.6344 A 3.5 2.61298 129.98932 1 1 807.87795 -282.27125 A 3.5 2.61298 129.98932 0 1 807.18185 -283.4541 Z" />
    <path d="M 772.91733 -379.73178 A 3.5 2.61298 129.98932 0 1 777.91741 -384.45868 A 3.5 2.61298 129.98932 1 1 773.4189 -379.09553 A 3.5 2.61298 129.98932 0 1 772.91733 -379.73178 Z" />
    <path d="M 786.7856 -349.19343 A 3.5 2.61298 129.98932 0 1 791.86442 -353.74695 A 3.5 2.61298 129.98932 1 1 787.3659 -348.3838 A 3.5 2.61298 129.98932 0 1 786.7856 -349.19343 Z" />
    <path d="M 798.22569 -317.04867 A 3.5 2.61298 129.98932 0 1 803.36945 -321.4197 A 3.5 2.61298 129.98932 1 1 798.87094 -316.05655 A 3.5 2.61298 129.98932 0 1 798.22569 -317.04867 Z" />
    <path d="M 717.47618 -460.26399 A 3.5 2.61298 129.98932 0 1 722.16151 -465.44809 A 3.5 2.61298 129.98932 0 1 717.663 -460.08494 A 3.5 2.61298 129.98932 0 1 717.47618 -460.26399 Z" />
    <path d="M 738.178 -435.40267 A 3.5 2.61298 129.98932 0 1 742.98086 -440.44562 A 3.5 2.61298 129.98932 0 1 738.48234 -435.08247 A 3.5 2.61298 129.98932 0 1 738.178 -435.40267 Z" />
    <path d="M 756.68844 -408.51494 A 3.5 2.61298 129.98932 0 1 761.59639 -413.40524 A 3.5 2.61298 129.98932 0 1 757.09788 -408.04209 A 3.5 2.61298 129.98932 0 1 756.68844 -408.51494 Z" />
    <path d="M 818.61553 491.31912 L 815.30222 488.53998" />
    <path d="M 734.95471 -677.39478 L 756.46293 -683.72794" />
    <path d="M 917.12413 -658.32743 A 250 186.64115 309.98932 0 0 891.10127 -675.60959" />
    <path d="M 831.97384 -692.15308 A 250 186.64115 309.98932 0 0 756.46293 -683.72794" />
    <path d="M 799.47939 489.50806 L 799.47939 -175.73446 A 600 447.93877 309.98932 0 0 796.99875 -225.98646" />
    <path d="M 794.2247 -248.28864 A 600 447.93877 309.98932 0 0 671.40685 -481.28681" />
    <path d="M 554.0021 670.49511 L 548.90471 666.21951" />
    <path d="M 629.00018 519.4361 L 802.79269 488.9264" />
    <path d="M 594.09584 547.57956 L 629.00018 519.4361" />
    <path d="M 594.09584 547.57956 A 100 74.65646 309.98932 0 0 548.90471 666.21951" />
    <path d="M 599.19323 551.85516 L 594.09584 547.57956" />
    <path d="M 634.09757 523.7117 L 629.00018 519.4361" />
    <path d="M 804.57678 490.42286 L 802.79269 488.9264" />
    <path d="M 761.56032 -679.45234 L 756.46293 -683.72794" />
    <path d="M 804.57678 -171.45886 L 799.47939 -175.73446" />
    <path d="M -286.79219 -413.21966 L -254.42376 -386.06961" />
    <path d="M -275.93199 -379.73646 L -254.42376 -386.06961" />
    <path d="M -275.93199 -379.73646 L -270.8346 -375.46086" />
    <path d="M 21.24713 -461.46512 L -173.35382 -404.16434" />
    <path d="M -202.51948 -395.57643 L -270.8346 -375.46086" />
    <path d="M 16.14974 -465.74071 L 21.24713 -461.46512 A 57.5 42.92747 129.98932 0 1 -13.03164 -403.88565" />
    <path d="M 16.14974 -465.74071 L 464.3812 -597.72368" />
    <path d="M 734.95471 -677.39478 L 702.58628 -704.54483" />
    <path d="M 724.09451 -710.87799 L 702.58628 -704.54483" />
    <path d="M 724.09451 -710.87799 L 718.99712 -715.15359" />
    <path d="M 426.91539 -629.14933 L 718.99712 -715.15359" />
    <path d="M 432.01278 -624.87373 L 426.91539 -629.14933 A 57.5 42.92747 309.98932 0 0 427.24802 -623.47074" />
    <path d="M 432.01278 -624.87373 L -16.21869 -492.89077" />
    <path d="M -21.31608 -497.16636 L -16.21869 -492.89077" />
    <path d="M -313.39781 -411.16211 L -245.08268 -431.27768" />
    <path d="M -215.91703 -439.86559 L -21.31608 -497.16636" />
    <path d="M -313.39781 -411.16211 L -308.30042 -406.88651" />
    <path d="M -286.79219 -413.21966 L -308.30042 -406.88651" />
    <path d="M -286.79219 -404.542 L -262.08119 -383.81486" />
    <path d="M 21.16344 -458.53935 L 465.13506 -589.26799" />
    <path d="M -286.79219 -404.542 L -286.79219 -413.21966" />
    <path d="M -275.93199 -379.73646 A 250 186.64115 309.98932 0 0 -490.58985 -113.21016 L -485.49246 -108.93457 L -485.91688 -95.18772 L -485.91688 1249.85007 L -313.85106 1199.18483 L -313.85106 157.86524 A 600 447.93877 129.98932 0 1 -109.32215 -317.4042" />
    <path d="M -490.58985 -113.21016 L -491.01427 -99.46332 L -485.91688 -95.18772" />
    <path d="M -491.01427 -99.46332 L -491.01427 1245.57447 L -485.91688 1249.85007" />
    <path d="M -485.49246 -108.93457 A 250 186.64115 129.98932 0 1 -270.8346 -375.46086" />
    <path d="M -91.59122 -335.58334 A 600 447.93877 129.98932 0 1 -13.03164 -403.88565" />
    <path d="M -334.06879 554.31325 A 3.5 2.61298 129.98932 0 1 -328.80838 550.74504 A 3.5 2.61298 129.98932 0 1 -333.30689 556.10819 A 3.5 2.61298 129.98932 0 1 -334.06879 554.31325 Z" />
    <path d="M -334.06879 510.92494 A 3.5 2.61298 129.98932 0 1 -328.80838 507.35672 A 3.5 2.61298 129.98932 0 1 -333.30689 512.71987 A 3.5 2.61298 129.98932 0 1 -334.06879 510.92494 Z" />
    <path d="M -334.06879 467.53662 A 3.5 2.61298 129.98932 0 1 -328.80838 463.9684 A 3.5 2.61298 129.98932 0 1 -333.30689 469.33155 A 3.5 2.61298 129.98932 0 1 -334.06879 467.53662 Z" />
    <path d="M -334.06879 424.14831 A 3.5 2.61298 129.98932 0 1 -328.80838 420.58009 A 3.5 2.61298 129.98932 0 1 -333.30689 425.94324 A 3.5 2.61298 129.98932 0 1 -334.06879 424.14831 Z" />
    <path d="M -334.06879 380.75999 A 3.5 2.61298 129.98932 0 1 -328.80838 377.19177 A 3.5 2.61298 129.98932 0 1 -333.30689 382.55492 A 3.5 2.61298 129.98932 0 1 -334.06879 380.75999 Z" />
    <path d="M -334.06879 337.37167 A 3.5 2.61298 129.98932 0 1 -328.80838 333.80346 A 3.5 2.61298 129.98932 0 1 -333.30689 339.16661 A 3.5 2.61298 129.98932 0 1 -334.06879 337.37167 Z" />
    <path d="M -334.06879 293.98336 A 3.5 2.61298 129.98932 0 1 -328.80838 290.41514 A 3.5 2.61298 129.98932 0 1 -333.30689 295.77829 A 3.5 2.61298 129.98932 0 1 -334.06879 293.98336 Z" />
    <path d="M -334.06879 250.59504 A 3.5 2.61298 129.98932 0 1 -328.80838 247.02683 A 3.5 2.61298 129.98932 0 1 -333.30689 252.38998 A 3.5 2.61298 129.98932 0 1 -334.06879 250.59504 Z" />
    <path d="M -334.06879 207.20673 A 3.5 2.61298 129.98932 0 1 -328.80838 203.63851 A 3.5 2.61298 129.98932 0 1 -333.30689 209.00166 A 3.5 2.61298 129.98932 0 1 -334.06879 207.20673 Z" />
    <path d="M -334.06879 163.81841 A 3.5 2.61298 129.98932 0 1 -328.80838 160.25019 A 3.5 2.61298 129.98932 0 1 -333.30689 165.61334 A 3.5 2.61298 129.98932 0 1 -334.06879 163.81841 Z" />
    <path d="M -124.19606 -319.54755 A 3.5 2.61298 129.98932 0 1 -128.29917 -318.71343 A 3.5 2.61298 129.98932 0 1 -123.80066 -324.07658 A 3.5 2.61298 129.98932 0 1 -124.19606 -319.54755 Z" />
    <path d="M -152.55571 -287.19469 A 3.5 2.61298 129.98932 0 1 -156.81982 -286.1769 A 3.5 2.61298 129.98932 0 1 -152.32131 -291.54005 A 3.5 2.61298 129.98932 0 1 -152.55571 -287.19469 Z" />
    <path d="M -179.18631 -253.41406 A 3.5 2.61298 129.98932 0 1 -183.60161 -252.20449 A 3.5 2.61298 129.98932 0 1 -179.1031 -257.56764 A 3.5 2.61298 129.98932 0 1 -179.18631 -253.41406 Z" />
    <path d="M -203.95812 -218.37022 A 3.5 2.61298 129.98932 0 1 -208.51405 -216.9617 A 3.5 2.61298 129.98932 0 1 -204.01554 -222.32485 A 3.5 2.61298 129.98932 0 1 -203.95812 -218.37022 Z" />
    <path d="M -326.75448 124.34652 A 3.5 2.61298 129.98932 0 1 -332.00755 127.70071 A 3.5 2.61298 129.98932 0 1 -327.50904 122.33756 A 3.5 2.61298 129.98932 0 1 -326.75448 124.34652 Z" />
    <path d="M -316.45613 47.40415 A 3.5 2.61298 129.98932 0 1 -321.65074 50.32152 A 3.5 2.61298 129.98932 0 1 -317.15222 44.95837 A 3.5 2.61298 129.98932 0 1 -316.45613 47.40415 Z" />
    <path d="M -322.88474 86.0707 A 3.5 2.61298 129.98932 0 1 -328.11584 89.20759 A 3.5 2.61298 129.98932 0 1 -323.61733 83.84444 A 3.5 2.61298 129.98932 0 1 -322.88474 86.0707 Z" />
    <path d="M -282.19161 -69.0521 A 3.5 2.61298 129.98932 0 1 -287.19169 -66.79587 A 3.5 2.61298 129.98932 1 1 -282.69318 -72.15902 A 3.5 2.61298 129.98932 0 1 -282.19161 -69.0521 Z" />
    <path d="M -296.05988 -30.34665 A 3.5 2.61298 129.98932 0 1 -301.13869 -27.87068 A 3.5 2.61298 129.98932 0 1 -296.64018 -33.23383 A 3.5 2.61298 129.98932 0 1 -296.05988 -30.34665 Z" />
    <path d="M -307.49996 8.53524 A 3.5 2.61298 129.98932 0 1 -312.64373 11.23195 A 3.5 2.61298 129.98932 1 1 -308.14521 5.8688 A 3.5 2.61298 129.98932 0 1 -307.49996 8.53524 Z" />
    <path d="M -226.75046 -182.2339 A 3.5 2.61298 129.98932 0 1 -231.43579 -180.62023 A 3.5 2.61298 129.98932 0 1 -226.93727 -185.98338 A 3.5 2.61298 129.98932 0 1 -226.75046 -182.2339 Z" />
    <path d="M -247.45228 -145.18117 A 3.5 2.61298 129.98932 0 1 -252.25513 -143.35714 A 3.5 2.61298 129.98932 0 1 -247.75662 -148.72029 A 3.5 2.61298 129.98932 0 1 -247.45228 -145.18117 Z" />
    <path d="M -265.96272 -107.39253 A 3.5 2.61298 129.98932 0 1 -270.87067 -105.35397 A 3.5 2.61298 129.98932 0 1 -266.37215 -110.71712 A 3.5 2.61298 129.98932 0 1 -265.96272 -107.39253 Z" />
    <path d="M 724.09451 -710.87799 A 250 186.64115 129.98932 0 1 799.60541 -719.30313" />
    <path d="M 858.73284 -702.75964 A 250 186.64115 129.98932 0 1 884.7557 -685.47748 A 250 186.64115 129.98932 0 1 899.90762 -670.67175" />
    <path d="M 465.49726 -587.51333 A 57.5 42.92747 129.98932 0 1 460.8691 -588.01187" />
    <path d="M 767.11096 -202.88451 A 600 447.93877 309.98932 0 0 766.91619 -217.12857" />
    <path d="M 765.77604 -239.91186 A 600 447.93877 309.98932 0 0 654.65843 -494.18919" />
    <path d="M 767.11096 495.19041 L 767.11096 353.87865" />
    <path d="M 767.11096 275.34653 L 767.11096 -202.88451 L 762.01357 -207.16011 A 600 447.93877 309.98932 0 0 761.94438 -215.66461" />
    <path d="M 787.3287 181.65717 A 3.5 2.61298 129.98932 0 1 782.06829 185.22538 A 3.5 2.61298 129.98932 0 1 786.5668 179.86223 A 3.5 2.61298 129.98932 0 1 787.3287 181.65717 Z" />
    <path d="M 787.3287 138.26885 A 3.5 2.61298 129.98932 0 1 782.06829 141.83707 A 3.5 2.61298 129.98932 0 1 786.5668 136.47392 A 3.5 2.61298 129.98932 0 1 787.3287 138.26885 Z" />
    <path d="M 787.3287 94.88054 A 3.5 2.61298 129.98932 0 1 782.06829 98.44875 A 3.5 2.61298 129.98932 0 1 786.5668 93.0856 A 3.5 2.61298 129.98932 0 1 787.3287 94.88054 Z" />
    <path d="M 787.3287 51.49222 A 3.5 2.61298 129.98932 0 1 782.06829 55.06044 A 3.5 2.61298 129.98932 0 1 786.5668 49.69729 A 3.5 2.61298 129.98932 0 1 787.3287 51.49222 Z" />
    <path d="M 787.3287 8.1039 A 3.5 2.61298 129.98932 0 1 782.06829 11.67212 A 3.5 2.61298 129.98932 0 1 786.5668 6.30897 A 3.5 2.61298 129.98932 0 1 787.3287 8.1039 Z" />
    <path d="M 787.3287 -35.28441 A 3.5 2.61298 129.98932 0 1 782.06829 -31.7162 A 3.5 2.61298 129.98932 0 1 786.5668 -37.07935 A 3.5 2.61298 129.98932 0 1 787.3287 -35.28441 Z" />
    <path d="M 787.3287 -78.67273 A 3.5 2.61298 129.98932 0 1 782.06829 -75.10451 A 3.5 2.61298 129.98932 0 1 786.5668 -80.46766 A 3.5 2.61298 129.98932 0 1 787.3287 -78.67273 Z" />
    <path d="M 787.3287 -122.06104 A 3.5 2.61298 129.98932 0 1 782.06829 -118.49283 A 3.5 2.61298 129.98932 0 1 786.5668 -123.85598 A 3.5 2.61298 129.98932 0 1 787.3287 -122.06104 Z" />
    <path d="M 787.3287 -165.44936 A 3.5 2.61298 129.98932 0 1 782.06829 -161.88114 A 3.5 2.61298 129.98932 0 1 786.5668 -167.24429 A 3.5 2.61298 129.98932 0 1 787.3287 -165.44936 Z" />
    <path d="M 787.3287 -208.83768 A 3.5 2.61298 129.98932 0 1 782.06829 -205.26946 A 3.5 2.61298 129.98932 0 1 786.5668 -210.63261 A 3.5 2.61298 129.98932 0 1 787.3287 -208.83768 Z" />
    <path d="M 769.71604 -314.87975 A 3.5 2.61298 129.98932 0 1 774.91064 -319.06005 A 3.5 2.61298 129.98932 1 1 770.41213 -313.6969 A 3.5 2.61298 129.98932 0 1 769.71604 -314.87975 Z" />
    <path d="M 780.00901 -244.1028 A 3.5 2.61298 129.98932 0 1 785.26746 -247.78005 A 3.5 2.61298 129.98932 0 1 786.02739 -245.87492" />
    <path d="M 776.14465 -279.99904 A 3.5 2.61298 129.98932 0 1 781.37575 -283.98132 A 3.5 2.61298 129.98932 0 1 776.87724 -278.61817 A 3.5 2.61298 129.98932 0 1 776.14465 -279.99904 Z" />
    <path d="M 760.75987 -348.47432 A 3.5 2.61298 129.98932 0 1 764.72414 -353.31782" />
    <path d="M 766.32774 -349.55328 A 3.5 2.61298 129.98932 0 1 761.40512 -347.4822 A 3.5 2.61298 129.98932 0 1 760.75987 -348.47432" />
    <path d="M 749.31979 -380.61908 A 3.5 2.61298 129.98932 0 1 749.88133 -383.82103" />
    <path d="M 752.21054 -379.47249 A 3.5 2.61298 129.98932 0 1 749.90009 -379.80945 A 3.5 2.61298 129.98932 0 1 749.31979 -380.61908" />
    <path d="M 879.65831 -689.75308 A 250 186.64115 309.98932 0 0 853.63545 -707.03524" />
    <path d="M 794.50802 -723.57873 A 250 186.64115 309.98932 0 0 718.99712 -715.15359" />
    <path d="M 761.05933 -238.52301 A 600 447.93877 309.98932 0 0 651.94252 -496.12763" />
    <path d="M 762.01357 496.08527 L 762.01357 355.37959" />
    <path d="M 762.01357 271.07093 L 762.01357 -207.16011" />
    <path d="M -528.48008 -130.88897 L -528.48008 1214.14882 L -523.38269 1218.42442 L -491.01427 1208.89345" />
    <path d="M -528.05567 -144.63581 L -528.48008 -130.88897 L -523.38269 -126.61337 L -523.38269 1218.42442" />
    <path d="M -313.39781 -411.16211 A 250 186.64115 309.98932 0 0 -528.05567 -144.63581 L -522.95828 -140.36022 L -523.38269 -126.61337" />
    <path d="M -522.95828 -140.36022 A 250 186.64115 129.98932 0 1 -308.30042 -406.88651" />
    <path d="M 762.01357 -39.34833 L 644.19359 -138.1736" />
    <path d="M 515.14422 -91.497 L 762.01357 115.57255" />
    <path d="M 515.14422 -91.497 L 515.14422 -100.17467 L 644.19359 -138.1736" />
    <path d="M 515.14422 -100.17467 L 762.01357 106.89489" />
    <path d="M 761.98179 -212.92825 L 759.55743 -214.96176" />
    <path d="M 739.15652 -232.07367 L 644.19359 -311.72687" />
    <path d="M 515.14422 -265.05027 L 602.44973 -191.81999" />
    <path d="M 622.85063 -174.70808 L 762.01357 -57.98071" />
    <path d="M 515.14422 -265.05027 L 515.14422 -273.72793 L 644.19359 -311.72687" />
    <path d="M 515.14422 -273.72793 L 610.10716 -194.07474" />
    <path d="M 630.50806 -176.96283 L 762.01357 -66.65838" />
    <path d="M 696.97381 -441.00903 L 644.19359 -485.28013" />
    <path d="M 515.14422 -438.60353 L 755.5983 -236.915" />
    <path d="M 515.14422 -438.60353 L 515.14422 -447.2812 L 644.19359 -485.28013" />
    <path d="M 515.14422 -447.2812 L 760.89066 -241.15352" />
    <path d="M -775.34943 279.81468 L -646.30007 241.81575" />
    <path d="M -775.34943 279.81468 L -528.48008 486.88424" />
    <path d="M -528.48008 340.64102 L -646.30007 241.81575" />
    <path d="M -775.34943 288.49235 L -775.34943 279.81468" />
    <path d="M -775.34943 288.49235 L -528.48008 495.5619" />
    <path d="M -775.34943 106.26142 L -646.30007 68.26248" />
    <path d="M -775.34943 106.26142 L -528.48008 313.33097" />
    <path d="M -528.48008 167.08776 L -646.30007 68.26248" />
    <path d="M -775.34943 114.93908 L -775.34943 106.26142" />
    <path d="M -775.34943 114.93908 L -528.48008 322.00864" />
    <path d="M -775.34943 -67.29184 L -646.30007 -105.29078" />
    <path d="M -775.34943 -67.29184 L -528.48008 139.77771" />
    <path d="M -528.48008 -6.4655 L -646.30007 -105.29078" />
    <path d="M -775.34943 -58.61418 L -775.34943 -67.29184" />
    <path d="M -775.34943 -58.61418 L -528.48008 148.45537" />
    <path d="M -775.34943 -240.84511 L -646.30007 -278.84404" />
    <path d="M -775.34943 -240.84511 L -528.48008 -33.77555" />
    <path d="M -523.99918 -176.26027 L -646.30007 -278.84404" />
    <path d="M -775.34943 -232.16745 L -775.34943 -240.84511" />
    <path d="M -775.34943 -232.16745 L -528.48008 -25.09789" />
    <path d="M 450.61954 -940.26386 L 158.53781 -854.2596 L 153.44042 -858.5352 A 57.5 42.92747 309.98932 0 0 154.19428 -850.07951 A 57.5 42.92747 309.98932 0 0 165.95727 -829.04701 L 171.05466 -824.77141 A 57.5 42.92747 309.98932 0 0 192.81658 -816.86708" />
    <path d="M 158.53781 -854.2596 A 57.5 42.92747 309.98932 0 0 171.05466 -824.77141" />
    <path d="M 493.636 -432.27038 A 600 447.93877 309.98932 0 0 472.90769 -572.22938" />
    <path d="M 446.88173 -635.02848 A 600 447.93877 309.98932 0 0 363.0254 -739.9732 A 600 447.93877 309.98932 0 0 192.81658 -816.86708" />
    <path d="M 493.636 609.04921 L 493.636 434.40409" />
    <path d="M 493.636 45.96067 L 493.636 -136.66048" />
    <path d="M 493.636 -159.77949 L 493.636 -432.27038 L 488.53861 -436.54597 A 600 447.93877 309.98932 0 0 464.11764 -587.60536" />
    <path d="M 558.16986 590.04703 L 493.636 609.04921 L 488.53861 604.77361 L 488.53861 435.90503" />
    <path d="M 665.70182 -786.65383 L 665.70182 -699.46064" />
    <path d="M 665.70182 -481.65606 L 665.70182 -467.23942" />
    <path d="M 665.70182 -312.31854 L 665.70182 -293.68615" />
    <path d="M 665.70182 -138.76528 L 665.70182 -120.13289" />
    <path d="M 665.70182 34.78799 L 665.70182 190.28637" />
    <path d="M 665.70182 383.73885 L 665.70182 512.99304" />
    <path d="M 665.2774 -800.15074 L 665.70182 -786.65383" />
    <path d="M 450.61954 -940.26386 A 250 186.64115 129.98932 0 1 526.13045 -948.689" />
    <path d="M 585.25788 -932.14551 A 250 186.64115 129.98932 0 1 611.28073 -914.86335 A 250 186.64115 129.98932 0 1 632.8276 -892.24488" />
    <path d="M 659.40777 -836.89839 A 250 186.64115 129.98932 0 1 665.2774 -800.15074" />
    <path d="M 513.85373 -47.7287 A 3.5 2.61298 129.98932 0 1 508.59332 -44.16048 A 3.5 2.61298 129.98932 0 1 513.09184 -49.52363 A 3.5 2.61298 129.98932 0 1 513.85373 -47.7287 Z" />
    <path d="M 513.85373 -91.11702 A 3.5 2.61298 129.98932 0 1 508.59332 -87.5488 A 3.5 2.61298 129.98932 0 1 513.09184 -92.91195 A 3.5 2.61298 129.98932 0 1 513.85373 -91.11702 Z" />
    <path d="M 513.85373 -134.50533 A 3.5 2.61298 129.98932 0 1 508.59332 -130.93711 A 3.5 2.61298 129.98932 0 1 513.09184 -136.30026 A 3.5 2.61298 129.98932 0 1 513.85373 -134.50533 Z" />
    <path d="M 513.85373 -177.89365 A 3.5 2.61298 129.98932 0 1 508.59332 -174.32543 A 3.5 2.61298 129.98932 0 1 513.09184 -179.68858 A 3.5 2.61298 129.98932 0 1 513.85373 -177.89365 Z" />
    <path d="M 513.85373 -221.28196 A 3.5 2.61298 129.98932 0 1 508.59332 -217.71375 A 3.5 2.61298 129.98932 0 1 513.09184 -223.0769 A 3.5 2.61298 129.98932 0 1 513.85373 -221.28196 Z" />
    <path d="M 513.85373 -264.67028 A 3.5 2.61298 129.98932 0 1 508.59332 -261.10206 A 3.5 2.61298 129.98932 0 1 513.09184 -266.46521 A 3.5 2.61298 129.98932 0 1 513.85373 -264.67028 Z" />
    <path d="M 513.85373 -308.05859 A 3.5 2.61298 129.98932 0 1 508.59332 -304.49038 A 3.5 2.61298 129.98932 0 1 513.09184 -309.85353 A 3.5 2.61298 129.98932 0 1 513.85373 -308.05859 Z" />
    <path d="M 513.85373 -351.44691 A 3.5 2.61298 129.98932 0 1 508.59332 -347.87869 A 3.5 2.61298 129.98932 0 1 513.09184 -353.24184 A 3.5 2.61298 129.98932 0 1 513.85373 -351.44691 Z" />
    <path d="M 513.85373 -394.83523 A 3.5 2.61298 129.98932 0 1 508.59332 -391.26701 A 3.5 2.61298 129.98932 0 1 513.09184 -396.63016 A 3.5 2.61298 129.98932 0 1 513.85373 -394.83523 Z" />
    <path d="M 513.85373 -438.22354 A 3.5 2.61298 129.98932 0 1 508.59332 -434.65533 A 3.5 2.61298 129.98932 0 1 513.09184 -440.01848 A 3.5 2.61298 129.98932 0 1 513.85373 -438.22354 Z" />
    <path d="M 461.97655 -640.5433 A 3.5 2.61298 129.98932 0 1 466.97663 -645.27019 A 3.5 2.61298 129.98932 0 1 466.68765 -640.86038" />
    <path d="M 462.7671 -639.70597 A 3.5 2.61298 129.98932 0 1 462.47812 -639.90704 A 3.5 2.61298 129.98932 0 1 461.97655 -640.5433" />
    <path d="M 303.981 -797.99432 A 3.5 2.61298 129.98932 0 1 303.5856 -798.25194 A 3.5 2.61298 129.98932 1 1 308.08411 -803.61509 A 3.5 2.61298 129.98932 0 1 303.981 -797.99432 Z" />
    <path d="M 332.34065 -782.34261 A 3.5 2.61298 129.98932 0 1 332.10625 -782.51138 A 3.5 2.61298 129.98932 1 1 336.60476 -787.87453 A 3.5 2.61298 129.98932 0 1 332.34065 -782.34261 Z" />
    <path d="M 358.97125 -764.24488 A 3.5 2.61298 129.98932 0 1 358.88804 -764.3109 A 3.5 2.61298 129.98932 0 1 363.38655 -769.67405 A 3.5 2.61298 129.98932 0 1 358.97125 -764.24488 Z" />
    <path d="M 383.74306 -743.78929 A 3.5 2.61298 129.98932 0 1 388.29899 -749.10234 A 3.5 2.61298 129.98932 0 1 383.80048 -743.73919 A 3.5 2.61298 129.98932 0 1 383.74306 -743.78929 Z" />
    <path d="M 406.5354 -721.07551 A 3.5 2.61298 129.98932 0 1 411.22073 -726.2596 A 3.5 2.61298 129.98932 0 1 406.72221 -720.89645 A 3.5 2.61298 129.98932 0 1 406.5354 -721.07551 Z" />
    <path d="M 427.23722 -696.21419 A 3.5 2.61298 129.98932 0 1 432.04008 -701.25714 A 3.5 2.61298 129.98932 0 1 427.54156 -695.89399 A 3.5 2.61298 129.98932 0 1 427.23722 -696.21419 Z" />
    <path d="M 445.74766 -669.32645 A 3.5 2.61298 129.98932 0 1 450.65561 -674.21676 A 3.5 2.61298 129.98932 0 1 446.15709 -668.85361 A 3.5 2.61298 129.98932 0 1 445.74766 -669.32645 Z" />
    <path d="M 506.53942 -473.388 A 3.5 2.61298 129.98932 0 1 511.79249 -477.16592 A 3.5 2.61298 129.98932 0 1 507.29398 -471.80277 A 3.5 2.61298 129.98932 0 1 506.53942 -473.388 Z" />
    <path d="M 502.66968 -509.38491 A 3.5 2.61298 129.98932 0 1 507.90078 -513.36719 A 3.5 2.61298 129.98932 0 1 503.40227 -508.00404 A 3.5 2.61298 129.98932 0 1 502.66968 -509.38491 Z" />
    <path d="M 496.24107 -544.26561 A 3.5 2.61298 129.98932 0 1 501.43568 -548.44592 A 3.5 2.61298 129.98932 1 1 496.93716 -543.08277 A 3.5 2.61298 129.98932 0 1 496.24107 -544.26561 Z" />
    <path d="M -289.69365 -722.27663 L -484.2946 -664.97585" />
    <path d="M -513.46026 -656.38795 L -581.77538 -636.27238" />
    <path d="M -289.69365 -722.27663 A 57.5 42.92747 129.98932 0 1 -323.97242 -664.69716" />
    <path d="M -624.79184 -102.94627 A 600 447.93877 129.98932 0 1 -624.78368 -105.87561" />
    <path d="M -606.5512 -245.50341 A 600 447.93877 129.98932 0 1 -420.26293 -578.21571" />
    <path d="M -402.532 -596.39486 A 600 447.93877 129.98932 0 1 -323.97242 -664.69716" />
    <path d="M -624.79184 938.37331 L -624.79184 414.77734" />
    <path d="M -624.79184 259.85646 L -624.79184 241.22407" />
    <path d="M -624.79184 86.3032 L -624.79184 67.67081" />
    <path d="M -624.79184 -87.25007 L -624.79184 -102.94627" />
    <path d="M -796.85766 989.03856 L -624.79184 938.37331" />
    <path d="M -796.85766 -355.99924 L -796.85766 989.03856" />
    <path d="M -796.43324 -369.74608 L -796.85766 -355.99924" />
    <path d="M -796.43324 -369.74608 A 250 186.64115 129.98932 0 1 -581.77538 -636.27238" />
    <path d="M -641.23522 246.06405 A 3.5 2.61298 129.98932 0 1 -639.74916 246.5452 A 3.5 2.61298 129.98932 0 1 -639.01675 247.92486" />
    <path d="M -641.23522 72.51078 A 3.5 2.61298 129.98932 0 1 -639.74916 72.99194 A 3.5 2.61298 129.98932 0 1 -639.01675 74.3716" />
    <path d="M -641.23522 -101.04248 A 3.5 2.61298 129.98932 0 1 -639.74916 -100.56132 A 3.5 2.61298 129.98932 0 1 -639.01675 -99.18167" />
    <path d="M -593.13239 -329.86361 A 3.5 2.61298 129.98932 0 1 -598.13247 -327.60738 A 3.5 2.61298 129.98932 1 1 -593.63396 -332.97053 A 3.5 2.61298 129.98932 0 1 -593.13239 -329.86361 Z" />
    <path d="M -435.13685 -580.35906 A 3.5 2.61298 129.98932 0 1 -439.23995 -579.52495 A 3.5 2.61298 129.98932 0 1 -434.74144 -584.8881 A 3.5 2.61298 129.98932 0 1 -435.13685 -580.35906 Z" />
    <path d="M -463.49649 -548.00621 A 3.5 2.61298 129.98932 0 1 -467.7606 -546.98842 A 3.5 2.61298 129.98932 0 1 -463.26209 -552.35157 A 3.5 2.61298 129.98932 0 1 -463.49649 -548.00621 Z" />
    <path d="M -490.12709 -514.22557 A 3.5 2.61298 129.98932 0 1 -494.54239 -513.016 A 3.5 2.61298 129.98932 0 1 -490.04388 -518.37915 A 3.5 2.61298 129.98932 0 1 -490.12709 -514.22557 Z" />
    <path d="M -514.8989 -479.18173 A 3.5 2.61298 129.98932 0 1 -519.45484 -477.77321 A 3.5 2.61298 129.98932 0 1 -514.95632 -483.13636 A 3.5 2.61298 129.98932 0 1 -514.8989 -479.18173 Z" />
    <path d="M -537.69124 -443.04542 A 3.5 2.61298 129.98932 0 1 -542.37657 -441.43175 A 3.5 2.61298 129.98932 0 1 -537.87806 -446.7949 A 3.5 2.61298 129.98932 0 1 -537.69124 -443.04542 Z" />
    <path d="M -558.39306 -405.99269 A 3.5 2.61298 129.98932 0 1 -563.19592 -404.16866 A 3.5 2.61298 129.98932 0 1 -558.6974 -409.53181 A 3.5 2.61298 129.98932 0 1 -558.39306 -405.99269 Z" />
    <path d="M -576.9035 -368.20405 A 3.5 2.61298 129.98932 0 1 -581.81145 -366.16549 A 3.5 2.61298 129.98932 0 1 -577.31294 -371.52864 A 3.5 2.61298 129.98932 0 1 -576.9035 -368.20405 Z" />
    <path d="M -607.00066 -291.15816 A 3.5 2.61298 129.98932 0 1 -612.07948 -288.68219 A 3.5 2.61298 129.98932 0 1 -607.58096 -294.04534 A 3.5 2.61298 129.98932 0 1 -607.00066 -291.15816 Z" />
    <path d="M -597.73297 -674.03118 L -565.36454 -646.88113" />
    <path d="M -586.87277 -640.54797 L -565.36454 -646.88113" />
    <path d="M -586.87277 -640.54797 L -581.77538 -636.27238" />
    <path d="M -294.79104 -726.55223 L -289.69365 -722.27663" />
    <path d="M -294.79104 -726.55223 L 153.44042 -858.5352" />
    <path d="M 450.61954 -940.26386 L 445.52215 -944.53945" />
    <path d="M 424.01392 -938.2063 L 445.52215 -944.53945" />
    <path d="M 424.01392 -938.2063 L 391.6455 -965.35635" />
    <path d="M 413.15373 -971.68951 L 391.6455 -965.35635" />
    <path d="M 413.15373 -971.68951 L 408.05634 -975.9651" />
    <path d="M 115.97461 -889.96085 L 408.05634 -975.9651" />
    <path d="M 121.072 -885.68525 L 115.97461 -889.96085 A 57.5 42.92747 309.98932 0 0 116.30723 -884.28225" />
    <path d="M 121.072 -885.68525 L -327.15947 -753.70228" />
    <path d="M -332.25686 -757.97788 L -327.15947 -753.70228" />
    <path d="M -624.33859 -671.97362 L -556.02346 -692.0892" />
    <path d="M -526.85781 -700.6771 L -332.25686 -757.97788" />
    <path d="M -624.33859 -671.97362 L -619.2412 -667.69803" />
    <path d="M -597.73297 -674.03118 L -619.2412 -667.69803" />
    <path d="M 444.36122 -634.2863 A 600 447.93877 309.98932 0 0 360.46607 -742.09833" />
    <path d="M 488.53861 41.68507 L 488.53861 -135.15954" />
    <path d="M 488.53861 -158.27855 L 488.53861 -436.54597" />
    <path d="M 606.18334 -919.13894 A 250 186.64115 309.98932 0 0 580.16049 -936.42111" />
    <path d="M 521.03306 -952.9646 A 250 186.64115 309.98932 0 0 445.52215 -944.53945" />
    <path d="M -801.95505 984.76296 L -796.85766 989.03856" />
    <path d="M -801.95505 -360.27484 L -801.95505 984.76296" />
    <path d="M -801.95505 -360.27484 L -796.85766 -355.99924" />
    <path d="M -801.53063 -374.02168 L -801.95505 -360.27484" />
    <path d="M -801.53063 -374.02168 L -796.43324 -369.74608" />
    <path d="M -586.87277 -640.54797 A 250 186.64115 309.98932 0 0 -801.53063 -374.02168" />
    <path d="M -597.73297 -665.35352 L -597.73297 -674.03118" />
    <path d="M -597.73297 -665.35352 L -573.02197 -644.62638" />
    <path d="M -289.77734 -719.35087 L 154.19428 -850.07951" />
    <path d="M 413.15373 -971.68951 A 250 186.64115 129.98932 0 1 488.66463 -980.11465" />
    <path d="M 547.79206 -963.57116 A 250 186.64115 129.98932 0 1 573.81492 -946.289 A 250 186.64115 129.98932 0 1 588.96684 -931.48326" />
    <path d="M 154.55647 -848.32485 A 57.5 42.92747 129.98932 0 1 149.92832 -848.82339" />
    <path d="M 456.17018 -463.69603 A 600 447.93877 309.98932 0 0 441.57557 -582.33084" />
    <path d="M 426.93292 -627.82633 A 600 447.93877 309.98932 0 0 343.71765 -755.0007" />
    <path d="M 456.17018 577.62356 L 456.17018 445.436" />
    <path d="M 456.17018 14.53502 L 456.17018 -125.62857" />
    <path d="M 456.17018 -148.74758 L 456.17018 -463.69603 L 451.07279 -467.97162 A 600 447.93877 309.98932 0 0 437.83519 -581.22947" />
    <path d="M 488.53861 568.09259 L 456.17018 577.62356 L 451.07279 573.34796 L 451.07279 446.93694" />
    <path d="M 476.38791 -79.15435 A 3.5 2.61298 129.98932 0 1 471.12751 -75.58613 A 3.5 2.61298 129.98932 0 1 475.62602 -80.94928 A 3.5 2.61298 129.98932 0 1 476.38791 -79.15435 Z" />
    <path d="M 476.38791 -122.54267 A 3.5 2.61298 129.98932 0 1 471.12751 -118.97445 A 3.5 2.61298 129.98932 0 1 475.62602 -124.3376 A 3.5 2.61298 129.98932 0 1 476.38791 -122.54267 Z" />
    <path d="M 476.38791 -165.93098 A 3.5 2.61298 129.98932 0 1 471.12751 -162.36276 A 3.5 2.61298 129.98932 0 1 475.62602 -167.72591 A 3.5 2.61298 129.98932 0 1 476.38791 -165.93098 Z" />
    <path d="M 476.38791 -209.3193 A 3.5 2.61298 129.98932 0 1 471.12751 -205.75108 A 3.5 2.61298 129.98932 0 1 475.62602 -211.11423 A 3.5 2.61298 129.98932 0 1 476.38791 -209.3193 Z" />
    <path d="M 476.38791 -252.70761 A 3.5 2.61298 129.98932 0 1 471.12751 -249.1394 A 3.5 2.61298 129.98932 0 1 475.62602 -254.50255 A 3.5 2.61298 129.98932 0 1 476.38791 -252.70761 Z" />
    <path d="M 476.38791 -296.09593 A 3.5 2.61298 129.98932 0 1 471.12751 -292.52771 A 3.5 2.61298 129.98932 0 1 475.62602 -297.89086 A 3.5 2.61298 129.98932 0 1 476.38791 -296.09593 Z" />
    <path d="M 476.38791 -339.48424 A 3.5 2.61298 129.98932 0 1 471.12751 -335.91603 A 3.5 2.61298 129.98932 0 1 475.62602 -341.27918 A 3.5 2.61298 129.98932 0 1 476.38791 -339.48424 Z" />
    <path d="M 476.38791 -382.87256 A 3.5 2.61298 129.98932 0 1 471.12751 -379.30434 A 3.5 2.61298 129.98932 0 1 475.62602 -384.66749 A 3.5 2.61298 129.98932 0 1 476.38791 -382.87256 Z" />
    <path d="M 476.38791 -426.26088 A 3.5 2.61298 129.98932 0 1 471.12751 -422.69266 A 3.5 2.61298 129.98932 0 1 475.62602 -428.05581 A 3.5 2.61298 129.98932 0 1 476.38791 -426.26088 Z" />
    <path d="M 476.38791 -469.64919 A 3.5 2.61298 129.98932 0 1 471.12751 -466.08098 A 3.5 2.61298 129.98932 0 1 475.62602 -471.44413 A 3.5 2.61298 129.98932 0 1 476.38791 -469.64919 Z" />
    <path d="M 458.77525 -575.69126 A 3.5 2.61298 129.98932 0 1 463.96986 -579.87157 A 3.5 2.61298 129.98932 1 1 459.47135 -574.50842 A 3.5 2.61298 129.98932 0 1 458.77525 -575.69126 Z" />
    <path d="M 469.0736 -504.81365 A 3.5 2.61298 129.98932 0 1 474.32667 -508.59157 A 3.5 2.61298 129.98932 0 1 469.82816 -503.22842 A 3.5 2.61298 129.98932 0 1 469.0736 -504.81365 Z" />
    <path d="M 465.20386 -540.81056 A 3.5 2.61298 129.98932 0 1 470.43497 -544.79284 A 3.5 2.61298 129.98932 0 1 465.93645 -539.42969 A 3.5 2.61298 129.98932 0 1 465.20386 -540.81056 Z" />
    <path d="M 438.37901 -641.4306 A 3.5 2.61298 129.98932 0 1 438.94055 -644.63254" />
    <path d="M 441.26976 -640.28401 A 3.5 2.61298 129.98932 0 1 438.95931 -640.62097 A 3.5 2.61298 129.98932 0 1 438.37901 -641.4306" />
    <path d="M 568.71753 -950.56459 A 250 186.64115 309.98932 0 0 542.69467 -967.84676" />
    <path d="M 483.56724 -984.39025 A 250 186.64115 309.98932 0 0 408.05634 -975.9651" />
    <path d="M 425.28298 -622.89213 A 600 447.93877 309.98932 0 0 341.00174 -756.93914" />
    <path d="M 451.07279 10.25942 L 451.07279 -124.12763" />
    <path d="M 451.07279 -147.24664 L 451.07279 -467.97162" />
    <path d="M -839.42086 -391.70049 L -839.42086 953.33731 L -834.32347 957.61291 L -801.95505 948.08194" />
    <path d="M -838.99645 -405.44733 L -839.42086 -391.70049 L -834.32347 -387.42489 L -834.32347 957.61291" />
    <path d="M -624.33859 -671.97362 A 250 186.64115 309.98932 0 0 -838.99645 -405.44733 L -833.89906 -401.17173 L -834.32347 -387.42489" />
    <path d="M -833.89906 -401.17173 A 250 186.64115 129.98932 0 1 -619.2412 -667.69803" />
    <path d="M 451.07279 -300.15984 L 333.25281 -398.98512 L 204.20344 -360.98618 L 451.07279 -153.91663" />
    <path d="M 204.20344 -352.30852 L 449.30116 -146.72498" />
    <path d="M 204.20344 -352.30852 L 204.20344 -360.98618" />
    <path d="M 451.04101 -473.73976 L 352.75757 -556.17814" />
    <path d="M 216.05078 -515.92445 L 451.07279 -318.79223" />
    <path d="M 223.70821 -518.1792 L 451.07279 -327.46989" />
    <path d="M 386.03303 -701.82055 L 333.25281 -746.09165 L 204.20344 -708.09271 L 336.83092 -596.84718" />
    <path d="M 204.20344 -699.41505 L 329.17349 -594.59243" />
    <path d="M 369.19934 -561.01946 L 450.47494 -492.84696" />
    <path d="M 204.20344 -699.41505 L 204.20344 -708.09271" />
    <path d="M 376.85677 -563.27421 L 449.94987 -501.96504" />
    <path d="M -1086.29021 19.00317 L -839.42086 226.07272" />
    <path d="M -839.42086 79.82951 L -957.24085 -18.99577 L -1086.29021 19.00317" />
    <path d="M -1086.29021 27.68083 L -1086.29021 19.00317" />
    <path d="M -1086.29021 27.68083 L -839.42086 234.75038" />
    <path d="M -1086.29021 -154.5501 L -839.42086 52.51946" />
    <path d="M -839.42086 -93.72376 L -957.24085 -192.54903 L -1086.29021 -154.5501" />
    <path d="M -1086.29021 -145.87243 L -1086.29021 -154.5501" />
    <path d="M -1086.29021 -145.87243 L -839.42086 61.19712" />
    <path d="M -1086.29021 -328.10336 L -839.42086 -121.03381" />
    <path d="M -839.42086 -267.27702 L -957.24085 -366.1023 L -1086.29021 -328.10336" />
    <path d="M -1086.29021 -319.4257 L -1086.29021 -328.10336" />
    <path d="M -1086.29021 -319.4257 L -839.42086 -112.35614" />
    <path d="M -1086.29021 -501.65662 L -839.42086 -294.58707" />
    <path d="M -834.93996 -437.07178 L -957.24085 -539.65556 L -1086.29021 -501.65662" />
    <path d="M -1086.29021 -492.97896 L -1086.29021 -501.65662" />
    <path d="M -1086.29021 -492.97896 L -839.42086 -285.90941" />
    <path d="M 139.67876 -1201.07537 L -152.40297 -1115.07112 L -157.50036 -1119.34671 A 57.5 42.92747 309.98932 0 0 -156.7465 -1110.89103 A 57.5 42.92747 309.98932 0 0 -144.98351 -1089.85853 L -139.88612 -1085.58293 A 57.5 42.92747 309.98932 0 0 -118.12421 -1077.6786" />
    <path d="M 139.67876 -1201.07537 A 250 186.64115 129.98932 0 1 193.523 -1210.02196" />
    <path d="M 274.3171 -1192.95703 A 250 186.64115 129.98932 0 1 300.33995 -1175.67486 A 250 186.64115 129.98932 0 1 321.88682 -1153.0564" />
    <path d="M 348.46699 -1097.7099 A 250 186.64115 129.98932 0 1 354.33662 -1060.96225 L 354.76104 -1047.46535 L 354.76104 -960.27216" />
    <path d="M -152.40297 -1115.07112 A 57.5 42.92747 309.98932 0 0 -139.88612 -1085.58293" />
    <path d="M 182.69521 -693.08189 A 600 447.93877 309.98932 0 0 161.96691 -833.04089" />
    <path d="M 135.94095 -895.83999 A 600 447.93877 309.98932 0 0 52.08461 -1000.78472 A 600 447.93877 309.98932 0 0 -118.12421 -1077.6786" />
    <path d="M 354.76104 -742.46757 L 354.76104 -728.05093" />
    <path d="M 354.76104 -556.76806 L 354.76104 -554.49767" />
    <path d="M 354.76104 -399.57679 L 354.76104 -380.94441" />
    <path d="M 354.76104 -226.02353 L 354.76104 -119.1653" />
    <path d="M 354.76104 -96.82455 L 354.76104 -70.52515" />
    <path d="M 182.69521 -214.85085 L 182.69521 -506.10282" />
    <path d="M 182.69521 -551.4615 L 182.69521 -693.08189 L 177.59782 -697.35749 A 600 447.93877 309.98932 0 0 153.17686 -848.41687" />
    <path d="M 202.91295 -308.54022 A 3.5 2.61298 129.98932 0 1 197.65254 -304.972 A 3.5 2.61298 129.98932 0 1 202.15105 -310.33515 A 3.5 2.61298 129.98932 0 1 202.91295 -308.54022 Z" />
    <path d="M 202.91295 -351.92853 A 3.5 2.61298 129.98932 0 1 197.65254 -348.36031 A 3.5 2.61298 129.98932 0 1 202.15105 -353.72346 A 3.5 2.61298 129.98932 0 1 202.91295 -351.92853 Z" />
    <path d="M 202.91295 -395.31685 A 3.5 2.61298 129.98932 0 1 197.65254 -391.74863 A 3.5 2.61298 129.98932 0 1 202.15105 -397.11178 A 3.5 2.61298 129.98932 0 1 202.91295 -395.31685 Z" />
    <path d="M 202.91295 -438.70516 A 3.5 2.61298 129.98932 0 1 197.65254 -435.13695 A 3.5 2.61298 129.98932 0 1 202.15105 -440.5001 A 3.5 2.61298 129.98932 0 1 202.91295 -438.70516 Z" />
    <path d="M 202.91295 -482.09348 A 3.5 2.61298 129.98932 0 1 197.65254 -478.52526 A 3.5 2.61298 129.98932 0 1 202.15105 -483.88841 A 3.5 2.61298 129.98932 0 1 202.91295 -482.09348 Z" />
    <path d="M 202.91295 -568.87011 A 3.5 2.61298 129.98932 0 1 197.65254 -565.30189 A 3.5 2.61298 129.98932 0 1 202.15105 -570.66504 A 3.5 2.61298 129.98932 0 1 202.91295 -568.87011 Z" />
    <path d="M 202.91295 -612.25843 A 3.5 2.61298 129.98932 0 1 197.65254 -608.69021 A 3.5 2.61298 129.98932 0 1 202.15105 -614.05336 A 3.5 2.61298 129.98932 0 1 202.91295 -612.25843 Z" />
    <path d="M 202.91295 -655.64674 A 3.5 2.61298 129.98932 0 1 197.65254 -652.07853 A 3.5 2.61298 129.98932 0 1 202.15105 -657.44168 A 3.5 2.61298 129.98932 0 1 202.91295 -655.64674 Z" />
    <path d="M 202.91295 -699.03506 A 3.5 2.61298 129.98932 0 1 197.65254 -695.46684 A 3.5 2.61298 129.98932 0 1 202.15105 -700.82999 A 3.5 2.61298 129.98932 0 1 202.91295 -699.03506 Z" />
    <path d="M 151.03577 -901.35481 A 3.5 2.61298 129.98932 0 1 156.03585 -906.08171 A 3.5 2.61298 129.98932 0 1 155.74687 -901.6719" />
    <path d="M 151.82632 -900.51748 A 3.5 2.61298 129.98932 0 1 151.53734 -900.71856 A 3.5 2.61298 129.98932 0 1 151.03577 -901.35481" />
    <path d="M -6.95978 -1058.80583 A 3.5 2.61298 129.98932 0 1 -7.35518 -1059.06346 A 3.5 2.61298 129.98932 1 1 -2.85667 -1064.42661 A 3.5 2.61298 129.98932 0 1 -6.95978 -1058.80583 Z" />
    <path d="M 21.39987 -1043.15413 A 3.5 2.61298 129.98932 0 1 21.16547 -1043.3229 A 3.5 2.61298 129.98932 1 1 25.66398 -1048.68605 A 3.5 2.61298 129.98932 0 1 21.39987 -1043.15413 Z" />
    <path d="M 48.03047 -1025.05639 A 3.5 2.61298 129.98932 0 1 47.94725 -1025.12242 A 3.5 2.61298 129.98932 0 1 52.44577 -1030.48557 A 3.5 2.61298 129.98932 0 1 48.03047 -1025.05639 Z" />
    <path d="M 72.80228 -1004.60081 A 3.5 2.61298 129.98932 0 1 77.35821 -1009.91385 A 3.5 2.61298 129.98932 0 1 72.8597 -1004.5507 A 3.5 2.61298 129.98932 0 1 72.80228 -1004.60081 Z" />
    <path d="M 95.59462 -981.88703 A 3.5 2.61298 129.98932 0 1 100.27995 -987.07112 A 3.5 2.61298 129.98932 0 1 95.78143 -981.70797 A 3.5 2.61298 129.98932 0 1 95.59462 -981.88703 Z" />
    <path d="M 116.29643 -957.02571 A 3.5 2.61298 129.98932 0 1 121.09929 -962.06866 A 3.5 2.61298 129.98932 0 1 116.60078 -956.70551 A 3.5 2.61298 129.98932 0 1 116.29643 -957.02571 Z" />
    <path d="M 134.80688 -930.13797 A 3.5 2.61298 129.98932 0 1 139.71483 -935.02827 A 3.5 2.61298 129.98932 0 1 135.21631 -929.66512 A 3.5 2.61298 129.98932 0 1 134.80688 -930.13797 Z" />
    <path d="M 195.59863 -734.19951 A 3.5 2.61298 129.98932 0 1 200.85171 -737.97743 A 3.5 2.61298 129.98932 0 1 196.35319 -732.61428 A 3.5 2.61298 129.98932 0 1 195.59863 -734.19951 Z" />
    <path d="M 191.7289 -770.19642 A 3.5 2.61298 129.98932 0 1 196.96 -774.17871 A 3.5 2.61298 129.98932 0 1 192.46149 -768.81556 A 3.5 2.61298 129.98932 0 1 191.7289 -770.19642 Z" />
    <path d="M 185.30029 -805.07713 A 3.5 2.61298 129.98932 0 1 190.4949 -809.25744 A 3.5 2.61298 129.98932 1 1 185.99638 -803.89429 A 3.5 2.61298 129.98932 0 1 185.30029 -805.07713 Z" />
    <path d="M -600.63443 -983.08815 L -780.9291 -929.99989" />
    <path d="M -806.22062 -922.55274 L -892.71616 -897.08389" />
    <path d="M -600.63443 -983.08815 A 57.5 42.92747 129.98932 0 1 -634.9132 -925.50868" />
    <path d="M -1107.37402 -630.5576 A 250 186.64115 129.98932 0 1 -892.71616 -897.08389" />
    <path d="M -935.73262 -363.75779 A 600 447.93877 129.98932 0 1 -935.72446 -366.68713" />
    <path d="M -917.49198 -506.31493 A 600 447.93877 129.98932 0 1 -731.20371 -839.02723" />
    <path d="M -713.47278 -857.20637 A 600 447.93877 129.98932 0 1 -634.9132 -925.50868" />
    <path d="M -1107.37402 -630.5576 L -1107.79844 -616.81075 L -1107.79844 728.22704 L -935.73262 677.56179 L -935.73262 153.96582" />
    <path d="M -935.73262 -0.95506 L -935.73262 -19.58744" />
    <path d="M -935.73262 -174.50832 L -935.73262 -193.14071" />
    <path d="M -935.73262 -348.06158 L -935.73262 -363.75779" />
    <path d="M -952.176 -14.74747 A 3.5 2.61298 129.98932 0 1 -950.68994 -14.26631 A 3.5 2.61298 129.98932 0 1 -949.95753 -12.88665" />
    <path d="M -952.176 -188.30073 A 3.5 2.61298 129.98932 0 1 -950.68994 -187.81958 A 3.5 2.61298 129.98932 0 1 -949.95753 -186.43992" />
    <path d="M -952.176 -361.854 A 3.5 2.61298 129.98932 0 1 -950.68994 -361.37284 A 3.5 2.61298 129.98932 0 1 -949.95753 -359.99318" />
    <path d="M -904.07317 -590.67513 A 3.5 2.61298 129.98932 0 1 -909.07326 -588.4189 A 3.5 2.61298 129.98932 1 1 -904.57474 -593.78205 A 3.5 2.61298 129.98932 0 1 -904.07317 -590.67513 Z" />
    <path d="M -746.07763 -841.17058 A 3.5 2.61298 129.98932 0 1 -750.18073 -840.33647 A 3.5 2.61298 129.98932 0 1 -745.68222 -845.69962 A 3.5 2.61298 129.98932 0 1 -746.07763 -841.17058 Z" />
    <path d="M -774.43728 -808.81772 A 3.5 2.61298 129.98932 0 1 -778.70139 -807.79994 A 3.5 2.61298 129.98932 0 1 -774.20287 -813.16309 A 3.5 2.61298 129.98932 0 1 -774.43728 -808.81772 Z" />
    <path d="M -801.06787 -775.03709 A 3.5 2.61298 129.98932 0 1 -805.48317 -773.82752 A 3.5 2.61298 129.98932 0 1 -800.98466 -779.19067 A 3.5 2.61298 129.98932 0 1 -801.06787 -775.03709 Z" />
    <path d="M -825.83969 -739.99325 A 3.5 2.61298 129.98932 0 1 -830.39562 -738.58473 A 3.5 2.61298 129.98932 0 1 -825.8971 -743.94788 A 3.5 2.61298 129.98932 0 1 -825.83969 -739.99325 Z" />
    <path d="M -848.63202 -703.85694 A 3.5 2.61298 129.98932 0 1 -853.31735 -702.24326 A 3.5 2.61298 129.98932 0 1 -848.81884 -707.60641 A 3.5 2.61298 129.98932 0 1 -848.63202 -703.85694 Z" />
    <path d="M -869.33384 -666.8042 A 3.5 2.61298 129.98932 0 1 -874.1367 -664.98017 A 3.5 2.61298 129.98932 0 1 -869.63818 -670.34332 A 3.5 2.61298 129.98932 0 1 -869.33384 -666.8042 Z" />
    <path d="M -887.84428 -629.01557 A 3.5 2.61298 129.98932 0 1 -892.75223 -626.977 A 3.5 2.61298 129.98932 0 1 -888.25372 -632.34015 A 3.5 2.61298 129.98932 0 1 -887.84428 -629.01557 Z" />
    <path d="M -917.94144 -551.96968 A 3.5 2.61298 129.98932 0 1 -923.02026 -549.49371 A 3.5 2.61298 129.98932 0 1 -918.52174 -554.85686 A 3.5 2.61298 129.98932 0 1 -917.94144 -551.96968 Z" />
    <path d="M -908.67375 -934.8427 L -876.30533 -907.69265" />
    <path d="M -897.81355 -901.35949 L -876.30533 -907.69265" />
    <path d="M -897.81355 -901.35949 L -892.71616 -897.08389" />
    <path d="M -605.73182 -987.36375 L -600.63443 -983.08815" />
    <path d="M -605.73182 -987.36375 L -157.50036 -1119.34671" />
    <path d="M 139.67876 -1201.07537 L 134.58137 -1205.35097" />
    <path d="M 113.07314 -1199.01781 L 134.58137 -1205.35097" />
    <path d="M 113.07314 -1199.01781 L 83.52483 -1223.8024" />
    <path d="M -194.96618 -1150.77236 L 32.70699 -1217.81135" />
    <path d="M -189.86879 -1146.49677 L -194.96618 -1150.77236 A 57.5 42.92747 309.98932 0 0 -194.63355 -1145.09377" />
    <path d="M -189.86879 -1146.49677 L -638.10025 -1014.5138" />
    <path d="M -643.19764 -1018.7894 L -638.10025 -1014.5138" />
    <path d="M -935.27937 -932.78514 L -792.78536 -974.74289" />
    <path d="M -717.72224 -996.84542 L -643.19764 -1018.7894" />
    <path d="M -935.27937 -932.78514 L -930.18198 -928.50954" />
    <path d="M -908.67375 -934.8427 L -930.18198 -928.50954" />
    <path d="M 295.24256 -1179.95046 A 250 186.64115 309.98932 0 0 269.19517 -1197.24526" />
    <path d="M 180.43174 -1213.86508 A 250 186.64115 309.98932 0 0 134.58137 -1205.35097" />
    <path d="M 133.42044 -895.09782 A 600 447.93877 309.98932 0 0 49.52529 -1002.90984" />
    <path d="M 177.59782 -219.12645 L 177.59782 -504.60188" />
    <path d="M 177.59782 -549.96056 L 177.59782 -697.35749" />
    <path d="M -897.81355 -901.35949 A 250 186.64115 309.98932 0 0 -1112.47141 -634.8332 L -1112.89583 -621.08635 L -1112.89583 723.95144 L -1107.79844 728.22704" />
    <path d="M -1112.47141 -634.8332 L -1107.37402 -630.5576" />
    <path d="M -1112.89583 -621.08635 L -1107.79844 -616.81075" />
    <path d="M -908.67375 -926.16503 L -908.67375 -934.8427" />
    <path d="M -908.67375 -926.16503 L -883.96275 -905.4379" />
    <path d="M -600.71812 -980.16238 L -156.7465 -1110.89103" />
    <path d="M 153.31336 -1241.33591 A 250 186.64115 129.98932 0 1 262.87414 -1207.10051 A 250 186.64115 129.98932 0 1 278.02606 -1192.29478" />
    <path d="M -156.38431 -1109.13636 A 57.5 42.92747 129.98932 0 1 -161.01246 -1109.6349" />
    <path d="M 145.2294 -724.50754 A 600 447.93877 309.98932 0 0 130.63478 -843.14235" />
    <path d="M 115.99213 -888.63785 A 600 447.93877 309.98932 0 0 32.77687 -1015.81222" />
    <path d="M 145.2294 -246.2765 L 145.2294 -495.07091" />
    <path d="M 145.2294 -540.42959 L 145.2294 -724.50754 L 140.13201 -728.78314 A 600 447.93877 309.98932 0 0 126.89441 -842.04099" />
    <path d="M 165.44713 -339.96587 A 3.5 2.61298 129.98932 0 1 160.18672 -336.39765 A 3.5 2.61298 129.98932 0 1 164.68524 -341.7608 A 3.5 2.61298 129.98932 0 1 165.44713 -339.96587 Z" />
    <path d="M 165.44713 -383.35418 A 3.5 2.61298 129.98932 0 1 160.18672 -379.78596 A 3.5 2.61298 129.98932 0 1 164.68524 -385.14911 A 3.5 2.61298 129.98932 0 1 165.44713 -383.35418 Z" />
    <path d="M 165.44713 -426.7425 A 3.5 2.61298 129.98932 0 1 160.18672 -423.17428 A 3.5 2.61298 129.98932 0 1 164.68524 -428.53743 A 3.5 2.61298 129.98932 0 1 165.44713 -426.7425 Z" />
    <path d="M 165.44713 -470.13081 A 3.5 2.61298 129.98932 0 1 160.18672 -466.5626 A 3.5 2.61298 129.98932 0 1 164.68524 -471.92575 A 3.5 2.61298 129.98932 0 1 165.44713 -470.13081 Z" />
    <path d="M 165.44713 -556.90745 A 3.5 2.61298 129.98932 0 1 160.18672 -553.33923 A 3.5 2.61298 129.98932 0 1 164.68524 -558.70238 A 3.5 2.61298 129.98932 0 1 165.44713 -556.90745 Z" />
    <path d="M 165.44713 -600.29576 A 3.5 2.61298 129.98932 0 1 160.18672 -596.72754 A 3.5 2.61298 129.98932 0 1 164.68524 -602.09069 A 3.5 2.61298 129.98932 0 1 165.44713 -600.29576 Z" />
    <path d="M 165.44713 -643.68408 A 3.5 2.61298 129.98932 0 1 160.18672 -640.11586 A 3.5 2.61298 129.98932 0 1 164.68524 -645.47901 A 3.5 2.61298 129.98932 0 1 165.44713 -643.68408 Z" />
    <path d="M 165.44713 -687.07239 A 3.5 2.61298 129.98932 0 1 160.18672 -683.50418 A 3.5 2.61298 129.98932 0 1 164.68524 -688.86733 A 3.5 2.61298 129.98932 0 1 165.44713 -687.07239 Z" />
    <path d="M 165.44713 -730.46071 A 3.5 2.61298 129.98932 0 1 160.18672 -726.89249 A 3.5 2.61298 129.98932 0 1 164.68524 -732.25564 A 3.5 2.61298 129.98932 0 1 165.44713 -730.46071 Z" />
    <path d="M 147.83447 -836.50278 A 3.5 2.61298 129.98932 0 1 153.02908 -840.68309 A 3.5 2.61298 129.98932 1 1 148.53057 -835.31994 A 3.5 2.61298 129.98932 0 1 147.83447 -836.50278 Z" />
    <path d="M 158.13282 -765.62516 A 3.5 2.61298 129.98932 0 1 163.38589 -769.40308 A 3.5 2.61298 129.98932 0 1 158.88738 -764.03993 A 3.5 2.61298 129.98932 0 1 158.13282 -765.62516 Z" />
    <path d="M 154.26308 -801.62207 A 3.5 2.61298 129.98932 0 1 159.49419 -805.60435 A 3.5 2.61298 129.98932 0 1 154.99567 -800.2412 A 3.5 2.61298 129.98932 0 1 154.26308 -801.62207 Z" />
    <path d="M 127.43822 -902.24211 A 3.5 2.61298 129.98932 0 1 127.99977 -905.44406" />
    <path d="M 130.32898 -901.09553 A 3.5 2.61298 129.98932 0 1 128.01852 -901.43249 A 3.5 2.61298 129.98932 0 1 127.43822 -902.24211" />
    <path d="M 257.77675 -1211.37611 A 250 186.64115 309.98932 0 0 130.09088 -1243.92148" />
    <path d="M 114.3422 -883.70364 A 600 447.93877 309.98932 0 0 30.06095 -1017.75066" />
    <path d="M 140.13201 -250.5521 L 140.13201 -493.56997" />
    <path d="M 140.13201 -538.92865 L 140.13201 -728.78314" />
    <path d="M -1150.36165 -652.512 L -1150.36165 692.52579 L -1145.26426 696.80139 L -1112.89583 687.27042" />
    <path d="M -1149.93723 -666.25885 L -1150.36165 -652.512 L -1145.26426 -648.2364 L -1145.26426 696.80139" />
    <path d="M -935.27937 -932.78514 A 250 186.64115 309.98932 0 0 -1149.93723 -666.25885 L -1144.83984 -661.98325 L -1145.26426 -648.2364" />
    <path d="M -1144.83984 -661.98325 A 250 186.64115 129.98932 0 1 -930.18198 -928.50954" />
    <path d="M 140.13201 -560.97136 L 22.31203 -659.79664 L -106.73734 -621.7977 L 30.53379 -506.65716" />
    <path d="M -106.73734 -613.12004 L 22.87636 -504.40241" />
    <path d="M 62.90221 -470.82944 L 140.13201 -406.05048" />
    <path d="M -106.73734 -613.12004 L -106.73734 -621.7977" />
    <path d="M 70.55964 -473.08419 L 140.13201 -414.72815" />
    <path d="M 140.10023 -734.55128 L 41.81679 -816.98965" />
    <path d="M -94.89 -776.73597 L 140.13201 -579.60375" />
    <path d="M -87.23258 -778.99072 L 140.13201 -588.28141" />
    <path d="M 75.09225 -962.63206 L 22.31203 -1006.90316 L -106.73734 -968.90423 L 25.89014 -857.65869" />
    <path d="M -106.73734 -960.22656 L 18.23271 -855.40394" />
    <path d="M 58.25856 -821.83098 L 139.53416 -753.65848" />
    <path d="M -106.73734 -960.22656 L -106.73734 -968.90423" />
    <path d="M 65.91599 -824.08573 L 139.00909 -762.77656" />
    <path d="M -1397.23099 -241.80835 L -1150.36165 -34.7388" />
    <path d="M -1150.36165 -180.98201 L -1268.18163 -279.80729 L -1397.23099 -241.80835" />
    <path d="M -1397.23099 -233.13069 L -1397.23099 -241.80835" />
    <path d="M -1397.23099 -233.13069 L -1150.36165 -26.06113" />
    <path d="M -1397.23099 -415.36161 L -1150.36165 -208.29206" />
    <path d="M -1150.36165 -354.53527 L -1268.18163 -453.36055 L -1397.23099 -415.36161" />
    <path d="M -1397.23099 -406.68395 L -1397.23099 -415.36161" />
    <path d="M -1397.23099 -406.68395 L -1150.36165 -199.6144" />
    <path d="M -1397.23099 -588.91488 L -1150.36165 -381.84532" />
    <path d="M -1150.36165 -528.08854 L -1268.18163 -626.91381 L -1397.23099 -588.91488" />
    <path d="M -1397.23099 -580.23721 L -1397.23099 -588.91488" />
    <path d="M -1397.23099 -580.23721 L -1150.36165 -373.16766" />
    <path d="M -1397.23099 -762.46814 L -1150.36165 -555.39859" />
    <path d="M -1145.88074 -697.8833 L -1268.18163 -800.46708 L -1397.23099 -762.46814" />
    <path d="M -1397.23099 -753.79048 L -1397.23099 -762.46814" />
    <path d="M -1397.23099 -753.79048 L -1150.36165 -546.72092" />
    <path d="M -171.26202 -1461.88689 L -463.34375 -1375.88263 L -468.44114 -1380.15823 A 57.5 42.92747 309.98932 0 0 -467.68729 -1371.70254 A 57.5 42.92747 309.98932 0 0 -455.92429 -1350.67004 L -450.8269 -1346.39444 A 57.5 42.92747 309.98932 0 0 -429.06499 -1338.49011" />
    <path d="M -171.26202 -1461.88689 A 250 186.64115 129.98932 0 1 -10.60083 -1436.48638 A 250 186.64115 129.98932 0 1 43.39584 -1321.77377 L 43.82025 -1308.27687 L 43.82025 -1241.48026" />
    <path d="M -463.34375 -1375.88263 A 57.5 42.92747 309.98932 0 0 -450.8269 -1346.39444" />
    <path d="M -128.24557 -953.89341 A 600 447.93877 309.98932 0 0 -148.97387 -1093.85241" />
    <path d="M -174.99983 -1156.65151 A 600 447.93877 309.98932 0 0 -175.53124 -1157.66336" />
    <path d="M -186.77613 -1177.47128 A 600 447.93877 309.98932 0 0 -258.85617 -1261.59624 A 600 447.93877 309.98932 0 0 -429.06499 -1338.49011" />
    <path d="M 43.82025 -1003.27909 L 43.82025 -988.86245" />
    <path d="M 43.82025 -817.57958 L 43.82025 -815.30919" />
    <path d="M 43.82025 -660.38831 L 43.82025 -641.75592" />
    <path d="M 43.82025 -465.21071 L 43.82025 -331.33666" />
    <path d="M -128.24557 -475.66237 L -128.24557 -766.91433" />
    <path d="M -128.24557 -812.27302 L -128.24557 -953.89341 L -133.34296 -958.16901 A 600 447.93877 309.98932 0 0 -157.76393 -1109.22839" />
    <path d="M -108.02783 -569.35173 A 3.5 2.61298 129.98932 0 1 -113.28824 -565.78352 A 3.5 2.61298 129.98932 0 1 -108.78973 -571.14666 A 3.5 2.61298 129.98932 0 1 -108.02783 -569.35173 Z" />
    <path d="M -108.02783 -612.74005 A 3.5 2.61298 129.98932 0 1 -113.28824 -609.17183 A 3.5 2.61298 129.98932 0 1 -108.78973 -614.53498 A 3.5 2.61298 129.98932 0 1 -108.02783 -612.74005 Z" />
    <path d="M -108.02783 -656.12836 A 3.5 2.61298 129.98932 0 1 -113.28824 -652.56015 A 3.5 2.61298 129.98932 0 1 -108.78973 -657.9233 A 3.5 2.61298 129.98932 0 1 -108.02783 -656.12836 Z" />
    <path d="M -108.02783 -699.51668 A 3.5 2.61298 129.98932 0 1 -113.28824 -695.94846 A 3.5 2.61298 129.98932 0 1 -108.78973 -701.31161 A 3.5 2.61298 129.98932 0 1 -108.02783 -699.51668 Z" />
    <path d="M -108.02783 -742.905 A 3.5 2.61298 129.98932 0 1 -113.28824 -739.33678 A 3.5 2.61298 129.98932 0 1 -108.78973 -744.69993 A 3.5 2.61298 129.98932 0 1 -108.02783 -742.905 Z" />
    <path d="M -108.02783 -829.68163 A 3.5 2.61298 129.98932 0 1 -113.28824 -826.11341 A 3.5 2.61298 129.98932 0 1 -108.78973 -831.47656 A 3.5 2.61298 129.98932 0 1 -108.02783 -829.68163 Z" />
    <path d="M -108.02783 -873.06994 A 3.5 2.61298 129.98932 0 1 -113.28824 -869.50173 A 3.5 2.61298 129.98932 0 1 -108.78973 -874.86488 A 3.5 2.61298 129.98932 0 1 -108.02783 -873.06994 Z" />
    <path d="M -108.02783 -916.45826 A 3.5 2.61298 129.98932 0 1 -113.28824 -912.89004 A 3.5 2.61298 129.98932 0 1 -108.78973 -918.25319 A 3.5 2.61298 129.98932 0 1 -108.02783 -916.45826 Z" />
    <path d="M -108.02783 -959.84658 A 3.5 2.61298 129.98932 0 1 -113.28824 -956.27836 A 3.5 2.61298 129.98932 0 1 -108.78973 -961.64151 A 3.5 2.61298 129.98932 0 1 -108.02783 -959.84658 Z" />
    <path d="M -159.90501 -1162.16633 A 3.5 2.61298 129.98932 0 1 -159.94633 -1162.25238" />
    <path d="M -154.36204 -1163.89669 A 3.5 2.61298 129.98932 0 1 -155.19391 -1162.48341" />
    <path d="M -159.11446 -1161.329 A 3.5 2.61298 129.98932 0 1 -159.40344 -1161.53007 A 3.5 2.61298 129.98932 0 1 -159.90501 -1162.16633" />
    <path d="M -317.90056 -1319.61735 A 3.5 2.61298 129.98932 0 1 -318.29597 -1319.87498 A 3.5 2.61298 129.98932 1 1 -313.79745 -1325.23813 A 3.5 2.61298 129.98932 0 1 -317.90056 -1319.61735 Z" />
    <path d="M -289.54091 -1303.96564 A 3.5 2.61298 129.98932 0 1 -289.77531 -1304.13441 A 3.5 2.61298 129.98932 1 1 -285.2768 -1309.49756 A 3.5 2.61298 129.98932 0 1 -289.54091 -1303.96564 Z" />
    <path d="M -262.91031 -1285.86791 A 3.5 2.61298 129.98932 0 1 -262.99353 -1285.93394 A 3.5 2.61298 129.98932 0 1 -258.49501 -1291.29709 A 3.5 2.61298 129.98932 0 1 -262.91031 -1285.86791 Z" />
    <path d="M -238.1385 -1265.41232 A 3.5 2.61298 129.98932 0 1 -233.58257 -1270.72537 A 3.5 2.61298 129.98932 0 1 -238.08108 -1265.36222 A 3.5 2.61298 129.98932 0 1 -238.1385 -1265.41232 Z" />
    <path d="M -215.34617 -1242.69854 A 3.5 2.61298 129.98932 0 1 -210.66084 -1247.88264 A 3.5 2.61298 129.98932 0 1 -215.15935 -1242.51949 A 3.5 2.61298 129.98932 0 1 -215.34617 -1242.69854 Z" />
    <path d="M -194.64435 -1217.83722 A 3.5 2.61298 129.98932 0 1 -189.84149 -1222.88017 A 3.5 2.61298 129.98932 0 1 -194.34 -1217.51702 A 3.5 2.61298 129.98932 0 1 -194.64435 -1217.83722 Z" />
    <path d="M -176.1339 -1190.94949 A 3.5 2.61298 129.98932 0 1 -171.22596 -1195.83979 A 3.5 2.61298 129.98932 0 1 -175.72447 -1190.47664 A 3.5 2.61298 129.98932 0 1 -176.1339 -1190.94949 Z" />
    <path d="M -115.34215 -995.01103 A 3.5 2.61298 129.98932 0 1 -110.08907 -998.78895 A 3.5 2.61298 129.98932 0 1 -114.58759 -993.4258 A 3.5 2.61298 129.98932 0 1 -115.34215 -995.01103 Z" />
    <path d="M -119.21188 -1031.00794 A 3.5 2.61298 129.98932 0 1 -113.98078 -1034.99022 A 3.5 2.61298 129.98932 0 1 -118.47929 -1029.62707 A 3.5 2.61298 129.98932 0 1 -119.21188 -1031.00794 Z" />
    <path d="M -125.64049 -1065.88865 A 3.5 2.61298 129.98932 0 1 -120.44589 -1070.06895 A 3.5 2.61298 129.98932 1 1 -124.9444 -1064.7058 A 3.5 2.61298 129.98932 0 1 -125.64049 -1065.88865 Z" />
    <path d="M -911.57522 -1243.89966 L -1203.65695 -1157.89541" />
    <path d="M -911.57522 -1243.89966 A 57.5 42.92747 129.98932 0 1 -945.85398 -1186.3202" />
    <path d="M -1418.31481 -891.36911 A 250 186.64115 129.98932 0 1 -1203.65695 -1157.89541" />
    <path d="M -1246.6734 -624.56931 A 600 447.93877 129.98932 0 1 -1246.66524 -627.49864" />
    <path d="M -1228.43276 -767.12644 A 600 447.93877 129.98932 0 1 -945.85398 -1186.3202" />
    <path d="M -1418.31481 -891.36911 L -1418.73922 -877.62227 L -1418.73922 467.41552 L -1246.6734 416.75028 L -1246.6734 -106.8457" />
    <path d="M -1246.6734 -261.76657 L -1246.6734 -280.39896" />
    <path d="M -1246.6734 -435.31984 L -1246.6734 -453.95222" />
    <path d="M -1246.6734 -608.8731 L -1246.6734 -624.56931" />
    <path d="M -1263.11679 -275.55899 A 3.5 2.61298 129.98932 0 1 -1261.63073 -275.07783 A 3.5 2.61298 129.98932 0 1 -1260.89831 -273.69817" />
    <path d="M -1263.11679 -449.11225 A 3.5 2.61298 129.98932 0 1 -1261.63073 -448.63109 A 3.5 2.61298 129.98932 0 1 -1260.89831 -447.25143" />
    <path d="M -1263.11679 -622.66551 A 3.5 2.61298 129.98932 0 1 -1261.63073 -622.18436 A 3.5 2.61298 129.98932 0 1 -1260.89831 -620.8047" />
    <path d="M -1215.01396 -851.48664 A 3.5 2.61298 129.98932 0 1 -1220.01404 -849.23041 A 3.5 2.61298 129.98932 1 1 -1215.51552 -854.59356 A 3.5 2.61298 129.98932 0 1 -1215.01396 -851.48664 Z" />
    <path d="M -1057.01841 -1101.9821 A 3.5 2.61298 129.98932 0 1 -1061.12152 -1101.14798 A 3.5 2.61298 129.98932 0 1 -1056.623 -1106.51113 A 3.5 2.61298 129.98932 0 1 -1057.01841 -1101.9821 Z" />
    <path d="M -1085.37806 -1069.62924 A 3.5 2.61298 129.98932 0 1 -1089.64217 -1068.61145 A 3.5 2.61298 129.98932 0 1 -1085.14365 -1073.9746 A 3.5 2.61298 129.98932 0 1 -1085.37806 -1069.62924 Z" />
    <path d="M -1112.00866 -1035.8486 A 3.5 2.61298 129.98932 0 1 -1116.42395 -1034.63904 A 3.5 2.61298 129.98932 0 1 -1111.92544 -1040.00219 A 3.5 2.61298 129.98932 0 1 -1112.00866 -1035.8486 Z" />
    <path d="M -1136.78047 -1000.80477 A 3.5 2.61298 129.98932 0 1 -1141.3364 -999.39625 A 3.5 2.61298 129.98932 0 1 -1136.83789 -1004.7594 A 3.5 2.61298 129.98932 0 1 -1136.78047 -1000.80477 Z" />
    <path d="M -1159.5728 -964.66845 A 3.5 2.61298 129.98932 0 1 -1164.25813 -963.05478 A 3.5 2.61298 129.98932 0 1 -1159.75962 -968.41793 A 3.5 2.61298 129.98932 0 1 -1159.5728 -964.66845 Z" />
    <path d="M -1180.27462 -927.61572 A 3.5 2.61298 129.98932 0 1 -1185.07748 -925.79169 A 3.5 2.61298 129.98932 0 1 -1180.57897 -931.15484 A 3.5 2.61298 129.98932 0 1 -1180.27462 -927.61572 Z" />
    <path d="M -1198.78507 -889.82708 A 3.5 2.61298 129.98932 0 1 -1203.69301 -887.78852 A 3.5 2.61298 129.98932 0 1 -1199.1945 -893.15167 A 3.5 2.61298 129.98932 0 1 -1198.78507 -889.82708 Z" />
    <path d="M -1228.88223 -812.78119 A 3.5 2.61298 129.98932 0 1 -1233.96104 -810.30523 A 3.5 2.61298 129.98932 0 1 -1229.46253 -815.66838 A 3.5 2.61298 129.98932 0 1 -1228.88223 -812.78119 Z" />
    <path d="M -1219.61453 -1195.65421 L -1187.24611 -1168.50416" />
    <path d="M -1208.75434 -1162.17101 L -1187.24611 -1168.50416" />
    <path d="M -1208.75434 -1162.17101 L -1203.65695 -1157.89541" />
    <path d="M -916.67261 -1248.17526 L -911.57522 -1243.89966" />
    <path d="M -916.67261 -1248.17526 L -468.44114 -1380.15823" />
    <path d="M -171.26202 -1461.88689 L -176.35941 -1466.16249" />
    <path d="M -197.86764 -1459.82933 L -176.35941 -1466.16249" />
    <path d="M -197.86764 -1459.82933 L -230.23607 -1486.97938" />
    <path d="M -208.72784 -1493.31254 L -230.23607 -1486.97938" />
    <path d="M -208.72784 -1493.31254 L -213.82523 -1497.58814" />
    <path d="M -505.90696 -1411.58388 L -213.82523 -1497.58814" />
    <path d="M -500.80957 -1407.30828 L -505.90696 -1411.58388 A 57.5 42.92747 309.98932 0 0 -505.57433 -1405.90528" />
    <path d="M -500.80957 -1407.30828 L -949.04103 -1275.32531" />
    <path d="M -954.13842 -1279.60091 L -949.04103 -1275.32531" />
    <path d="M -1246.22015 -1193.59666 L -954.13842 -1279.60091" />
    <path d="M -1246.22015 -1193.59666 L -1241.12276 -1189.32106" />
    <path d="M -1219.61453 -1195.65421 L -1241.12276 -1189.32106" />
    <path d="M -15.69822 -1440.76198 A 250 186.64115 309.98932 0 0 -176.35941 -1466.16249" />
    <path d="M -177.52034 -1155.90934 A 600 447.93877 309.98932 0 0 -178.03478 -1156.92619" />
    <path d="M -188.93122 -1176.83671 A 600 447.93877 309.98932 0 0 -261.4155 -1263.72136" />
    <path d="M -133.34296 -479.93797 L -133.34296 -765.41339" />
    <path d="M -133.34296 -810.77208 L -133.34296 -958.16901" />
    <path d="M -1208.75434 -1162.17101 A 250 186.64115 309.98932 0 0 -1423.4122 -895.64471 L -1423.83661 -881.89787 L -1423.83661 463.13992 L -1418.73922 467.41552" />
    <path d="M -1423.4122 -895.64471 L -1418.31481 -891.36911" />
    <path d="M -1423.83661 -881.89787 L -1418.73922 -877.62227" />
    <path d="M -1219.61453 -1186.97655 L -1219.61453 -1195.65421" />
    <path d="M -1219.61453 -1186.97655 L -1194.90354 -1166.24941" />
    <path d="M -911.6589 -1240.9739 L -467.68729 -1371.70254" />
    <path d="M -208.72784 -1493.31254 A 250 186.64115 129.98932 0 1 -48.06665 -1467.91203 A 250 186.64115 129.98932 0 1 -32.91473 -1453.1063" />
    <path d="M -165.71138 -507.08802 L -165.71138 -755.88242" />
    <path d="M -165.71138 -801.24111 L -165.71138 -985.31906 L -170.80877 -989.59466 A 600 447.93877 309.98932 0 0 -184.04637 -1102.85251" />
    <path d="M -165.71138 -985.31906 A 600 447.93877 309.98932 0 0 -180.306 -1103.95387" />
    <path d="M -194.94865 -1149.44936 A 600 447.93877 309.98932 0 0 -195.82619 -1151.68746" />
    <path d="M -204.63878 -1172.21158 A 600 447.93877 309.98932 0 0 -278.16391 -1276.62374" />
    <path d="M -467.32509 -1369.94788 A 57.5 42.92747 129.98932 0 1 -471.95324 -1370.44642" />
    <path d="M -145.49365 -600.77738 A 3.5 2.61298 129.98932 0 1 -150.75406 -597.20916 A 3.5 2.61298 129.98932 0 1 -146.25554 -602.57231 A 3.5 2.61298 129.98932 0 1 -145.49365 -600.77738 Z" />
    <path d="M -145.49365 -644.1657 A 3.5 2.61298 129.98932 0 1 -150.75406 -640.59748 A 3.5 2.61298 129.98932 0 1 -146.25554 -645.96063 A 3.5 2.61298 129.98932 0 1 -145.49365 -644.1657 Z" />
    <path d="M -145.49365 -687.55401 A 3.5 2.61298 129.98932 0 1 -150.75406 -683.9858 A 3.5 2.61298 129.98932 0 1 -146.25554 -689.34895 A 3.5 2.61298 129.98932 0 1 -145.49365 -687.55401 Z" />
    <path d="M -145.49365 -730.94233 A 3.5 2.61298 129.98932 0 1 -150.75406 -727.37411 A 3.5 2.61298 129.98932 0 1 -146.25554 -732.73726 A 3.5 2.61298 129.98932 0 1 -145.49365 -730.94233 Z" />
    <path d="M -145.49365 -817.71896 A 3.5 2.61298 129.98932 0 1 -150.75406 -814.15074 A 3.5 2.61298 129.98932 0 1 -146.25554 -819.51389 A 3.5 2.61298 129.98932 0 1 -145.49365 -817.71896 Z" />
    <path d="M -145.49365 -861.10728 A 3.5 2.61298 129.98932 0 1 -150.75406 -857.53906 A 3.5 2.61298 129.98932 0 1 -146.25554 -862.90221 A 3.5 2.61298 129.98932 0 1 -145.49365 -861.10728 Z" />
    <path d="M -145.49365 -904.49559 A 3.5 2.61298 129.98932 0 1 -150.75406 -900.92738 A 3.5 2.61298 129.98932 0 1 -146.25554 -906.29053 A 3.5 2.61298 129.98932 0 1 -145.49365 -904.49559 Z" />
    <path d="M -145.49365 -947.88391 A 3.5 2.61298 129.98932 0 1 -150.75406 -944.31569 A 3.5 2.61298 129.98932 0 1 -146.25554 -949.67884 A 3.5 2.61298 129.98932 0 1 -145.49365 -947.88391 Z" />
    <path d="M -145.49365 -991.27222 A 3.5 2.61298 129.98932 0 1 -150.75406 -987.70401 A 3.5 2.61298 129.98932 0 1 -146.25554 -993.06716 A 3.5 2.61298 129.98932 0 1 -145.49365 -991.27222 Z" />
    <path d="M -152.80796 -1026.43668 A 3.5 2.61298 129.98932 0 1 -147.55489 -1030.2146 A 3.5 2.61298 129.98932 0 1 -152.0534 -1024.85145 A 3.5 2.61298 129.98932 0 1 -152.80796 -1026.43668 Z" />
    <path d="M -163.10631 -1097.3143 A 3.5 2.61298 129.98932 0 1 -157.9117 -1101.4946 A 3.5 2.61298 129.98932 1 1 -162.41022 -1096.13145 A 3.5 2.61298 129.98932 0 1 -163.10631 -1097.3143 Z" />
    <path d="M -156.6777 -1062.43359 A 3.5 2.61298 129.98932 0 1 -151.4466 -1066.41587 A 3.5 2.61298 129.98932 0 1 -155.94511 -1061.05272 A 3.5 2.61298 129.98932 0 1 -156.6777 -1062.43359 Z" />
    <path d="M -53.16404 -1472.18763 A 250 186.64115 309.98932 0 0 -213.82523 -1497.58814" />
    <path d="M -196.59858 -1144.51516 A 600 447.93877 309.98932 0 0 -198.91454 -1150.77808" />
    <path d="M -207.4164 -1171.3937 A 600 447.93877 309.98932 0 0 -280.87983 -1278.56217" />
    <path d="M -170.80877 -511.36362 L -170.80877 -754.38148" />
    <path d="M -170.80877 -799.74017 L -170.80877 -989.59466" />
    <path d="M -1461.30243 -913.32352 L -1461.30243 431.71427 L -1456.20504 435.98987 L -1423.83661 426.4589" />
    <path d="M -1460.87801 -927.07036 L -1461.30243 -913.32352 L -1456.20504 -909.04792 L -1456.20504 435.98987" />
    <path d="M -1246.22015 -1193.59666 A 250 186.64115 309.98932 0 0 -1460.87801 -927.07036 L -1455.78062 -922.79476 L -1456.20504 -909.04792" />
    <path d="M -1455.78062 -922.79476 A 250 186.64115 129.98932 0 1 -1241.12276 -1189.32106" />
    <path d="M -308.27391 670.52864 L -308.27391 615.42547 L 238.03507 454.56332 L -293.84586 8.43119" />
    <path d="M -313.85106 665.85062 L -308.27391 670.52864 L 238.03507 509.66648 L 238.03507 454.56332" />
    <path d="M -313.85106 610.74746 L -308.27391 615.42547" />
    <path d="M -522.51703 -183.37406 L -604.78664 -252.38033" />
    <path d="M -877.09895 -317.51311 L -893.54072 -312.67178" />
    <path d="M -1183.39608 -227.32309 L -1199.83786 -222.48176" />
    <path d="M 241.47639 508.65317 L 241.47639 453.55001 L 787.78537 292.68785 L 328.70553 -92.38003" />
    <path d="M 238.03507 505.76666 L 241.47639 508.65317 L 787.78537 347.79101 L 787.78537 292.68785" />
    <path d="M -603.94094 -255.57079 L -521.76669 -186.64451" />
    <path d="M -293.00016 5.24072 L 241.47639 453.55001" />
    <path d="M 306.13184 -111.31444 L -28.41078 -391.92275" />
    <path d="M -119.43743 -468.27426 L -183.2674 -521.81369 L -279.74699 -493.40501" />
    <path d="M -308.91265 -484.8171 L -538.06406 -417.34285" />
    <path d="M -778.79089 -878.94249 L 104.89262 -137.72471 L 104.89262 -146.40238 A 200 99.39449 180 0 0 367.90096 -108.54309 L 378.90624 -111.55565 L 1083.68784 -319.0805 L 1104.44951 -326.10483 A 200 99.39449 180 0 0 1181.74004 -404.59247 L 1181.74004 -395.91481" />
    <path d="M -778.79089 -887.62016 L 104.89262 -146.40238" />
    <path d="M -806.72507 -929.60774 A 200 99.39449 180 0 0 -778.79089 -878.94249 L -778.79089 -887.62016" />
    <path d="M -729.43454 -1016.77305 A 200 99.39449 180 0 0 -806.72507 -938.2854 L -806.72507 -929.60774" />
    <path d="M -806.72507 -938.2854 A 200 99.39449 180 0 0 -778.79089 -887.62016" />
    <path d="M 367.90096 -99.86543 L 367.90096 -108.54309" />
    <path d="M 104.89262 -137.72471 A 200 99.39449 180 0 0 367.90096 -99.86543 L 378.90624 -102.87799 L 378.90624 -111.55565" />
    <path d="M 378.90624 -102.87799 L 1083.68784 -310.40284 L 1083.68784 -319.0805" />
    <path d="M 1083.68784 -310.40284 L 1104.44951 -317.42717 L 1104.44951 -326.10483" />
    <path d="M 1104.44951 -317.42717 A 200 99.39449 180 0 0 1181.74004 -395.91481" />
    <path d="M 1156.52213 -400.25364 A 175 86.97018 180 0 0 1132.29763 -440.2469 L 1132.29763 -448.92457 L 248.61413 -1190.14234 A 175 86.97018 180 0 0 18.48182 -1223.26922 L 8.85221 -1220.63323 L -695.92939 -1013.10838 L -714.09586 -1006.96209 A 175 86.97018 180 0 0 -781.72507 -938.2854 A 175 86.97018 180 0 0 -757.28266 -893.95331 L 126.40085 -152.73553 A 175 86.97018 180 0 0 356.53315 -119.60866 L 366.16276 -122.24465 L 1070.94436 -329.7695 L 1089.11083 -335.91578 A 175 86.97018 180 0 0 1156.74004 -404.59247 A 175 86.97018 180 0 0 1132.29763 -448.92457" />
    <path d="M 1132.29763 -440.2469 L 248.61413 -1181.46468 L 248.61413 -1190.14234" />
    <path d="M 248.61413 -1181.46468 A 175 86.97018 180 0 0 18.48182 -1214.59155 L 18.48182 -1223.26922" />
    <path d="M 18.48182 -1214.59155 L 8.85221 -1211.95557 L 8.85221 -1220.63323" />
    <path d="M 8.85221 -1211.95557 L -695.92939 -1004.43072 L -695.92939 -1013.10838" />
    <path d="M -695.92939 -1004.43072 L -714.09586 -998.28443 L -714.09586 -1006.96209" />
    <path d="M -714.09586 -998.28443 A 175 86.97018 180 0 0 -781.50715 -933.94657" />
    <path d="M -708.67287 -1023.79737 L -729.43454 -1016.77305" />
    <path d="M -3.89126 -1231.32223 L -708.67287 -1023.79737" />
    <path d="M 7.11401 -1234.33478 L -3.89126 -1231.32223" />
    <path d="M 270.12235 -1196.4755 A 200 99.39449 180 0 0 7.11401 -1234.33478" />
    <path d="M 1181.74004 -404.59247 A 200 99.39449 180 0 0 1153.80586 -455.25772 L 270.12235 -1196.4755" />
    <path d="M 1285.79929 514.46243 L 1280.7019 510.18683" />
    <path d="M 1285.79929 514.46243 L 1285.79929 1078.51053 L 941.66765 1179.84103 L 859.84549 927.03102 A 100 74.65646 129.98932 0 1 905.03662 808.39108 L 939.94096 780.24762 L 1124.45892 747.85503 A 100 74.65646 309.98932 0 0 1210.63292 678.19346 L 1285.79929 514.46243 Z" />
    <path d="M 941.66765 1179.84103 L 936.57026 1175.56543 L 854.7481 922.75543" />
    <path d="M 859.84549 927.03102 L 854.7481 922.75543" />
    <path d="M 899.93923 804.11548 A 100 74.65646 309.98932 0 0 854.7481 922.75543" />
    <path d="M 905.03662 808.39108 L 899.93923 804.11548 L 934.84357 775.97202 L 1119.36153 743.57944 A 100 74.65646 309.98932 0 0 1205.53553 673.91786 L 1280.7019 510.18683" />
    <path d="M 939.94096 780.24762 L 934.84357 775.97202" />
    <path d="M 1124.45892 747.85503 L 1119.36153 743.57944" />
    <path d="M 1210.63292 678.19346 L 1205.53553 673.91786" />
    <path d="M 917.12413 -658.32743 L 922.22152 -654.05183" />
    <path d="M 879.65831 -689.75308 L 884.7557 -685.47748" />
    <path d="M 606.18334 -919.13894 L 611.28073 -914.86335" />
    <path d="M 568.71753 -950.56459 L 573.81492 -946.289" />
    <path d="M 295.24256 -1179.95046 L 300.33995 -1175.67486" />
    <path d="M 257.77675 -1211.37611 L 262.87414 -1207.10051" />
    <path d="M -15.69822 -1440.76198 L -10.60083 -1436.48638" />
    <path d="M -53.16404 -1472.18763 L -48.06665 -1467.91203" />
</svg>