<svg version="1.1" xmlns="http://www.w3.org/2000/svg" viewBox="-1446.531988126335 -1279.922696998666 2893.06397625267 2925.247513190996" fill="none" stroke="black" stroke-width="0.6%" vector-effect="non-scaling-stroke">
    <path d="M 631.53391 189.46193 L 629.57839 187.63949 L 91.92513 298.16718 L 95.9212 301.8913 L -38.49212 329.52322 L 0.02315 365.4174 L 1445.53199 68.25794 L 1321.25072 -47.56561" />
    <path d="M 631.53391 189.46193 L 631.53391 -175.94019 L 1321.25072 -317.72823 L 1062.10167 -559.24138 L 372.38487 -417.45334 L 631.53391 -175.94019" />
    <path d="M 372.38487 240.51187 L 372.38487 -417.45334" />
    <path d="M -556.7902 1035.4924 L -38.49212 1518.5187 L -38.49212 329.52322" />
    <path d="M -500.30755 1023.88102 L -556.7902 1035.4924" />
    <path d="M -496.05642 1042.15668 L -500.30755 1038.19485" />
    <path d="M -496.05642 1042.15668 L -315.02839 1004.94197 L -315.02839 375.5584 A 600 488.29744 132.98258 0 1 1.77067 -179.97907 L 1.77067 -229.03898 L -450.79941 -136.00221 L -450.79941 -134.65353 L -496.05642 -125.34985 L -496.05642 1042.15668 Z" />
    <path d="M 91.92513 302.71279 L 91.92513 298.16718" />
    <path d="M 1321.25072 47.67389 L 631.53391 189.46193" />
    <path d="M -48.02584 -1220.69704 L 734.08648 -491.80989" />
    <path d="M -137.18214 -1202.3688 L -48.02584 -1220.69704" />
    <path d="M -179.69347 -1241.9871 L -137.18214 -1202.3688 L -137.18214 -1182.22852 L -48.02584 -1200.55677 L -47.94081 -1200.47753 L -47.94081 -1171.46301" />
    <path d="M -0.02315 -1278.9227 L -179.69347 -1241.9871 L -179.69347 -1178.22833" />
    <path d="M 824.60049 -510.41725 L -0.02315 -1278.9227" />
    <path d="M 1321.25072 47.67389 L 1321.25072 -317.72823" />
    <path d="M -503.40432 -1111.6817 L -141.34825 -1186.11112 L -137.18214 -1182.22852" />
    <path d="M -503.40432 -1062.62179 L -503.40432 -1111.6817" />
    <path d="M -186.60526 -637.33581 A 600 488.29744 312.98258 0 0 -213.20159 -798.62278" />
    <path d="M -227.0807 -833.37672 A 600 488.29744 312.98258 0 0 -304.08296 -948.28336" />
    <path d="M -186.60526 -486.80043 L -186.60526 -637.33581" />
    <path d="M -182.35413 -487.67435 L -182.35413 -633.37398 A 600 488.29744 312.98258 0 0 -210.04589 -797.74722" />
    <path d="M -182.35413 -633.37398 L -186.60526 -637.33581" />
    <path d="M -499.15319 -1107.71987 L -47.94081 -1200.47753" />
    <path d="M -499.15319 -1058.65996 L -499.15319 -1107.71987 L -503.40432 -1111.6817" />
    <path d="M -227.0807 -838.56799 A 600 488.29744 312.98258 0 0 -301.84866 -946.41912" />
    <path d="M -473.64639 -1051.47832 A 600 488.29744 312.98258 0 0 -499.15319 -1058.65996" />
    <path d="M 534.46435 -657.70684 L 534.46435 -450.77271" />
    <path d="M 530.21322 -661.66867 L 534.46435 -657.70684" />
    <path d="M 504.70643 -685.43965 L 504.70643 -656.42512" />
    <path d="M 500.45529 -689.40148 L 504.70643 -685.43965" />
    <path d="M 258.14073 -915.22578 L 258.14073 -639.58783" />
    <path d="M 258.14073 -422.84925 L 258.14073 -189.70296" />
    <path d="M 253.8896 -919.18761 L 258.14073 -915.22578" />
    <path d="M 228.38281 -942.95859 L 228.38281 -913.94407" />
    <path d="M 224.13167 -946.92042 L 228.38281 -942.95859" />
    <path d="M -18.18289 -1172.74472 L -18.18289 -897.10677" />
    <path d="M -18.18289 -680.36819 L -18.18289 -447.2219" />
    <path d="M -22.43402 -1176.70655 L -18.18289 -1172.74472" />
    <path d="M -48.02584 -1200.55677 L -48.02584 -1220.69704" />
    <path d="M -473.64639 -1083.94889 L -22.43402 -1176.70655" />
    <path d="M -473.64639 -1034.88898 L -473.64639 -1083.94889" />
    <path d="M -156.84733 -609.603 A 600 488.29744 312.98258 0 0 -183.44366 -770.88997" />
    <path d="M -223.52926 -854.89284 A 600 488.29744 312.98258 0 0 -288.7475 -934.90678" />
    <path d="M -156.84733 -486.8732 L -156.84733 -609.603" />
    <path d="M -469.39526 -1079.98706 L -18.18289 -1172.74472" />
    <path d="M -469.39526 -1030.92715 L -469.39526 -1079.98706 L -473.64639 -1083.94889" />
    <path d="M -152.5962 -605.64117 A 600 488.29744 312.98258 0 0 -180.28796 -770.01441" />
    <path d="M -221.97494 -855.21237 A 600 488.29744 312.98258 0 0 -286.6147 -932.93363 A 600 488.29744 312.98258 0 0 -469.39526 -1030.92715" />
    <path d="M -152.5962 -482.91137 L -152.5962 -605.64117 L -156.84733 -609.603" />
    <path d="M -73.84901 -499.09977 L -152.5962 -482.91137 L -156.84733 -486.8732" />
    <path d="M -227.0807 -854.16275 L 224.13167 -946.92042" />
    <path d="M -227.0807 -805.10285 L -227.0807 -854.16275" />
    <path d="M 89.71836 -379.81686 A 600 488.29744 312.98258 0 0 63.12203 -541.10384" />
    <path d="M 49.24292 -575.85778 A 600 488.29744 312.98258 0 0 -27.75934 -690.76441" />
    <path d="M 89.71836 -257.08707 L 89.71836 -379.81686" />
    <path d="M -222.82957 -850.20092 L 228.38281 -942.95859" />
    <path d="M -222.82957 -801.14102 L -222.82957 -850.20092 L -227.0807 -854.16275" />
    <path d="M 93.96949 -375.85503 A 600 488.29744 312.98258 0 0 66.27773 -540.22828" />
    <path d="M 49.24292 -581.04905 A 600 488.29744 312.98258 0 0 -25.52504 -688.90017" />
    <path d="M -197.32277 -793.95938 A 600 488.29744 312.98258 0 0 -222.82957 -801.14102" />
    <path d="M 93.96949 -253.12524 L 93.96949 -375.85503 L 89.71836 -379.81686" />
    <path d="M 119.47629 -258.36878 L 93.96949 -253.12524 L 89.71836 -257.08707" />
    <path d="M -197.32277 -826.42994 L 253.8896 -919.18761" />
    <path d="M -197.32277 -777.37004 L -197.32277 -826.42994" />
    <path d="M 119.47629 -352.08405 A 600 488.29744 312.98258 0 0 92.87996 -513.37103" />
    <path d="M 52.79436 -597.3739 A 600 488.29744 312.98258 0 0 -12.42388 -677.38783" />
    <path d="M 119.47629 -229.35426 L 119.47629 -352.08405" />
    <path d="M -193.07164 -822.46811 L 258.14073 -915.22578" />
    <path d="M -193.07164 -773.40821 L -193.07164 -822.46811 L -197.32277 -826.42994" />
    <path d="M 123.72742 -348.12222 A 600 488.29744 312.98258 0 0 96.03566 -512.49547" />
    <path d="M 54.34868 -597.69342 A 600 488.29744 312.98258 0 0 -10.29108 -675.41469 A 600 488.29744 312.98258 0 0 -193.07164 -773.40821" />
    <path d="M 123.72742 -225.39243 L 123.72742 -348.12222 L 119.47629 -352.08405" />
    <path d="M 202.47461 -241.58083 L 123.72742 -225.39243 L 119.47629 -229.35426" />
    <path d="M 49.24292 -596.64381 L 500.45529 -689.40148" />
    <path d="M 49.24292 -547.58391 L 49.24292 -596.64381" />
    <path d="M 366.04198 -122.29792 A 600 488.29744 312.98258 0 0 339.44565 -283.5849" />
    <path d="M 325.56654 -318.33884 A 600 488.29744 312.98258 0 0 248.56428 -433.24547" />
    <path d="M 366.04198 0.43188 L 366.04198 -122.29792" />
    <path d="M 53.49405 -592.68198 L 504.70643 -685.43965" />
    <path d="M 53.49405 -543.62208 L 53.49405 -592.68198 L 49.24292 -596.64381" />
    <path d="M 370.29311 -118.33609 A 600 488.29744 312.98258 0 0 342.60135 -282.70934" />
    <path d="M 325.56654 -323.53011 A 600 488.29744 312.98258 0 0 250.79858 -431.38123" />
    <path d="M 79.00085 -536.44044 A 600 488.29744 312.98258 0 0 53.49405 -543.62208" />
    <path d="M 370.29311 4.39371 L 370.29311 -118.33609 L 366.04198 -122.29792" />
    <path d="M 372.38487 3.96369 L 370.29311 4.39371 L 366.04198 0.43188" />
    <path d="M 79.00085 -568.911 L 530.21322 -661.66867" />
    <path d="M 79.00085 -519.8511 L 79.00085 -568.911" />
    <path d="M 372.38487 -246.4502 A 600 488.29744 312.98258 0 0 369.20358 -255.85209" />
    <path d="M 329.11798 -339.85495 A 600 488.29744 312.98258 0 0 263.89974 -419.86889" />
    <path d="M 83.25198 -564.94917 L 534.46435 -657.70684" />
    <path d="M 83.25198 -515.88927 L 83.25198 -564.94917 L 79.00085 -568.911" />
    <path d="M 372.38487 -254.90525 A 600 488.29744 312.98258 0 0 372.35928 -254.97653" />
    <path d="M 330.6723 -340.17448 A 600 488.29744 312.98258 0 0 266.03254 -417.89575 A 600 488.29744 312.98258 0 0 83.25198 -515.88927" />
    <path d="M 325.56654 -339.12487 L 372.38487 -348.74951" />
    <path d="M 325.56654 -290.06496 L 325.56654 -339.12487" />
    <path d="M 329.81767 -335.16304 L 372.38487 -343.91376" />
    <path d="M 329.81767 -286.10313 L 329.81767 -335.16304 L 325.56654 -339.12487" />
    <path d="M 355.32447 -278.9215 A 600 488.29744 312.98258 0 0 329.81767 -286.10313" />
    <path d="M 355.32447 -311.39206 L 372.38487 -314.89924" />
    <path d="M 355.32447 -262.33215 L 355.32447 -311.39206" />
    <path d="M 359.5756 -307.43023 L 372.38487 -310.06348" />
    <path d="M 359.5756 -258.37032 L 359.5756 -307.43023 L 355.32447 -311.39206" />
    <path d="M 372.38487 -254.96932 A 600 488.29744 312.98258 0 0 359.5756 -258.37032" />
    <path d="M -1445.53199 297.14418 L 0.02315 1644.32482 L 1445.53199 1347.16536 L 1445.53199 68.25794" />
    <path d="M 0.02315 1644.32482 L 0.02315 365.4174" />
    <path d="M -556.7902 -153.50308 L -556.7902 1035.4924" />
    <path d="M -1445.53199 -981.76324 L -556.7902 -153.50308 L -466.27619 -172.11044 L -1312.50664 -960.75229 L -1223.35034 -979.08054 L -1265.86166 -1018.69884 L -1445.53199 -981.76324 Z" />
    <path d="M -1445.53199 297.14418 L -1445.53199 -981.76324" />
    <path d="M -466.27619 -172.11044 L -466.27619 -136.30765" />
    <path d="M -27.98726 -256.77179 L -466.27619 -166.67085" />
    <path d="M -27.98726 -227.75727 L -27.98726 -256.77179" />
    <path d="M -32.23839 -260.73362 L -466.27619 -171.50661" />
    <path d="M -274.55295 -486.55792 L -708.05992 -397.44003" />
    <path d="M -274.55295 -437.49802 L -274.55295 -486.55792" />
    <path d="M -498.72338 -202.3495 A 600 488.29744 132.98258 0 1 -274.55295 -437.49802" />
    <path d="M -278.80408 -490.51975 L -712.31105 -401.40186" />
    <path d="M -304.31088 -514.29073 L -737.81784 -425.17284" />
    <path d="M -304.31088 -485.27621 L -304.31088 -514.29073" />
    <path d="M -308.56201 -518.25256 L -742.06898 -429.13467" />
    <path d="M -550.87657 -744.07687 L -984.38354 -654.95898" />
    <path d="M -550.87657 -695.01696 L -550.87657 -744.07687" />
    <path d="M -775.047 -459.86844 A 600 488.29744 132.98258 0 1 -550.87657 -695.01696" />
    <path d="M -555.1277 -748.0387 L -988.63467 -658.92081" />
    <path d="M -580.6345 -771.80967 L -1014.14146 -682.69179" />
    <path d="M -580.6345 -742.79515 L -580.6345 -771.80967" />
    <path d="M -584.88563 -775.7715 L -1018.3926 -686.65362" />
    <path d="M -827.20019 -1001.59581 L -1260.70716 -912.47792" />
    <path d="M -827.20019 -952.5359 L -827.20019 -1001.59581" />
    <path d="M -1051.37062 -717.38739 A 600 488.29744 132.98258 0 1 -827.20019 -952.5359" />
    <path d="M -831.45132 -1005.55764 L -1264.95829 -916.43975" />
    <path d="M -856.95812 -1029.32862 L -1290.46508 -940.21073" />
    <path d="M -856.95812 -1000.3141 L -856.95812 -1029.32862" />
    <path d="M -861.20925 -1033.29045 L -1294.71622 -944.17256" />
    <path d="M -1223.35034 -958.84355 L -1223.35034 -979.08054" />
    <path d="M -500.30755 -129.31168 L -500.30755 1038.19485" />
    <path d="M -455.05054 -138.61536 L -500.30755 -129.31168 L -496.05642 -125.34985" />
    <path d="M -455.05054 -139.96403 L -455.05054 -138.61536 L -450.79941 -134.65353" />
    <path d="M -2.48046 -233.00081 L -455.05054 -139.96403 L -450.79941 -136.00221" />
    <path d="M -503.40432 -1062.62179 L -499.15319 -1058.65996" />
    <path d="M -473.64639 -1034.88898 L -469.39526 -1030.92715" />
    <path d="M 89.71836 -346.66367 L -73.84901 -499.09977" />
    <path d="M 366.04198 -89.14473 L 202.47461 -241.58083" />
    <path d="M -483.39188 -226.96575 L -431.54433 -178.64658" />
    <path d="M -207.06827 30.55319 L 86.22293 303.88501" />
    <path d="M -156.84733 -492.91789 L -274.55295 -468.72064" />
    <path d="M -227.0807 -805.10285 L -222.82957 -801.14102" />
    <path d="M -197.32277 -777.37004 L -193.07164 -773.40821" />
    <path d="M 49.24292 -547.58391 L 53.49405 -543.62208" />
    <path d="M 79.00085 -519.8511 L 83.25198 -515.88927" />
    <path d="M 325.56654 -290.06496 L 329.81767 -286.10313" />
    <path d="M 355.32447 -262.33215 L 359.5756 -258.37032" />
    <path d="M -861.20925 -1033.29045 L -856.95812 -1029.32862" />
    <path d="M -831.45132 -1005.55764 L -827.20019 -1001.59581" />
    <path d="M -584.88563 -775.7715 L -580.6345 -771.80967" />
    <path d="M -555.1277 -748.0387 L -550.87657 -744.07687" />
    <path d="M -308.56201 -518.25256 L -304.31088 -514.29073" />
    <path d="M -278.80408 -490.51975 L -274.55295 -486.55792" />
    <path d="M -32.23839 -260.73362 L -27.98726 -256.77179" />
    <path d="M -315.02839 517.90518 L -38.49212 461.05643" />
    <path d="M -315.02839 460.8111 L -38.49212 403.96235" />
    <path d="M 82.60237 304.62931 L -208.73248 33.1207" />
    <path d="M -435.16489 -177.90229 L -485.0561 -224.39824" />
    <path d="M -2.48046 -233.00081 L 1.77067 -229.03898" />
</svg>