<svg version="1.1" xmlns="http://www.w3.org/2000/svg" viewBox="-1446.5317900930447 -1279.9225532981063 2893.0635801860894 2925.2472432202576" fill="none" stroke="black" stroke-width="0.6%" vector-effect="non-scaling-stroke">
    <path d="M 631.53367 189.46182 L 629.57815 187.63938 L 91.92485 298.16701 L 95.92091 301.89113 L -38.49241 329.52304 L 0.02284 365.41721 L 1445.53179 68.25792 L 1321.25053 -47.56565" />
    <path d="M 631.53367 189.46182 L 631.53367 -175.94031 L 1321.25053 -317.72828 L 1062.10157 -559.2414 L 372.38472 -417.45343 L 631.53367 -175.94031" />
    <path d="M 372.38472 240.51171 L 372.38472 -417.45343" />
    <path d="M -556.79032 1035.49233 L -38.49241 1518.51857 L -38.49241 329.52304" />
    <path d="M -466.27629 1016.88499 L -556.79032 1035.49233" />
    <path d="M 91.92485 302.71262 L 91.92485 298.16701" />
    <path d="M 1321.25053 47.67386 L 631.53367 189.46182" />
    <path d="M -48.02555 -1220.69691 L 734.08638 -491.80995" />
    <path d="M -137.18186 -1202.36868 L -48.02555 -1220.69691" />
    <path d="M -179.69317 -1241.98697 L -137.18186 -1202.36868 L -137.18186 -1182.2284 L -48.02555 -1200.55664 L -47.94053 -1200.4774 L -47.94053 -474.95454" />
    <path d="M -0.02284 -1278.92255 L -179.69317 -1241.98697 L -179.69317 -1178.22821" />
    <path d="M 824.60041 -510.41729 L -0.02284 -1278.92255" />
    <path d="M 1321.25053 47.67386 L 1321.25053 -317.72828" />
    <path d="M -1223.35014 -958.84355 L -1223.35014 -979.08054 L -1265.86145 -1018.69884 L -1445.53179 -981.76326 L -556.79032 -153.5032 L -466.27629 -172.11055 L -1312.50645 -960.75231 L -1223.35014 -979.08054" />
    <path d="M -1445.53179 297.14422 L -1445.53179 -981.76326" />
    <path d="M -141.34797 -1186.111 L -137.18186 -1182.2284" />
    <path d="M -503.40406 -1111.68162 L -141.34797 -1186.111" />
    <path d="M -503.40406 -1032.91007 L -503.40406 -1111.68162" />
    <path d="M -191.64916 -546.38677 A 900 732.44625 312.98259 0 0 -385.51198 -946.4644" />
    <path d="M -186.60498 -486.80029 L -186.60498 -542.58797" />
    <path d="M -182.35385 -543.46189 L -182.35385 -487.67421" />
    <path d="M -499.15293 -1107.71979 L -47.94053 -1200.4774" />
    <path d="M -499.15293 -1028.94824 L -499.15293 -1107.71979 L -503.40406 -1111.68162" />
    <path d="M -187.39802 -542.42494 A 900 732.44625 312.98259 0 0 -383.38158 -944.48867 A 900 732.44625 312.98259 0 0 -499.15293 -1028.94824" />
    <path d="M -182.35385 -543.46189 L -187.39802 -542.42494" />
    <path d="M -48.02555 -1200.55664 L -48.02555 -1220.69691" />
    <path d="M -1445.53179 297.14422 L 0.02284 1644.32469 L 1445.53179 1347.1654 L 1445.53179 68.25792" />
    <path d="M 0.02284 1644.32469 L 0.02284 365.41721" />
    <path d="M -556.79032 -153.5032 L -556.79032 1035.49233" />
    <path d="M -466.27629 -172.11055 L -466.27629 1016.88499" />
    <path d="M -856.95789 -1029.32858 L -1290.4649 -940.21074" />
    <path d="M -856.95789 -950.55704 L -856.95789 -1029.32858" />
    <path d="M -1043.71266 -710.25071 A 900 732.44625 132.98259 0 1 -856.95789 -950.55704" />
    <path d="M -861.20903 -1033.29041 L -1294.71603 -944.17257" />
    <path d="M -503.40406 -1032.91007 L -499.15293 -1028.94824" />
    <path d="M -191.64916 -546.38677 L -187.39802 -542.42494" />
    <path d="M -861.20903 -1033.29041 L -856.95789 -1029.32858" />
    <path d="M -426.72196 540.86642 L -426.72196 483.77234 L -38.49241 403.96237" />
    <path d="M -466.27629 504.00387 L -426.72196 540.86642 L -38.49241 461.05646" />
    <path d="M -466.27629 446.90979 L -426.72196 483.77234" />
    <path d="M 82.60214 304.62913 L -661.79839 -389.1128 L -692.37892 -382.82624" />
    <path d="M -658.17783 -385.73863 L -658.17783 -389.8571 L 86.2227 303.88483" />
    <path d="M 372.38472 -83.23364 L -83.41378 -508.01373 L -658.17783 -389.8571" />
</svg>