<svg version="1.1" xmlns="http://www.w3.org/2000/svg" viewBox="-1446.531988126335 -1279.922696998666 2893.06397625267 2925.247513190996" fill="none" stroke="black" stroke-width="0.6%" vector-effect="non-scaling-stroke">
    <path d="M 631.53391 189.46193 L 629.57839 187.63949 L 91.92513 298.16718 L 95.9212 301.8913 L -38.49212 329.52322 L 0.02315 365.4174 L 1445.53199 68.25794 L 1321.25072 -47.56561" />
    <path d="M 631.53391 189.46193 L 631.53391 -175.94019 L 1321.25072 -317.72823 L 1062.10167 -559.24138 L 372.38487 -417.45334 L 631.53391 -175.94019" />
    <path d="M 372.38487 240.51187 L 372.38487 -417.45334" />
    <path d="M -556.7902 1035.4924 L -38.49212 1518.5187 L -38.49212 329.52322" />
    <path d="M -466.27619 1016.88504 L -556.7902 1035.4924" />
    <path d="M -466.27619 963.49832 L -378.79538 945.51452 L -378.79538 531.01404" />
    <path d="M 91.92513 302.71279 L 91.92513 298.16718" />
    <path d="M 1321.25072 47.67389 L 631.53391 189.46193" />
    <path d="M -48.02584 -1220.69704 L 734.08648 -491.80989" />
    <path d="M -137.18214 -1202.3688 L -48.02584 -1220.69704" />
    <path d="M -179.69347 -1241.9871 L -137.18214 -1202.3688 L -137.18214 -1182.22852 L -48.02584 -1200.55677 L -47.94081 -1200.47753 L -47.94081 -1171.46301" />
    <path d="M -0.02315 -1278.9227 L -179.69347 -1241.9871 L -179.69347 -1178.22833" />
    <path d="M 824.60049 -510.41725 L -0.02315 -1278.9227" />
    <path d="M 1321.25072 47.67389 L 1321.25072 -317.72823" />
    <path d="M -503.40432 -1111.6817 L -141.34825 -1186.11112 L -137.18214 -1182.22852" />
    <path d="M -503.40432 -1062.62179 L -503.40432 -1111.6817" />
    <path d="M -186.60526 -637.33581 A 600 488.29744 312.98258 0 0 -211.06674 -792.39013" />
    <path d="M -218.57843 -813.13356 A 600 488.29744 312.98258 0 0 -218.86199 -813.85752" />
    <path d="M -248.08646 -874.02328 A 600 488.29744 312.98258 0 0 -304.08296 -948.28336" />
    <path d="M -186.60526 -486.80043 L -186.60526 -637.33581" />
    <path d="M -182.35413 -487.67435 L -182.35413 -633.37398 A 600 488.29744 312.98258 0 0 -207.87364 -791.5547" />
    <path d="M -182.35413 -633.37398 L -186.60526 -637.33581" />
    <path d="M -499.15319 -1107.71987 L -47.94081 -1200.47753" />
    <path d="M -499.15319 -1058.65996 L -499.15319 -1107.71987 L -503.40432 -1111.6817" />
    <path d="M -246.4039 -874.36917 A 600 488.29744 312.98258 0 0 -301.84866 -946.41912" />
    <path d="M -473.64639 -1051.47832 A 600 488.29744 312.98258 0 0 -499.15319 -1058.65996" />
    <path d="M 713.01192 -491.30998 L 716.38107 -488.17011" />
    <path d="M 491.95303 -697.32514 L 491.95303 -445.86595" />
    <path d="M 487.7019 -701.28697 L 491.95303 -697.32514" />
    <path d="M 462.1951 -725.05794 L 462.1951 -696.04342" />
    <path d="M 457.94397 -729.01977 L 462.1951 -725.05794" />
    <path d="M 236.88507 -935.03493 L 236.88507 -683.57575" />
    <path d="M 236.88507 -436.43254 L 236.88507 -209.51211" />
    <path d="M 232.63394 -938.99676 L 236.88507 -935.03493" />
    <path d="M 207.12714 -962.76774 L 207.12714 -933.75322" />
    <path d="M 202.87601 -966.72957 L 207.12714 -962.76774" />
    <path d="M -18.18289 -1172.74472 L -18.18289 -921.28554" />
    <path d="M -18.18289 -674.14234 L -18.18289 -447.2219" />
    <path d="M -22.43402 -1176.70655 L -18.18289 -1172.74472" />
    <path d="M -48.02584 -1200.55677 L -48.02584 -1220.69704" />
    <path d="M -473.64639 -1083.94889 L -22.43402 -1176.70655" />
    <path d="M -473.64639 -1034.88898 L -473.64639 -1083.94889" />
    <path d="M -156.84733 -609.603 A 600 488.29744 312.98258 0 0 -189.10406 -786.12471" />
    <path d="M -237.68284 -876.16199 A 600 488.29744 312.98258 0 0 -288.7475 -934.90678" />
    <path d="M -156.84733 -486.8732 L -156.84733 -609.603" />
    <path d="M -469.39526 -1079.98706 L -18.18289 -1172.74472" />
    <path d="M -469.39526 -1030.92715 L -469.39526 -1079.98706 L -473.64639 -1083.94889" />
    <path d="M -152.5962 -605.64117 A 600 488.29744 312.98258 0 0 -186.03927 -785.15161" />
    <path d="M -236.46955 -876.41142 A 600 488.29744 312.98258 0 0 -286.6147 -932.93363 A 600 488.29744 312.98258 0 0 -469.39526 -1030.92715" />
    <path d="M -152.5962 -482.91137 L -152.5962 -605.64117 L -156.84733 -609.603" />
    <path d="M -73.84901 -499.09977 L -152.5962 -482.91137 L -156.84733 -486.8732" />
    <path d="M -248.33636 -873.9719 L 202.87601 -966.72957" />
    <path d="M -248.33636 -824.912 L -248.33636 -873.9719" />
    <path d="M 68.4627 -399.62601 A 600 488.29744 312.98258 0 0 44.00122 -554.68034" />
    <path d="M 36.48952 -575.42377 A 600 488.29744 312.98258 0 0 36.20597 -576.14773" />
    <path d="M 6.9815 -636.31348 A 600 488.29744 312.98258 0 0 -49.015 -710.57356" />
    <path d="M 68.4627 -276.89622 L 68.4627 -399.62601" />
    <path d="M -244.08523 -870.01007 L 207.12714 -962.76774" />
    <path d="M -244.08523 -820.95017 L -244.08523 -870.01007 L -248.33636 -873.9719" />
    <path d="M 72.71383 -395.66418 A 600 488.29744 312.98258 0 0 47.19432 -553.84491" />
    <path d="M 8.66406 -636.65937 A 600 488.29744 312.98258 0 0 -46.7807 -708.70932" />
    <path d="M -218.57843 -813.76853 A 600 488.29744 312.98258 0 0 -244.08523 -820.95017" />
    <path d="M 72.71383 -272.93439 L 72.71383 -395.66418 L 68.4627 -399.62601" />
    <path d="M 98.22062 -278.17793 L 72.71383 -272.93439 L 68.4627 -276.89622" />
    <path d="M -218.57843 -846.23909 L 232.63394 -938.99676" />
    <path d="M -218.57843 -797.17919 L -218.57843 -846.23909" />
    <path d="M 98.22062 -371.8932 A 600 488.29744 312.98258 0 0 65.9639 -548.41492" />
    <path d="M 17.38512 -638.4522 A 600 488.29744 312.98258 0 0 -33.67955 -697.19698" />
    <path d="M 98.22062 -249.16341 L 98.22062 -371.8932" />
    <path d="M -214.3273 -842.27726 L 236.88507 -935.03493" />
    <path d="M -214.3273 -793.21736 L -214.3273 -842.27726 L -218.57843 -846.23909" />
    <path d="M 102.47176 -367.93137 A 600 488.29744 312.98258 0 0 69.02869 -547.44181" />
    <path d="M 18.59841 -638.70162 A 600 488.29744 312.98258 0 0 -31.54674 -695.22384 A 600 488.29744 312.98258 0 0 -214.3273 -793.21736" />
    <path d="M 102.47176 -245.20158 L 102.47176 -367.93137 L 98.22062 -371.8932" />
    <path d="M 181.21895 -261.38998 L 102.47176 -245.20158 L 98.22062 -249.16341" />
    <path d="M 6.7316 -636.26211 L 457.94397 -729.01977" />
    <path d="M 6.7316 -587.20221 L 6.7316 -636.26211" />
    <path d="M 323.53065 -161.91622 A 600 488.29744 312.98258 0 0 299.06918 -316.97054" />
    <path d="M 291.55748 -337.71398 A 600 488.29744 312.98258 0 0 291.27393 -338.43793" />
    <path d="M 262.04945 -398.60369 A 600 488.29744 312.98258 0 0 206.05295 -472.86377" />
    <path d="M 323.53065 -39.18642 L 323.53065 -161.91622" />
    <path d="M 10.98273 -632.30028 L 462.1951 -725.05794" />
    <path d="M 10.98273 -583.24038 L 10.98273 -632.30028 L 6.7316 -636.26211" />
    <path d="M 327.78179 -157.95439 A 600 488.29744 312.98258 0 0 302.26227 -316.13511" />
    <path d="M 263.73202 -398.94958 A 600 488.29744 312.98258 0 0 208.28725 -470.99953" />
    <path d="M 36.48952 -576.05874 A 600 488.29744 312.98258 0 0 10.98273 -583.24038" />
    <path d="M 327.78179 -35.22459 L 327.78179 -157.95439 L 323.53065 -161.91622" />
    <path d="M 353.28858 -40.46813 L 327.78179 -35.22459 L 323.53065 -39.18642" />
    <path d="M 36.48952 -608.5293 L 487.7019 -701.28697" />
    <path d="M 36.48952 -559.4694 L 36.48952 -608.5293" />
    <path d="M 353.28858 -134.18341 A 600 488.29744 312.98258 0 0 321.03186 -310.70513" />
    <path d="M 272.45307 -400.74241 A 600 488.29744 312.98258 0 0 221.38841 -459.48719" />
    <path d="M 353.28858 -11.45361 L 353.28858 -134.18341" />
    <path d="M 40.74066 -604.56747 L 491.95303 -697.32514" />
    <path d="M 40.74066 -555.50757 L 40.74066 -604.56747 L 36.48952 -608.5293" />
    <path d="M 357.53971 -130.22158 A 600 488.29744 312.98258 0 0 324.09665 -309.73202" />
    <path d="M 273.66637 -400.99183 A 600 488.29744 312.98258 0 0 223.52122 -457.51405 A 600 488.29744 312.98258 0 0 40.74066 -555.50757" />
    <path d="M 357.53971 -7.49178 L 357.53971 -130.22158 L 353.28858 -134.18341" />
    <path d="M 372.38487 -10.54357 L 357.53971 -7.49178 L 353.28858 -11.45361" />
    <path d="M 261.79955 -398.55232 L 713.01192 -491.30998" />
    <path d="M 261.79955 -349.49241 L 261.79955 -398.55232" />
    <path d="M 266.05068 -394.59049 L 372.38487 -416.45006" />
    <path d="M 266.05068 -345.53058 L 266.05068 -394.59049 L 261.79955 -398.55232" />
    <path d="M 291.55748 -338.34894 A 600 488.29744 312.98258 0 0 266.05068 -345.53058" />
    <path d="M 291.55748 -370.81951 L 372.38487 -387.43554" />
    <path d="M 291.55748 -321.7596 L 291.55748 -370.81951" />
    <path d="M 295.80861 -366.85768 L 372.38487 -382.59979" />
    <path d="M 295.80861 -317.79777 L 295.80861 -366.85768 L 291.55748 -370.81951" />
    <path d="M 372.38487 -290.92374 A 600 488.29744 312.98258 0 0 295.80861 -317.79777" />
    <path d="M -1445.53199 297.14418 L 0.02315 1644.32482 L 1445.53199 1347.16536 L 1445.53199 68.25794" />
    <path d="M 0.02315 1644.32482 L 0.02315 365.4174" />
    <path d="M -556.7902 -153.50308 L -556.7902 1035.4924" />
    <path d="M -1445.53199 -981.76324 L -556.7902 -153.50308 L -466.27619 -172.11044 L -1312.50664 -960.75229 L -1223.35034 -979.08054 L -1265.86166 -1018.69884 L -1445.53199 -981.76324 Z" />
    <path d="M -1445.53199 297.14418 L -1445.53199 -981.76324" />
    <path d="M -466.27619 -172.11044 L -466.27619 1016.88504" />
    <path d="M -61.99632 -288.46643 L -495.50329 -199.34854" />
    <path d="M -61.99632 -239.40652 L -61.99632 -288.46643" />
    <path d="M -378.79538 316.13095 A 600 488.29744 132.98258 0 1 -61.99632 -239.40652" />
    <path d="M -378.79538 438.86074 L -378.79538 316.13095" />
    <path d="M -457.54257 455.04914 L -378.79538 438.86074" />
    <path d="M -457.54257 455.04914 L -457.54257 512.14322 L -426.72186 540.86649 L -38.49212 461.05643" />
    <path d="M -66.24745 -292.42826 L -499.75442 -203.31037" />
    <path d="M -91.75425 -316.19924 L -525.26121 -227.08135" />
    <path d="M -91.75425 -287.18472 L -91.75425 -316.19924" />
    <path d="M -96.00538 -320.16107 L -529.51235 -231.04318" />
    <path d="M -317.06428 -526.17622 L -750.57124 -437.05833" />
    <path d="M -317.06428 -477.11632 L -317.06428 -526.17622" />
    <path d="M -541.23471 -241.9678 A 600 488.29744 132.98258 0 1 -317.06428 -477.11632" />
    <path d="M -321.31541 -530.13805 L -754.82237 -441.02016" />
    <path d="M -346.8222 -553.90903 L -780.32917 -464.79114" />
    <path d="M -346.8222 -524.89451 L -346.8222 -553.90903" />
    <path d="M -351.07334 -557.87086 L -784.5803 -468.75297" />
    <path d="M -572.13223 -763.88601 L -1005.6392 -674.76813" />
    <path d="M -572.13223 -714.82611 L -572.13223 -763.88601" />
    <path d="M -796.30267 -479.67759 A 600 488.29744 132.98258 0 1 -572.13223 -714.82611" />
    <path d="M -576.38337 -767.84784 L -1009.89033 -678.72996" />
    <path d="M -601.89016 -791.61882 L -1035.39713 -702.50094" />
    <path d="M -601.89016 -762.6043 L -601.89016 -791.61882" />
    <path d="M -606.14129 -795.58065 L -1039.64826 -706.46277" />
    <path d="M -827.20019 -1001.59581 L -1260.70716 -912.47792" />
    <path d="M -827.20019 -952.5359 L -827.20019 -1001.59581" />
    <path d="M -1051.37062 -717.38739 A 600 488.29744 132.98258 0 1 -827.20019 -952.5359" />
    <path d="M -831.45132 -1005.55764 L -1264.95829 -916.43975" />
    <path d="M -856.95812 -1029.32862 L -1290.46508 -940.21073" />
    <path d="M -856.95812 -1000.3141 L -856.95812 -1029.32862" />
    <path d="M -861.20925 -1033.29045 L -1294.71622 -944.17256" />
    <path d="M -1223.35034 -958.84355 L -1223.35034 -979.08054" />
    <path d="M -503.40432 -1062.62179 L -499.15319 -1058.65996" />
    <path d="M -473.64639 -1034.88898 L -469.39526 -1030.92715" />
    <path d="M 68.4627 -366.47282 L -73.84901 -499.09977" />
    <path d="M 323.53065 -128.76303 L 181.21895 -261.38998" />
    <path d="M -525.90321 -266.58405 L -495.31132 -238.07403" />
    <path d="M -270.83525 -28.87426 L 86.22293 303.88501" />
    <path d="M -156.84733 -492.91789 L -351.43135 -452.91642" />
    <path d="M -248.33636 -824.912 L -244.08523 -820.95017" />
    <path d="M -218.57843 -797.17919 L -214.3273 -793.21736" />
    <path d="M 6.7316 -587.20221 L 10.98273 -583.24038" />
    <path d="M 36.48952 -559.4694 L 40.74066 -555.50757" />
    <path d="M 261.79955 -349.49241 L 266.05068 -345.53058" />
    <path d="M 291.55748 -321.7596 L 295.80861 -317.79777" />
    <path d="M -861.20925 -1033.29045 L -856.95812 -1029.32862" />
    <path d="M -831.45132 -1005.55764 L -827.20019 -1001.59581" />
    <path d="M -606.14129 -795.58065 L -601.89016 -791.61882" />
    <path d="M -576.38337 -767.84784 L -572.13223 -763.88601" />
    <path d="M -351.07334 -557.87086 L -346.8222 -553.90903" />
    <path d="M -321.31541 -530.13805 L -317.06428 -526.17622" />
    <path d="M -96.00538 -320.16107 L -91.75425 -316.19924" />
    <path d="M -66.24745 -292.42826 L -61.99632 -288.46643" />
    <path d="M 82.60237 304.62931 L -272.49947 -26.30675" />
    <path d="M -498.93188 -237.32974 L -527.56742 -264.01654" />
    <path d="M -426.72186 483.77241 L -38.49212 403.96235" />
    <path d="M -457.54257 455.04914 L -426.72186 483.77241" />
    <path d="M -426.72186 540.86649 L -426.72186 483.77241" />
</svg>