<svg version="1.1" xmlns="http://www.w3.org/2000/svg" viewBox="-1446.531988126335 -1279.922696998666 2893.06397625267 2925.247513190996" fill="none" stroke="black" stroke-width="0.6%" vector-effect="non-scaling-stroke">
    <path d="M 631.53391 189.46193 L 629.57839 187.63949 L 91.92513 298.16718 L 95.9212 301.8913 L -38.49212 329.52322 L 0.02315 365.4174 L 1445.53199 68.25794 L 1321.25072 -47.56561" />
    <path d="M 631.53391 189.46193 L 631.53391 -175.94019 L 1321.25072 -317.72823 L 1062.10167 -559.24138 L 372.38487 -417.45334 L 631.53391 -175.94019" />
    <path d="M 372.38487 240.51187 L 372.38487 -417.45334" />
    <path d="M -556.7902 1035.4924 L -38.49212 1518.5187 L -38.49212 329.52322" />
    <path d="M -466.27619 1016.88504 L -556.7902 1035.4924" />
    <path d="M 91.92513 302.71279 L 91.92513 298.16718" />
    <path d="M 1321.25072 47.67389 L 631.53391 189.46193" />
    <path d="M -48.02584 -1220.69704 L 734.08648 -491.80989" />
    <path d="M -137.18214 -1202.3688 L -48.02584 -1220.69704" />
    <path d="M -179.69347 -1241.9871 L -137.18214 -1202.3688 L -137.18214 -1182.22852 L -48.02584 -1200.55677 L -47.94081 -1200.47753 L -47.94081 -474.95471" />
    <path d="M -0.02315 -1278.9227 L -179.69347 -1241.9871 L -179.69347 -1178.22833" />
    <path d="M 824.60049 -510.41725 L -0.02315 -1278.9227" />
    <path d="M 1321.25072 47.67389 L 1321.25072 -317.72823" />
    <path d="M -1223.35034 -958.84355 L -1223.35034 -979.08054 L -1265.86166 -1018.69884 L -1445.53199 -981.76324 L -556.7902 -153.50308 L -466.27619 -172.11044 L -1312.50664 -960.75229 L -1223.35034 -979.08054" />
    <path d="M -1445.53199 297.14418 L -1445.53199 -981.76324" />
    <path d="M -141.34825 -1186.11112 L -137.18214 -1182.22852" />
    <path d="M -503.40432 -1111.6817 L -141.34825 -1186.11112" />
    <path d="M -503.40432 -1062.62179 L -503.40432 -1111.6817" />
    <path d="M -186.60526 -637.33581 A 600 488.29744 312.98258 0 0 -318.50543 -962.63959" />
    <path d="M -186.60526 -486.80043 L -186.60526 -637.33581" />
    <path d="M -182.35413 -487.67435 L -182.35413 -633.37398 A 600 488.29744 312.98258 0 0 -316.37262 -960.66644 A 600 488.29744 312.98258 0 0 -499.15319 -1058.65996 L -499.15319 -1107.71987 L -503.40432 -1111.6817" />
    <path d="M -182.35413 -633.37398 L -186.60526 -637.33581" />
    <path d="M -499.15319 -1107.71987 L -47.94081 -1200.47753" />
    <path d="M -48.02584 -1200.55677 L -48.02584 -1220.69704" />
    <path d="M -1445.53199 297.14418 L 0.02315 1644.32482 L 1445.53199 1347.16536 L 1445.53199 68.25794" />
    <path d="M 0.02315 1644.32482 L 0.02315 365.4174" />
    <path d="M -556.7902 -153.50308 L -556.7902 1035.4924" />
    <path d="M -466.27619 -172.11044 L -466.27619 1016.88504" />
    <path d="M -856.95812 -1029.32862 L -1290.46508 -940.21073" />
    <path d="M -856.95812 -980.26871 L -856.95812 -1029.32862" />
    <path d="M -1081.12855 -745.1202 A 600 488.29744 132.98258 0 1 -856.95812 -980.26871" />
    <path d="M -861.20925 -1033.29045 L -1294.71622 -944.17256" />
    <path d="M -503.40432 -1062.62179 L -499.15319 -1058.65996" />
    <path d="M -861.20925 -1033.29045 L -856.95812 -1029.32862" />
    <path d="M -426.72186 540.86649 L -426.72186 483.77241 L -38.49212 403.96235" />
    <path d="M -466.27619 504.00396 L -426.72186 540.86649 L -38.49212 461.05643" />
    <path d="M -466.27619 446.90988 L -426.72186 483.77241" />
    <path d="M 82.60237 304.62931 L -661.79862 -389.11289 L -692.37908 -382.82633" />
    <path d="M -658.17806 -385.73872 L -658.17806 -389.85718 L 86.22293 303.88501" />
    <path d="M 372.38487 -83.23349 L -83.41405 -508.01389 L -658.17806 -389.85718" />
</svg>