<svg version="1.1" xmlns="http://www.w3.org/2000/svg" viewBox="-1449.9815467634357 -1304.7336131891586 2899.963093526871 2829.1301043295343" fill="none" stroke="black" stroke-width="0.6%" vector-effect="non-scaling-stroke">
    <path d="M -1448.98155 273.51728 L 5.43457 1523.39649 L 5.43457 223.90938 L 1448.98155 -53.8544 L 987.31734 -450.59402" />
    <path d="M -33.31678 190.6077 L 5.43457 223.90938" />
    <path d="M -33.31678 1398.73604 L -33.31678 190.6077" />
    <path d="M -554.79194 950.59678 L -33.31678 1398.73604" />
    <path d="M -554.79194 -257.53156 L -554.79194 950.59678" />
    <path d="M -1448.98155 -1025.96983 L -554.79194 -257.53156 L -464.40077 -274.92441 L -1315.81846 -1006.60585 L -1226.78316 -1023.7378 L -1269.55507 -1060.49463 L -1448.98155 -1025.96983 Z" />
    <path d="M -1448.98155 273.51728 L -1448.98155 -1025.96983" />
    <path d="M 5.43457 1523.39649 L 1448.98155 1245.63271 L 1448.98155 -53.8544" />
    <path d="M 96.89355 161.32418 L 100.91411 164.77932 L -33.31678 190.6077" />
    <path d="M 1315.81846 -73.21838 L 96.89355 161.32418" />
    <path d="M 985.96147 -356.68705 L 1315.81846 -73.21838" />
    <path d="M 987.31734 -356.94794 L 985.96147 -356.68705 L 985.96147 -9.7481" />
    <path d="M -53.05383 -1249.58394 L 772.83677 -539.83968" />
    <path d="M 805.09389 -512.11893 L 832.26734 -488.76692" />
    <path d="M 880.40161 -447.40186 L 936.15289 -399.49097" />
    <path d="M -142.08913 -1232.45198 L -53.05383 -1249.58394" />
    <path d="M -184.86104 -1269.20881 L -142.08913 -1232.45198 L -142.08913 -1211.98762 L -53.05383 -1229.11957 L -52.96828 -1229.04606 L -52.96828 -1202.05392" />
    <path d="M -5.43457 -1303.73361 L -184.86104 -1269.20881 L -184.86104 -1208.16626" />
    <path d="M 943.17637 -488.52737 L 895.39259 -529.59124" />
    <path d="M 863.22794 -557.23253 L -5.43457 -1303.73361" />
    <path d="M -498.29174 939.72515 L -554.79194 950.59678" />
    <path d="M -494.01455 956.71695 L -498.29174 953.04127" />
    <path d="M -494.01455 956.71695 L -313.23221 921.93125 L -313.23221 282.41988 A 600 495.48155 130.67472 0 1 3.13689 -276.75833 L 3.13689 -326.60769 L -448.81896 -239.64345 L -448.81896 -238.27307 L -494.01455 -229.57664 L -494.01455 956.71695 Z" />
    <path d="M -464.40077 -274.92441 L -464.40077 -239.77354" />
    <path d="M 96.89355 165.55294 L 96.89355 161.32418" />
    <path d="M 811.02435 -486.55811 L 811.02435 -365.9842" />
    <path d="M 811.02435 -272.66867 L 811.02435 -261.88373" />
    <path d="M 811.02435 -205.46789 L 811.02435 -196.97484" />
    <path d="M 811.02435 -150.80433 L 811.02435 -136.55539" />
    <path d="M 811.02435 -89.49812 L 811.02435 -75.54233" />
    <path d="M 811.02435 -21.6391 L 811.02435 4.51582" />
    <path d="M 806.74716 -490.2338 L 811.02435 -486.55811" />
    <path d="M 781.08401 -507.51497 L 781.08401 -485.29576" />
    <path d="M 533.00692 -725.4775 L 533.00692 -493.6922" />
    <path d="M 533.00692 -251.2678 L 533.00692 -248.28529" />
    <path d="M 533.00692 -174.6356 L 533.00692 -162.61044" />
    <path d="M 528.72973 -729.15318 L 533.00692 -725.4775" />
    <path d="M 503.06658 -751.20728 L 503.06658 -724.21514" />
    <path d="M 498.78939 -754.88296 L 503.06658 -751.20728" />
    <path d="M 254.98949 -964.39689 L 254.98949 -707.97158" />
    <path d="M 254.98949 -490.18719 L 254.98949 -233.07019" />
    <path d="M 250.7123 -968.07257 L 254.98949 -964.39689" />
    <path d="M 225.04915 -990.12667 L 225.04915 -963.13453" />
    <path d="M 220.77196 -993.80235 L 225.04915 -990.12667" />
    <path d="M -23.02795 -1203.31628 L -23.02795 -946.89097" />
    <path d="M -23.02795 -729.10658 L -23.02795 -471.98958" />
    <path d="M -27.30514 -1206.99196 L -23.02795 -1203.31628" />
    <path d="M -53.05383 -1229.11957 L -53.05383 -1249.58394" />
    <path d="M 309.38357 -446.16446 L 987.31734 -576.61082 L 987.31734 -356.94794" />
    <path d="M 309.38357 -440.46013 L 309.38357 -446.16446" />
    <path d="M 902.30274 -187.12432 C 902.58 -180.48 938.83 -138.21 938.04837 -143.02335 C 902.58 -180.48 938.83 -138.21 944.16374 -139.35858 C 948.93 -140.39 946.58 -185.54 946.72021 -203.16221 C 946.85 -220.27 948.24 -266.41 945.42362 -265.84786 C 946.85 -220.27 948.24 -266.41 945.14037 -265.94254 C 942.04 -265.47 931.4 -246.79 920.49485 -227.65011 C 910.51 -210.12 901.99 -194.84 902.30274 -187.12432 Z" />
    <path d="M 630.50231 58.64848 C 630.49 49.84 641.8 -3.41 646.76104 -15.38591 C 651.72 -27.36 654.52 -22.63 653.70243 -21.57018 C 651.72 -27.36 654.52 -22.63 660.0499 -10.20787 C 665.58 2.22 669.22 8.19 670.74382 7.12208 C 665.58 2.22 669.22 8.19 677.88295 11.04847 C 686.76 13.98 703.63 17.81 744.66332 16.63206 C 785.69 15.46 867.93 -0.01 904.24642 -13.28003 C 940.57 -26.56 946.21 -31.17 946.90213 -43.4697 C 947.59 -55.77 945.3 -61.35 944.44995 -56.71063 C 947.59 -55.77 945.3 -61.35 933.45912 -55.45993 C 921.62 -49.57 868.84 -26.86 787.67329 -18.84377 C 706.52 -10.83 636.67 -58.16 630.87071 -61.05929 C 625.07 -63.96 618.75 -71.79 623.03857 -65.96314" />
    <path d="M 684.13051 36.1463 C 672.81 30.09 674.76 38.82 674.89488 50.10657" />
    <path d="M 701.8274 44.92428 C 703.6 46.16 695.46 42.2 684.13051 36.1463" />
    <path d="M 662.8151 -210.54982 C 659.2 -205.86 655.34 -200.64 651.09459 -195.67057 C 646.85 -190.7 646.71 -189.62 651.78687 -185.71246 C 646.85 -190.7 646.71 -189.62 654.47545 -183.52289 C 665.75 -174.66 696.01 -157.93 761.22771 -140.67379 C 821.55 -124.71 889.16 -136.83 898.10898 -139.05059 C 907.06 -141.27 912.16 -136.23 914.42443 -137.79745 C 916.69 -139.37 909.13 -144.38 910.46268 -143.6192 C 916.69 -139.37 909.13 -144.38 905.77863 -147.57974 C 916.69 -139.37 909.13 -144.38 903.26979 -149.80704 C 897.63 -155.03 893.24 -160.13 900.42114 -152.41213 C 897.63 -155.03 893.24 -160.13 877.2455 -152.20263 C 861.26 -144.28 823.6 -146.05 769.83545 -159.2092 C 716.08 -172.37 683.49 -202.68 680.20602 -205.50126 C 716.08 -172.37 683.49 -202.68 675.98236 -209.18446 C 668.48 -215.69 666.43 -215.24 675.69816 -209.42981 C 668.48 -215.69 666.43 -215.24 662.8151 -210.54982 Z" />
    <path d="M 476.35111 -84.25605 C 431.17 -66.45 393.57 -79.39 469.9602 -82.62889" />
    <path d="M 442.88732 -56.41779 C 450.57 -56.43 465.46 -59.94 447.40594 -57.01218" />
    <path d="M 476.71331 -63.25246 C 450.57 -56.43 465.46 -59.94 480.78485 -64.30639" />
    <path d="M 595.13781 -141.90156 C 606.57 -151.19 574.07 -118.78 572.29964 -126.03185" />
    <path d="M 541.6612 -109.15813 C 606.57 -151.19 574.07 -118.78 534.33238 -105.68004" />
    <path d="M 504.50023 -93.30649 C 606.57 -151.19 574.07 -118.78 503.05494 -92.77275" />
    <path d="M 537.24851 -83.39606 C 540.58 -80.72 632.97 -131.89 541.487 -85.27275" />
    <path d="M 572.49153 -99.68948 C 540.58 -80.72 632.97 -131.89 595.13675 -110.57847" />
    <path d="M 623.03857 -123.64983 C 540.58 -80.72 632.97 -131.89 637.16273 -128.19728 C 540.58 -80.72 632.97 -131.89 637.1671 -128.19348 C 641.36 -124.5 626.42 -106.76 623.03857 -102.91515" />
    <path d="M 625.77213 -155.53985 C 620.03 -162.79 614.61 -160 623.61249 -157.82697 C 620.03 -162.79 614.61 -160 623.03857 -158.29074" />
    <path d="M 771.39614 -90.00624 C 693.41 -93.41 631.51 -148.29 634.08459 -147.58165 C 693.41 -93.41 631.51 -148.29 625.77213 -155.53985" />
    <path d="M 623.03857 -92.20842 C 618.91 -98.22 612.41 -95.44 630.70124 -89.07146 C 649 -82.7 713.08 -76.85 766.87684 -71.90527 C 820.69 -66.96 918.82 -84.14 931.75481 -86.22124 C 944.7 -88.3 945.89 -92.32 943.66585 -101.95876 C 941.44 -111.6 932.26 -124.3 937.53317 -112.73805 C 941.44 -111.6 932.26 -124.3 907.41568 -110.33758 C 884.13 -97.25 849.37 -86.6 771.39614 -90.00624" />
    <path d="M 880.27113 -526.67364 C 877.95 -526.22 882.81 -378.38 880.61583 -341.2157 C 878.38 -303.24 867.1 -279.71 867.17282 -264.08874 C 867.25 -248.46 882.21 -224.13 886.6671 -211.84989 C 890.11 -202.36 897.03 -208.51 889.06936 -207.91651 C 890.11 -202.36 897.03 -208.51 896.50041 -216.38777 C 895.96 -224.26 890.11 -239.52 900.09096 -298.92432 C 910.22 -359.31 947.45 -405.49 947.44789 -405.49467 L 947.45747 -539.62083 C 947.46 -539.62 882.05 -527.03 880.27113 -526.67364 Z" />
    <path d="M 775.59948 -506.4633 C 774.54 -463.3 815.6 -352.35 822.55427 -334.51261 C 829.52 -316.68 839.97 -281.34 842.27537 -280.22491 C 829.52 -316.68 839.97 -281.34 842.40282 -280.13744 C 844.83 -278.94 847.69 -284.26 843.50392 -297.14715 C 840.04 -307.82 837.13 -330.42 834.65681 -370.07896 C 832.19 -409.74 838.17 -518.46 838.17076 -518.4615 L 775.59948 -506.4633 Z" />
    <path d="M 714.41654 -276.12035 C 704.41 -264.69 703.64 -261.14 709.29402 -255.91366 C 714.96 -250.69 754.9 -220.39 710.15434 -255.15249 C 714.96 -250.69 754.9 -220.39 779.97516 -207.28415 C 805.06 -194.18 865.55 -178.14 876.52739 -176.10381 C 887.49 -174.06 882.41 -182.16 878.80619 -189.50599 C 875.21 -196.85 872.45 -199.04 874.86083 -195.35446 C 875.21 -196.85 872.45 -199.04 860.82473 -195.60913 C 849.19 -192.18 830.66 -197.45 792.60431 -212.56515 C 754.53 -227.67 727.91 -266.12 757.2908 -234.65424 C 754.53 -227.67 727.91 -266.12 722.90938 -273.38329 C 717.91 -280.64 716.29 -278.26 719.7173 -277.19329 C 717.91 -280.64 716.29 -278.26 714.41654 -276.12035 Z" />
    <path d="M 664.75878 -301.9784 C 662.23 -296.95 661.85 -296.19 665.26337 -293.07271 C 668.68 -289.96 678.97 -283.2 665.72695 -292.663 C 668.68 -289.96 678.97 -283.2 682.36204 -280.6943 C 685.75 -278.19 689.25 -278.25 692.76793 -281.21595 C 696.3 -284.18 701.33 -287.09 704.72685 -290.53309 C 708.12 -293.97 708.99 -298.34 706.76628 -301.62278 C 704.55 -304.91 693.07 -322.56 689.74708 -327.70405 C 686.42 -332.85 683.2 -334.1 686.82552 -331.24359 C 686.42 -332.85 683.2 -334.1 681.40935 -330.21354 C 679.62 -326.33 667.86 -308.14 664.75878 -301.9784 Z" />
    <path d="M 698.54153 -491.48407 C 695.56 -480.59 700.84 -422.98 702.70657 -416.13684 C 703.85 -411.96 713.01 -426.97 703.02438 -415.55882 C 703.85 -411.96 713.01 -426.97 715.77616 -432.20858 C 717.75 -435.94 720.27 -439.11 723.94346 -436.0504 C 727.62 -433 726.36 -420.67 723.986 -436.01445 C 727.62 -433 726.36 -420.67 723.2062 -411.36887 C 720.06 -402.07 711.03 -386.92 711.02706 -386.92149 C 722.62 -352.33 777.89 -290.87 791.14895 -279.0855 C 804.4 -267.3 838.8 -238.49 805.72824 -266.42514 C 804.4 -267.3 838.8 -238.49 818.9123 -255.10723 C 804.4 -267.3 838.8 -238.49 846.38594 -230.77841 C 853.98 -223.07 862.9 -213.12 859.88571 -217.29227 C 853.98 -223.07 862.9 -213.12 864.18548 -215.27361 C 865.46 -217.42 854.8 -229.88 848.90411 -238.48995 C 843.02 -247.1 830.32 -255.37 835.93196 -251.55967 C 843.02 -247.1 830.32 -255.37 811.08216 -272.61899 C 843.02 -247.1 830.32 -255.37 794.95971 -286.6877 C 759.59 -318.01 753.79 -366.7 749.95818 -405.23851 C 746.12 -443.78 753.74 -502.07 753.74022 -502.0743 L 698.54153 -491.48407 Z" />
    <path d="M 483.82381 59.9946 C 487.85 59.02 464.51 64.45 481.10173 60.6397" />
    <path d="M 457.08147 77.54849 C 457.35 74.55 452.47 126.89 457.85041 91.86974" />
    <path d="M 367.10186 13.25643 C 366.69 17.46 367.45 20.29 369.00664 18.84633 C 366.69 17.46 367.45 20.29 376.27788 20.90517 C 385.1 21.52 474.64 28.45 378.37057 21.05639" />
    <path d="M 578.35775 -64.12276 C 569.45 -56.47 522.78 -27.37 572.74338 -59.91919" />
    <path d="M 467.3671 27.90228 C 385.1 21.52 474.64 28.45 472.10834 28.27159" />
    <path d="M 589.73261 -70.01111 C 588.26 -71.42 587.26 -71.77 589.44915 -70.27062 C 588.26 -71.42 587.26 -71.77 578.35775 -64.12276" />
    <path d="M 582.76981 -51.78932 C 586.68 -60.92 591.21 -68.6 589.73261 -70.01111" />
    <path d="M 572.81821 -24.34568 C 553.58 23.66 578.86 -42.65 582.76981 -51.78932" />
    <path d="M 368.47931 86.13296 C 367.85 87.24 368.36 94.94 371.49501 94.64439 C 367.85 87.24 368.36 94.94 374.78229 96.18806 C 381.21 97.43 420.93 101.8 412.2487 100.64431" />
    <path d="M 626.02778 -254.3748 C 621.52 -249.16 611.27 -239.04 607.66428 -235.27252 C 604.05 -231.51 605.07 -229.48 607.15299 -226.30684 C 609.23 -223.13 611.4 -218.68 614.18759 -216.01864 C 616.97 -213.35 621.1 -213.76 614.46604 -215.76593 C 616.97 -213.35 621.1 -213.76 623.50769 -216.3633 C 625.92 -218.97 640.22 -230.24 644.25819 -233.72427 C 648.29 -237.21 646.07 -239.79 643.38784 -242.28281 C 640.72 -244.76 638.81 -249 635.0932 -253.7395 C 631.4 -258.45 628.99 -257.8 633.16854 -255.81425 C 631.4 -258.45 628.99 -257.8 626.02778 -254.3748 Z" />
    <path d="M 446.53167 -177.33123 C 437.53 -170.62 491 -203.43 466.31058 -189.07509" />
    <path d="M 487.16986 -202.11659 C 437.53 -170.62 491 -203.43 502.27281 -211.95451" />
    <path d="M 541.62734 -240.87718 C 550.05 -245.48 600.53 -293.29 607.97355 -299.84568 C 615.41 -306.4 613.34 -308.7 612.42966 -311.16716 C 611.52 -313.63 605.4 -322.46 602.27942 -328.12156 C 599.16 -333.79 596.32 -336.28 599.06436 -332.60199 C 599.16 -333.79 596.32 -336.28 592.09183 -329.12061 C 587.65 -321.6 551.04 -273.32 527.2222 -253.2565" />
    <path d="M 503.22566 -230.57433 C 457.29 -189.5 446.29 -195.8 486.61351 -216.58664" />
    <path d="M 466.09847 -202.45974 C 457.29 -189.5 446.29 -195.8 454.12236 -197.19639" />
    <path d="M 674.00133 -469.70685 C 671.68 -470.28 662.7 -449.82 644.77714 -415.72909 C 634.35 -395.9 621.48 -373.11 616.53629 -364.46051 C 611.59 -355.81 613.66 -351.15 616.07095 -348.8728 C 618.48 -346.59 626.27 -337.18 629.75498 -334.2095 C 618.48 -346.59 626.27 -337.18 629.79546 -334.17483 C 633.32 -331.17 634.76 -332.3 642.93782 -341.53359 C 651.76 -351.5 660.99 -362.43 667.24536 -369.9453 C 675.75 -380.18 677.59 -382.2 676.84792 -391.42532 C 676.21 -399.4 674.87 -409.43 674.74721 -419.41621 C 674.62 -429.4 676.38 -469.12 674.12136 -469.6413 C 674.62 -429.4 676.38 -469.12 674.00133 -469.70685 Z" />
    <path d="M 597.93916 -472.18544 C 595.26 -458.2 565.06 -390.91 549.01196 -362.82588 C 532.96 -334.74 511.93 -313.26 497.19221 -298.4172 C 482.45 -283.58 471.43 -269.44 487.10059 -287.73574" />
    <path d="M 632.54343 -478.94068 L 597.93916 -472.18544" />
    <path d="M 557.10936 -351.938 C 613.95 -426.06 632.54 -478.94 632.54343 -478.94068" />
    <path d="M 496.80165 -279.39896 C 482.87 -267.44 500.27 -277.81 557.10936 -351.938" />
    <path d="M 517.91494 -456.8406 C 515.27 -448.61 507.08 -412.14 503.4436 -388.39759 C 499.81 -364.65 497.23 -358.8 499.0536 -358.7749 C 499.81 -364.65 497.23 -358.8 499.54953 -358.58353 C 501.87 -358.37 508.19 -372.26 518.67805 -397.82629 C 529.17 -423.39 543.81 -461.77 543.8071 -461.77335 L 517.91494 -456.8406 Z" />
    <path d="M 581.97128 -210.84061 C 551.19 -179.96 508.14 -161.06 579.45539 -208.36894" />
    <path d="M 542.93617 -180.5252 C 551.19 -179.96 508.14 -161.06 526.67511 -171.12227" />
    <path d="M 501.20803 -158.41265 C 551.19 -179.96 508.14 -161.06 495.84084 -155.95095" />
    <path d="M 588.51469 -210.63357 C 586.55 -214.03 584.43 -213.31 587.23923 -212.26157 C 586.55 -214.03 584.43 -213.31 581.97128 -210.84061" />
    <path d="M 435.31393 -134.81134 C 440.44 -131.92 421.33 -133.11 417.28933 -134.75812" />
    <path d="M 594.40606 -202.44601 C 593.28 -204.34 590.48 -207.24 588.51469 -210.63357" />
    <path d="M 593.37197 -196.40948 C 597.48 -199.05 595.53 -200.55 594.40606 -202.44601" />
    <path d="M 499.44133 -140.4734 C 534.05 -153.38 580.17 -185.96 501.62784 -141.30858" />
    <path d="M 528.50246 -154.04525 C 534.05 -153.38 580.17 -185.96 542.52915 -161.98507" />
    <path d="M 370.58513 -107.34833 C 362.47 -98.31 372.97 -99.06 368.84214 -101.35327 C 362.47 -98.31 372.97 -99.06 384.37241 -105.0752 C 395.77 -111.1 408.79 -115.76 430.8408 -120.04064 C 452.89 -124.32 464.84 -127.57 436.11902 -121.08638" />
    <path d="M 493.57323 -138.29808 C 452.89 -124.32 464.84 -127.57 499.44133 -140.4734" />
    <path d="M 387.96175 -172.31034 C 385.44 -176.07 375.39 -192.48 383.82943 -178.78556" />
    <path d="M 448.64609 -443.63108 C 448.65 -443.63 450.49 -366.91 450.92968 -344.93731 C 451.37 -322.97 443.14 -286.98 449.09699 -320.39483" />
    <path d="M 476.76439 -448.89541 L 448.64609 -443.63108" />
    <path d="M 443.07548 -286.63888 C 451.37 -322.97 443.14 -286.98 439.84973 -271.50113 C 436.56 -256.02 432.73 -241.1 435.74806 -251.18925" />
    <path d="M 462.70763 -367.23074 C 465.22 -390.92 476.76 -448.9 476.76439 -448.89541" />
    <path d="M 458.90876 -311.96291 C 456.26 -296.5 460.2 -343.54 462.70763 -367.23074" />
    <path d="M 369.52286 -428.26316 C 364.05 -407.62 378.33 -344.44 370.78844 -387.69073" />
    <path d="M 414.59046 -437.0327 L 369.52286 -428.26316" />
    <path d="M 402.93662 -360.0636 C 400.56 -360.63 414.59 -437.03 414.59046 -437.0327" />
    <path d="M 397.18458 -191.8367 C 393.34 -225.57 394.61 -196.46 398.32001 -188.49368 C 402.03 -180.53 407.03 -187.46 399.43036 -186.59266" />
    <path d="M 401.65303 -309.51651 C 402.86 -276.87 401.57 -302.52 401.25098 -322.51827" />
    <path d="M 416.78787 -212.6763 C 412.64 -217.93 411.01 -226.54 414.37166 -216.75382" />
    <path d="M 416.92903 -212.49589 C 419.11 -205.7 420.93 -207.43 416.78787 -212.6763" />
    <path d="M 983.04015 -580.2865 L 987.31734 -576.61082" />
    <path d="M 305.10638 -449.84014 L 983.04015 -580.2865" />
    <path d="M 305.10638 -444.13581 L 305.10638 -449.84014 L 309.38357 -446.16446" />
    <path d="M 935.7558 -145.08167 C 898.3 -184.16 934.55 -141.89 939.88655 -143.03426 L 944.16374 -139.35858" />
    <path d="M 939.88655 -143.03426 C 944.65 -144.06 942.3 -189.21 942.44302 -206.8379 L 946.72021 -203.16221" />
    <path d="M 942.44302 -206.8379 C 942.58 -223.94 943.97 -270.09 942.35638 -263.52357" />
    <path d="M 625.48693 59.61353 C 626.21 46.16 637.52 -7.09 642.48385 -19.0616 L 646.76104 -15.38591" />
    <path d="M 642.48385 -19.0616 C 647.45 -31.03 650.25 -26.31 649.42524 -25.24587 L 653.70243 -21.57018" />
    <path d="M 668.70028 5.10002 C 661.3 -1.46 664.94 4.52 673.60576 7.37279 L 677.88295 11.04847" />
    <path d="M 673.60576 7.37279 C 682.49 10.3 699.35 14.13 740.38613 12.95637 L 744.66332 16.63206" />
    <path d="M 942.62494 -47.14538 C 943.31 -59.45 941.03 -65.03 941.83996 -57.78253" />
    <path d="M 740.38613 12.95637 C 781.41 11.78 863.65 -3.68 899.96923 -16.95571 L 904.24642 -13.28003" />
    <path d="M 899.96923 -16.95571 C 936.3 -30.23 941.94 -34.84 942.62494 -47.14538 L 946.90213 -43.4697" />
    <path d="M 650.07802 -187.29314 C 642.58 -194.38 642.43 -193.3 650.19826 -187.19857 L 654.47545 -183.52289" />
    <path d="M 675.92883 -209.17694 C 711.81 -176.05 679.21 -206.35 674.12216 -210.74334" />
    <path d="M 650.19826 -187.19857 C 661.47 -178.34 691.74 -161.6 756.95052 -144.34947 L 761.22771 -140.67379" />
    <path d="M 756.95052 -144.34947 C 817.27 -128.38 884.88 -140.51 893.83179 -142.72627 L 898.10898 -139.05059" />
    <path d="M 898.9926 -153.48272 C 893.35 -158.71 888.96 -163.8 898.62126 -153.82802" />
    <path d="M 893.83179 -142.72627 C 902.78 -144.95 907.88 -139.9 910.14724 -141.47313 L 914.42443 -137.79745" />
    <path d="M 910.14724 -141.47313 C 912.42 -143.04 904.85 -148.06 907.79688 -145.86963" />
    <path d="M 901.50144 -151.25542 C 912.42 -143.04 904.85 -148.06 898.9926 -153.48272 L 903.26979 -149.80704" />
    <path d="M 475.11306 -67.61846 C 446.29 -60.11 461.18 -63.61 479.7728 -68.84258" />
    <path d="M 536.54967 -88.65407 C 536.31 -84.39 628.7 -135.56 541.50924 -90.88252" />
    <path d="M 572.4501 -105.39279 C 536.31 -84.39 628.7 -135.56 595.13694 -116.3097" />
    <path d="M 623.03857 -129.15177 C 536.31 -84.39 628.7 -135.56 632.88554 -131.87296 C 536.31 -84.39 628.7 -135.56 632.8899 -131.86917 L 637.1671 -128.19348" />
    <path d="M 629.8074 -151.25734 C 689.13 -97.09 627.23 -151.96 623.03857 -157.5062" />
    <path d="M 623.03857 -93.99361 C 614.64 -101.9 608.13 -99.12 626.42405 -92.74715 L 630.70124 -89.07146" />
    <path d="M 626.42405 -92.74715 C 644.72 -86.38 708.8 -80.52 762.59965 -75.58095 L 766.87684 -71.90527" />
    <path d="M 939.38866 -105.63445 C 937.17 -115.28 927.99 -127.98 935.2556 -114.35962" />
    <path d="M 762.59965 -75.58095 C 816.41 -70.64 914.54 -87.82 927.47761 -89.89693 L 931.75481 -86.22124" />
    <path d="M 927.47761 -89.89693 C 940.42 -91.98 941.61 -95.99 939.38866 -105.63445 L 943.66585 -101.95876" />
    <path d="M 943.1707 -409.17035 L 943.17996 -538.79703" />
    <path d="M 895.81377 -302.6 C 905.94 -362.99 943.17 -409.17 943.1707 -409.17035 L 947.44789 -405.49467" />
    <path d="M 887.12956 -210.71241 C 885.84 -206.03 892.75 -212.19 892.22322 -220.06345 L 896.50041 -216.38777" />
    <path d="M 892.22322 -220.06345 C 891.69 -227.94 885.84 -243.2 895.81377 -302.6 L 900.09096 -298.92432" />
    <path d="M 830.37962 -373.75465 C 827.91 -413.42 833.89 -522.14 833.65204 -517.59503" />
    <path d="M 840.13012 -284.39962 C 840.55 -282.61 843.41 -287.94 839.22673 -300.82283 L 843.50392 -297.14715" />
    <path d="M 839.22673 -300.82283 C 835.76 -311.49 832.85 -334.09 830.37962 -373.75465 L 834.65681 -370.07896" />
    <path d="M 718.63219 -277.05898 C 713.63 -284.32 712.02 -281.94 717.77956 -278.2489" />
    <path d="M 708.60452 -256.57514 C 710.69 -254.36 750.62 -224.07 775.69797 -210.95983 L 779.97516 -207.28415" />
    <path d="M 753.01361 -238.32992 C 750.26 -231.35 723.63 -269.8 718.63219 -277.05898 L 722.90938 -273.38329" />
    <path d="M 775.69797 -210.95983 C 800.78 -197.85 861.28 -181.82 872.2502 -179.77949 L 876.52739 -176.10381" />
    <path d="M 872.2502 -179.77949 C 883.21 -177.74 878.13 -185.84 874.529 -193.18167 L 878.80619 -189.50599" />
    <path d="M 874.529 -193.18167 C 870.93 -200.53 868.17 -202.72 872.5788 -196.69162" />
    <path d="M 663.99491 -294.31917 C 664.4 -293.63 674.69 -286.87 678.08485 -284.36998 L 682.36204 -280.6943" />
    <path d="M 685.46989 -331.37973 C 682.14 -336.53 678.92 -337.77 684.76716 -332.41176" />
    <path d="M 678.08485 -284.36998 C 681.48 -281.87 684.97 -281.93 688.49074 -284.89163 L 692.76793 -281.21595" />
    <path d="M 702.48909 -305.29847 C 700.28 -308.59 688.8 -326.23 685.46989 -331.37973 L 689.74708 -327.70405" />
    <path d="M 688.49074 -284.89163 C 692.02 -287.86 697.05 -290.77 700.44966 -294.20877 L 704.72685 -290.53309" />
    <path d="M 700.44966 -294.20877 C 703.84 -297.65 704.71 -302.01 702.48909 -305.29847 L 706.76628 -301.62278" />
    <path d="M 701.83986 -421.10231 C 699.57 -415.63 708.73 -430.64 711.49897 -435.88426 L 715.77616 -432.20858" />
    <path d="M 745.68099 -408.91419 C 741.84 -447.45 749.46 -505.75 748.90383 -501.1464" />
    <path d="M 711.49897 -435.88426 C 713.47 -439.61 715.99 -442.78 719.66627 -439.72608 L 723.94346 -436.0504" />
    <path d="M 790.68252 -290.36338 C 755.31 -321.68 749.51 -370.38 745.68099 -408.91419 L 749.95818 -405.23851" />
    <path d="M 719.66627 -439.72608 C 723.34 -436.67 722.08 -424.34 719.70881 -439.69013 L 723.986 -436.01445" />
    <path d="M 719.70881 -439.69013 C 723.34 -436.67 722.08 -424.34 719.75097 -439.6533" />
    <path d="M 844.62692 -242.16563 C 838.74 -250.78 826.04 -259.04 833.6126 -253.53987" />
    <path d="M 806.80497 -276.29468 C 838.74 -250.78 826.04 -259.04 790.68252 -290.36338 L 794.95971 -286.6877" />
    <path d="M 859.90829 -218.94929 C 861.18 -221.1 850.52 -233.55 844.62692 -242.16563 L 848.90411 -238.48995" />
    <path d="M 857.46109 -219.51051 C 849.7 -226.74 858.63 -216.8 859.90829 -218.94929 L 864.18548 -215.27361" />
    <path d="M 803.7387 -268.13591 C 800.12 -270.98 834.53 -242.17 814.63511 -258.78291 L 818.9123 -255.10723" />
    <path d="M 490.86222 81.21122 C 482.26 147.4 491.41 75.18 491.06029 77.32452" />
    <path d="M 367.53172 16.55162 C 362.42 13.79 363.17 16.62 372.00068 17.22949 L 376.27788 20.90517" />
    <path d="M 372.00068 17.22949 C 380.83 17.84 470.37 24.77 372.47951 17.26325" />
    <path d="M 466.12574 24.463 C 380.83 17.84 470.37 24.77 470.94775 24.83901" />
    <path d="M 578.49262 -55.465 C 582.41 -64.6 586.93 -72.28 584.74393 -69.23082" />
    <path d="M 572.8146 -40.54118 C 549.3 19.98 574.58 -46.33 578.49262 -55.465 L 582.76981 -51.78932" />
    <path d="M 369.71819 92.31937 C 363.58 83.57 364.08 91.27 370.5051 92.51238 L 374.78229 96.18806" />
    <path d="M 370.5051 92.51238 C 376.93 93.76 416.65 98.12 384.84467 94.43879" />
    <path d="M 422.66251 98.23167 C 376.93 93.76 416.65 98.12 423.55329 98.26379 L 423.7485 98.43154" />
    <path d="M 423.55329 98.26379 C 430.46 98.4 432.71 95.92 424.6189 98.26406" />
    <path d="M 639.11065 -245.9585 C 636.44 -248.44 634.53 -252.68 631.14746 -256.98792" />
    <path d="M 639.981 -237.39995 C 644.01 -240.89 641.79 -243.47 639.11065 -245.9585 L 643.38784 -242.28281" />
    <path d="M 612.25667 -218.23772 C 612.69 -217.03 616.82 -217.43 619.2305 -220.03899 L 623.50769 -216.3633" />
    <path d="M 619.2305 -220.03899 C 621.64 -222.65 635.95 -233.91 639.981 -237.39995 L 644.25819 -233.72427" />
    <path d="M 449.316 -185.11657 C 433.26 -174.3 486.72 -207.11 466.14545 -195.27325" />
    <path d="M 486.91342 -208.37663 C 433.26 -174.3 486.72 -207.11 502.58526 -218.6978" />
    <path d="M 537.35015 -244.55286 C 545.77 -249.15 596.26 -296.97 603.69636 -303.52136 L 607.97355 -299.84568" />
    <path d="M 603.69636 -303.52136 C 611.14 -310.08 609.07 -312.38 608.15246 -314.84284 L 612.42966 -311.16716" />
    <path d="M 608.15246 -314.84284 C 607.24 -317.3 601.12 -326.13 598.00222 -331.79725 L 602.27942 -328.12156" />
    <path d="M 598.00222 -331.79725 C 594.88 -337.46 592.04 -339.96 596.99588 -333.5185" />
    <path d="M 670.47002 -423.09189 C 670.35 -433.08 672.11 -472.79 670.85161 -466.10814" />
    <path d="M 672.57073 -395.101 C 671.93 -403.08 670.59 -413.11 670.47002 -423.09189 L 674.74721 -419.41621" />
    <path d="M 662.96816 -373.62099 C 671.48 -383.86 673.31 -385.88 672.57073 -395.101 L 676.84792 -391.42532" />
    <path d="M 638.66063 -345.20927 C 647.48 -355.17 656.72 -366.1 662.96816 -373.62099 L 667.24536 -369.9453" />
    <path d="M 627.20383 -336.68325 C 629.04 -334.85 630.48 -335.97 638.66063 -345.20927 L 642.93782 -341.53359" />
    <path d="M 552.83217 -355.61368 C 609.67 -429.74 628.27 -482.62 626.3749 -477.73649" />
    <path d="M 492.52446 -283.07464 C 478.59 -271.11 495.99 -281.49 552.83217 -355.61368 L 557.10936 -351.938" />
    <path d="M 514.40086 -401.50198 C 524.89 -427.07 539.53 -465.45 537.6749 -460.60509" />
    <path d="M 500.02152 -368.68657 C 497.59 -362.05 503.91 -375.94 514.40086 -401.50198 L 518.67805 -397.82629" />
    <path d="M 590.12887 -206.12169 C 589 -208.02 586.2 -210.91 585.11681 -212.89672" />
    <path d="M 589.09478 -200.08516 C 593.21 -202.73 591.26 -204.23 590.12887 -206.12169 L 594.40606 -202.44601" />
    <path d="M 495.16414 -144.14908 C 529.77 -157.05 575.89 -189.64 501.43797 -146.64515" />
    <path d="M 527.87801 -159.7198 C 529.77 -157.05 575.89 -189.64 542.66256 -168.2946" />
    <path d="M 368.78375 -104.54772 C 358.2 -101.98 368.7 -102.73 380.09522 -108.75088 L 384.37241 -105.0752" />
    <path d="M 426.56361 -123.71633 C 448.62 -128 460.56 -131.25 436.97365 -125.8357" />
    <path d="M 492.78991 -143.26575 C 448.62 -128 460.56 -131.25 495.16414 -144.14908 L 499.44133 -140.4734" />
    <path d="M 380.09522 -108.75088 C 391.49 -114.77 404.51 -119.44 381.24994 -109.35317" />
    <path d="M 394.45559 -115.17706 C 391.49 -114.77 404.51 -119.44 426.56361 -123.71633 L 430.8408 -120.04064" />
    <path d="M 385.40348 -173.34626 C 381.16 -179.75 371.12 -196.15 382.75726 -177.43152" />
    <path d="M 386.79134 -170.99585 C 388.23 -164.02 389.65 -166.94 385.40348 -173.34626 L 387.37715 -171.65016" />
    <path d="M 458.43044 -370.90642 C 460.94 -394.6 472.49 -452.57 471.57259 -447.9234" />
    <path d="M 454.63157 -315.63859 C 451.98 -300.18 455.92 -347.21 458.43044 -370.90642 L 462.70763 -367.23074" />
    <path d="M 398.65943 -363.73928 C 396.28 -364.3 410.31 -440.71 409.47464 -436.03723" />
    <path d="M 398.27741 -295.44258 C 398.58 -280.55 397.29 -306.19 397.61319 -307.52461" />
    <path d="M 398.22417 -188.70526 C 397.75 -184.21 402.75 -191.13 408.79088 -200.25514 L 408.98817 -200.08559" />
    <path d="M 408.79088 -200.25514 C 414.83 -209.38 416.66 -211.1 413.53367 -214.93902" />
    <path d="M -146.28078 -1215.58979 L -142.08913 -1211.98762" />
    <path d="M -507.84546 -1146.01839 L -146.28078 -1215.58979" />
    <path d="M -507.84546 -1096.16903 L -507.84546 -1146.01839" />
    <path d="M -191.47636 -658.74076 A 600 495.48155 310.67472 0 0 -326.06181 -994.26225" />
    <path d="M -191.47636 -508.16857 L -191.47636 -658.74076" />
    <path d="M -187.19917 -508.99158 L -187.19917 -655.06507 A 600 495.48155 310.67472 0 0 -227.91298 -855.60392" />
    <path d="M -187.19917 -655.06507 L -191.47636 -658.74076" />
    <path d="M -503.56826 -1142.34271 L -52.96828 -1229.04606" />
    <path d="M -503.56826 -1092.49335 L -503.56826 -1142.34271 L -507.84546 -1146.01839" />
    <path d="M -229.82802 -859.88406 A 600 495.48155 310.67472 0 0 -323.82813 -992.53505" />
    <path d="M -477.90512 -1084.70522 A 600 495.48155 310.67472 0 0 -503.56826 -1092.49335" />
    <path d="M -477.90512 -1120.28861 L -27.30514 -1206.99196" />
    <path d="M -477.90512 -1070.43925 L -477.90512 -1120.28861" />
    <path d="M -161.53602 -633.01098 A 600 495.48155 310.67472 0 0 -209.35091 -848.85581" />
    <path d="M -229.82802 -886.15245 A 600 495.48155 310.67472 0 0 -310.69247 -981.86186" />
    <path d="M -161.53602 -508.30626 L -161.53602 -633.01098" />
    <path d="M -473.62792 -1116.61293 L -23.02795 -1203.31628" />
    <path d="M -473.62792 -1066.76357 L -473.62792 -1116.61293 L -477.90512 -1120.28861" />
    <path d="M -157.25883 -629.33529 A 600 495.48155 310.67472 0 0 -197.97264 -829.87414" />
    <path d="M -199.88768 -834.15428 A 600 495.48155 310.67472 0 0 -206.42655 -847.93231" />
    <path d="M -229.82802 -889.28771 A 600 495.48155 310.67472 0 0 -308.54754 -980.03139 A 600 495.48155 310.67472 0 0 -473.62792 -1066.76357" />
    <path d="M -157.25883 -504.63058 L -157.25883 -629.33529 L -161.53602 -633.01098" />
    <path d="M -78.61852 -519.76235 L -157.25883 -504.63058 L -161.53602 -508.30626" />
    <path d="M -229.82802 -907.099 L 220.77196 -993.80235" />
    <path d="M -229.82802 -857.24965 L -229.82802 -907.099" />
    <path d="M 86.54107 -419.82137 A 600 495.48155 310.67472 0 0 -48.04438 -755.34286" />
    <path d="M 86.54107 -295.11665 L 86.54107 -419.82137" />
    <path d="M -225.55083 -903.42332 L 225.04915 -990.12667" />
    <path d="M -225.55083 -853.57396 L -225.55083 -903.42332 L -229.82802 -907.099" />
    <path d="M 90.81826 -416.14569 A 600 495.48155 310.67472 0 0 50.10445 -616.68453" />
    <path d="M 48.18941 -620.96467 A 600 495.48155 310.67472 0 0 -45.8107 -753.61566" />
    <path d="M -199.88768 -845.78583 A 600 495.48155 310.67472 0 0 -225.55083 -853.57396" />
    <path d="M 90.81826 -291.44097 L 90.81826 -416.14569 L 86.54107 -419.82137" />
    <path d="M 116.48141 -296.37901 L 90.81826 -291.44097 L 86.54107 -295.11665" />
    <path d="M -199.88768 -881.36922 L 250.7123 -968.07257" />
    <path d="M -199.88768 -831.51987 L -199.88768 -881.36922" />
    <path d="M 116.48141 -394.09159 A 600 495.48155 310.67472 0 0 68.66652 -609.93642" />
    <path d="M 48.18941 -647.23307 A 600 495.48155 310.67472 0 0 -32.67503 -742.94247" />
    <path d="M 116.48141 -269.38687 L 116.48141 -394.09159" />
    <path d="M -195.61049 -877.69354 L 254.98949 -964.39689" />
    <path d="M -195.61049 -827.84418 L -195.61049 -877.69354 L -199.88768 -881.36922" />
    <path d="M 120.7586 -390.41591 A 600 495.48155 310.67472 0 0 80.04479 -590.95475" />
    <path d="M 78.12975 -595.23489 A 600 495.48155 310.67472 0 0 71.59088 -609.01292" />
    <path d="M 48.18941 -650.36832 A 600 495.48155 310.67472 0 0 -30.5301 -741.112 A 600 495.48155 310.67472 0 0 -195.61049 -827.84418" />
    <path d="M 120.7586 -265.71119 L 120.7586 -390.41591 L 116.48141 -394.09159" />
    <path d="M 199.39892 -280.84297 L 120.7586 -265.71119 L 116.48141 -269.38687" />
    <path d="M 48.18941 -668.17962 L 498.78939 -754.88296" />
    <path d="M 48.18941 -618.33026 L 48.18941 -668.17962" />
    <path d="M 293.21011 -438.9393 A 600 495.48155 310.67472 0 0 229.97306 -516.42348" />
    <path d="M 52.4666 -664.50393 L 503.06658 -751.20728" />
    <path d="M 52.4666 -614.65458 L 52.4666 -664.50393 L 48.18941 -668.17962" />
    <path d="M 293.21011 -441.87686 A 600 495.48155 310.67472 0 0 232.20673 -514.69627" />
    <path d="M 78.12975 -606.86645 A 600 495.48155 310.67472 0 0 52.4666 -614.65458" />
    <path d="M 368.83569 -104.55597 L 368.83569 -104.65605" />
    <path d="M 368.83569 -151.71381 L 368.83569 -153.07368" />
    <path d="M 78.12975 -642.44984 L 528.72973 -729.15318" />
    <path d="M 78.12975 -592.60048 L 78.12975 -642.44984" />
    <path d="M 300.00066 -446.15849 A 600 495.48155 310.67472 0 0 245.3424 -504.02308" />
    <path d="M 394.49884 -115.19315 L 394.49884 -115.20409" />
    <path d="M 82.40694 -638.77415 L 533.00692 -725.4775" />
    <path d="M 82.40694 -588.92479 L 82.40694 -638.77415 L 78.12975 -642.44984" />
    <path d="M 397.32217 -191.32637 A 600 495.48155 310.67472 0 0 397.27755 -191.9278" />
    <path d="M 301.20498 -446.39023 A 600 495.48155 310.67472 0 0 247.48733 -502.19261 A 600 495.48155 310.67472 0 0 82.40694 -588.92479" />
    <path d="M 398.77603 -116.70159 L 398.77603 -118.06964" />
    <path d="M 638.6909 -6.72821 A 600 495.48155 310.67472 0 0 628.75474 -62.28376" />
    <path d="M 538.17269 -245.23301 A 600 495.48155 310.67472 0 0 529.3536 -255.39767" />
    <path d="M 641.26776 -15.69838 A 600 495.48155 310.67472 0 0 632.69299 -60.02172" />
    <path d="M 623.17837 -93.93895 A 600 495.48155 310.67472 0 0 623.03857 -94.37375" />
    <path d="M 538.84637 -245.79169 A 600 495.48155 310.67472 0 0 529.84149 -255.89067" />
    <path d="M 368.70079 -405.94598 L 405.58182 -413.04254" />
    <path d="M 449.17531 -421.43069 L 467.18794 -424.89664" />
    <path d="M 512.17009 -433.55199 L 528.41133 -436.67709" />
    <path d="M 589.52342 -448.43613 L 615.17787 -453.3725" />
    <path d="M 669.53405 -463.83158 L 670.91366 -464.09705" />
    <path d="M 697.85775 -469.28156 L 746.67321 -478.67451" />
    <path d="M 777.45145 -484.59679 L 806.74716 -490.2338" />
    <path d="M 666.24985 1.86664 A 600 495.48155 310.67472 0 0 656.07279 -47.04343" />
    <path d="M 643.01903 -88.88949 A 600 495.48155 310.67472 0 0 632.56059 -115.06331" />
    <path d="M 625.62647 -130.18742 A 600 495.48155 310.67472 0 0 623.03857 -135.47372" />
    <path d="M 541.66447 -248.14379 A 600 495.48155 310.67472 0 0 531.6249 -257.70184" />
    <path d="M 369.08 -401.52026 L 404.83821 -408.40077" />
    <path d="M 449.28145 -416.95243 L 466.3283 -420.23254" />
    <path d="M 511.14049 -428.85519 L 526.50759 -431.81209" />
    <path d="M 587.50152 -443.54839 L 612.63002 -448.38356" />
    <path d="M 666.84005 -458.81452 L 670.97577 -459.61031" />
    <path d="M 698.05061 -464.81998 L 746.30682 -474.10532" />
    <path d="M 778.17976 -480.23824 L 811.02435 -486.55811" />
    <path d="M 675.51049 49.98812 A 600 495.48155 310.67472 0 0 674.87555 41.73359" />
    <path d="M 670.625 6.17169 A 600 495.48155 310.67472 0 0 659.87584 -45.16389" />
    <path d="M 646.13927 -88.35477 A 600 495.48155 310.67472 0 0 634.13989 -117.45058" />
    <path d="M 627.72998 -130.96379 A 600 495.48155 310.67472 0 0 623.03857 -140.16404" />
    <path d="M 541.92927 -248.366 A 600 495.48155 310.67472 0 0 531.73206 -257.81113" />
    <path d="M 495.73763 -286.55471 A 600 495.48155 310.67472 0 0 489.79578 -290.69724" />
    <path d="M -26.80345 -352.33747 L -464.40077 -268.13606" />
    <path d="M -26.80345 -325.34533 L -26.80345 -352.33747" />
    <path d="M -31.08064 -356.01315 L -464.40077 -272.63475" />
    <path d="M -274.88055 -565.52708 L -706.02375 -482.56756" />
    <path d="M -274.88055 -515.67772 L -274.88055 -565.52708" />
    <path d="M -489.18257 -296.2211 A 600 495.48155 130.67472 0 1 -274.88055 -515.67772" />
    <path d="M -279.15774 -569.20276 L -710.30094 -486.24324" />
    <path d="M -304.82089 -591.25686 L -735.96409 -508.29734" />
    <path d="M -304.82089 -564.26472 L -304.82089 -591.25686" />
    <path d="M -309.09808 -594.93254 L -740.24128 -511.97302" />
    <path d="M -552.89798 -804.44647 L -984.04118 -721.48694" />
    <path d="M -552.89798 -754.59711 L -552.89798 -804.44647" />
    <path d="M -767.2 -535.14049 A 600 495.48155 130.67472 0 1 -552.89798 -754.59711" />
    <path d="M -557.17517 -808.12215 L -988.31837 -725.16263" />
    <path d="M -582.83832 -830.17625 L -1013.98152 -747.21672" />
    <path d="M -582.83832 -803.18411 L -582.83832 -830.17625" />
    <path d="M -587.11551 -833.85193 L -1018.25871 -750.89241" />
    <path d="M -830.91541 -1043.36585 L -1262.05861 -960.40633" />
    <path d="M -830.91541 -993.5165 L -830.91541 -1043.36585" />
    <path d="M -1045.21743 -774.05988 A 600 495.48155 130.67472 0 1 -830.91541 -993.5165" />
    <path d="M -835.1926 -1047.04154 L -1266.3358 -964.08201" />
    <path d="M -860.85575 -1069.09563 L -1291.99895 -986.13611" />
    <path d="M -860.85575 -1042.1035 L -860.85575 -1069.09563" />
    <path d="M -865.13294 -1072.77132 L -1296.27614 -989.81179" />
    <path d="M -1226.78316 -1003.18346 L -1226.78316 -1023.7378" />
    <path d="M -498.29174 -233.25233 L -498.29174 953.04127" />
    <path d="M -453.09615 -241.94875 L -498.29174 -233.25233 L -494.01455 -229.57664" />
    <path d="M -453.09615 -243.31913 L -453.09615 -241.94875 L -448.81896 -238.27307" />
    <path d="M -1.14031 -330.28337 L -453.09615 -243.31913 L -448.81896 -239.64345" />
    <path d="M 842.13372 -280.36869 L 842.40282 -280.13744" />
    <path d="M -507.84546 -1096.16903 L -503.56826 -1092.49335" />
    <path d="M -477.90512 -1070.43925 L -473.62792 -1066.76357" />
    <path d="M 86.54107 -377.82943 L -78.61852 -519.76235" />
    <path d="M 293.21011 -200.2246 L 199.39892 -280.84297" />
    <path d="M -222.05591 -39.3197 L 31.07936 178.21675" />
    <path d="M -161.53602 -513.92962 L -320.02199 -483.43414" />
    <path d="M -229.82802 -857.24965 L -225.55083 -853.57396" />
    <path d="M -199.88768 -831.51987 L -195.61049 -827.84418" />
    <path d="M 48.18941 -618.33026 L 52.4666 -614.65458" />
    <path d="M 78.12975 -592.60048 L 82.40694 -588.92479" />
    <path d="M -865.13294 -1072.77132 L -860.85575 -1069.09563" />
    <path d="M -835.1926 -1047.04154 L -830.91541 -1043.36585" />
    <path d="M -587.11551 -833.85193 L -582.83832 -830.17625" />
    <path d="M -557.17517 -808.12215 L -552.89798 -804.44647" />
    <path d="M -309.09808 -594.93254 L -304.82089 -591.25686" />
    <path d="M -279.15774 -569.20276 L -274.88055 -565.52708" />
    <path d="M -31.08064 -356.01315 L -26.80345 -352.33747" />
    <path d="M -313.23221 430.27257 L -33.31678 376.41193" />
    <path d="M -313.23221 372.25976 L -33.31678 318.39911" />
    <path d="M 27.46372 178.91246 L -223.53277 -36.78598" />
    <path d="M -1.14031 -330.28337 L 3.13689 -326.60769" />
    <path d="M 623.03857 -170.91494 L 613.99945 -169.17566 L 613.99945 61.82392" />
    <path d="M 623.03857 -170.91494 L 623.03857 60.08464" />
    <path d="M 302.24922 -446.59116 L 293.21011 -444.85187 L 613.99945 -169.17566" />
    <path d="M 293.21011 123.54942 L 293.21011 -444.85187" />
    <path d="M 302.24922 -446.59116 L 623.03857 -170.91494" />
    <path d="M 572.09678 -175.85485 C 571.29 -186.04 573.59 -35.29 572.54882 0.55964 L 563.5097 2.29892 C 562.45 38.93 557.11 55.7 557.14864 71.37272 C 557.18 87.04 564.26 120.34 557.16874 72.75915" />
    <path d="M 563.3466 -183.36552 C 562.25 -184.3 564.55 -33.55 563.33437 -183.36959 C 562.25 -184.3 564.55 -33.55 563.5097 2.29892" />
    <path d="M 572.54882 0.55964 C 571.49 37.19 566.15 53.96 566.18776 69.63343 L 557.14864 71.37272" />
    <path d="M 566.18776 69.63343 C 566.22 85.3 573.3 118.6 566.20785 71.01986" />
    <path d="M 571.61627 69.97919 C 570.77 128.45 568 109.69 572.72508 56.25706 C 577.52 1.94 595.13 -21.94 595.13375 -21.94367 L 595.13829 -156.0641 C 595.14 -156.06 564.19 -182.65 563.3466 -183.36552" />
    <path d="M 523.00979 -217.9471 C 522.35 -185.07 541.79 -49.52 541.89438 -49.55565" />
    <path d="M 513.81734 -225.85971 C 513.31 -183.33 532.75 -47.78 536.03573 -25.78031 C 539.33 -3.77 544.28 37.83 545.42781 40.48532 C 546.57 43.14 547.93 39.53 546.14175 41.27707 C 546.57 43.14 547.93 39.53 545.94883 24.13524 C 544.31 11.39 542.93 -12.96 541.7625 -54.09652 C 540.59 -95.24 543.43 -200.37 543.42525 -200.374 L 513.81734 -225.85971 Z" />
    <path d="M 546.69156 40.24215 L 545.42781 40.48532" />
    <path d="M 485.98152 -249.61877 C 484.98 -249.67 487.48 -188.9 487.75188 -189.96273" />
    <path d="M 477.35454 -257.04276 C 475.95 -247.93 478.44 -187.16 479.32538 -179.20043 C 479.86 -174.34 484.2 -183.86 480.12432 -177.85526 C 479.86 -174.34 484.2 -183.86 485.50974 -187.4427 C 486.44 -189.99 487.63 -191.65 487.09626 -189.83658 C 486.44 -189.99 487.63 -191.65 489.3744 -186.39183 C 491.11 -181.13 490.52 -169.56 489.02553 -162.15196 C 487.53 -154.74 483.26 -145 483.26253 -145.00061 C 488.75 -103.47 514.9 -8.9 521.17515 10.83315 C 527.45 30.56 543.72 79.98 542.12886 75.65308" />
    <path d="M 494.54885 -189.18199 C 495.48 -191.73 496.67 -193.39 496.13537 -191.57586 L 487.09626 -189.83658" />
    <path d="M 496.13537 -191.57586 C 495.48 -191.73 496.67 -193.39 498.41351 -188.13111 L 489.3744 -186.39183" />
    <path d="M 498.41351 -188.13111 C 500.15 -182.87 499.56 -171.3 498.06465 -163.89125 L 489.02553 -162.15196" />
    <path d="M 492.30164 -146.7399 L 483.26253 -145.00061" />
    <path d="M 498.06465 -163.89125 C 496.57 -156.48 492.3 -146.74 492.30164 -146.7399 C 497.79 -105.2 523.94 -10.64 505.52212 -82.44831" />
    <path d="M 545.47994 75.00828 C 545.72 73.89 539.71 58.02 522.97835 5.51382 C 506.24 -46.99 503.5 -99.16 501.68422 -139.99558 C 499.87 -180.83 503.47 -234.57 503.47383 -234.5657 L 477.35454 -257.04276" />
    <path d="M 466.33198 -230.4673 C 473.68 -253.68 469.43 -238.59 460.95305 -215.23513 L 451.91394 -213.49585 C 446.98 -199.91 440.89 -184.83 438.55073 -179.14522 C 436.21 -173.46 437.19 -167.56 438.33054 -163.83626 C 439.47 -160.11 443.16 -146.03 444.8248 -140.91651 C 446.49 -135.8 447.17 -136.06 447.34407 -137.13474 C 446.49 -135.8 447.17 -136.06 451.04359 -140.40221 C 455.22 -145.08 459.59 -150.48 462.5456 -154.25227 C 466.57 -159.39 467.44 -160.31 467.0894 -169.97978 C 466.79 -178.34 466.15 -189.17 466.09538 -199.22912 C 466.04 -209.29 466.87 -247.95 465.74244 -249.96658 C 464.64 -251.94 460.4 -236.85 465.47595 -250.13509 C 464.64 -251.94 460.4 -236.85 451.91394 -213.49585" />
    <path d="M 460.95305 -215.23513 C 456.02 -201.65 449.93 -186.57 447.58985 -180.8845 L 438.55073 -179.14522" />
    <path d="M 447.58985 -180.8845 C 445.25 -175.2 446.23 -169.3 447.36966 -165.57555 L 438.33054 -163.83626" />
    <path d="M 447.36966 -165.57555 C 448.51 -161.85 452.2 -147.77 453.63666 -143.36847" />
    <path d="M 330.14531 -383.67664 C 328.12 -375.3 334.88 -303.57 336.83754 -289.0744" />
    <path d="M 321.66723 -390.92357 C 319.08 -373.56 325.84 -301.83 328.7029 -279.87972 C 331.57 -257.93 332.68 -209.35 332.80995 -191.65172 C 332.94 -173.96 333.54 -144.09 335.29366 -133.90289 C 337.05 -123.71 339.42 -127.65 338.2169 -127.60226 C 337.05 -123.71 339.42 -127.65 342.27225 -133.1537 C 345.13 -138.66 345.99 -139.29 344.03241 -147.02216 C 342.07 -154.75 341.3 -164.35 339.3699 -191.95519 C 337.44 -219.56 336.83 -245.98 336.5917 -275.3387 C 336.35 -304.69 342.99 -372.69 342.99262 -372.69494 L 321.66723 -390.92357 Z" />
    <path d="M 342.85774 -152.73674 C 341.98 -175.7 342.58 -145.83 344.14818 -136.81337" />
    <path d="M 329.12555 -129.71732 C 329.25 -123.67 329.24 -107.36 329.24725 -103.51783" />
    <path d="M 320.01852 -132.51199 C 320.21 -121.93 320.21 -105.62 320.20881 -100.53632 C 320.21 -95.46 321.14 -92.92 321.86159 -95.11948 C 320.21 -95.46 321.14 -92.92 324.34984 -97.47699 C 327.56 -102.03 330.35 -104.22 331.44848 -106.72772 C 332.54 -109.23 333.21 -111.31 331.20564 -120.25527 C 329.2 -129.2 324.44 -151.62 323.1483 -156.10587 C 321.85 -160.59 320.17 -169.68 320.54507 -164.68304 C 321.85 -160.59 320.17 -169.68 320.17165 -161.19065 C 320.17 -152.7 319.82 -143.09 320.01852 -132.51199 Z" />
    <path d="M 325.96315 117.24716 C 323.41 113.62 321.91 113.63 322.88442 114.94087 C 323.41 113.62 321.91 113.63 321.45306 118.11498" />
    <path d="M 351.33039 -106.59573 C 351.13 -106.06 348.92 -100.72 355.9041 -97.50143 L 346.86498 -95.76214 C 353.85 -92.54 379.15 -93.32 390.01381 -95.9908 C 353.85 -92.54 379.15 -93.32 393.11992 -96.65576 C 407.09 -99.99 430.98 -117.56 434.49896 -119.65997 C 438.02 -121.76 437.04 -125.3 436.60753 -128.31198 C 436.17 -131.32 433.28 -143.81 431.80457 -151.34698 C 430.33 -158.88 428.98 -163.08 428.45377 -160.3727 C 430.33 -158.88 428.98 -163.08 426.98394 -158.44899 C 424.88 -153.59 407.56 -127.25 385.37747 -113.41344 C 363.2 -99.58 357.99 -112.48 371.97811 -107.56781 C 363.2 -99.58 357.99 -112.48 355.11261 -117.8311 C 352.23 -123.18 350.97 -123.83 351.11035 -122.70621 C 352.23 -123.18 350.97 -123.83 349.96894 -121.26819 C 348.96 -118.7 343.34 -107.65 342.29128 -104.85644 C 342.09 -104.32 339.88 -98.98 346.86498 -95.76214" />
    <path d="M 355.9041 -97.50143 C 362.89 -94.28 388.19 -95.06 394.11212 -96.91151" />
    <path d="M 431.53021 -152.71372 C 433.92 -155.33 416.6 -128.99 394.41658 -115.15272 L 385.37747 -113.41344" />
    <path d="M 394.41658 -115.15272 C 372.24 -101.32 367.03 -114.22 381.01722 -109.30709 L 371.97811 -107.56781" />
    <path d="M 355.89297 -116.34859 C 358 -120.44 352.38 -109.39 351.33039 -106.59573 L 342.29128 -104.85644" />
    <path d="M 424.87788 -43.86089 C 416.67 -35.53 396.3 -42.42 417.94731 -41.63383 L 408.90819 -39.89455 C 407.63 -33.79 387.26 -40.68 371.24179 -46.38742 C 355.23 -52.1 346.18 -64.73 342.41315 -72.11215 C 338.64 -79.49 336.51 -81.83 334.98008 -80.9087 C 338.64 -79.49 336.51 -81.83 334.28604 -80.65728 C 332.06 -79.48 327.32 -75.21 322.82617 -70.20161 C 318.33 -65.19 323.3 -59.65 328.69384 -58.83985 C 334.09 -58.03 340.25 -54.9 350.68207 -45.96797 C 361.12 -37.04 366.77 -33.13 383.14294 -25.30493 C 399.52 -17.48 421.34 -22.43 419.91525 -22.44866 C 399.52 -17.48 421.34 -22.43 425.43944 -23.79103 C 429.54 -25.15 428.61 -27.82 428.079 -30.38803 C 427.55 -32.96 426.22 -37.53 425.29128 -42.10488 C 424.36 -46.68 423.36 -47.23 422.92742 -46.6352 C 424.36 -46.68 423.36 -47.23 422.19503 -46.23181 C 407.63 -33.79 387.26 -40.68 408.90819 -39.89455" />
    <path d="M 338.53502 -78.6875 C 341.1 -81.22 336.36 -76.95 331.86529 -71.94089 L 322.82617 -70.20161" />
    <path d="M 331.86529 -71.94089 C 327.37 -66.93 332.34 -61.39 337.73296 -60.57913 L 328.69384 -58.83985" />
    <path d="M 337.73296 -60.57913 C 343.13 -59.77 349.29 -56.64 359.72119 -47.70725 L 350.68207 -45.96797" />
    <path d="M 359.72119 -47.70725 C 370.16 -38.78 375.81 -34.87 392.18206 -27.04422 L 383.14294 -25.30493" />
    <path d="M 392.18206 -27.04422 C 408.56 -19.22 430.38 -24.17 424.18981 -23.42047" />
    <path d="M 446.62723 -59.87594 C 449.95 -62.6 445.1 -58.61 443.39173 -57.01137 L 434.35262 -55.27209 C 432.64 -53.67 433.13 -51.04 434.11068 -46.6127 C 435.1 -42.19 436.12 -36.44 437.43936 -32.11036 C 438.76 -27.78 440.71 -25.71 441.31493 -26.56848 C 438.76 -27.78 440.71 -25.71 441.84951 -26.87172 C 442.99 -28.03 449.76 -30.73 451.66837 -31.80191 C 453.58 -32.87 452.52 -36.79 451.25654 -40.88184 C 449.99 -44.96 449.09 -50.35 447.33162 -57.30752 C 445.58 -64.23 444.44 -65.03 444.02417 -64.09212 C 445.58 -64.23 444.44 -65.03 443.04198 -63.37354 C 440.91 -60.86 436.06 -56.87 434.35262 -55.27209" />
    <path d="M 443.39173 -57.01137 C 441.68 -55.41 442.16 -52.78 443.1498 -48.35198 L 434.11068 -46.6127" />
    <path d="M 443.1498 -48.35198 C 444.13 -43.93 445.16 -38.18 446.47848 -33.84964 L 437.43936 -32.11036" />
    <path d="M 446.47848 -33.84964 C 447.8 -29.52 449.75 -27.45 448.07634 -30.1026" />
    <path d="M 437.32603 -291.5458 C 437.52 -287.36 423.23 -238.18 415.63823 -219.70095 L 406.59911 -217.96167 C 399.01 -199.49 389.05 -190.61 382.07869 -184.59609 C 375.1 -178.59 369.89 -171.05 364.33342 -160.95762 C 358.78 -150.87 355.58 -140.02 356.85692 -137.20891 C 358.13 -134.39 362.87 -142.03 357.77795 -136.63618 C 358.13 -134.39 362.87 -142.03 369.08338 -152.11541 C 375.3 -162.2 383.53 -162.15 410.4307 -202.22296 C 437.33 -242.3 446.13 -284.04 446.1251 -284.03615 L 429.75082 -298.01092 C 428.48 -285.62 414.19 -236.44 406.59911 -217.96167" />
    <path d="M 415.63823 -219.70095 C 408.04 -201.23 398.09 -192.35 391.1178 -186.33537 L 382.07869 -184.59609" />
    <path d="M 391.1178 -186.33537 C 384.14 -180.33 378.93 -172.79 373.37254 -162.69691 L 364.33342 -160.95762" />
    <path d="M 373.37254 -162.69691 C 367.82 -152.61 364.62 -141.76 367.59462 -149.70463" />
    <path d="M 399.65585 -323.8955 C 399.67 -325.7 395.8 -294.14 394.84903 -281.44794" />
    <path d="M 391.88441 -330.60534 C 390.63 -323.96 386.76 -292.4 385.03676 -270.83153 C 383.32 -249.26 382.1 -244.95 383.19414 -243.35025 C 384.29 -241.75 387.28 -251.85 383.49628 -243.19004 C 384.29 -241.75 387.28 -251.85 392.2455 -271.13389 C 397.21 -290.42 404.14 -320.03 404.13624 -320.02715 L 391.88441 -330.60534 Z" />
    <path d="M 368.2546 -350.93062 C 368.15 -360.63 369.02 -282.8 368.70212 -310.35769" />
    <path d="M 359.1073 -358.89198 C 359.11 -358.89 359.98 -281.06 360.18786 -258.8302 C 360.4 -236.6 356.5 -205.55 354.94498 -192.03158 C 353.39 -178.52 351.58 -165.89 354.02888 -165.98179 C 356.48 -166.07 365.09 -187.22 354.10235 -165.99032 C 356.48 -166.07 365.09 -187.22 365.08597 -187.22442 C 362.71 -207.2 364.57 -251.88 365.76104 -274.06794 C 366.95 -296.26 372.41 -347.31 372.41251 -347.31178 L 359.1073 -358.89198 Z" />
    <path d="M 364.33246 -196.76864 C 369.44 -238.34 365.54 -207.28 363.98409 -193.77086 L 354.94498 -192.03158" />
    <path d="M 363.98409 -193.77086 C 362.43 -180.26 360.62 -167.63 362.53394 -181.20947" />
    <path d="M 329.5518 -33.70926 C 329.3 -30.98 329.56 -22.44 332.96896 -17.268 L 323.92984 -15.52871 C 327.34 -10.35 342.22 8.78 351.12019 19.11863 C 360.02 29.46 367.06 34.87 384.8365 46.98338 C 402.61 59.1 446.33 63.27 448.31296 69.48089 C 450.3 75.69 443.23 84.48 441.45217 86.49689 C 439.68 88.52 436.6 87.4 440.86647 95.13774" />
    <path d="M 320.64194 -38.07655 C 320.26 -29.24 320.52 -20.7 323.92984 -15.52871" />
    <path d="M 332.96896 -17.268 C 336.38 -12.09 351.26 7.04 360.1593 17.37934 L 351.12019 19.11863" />
    <path d="M 360.1593 17.37934 C 369.06 27.72 376.1 33.13 393.87562 45.24409 L 384.8365 46.98338" />
    <path d="M 393.87562 45.24409 C 411.65 57.36 455.37 61.54 452.33377 64.41914" />
    <path d="M 456.38151 75.65641 C 459.34 73.95 452.27 82.74 450.49129 84.75761 L 441.45217 86.49689" />
    <path d="M 450.49129 84.75761 C 448.72 86.78 445.64 85.66 449.90559 93.39846" />
    <path d="M 462.22392 91.0282 C 474.93 137.95 445.64 46 442.92101 35.30827 C 440.21 24.62 437.64 24.15 437.17415 25.25372 C 440.21 24.62 437.64 24.15 435.73583 26.15294 C 433.83 28.15 418.45 41.1 422.9384 32.15354 C 433.83 28.15 418.45 41.1 384.64758 24.45971 C 350.84 7.82 333.05 -27.65 327.69301 -37.04152 C 322.34 -46.44 320.84 -42.8 322.33798 -42.8782 C 322.34 -46.44 320.84 -42.8 320.64194 -38.07655" />
    <path d="M 440.20842 27.61914 C 442.87 26.41 427.49 39.36 431.97752 30.41426 L 422.9384 32.15354" />
    <path d="M 324.34349 36.31962 C 320.09 29.72 320.84 38.66 321.91392 34.02551 C 320.09 29.72 320.84 38.66 320.58349 45.88467 C 320.33 53.11 320.69 56.39 324.86361 62.29141 C 329.04 68.19 371.41 128.76 358.9113 110.90736" />
    <path d="M 329.61124 44.47721 C 329.37 51.37 329.73 54.65 333.90273 60.55213 L 324.86361 62.29141" />
    <path d="M 333.90273 60.55213 C 338.08 66.45 380.45 127.02 367.95042 109.16807" />
    <path d="M 425.4682 98.10064 C 425.17 96.95 424.7 96.01 423.50449 97.03945 C 425.17 96.95 424.7 96.01 420.48515 98.32132 C 416.27 100.64 394.19 101.78 417.72881 99.18101 C 416.27 100.64 394.19 101.78 370.34426 87.30526 C 346.5 72.83 327.9 41.83 324.34349 36.31962" />
    <path d="M 465.12058 7.10767 C 467.78 3.27 465.95 6.18 463.94239 8.60792 L 454.90327 10.3472 C 452.9 12.77 452.83 13.77 456.50305 24.52022 C 461.84 40.13 476.16 75 483.76298 86.8837" />
    <path d="M 460.44926 2.48923 C 458.74 5.01 456.91 7.92 454.90327 10.3472" />
    <path d="M 463.94239 8.60792 C 461.94 11.03 461.87 12.03 465.54216 22.78093 L 456.50305 24.52022" />
    <path d="M 465.54216 22.78093 C 470.88 38.39 485.2 73.26 492.80209 85.14442" />
    <path d="M 494.4094 84.83515 C 485.65 72.58 470.23 22.74 466.67983 11.74256 C 463.13 0.74 462.16 -0.03 461.71006 1.3075 C 463.13 0.74 462.16 -0.03 460.44926 2.48923" />
    <path d="M 484.86638 -32.16898 C 480.13 -26.73 479.76 -23.65 482.44248 -15.03097 C 485.12 -6.41 504.02 47.81 515.88786 75.94074 C 527.76 104.08 556.38 156.35 517.7902 80.33627" />
    <path d="M 522.44174 79.44123 C 548.64 132.51 539.87 116.14 521.86381 78.22535 C 503.85 40.31 491.25 -14.09 488.88508 -24.3442 C 486.52 -34.6 485.75 -33.19 485.67136 -32.86522 C 486.52 -34.6 485.75 -33.19 484.86638 -32.16898" />
    <path d="M 470.4081 -89.51425 C 469.21 -86 469.03 -85.47 470.64687 -80.30628 L 461.60775 -78.567 C 463.22 -73.4 468.09 -60.48 469.69862 -55.94547 C 471.3 -51.41 472.96 -49.38 474.15706 -50.06926 C 471.3 -51.41 472.96 -49.38 474.62254 -50.23337 C 476.29 -51.08 478.67 -50.98 480.28135 -52.38641 C 481.89 -53.8 482.3 -57.64 481.24638 -62.25437 C 480.2 -66.87 474.77 -91.39 473.19312 -98.53114 C 471.62 -105.67 470.1 -108.84 469.91667 -107.04565 C 471.62 -105.67 470.1 -108.84 469.24781 -106.03542 C 468.4 -103.23 462.84 -92.08 461.36898 -87.77497 C 460.17 -84.26 459.99 -83.73 461.60775 -78.567" />
    <path d="M 470.64687 -80.30628 C 472.26 -75.14 477.13 -62.22 478.73773 -57.68475 L 469.69862 -55.94547" />
    <path d="M 478.73773 -57.68475 C 480.34 -53.15 481.99 -51.12 480.90533 -53.15211" />
    <path d="M 473.54496 -96.93691 C 477.44 -104.97 471.88 -93.82 470.4081 -89.51425 L 461.36898 -87.77497" />
    <path d="M 675.42084 -209.667 L 675.98236 -209.18446" />
    <path d="M 623.03857 -157.88899 L 625.77213 -155.53985" />
    <path d="M 589.21276 -70.45785 L 589.73261 -70.01111" />
    <path d="M 631.41208 -256.90294 L 635.0932 -253.7395" />
    <path d="M 629.71403 -334.24481 L 629.79546 -334.17483" />
    <path d="M 498.76888 -359.2544 L 499.54953 -358.58353" />
    <path d="M 585.85311 -212.92085 L 588.51469 -210.63357" />
    <path d="M 413.7129 -215.31883 L 416.78787 -212.6763" />
    <path d="M 542.65051 -27.0531 L 536.03573 -25.78031" />
    <path d="M 481.8419 -179.68466 L 479.32538 -179.20043" />
    <path d="M 524.47381 10.19843 L 521.17515 10.83315" />
    <path d="M 452.85389 -142.46144 L 444.8248 -140.91651" />
    <path d="M 336.62645 -281.40435 L 328.7029 -279.87972" />
    <path d="M 339.30428 -192.90135 L 332.80995 -191.65172" />
    <path d="M 343.49191 -135.48037 L 335.29366 -133.90289" />
    <path d="M 328.17384 -134.08122 L 320.01852 -132.51199" />
    <path d="M 327.96228 -102.02822 L 320.20881 -100.53632" />
    <path d="M 321.75046 -161.49444 L 320.17165 -161.19065" />
    <path d="M 429.81858 -158.99443 L 426.98394 -158.44899" />
    <path d="M 352.63161 -121.78053 L 349.96894 -121.26819" />
    <path d="M 423.56548 -46.49551 L 422.19503 -46.23181" />
    <path d="M 335.66752 -80.9231 L 334.28604 -80.65728" />
    <path d="M 444.90494 -63.73201 L 443.04198 -63.37354" />
    <path d="M 359.31342 -137.68158 L 356.85692 -137.20891" />
    <path d="M 392.53845 -272.27498 L 385.03676 -270.83153" />
    <path d="M 383.87512 -243.48128 L 383.19414 -243.35025" />
    <path d="M 365.06468 -259.76859 L 360.18786 -258.8302" />
    <path d="M 354.17978 -166.01082 L 354.02888 -165.98179" />
    <path d="M 326.3957 -39.18367 L 320.64194 -38.07655" />
    <path d="M 453.75808 68.43315 L 448.31296 69.48089" />
    <path d="M 438.58649 25.60442 L 435.73583 26.15294" />
    <path d="M 329.41615 44.18512 L 320.58349 45.88467" />
    <path d="M 425.06967 97.43918 L 420.48515 98.32132" />
    <path d="M 462.86077 2.02521 L 460.44926 2.48923" />
    <path d="M 486.34468 -32.45343 L 484.86638 -32.16898" />
    <path d="M 490.70435 -16.6207 L 482.44248 -15.03097" />
    <path d="M 520.39561 75.07337 L 515.88786 75.94074" />
    <path d="M 470.7747 -106.32923 L 469.24781 -106.03542" />
    <path d="M 675.92883 -209.17694 L 680.20602 -205.50126" />
    <path d="M 901.50144 -151.25542 L 905.77863 -147.57974" />
    <path d="M 632.88554 -131.87296 L 637.16273 -128.19728" />
    <path d="M 629.8074 -151.25734 L 634.08459 -147.58165" />
    <path d="M 753.01361 -238.32992 L 757.2908 -234.65424" />
    <path d="M 806.80497 -276.29468 L 811.08216 -272.61899" />
    <path d="M 425.27833 97.72835 L 417.72881 99.18101" />
</svg>