<svg version="1.1" xmlns="http://www.w3.org/2000/svg" viewBox="-1446.5319732537678 -1279.9226862065618 2893.063946507536 2925.2474929158325" fill="none" stroke="black" stroke-width="0.6%" vector-effect="non-scaling-stroke">
    <path d="M 631.53389 189.46192 L 629.57837 187.63948 L 91.92511 298.16716 L 95.92118 301.89128 L -38.49214 329.52321 L 0.02312 365.41738 L 1445.53197 68.25794 L 1321.2507 -47.56561" />
    <path d="M 631.53389 189.46192 L 631.53389 -175.9402 L 1321.2507 -317.72824 L 1062.10167 -559.24138 L 372.38486 -417.45335 L 631.53389 -175.9402" />
    <path d="M 372.38486 240.51185 L 372.38486 -417.45335" />
    <path d="M -556.79021 1035.49239 L -38.49214 1518.51869 L -38.49214 329.52321" />
    <path d="M -466.27619 1016.88504 L -556.79021 1035.49239" />
    <path d="M 91.92511 302.71277 L 91.92511 298.16716" />
    <path d="M 1321.2507 47.67388 L 631.53389 189.46192" />
    <path d="M -48.02581 -1220.69703 L 734.08647 -491.8099" />
    <path d="M -137.18212 -1202.36879 L -48.02581 -1220.69703" />
    <path d="M -179.69345 -1241.98709 L -137.18212 -1202.36879 L -137.18212 -496.96054" />
    <path d="M -0.02312 -1278.92269 L -179.69345 -1241.98709 L -179.69345 -488.2213" />
    <path d="M 824.60049 -510.41725 L -0.02312 -1278.92269" />
    <path d="M 1321.2507 47.67388 L 1321.2507 -317.72824" />
    <path d="M -1312.50663 -960.7523 L -1223.35032 -979.08054 L -1265.86165 -1018.69884 L -1445.53197 -981.76324 L -556.79021 -153.50309 L -556.79021 1035.49239" />
    <path d="M -1223.35032 -877.66335 L -1223.35032 -979.08054" />
    <path d="M -1445.53197 297.14418 L -1445.53197 -981.76324" />
    <path d="M -48.02581 -475.03393 L -48.02581 -1220.69703" />
    <path d="M -1445.53197 297.14418 L 0.02312 1644.32481 L 1445.53197 1347.16536 L 1445.53197 68.25794" />
    <path d="M 0.02312 1644.32481 L 0.02312 365.41738" />
    <path d="M -556.79021 -153.50309 L -466.27619 -172.11044 L -1312.50663 -960.7523" />
    <path d="M -466.27619 -172.11044 L -466.27619 1016.88504" />
    <path d="M -176.7769 -395.43584 L -610.28387 -306.31795" />
    <path d="M -176.7769 -305.5239 L -176.7769 -395.43584" />
    <path d="M -423.73681 104.89246 A 750 610.37181 132.98258 0 1 -176.7769 -305.5239" />
    <path d="M -466.27619 113.63747 L -423.73681 104.89246" />
    <path d="M -181.02803 -399.39767 L -614.535 -310.27978" />
    <path d="M -181.02803 -399.39767 L -176.7769 -395.43584" />
    <path d="M -661.7986 -389.11288 L -692.37907 -382.82632" />
    <path d="M 82.60235 304.62929 L -343.23525 -92.22875" />
    <path d="M -583.95453 -316.56634 L -661.7986 -389.11288" />
    <path d="M -426.72187 483.7724 L -38.49214 403.96236" />
    <path d="M -466.27619 446.90987 L -426.72187 483.7724" />
    <path d="M -466.27619 504.00395 L -426.72187 540.86648 L -38.49214 461.05644" />
    <path d="M -426.72187 540.86648 L -426.72187 483.7724" />
    <path d="M -658.17804 -385.73871 L -658.17804 -389.85718 L -580.33397 -317.31064" />
    <path d="M -341.71058 -94.9263 L 86.22291 303.885" />
    <path d="M 372.38486 -83.2335 L -83.41403 -508.01388 L -658.17804 -389.85718" />
</svg>