<svg version="1.1" xmlns="http://www.w3.org/2000/svg" viewBox="-1479.3967361437362 -1325.2293157710449 2958.7934722874725 2873.459075324493" fill="none" stroke="black" stroke-width="0.6%" vector-effect="non-scaling-stroke">
    <path d="M -1478.39674 226.32319 L 6.10023 1547.22976 L 6.10023 227.9982 L 1478.39674 -3.32275 L 1043.96901 -389.87688" />
    <path d="M -35.11858 191.32167 L 6.10023 227.9982" />
    <path d="M -35.11858 1417.80635 L -35.11858 191.32167" />
    <path d="M -507.43035 997.54297 L -35.11858 1417.80635" />
    <path d="M -507.43035 -228.94171 L -507.43035 997.54297" />
    <path d="M -1478.39674 -1092.90837 L -507.43035 -228.94171 L -415.23896 -243.42643 L -1347.46586 -1072.92266 L -1256.65734 -1087.19011 L -1295.39682 -1121.66053 L -1478.39674 -1092.90837 Z" />
    <path d="M -1478.39674 226.32319 L -1478.39674 -1092.90837" />
    <path d="M 6.10023 1547.22976 L 1478.39674 1315.90881 L 1478.39674 -3.32275" />
    <path d="M 59.55213 179.04306 L 57.07281 176.83695 L -35.11858 191.32167" />
    <path d="M 1347.46586 -23.30845 L 59.55213 179.04306" />
    <path d="M 1042.58614 -294.59067 L 1347.46586 -23.30845" />
    <path d="M 1043.96901 -294.80794 L 1042.58614 -294.59067 L 1042.58614 24.59295" />
    <path d="M -59.55213 -1275.27417 L 825.70529 -487.57142" />
    <path d="M 858.11641 -458.73198 L 886.31947 -433.63687" />
    <path d="M 934.92395 -390.38857 L 992.274 -339.35845" />
    <path d="M -150.36065 -1261.00673 L -59.55213 -1275.27417" />
    <path d="M -189.10014 -1295.47715 L -150.36065 -1261.00673 L -150.36065 -1237.79801" />
    <path d="M -6.10023 -1324.22931 L -189.10014 -1295.47715 L -189.10014 -1231.71143" />
    <path d="M 999.43735 -429.50118 L 950.21349 -473.30062" />
    <path d="M 917.89668 -502.05614 L -6.10023 -1324.22931" />
    <path d="M -415.23896 983.05825 L -507.43035 997.54297" />
    <path d="M -415.23896 -243.42643 L -415.23896 983.05825" />
    <path d="M 729.18372 -552.68109 L 729.18372 -472.40637" />
    <path d="M 729.18372 -273.56344 L 729.18372 -231.45631" />
    <path d="M 729.18372 -153.22458 L 729.18372 -116.67259" />
    <path d="M 729.18372 -62.35555 L 729.18372 -28.10472" />
    <path d="M 729.18372 19.37815 L 729.18372 66.0144" />
    <path d="M 725.30978 -556.12813 L 729.18372 -552.68109" />
    <path d="M 702.06609 -576.81038 L 702.06609 -552.47618" />
    <path d="M 698.19214 -580.25742 L 702.06609 -576.81038" />
    <path d="M 477.37709 -776.73883 L 477.37709 -545.5639" />
    <path d="M 477.37709 -150.40812 L 477.37709 -132.21823" />
    <path d="M 473.50314 -780.18587 L 477.37709 -776.73883" />
    <path d="M 450.25945 -800.86812 L 450.25945 -776.53392" />
    <path d="M 446.3855 -804.31517 L 450.25945 -800.86812" />
    <path d="M 225.57045 -1000.79657 L 225.57045 -769.62165" />
    <path d="M 225.57045 -507.80322 L 225.57045 -258.35807" />
    <path d="M 221.69651 -1004.24361 L 225.57045 -1000.79657" />
    <path d="M 198.45282 -1024.92587 L 198.45282 -1000.59166" />
    <path d="M 194.57887 -1028.37291 L 198.45282 -1024.92587" />
    <path d="M -26.23618 -1224.85431 L -26.23618 -993.67939" />
    <path d="M -26.23618 -731.86097 L -26.23618 -482.41581" />
    <path d="M -30.11013 -1228.30135 L -26.23618 -1224.85431" />
    <path d="M -53.35382 -1248.98361 L -53.35382 -1224.6494" />
    <path d="M -57.22777 -1252.43065 L -53.35382 -1248.98361" />
    <path d="M -59.55213 -1252.06545 L -59.55213 -1275.27417" />
    <path d="M 352.53358 -409.173 L 1043.96901 -517.80839 L 1043.96901 -294.80794" />
    <path d="M 352.53358 -403.382 L 352.53358 -409.173" />
    <path d="M 957.26126 -125.38772 C 957.54 -118.63 994.52 -74.45 993.7188 -79.36214 C 957.54 -118.63 994.52 -74.45 999.95596 -75.42706 C 1004.82 -76.3 1002.42 -122.22 1002.56335 -140.1104 C 1002.7 -157.47 1004.12 -204.27 1001.24094 -203.794 C 1002.7 -157.47 1004.12 -204.27 1000.95204 -203.90006 C 997.79 -203.53 986.94 -184.93 975.81568 -165.89078 C 965.63 -148.44 956.94 -133.23 957.26126 -125.38772 Z" />
    <path d="M 641.63003 84.53001 C 637.35 151.29 659.46 236.1 641.45151 87.61751" />
    <path d="M 663.92561 -9.38624 C 659.79 -0.52 645.91 17.77 641.63003 84.53001" />
    <path d="M 686.2932 80.57217 C 680.03 105.63 691.57 51.97 696.63022 39.99151 C 701.69 28.01 704.55 32.91 703.70986 33.9569 C 701.69 28.01 704.55 32.91 710.18374 45.71463 C 715.82 58.52 719.53 64.72 721.09064 63.6832 C 715.82 58.52 719.53 64.72 728.37196 67.91981 C 737.43 71.2 754.63 75.69 742.44477 71.74988" />
    <path d="M 680.42342 -6.93352 C 674.5 -10.08 668.06 -18.25 663.92561 -9.38624" />
    <path d="M 840.34887 41.42662 C 757.58 46.71 686.34 -3.79 680.42342 -6.93352" />
    <path d="M 989.03815 9.37066 C 976.97 14.94 923.13 36.14 840.34887 41.42662" />
    <path d="M 1002.74889 22.01487 C 1003.45 9.55 1001.12 3.8 1000.24787 8.48669 C 1003.45 9.55 1001.12 3.8 989.03815 9.37066" />
    <path d="M 1000.20847 31.25115 C 996.29 38.96 1002.05 34.48 1002.74889 22.01487" />
    <path d="M 713.00401 -157.57429 C 709.32 -152.94 705.38 -147.77 701.05008 -142.8803 C 696.72 -137.99 696.58 -136.89 701.75614 -132.7466 C 696.72 -137.99 696.58 -136.89 704.49827 -130.4294 C 716 -121.04 746.86 -102.99 813.3766 -83.18263 C 874.9 -64.86 943.85 -74.79 952.98398 -76.73074 C 962.11 -78.67 967.31 -73.37 969.62437 -74.88594 C 971.94 -76.4 964.22 -81.76 965.58371 -80.9352 C 971.94 -76.4 964.22 -81.76 960.80638 -85.1203 C 971.94 -76.4 964.22 -81.76 958.24758 -87.4695 C 952.5 -92.97 948.01 -98.3 955.34219 -90.21415 C 952.5 -92.97 948.01 -98.3 931.70499 -90.81485 C 915.4 -83.33 876.99 -86.45 822.15577 -101.69757 C 767.33 -116.95 734.09 -148.86 730.74129 -151.83866 C 767.33 -116.95 734.09 -148.86 726.43351 -155.72605 C 718.78 -162.6 716.69 -162.21 726.14365 -155.98511 C 718.78 -162.6 716.69 -162.21 713.00401 -157.57429 Z" />
    <path d="M 455.63809 -8.48495 C 426.09 -9.4 458.18 -8.01 455.80048 -8.48077" />
    <path d="M 474.3123 -8.25687 C 426.09 -9.4 458.18 -8.01 477.35406 -8.28642 C 496.53 -8.56 511.71 -11.6 479.46664 -8.32856" />
    <path d="M 506.47509 -32.65713 C 476.75 -19.42 438.4 -33.87 503.44944 -32.18071" />
    <path d="M 659.73622 -103.62119 C 655.64 -99.29 622.49 -67.52 635.99863 -84.59063" />
    <path d="M 609.69451 -68.81798 C 655.64 -99.29 622.49 -67.52 590.31789 -59.29268" />
    <path d="M 561.10938 -47.43798 C 655.64 -99.29 622.49 -67.52 559.47769 -46.85219" />
    <path d="M 590.4451 -35.13908 C 588.34 -30.06 682.57 -78.76 609.69374 -43.30165" />
    <path d="M 635.99863 -54.90748 C 588.34 -30.06 682.57 -78.76 686.84075 -74.87078 C 588.34 -30.06 682.57 -78.76 686.84521 -74.86677 C 691.12 -70.97 675.89 -53.48 672.05733 -49.28329 C 668.23 -45.08 661.59 -42.48 669.24799 -40.96081 C 668.23 -45.08 661.59 -42.48 680.25057 -35.37726 C 698.91 -28.27 764.27 -20.08 819.13824 -13.17098 C 874.02 -6.26 974.11 -20.26 987.29989 -21.91786 C 1000.5 -23.58 1001.71 -27.61 999.44816 -37.47646 C 997.18 -47.34 987.82 -60.56 993.19334 -48.63476 C 997.18 -47.34 987.82 -60.56 962.47603 -47.25483 C 938.73 -34.79 903.28 -25.19 823.74755 -31.38837 C 744.21 -37.58 681.07 -95.46 683.70131 -94.65771 C 744.21 -37.58 681.07 -95.46 675.2233 -103.02856 C 669.37 -110.59 663.83 -107.95 673.02065 -105.42622 C 669.37 -110.59 663.83 -107.95 659.73622 -103.62119" />
    <path d="M 934.79088 -470.86939 C 932.43 -470.49 937.38 -320.23 935.14244 -282.5815 C 932.86 -244.11 921.35 -220.62 921.4317 -204.75447 C 921.51 -188.89 936.76 -163.66 941.31422 -151.03773 C 944.83 -141.28 951.88 -147.29 943.76433 -146.96027 C 944.83 -141.28 951.88 -147.29 951.34338 -155.29944 C 950.8 -163.31 944.83 -179.01 955.00543 -238.96404 C 965.34 -299.92 1003.31 -345.49 1003.30553 -345.49156 L 1003.31529 -481.65531 C 1003.32 -481.66 936.61 -471.16 934.79088 -470.86939 Z" />
    <path d="M 828.03459 -454.02557 C 826.95 -410.24 868.83 -296.17 875.92453 -277.81431 C 883.02 -259.46 893.69 -223.22 896.03839 -222.00962 C 883.02 -259.46 893.69 -223.22 896.16838 -221.91635 C 898.64 -220.61 901.56 -225.92 897.29142 -239.14586 C 893.76 -250.1 890.79 -273.15 888.26811 -313.49631 C 885.75 -353.85 891.85 -464.01 891.85204 -464.01005 L 828.03459 -454.02557 Z" />
    <path d="M 765.63314 -222.33008 C 755.43 -211.08 754.64 -207.5 760.40861 -201.99614 C 766.19 -196.49 806.92 -164.34 761.28605 -201.19321 C 766.19 -196.49 806.92 -164.34 832.49742 -150.1471 C 858.08 -135.96 919.78 -117.56 930.97257 -115.10438 C 942.15 -112.65 936.97 -121.05 933.29676 -128.63021 C 929.62 -136.21 926.81 -138.53 929.27283 -134.70602 C 929.62 -136.21 926.81 -138.53 914.95718 -135.45718 C 903.09 -132.38 884.2 -138.39 845.3781 -155.06511 C 806.55 -171.74 779.39 -211.71 809.36128 -178.7292 C 806.55 -171.74 779.39 -211.71 774.29513 -219.25336 C 769.2 -226.8 767.55 -224.44 771.03947 -223.23328 C 769.2 -226.8 767.55 -224.44 765.63314 -222.33008 Z" />
    <path d="M 714.9864 -250.32382 C 712.41 -245.31 712.02 -244.55 715.50105 -241.2651 C 718.98 -237.98 729.48 -230.76 715.97385 -240.83289 C 718.98 -237.98 729.48 -230.76 732.94025 -228.09851 C 736.4 -225.44 739.96 -225.38 743.55338 -228.26288 C 747.16 -231.15 752.28 -233.93 755.75047 -237.30187 C 759.21 -240.68 760.1 -245.07 757.83052 -248.48849 C 755.57 -251.9 743.87 -270.22 740.47237 -275.56334 C 737.08 -280.91 733.8 -282.28 737.49263 -279.2592 C 737.08 -280.91 733.8 -282.28 731.96858 -278.40358 C 730.14 -274.52 718.15 -256.47 714.9864 -250.32382 Z" />
    <path d="M 749.44197 -441.52319 C 746.4 -430.56 751.79 -371.9 753.68995 -364.88496 C 754.85 -360.6 764.2 -375.52 754.01409 -364.287 C 754.85 -360.6 764.2 -375.52 767.01984 -380.74219 C 769.03 -384.46 771.6 -387.59 775.3498 -384.35574 C 779.1 -381.13 777.81 -368.66 775.39319 -384.31775 C 779.1 -381.13 777.81 -368.66 774.59786 -359.32508 C 771.39 -350 762.18 -334.93 762.17616 -334.93369 C 774 -299.41 830.37 -235.08 843.89374 -222.64725 C 857.41 -210.22 892.5 -179.76 858.76339 -209.28285 C 857.41 -210.22 892.5 -179.76 872.21003 -197.33026 C 857.41 -210.22 892.5 -179.76 900.23083 -171.66756 C 907.97 -163.57 917.08 -153.16 913.99947 -157.50273 C 907.97 -163.57 917.08 -153.16 918.38486 -155.30248 C 919.68 -157.44 908.81 -170.46 902.79915 -179.40789 C 896.79 -188.36 883.84 -197.19 889.56865 -193.13147 C 896.79 -188.36 883.84 -197.19 864.22394 -215.38291 C 896.79 -188.36 883.84 -197.19 847.7804 -230.23121 C 811.71 -263.27 805.79 -312.9 801.88262 -352.16267 C 797.97 -391.42 805.74 -450.34 805.73999 -450.33705 L 749.44197 -441.52319 Z" />
    <path d="M 493.15686 43.10994 C 467.4 51.83 427.3 42.9 490.91656 43.43681" />
    <path d="M 411.4205 57.8986 C 410.98 63.51 411.76 66.41 413.3441 64.99573 C 410.98 63.51 411.76 66.41 420.76014 67.34104 C 429.76 68.27 521.08 78.45 472.81173 73.08463" />
    <path d="M 609.69246 -0.84573 C 617.78 -4.43 570.18 23.47 590.48273 9.46557" />
    <path d="M 500.50437 76.17075 C 429.76 68.27 521.08 78.45 503.56717 76.51277" />
    <path d="M 638.46601 -17.46515 C 636.96 -18.95 635.95 -19.34 638.17691 -17.73855 C 636.96 -18.95 635.95 -19.34 635.99863 -18.20342" />
    <path d="M 635.99863 -9.10643 C 635.36 -8.35 639.97 -15.98 638.46601 -17.46515" />
    <path d="M 675.48404 -203.35624 C 670.89 -198.22 660.44 -188.3 656.75482 -184.60821 C 653.07 -180.91 654.11 -178.82 656.23334 -175.52425 C 658.36 -172.23 660.57 -167.64 663.40804 -164.83285 C 666.25 -162.03 670.46 -162.29 663.69204 -164.56652 C 666.25 -162.03 670.46 -162.29 672.91376 -164.85564 C 675.37 -167.42 689.96 -178.35 694.07752 -181.75213 C 698.19 -185.15 695.92 -187.85 693.18984 -190.47125 C 690.47 -193.08 688.52 -197.45 684.73 -202.39313 C 680.96 -207.3 678.5 -206.73 682.76702 -204.56694 C 680.96 -207.3 678.5 -206.73 675.48404 -203.35624 Z" />
    <path d="M 461.45488 -118.08578 C 457.89 -122.66 453.13 -114.57 462.00255 -118.14912" />
    <path d="M 479.27831 -124.64955 C 483.24 -124.95 537.77 -156.38 493.38115 -131.96265" />
    <path d="M 524.07092 -149.34533 C 483.24 -124.95 537.77 -156.38 524.65414 -149.68913" />
    <path d="M 547.14706 -163.31228 C 483.24 -124.95 537.77 -156.38 562.77991 -173.29145" />
    <path d="M 485.95941 -152.15209 C 479.75 -154.1 477.04 -153.23 478.19265 -152.7078" />
    <path d="M 589.40269 -192.61568 C 597.99 -196.99 649.48 -243.76 657.07024 -250.15164 C 664.66 -256.55 662.55 -258.96 661.6151 -261.48875 C 660.68 -264.02 654.45 -273.2 651.26271 -279.057 C 648.08 -284.92 645.18 -287.55 647.98362 -283.71834 C 648.08 -284.92 645.18 -287.55 640.87223 -280.42877 C 636.34 -272.95 599 -225.23 574.71066 -205.68866" />
    <path d="M 551.19285 -184.32034 C 503.38 -143.41 492.17 -150.2 545.98523 -179.93207" />
    <path d="M 524.9028 -163.88333 C 503.38 -143.41 492.17 -150.2 522.44494 -162.24534" />
    <path d="M 493.35323 -150.5185 C 503.38 -143.41 492.17 -150.2 485.95941 -152.15209" />
    <path d="M 552.77106 -185.67638 C 636.34 -272.95 599 -225.23 551.19285 -184.32034" />
    <path d="M 724.41303 -420.27636 C 722.04 -420.94 712.89 -400.48 694.60681 -366.50412 C 683.97 -346.74 670.85 -324.06 665.80351 -315.44771 C 660.76 -306.84 662.87 -302.04 665.32891 -299.63949 C 667.78 -297.24 675.74 -287.41 679.28547 -284.27314 C 667.78 -297.24 675.74 -287.41 679.32676 -284.23653 C 682.92 -281.06 684.39 -282.16 692.73086 -291.24584 C 701.72 -301.05 711.15 -311.82 717.5225 -319.23614 C 726.2 -329.33 728.07 -331.32 727.31631 -340.70551 C 726.66 -348.83 725.3 -359.05 725.17376 -369.19542 C 725.05 -379.34 726.84 -419.59 724.53545 -420.2056 C 725.05 -379.34 726.84 -419.59 724.41303 -420.27636 Z" />
    <path d="M 646.83601 -425.46211 C 644.11 -411.35 613.3 -344.11 596.93438 -316.1581 C 580.57 -288.21 559.12 -267.14 544.0826 -252.58947 C 529.05 -238.04 517.81 -224.07 533.78999 -242.0999" />
    <path d="M 682.12945 -431.1055 L 646.83601 -425.46211" />
    <path d="M 605.19305 -304.8206 C 663.16 -378.08 682.13 -431.11 682.12945 -431.1055" />
    <path d="M 514.76771 -219.34829 C 529.05 -238.04 517.81 -224.07 511.86869 -215.47147" />
    <path d="M 516.07226 -203.87697 C 529.47 -221.64 547.22 -231.56 522.95132 -212.05563" />
    <path d="M 543.68426 -233.29598 C 529.47 -221.64 547.22 -231.56 605.19305 -304.8206" />
    <path d="M 492.92353 -186.01235 C 493.86 -190.13 486.97 -175.25 489.52517 -174.06556 C 493.86 -190.13 486.97 -175.25 489.71912 -173.93682 C 492.47 -172.62 502.67 -186.11 492.83161 -175.32193" />
    <path d="M 512.15421 -198.68911 C 492.47 -172.62 502.67 -186.11 516.07226 -203.87697" />
    <path d="M 565.21804 -412.69267 C 562.52 -404.43 554.17 -367.7 550.45848 -343.71763 C 546.75 -319.74 544.12 -313.88 545.98105 -313.79893 C 546.75 -319.74 544.12 -313.88 546.48686 -313.58724 C 548.85 -313.29 555.3 -327.17 565.99635 -352.75492 C 576.69 -378.34 591.63 -416.79 591.62586 -416.79165 L 565.21804 -412.69267 Z" />
    <path d="M 630.55011 -160.70681 C 599.16 -130.44 555.25 -112.76 627.98412 -158.28589" />
    <path d="M 604.41483 -139.83824 C 599.16 -130.44 555.25 -112.76 589.88383 -130.80579" />
    <path d="M 561.68193 -116.31 C 599.16 -130.44 555.25 -112.76 552.00266 -111.96816" />
    <path d="M 525.53103 -101.05424 C 599.16 -130.44 555.25 -112.76 520.72453 -99.15655 C 486.2 -85.55 466.71 -87.43 520.42708 -99.03959" />
    <path d="M 637.22384 -160.26698 C 635.22 -163.78 633.05 -163.12 635.92298 -161.96448 C 635.22 -163.78 633.05 -163.12 630.55011 -160.70681" />
    <path d="M 465.4662 -88.75476 C 486.2 -85.55 466.71 -87.43 458.58675 -90.35848 C 450.46 -93.29 445.87 -93.08 441.06942 -89.19089 C 436.27 -85.3 426.06 -75.23 416.3686 -64.69759 C 406.68 -54.17 417.39 -54.56 412.60841 -58.17925" />
    <path d="M 643.23255 -151.74825 C 642.08 -153.71 639.23 -156.75 637.22384 -160.26698" />
    <path d="M 637.54318 -141.85429 C 646.37 -148.2 644.38 -149.79 643.23255 -151.74825" />
    <path d="M 553.85769 -94.90119 C 581.67 -104.05 628.72 -135.51 561.42109 -98.04102" />
    <path d="M 589.98081 -112.30446 C 581.67 -104.05 628.72 -135.51 609.69617 -123.75881" />
    <path d="M 635.99863 -140.76205 C 581.67 -104.05 628.72 -135.51 637.54318 -141.85429" />
    <path d="M 523.09007 -84.59648 C 498.9 -77.4 511.08 -80.28 526.28534 -85.59081" />
    <path d="M 410.31693 -124.55444 C 410.74 -114.05 410.72 -97.48 410.35 -123.68858" />
    <path d="M 410.23998 -126.98127 C 410.65 -145.24 409.9 -135.06 410.31693 -124.55444" />
    <path d="M 424.56286 -141.31399 C 430.1 -132.31 419.86 -149.32 421.45246 -146.14456" />
    <path d="M 494.56963 -401.71353 C 494.57 -401.71 496.45 -323.76 496.8987 -301.44006 C 497.35 -279.12 488.95 -242.88 495.02951 -276.589" />
    <path d="M 523.24793 -406.071 L 494.56963 -401.71353" />
    <path d="M 508.91123 -323.65886 C 511.47 -347.62 523.25 -406.07 523.24793 -406.071" />
    <path d="M 505.03669 -267.68461 C 502.34 -252.08 506.35 -299.69 508.91123 -323.65886" />
    <path d="M 413.87059 -388.88905 C 408.29 -368.12 422.86 -303.49 415.16138 -347.65574" />
    <path d="M 459.83576 -396.21012 L 413.87059 -388.88905" />
    <path d="M 431.708 -273.70412 C 435.21 -265.87 437.61 -217.89 432.53774 -268.93679" />
    <path d="M 447.94982 -318.48056 C 445.52 -319.13 459.84 -396.21 459.83576 -396.21012" />
    <path d="M 439.29182 -168.13705 C 438.17 -182.28 439.46 -152.68 439.57313 -164.83997" />
    <path d="M 454.49454 -193.51035 C 457.85 -173.84 456.19 -182.65 453.02338 -202.22405" />
    <path d="M 1040.09506 -521.25543 L 1043.96901 -517.80839" />
    <path d="M 348.65963 -412.62004 L 1040.09506 -521.25543" />
    <path d="M 348.65963 -406.82904 L 348.65963 -412.62004 L 352.53358 -409.173" />
    <path d="M 991.65804 -81.26634 C 953.67 -122.08 990.64 -77.9 996.08202 -78.8741 L 999.95596 -75.42706" />
    <path d="M 996.08202 -78.8741 C 1000.95 -79.75 998.54 -125.67 998.6894 -143.55745 L 1002.56335 -140.1104" />
    <path d="M 998.6894 -143.55745 C 998.83 -160.92 1000.24 -207.72 998.52299 -202.01429" />
    <path d="M 681.5736 81.3137 C 676.16 102.19 687.7 48.53 692.75627 36.54447 L 696.63022 39.99151" />
    <path d="M 692.75627 36.54447 C 697.82 24.56 700.67 29.46 699.83591 30.50985 L 703.70986 33.9569" />
    <path d="M 719.2303 61.8146 C 711.95 55.08 715.66 61.27 724.49801 64.47277 L 728.37196 67.91981" />
    <path d="M 724.49801 64.47277 C 733.56 67.76 750.75 72.24 751.55313 70.31881" />
    <path d="M 998.87494 18.56783 C 999.58 6.11 997.24 0.36 997.93086 7.36449" />
    <path d="M 991.66538 32.5934 C 992.42 35.52 998.17 31.03 998.87494 18.56783 L 1002.74889 22.01487" />
    <path d="M 700.16695 -134.25129 C 692.85 -141.43 692.71 -140.34 700.62433 -133.87644 L 704.49827 -130.4294" />
    <path d="M 726.86734 -155.2857 C 763.46 -120.4 730.21 -152.3 724.64623 -157.2819" />
    <path d="M 700.62433 -133.87644 C 712.12 -124.49 742.99 -106.44 809.50265 -86.62967 L 813.3766 -83.18263" />
    <path d="M 809.50265 -86.62967 C 871.03 -68.3 939.98 -78.24 949.11003 -80.17778 L 952.98398 -76.73074" />
    <path d="M 954.37363 -90.91654 C 948.62 -96.42 944.14 -101.74 953.67001 -91.59319" />
    <path d="M 949.11003 -80.17778 C 958.24 -82.12 963.44 -76.82 965.75042 -78.33299 L 969.62437 -74.88594" />
    <path d="M 965.75042 -78.33299 C 968.06 -79.85 960.35 -85.21 963.2253 -82.99986" />
    <path d="M 956.93243 -88.56735 C 968.06 -79.85 960.35 -85.21 954.37363 -90.91654 L 958.24758 -87.4695" />
    <path d="M 473.65535 -11.73606 C 492.66 -12.01 507.84 -15.05 478.5788 -11.87756" />
    <path d="M 590.42186 -40.1831 C 584.46 -33.51 678.69 -82.21 609.6939 -48.43539" />
    <path d="M 635.99863 -60.07959 C 584.46 -33.51 678.69 -82.21 682.96681 -78.31782 C 584.46 -33.51 678.69 -82.21 682.97126 -78.31381 L 686.84521 -74.86677" />
    <path d="M 671.34935 -106.4756 C 665.5 -114.04 659.96 -111.4 671.06141 -106.83998" />
    <path d="M 679.82736 -98.10475 C 740.33 -41.03 677.2 -98.91 671.34935 -106.4756 L 675.2233 -103.02856" />
    <path d="M 667.93098 -42.63113 C 664.36 -48.53 657.72 -45.93 676.37662 -38.8243 L 680.25057 -35.37726" />
    <path d="M 676.37662 -38.8243 C 695.04 -31.72 760.39 -23.53 815.26429 -16.61802 L 819.13824 -13.17098" />
    <path d="M 995.57421 -40.9235 C 993.31 -50.79 983.94 -64.01 991.14468 -50.18904" />
    <path d="M 815.26429 -16.61802 C 870.15 -9.71 970.23 -23.71 983.42595 -25.3649 L 987.29989 -21.91786" />
    <path d="M 983.42595 -25.3649 C 996.63 -27.02 997.84 -31.06 995.57421 -40.9235 L 999.44816 -37.47646" />
    <path d="M 999.43158 -348.93861 L 999.44105 -481.04595" />
    <path d="M 951.13149 -242.41108 C 961.46 -303.36 999.43 -348.94 999.43158 -348.93861 L 1003.30553 -345.49156" />
    <path d="M 941.987 -149.44033 C 940.96 -144.73 948.01 -150.73 947.46943 -158.74648 L 951.34338 -155.29944" />
    <path d="M 947.46943 -158.74648 C 946.92 -166.76 940.96 -182.45 951.13149 -242.41108 L 955.00543 -238.96404" />
    <path d="M 884.39416 -316.94335 C 881.87 -357.29 887.98 -467.46 887.75884 -463.36965" />
    <path d="M 894.12361 -225.65575 C 894.77 -224.06 897.68 -229.36 893.41747 -242.5929 L 897.29142 -239.14586" />
    <path d="M 893.41747 -242.5929 C 889.88 -253.54 886.91 -276.59 884.39416 -316.94335 L 888.26811 -313.49631" />
    <path d="M 770.42118 -222.7004 C 765.32 -230.25 763.67 -227.89 769.26483 -224.32296" />
    <path d="M 759.84475 -202.54961 C 762.32 -199.94 803.05 -167.78 828.62347 -153.59415 L 832.49742 -150.1471" />
    <path d="M 805.48733 -182.17624 C 802.68 -175.19 775.52 -215.15 770.42118 -222.7004 L 774.29513 -219.25336" />
    <path d="M 828.62347 -153.59415 C 854.21 -139.41 915.91 -121.01 927.09863 -118.55142 L 930.97257 -115.10438" />
    <path d="M 927.09863 -118.55142 C 938.28 -116.09 933.09 -124.49 929.42281 -132.07726 L 933.29676 -128.63021" />
    <path d="M 929.42281 -132.07726 C 925.75 -139.66 922.94 -141.98 927.21906 -136.03039" />
    <path d="M 714.3631 -242.40238 C 715.11 -241.43 725.61 -234.2 729.0663 -231.54555 L 732.94025 -228.09851" />
    <path d="M 736.59842 -279.01038 C 733.21 -284.35 729.92 -285.73 735.61998 -280.44604" />
    <path d="M 729.0663 -231.54555 C 732.52 -228.89 736.09 -228.82 739.67943 -231.70992 L 743.55338 -228.26288" />
    <path d="M 753.95657 -251.93553 C 751.7 -255.35 739.99 -273.67 736.59842 -279.01038 L 740.47237 -275.56334" />
    <path d="M 739.67943 -231.70992 C 743.28 -234.6 748.41 -237.37 751.87652 -240.74891 L 755.75047 -237.30187" />
    <path d="M 751.87652 -240.74891 C 755.33 -244.12 756.22 -248.52 753.95657 -251.93553 L 757.83052 -248.48849" />
    <path d="M 752.92355 -369.13015 C 750.98 -364.05 760.32 -378.97 763.14589 -384.18923 L 767.01984 -380.74219" />
    <path d="M 798.00868 -355.60972 C 794.09 -394.87 801.87 -453.78 801.35701 -449.65087" />
    <path d="M 763.14589 -384.18923 C 765.16 -387.9 767.73 -391.03 771.47585 -387.80279 L 775.3498 -384.35574" />
    <path d="M 843.90646 -233.67825 C 807.83 -266.71 801.91 -316.35 798.00868 -355.60972 L 801.88262 -352.16267" />
    <path d="M 771.47585 -387.80279 C 775.23 -384.57 773.94 -372.1 771.51924 -387.7648 L 775.39319 -384.31775" />
    <path d="M 771.51924 -387.7648 C 775.23 -384.57 773.94 -372.1 771.56224 -387.72592" />
    <path d="M 898.9252 -182.85494 C 892.92 -191.8 879.97 -200.64 887.48615 -194.97405" />
    <path d="M 860.34999 -218.82995 C 892.92 -191.8 879.97 -200.64 843.90646 -233.67825 L 847.7804 -230.23121" />
    <path d="M 914.51092 -158.74953 C 915.81 -160.89 904.94 -173.91 898.9252 -182.85494 L 902.79915 -179.40789" />
    <path d="M 911.83219 -159.53917 C 904.1 -167.02 913.2 -156.61 914.51092 -158.74953 L 918.38486 -155.30248" />
    <path d="M 856.94617 -210.90064 C 853.54 -213.66 888.62 -183.21 868.33608 -200.7773 L 872.21003 -197.33026" />
    <path d="M 411.94567 62.92221 C 407.11 60.06 407.88 62.96 416.88619 63.894 L 420.76014 67.34104" />
    <path d="M 416.88619 63.894 C 425.89 64.83 517.21 75 425.2614 64.80104" />
    <path d="M 452.5801 67.82005 C 425.89 64.83 517.21 75 472.00088 69.97841" />
    <path d="M 499.30443 73.0223 C 425.89 64.83 517.21 75 502.51609 73.38108" />
    <path d="M 689.31589 -193.91829 C 686.6 -196.53 684.65 -200.9 680.92145 -205.75477" />
    <path d="M 690.20358 -185.19917 C 694.32 -188.6 692.05 -191.3 689.31589 -193.91829 L 693.18984 -190.47125" />
    <path d="M 661.69171 -166.81471 C 662.37 -165.48 666.58 -165.74 669.03982 -168.30268 L 672.91376 -164.85564" />
    <path d="M 669.03982 -168.30268 C 671.5 -170.87 686.09 -181.8 690.20358 -185.19917 L 694.07752 -181.75213" />
    <path d="M 478.08431 -129.43053 C 479.36 -128.4 533.89 -159.83 493.78258 -137.7352" />
    <path d="M 523.95348 -155.01484 C 479.36 -128.4 533.89 -159.83 524.73484 -155.47951" />
    <path d="M 546.72061 -168.91673 C 479.36 -128.4 533.89 -159.83 561.14171 -178.21498" />
    <path d="M 585.52874 -196.06272 C 594.12 -200.44 645.61 -247.21 653.19629 -253.59868 L 657.07024 -250.15164" />
    <path d="M 653.19629 -253.59868 C 660.79 -259.99 658.67 -262.4 657.74115 -264.93579 L 661.6151 -261.48875" />
    <path d="M 657.74115 -264.93579 C 656.81 -267.47 650.57 -276.64 647.38876 -282.50404 L 651.26271 -279.057" />
    <path d="M 647.38876 -282.50404 C 644.21 -288.37 641.31 -291 646.10254 -284.69868" />
    <path d="M 721.29981 -372.64246 C 721.17 -382.78 722.97 -423.04 721.63992 -417.42762" />
    <path d="M 723.44236 -344.15255 C 722.79 -352.27 721.43 -362.5 721.29981 -372.64246 L 725.17376 -369.19542" />
    <path d="M 713.64855 -322.68318 C 722.33 -332.78 724.2 -334.76 723.44236 -344.15255 L 727.31631 -340.70551" />
    <path d="M 688.85692 -294.69289 C 697.85 -304.5 707.27 -315.27 713.64855 -322.68318 L 717.5225 -319.23614" />
    <path d="M 677.01289 -286.524 C 679.04 -284.51 680.52 -285.6 688.85692 -294.69289 L 692.73086 -291.24584" />
    <path d="M 601.3191 -308.26765 C 659.29 -381.52 678.26 -434.55 676.55294 -430.21382" />
    <path d="M 512.19831 -207.32401 C 525.6 -225.09 543.35 -235.01 519.07997 -215.50551" />
    <path d="M 539.81031 -236.74302 C 525.6 -225.09 543.35 -235.01 601.3191 -308.26765 L 605.19305 -304.8206" />
    <path d="M 490.21792 -179.91475 C 488.6 -176.07 498.8 -189.56 492.89331 -182.73157" />
    <path d="M 511.97795 -207.0319 C 488.6 -176.07 498.8 -189.56 512.19831 -207.32401 L 516.07226 -203.87697" />
    <path d="M 562.1224 -356.20196 C 572.82 -381.79 587.75 -420.24 586.07228 -415.92963" />
    <path d="M 546.57181 -321.77113 C 544.98 -316.74 551.43 -330.62 562.1224 -356.20196 L 565.99635 -352.75492" />
    <path d="M 639.3586 -155.19529 C 638.21 -157.16 635.36 -160.2 633.95478 -162.70545" />
    <path d="M 635.99863 -147.06141 C 642.5 -151.64 640.51 -153.23 639.3586 -155.19529 L 643.23255 -151.74825" />
    <path d="M 553.32791 -99.69472 C 577.8 -107.5 624.84 -138.96 561.48991 -103.25017" />
    <path d="M 589.94838 -117.89484 C 577.8 -107.5 624.84 -138.96 609.69634 -129.5831" />
    <path d="M 412.89674 -59.77663 C 402.81 -57.61 413.52 -58.01 425.14194 -63.71643 L 427.45755 -61.65599" />
    <path d="M 522.25002 -88.98718 C 495.03 -80.85 507.21 -83.73 526.04237 -90.18968" />
    <path d="M 425.14194 -63.71643 C 436.77 -69.43 450.04 -73.71 443.14941 -70.81586" />
    <path d="M 423.65864 -140.04964 C 426.23 -135.76 415.98 -152.76 420.56404 -144.9576" />
    <path d="M 505.03728 -327.1059 C 507.6 -351.07 519.37 -409.52 518.54491 -405.35641" />
    <path d="M 501.16275 -271.13165 C 498.46 -255.53 502.48 -303.14 505.03728 -327.1059 L 508.91123 -323.65886" />
    <path d="M 444.07587 -321.9276 C 441.65 -322.58 455.96 -399.66 455.20107 -395.47193" />
    <path d="M 452.20005 -188.53072 C 453.98 -177.29 452.31 -186.09 450.92022 -195.26373" />
    <path d="M -516.80185 -1180.22433 L -57.22777 -1252.43065" />
    <path d="M -516.80185 -1129.61756 L -516.80185 -1180.22433" />
    <path d="M -194.13198 -674.43959 A 600 513.02781 311.66271 0 0 -235.65664 -879.45433" />
    <path d="M -237.87758 -884.46219 A 600 513.02781 311.66271 0 0 -243.43487 -896.35119" />
    <path d="M -264.99521 -935.81464 A 600 513.02781 311.66271 0 0 -333.26406 -1021.61917" />
    <path d="M -194.13198 -544.79833 L -194.13198 -674.43959" />
    <path d="M -190.25803 -544.39306 L -191.22652 -545.25482 L -462.70238 -502.60169" />
    <path d="M -190.25803 -544.39306 L -190.25803 -670.99255 A 600 513.02781 311.66271 0 0 -232.43964 -877.50507" />
    <path d="M -190.25803 -670.99255 L -194.13198 -674.43959" />
    <path d="M -512.9279 -1176.77729 L -53.35382 -1248.98361" />
    <path d="M -512.9279 -1126.17052 L -512.9279 -1176.77729 L -516.80185 -1180.22433" />
    <path d="M -237.87758 -889.39364 A 600 513.02781 311.66271 0 0 -240.79077 -895.42236" />
    <path d="M -264.99521 -938.58456 A 600 513.02781 311.66271 0 0 -331.25063 -1019.98158" />
    <path d="M -489.68421 -1118.43595 A 600 513.02781 311.66271 0 0 -512.9279 -1126.17052" />
    <path d="M -167.01434 -548.04501 L -190.25803 -544.39306" />
    <path d="M -489.68421 -1156.09503 L -30.11013 -1228.30135" />
    <path d="M -489.68421 -1105.48826 L -489.68421 -1156.09503" />
    <path d="M -167.01434 -650.31029 A 600 513.02781 311.66271 0 0 -216.31723 -872.22189" />
    <path d="M -264.99521 -951.1276 A 600 513.02781 311.66271 0 0 -319.38422 -1009.91531" />
    <path d="M -167.01434 -523.71081 L -167.01434 -650.31029" />
    <path d="M -485.81026 -1152.64799 L -26.23618 -1224.85431" />
    <path d="M -485.81026 -1102.04122 L -485.81026 -1152.64799 L -489.68421 -1156.09503" />
    <path d="M -163.1404 -646.86325 A 600 513.02781 311.66271 0 0 -213.67313 -871.29307" />
    <path d="M -264.99521 -952.64253 A 600 513.02781 311.66271 0 0 -317.44215 -1008.19751 A 600 513.02781 311.66271 0 0 -485.81026 -1102.04122" />
    <path d="M -163.1404 -520.26377 L -163.1404 -646.86325 L -167.01434 -650.31029" />
    <path d="M -82.93389 -532.86547 L -163.1404 -520.26377 L -167.01434 -523.71081" />
    <path d="M -264.99521 -956.16659 L 194.57887 -1028.37291" />
    <path d="M -264.99521 -905.55982 L -264.99521 -956.16659" />
    <path d="M 57.67465 -450.38185 A 600 513.02781 311.66271 0 0 16.14999 -655.39659" />
    <path d="M 13.92906 -660.40445 A 600 513.02781 311.66271 0 0 8.37177 -672.29345" />
    <path d="M -13.18858 -711.7569 A 600 513.02781 311.66271 0 0 -81.45743 -797.56143" />
    <path d="M 57.67465 -323.78236 L 57.67465 -450.38185" />
    <path d="M -261.12127 -952.71955 L 198.45282 -1024.92587" />
    <path d="M -261.12127 -902.11277 L -261.12127 -952.71955 L -264.99521 -956.16659" />
    <path d="M 61.5486 -446.9348 A 600 513.02781 311.66271 0 0 19.36699 -653.44733" />
    <path d="M 13.92906 -665.3359 A 600 513.02781 311.66271 0 0 11.01586 -671.36462" />
    <path d="M -13.18858 -714.52682 A 600 513.02781 311.66271 0 0 -79.44399 -795.92383" />
    <path d="M -237.87758 -894.37821 A 600 513.02781 311.66271 0 0 -261.12127 -902.11277" />
    <path d="M 61.5486 -320.33532 L 61.5486 -446.9348 L 57.67465 -450.38185" />
    <path d="M 84.79229 -323.98727 L 61.5486 -320.33532 L 57.67465 -323.78236" />
    <path d="M -237.87758 -932.03729 L 221.69651 -1004.24361" />
    <path d="M -237.87758 -881.43052 L -237.87758 -932.03729" />
    <path d="M 84.79229 -426.25255 A 600 513.02781 311.66271 0 0 35.48941 -648.16415" />
    <path d="M -13.18858 -727.06986 A 600 513.02781 311.66271 0 0 -67.57758 -785.85756" />
    <path d="M 84.79229 -299.65307 L 84.79229 -426.25255" />
    <path d="M -234.00363 -928.59025 L 225.57045 -1000.79657" />
    <path d="M -234.00363 -877.98348 L -234.00363 -928.59025 L -237.87758 -932.03729" />
    <path d="M 88.66624 -422.80551 A 600 513.02781 311.66271 0 0 38.1335 -647.23533" />
    <path d="M -13.18858 -728.58479 A 600 513.02781 311.66271 0 0 -65.63552 -784.13977 A 600 513.02781 311.66271 0 0 -234.00363 -877.98348" />
    <path d="M 88.66624 -296.20602 L 88.66624 -422.80551 L 84.79229 -426.25255" />
    <path d="M 168.87275 -308.80773 L 88.66624 -296.20602 L 84.79229 -299.65307" />
    <path d="M -13.18858 -732.10885 L 446.3855 -804.31517" />
    <path d="M -13.18858 -681.50207 L -13.18858 -732.10885" />
    <path d="M 309.48129 -226.3241 A 600 513.02781 311.66271 0 0 267.95663 -431.33885" />
    <path d="M 265.73569 -436.34671 A 600 513.02781 311.66271 0 0 260.1784 -448.23571" />
    <path d="M 238.61806 -487.69916 A 600 513.02781 311.66271 0 0 170.34921 -573.50369" />
    <path d="M 309.48129 -99.72462 L 309.48129 -226.3241" />
    <path d="M -9.31463 -728.6618 L 450.25945 -800.86812" />
    <path d="M -9.31463 -678.05503 L -9.31463 -728.6618 L -13.18858 -732.10885" />
    <path d="M 313.35524 -222.87706 A 600 513.02781 311.66271 0 0 271.17363 -429.38959" />
    <path d="M 265.73569 -441.27816 A 600 513.02781 311.66271 0 0 262.8225 -447.30688" />
    <path d="M 238.61806 -490.46907 A 600 513.02781 311.66271 0 0 172.36264 -571.86609" />
    <path d="M 13.92906 -670.32047 A 600 513.02781 311.66271 0 0 -9.31463 -678.05503" />
    <path d="M 313.35524 -96.27758 L 313.35524 -222.87706 L 309.48129 -226.3241" />
    <path d="M 336.23338 -99.87209 L 313.35524 -96.27758 L 309.48129 -99.72462" />
    <path d="M 13.92906 -707.97955 L 473.50314 -780.18587" />
    <path d="M 13.92906 -657.37278 L 13.92906 -707.97955" />
    <path d="M 336.23338 -222.36508 A 600 513.02781 311.66271 0 0 287.29604 -424.10641" />
    <path d="M 238.61806 -503.01212 A 600 513.02781 311.66271 0 0 184.22905 -561.79982" />
    <path d="M 17.80301 -704.53251 L 477.37709 -776.73883" />
    <path d="M 17.80301 -653.92574 L 17.80301 -704.53251 L 13.92906 -707.97955" />
    <path d="M 336.23338 -266.8468 A 600 513.02781 311.66271 0 0 289.94013 -423.17758" />
    <path d="M 238.61806 -504.52705 A 600 513.02781 311.66271 0 0 186.17112 -560.08203 A 600 513.02781 311.66271 0 0 17.80301 -653.92574" />
    <path d="M 238.61806 -508.0511 L 698.19214 -580.25742" />
    <path d="M 238.61806 -457.44433 L 238.61806 -508.0511" />
    <path d="M 559.50533 -46.62598 A 600 513.02781 311.66271 0 0 559.48669 -46.8554" />
    <path d="M 517.08804 -213.29428 A 600 513.02781 311.66271 0 0 514.47406 -218.96023" />
    <path d="M 444.52867 -325.87801 A 600 513.02781 311.66271 0 0 422.15584 -349.44594" />
    <path d="M 242.492 -504.60406 L 702.06609 -576.81038" />
    <path d="M 242.492 -453.99729 L 242.492 -504.60406 L 238.61806 -508.0511" />
    <path d="M 555.54488 -100.62452 A 600 513.02781 311.66271 0 0 553.11056 -112.45286" />
    <path d="M 518.59828 -214.97921 A 600 513.02781 311.66271 0 0 517.82469 -216.62412" />
    <path d="M 444.62198 -326.66473 A 600 513.02781 311.66271 0 0 424.16928 -347.80835" />
    <path d="M 265.73569 -446.26272 A 600 513.02781 311.66271 0 0 242.492 -453.99729" />
    <path d="M 265.73569 -483.92181 L 725.30978 -556.12813" />
    <path d="M 265.73569 -433.31504 L 265.73569 -483.92181" />
    <path d="M 551.58152 -171.99691 A 600 513.02781 311.66271 0 0 547.6691 -181.3359" />
    <path d="M 444.96329 -329.47622 A 600 513.02781 311.66271 0 0 436.03569 -337.74208" />
    <path d="M 588.40556 95.6934 L 588.40556 56.94259" />
    <path d="M 592.27951 57.43606 L 592.27951 25.30998 A 600 513.02781 311.66271 0 0 592.03137 8.68246" />
    <path d="M 592.27951 25.30998 L 590.32927 23.57465" />
    <path d="M 269.60964 -480.47477 L 729.18372 -552.68109" />
    <path d="M 269.60964 -429.868 L 269.60964 -480.47477 L 265.73569 -483.92181" />
    <path d="M 553.52025 -173.23925 A 600 513.02781 311.66271 0 0 549.3949 -182.78986" />
    <path d="M 444.98506 -329.65232 A 600 513.02781 311.66271 0 0 437.97775 -336.02428 A 600 513.02781 311.66271 0 0 414.06463 -355.83163" />
    <path d="M 336.23338 -403.85943 A 600 513.02781 311.66271 0 0 269.60964 -429.868" />
    <path d="M -95.28197 -419.08885 L -535.01178 -350.00038" />
    <path d="M -95.28197 -368.48208 L -95.28197 -419.08885" />
    <path d="M -415.23896 132.61655 A 600 513.02781 131.66271 0 1 -95.28197 -368.48208" />
    <path d="M -99.15592 -422.53589 L -538.88573 -353.44742" />
    <path d="M -122.39961 -443.21815 L -562.12942 -374.12968" />
    <path d="M -122.39961 -418.88394 L -122.39961 -443.21815" />
    <path d="M -126.27356 -446.66519 L -566.00336 -377.57672" />
    <path d="M -347.08861 -643.14659 L -786.81841 -574.05812" />
    <path d="M -347.08861 -592.53982 L -347.08861 -643.14659" />
    <path d="M -565.4004 -377.67145 A 600 513.02781 131.66271 0 1 -347.08861 -592.53982" />
    <path d="M -350.96256 -646.59364 L -790.69236 -577.50516" />
    <path d="M -374.20624 -667.27589 L -813.93605 -598.18742" />
    <path d="M -374.20624 -642.94169 L -374.20624 -667.27589" />
    <path d="M -378.08019 -670.72293 L -817.81 -601.63446" />
    <path d="M -598.89524 -867.20434 L -1038.62505 -798.11586" />
    <path d="M -598.89524 -816.59757 L -598.89524 -867.20434" />
    <path d="M -817.20703 -601.7292 A 600 513.02781 131.66271 0 1 -598.89524 -816.59757" />
    <path d="M -602.76919 -870.65138 L -1042.499 -801.56291" />
    <path d="M -626.01288 -891.33363 L -1065.74269 -822.24516" />
    <path d="M -626.01288 -866.99943 L -626.01288 -891.33363" />
    <path d="M -629.88683 -894.78067 L -1069.61663 -825.6922" />
    <path d="M -850.70188 -1091.26208 L -1290.43168 -1022.17361" />
    <path d="M -850.70188 -1040.65531 L -850.70188 -1091.26208" />
    <path d="M -1069.01367 -825.78694 A 600 513.02781 131.66271 0 1 -850.70188 -1040.65531" />
    <path d="M -854.57582 -1094.70912 L -1294.30563 -1025.62065" />
    <path d="M -877.81951 -1115.39137 L -1317.54932 -1046.3029" />
    <path d="M -877.81951 -1091.05717 L -877.81951 -1115.39137" />
    <path d="M -881.69346 -1118.83842 L -1321.42327 -1049.74994" />
    <path d="M -1256.65734 -1059.92569 L -1256.65734 -1087.19011" />
    <path d="M 895.89393 -222.16056 L 896.16838 -221.91635" />
    <path d="M -516.80185 -1129.61756 L -512.9279 -1126.17052" />
    <path d="M 57.67465 -407.75188 L -82.93389 -532.86547" />
    <path d="M 309.48129 -183.69414 L 168.87275 -308.80773" />
    <path d="M 438.17518 -69.18221 L 428.71378 -77.60097" />
    <path d="M -324.95968 -135.33924 L 30.56007 181.00252" />
    <path d="M -489.68421 -1105.48826 L -485.81026 -1102.04122" />
    <path d="M -264.99521 -905.55982 L -261.12127 -902.11277" />
    <path d="M -237.87758 -881.43052 L -234.00363 -877.98348" />
    <path d="M -13.18858 -681.50207 L -9.31463 -678.05503" />
    <path d="M 13.92906 -657.37278 L 17.80301 -653.92574" />
    <path d="M 238.61806 -457.44433 L 242.492 -453.99729" />
    <path d="M 265.73569 -433.31504 L 269.60964 -429.868" />
    <path d="M -881.69346 -1118.83842 L -877.81951 -1115.39137" />
    <path d="M -854.57582 -1094.70912 L -850.70188 -1091.26208" />
    <path d="M -629.88683 -894.78067 L -626.01288 -891.33363" />
    <path d="M -602.76919 -870.65138 L -598.89524 -867.20434" />
    <path d="M -378.08019 -670.72293 L -374.20624 -667.27589" />
    <path d="M -350.96256 -646.59364 L -347.08861 -643.14659" />
    <path d="M -126.27356 -446.66519 L -122.39961 -443.21815" />
    <path d="M -99.15592 -422.53589 L -95.28197 -419.08885" />
    <path d="M 26.87241 181.58191 L -326.46596 -132.81885" />
    <path d="M -415.23896 262.55198 L -35.11858 202.82909" />
    <path d="M -415.23896 321.44625 L -35.11858 261.72336" />
    <path d="M 635.99863 -151.15457 L 626.77949 -149.7061 L 626.77949 89.92272" />
    <path d="M 635.99863 -151.15457 L 635.99863 88.47424" />
    <path d="M 345.45252 -409.68274 L 336.23338 -408.23426 L 626.77949 -149.7061" />
    <path d="M 336.23338 135.57208 L 336.23338 -408.23426" />
    <path d="M 345.45252 -409.68274 L 635.99863 -151.15457" />
    <path d="M 589.85951 -152.78193 C 589.13 -163.06 591.21 -10.18 590.26893 26.28363 L 581.04979 27.7321 C 580.09 64.99 575.26 82.37 575.28834 98.01279" />
    <path d="M 580.90206 -160.74248 C 579.91 -161.61 581.99 -8.73 580.89221 -160.74608 C 579.91 -161.61 581.99 -8.73 581.04979 27.7321" />
    <path d="M 590.26893 26.28363 C 589.31 63.55 584.47 80.92 584.50748 96.56431" />
    <path d="M 588.38867 95.95452 C 587.63 155.31 585.12 136.45 589.39636 81.89713 C 593.74 26.43 609.69 1.02 609.69241 1.01775 L 609.69651 -135.14081 C 609.7 -135.14 581.67 -160.07 580.90206 -160.74248" />
    <path d="M 545.40037 -192.24644 C 544.81 -158.83 562.41 -22.51 561.25915 -32.4365" />
    <path d="M 536.04231 -200.58799 C 535.59 -157.38 553.19 -21.06 556.166 1.05361 C 559.15 23.18 563.63 65.08 564.67261 67.70138 C 565.71 70.32 566.94 66.56 565.29409 68.46328 C 565.71 70.32 566.94 66.56 565.14452 51.06822 C 563.66 38.24 562.41 13.61 561.35286 -28.07375 C 560.29 -69.76 562.86 -176.68 562.85885 -176.68436 L 536.04231 -200.58799 Z" />
    <path d="M 565.78535 67.52656 L 564.67261 67.70138" />
    <path d="M 511.86298 -221.93678 C 510.96 -221.92 513.22 -160.4 513.41858 -162.49244" />
    <path d="M 503.01712 -229.81959 C 501.74 -220.47 504 -158.95 504.80216 -150.92561 C 505.29 -146.02 509.22 -155.98 505.47165 -149.60099 C 505.29 -146.02 509.22 -155.98 510.40347 -159.70445 C 511.25 -162.35 512.33 -164.12 511.90509 -162.25465 C 511.25 -162.35 512.33 -164.12 513.90378 -158.89466 C 515.48 -153.67 514.94 -141.89 513.58781 -134.26329 C 512.24 -126.64 508.37 -116.47 508.36812 -116.46803 C 513.34 -74.67 537.02 19.6 542.70643 39.21179 C 548.39 58.82 563.13 107.91 560.71447 100.30257" />
    <path d="M 519.62261 -161.15292 C 520.47 -163.8 521.55 -165.56 521.12422 -163.70312 L 511.90509 -162.25465" />
    <path d="M 521.12422 -163.70312 C 520.47 -163.8 521.55 -165.56 523.12292 -160.34313 L 513.90378 -158.89466" />
    <path d="M 523.12292 -160.34313 C 524.7 -155.12 524.16 -143.34 522.80695 -135.71176 L 513.58781 -134.26329" />
    <path d="M 517.58726 -117.9165 L 508.36812 -116.46803" />
    <path d="M 522.80695 -135.71176 C 521.46 -128.09 517.59 -117.92 517.58726 -117.9165 C 522.56 -76.12 546.24 18.15 527.96808 -60.84869" />
    <path d="M 563.88924 99.80376 C 564.94 101.59 559.49 85.88 544.33964 33.69171 C 529.18 -18.5 526.69 -71.28 525.05306 -112.61223 C 523.41 -153.95 526.67 -208.74 526.67395 -208.73828 L 503.01712 -229.81959" />
    <path d="M 493.0148 -197.70954 C 500.72 -225.24 496.88 -209.64 489.19414 -185.36736 L 479.975 -183.91889 C 475.51 -169.8 469.99 -154.09 467.87165 -148.1575 C 465.75 -142.23 466.64 -136.31 467.67221 -132.6013 C 468.7 -128.9 472.05 -114.85 473.55421 -109.76525 C 475.06 -104.69 475.68 -105 475.72093 -106.06779 C 475.06 -104.69 475.68 -105 479.18671 -109.65677 C 482.97 -114.68 486.93 -120.45 489.60433 -124.4823 C 493.25 -129.97 494.04 -130.96 493.71976 -140.751 C 493.45 -149.22 492.87 -160.17 492.81945 -170.37864 C 492.77 -180.59 493.52 -219.89 492.49978 -221.86353 C 491.5 -223.79 487.66 -208.19 492.28121 -222.02198 C 491.5 -223.79 487.66 -208.19 479.975 -183.91889" />
    <path d="M 489.19414 -185.36736 C 484.73 -171.25 479.21 -155.54 477.09078 -149.60598 L 467.87165 -148.1575" />
    <path d="M 477.09078 -149.60598 C 474.97 -143.68 475.86 -137.75 476.89135 -134.04977 L 467.67221 -132.6013" />
    <path d="M 476.89135 -134.04977 C 477.92 -130.34 481.26 -116.29 482.09792 -113.61922" />
    <path d="M 370.71869 -347.67299 C 368.88 -339.02 375 -266.65 376.00668 -259.89943" />
    <path d="M 362.00763 -355.37935 C 359.66 -337.58 365.78 -265.21 368.38 -243.11626 C 370.98 -221.03 371.98 -171.78 372.09984 -153.82089 C 372.22 -135.87 372.76 -105.59 374.3494 -95.35981 C 375.94 -85.13 378.08 -89.28 376.89302 -89.13462 C 375.94 -85.13 378.08 -89.28 380.67006 -95.06342 C 383.26 -100.84 384.04 -101.54 382.26428 -109.25966 C 380.49 -116.98 379.79 -126.67 378.04134 -154.56529 C 376.29 -182.46 375.74 -209.24 375.52506 -239.03094 C 375.31 -268.82 381.32 -338.29 381.32252 -338.29217 L 362.00763 -355.37935 Z" />
    <path d="M 382.54701 -107.98814 C 381.44 -137.32 381.98 -107.03 383.05401 -101.15101" />
    <path d="M 369.83601 -85.2766 C 369.91 -83.65 369.9 -67.09 369.904 -65.63286" />
    <path d="M 360.51435 -92.93179 C 360.69 -82.2 360.68 -65.64 360.6867 -60.48293 C 360.69 -55.32 361.53 -52.82 362.0847 -55.07153 C 360.69 -55.32 361.53 -52.82 364.43733 -57.65256 C 367.34 -62.49 369.88 -64.9 370.86673 -67.51599 C 371.86 -70.13 372.46 -72.29 370.64678 -81.23293 C 368.83 -90.18 364.52 -112.63 363.34907 -117.09233 C 362.18 -121.56 360.65 -130.68 361.00051 -125.62872 C 362.18 -121.56 360.65 -130.68 360.65305 -122.05638 C 360.66 -113.44 360.34 -103.66 360.51435 -92.93179 Z" />
    <path d="M 389.90643 -67.78594 C 389.72 -67.23 387.72 -61.66 394.04894 -58.85767 L 384.8298 -57.4092 C 391.16 -54.61 414.07 -57.08 410.77915 -57.68133 C 391.16 -54.61 414.07 -57.08 426.72394 -61.39295 C 439.38 -65.71 461.01 -85.14 464.20186 -87.49894 C 467.39 -89.86 466.5 -93.39 466.11164 -96.42266 C 465.72 -99.45 463.1 -111.94 461.76149 -119.48819 C 460.42 -127.04 459.21 -131.21 458.79027 -128.4424 C 460.42 -127.04 459.21 -131.21 457.39534 -126.37748 C 455.49 -121.31 439.8 -93.41 419.71142 -77.89027 C 399.62 -62.37 394.91 -75.12 405.5572 -70.61024 C 399.62 -62.37 394.91 -75.12 392.29986 -80.36205 C 389.69 -85.6 388.55 -86.18 388.75028 -85.0618 C 389.69 -85.6 388.55 -86.18 387.64113 -83.50924 C 386.73 -80.84 381.64 -69.24 380.68729 -66.33747 C 380.5 -65.78 378.5 -60.21 384.8298 -57.4092" />
    <path d="M 394.04894 -58.85767 C 400.37 -56.05 423.29 -58.53 415.34935 -58.48233" />
    <path d="M 461.88327 -118.80675 C 464.71 -122.75 449.02 -94.86 428.93056 -79.33875 L 419.71142 -77.89027" />
    <path d="M 428.93056 -79.33875 C 408.84 -63.82 404.13 -76.57 414.77634 -72.05871 L 405.5572 -70.61024" />
    <path d="M 393.78477 -77.3839 C 395.95 -82.29 390.86 -70.69 389.90643 -67.78594 L 380.68729 -66.33747" />
    <path d="M 455.78403 -8.56538 C 449.09 0.01 430.63 -5.62 446.64602 -5.47319 L 437.42688 -4.02472 C 439.87 1.46 421.41 -4.17 406.90842 -8.90566 C 392.4 -13.64 384.21 -25.86 380.79768 -33.10376 C 377.38 -40.35 375.45 -42.58 374.27925 -41.5873 C 377.38 -40.35 375.45 -42.58 373.43677 -41.23817 C 371.42 -39.9 367.13 -35.25 363.05731 -29.8614 C 358.99 -24.48 363.49 -19.18 368.37179 -18.71729 C 373.26 -18.26 378.84 -15.49 388.28702 -7.11234 C 397.74 1.26 402.86 4.85 417.68756 11.70558 C 432.52 18.56 452.29 12.08 442.52169 14.0402 C 432.52 18.56 452.29 12.08 455.99645 10.42921 C 459.71 8.78 458.87 6.13 458.38716 3.55641 C 457.9 0.98 456.71 -3.57 455.86226 -8.15304 C 455.02 -12.73 454.11 -13.22 453.81238 -12.61536 C 455.02 -12.73 454.11 -13.22 453.05791 -12.13674 C 439.87 1.46 421.41 -4.17 437.42688 -4.02472" />
    <path d="M 378.06952 -38.33142 C 380.64 -41.34 376.35 -36.7 372.27645 -31.30987 L 363.05731 -29.8614" />
    <path d="M 372.27645 -31.30987 C 368.21 -25.92 372.71 -20.63 377.59093 -20.16576 L 368.37179 -18.71729" />
    <path d="M 377.59093 -20.16576 C 382.48 -19.7 388.05 -16.94 397.50616 -8.56081 L 388.28702 -7.11234" />
    <path d="M 397.50616 -8.56081 C 406.96 -0.19 412.08 3.4 426.9067 10.25711 L 417.68756 11.70558" />
    <path d="M 426.9067 10.25711 C 441.74 17.12 461.51 10.64 447.17518 13.14395" />
    <path d="M 475.59362 -26.03326 C 479.23 -29.68 474.84 -25.31 473.28846 -23.57148 L 464.06932 -22.12301 C 462.52 -20.38 462.96 -17.74 463.85019 -13.31596 C 464.74 -8.89 465.67 -3.13 466.86505 1.18533 C 468.06 5.5 469.83 7.47 470.28186 6.5744 C 468.06 5.5 469.83 7.47 470.85942 6.21023 C 471.89 4.95 478.02 1.76 479.75259 0.55205 C 481.48 -0.66 480.53 -4.57 479.37958 -8.63845 C 478.24 -12.69 477.42 -18.1 475.82469 -25.05264 C 474.24 -31.97 473.21 -32.7 472.91214 -31.73891 C 474.24 -31.97 473.21 -32.7 471.93947 -30.92552 C 470.01 -28.23 465.62 -23.86 464.06932 -22.12301" />
    <path d="M 473.28846 -23.57148 C 471.74 -21.83 472.18 -19.19 473.06933 -14.76443 L 463.85019 -13.31596" />
    <path d="M 473.06933 -14.76443 C 473.96 -10.34 474.89 -4.57 476.08419 -0.26314 L 466.86505 1.18533" />
    <path d="M 476.08419 -0.26314 C 477.28 4.05 479.05 6.02 476.95029 2.25416" />
    <path d="M 467.79573 -261.27183 C 467.97 -257.03 455.03 -206.15 448.15148 -186.887 L 438.93234 -185.43853 C 432.05 -166.18 423.04 -156.5 416.72365 -149.93507 C 410.41 -143.37 405.68 -135.37 400.65136 -124.75714 C 395.62 -114.15 392.72 -102.92 393.87972 -100.15031 C 395.04 -97.38 399.32 -105.45 394.61492 -99.60789 C 395.04 -97.38 399.32 -105.45 404.9535 -116.09651 C 410.58 -126.74 418.04 -127.24 442.4027 -169.71554 C 466.76 -212.19 474.73 -255.15 474.73192 -255.14595 L 459.90137 -268.24395 C 458.75 -255.59 445.81 -204.7 438.93234 -185.43853" />
    <path d="M 448.15148 -186.887 C 441.27 -167.63 432.26 -157.95 425.94278 -151.38354 L 416.72365 -149.93507" />
    <path d="M 425.94278 -151.38354 C 419.62 -144.82 414.9 -136.82 409.8705 -126.20562 L 400.65136 -124.75714" />
    <path d="M 409.8705 -126.20562 C 404.84 -115.59 401.94 -104.37 406.94545 -119.37974" />
    <path d="M 433.67538 -291.59744 C 433.69 -293.43 430.18 -261.13 430.15606 -257.73933" />
    <path d="M 425.60491 -298.815 C 424.47 -291.98 420.96 -259.69 419.40284 -237.67752 C 417.84 -215.67 416.74 -211.21 417.73393 -209.65613 C 418.73 -208.1 421.44 -218.56 417.98018 -209.50745 C 418.73 -208.1 421.44 -218.56 425.93196 -238.46395 C 430.43 -258.37 436.7 -288.89 436.70167 -288.89099 L 425.60491 -298.815 Z" />
    <path d="M 405.23519 -316.94613 C 405.14 -326.8 405.93 -247.85 405.5262 -287.47577" />
    <path d="M 395.91794 -325.35132 C 395.92 -325.35 396.71 -246.4 396.89663 -223.84107 C 397.09 -201.28 393.56 -169.5 392.14803 -155.67878 C 390.74 -141.86 389.1 -128.92 391.3183 -129.17226 C 393.54 -129.42 401.33 -151.47 391.33386 -129.17437 C 393.54 -129.42 401.33 -151.47 401.33296 -151.47309 C 399.18 -171.6 400.87 -217.08 401.94438 -239.68102 C 403.02 -262.29 407.97 -314.48 407.96877 -314.48014 L 395.91794 -325.35132 Z" />
    <path d="M 401.07167 -154.26304 C 399.96 -143.31 398.32 -130.37 400.55596 -149.31869" />
    <path d="M 370.19383 8.75605 C 369.95 10.45 370.19 19.09 373.27607 24.12031 L 364.05693 25.56879 C 367.14 30.6 380.63 49.03 388.68384 58.93404 C 396.74 68.84 403.12 73.87 419.22146 84.9796 C 435.32 96.09 474.92 97.43 476.71351 103.59692 C 478.51 109.77 472.11 119.16 474.97101 113.77422" />
    <path d="M 361.079 2.89705 C 360.74 11.89 360.97 20.54 364.05693 25.56879" />
    <path d="M 373.27607 24.12031 C 376.36 29.15 389.84 47.58 397.90297 57.48557 L 388.68384 58.93404" />
    <path d="M 397.90297 57.48557 C 405.96 67.39 412.34 72.42 428.4406 83.53113 L 419.22146 84.9796" />
    <path d="M 428.4406 83.53113 C 444.54 94.65 484.14 95.98 480.56053 98.82884" />
    <path d="M 484.66593 111.23504 C 487.73 108.32 481.33 117.71 484.19015 112.32575" />
    <path d="M 484.9941 112.19943 C 500.82 171.34 474.29 79.94 471.82991 69.26371 C 469.37 58.59 467.04 58.29 466.79845 59.39989 C 469.37 58.59 467.04 58.29 465.32212 60.44719 C 463.6 62.6 449.67 76.77 449.8387 68.25076 C 463.6 62.6 449.67 76.77 419.05034 62.12627 C 388.43 47.48 372.32 12.66 367.46532 3.47881 C 362.61 -5.7 361.26 -1.91 362.72154 -2.114 C 362.61 -5.7 361.26 -1.91 361.079 2.89705" />
    <path d="M 469.92979 62.8612 C 472.82 61.15 458.89 75.32 459.05784 66.80229 L 449.8387 68.25076" />
    <path d="M 364.43158 78.17739 C 360.58 71.76 361.26 80.79 362.29053 75.99681 C 360.58 71.76 361.26 80.79 361.02606 88.13786 C 360.8 95.49 361.12 98.8 364.90267 104.5092 C 368.69 110.22 407.06 168.89 380.686 128.58787" />
    <path d="M 370.21617 87.71749 C 370.01 94.04 370.34 97.35 374.12181 103.06073 L 364.90267 104.5092" />
    <path d="M 374.12181 103.06073 C 377.9 108.77 416.28 167.44 389.90514 127.1394" />
    <path d="M 403.25837 125.0414 C 384.5 113.77 367.65 83.54 364.43158 78.17739" />
    <path d="M 492.47068 40.84235 C 495.38 36.01 493.72 39.08 491.90164 41.67794 L 482.68251 43.12641 C 480.87 45.72 480.8 46.74 484.13146 57.40837 C 488.96 72.9 501.93 107.35 504.42394 109.1467" />
    <path d="M 487.70563 34.78016 C 486.16 37.46 484.5 40.53 482.68251 43.12641" />
    <path d="M 491.90164 41.67794 C 490.08 44.27 490.02 45.29 493.3506 55.95989 L 484.13146 57.40837" />
    <path d="M 493.3506 55.95989 C 498.18 71.45 511.15 105.9 513.64308 107.69823" />
    <path d="M 514.94196 107.49415 C 510.53 104.25 496.56 54.69 493.3488 43.75968 C 490.13 32.83 489.25 32.1 488.92165 33.48008 C 490.13 32.83 489.25 32.1 487.70563 34.78016" />
    <path d="M 509.82077 -2.0287 C 505.53 3.8 505.2 6.96 507.62538 15.53092 C 510.05 24.11 527.17 77.89 537.27371 103.98548" />
    <path d="M 541.51607 103.31894 C 527.01 70.29 515.6 15.9 513.4606 5.64767 C 511.32 -4.61 510.63 -3.12 510.59518 -2.79918 C 511.32 -4.61 510.63 -3.12 509.82077 -2.0287" />
    <path d="M 497.75779 -58.36516 C 496.67 -54.72 496.51 -54.17 497.97404 -49.03316 L 488.7549 -47.58469 C 490.22 -42.45 494.63 -29.65 496.08298 -25.15759 C 497.54 -20.66 499.03 -18.71 499.96549 -19.45394 C 497.54 -20.66 499.03 -18.71 500.5427 -19.68621 C 502.06 -20.66 504.21 -20.71 505.668 -22.24835 C 507.12 -23.79 507.49 -27.71 506.54205 -32.33043 C 505.59 -36.94 500.67 -61.48 499.24803 -68.62275 C 497.82 -75.77 496.44 -78.89 496.31686 -77.0568 C 497.82 -75.77 496.44 -78.89 495.67468 -75.97864 C 494.91 -73.07 489.87 -61.39 488.53865 -56.91668 C 487.45 -53.27 487.29 -52.72 488.7549 -47.58469" />
    <path d="M 497.97404 -49.03316 C 499.44 -43.9 503.85 -31.1 505.30212 -26.60606 L 496.08298 -25.15759" />
    <path d="M 505.30212 -26.60606 C 506.76 -22.11 508.25 -20.16 506.46304 -23.58125" />
    <path d="M 500.0376 -64.6737 C 504.13 -74.52 499.09 -62.84 497.75779 -58.36516 L 488.53865 -56.91668" />
    <path d="M 725.86081 -156.23564 L 726.43351 -155.72605" />
    <path d="M 473.69124 -11.5456 L 477.35406 -8.28642" />
    <path d="M 637.93582 -17.93692 L 638.46601 -17.46515" />
    <path d="M 680.97557 -205.73382 L 684.73 -202.39313" />
    <path d="M 679.24371 -284.31043 L 679.32676 -284.23653" />
    <path d="M 489.36852 -174.24877 L 489.71912 -173.93682" />
    <path d="M 545.69066 -314.2957 L 546.48686 -313.58724" />
    <path d="M 634.50925 -162.68242 L 637.22384 -160.26698" />
    <path d="M 635.99863 -143.22863 L 637.54318 -141.85429" />
    <path d="M 562.18418 0.10806 L 556.166 1.05361" />
    <path d="M 506.89851 -151.25498 L 504.80216 -150.92561" />
    <path d="M 545.80401 38.72512 L 542.70643 39.21179" />
    <path d="M 480.02661 -110.78217 L 473.55421 -109.76525" />
    <path d="M 375.54323 -244.24171 L 368.38 -243.11626" />
    <path d="M 378.02963 -154.75255 L 372.09984 -153.82089" />
    <path d="M 381.29807 -96.45156 L 374.3494 -95.35981" />
    <path d="M 368.08757 -94.12166 L 360.51435 -92.93179" />
    <path d="M 366.95327 -61.46751 L 360.6867 -60.48293" />
    <path d="M 362.12615 -122.28782 L 360.65305 -122.05638" />
    <path d="M 460.08612 -126.80024 L 457.39534 -126.37748" />
    <path d="M 390.26977 -83.92224 L 387.64113 -83.50924" />
    <path d="M 454.4606 -12.35712 L 453.05791 -12.13674" />
    <path d="M 375.11957 -41.50256 L 373.43677 -41.23817" />
    <path d="M 473.78629 -31.21568 L 471.93947 -30.92552" />
    <path d="M 395.80557 -100.45289 L 393.87972 -100.15031" />
    <path d="M 425.98798 -238.71215 L 419.40284 -237.67752" />
    <path d="M 418.2838 -209.74252 L 417.73393 -209.65613" />
    <path d="M 401.29084 -224.53147 L 396.89663 -223.84107" />
    <path d="M 400.86963 -157.04908 L 392.14803 -155.67878" />
    <path d="M 391.34963 -129.17718 L 391.3183 -129.17226" />
    <path d="M 366.6621 2.01985 L 361.079 2.89705" />
    <path d="M 481.84795 102.79022 L 476.71351 103.59692" />
    <path d="M 468.24345 59.9882 L 465.32212 60.44719" />
    <path d="M 369.62744 86.78645 L 361.02606 88.13786" />
    <path d="M 490.05542 34.41097 L 487.70563 34.78016" />
    <path d="M 511.25946 -2.25474 L 509.82077 -2.0287" />
    <path d="M 515.3177 14.32234 L 507.62538 15.53092" />
    <path d="M 497.14653 -76.20989 L 495.67468 -75.97864" />
    <path d="M 726.86734 -155.2857 L 730.74129 -151.83866" />
    <path d="M 956.93243 -88.56735 L 960.80638 -85.1203" />
    <path d="M 682.96681 -78.31782 L 686.84075 -74.87078" />
    <path d="M 679.82736 -98.10475 L 683.70131 -94.65771" />
    <path d="M 805.48733 -182.17624 L 809.36128 -178.7292" />
    <path d="M 860.34999 -218.82995 L 864.22394 -215.38291" />
</svg>