<svg version="1.1" xmlns="http://www.w3.org/2000/svg" viewBox="-1722.088756126015 -1415.2806850947825 3428.1439574049045 2689.7526715296244" fill="none" stroke="black" stroke-width="0.6%" vector-effect="non-scaling-stroke">
    <path d="M 758.81591 272.4929 L 757.4279 271.56829" />
    <path d="M 757.4279 -534.55454 L 757.4279 -362.82848" />
    <path d="M 757.4279 -340.50536 L 757.4279 271.56829" />
    <path d="M 758.81591 272.4929 L 758.81591 758.01896" />
    <path d="M 686.14951 440.21792 L 758.81591 272.4929" />
    <path d="M 684.7615 439.29331 L 757.4279 271.56829" />
    <path d="M 686.14951 440.21792 L 684.7615 439.29331" />
    <path d="M 426.12983 953.44657 L 420.57781 949.74814 L 341.47699 687.41446" />
    <path d="M 670.54752 880.89413 L 426.12983 953.44657 L 347.02902 691.11289 A 100 74.49607 123.66919 0 1 390.71712 569.42156 L 424.46057 540.9645 L 602.8416 510.6595 A 100 74.49607 303.66919 0 0 686.14951 440.21792" />
    <path d="M 549.49911 -696.75639 A 250 186.24017 123.66919 0 1 688.09835 -680.89647 A 250 186.24017 123.66919 0 1 757.0176 -548.49299 L 757.4279 -534.55454" />
    <path d="M 601.45359 509.73489 A 100 74.49607 303.66919 0 0 684.7615 439.29331" />
    <path d="M 591.08487 511.49643 L 601.45359 509.73489" />
    <path d="M 591.08487 511.49643 L 591.08487 -171.6854 A 600 446.97641 303.66919 0 0 578.60348 -287.42348" />
    <path d="M 573.40897 -308.20468 A 600 446.97641 303.66919 0 0 424.69394 -522.90604 A 600 446.97641 303.66919 0 0 300.27048 -573.76173" />
    <path d="M 267.1318 -612.93906 A 57.5 42.83524 303.66919 0 0 283.07759 -579.28042 A 57.5 42.83524 303.66919 0 0 300.27048 -573.76173" />
    <path d="M 549.49911 -696.75639 L 267.1318 -612.93906 L 260.46937 -617.37718 A 57.5 42.83524 303.66919 0 0 261.52241 -606.94146 A 57.5 42.83524 303.66919 0 0 276.41516 -583.71853 L 283.07759 -579.28042" />
    <path d="M 610.63017 225.57422 A 3.5 2.60736 123.66919 0 1 605.77878 229.3512 A 3.5 2.60736 123.66919 0 1 609.65956 223.52544 A 3.5 2.60736 123.66919 0 1 610.63017 225.57422 Z" />
    <path d="M 610.63017 180.78962 A 3.5 2.60736 123.66919 0 1 605.77878 184.5666 A 3.5 2.60736 123.66919 0 1 609.65956 178.74083 A 3.5 2.60736 123.66919 0 1 610.63017 180.78962 Z" />
    <path d="M 610.63017 136.00502 A 3.5 2.60736 123.66919 0 1 605.77878 139.782 A 3.5 2.60736 123.66919 0 1 609.65956 133.95623 A 3.5 2.60736 123.66919 0 1 610.63017 136.00502 Z" />
    <path d="M 610.63017 91.22042 A 3.5 2.60736 123.66919 0 1 605.77878 94.9974 A 3.5 2.60736 123.66919 0 1 609.65956 89.17163 A 3.5 2.60736 123.66919 0 1 610.63017 91.22042 Z" />
    <path d="M 610.63017 46.43582 A 3.5 2.60736 123.66919 0 1 605.77878 50.2128 A 3.5 2.60736 123.66919 0 1 609.65956 44.38703 A 3.5 2.60736 123.66919 0 1 610.63017 46.43582 Z" />
    <path d="M 610.63017 1.65121 A 3.5 2.60736 123.66919 0 1 605.77878 5.42819 A 3.5 2.60736 123.66919 0 1 609.65956 -0.39757 A 3.5 2.60736 123.66919 0 1 610.63017 1.65121 Z" />
    <path d="M 610.63017 -43.13339 A 3.5 2.60736 123.66919 0 1 605.77878 -39.35641 A 3.5 2.60736 123.66919 0 1 609.65956 -45.18217 A 3.5 2.60736 123.66919 0 1 610.63017 -43.13339 Z" />
    <path d="M 610.63017 -87.91799 A 3.5 2.60736 123.66919 0 1 605.77878 -84.14101 A 3.5 2.60736 123.66919 1 1 609.65956 -89.96678 A 3.5 2.60736 123.66919 0 1 610.63017 -87.91799 Z" />
    <path d="M 610.63017 -132.70259 A 3.5 2.60736 123.66919 0 1 605.77878 -128.92561 A 3.5 2.60736 123.66919 0 1 609.65956 -134.75138 A 3.5 2.60736 123.66919 0 1 610.63017 -132.70259 Z" />
    <path d="M 610.63017 -177.48719 A 3.5 2.60736 123.66919 0 1 605.77878 -173.71021 A 3.5 2.60736 123.66919 0 1 609.65956 -179.53598 A 3.5 2.60736 123.66919 0 1 610.63017 -177.48719 Z" />
    <path d="M 407.73766 -552.39592 A 3.5 2.60736 123.66919 0 1 407.58946 -552.48538 A 3.5 2.60736 123.66919 1 1 411.47024 -558.31114 A 3.5 2.60736 123.66919 0 1 407.73766 -552.39592 Z" />
    <path d="M 435.15408 -535.75945 A 3.5 2.60736 123.66919 0 1 439.04232 -541.58023 A 3.5 2.60736 123.66919 0 1 435.16154 -535.75446 A 3.5 2.60736 123.66919 0 1 435.15408 -535.75945 Z" />
    <path d="M 460.89897 -516.62757 A 3.5 2.60736 123.66919 0 1 464.93336 -522.33973 A 3.5 2.60736 123.66919 0 1 461.05258 -516.51397 A 3.5 2.60736 123.66919 0 1 460.89897 -516.62757 Z" />
    <path d="M 484.84689 -495.09349 A 3.5 2.60736 123.66919 0 1 489.01724 -500.6834 A 3.5 2.60736 123.66919 1 1 485.13646 -494.85763 A 3.5 2.60736 123.66919 0 1 484.84689 -495.09349 Z" />
    <path d="M 603.55913 -213.90735 A 3.5 2.60736 123.66919 0 1 608.40343 -217.90091 A 3.5 2.60736 123.66919 1 1 604.52265 -212.07514 A 3.5 2.60736 123.66919 0 1 603.55913 -213.90735 Z" />
    <path d="M 593.6033 -287.24059 A 3.5 2.60736 123.66919 0 1 598.39108 -291.65047 A 3.5 2.60736 123.66919 0 1 594.5103 -285.8247 A 3.5 2.60736 123.66919 0 1 593.6033 -287.24059 Z" />
    <path d="M 599.81809 -251.12833 A 3.5 2.60736 123.66919 0 1 604.64116 -255.3332 A 3.5 2.60736 123.66919 0 1 600.76038 -249.50743 A 3.5 2.60736 123.66919 0 1 599.81809 -251.12833 Z" />
    <path d="M 560.47839 -387.19783 A 3.5 2.60736 123.66919 0 1 565.07811 -392.17519 A 3.5 2.60736 123.66919 0 1 561.19733 -386.34943 A 3.5 2.60736 123.66919 0 1 560.47839 -387.19783 Z" />
    <path d="M 573.88541 -355.44147 A 3.5 2.60736 123.66919 0 1 578.56125 -360.23855 A 3.5 2.60736 123.66919 0 1 574.68047 -354.41278 A 3.5 2.60736 123.66919 0 1 573.88541 -355.44147 Z" />
    <path d="M 584.94501 -322.06819 A 3.5 2.60736 123.66919 0 1 589.68363 -326.6758 A 3.5 2.60736 123.66919 0 1 585.80285 -320.85003 A 3.5 2.60736 123.66919 0 1 584.94501 -322.06819 Z" />
    <path d="M 506.88117 -471.26212 A 3.5 2.60736 123.66919 0 1 511.17661 -476.71674 A 3.5 2.60736 123.66919 1 1 507.29583 -470.89097 A 3.5 2.60736 123.66919 0 1 506.88117 -471.26212 Z" />
    <path d="M 526.89446 -445.24957 A 3.5 2.60736 123.66919 0 1 531.30352 -450.5565 A 3.5 2.60736 123.66919 1 1 527.42274 -444.73074 A 3.5 2.60736 123.66919 0 1 526.89446 -445.24957 Z" />
    <path d="M 544.78926 -417.18256 A 3.5 2.60736 123.66919 0 1 549.29991 -422.33015 A 3.5 2.60736 123.66919 1 1 545.41913 -416.50438 A 3.5 2.60736 123.66919 0 1 544.78926 -417.18256 Z" />
    <path d="M 602.8416 510.6595 L 601.45359 509.73489" />
    <path d="M 522.0438 -695.02239 L 542.83668 -701.19451" />
    <path d="M 681.43592 -685.33459 A 250 186.24017 303.66919 0 0 542.83668 -701.19451" />
    <path d="M 584.42243 509.14706 L 584.42243 -176.12352 A 600 446.97641 303.66919 0 0 573.26083 -285.83758" />
    <path d="M 568.3363 -306.69892 A 600 446.97641 303.66919 0 0 421.34939 -525.10507" />
    <path d="M 347.02902 691.11289 L 341.47699 687.41446" />
    <path d="M 418.90854 537.26607 L 586.92085 508.72261" />
    <path d="M 385.1651 565.72313 L 418.90854 537.26607" />
    <path d="M 385.1651 565.72313 A 100 74.49607 303.66919 0 0 341.47699 687.41446" />
    <path d="M 390.71712 569.42156 L 385.1651 565.72313" />
    <path d="M 424.46057 540.9645 L 418.90854 537.26607" />
    <path d="M 591.08487 511.49643 L 586.92085 508.72261" />
    <path d="M 549.49911 -696.75639 L 542.83668 -701.19451" />
    <path d="M 591.08487 -171.6854 L 584.42243 -176.12352" />
    <path d="M -469.68404 -434.59009 L -434.42868 -411.10507" />
    <path d="M -455.22156 -404.93295 L -434.42868 -411.10507" />
    <path d="M -455.22156 -404.93295 L -448.55913 -400.49484" />
    <path d="M -166.19182 -484.31217 L -333.43677 -434.66752" />
    <path d="M -363.53091 -425.73444 L -448.55913 -400.49484" />
    <path d="M -172.85425 -488.75028 L -166.19182 -484.31217 A 57.5 42.83524 123.66919 0 1 -199.3305 -425.46121" />
    <path d="M -172.85425 -488.75028 L 260.46937 -617.37718" />
    <path d="M 522.0438 -695.02239 L 486.78844 -718.50742" />
    <path d="M 507.58132 -724.67953 L 486.78844 -718.50742" />
    <path d="M 507.58132 -724.67953 L 500.91889 -729.11765" />
    <path d="M 218.55158 -645.30031 L 500.91889 -729.11765" />
    <path d="M 225.21401 -640.8622 L 218.55158 -645.30031 A 57.5 42.83524 303.66919 0 0 218.9241 -638.99512" />
    <path d="M 225.21401 -640.8622 L -208.10961 -512.23531" />
    <path d="M -214.77204 -516.67342 L -208.10961 -512.23531" />
    <path d="M -497.13935 -432.85609 L -412.11113 -458.09569" />
    <path d="M -382.01699 -467.02877 L -214.77204 -516.67342" />
    <path d="M -497.13935 -432.85609 L -490.47692 -428.41798" />
    <path d="M -469.68404 -434.59009 L -490.47692 -428.41798" />
    <path d="M -469.68404 -423.84179 L -445.5902 -407.7919" />
    <path d="M -166.36134 -479.92932 L 261.52241 -606.94146" />
    <path d="M -469.68404 -423.84179 L -469.68404 -434.59009" />
    <path d="M -455.22156 -404.93295 A 250 186.24017 303.66919 0 0 -662.74006 -133.47082 L -656.07762 -129.03271 L -656.48792 -114.85067 L -656.48792 1273.47199 L -490.14489 1224.09506 L -490.14489 149.26462 A 600 446.97641 123.66919 0 1 -269.00013 -362.76365" />
    <path d="M -662.74006 -133.47082 L -663.15036 -119.28879 L -656.48792 -114.85067" />
    <path d="M -663.15036 -119.28879 L -663.15036 1269.03387 L -656.48792 1273.47199" />
    <path d="M -656.07762 -129.03271 A 250 186.24017 123.66919 0 1 -448.55913 -400.49484" />
    <path d="M -251.46658 -380.06386 A 600 446.97641 123.66919 0 1 -199.3305 -425.46121" />
    <path d="M -509.69019 558.12782 A 3.5 2.60736 123.66919 0 1 -504.8388 554.35084 A 3.5 2.60736 123.66919 1 1 -508.71958 560.17661 A 3.5 2.60736 123.66919 0 1 -509.69019 558.12782 Z" />
    <path d="M -509.69019 513.34322 A 3.5 2.60736 123.66919 0 1 -504.8388 509.56624 A 3.5 2.60736 123.66919 1 1 -508.71958 515.39201 A 3.5 2.60736 123.66919 0 1 -509.69019 513.34322 Z" />
    <path d="M -509.69019 468.55862 A 3.5 2.60736 123.66919 0 1 -504.8388 464.78164 A 3.5 2.60736 123.66919 1 1 -508.71958 470.6074 A 3.5 2.60736 123.66919 0 1 -509.69019 468.55862 Z" />
    <path d="M -509.69019 423.77402 A 3.5 2.60736 123.66919 0 1 -504.8388 419.99704 A 3.5 2.60736 123.66919 1 1 -508.71958 425.8228 A 3.5 2.60736 123.66919 0 1 -509.69019 423.77402 Z" />
    <path d="M -509.69019 378.98941 A 3.5 2.60736 123.66919 0 1 -504.8388 375.21243 A 3.5 2.60736 123.66919 1 1 -508.71958 381.0382 A 3.5 2.60736 123.66919 0 1 -509.69019 378.98941 Z" />
    <path d="M -509.69019 334.20481 A 3.5 2.60736 123.66919 0 1 -504.8388 330.42783 A 3.5 2.60736 123.66919 1 1 -508.71958 336.2536 A 3.5 2.60736 123.66919 0 1 -509.69019 334.20481 Z" />
    <path d="M -509.69019 289.42021 A 3.5 2.60736 123.66919 0 1 -504.8388 285.64323 A 3.5 2.60736 123.66919 1 1 -508.71958 291.469 A 3.5 2.60736 123.66919 0 1 -509.69019 289.42021 Z" />
    <path d="M -509.69019 244.63561 A 3.5 2.60736 123.66919 0 1 -504.8388 240.85863 A 3.5 2.60736 123.66919 1 1 -508.71958 246.6844 A 3.5 2.60736 123.66919 0 1 -509.69019 244.63561 Z" />
    <path d="M -509.69019 199.85101 A 3.5 2.60736 123.66919 0 1 -504.8388 196.07403 A 3.5 2.60736 123.66919 1 1 -508.71958 201.89979 A 3.5 2.60736 123.66919 0 1 -509.69019 199.85101 Z" />
    <path d="M -509.69019 155.0664 A 3.5 2.60736 123.66919 0 1 -504.8388 151.28942 A 3.5 2.60736 123.66919 1 1 -508.71958 157.11519 A 3.5 2.60736 123.66919 0 1 -509.69019 155.0664 Z" />
    <path d="M -306.79768 -340.29471 A 3.5 2.60736 123.66919 0 1 -310.53026 -339.32019 A 3.5 2.60736 123.66919 0 1 -306.64948 -345.14596 A 3.5 2.60736 123.66919 0 1 -306.79768 -340.29471 Z" />
    <path d="M -334.21411 -307.38178 A 3.5 2.60736 123.66919 0 1 -338.10234 -306.2204 A 3.5 2.60736 123.66919 0 1 -334.22156 -312.04617 A 3.5 2.60736 123.66919 0 1 -334.21411 -307.38178 Z" />
    <path d="M -359.95899 -272.96578 A 3.5 2.60736 123.66919 0 1 -363.99338 -271.60902 A 3.5 2.60736 123.66919 1 1 -360.1126 -277.43478 A 3.5 2.60736 123.66919 0 1 -359.95899 -272.96578 Z" />
    <path d="M -383.90691 -237.2144 A 3.5 2.60736 123.66919 0 1 -388.07726 -235.65467 A 3.5 2.60736 123.66919 1 1 -384.19648 -241.48044 A 3.5 2.60736 123.66919 0 1 -383.90691 -237.2144 Z" />
    <path d="M -502.61915 114.44833 A 3.5 2.60736 123.66919 0 1 -507.46345 118.00453 A 3.5 2.60736 123.66919 1 1 -503.58267 112.17876 A 3.5 2.60736 123.66919 0 1 -502.61915 114.44833 Z" />
    <path d="M -492.66332 35.20456 A 3.5 2.60736 123.66919 0 1 -497.4511 38.31087 A 3.5 2.60736 123.66919 0 1 -493.57032 32.48511 A 3.5 2.60736 123.66919 0 1 -492.66332 35.20456 Z" />
    <path d="M -498.87812 75.0064 A 3.5 2.60736 123.66919 0 1 -503.70118 78.33867 A 3.5 2.60736 123.66919 0 1 -499.8204 72.51291 A 3.5 2.60736 123.66919 0 1 -498.87812 75.0064 Z" />
    <path d="M -459.53841 -84.41814 A 3.5 2.60736 123.66919 0 1 -464.13813 -81.99095 A 3.5 2.60736 123.66919 0 1 -460.25736 -87.81672 A 3.5 2.60736 123.66919 0 1 -459.53841 -84.41814 Z" />
    <path d="M -472.94543 -44.70235 A 3.5 2.60736 123.66919 0 1 -477.62127 -42.04969 A 3.5 2.60736 123.66919 0 1 -473.74049 -47.87546 A 3.5 2.60736 123.66919 0 1 -472.94543 -44.70235 Z" />
    <path d="M -484.00503 -4.76326 A 3.5 2.60736 123.66919 0 1 -488.74365 -1.88386 A 3.5 2.60736 123.66919 0 1 -484.86287 -7.70962 A 3.5 2.60736 123.66919 0 1 -484.00503 -4.76326 Z" />
    <path d="M -405.94119 -200.30181 A 3.5 2.60736 123.66919 0 1 -410.23663 -198.53252 A 3.5 2.60736 123.66919 0 1 -406.35585 -204.35828 A 3.5 2.60736 123.66919 0 1 -405.94119 -200.30181 Z" />
    <path d="M -425.95448 -162.40785 A 3.5 2.60736 123.66919 0 1 -430.36354 -160.42342 A 3.5 2.60736 123.66919 0 1 -426.48276 -166.24919 A 3.5 2.60736 123.66919 0 1 -425.95448 -162.40785 Z" />
    <path d="M -443.84928 -123.71712 A 3.5 2.60736 123.66919 0 1 -448.35993 -121.51304 A 3.5 2.60736 123.66919 0 1 -444.47916 -127.33881 A 3.5 2.60736 123.66919 0 1 -443.84928 -123.71712 Z" />
    <path d="M 507.58132 -724.67953 A 250 186.24017 123.66919 0 1 646.18056 -708.81961 A 250 186.24017 123.66919 0 1 662.909 -695.72717" />
    <path d="M 258.35269 -601.68487 A 57.5 42.83524 123.66919 0 1 249.28115 -603.30779" />
    <path d="M 549.16707 -199.60854 A 600 446.97641 303.66919 0 0 543.73523 -277.07326" />
    <path d="M 540.2037 -298.34809 A 600 446.97641 303.66919 0 0 403.20667 -536.07441" />
    <path d="M 263.33631 -600.66427 A 600 446.97641 303.66919 0 0 258.35269 -601.68487" />
    <path d="M 549.16707 515.13656 L 549.16707 370.15289" />
    <path d="M 549.16707 291.34225 L 549.16707 -199.60854 L 542.50464 -204.04666 A 600 446.97641 303.66919 0 0 537.92237 -275.34779" />
    <path d="M 568.71238 197.65109 A 3.5 2.60736 123.66919 0 1 563.86099 201.42807 A 3.5 2.60736 123.66919 0 1 567.74177 195.6023 A 3.5 2.60736 123.66919 0 1 568.71238 197.65109 Z" />
    <path d="M 568.71238 152.86648 A 3.5 2.60736 123.66919 0 1 563.86099 156.64346 A 3.5 2.60736 123.66919 0 1 567.74177 150.8177 A 3.5 2.60736 123.66919 0 1 568.71238 152.86648 Z" />
    <path d="M 568.71238 108.08188 A 3.5 2.60736 123.66919 0 1 563.86099 111.85886 A 3.5 2.60736 123.66919 0 1 567.74177 106.0331 A 3.5 2.60736 123.66919 0 1 568.71238 108.08188 Z" />
    <path d="M 568.71238 63.29728 A 3.5 2.60736 123.66919 0 1 563.86099 67.07426 A 3.5 2.60736 123.66919 0 1 567.74177 61.24849 A 3.5 2.60736 123.66919 0 1 568.71238 63.29728 Z" />
    <path d="M 568.71238 18.51268 A 3.5 2.60736 123.66919 0 1 563.86099 22.28966 A 3.5 2.60736 123.66919 0 1 567.74177 16.46389 A 3.5 2.60736 123.66919 0 1 568.71238 18.51268 Z" />
    <path d="M 568.71238 -26.27192 A 3.5 2.60736 123.66919 0 1 563.86099 -22.49494 A 3.5 2.60736 123.66919 0 1 567.74177 -28.32071 A 3.5 2.60736 123.66919 0 1 568.71238 -26.27192 Z" />
    <path d="M 568.71238 -71.05652 A 3.5 2.60736 123.66919 0 1 563.86099 -67.27955 A 3.5 2.60736 123.66919 0 1 567.74177 -73.10531 A 3.5 2.60736 123.66919 0 1 568.71238 -71.05652 Z" />
    <path d="M 568.71238 -115.84113 A 3.5 2.60736 123.66919 0 1 563.86099 -112.06415 A 3.5 2.60736 123.66919 1 1 567.74177 -117.88991 A 3.5 2.60736 123.66919 0 1 568.71238 -115.84113 Z" />
    <path d="M 568.71238 -160.62573 A 3.5 2.60736 123.66919 0 1 563.86099 -156.84875 A 3.5 2.60736 123.66919 0 1 567.74177 -162.67452 A 3.5 2.60736 123.66919 0 1 568.71238 -160.62573 Z" />
    <path d="M 568.71238 -205.41033 A 3.5 2.60736 123.66919 0 1 563.86099 -201.63335 A 3.5 2.60736 123.66919 0 1 567.74177 -207.45912 A 3.5 2.60736 123.66919 0 1 568.71238 -205.41033 Z" />
    <path d="M 502.87147 -445.1057 A 3.5 2.60736 123.66919 0 1 502.54377 -446.77654" />
    <path d="M 504.52211 -444.09305 A 3.5 2.60736 123.66919 0 1 503.50134 -444.42752 A 3.5 2.60736 123.66919 0 1 502.87147 -445.1057" />
    <path d="M 551.68551 -315.16372 A 3.5 2.60736 123.66919 0 1 556.47329 -319.57361 A 3.5 2.60736 123.66919 0 1 552.59251 -313.74784 A 3.5 2.60736 123.66919 0 1 551.68551 -315.16372 Z" />
    <path d="M 561.64134 -241.83049 A 3.5 2.60736 123.66919 0 1 566.48564 -245.82405 A 3.5 2.60736 123.66919 1 1 562.60486 -239.99828 A 3.5 2.60736 123.66919 0 1 561.64134 -241.83049 Z" />
    <path d="M 557.9003 -279.05147 A 3.5 2.60736 123.66919 0 1 558.39331 -281.42434" />
    <path d="M 563.17264 -282.84302 A 3.5 2.60736 123.66919 0 1 558.84259 -277.43057 A 3.5 2.60736 123.66919 0 1 557.9003 -279.05147" />
    <path d="M 543.02722 -349.99133 A 3.5 2.60736 123.66919 0 1 547.76584 -354.59894 A 3.5 2.60736 123.66919 0 1 543.88506 -348.77317 A 3.5 2.60736 123.66919 0 1 543.02722 -349.99133 Z" />
    <path d="M 531.96762 -383.36461 A 3.5 2.60736 123.66919 0 1 536.64346 -388.16168 A 3.5 2.60736 123.66919 0 1 532.76268 -382.33592 A 3.5 2.60736 123.66919 0 1 531.96762 -383.36461 Z" />
    <path d="M 518.5606 -415.12097 A 3.5 2.60736 123.66919 0 1 520.63717 -420.08392" />
    <path d="M 523.32757 -415.64868 A 3.5 2.60736 123.66919 0 1 519.27954 -414.27256 A 3.5 2.60736 123.66919 0 1 518.5606 -415.12097" />
    <path d="M 639.51813 -713.25772 A 250 186.24017 303.66919 0 0 500.91889 -729.11765" />
    <path d="M 534.64844 -296.69908 A 600 446.97641 303.66919 0 0 399.69395 -538.021" />
    <path d="M 542.50464 516.26844 L 542.50464 372.13055" />
    <path d="M 542.50464 286.90413 L 542.50464 -204.04666" />
    <path d="M -705.06815 -147.21192 L -705.06815 1241.11073 L -698.40572 1245.54885 L -663.15036 1235.08372" />
    <path d="M -704.65785 -161.39396 L -705.06815 -147.21192 L -698.40572 -142.77381 L -698.40572 1245.54885" />
    <path d="M -497.13935 -432.85609 A 250 186.24017 303.66919 0 0 -704.65785 -161.39396 L -697.99542 -156.95584 L -698.40572 -142.77381" />
    <path d="M -697.99542 -156.95584 A 250 186.24017 123.66919 0 1 -490.47692 -428.41798" />
    <path d="M 542.50464 3.32019 L 397.96149 -92.96586" />
    <path d="M 273.20421 -45.18486 L 542.50464 134.20706" />
    <path d="M 273.20421 -45.18486 L 273.20421 -55.93317 L 397.96149 -92.96586" />
    <path d="M 273.20421 -55.93317 L 542.50464 123.45876" />
    <path d="M 542.50464 -175.81822 L 437.73619 -245.60873" />
    <path d="M 414.55486 -261.05075 L 397.96149 -272.10427" />
    <path d="M 273.20421 -224.32327 L 278.63606 -220.70489" />
    <path d="M 301.81739 -205.26287 L 542.50464 -44.93134" />
    <path d="M 273.20421 -224.32327 L 273.20421 -235.07157 L 397.96149 -272.10427" />
    <path d="M 273.20421 -235.07157 L 289.79758 -224.01805" />
    <path d="M 312.97891 -208.57603 L 542.50464 -55.67965" />
    <path d="M 514.3206 -373.73116 L 397.96149 -451.24267" />
    <path d="M 273.20421 -403.46168 L 464.66142 -275.92428" />
    <path d="M 487.84275 -260.48225 L 542.1461 -224.30859" />
    <path d="M 273.20421 -403.46168 L 273.20421 -414.20998 L 397.96149 -451.24267" />
    <path d="M 273.20421 -414.20998 L 475.82294 -279.23744" />
    <path d="M 499.00427 -263.79542 L 541.64105 -235.39333" />
    <path d="M 273.20421 -582.60008 L 481.07733 -444.12738" />
    <path d="M 273.20421 -582.60008 L 273.20421 -586.1636" />
    <path d="M 303.62759 -573.08214 L 469.06146 -462.87994" />
    <path d="M -974.36858 314.39378 L -849.6113 277.36109" />
    <path d="M -974.36858 314.39378 L -705.06815 493.7857" />
    <path d="M -705.06815 373.64714 L -849.6113 277.36109" />
    <path d="M -974.36858 325.14208 L -974.36858 314.39378" />
    <path d="M -974.36858 325.14208 L -705.06815 504.53401" />
    <path d="M -974.36858 135.25537 L -849.6113 98.22268" />
    <path d="M -974.36858 135.25537 L -705.06815 314.6473" />
    <path d="M -705.06815 194.50873 L -849.6113 98.22268" />
    <path d="M -974.36858 146.00368 L -974.36858 135.25537" />
    <path d="M -974.36858 146.00368 L -705.06815 325.3956" />
    <path d="M -974.36858 -43.88303 L -849.6113 -80.91573" />
    <path d="M -974.36858 -43.88303 L -705.06815 135.50889" />
    <path d="M -705.06815 15.37032 L -849.6113 -80.91573" />
    <path d="M -974.36858 -33.13473 L -974.36858 -43.88303" />
    <path d="M -974.36858 -33.13473 L -705.06815 146.25719" />
    <path d="M -974.36858 -223.02144 L -849.6113 -260.05414" />
    <path d="M -974.36858 -223.02144 L -705.06815 -43.62952" />
    <path d="M -704.53389 -163.4122 L -849.6113 -260.05414" />
    <path d="M -974.36858 -212.27314 L -974.36858 -223.02144" />
    <path d="M -974.36858 -212.27314 L -705.06815 -32.88121" />
    <path d="M 210.82557 -922.36055 L -71.54174 -838.54322 L -78.20417 -842.98133 A 57.5 42.83524 303.66919 0 0 -77.15112 -832.54561 A 57.5 42.83524 303.66919 0 0 -62.25837 -809.32269 L -55.59594 -804.88457 A 57.5 42.83524 303.66919 0 0 -38.40306 -799.36589" />
    <path d="M -71.54174 -838.54322 A 57.5 42.83524 303.66919 0 0 -55.59594 -804.88457" />
    <path d="M 252.41133 -397.28956 A 600 446.97641 303.66919 0 0 213.92798 -592.81362" />
    <path d="M 194.32179 -631.69222 A 600 446.97641 303.66919 0 0 86.02041 -748.51019 A 600 446.97641 303.66919 0 0 -38.40306 -799.36589" />
    <path d="M 252.41133 677.54088 L 252.41133 458.24125" />
    <path d="M 252.41133 93.66123 L 252.41133 -190.59727" />
    <path d="M 252.41133 -212.9204 L 252.41133 -397.28956 L 245.7489 -401.72767 A 600 446.97641 303.66919 0 0 209.70636 -591.56049" />
    <path d="M 337.79353 652.19621 L 252.41133 677.54088 L 245.7489 673.10277 L 245.7489 460.21892" />
    <path d="M 418.75437 -760.1587 L 418.75437 -704.7281" />
    <path d="M 418.75437 -485.64323 L 418.75437 -437.3917" />
    <path d="M 418.75437 -306.50482 L 418.75437 -262.29732" />
    <path d="M 418.75437 -127.36641 L 418.75437 -79.11488" />
    <path d="M 418.75437 51.77199 L 418.75437 204.46906" />
    <path d="M 418.75437 408.86433 L 418.75437 537.3961" />
    <path d="M 418.34407 -774.09715 L 418.75437 -760.1587" />
    <path d="M 210.82557 -922.36055 A 250 186.24017 123.66919 0 1 349.42482 -906.50063 A 250 186.24017 123.66919 0 1 418.34407 -774.09715" />
    <path d="M 271.95664 -0.02993 A 3.5 2.60736 123.66919 0 1 267.10524 3.74705 A 3.5 2.60736 123.66919 0 1 270.98602 -2.07872 A 3.5 2.60736 123.66919 0 1 271.95664 -0.02993 Z" />
    <path d="M 271.95664 -44.81453 A 3.5 2.60736 123.66919 0 1 267.10524 -41.03755 A 3.5 2.60736 123.66919 0 1 270.98602 -46.86332 A 3.5 2.60736 123.66919 0 1 271.95664 -44.81453 Z" />
    <path d="M 271.95664 -89.59914 A 3.5 2.60736 123.66919 0 1 267.10524 -85.82216 A 3.5 2.60736 123.66919 0 1 270.98602 -91.64792 A 3.5 2.60736 123.66919 0 1 271.95664 -89.59914 Z" />
    <path d="M 271.95664 -134.38374 A 3.5 2.60736 123.66919 0 1 267.10524 -130.60676 A 3.5 2.60736 123.66919 0 1 270.98602 -136.43252 A 3.5 2.60736 123.66919 0 1 271.95664 -134.38374 Z" />
    <path d="M 271.95664 -179.16834 A 3.5 2.60736 123.66919 0 1 267.10524 -175.39136 A 3.5 2.60736 123.66919 0 1 270.98602 -181.21713 A 3.5 2.60736 123.66919 0 1 271.95664 -179.16834 Z" />
    <path d="M 271.95664 -223.95294 A 3.5 2.60736 123.66919 0 1 267.10524 -220.17596 A 3.5 2.60736 123.66919 0 1 270.98602 -226.00173 A 3.5 2.60736 123.66919 0 1 271.95664 -223.95294 Z" />
    <path d="M 271.95664 -268.73754 A 3.5 2.60736 123.66919 0 1 267.10524 -264.96056 A 3.5 2.60736 123.66919 0 1 270.98602 -270.78633 A 3.5 2.60736 123.66919 0 1 271.95664 -268.73754 Z" />
    <path d="M 271.95664 -313.52215 A 3.5 2.60736 123.66919 0 1 267.10524 -309.74517 A 3.5 2.60736 123.66919 1 1 270.98602 -315.57093 A 3.5 2.60736 123.66919 0 1 271.95664 -313.52215 Z" />
    <path d="M 271.95664 -358.30675 A 3.5 2.60736 123.66919 0 1 267.10524 -354.52977 A 3.5 2.60736 123.66919 0 1 270.98602 -360.35553 A 3.5 2.60736 123.66919 0 1 271.95664 -358.30675 Z" />
    <path d="M 271.95664 -403.09135 A 3.5 2.60736 123.66919 0 1 267.10524 -399.31437 A 3.5 2.60736 123.66919 0 1 270.98602 -405.14014 A 3.5 2.60736 123.66919 0 1 271.95664 -403.09135 Z" />
    <path d="M 69.06412 -778.00007 A 3.5 2.60736 123.66919 0 1 68.91592 -778.08953 A 3.5 2.60736 123.66919 1 1 72.7967 -783.9153 A 3.5 2.60736 123.66919 0 1 69.06412 -778.00007 Z" />
    <path d="M 96.48055 -761.36361 A 3.5 2.60736 123.66919 0 1 100.36878 -767.18438 A 3.5 2.60736 123.66919 0 1 96.488 -761.35862 A 3.5 2.60736 123.66919 0 1 96.48055 -761.36361 Z" />
    <path d="M 122.22543 -742.23173 A 3.5 2.60736 123.66919 0 1 126.25982 -747.94389 A 3.5 2.60736 123.66919 0 1 122.37904 -742.11812 A 3.5 2.60736 123.66919 0 1 122.22543 -742.23173 Z" />
    <path d="M 146.17335 -720.69765 A 3.5 2.60736 123.66919 0 1 150.3437 -726.28756 A 3.5 2.60736 123.66919 1 1 146.46292 -720.46179 A 3.5 2.60736 123.66919 0 1 146.17335 -720.69765 Z" />
    <path d="M 168.20763 -696.86628 A 3.5 2.60736 123.66919 0 1 172.50307 -702.32089 A 3.5 2.60736 123.66919 1 1 168.62229 -696.49513 A 3.5 2.60736 123.66919 0 1 168.20763 -696.86628 Z" />
    <path d="M 188.22092 -670.85372 A 3.5 2.60736 123.66919 0 1 192.62998 -676.16066 A 3.5 2.60736 123.66919 1 1 188.7492 -670.33489 A 3.5 2.60736 123.66919 0 1 188.22092 -670.85372 Z" />
    <path d="M 206.11572 -642.78671 A 3.5 2.60736 123.66919 0 1 210.62638 -647.93431 A 3.5 2.60736 123.66919 1 1 206.7456 -642.10854 A 3.5 2.60736 123.66919 0 1 206.11572 -642.78671 Z" />
    <path d="M 264.88559 -439.51151 A 3.5 2.60736 123.66919 0 1 269.72989 -443.50507 A 3.5 2.60736 123.66919 1 1 265.84911 -437.6793 A 3.5 2.60736 123.66919 0 1 264.88559 -439.51151 Z" />
    <path d="M 261.14456 -476.73248 A 3.5 2.60736 123.66919 0 1 265.96762 -480.93735 A 3.5 2.60736 123.66919 0 1 262.08684 -475.11159 A 3.5 2.60736 123.66919 0 1 261.14456 -476.73248 Z" />
    <path d="M 254.92976 -512.84474 A 3.5 2.60736 123.66919 0 1 259.71754 -517.25463 A 3.5 2.60736 123.66919 0 1 255.83676 -511.42886 A 3.5 2.60736 123.66919 0 1 254.92976 -512.84474 Z" />
    <path d="M 246.27147 -547.67235 A 3.5 2.60736 123.66919 0 1 251.0101 -552.27996 A 3.5 2.60736 123.66919 0 1 247.12932 -546.45419 A 3.5 2.60736 123.66919 0 1 246.27147 -547.67235 Z" />
    <path d="M 235.21187 -581.04563 A 3.5 2.60736 123.66919 0 1 239.88771 -585.8427 A 3.5 2.60736 123.66919 0 1 236.00693 -580.01694 A 3.5 2.60736 123.66919 0 1 235.21187 -581.04563 Z" />
    <path d="M -504.86535 -709.91633 L -672.1103 -660.27168" />
    <path d="M -702.20445 -651.33859 L -787.23266 -626.09899" />
    <path d="M -504.86535 -709.91633 A 57.5 42.83524 123.66919 0 1 -538.00403 -651.06536" />
    <path d="M -828.81842 -76.33954 A 600 446.97641 123.66919 0 1 -827.58331 -114.49352" />
    <path d="M -808.82176 -232.88257 A 600 446.97641 123.66919 0 1 -607.67366 -588.36781" />
    <path d="M -590.14011 -605.66802 A 600 446.97641 123.66919 0 1 -538.00403 -651.06536" />
    <path d="M -828.81842 998.4909 L -828.81842 422.09894" />
    <path d="M -828.81842 291.21206 L -828.81842 242.96053" />
    <path d="M -828.81842 112.07366 L -828.81842 63.82212" />
    <path d="M -828.81842 -67.06475 L -828.81842 -76.33954" />
    <path d="M -995.16146 1047.86783 L -828.81842 998.4909" />
    <path d="M -995.16146 -340.45483 L -995.16146 1047.86783" />
    <path d="M -994.75116 -354.63686 L -995.16146 -340.45483" />
    <path d="M -994.75116 -354.63686 A 250 186.24017 123.66919 0 1 -787.23266 -626.09899" />
    <path d="M -848.36373 242.95446 A 3.5 2.60736 123.66919 0 1 -843.51234 239.17748 A 3.5 2.60736 123.66919 1 1 -847.39312 245.00325 A 3.5 2.60736 123.66919 0 1 -848.36373 242.95446 Z" />
    <path d="M -848.36373 63.81605 A 3.5 2.60736 123.66919 0 1 -843.51234 60.03907 A 3.5 2.60736 123.66919 1 1 -847.39312 65.86484 A 3.5 2.60736 123.66919 0 1 -848.36373 63.81605 Z" />
    <path d="M -798.21195 -310.02229 A 3.5 2.60736 123.66919 0 1 -802.81167 -307.59511 A 3.5 2.60736 123.66919 0 1 -798.93089 -313.42087 A 3.5 2.60736 123.66919 0 1 -798.21195 -310.02229 Z" />
    <path d="M -645.47122 -565.89887 A 3.5 2.60736 123.66919 0 1 -649.2038 -564.92435 A 3.5 2.60736 123.66919 0 1 -645.32302 -570.75011 A 3.5 2.60736 123.66919 0 1 -645.47122 -565.89887 Z" />
    <path d="M -672.88764 -532.98593 A 3.5 2.60736 123.66919 0 1 -676.77587 -531.82456 A 3.5 2.60736 123.66919 0 1 -672.89509 -537.65032 A 3.5 2.60736 123.66919 0 1 -672.88764 -532.98593 Z" />
    <path d="M -698.63253 -498.56994 A 3.5 2.60736 123.66919 0 1 -702.66692 -497.21317 A 3.5 2.60736 123.66919 1 1 -698.78614 -503.03894 A 3.5 2.60736 123.66919 0 1 -698.63253 -498.56994 Z" />
    <path d="M -722.58045 -462.81856 A 3.5 2.60736 123.66919 0 1 -726.75079 -461.25882 A 3.5 2.60736 123.66919 1 1 -722.87001 -467.08459 A 3.5 2.60736 123.66919 0 1 -722.58045 -462.81856 Z" />
    <path d="M -744.61473 -425.90597 A 3.5 2.60736 123.66919 0 1 -748.91017 -424.13667 A 3.5 2.60736 123.66919 0 1 -745.02939 -429.96244 A 3.5 2.60736 123.66919 0 1 -744.61473 -425.90597 Z" />
    <path d="M -764.62802 -388.012 A 3.5 2.60736 123.66919 0 1 -769.03708 -386.02758 A 3.5 2.60736 123.66919 0 1 -765.1563 -391.85334 A 3.5 2.60736 123.66919 0 1 -764.62802 -388.012 Z" />
    <path d="M -782.52282 -349.32128 A 3.5 2.60736 123.66919 0 1 -787.03347 -347.1172 A 3.5 2.60736 123.66919 0 1 -783.15269 -352.94297 A 3.5 2.60736 123.66919 0 1 -782.52282 -349.32128 Z" />
    <path d="M -841.29268 -111.15582 A 3.5 2.60736 123.66919 0 1 -846.13699 -107.59963 A 3.5 2.60736 123.66919 1 1 -842.25621 -113.4254 A 3.5 2.60736 123.66919 0 1 -841.29268 -111.15582 Z" />
    <path d="M -811.61897 -270.30651 A 3.5 2.60736 123.66919 0 1 -816.29481 -267.65385 A 3.5 2.60736 123.66919 0 1 -812.41403 -273.47962 A 3.5 2.60736 123.66919 0 1 -811.61897 -270.30651 Z" />
    <path d="M -808.35757 -660.19425 L -773.10221 -636.70922" />
    <path d="M -793.89509 -630.53711 L -773.10221 -636.70922" />
    <path d="M -793.89509 -630.53711 L -787.23266 -626.09899" />
    <path d="M -511.52779 -714.35444 L -504.86535 -709.91633" />
    <path d="M -511.52779 -714.35444 L -78.20417 -842.98133" />
    <path d="M 210.82557 -922.36055 L 204.16314 -926.79866" />
    <path d="M 183.37026 -920.62655 L 204.16314 -926.79866" />
    <path d="M 183.37026 -920.62655 L 148.1149 -944.11157" />
    <path d="M 168.90778 -950.28369 L 148.1149 -944.11157" />
    <path d="M 168.90778 -950.28369 L 162.24535 -954.7218" />
    <path d="M -120.12196 -870.90447 L 162.24535 -954.7218" />
    <path d="M -113.45953 -866.46636 L -120.12196 -870.90447 A 57.5 42.83524 303.66919 0 0 -119.74944 -864.59927" />
    <path d="M -113.45953 -866.46636 L -546.78315 -737.83946" />
    <path d="M -553.44558 -742.27758 L -546.78315 -737.83946" />
    <path d="M -835.81288 -658.46025 L -750.78467 -683.69985" />
    <path d="M -720.69052 -692.63293 L -553.44558 -742.27758" />
    <path d="M -835.81288 -658.46025 L -829.15045 -654.02213" />
    <path d="M -808.35757 -660.19425 L -829.15045 -654.02213" />
    <path d="M 190.7653 -630.63651 A 600 446.97641 303.66919 0 0 82.67585 -750.70923" />
    <path d="M 245.7489 89.22311 L 245.7489 -188.61961" />
    <path d="M 245.7489 -210.94273 L 245.7489 -401.72767" />
    <path d="M 342.76239 -910.93874 A 250 186.24017 303.66919 0 0 204.16314 -926.79866" />
    <path d="M -1001.82389 1043.42971 L -995.16146 1047.86783" />
    <path d="M -1001.82389 -344.89294 L -1001.82389 1043.42971" />
    <path d="M -1001.82389 -344.89294 L -995.16146 -340.45483" />
    <path d="M -1001.41359 -359.07498 L -1001.82389 -344.89294" />
    <path d="M -1001.41359 -359.07498 L -994.75116 -354.63686" />
    <path d="M -793.89509 -630.53711 A 250 186.24017 303.66919 0 0 -1001.41359 -359.07498" />
    <path d="M -808.35757 -649.44594 L -808.35757 -660.19425" />
    <path d="M -808.35757 -649.44594 L -784.26373 -633.39606" />
    <path d="M -505.03487 -705.53348 L -77.15112 -832.54561" />
    <path d="M 168.90778 -950.28369 A 250 186.24017 123.66919 0 1 307.50703 -934.42377 A 250 186.24017 123.66919 0 1 324.23547 -921.33133" />
    <path d="M -80.32085 -827.28903 A 57.5 42.83524 123.66919 0 1 -89.39238 -828.91194" />
    <path d="M 210.49354 -425.2127 A 600 446.97641 303.66919 0 0 185.91487 -584.49827" />
    <path d="M 170.31083 -624.56485 A 600 446.97641 303.66919 0 0 64.53313 -761.67857" />
    <path d="M -75.33723 -826.26843 A 600 446.97641 303.66919 0 0 -80.32085 -827.28903" />
    <path d="M 210.49354 649.61775 L 210.49354 470.68405" />
    <path d="M 210.49354 65.73809 L 210.49354 -179.37777" />
    <path d="M 210.49354 -200.80368 L 210.49354 -425.2127 L 203.83111 -429.65081 A 600 446.97641 303.66919 0 0 181.15353 -583.08492" />
    <path d="M 245.7489 639.15262 L 210.49354 649.61775 L 203.83111 645.17963 L 203.83111 472.66171" />
    <path d="M 230.03885 -27.95307 A 3.5 2.60736 123.66919 0 1 225.18745 -24.17609 A 3.5 2.60736 123.66919 0 1 229.06823 -30.00186 A 3.5 2.60736 123.66919 0 1 230.03885 -27.95307 Z" />
    <path d="M 230.03885 -72.73767 A 3.5 2.60736 123.66919 0 1 225.18745 -68.96069 A 3.5 2.60736 123.66919 0 1 229.06823 -74.78646 A 3.5 2.60736 123.66919 0 1 230.03885 -72.73767 Z" />
    <path d="M 230.03885 -117.52227 A 3.5 2.60736 123.66919 0 1 225.18745 -113.74529 A 3.5 2.60736 123.66919 0 1 229.06823 -119.57106 A 3.5 2.60736 123.66919 0 1 230.03885 -117.52227 Z" />
    <path d="M 230.03885 -162.30688 A 3.5 2.60736 123.66919 0 1 225.18745 -158.5299 A 3.5 2.60736 123.66919 0 1 229.06823 -164.35566 A 3.5 2.60736 123.66919 0 1 230.03885 -162.30688 Z" />
    <path d="M 230.03885 -207.09148 A 3.5 2.60736 123.66919 0 1 229.93948 -206.2499" />
    <path d="M 224.3162 -204.5807 A 3.5 2.60736 123.66919 0 1 229.06823 -209.14026 A 3.5 2.60736 123.66919 0 1 230.03885 -207.09148" />
    <path d="M 230.03885 -251.87608 A 3.5 2.60736 123.66919 0 1 225.18745 -248.0991 A 3.5 2.60736 123.66919 0 1 229.06823 -253.92487 A 3.5 2.60736 123.66919 0 1 230.03885 -251.87608 Z" />
    <path d="M 230.03885 -296.66068 A 3.5 2.60736 123.66919 0 1 225.18745 -292.8837 A 3.5 2.60736 123.66919 0 1 229.06823 -298.70947 A 3.5 2.60736 123.66919 0 1 230.03885 -296.66068 Z" />
    <path d="M 230.03885 -341.44528 A 3.5 2.60736 123.66919 0 1 225.18745 -337.6683 A 3.5 2.60736 123.66919 1 1 229.06823 -343.49407 A 3.5 2.60736 123.66919 0 1 230.03885 -341.44528 Z" />
    <path d="M 230.03885 -386.22988 A 3.5 2.60736 123.66919 0 1 225.18745 -382.4529 A 3.5 2.60736 123.66919 0 1 229.06823 -388.27867 A 3.5 2.60736 123.66919 0 1 230.03885 -386.22988 Z" />
    <path d="M 230.03885 -431.01449 A 3.5 2.60736 123.66919 0 1 225.18745 -427.23751 A 3.5 2.60736 123.66919 0 1 229.06823 -433.06327 A 3.5 2.60736 123.66919 0 1 230.03885 -431.01449 Z" />
    <path d="M 164.19793 -670.70985 A 3.5 2.60736 123.66919 0 1 163.87023 -672.38069" />
    <path d="M 165.84857 -669.6972 A 3.5 2.60736 123.66919 0 1 164.82781 -670.03168 A 3.5 2.60736 123.66919 0 1 164.19793 -670.70985" />
    <path d="M 213.01197 -540.76788 A 3.5 2.60736 123.66919 0 1 217.79975 -545.17776 A 3.5 2.60736 123.66919 0 1 213.91897 -539.352 A 3.5 2.60736 123.66919 0 1 213.01197 -540.76788 Z" />
    <path d="M 222.9678 -467.43465 A 3.5 2.60736 123.66919 0 1 227.8121 -471.4282 A 3.5 2.60736 123.66919 1 1 223.93132 -465.60244 A 3.5 2.60736 123.66919 0 1 222.9678 -467.43465 Z" />
    <path d="M 219.22677 -504.65562 A 3.5 2.60736 123.66919 0 1 224.04983 -508.86049 A 3.5 2.60736 123.66919 0 1 220.16905 -503.03472 A 3.5 2.60736 123.66919 0 1 219.22677 -504.65562 Z" />
    <path d="M 204.35368 -575.59549 A 3.5 2.60736 123.66919 0 1 209.09231 -580.20309 A 3.5 2.60736 123.66919 0 1 205.21153 -574.37733 A 3.5 2.60736 123.66919 0 1 204.35368 -575.59549 Z" />
    <path d="M 179.88706 -640.72513 A 3.5 2.60736 123.66919 0 1 181.96363 -645.68808" />
    <path d="M 184.65403 -641.25284 A 3.5 2.60736 123.66919 0 1 180.60601 -639.87672 A 3.5 2.60736 123.66919 0 1 179.88706 -640.72513" />
    <path d="M 300.8446 -938.86188 A 250 186.24017 303.66919 0 0 162.24535 -954.7218" />
    <path d="M 166.15016 -623.32981 A 600 446.97641 303.66919 0 0 61.02042 -763.62516" />
    <path d="M 203.83111 61.29998 L 203.83111 -178.05842" />
    <path d="M 203.83111 -199.24776 L 203.83111 -429.65081" />
    <path d="M -1043.74168 -372.81608 L -1043.74168 1015.50658 L -1037.07925 1019.94469 L -1001.82389 1009.47956" />
    <path d="M -1043.33138 -386.99811 L -1043.74168 -372.81608 L -1037.07925 -368.37796 L -1037.07925 1019.94469" />
    <path d="M -835.81288 -658.46025 A 250 186.24017 303.66919 0 0 -1043.33138 -386.99811 L -1036.66895 -382.56 L -1037.07925 -368.37796" />
    <path d="M -1036.66895 -382.56 A 250 186.24017 123.66919 0 1 -829.15045 -654.02213" />
    <path d="M 203.83111 -222.28397 L 59.28795 -318.57002" />
    <path d="M -65.46933 -270.78902 L 38.66272 -201.42244" />
    <path d="M 80.90428 -173.28363 L 203.83111 -91.39709" />
    <path d="M -65.46933 -270.78902 L -65.46933 -281.53732 L 59.28795 -318.57002" />
    <path d="M -65.46933 -281.53732 L 62.36627 -196.38086" />
    <path d="M 99.2675 -171.79945 L 203.83111 -102.1454" />
    <path d="M 203.83111 -401.42237 L 59.28795 -497.70842" />
    <path d="M -65.46933 -449.92742 L 203.83111 -270.5355" />
    <path d="M -65.46933 -449.92742 L -65.46933 -460.67573 L 59.28795 -497.70842" />
    <path d="M -65.46933 -460.67573 L 203.83111 -281.2838" />
    <path d="M 147.80269 -617.88358 L 59.28795 -676.84683" />
    <path d="M -65.46933 -629.06583 L 11.88389 -577.53772" />
    <path d="M 58.30077 -546.61756 L 203.47256 -449.91275" />
    <path d="M -65.46933 -629.06583 L -65.46933 -639.81414 L 59.28795 -676.84683" />
    <path d="M -65.46933 -639.81414 L 23.04541 -580.85089" />
    <path d="M 69.46229 -549.93072 L 202.96752 -460.99749" />
    <path d="M -65.46933 -808.20424 L 142.40379 -669.73154" />
    <path d="M -65.46933 -808.20424 L -65.46933 -811.76776" />
    <path d="M -35.04595 -798.6863 L 130.38793 -688.4841" />
    <path d="M -1313.04212 88.78962 L -1188.28484 51.75693" />
    <path d="M -1313.04212 88.78962 L -1043.74168 268.18155" />
    <path d="M -1043.74168 148.04298 L -1188.28484 51.75693" />
    <path d="M -1313.04212 99.53793 L -1313.04212 88.78962" />
    <path d="M -1313.04212 99.53793 L -1043.74168 278.92985" />
    <path d="M -1313.04212 -90.34878 L -1188.28484 -127.38148" />
    <path d="M -1313.04212 -90.34878 L -1043.74168 89.04314" />
    <path d="M -1043.74168 -31.09543 L -1188.28484 -127.38148" />
    <path d="M -1313.04212 -79.60048 L -1313.04212 -90.34878" />
    <path d="M -1313.04212 -79.60048 L -1043.74168 99.79145" />
    <path d="M -1313.04212 -269.48719 L -1188.28484 -306.51989" />
    <path d="M -1313.04212 -269.48719 L -1043.74168 -90.09527" />
    <path d="M -1043.74168 -210.23384 L -1188.28484 -306.51989" />
    <path d="M -1313.04212 -258.73889 L -1313.04212 -269.48719" />
    <path d="M -1313.04212 -258.73889 L -1043.74168 -79.34696" />
    <path d="M -1313.04212 -448.6256 L -1188.28484 -485.65829" />
    <path d="M -1313.04212 -448.6256 L -1043.74168 -269.23367" />
    <path d="M -1043.20743 -389.01636 L -1188.28484 -485.65829" />
    <path d="M -1313.04212 -437.87729 L -1313.04212 -448.6256" />
    <path d="M -1313.04212 -437.87729 L -1043.74168 -258.48537" />
    <path d="M -127.84797 -1147.96471 L -410.21528 -1064.14737 L -416.87771 -1068.58549 A 57.5 42.83524 303.66919 0 0 -415.82466 -1058.14977 A 57.5 42.83524 303.66919 0 0 -400.93191 -1034.92685 L -394.26948 -1030.48873 A 57.5 42.83524 303.66919 0 0 -377.0766 -1024.97004" />
    <path d="M -410.21528 -1064.14737 A 57.5 42.83524 303.66919 0 0 -394.26948 -1030.48873" />
    <path d="M -86.26221 -622.89372 A 600 446.97641 303.66919 0 0 -124.74556 -818.41778" />
    <path d="M -144.35175 -857.29637 A 600 446.97641 303.66919 0 0 -252.65313 -974.11435 A 600 446.97641 303.66919 0 0 -377.0766 -1024.97004" />
    <path d="M -86.26221 -131.94293 L -86.26221 -241.03453" />
    <path d="M -86.26221 -270.01454 L -86.26221 -503.70578" />
    <path d="M -86.26221 -548.40424 L -86.26221 -622.89372 L -92.92464 -627.33183 A 600 446.97641 303.66919 0 0 -128.96717 -817.16464" />
    <path d="M 80.08083 -985.76286 L 80.08083 -930.33226" />
    <path d="M 80.08083 -711.24738 L 80.08083 -662.99585" />
    <path d="M 80.08083 -532.10898 L 80.08083 -483.85744" />
    <path d="M 80.08083 -352.97057 L 80.08083 -304.71904" />
    <path d="M 80.08083 -173.36882 L 80.08083 -21.1351" />
    <path d="M 79.67053 -999.7013 L 80.08083 -985.76286" />
    <path d="M -127.84797 -1147.96471 A 250 186.24017 123.66919 0 1 10.75128 -1132.10479 A 250 186.24017 123.66919 0 1 79.67053 -999.7013" />
    <path d="M -66.7169 -225.63409 A 3.5 2.60736 123.66919 0 1 -71.56829 -221.85711 A 3.5 2.60736 123.66919 0 1 -67.68751 -227.68288 A 3.5 2.60736 123.66919 0 1 -66.7169 -225.63409 Z" />
    <path d="M -66.7169 -270.41869 A 3.5 2.60736 123.66919 0 1 -71.56829 -266.64171 A 3.5 2.60736 123.66919 0 1 -67.68751 -272.46748 A 3.5 2.60736 123.66919 0 1 -66.7169 -270.41869 Z" />
    <path d="M -66.7169 -315.20329 A 3.5 2.60736 123.66919 0 1 -71.56829 -311.42631 A 3.5 2.60736 123.66919 0 1 -67.68751 -317.25208 A 3.5 2.60736 123.66919 0 1 -66.7169 -315.20329 Z" />
    <path d="M -66.7169 -359.98789 A 3.5 2.60736 123.66919 0 1 -71.56829 -356.21091 A 3.5 2.60736 123.66919 0 1 -67.68751 -362.03668 A 3.5 2.60736 123.66919 0 1 -66.7169 -359.98789 Z" />
    <path d="M -66.7169 -404.7725 A 3.5 2.60736 123.66919 0 1 -71.56829 -400.99552 A 3.5 2.60736 123.66919 0 1 -67.68751 -406.82128 A 3.5 2.60736 123.66919 0 1 -66.7169 -404.7725 Z" />
    <path d="M -66.7169 -449.5571 A 3.5 2.60736 123.66919 0 1 -71.56829 -445.78012 A 3.5 2.60736 123.66919 0 1 -67.68751 -451.60588 A 3.5 2.60736 123.66919 0 1 -66.7169 -449.5571 Z" />
    <path d="M -66.7169 -494.3417 A 3.5 2.60736 123.66919 0 1 -71.56829 -490.56472 A 3.5 2.60736 123.66919 0 1 -67.68751 -496.39049 A 3.5 2.60736 123.66919 0 1 -66.7169 -494.3417 Z" />
    <path d="M -66.7169 -583.9109 A 3.5 2.60736 123.66919 0 1 -71.56829 -580.13392 A 3.5 2.60736 123.66919 0 1 -67.68751 -585.95969 A 3.5 2.60736 123.66919 0 1 -66.7169 -583.9109 Z" />
    <path d="M -66.7169 -628.69551 A 3.5 2.60736 123.66919 0 1 -71.56829 -624.91853 A 3.5 2.60736 123.66919 0 1 -67.68751 -630.74429 A 3.5 2.60736 123.66919 0 1 -66.7169 -628.69551 Z" />
    <path d="M -269.60941 -1003.60423 A 3.5 2.60736 123.66919 0 1 -269.75761 -1003.69369 A 3.5 2.60736 123.66919 1 1 -265.87683 -1009.51945 A 3.5 2.60736 123.66919 0 1 -269.60941 -1003.60423 Z" />
    <path d="M -242.19299 -986.96776 A 3.5 2.60736 123.66919 0 1 -238.30476 -992.78854 A 3.5 2.60736 123.66919 0 1 -242.18554 -986.96277 A 3.5 2.60736 123.66919 0 1 -242.19299 -986.96776 Z" />
    <path d="M -216.4481 -967.83588 A 3.5 2.60736 123.66919 0 1 -212.41371 -973.54805 A 3.5 2.60736 123.66919 0 1 -216.29449 -967.72228 A 3.5 2.60736 123.66919 0 1 -216.4481 -967.83588 Z" />
    <path d="M -192.50018 -946.30181 A 3.5 2.60736 123.66919 0 1 -188.32984 -951.89171 A 3.5 2.60736 123.66919 1 1 -192.21062 -946.06595 A 3.5 2.60736 123.66919 0 1 -192.50018 -946.30181 Z" />
    <path d="M -170.46591 -922.47044 A 3.5 2.60736 123.66919 0 1 -166.17046 -927.92505 A 3.5 2.60736 123.66919 1 1 -170.05124 -922.09928 A 3.5 2.60736 123.66919 0 1 -170.46591 -922.47044 Z" />
    <path d="M -150.45261 -896.45788 A 3.5 2.60736 123.66919 0 1 -146.04355 -901.76481 A 3.5 2.60736 123.66919 1 1 -149.92433 -895.93905 A 3.5 2.60736 123.66919 0 1 -150.45261 -896.45788 Z" />
    <path d="M -132.55781 -868.39087 A 3.5 2.60736 123.66919 0 1 -128.04716 -873.53846 A 3.5 2.60736 123.66919 1 1 -131.92794 -867.7127 A 3.5 2.60736 123.66919 0 1 -132.55781 -868.39087 Z" />
    <path d="M -73.78795 -665.11567 A 3.5 2.60736 123.66919 0 1 -68.94364 -669.10922 A 3.5 2.60736 123.66919 1 1 -72.82442 -663.28346 A 3.5 2.60736 123.66919 0 1 -73.78795 -665.11567 Z" />
    <path d="M -77.52898 -702.33664 A 3.5 2.60736 123.66919 0 1 -72.70592 -706.54151 A 3.5 2.60736 123.66919 0 1 -76.58669 -700.71574 A 3.5 2.60736 123.66919 0 1 -77.52898 -702.33664 Z" />
    <path d="M -83.74378 -738.4489 A 3.5 2.60736 123.66919 0 1 -78.956 -742.85878 A 3.5 2.60736 123.66919 0 1 -82.83678 -737.03302 A 3.5 2.60736 123.66919 0 1 -83.74378 -738.4489 Z" />
    <path d="M -92.40207 -773.27651 A 3.5 2.60736 123.66919 0 1 -87.66344 -777.88411 A 3.5 2.60736 123.66919 0 1 -91.54422 -772.05835 A 3.5 2.60736 123.66919 0 1 -92.40207 -773.27651 Z" />
    <path d="M -103.46166 -806.64978 A 3.5 2.60736 123.66919 0 1 -98.78582 -811.44686 A 3.5 2.60736 123.66919 0 1 -102.6666 -805.62109 A 3.5 2.60736 123.66919 0 1 -103.46166 -806.64978 Z" />
    <path d="M -843.53889 -935.52048 L -1004.35955 -887.78281" />
    <path d="M -1030.91677 -879.89962 L -1125.9062 -851.70315" />
    <path d="M -843.53889 -935.52048 A 57.5 42.83524 123.66919 0 1 -876.67757 -876.66952" />
    <path d="M -1167.49196 -301.9437 A 600 446.97641 123.66919 0 1 -1166.25685 -340.09768" />
    <path d="M -1147.4953 -458.48673 A 600 446.97641 123.66919 0 1 -946.3472 -813.97197" />
    <path d="M -928.81365 -831.27217 A 600 446.97641 123.66919 0 1 -876.67757 -876.66952" />
    <path d="M -1167.49196 772.88675 L -1167.49196 196.49478" />
    <path d="M -1167.49196 65.60791 L -1167.49196 17.35638" />
    <path d="M -1167.49196 -113.5305 L -1167.49196 -161.78203" />
    <path d="M -1167.49196 -292.66891 L -1167.49196 -301.9437" />
    <path d="M -1333.835 822.26367 L -1167.49196 772.88675" />
    <path d="M -1333.835 -566.05898 L -1333.835 822.26367" />
    <path d="M -1333.4247 -580.24102 L -1333.835 -566.05898" />
    <path d="M -1333.4247 -580.24102 A 250 186.24017 123.66919 0 1 -1125.9062 -851.70315" />
    <path d="M -1187.03727 17.3503 A 3.5 2.60736 123.66919 0 1 -1182.18587 13.57333 A 3.5 2.60736 123.66919 1 1 -1186.06665 19.39909 A 3.5 2.60736 123.66919 0 1 -1187.03727 17.3503 Z" />
    <path d="M -1187.03727 -161.7881 A 3.5 2.60736 123.66919 0 1 -1182.18587 -165.56508 A 3.5 2.60736 123.66919 1 1 -1186.06665 -159.73932 A 3.5 2.60736 123.66919 0 1 -1187.03727 -161.7881 Z" />
    <path d="M -1136.88548 -535.62645 A 3.5 2.60736 123.66919 0 1 -1141.48521 -533.19926 A 3.5 2.60736 123.66919 0 1 -1137.60443 -539.02503 A 3.5 2.60736 123.66919 0 1 -1136.88548 -535.62645 Z" />
    <path d="M -984.14475 -791.50303 A 3.5 2.60736 123.66919 0 1 -987.87733 -790.5285 A 3.5 2.60736 123.66919 0 1 -983.99656 -796.35427 A 3.5 2.60736 123.66919 0 1 -984.14475 -791.50303 Z" />
    <path d="M -1011.56118 -758.59009 A 3.5 2.60736 123.66919 0 1 -1015.44941 -757.42871 A 3.5 2.60736 123.66919 0 1 -1011.56863 -763.25448 A 3.5 2.60736 123.66919 0 1 -1011.56118 -758.59009 Z" />
    <path d="M -1037.30606 -724.17409 A 3.5 2.60736 123.66919 0 1 -1041.34045 -722.81733 A 3.5 2.60736 123.66919 1 1 -1037.45968 -728.6431 A 3.5 2.60736 123.66919 0 1 -1037.30606 -724.17409 Z" />
    <path d="M -1061.25398 -688.42271 A 3.5 2.60736 123.66919 0 1 -1065.42433 -686.86298 A 3.5 2.60736 123.66919 1 1 -1061.54355 -692.68875 A 3.5 2.60736 123.66919 0 1 -1061.25398 -688.42271 Z" />
    <path d="M -1083.28826 -651.51012 A 3.5 2.60736 123.66919 0 1 -1087.5837 -649.74083 A 3.5 2.60736 123.66919 0 1 -1083.70292 -655.5666 A 3.5 2.60736 123.66919 0 1 -1083.28826 -651.51012 Z" />
    <path d="M -1103.30155 -613.61616 A 3.5 2.60736 123.66919 0 1 -1107.71061 -611.63173 A 3.5 2.60736 123.66919 0 1 -1103.82984 -617.4575 A 3.5 2.60736 123.66919 0 1 -1103.30155 -613.61616 Z" />
    <path d="M -1121.19636 -574.92543 A 3.5 2.60736 123.66919 0 1 -1125.70701 -572.72136 A 3.5 2.60736 123.66919 0 1 -1121.82623 -578.54712 A 3.5 2.60736 123.66919 0 1 -1121.19636 -574.92543 Z" />
    <path d="M -1179.96622 -336.75998 A 3.5 2.60736 123.66919 0 1 -1184.81052 -333.20379 A 3.5 2.60736 123.66919 1 1 -1180.92974 -339.02955 A 3.5 2.60736 123.66919 0 1 -1179.96622 -336.75998 Z" />
    <path d="M -1150.29251 -495.91067 A 3.5 2.60736 123.66919 0 1 -1154.96834 -493.258 A 3.5 2.60736 123.66919 0 1 -1151.08756 -499.08377 A 3.5 2.60736 123.66919 0 1 -1150.29251 -495.91067 Z" />
    <path d="M -1147.03111 -885.7984 L -1111.77575 -862.31338" />
    <path d="M -1132.56863 -856.14126 L -1111.77575 -862.31338" />
    <path d="M -1132.56863 -856.14126 L -1125.9062 -851.70315" />
    <path d="M -850.20132 -939.9586 L -843.53889 -935.52048" />
    <path d="M -850.20132 -939.9586 L -416.87771 -1068.58549" />
    <path d="M -127.84797 -1147.96471 L -134.5104 -1152.40282" />
    <path d="M -155.30328 -1146.23071 L -134.5104 -1152.40282" />
    <path d="M -155.30328 -1146.23071 L -190.55864 -1169.71573" />
    <path d="M -169.76576 -1175.88784 L -190.55864 -1169.71573" />
    <path d="M -169.76576 -1175.88784 L -176.42819 -1180.32596" />
    <path d="M -458.7955 -1096.50863 L -176.42819 -1180.32596" />
    <path d="M -452.13307 -1092.07051 L -458.7955 -1096.50863 A 57.5 42.83524 303.66919 0 0 -458.42297 -1090.20343" />
    <path d="M -452.13307 -1092.07051 L -885.45668 -963.44362" />
    <path d="M -892.11911 -967.88173 L -885.45668 -963.44362" />
    <path d="M -1174.48642 -884.0644 L -1033.48222 -925.9198" />
    <path d="M -989.60885 -938.94308 L -892.11911 -967.88173" />
    <path d="M -1174.48642 -884.0644 L -1167.82399 -879.62629" />
    <path d="M -1147.03111 -885.7984 L -1167.82399 -879.62629" />
    <path d="M -147.90824 -856.24067 A 600 446.97641 303.66919 0 0 -255.99768 -976.31338" />
    <path d="M -92.92464 -136.38104 L -92.92464 -245.47264" />
    <path d="M -92.92464 -274.45266 L -92.92464 -501.72812" />
    <path d="M -92.92464 -546.42658 L -92.92464 -627.33183" />
    <path d="M 4.08885 -1136.5429 A 250 186.24017 303.66919 0 0 -134.5104 -1152.40282" />
    <path d="M -1340.49743 817.82556 L -1333.835 822.26367" />
    <path d="M -1340.49743 -570.4971 L -1340.49743 817.82556" />
    <path d="M -1340.49743 -570.4971 L -1333.835 -566.05898" />
    <path d="M -1340.08713 -584.67913 L -1340.49743 -570.4971" />
    <path d="M -1340.08713 -584.67913 L -1333.4247 -580.24102" />
    <path d="M -1132.56863 -856.14126 A 250 186.24017 303.66919 0 0 -1340.08713 -584.67913" />
    <path d="M -1147.03111 -875.0501 L -1147.03111 -885.7984" />
    <path d="M -1147.03111 -875.0501 L -1122.93727 -859.00022" />
    <path d="M -843.70841 -931.13764 L -415.82466 -1058.14977" />
    <path d="M -169.76576 -1175.88784 A 250 186.24017 123.66919 0 1 -148.06867 -1181.10592" />
    <path d="M -23.45836 -1154.504 A 250 186.24017 123.66919 0 1 -14.43807 -1146.93549" />
    <path d="M -418.99439 -1052.89318 A 57.5 42.83524 123.66919 0 1 -428.06592 -1054.5161" />
    <path d="M -128.18 -650.81685 A 600 446.97641 303.66919 0 0 -152.75866 -810.10243" />
    <path d="M -168.3627 -850.16901 A 600 446.97641 303.66919 0 0 -274.1404 -987.28272" />
    <path d="M -414.01076 -1051.87258 A 600 446.97641 303.66919 0 0 -418.99439 -1052.89318" />
    <path d="M -128.18 -159.86607 L -128.18 -268.95766" />
    <path d="M -128.18 -297.93768 L -128.18 -491.26299" />
    <path d="M -128.18 -535.96145 L -128.18 -650.81685 L -134.84243 -655.25497 A 600 446.97641 303.66919 0 0 -157.52 -808.68908" />
    <path d="M -108.63469 -253.55723 A 3.5 2.60736 123.66919 0 1 -113.48608 -249.78025 A 3.5 2.60736 123.66919 0 1 -109.6053 -255.60601 A 3.5 2.60736 123.66919 0 1 -108.63469 -253.55723 Z" />
    <path d="M -108.63469 -298.34183 A 3.5 2.60736 123.66919 0 1 -113.48608 -294.56485 A 3.5 2.60736 123.66919 0 1 -109.6053 -300.39061 A 3.5 2.60736 123.66919 0 1 -108.63469 -298.34183 Z" />
    <path d="M -108.63469 -343.12643 A 3.5 2.60736 123.66919 0 1 -113.48608 -339.34945 A 3.5 2.60736 123.66919 0 1 -109.6053 -345.17522 A 3.5 2.60736 123.66919 0 1 -108.63469 -343.12643 Z" />
    <path d="M -108.63469 -387.91103 A 3.5 2.60736 123.66919 0 1 -113.48608 -384.13405 A 3.5 2.60736 123.66919 0 1 -109.6053 -389.95982 A 3.5 2.60736 123.66919 0 1 -108.63469 -387.91103 Z" />
    <path d="M -108.63469 -432.69563 A 3.5 2.60736 123.66919 0 1 -113.48608 -428.91865 A 3.5 2.60736 123.66919 0 1 -109.6053 -434.74442 A 3.5 2.60736 123.66919 0 1 -108.63469 -432.69563 Z" />
    <path d="M -108.63469 -477.48024 A 3.5 2.60736 123.66919 0 1 -113.48608 -473.70326 A 3.5 2.60736 123.66919 0 1 -109.6053 -479.52902 A 3.5 2.60736 123.66919 0 1 -108.63469 -477.48024 Z" />
    <path d="M -108.63469 -567.04944 A 3.5 2.60736 123.66919 0 1 -113.48608 -563.27246 A 3.5 2.60736 123.66919 1 1 -109.6053 -569.09823 A 3.5 2.60736 123.66919 0 1 -108.63469 -567.04944 Z" />
    <path d="M -108.63469 -611.83404 A 3.5 2.60736 123.66919 0 1 -113.48608 -608.05706 A 3.5 2.60736 123.66919 0 1 -109.6053 -613.88283 A 3.5 2.60736 123.66919 0 1 -108.63469 -611.83404 Z" />
    <path d="M -108.63469 -656.61864 A 3.5 2.60736 123.66919 0 1 -113.48608 -652.84166 A 3.5 2.60736 123.66919 0 1 -109.6053 -658.66743 A 3.5 2.60736 123.66919 0 1 -108.63469 -656.61864 Z" />
    <path d="M -174.4756 -896.31401 A 3.5 2.60736 123.66919 0 1 -174.80331 -897.98485" />
    <path d="M -172.82496 -895.30136 A 3.5 2.60736 123.66919 0 1 -173.84573 -895.63583 A 3.5 2.60736 123.66919 0 1 -174.4756 -896.31401" />
    <path d="M -125.66157 -766.37204 A 3.5 2.60736 123.66919 0 1 -120.87379 -770.78192 A 3.5 2.60736 123.66919 0 1 -124.75457 -764.95615 A 3.5 2.60736 123.66919 0 1 -125.66157 -766.37204 Z" />
    <path d="M -115.70574 -693.0388 A 3.5 2.60736 123.66919 0 1 -110.86144 -697.03236 A 3.5 2.60736 123.66919 1 1 -114.74221 -691.20659 A 3.5 2.60736 123.66919 0 1 -115.70574 -693.0388 Z" />
    <path d="M -119.44677 -730.25978 A 3.5 2.60736 123.66919 0 1 -114.62371 -734.46465 A 3.5 2.60736 123.66919 0 1 -118.50448 -728.63888 A 3.5 2.60736 123.66919 0 1 -119.44677 -730.25978 Z" />
    <path d="M -134.31986 -801.19964 A 3.5 2.60736 123.66919 0 1 -129.58123 -805.80725 A 3.5 2.60736 123.66919 0 1 -133.46201 -799.98148 A 3.5 2.60736 123.66919 0 1 -134.31986 -801.19964 Z" />
    <path d="M -158.78647 -866.32928 A 3.5 2.60736 123.66919 0 1 -156.7099 -871.29223" />
    <path d="M -154.0195 -866.85699 A 3.5 2.60736 123.66919 0 1 -158.06753 -865.48088 A 3.5 2.60736 123.66919 0 1 -158.78647 -866.32928" />
    <path d="M -175.26618 -1180.66739 A 250 186.24017 303.66919 0 0 -176.42819 -1180.32596" />
    <path d="M -172.52338 -848.93396 A 600 446.97641 303.66919 0 0 -277.65312 -989.22931" />
    <path d="M -134.84243 -164.30418 L -134.84243 -273.39578" />
    <path d="M -134.84243 -302.37579 L -134.84243 -489.28533" />
    <path d="M -134.84243 -533.98379 L -134.84243 -655.25497" />
    <path d="M -1382.41522 -598.42024 L -1382.41522 789.90242 L -1375.75279 794.34054 L -1340.49743 783.87541" />
    <path d="M -1382.00492 -612.60227 L -1382.41522 -598.42024 L -1375.75279 -593.98212 L -1375.75279 794.34054" />
    <path d="M -1174.48642 -884.0644 A 250 186.24017 303.66919 0 0 -1382.00492 -612.60227 L -1375.34249 -608.16416 L -1375.75279 -593.98212" />
    <path d="M -1375.34249 -608.16416 A 250 186.24017 123.66919 0 1 -1167.82399 -879.62629" />
    <path d="M -134.84243 -447.88812 L -167.95237 -469.944" />
    <path d="M -230.91046 -511.88293 L -279.38559 -544.17417" />
    <path d="M -404.14286 -496.39317 L -366.82926 -471.53707" />
    <path d="M -242.35943 -388.62268 L -134.84243 -317.00125" />
    <path d="M -404.14286 -496.39317 L -404.14286 -507.14148 L -279.38559 -544.17417" />
    <path d="M -404.14286 -507.14148 L -355.66774 -474.85023" />
    <path d="M -235.55335 -394.83718 L -134.84243 -327.74955" />
    <path d="M -134.84243 -627.02653 L -279.38559 -723.31258" />
    <path d="M -404.14286 -675.53158 L -174.14147 -522.31834" />
    <path d="M -404.14286 -675.53158 L -404.14286 -686.27989 L -279.38559 -723.31258" />
    <path d="M -404.14286 -686.27989 L -162.97995 -525.6315" />
    <path d="M -190.87085 -843.48774 L -279.38559 -902.45099" />
    <path d="M -404.14286 -854.66999 L -326.78965 -803.14188" />
    <path d="M -280.37277 -772.22172 L -135.20097 -675.5169" />
    <path d="M -404.14286 -854.66999 L -404.14286 -865.41829 L -279.38559 -902.45099" />
    <path d="M -404.14286 -865.41829 L -315.62813 -806.45504" />
    <path d="M -269.21125 -775.53488 L -135.70602 -686.60164" />
    <path d="M -404.14286 -1033.8084 L -196.26974 -895.33569" />
    <path d="M -404.14286 -1033.8084 L -404.14286 -1037.37191" />
    <path d="M -373.71949 -1024.29046 L -208.28561 -914.08825" />
    <path d="M -1651.71565 -136.81453 L -1526.95838 -173.84723" />
    <path d="M -1651.71565 -136.81453 L -1382.41522 42.57739" />
    <path d="M -1382.41522 -77.56118 L -1526.95838 -173.84723" />
    <path d="M -1651.71565 -126.06623 L -1651.71565 -136.81453" />
    <path d="M -1651.71565 -126.06623 L -1382.41522 53.3257" />
    <path d="M -1651.71565 -315.95294 L -1526.95838 -352.98563" />
    <path d="M -1651.71565 -315.95294 L -1382.41522 -136.56101" />
    <path d="M -1382.41522 -256.69958 L -1526.95838 -352.98563" />
    <path d="M -1651.71565 -305.20464 L -1651.71565 -315.95294" />
    <path d="M -1651.71565 -305.20464 L -1382.41522 -125.81271" />
    <path d="M -1651.71565 -495.09135 L -1526.95838 -532.12404" />
    <path d="M -1651.71565 -495.09135 L -1382.41522 -315.69942" />
    <path d="M -1382.41522 -435.83799 L -1526.95838 -532.12404" />
    <path d="M -1651.71565 -484.34304 L -1651.71565 -495.09135" />
    <path d="M -1651.71565 -484.34304 L -1382.41522 -304.95112" />
    <path d="M -1651.71565 -674.22975 L -1526.95838 -711.26245" />
    <path d="M -1651.71565 -674.22975 L -1382.41522 -494.83783" />
    <path d="M -1381.88097 -614.62051 L -1526.95838 -711.26245" />
    <path d="M -1651.71565 -663.48145 L -1651.71565 -674.22975" />
    <path d="M -1651.71565 -663.48145 L -1382.41522 -484.08952" />
    <path d="M -466.5215 -1373.56886 L -748.88881 -1289.75153 L -755.55124 -1294.18965 A 57.5 42.83524 303.66919 0 0 -754.4982 -1283.75392 A 57.5 42.83524 303.66919 0 0 -739.60545 -1260.531 L -732.94302 -1256.09289 A 57.5 42.83524 303.66919 0 0 -715.75013 -1250.5742" />
    <path d="M -748.88881 -1289.75153 A 57.5 42.83524 303.66919 0 0 -732.94302 -1256.09289" />
    <path d="M -424.93574 -848.49787 A 600 446.97641 303.66919 0 0 -463.41909 -1044.02194" />
    <path d="M -483.02529 -1082.90053 A 600 446.97641 303.66919 0 0 -491.62603 -1097.09764" />
    <path d="M -504.25664 -1115.67152 A 600 446.97641 303.66919 0 0 -591.32667 -1199.71851 A 600 446.97641 303.66919 0 0 -715.75013 -1250.5742" />
    <path d="M -424.93574 -454.28886 L -424.93574 -466.63868" />
    <path d="M -424.93574 -495.6187 L -424.93574 -729.30994" />
    <path d="M -424.93574 -774.0084 L -424.93574 -848.49787 L -431.59817 -852.93599 A 600 446.97641 303.66919 0 0 -467.64071 -1042.7688" />
    <path d="M -258.59271 -1211.36701 L -258.59271 -1188.4397" />
    <path d="M -258.59271 -1166.27077 L -258.59271 -1155.93641" />
    <path d="M -258.59271 -936.85154 L -258.59271 -888.60001" />
    <path d="M -258.59271 -757.71313 L -258.59271 -709.4616" />
    <path d="M -258.59271 -578.57473 L -258.59271 -530.32319" />
    <path d="M -258.59271 -355.83085 L -258.59271 -246.73925" />
    <path d="M -259.00301 -1225.30546 L -258.59271 -1211.36701" />
    <path d="M -466.5215 -1373.56886 A 250 186.24017 123.66919 0 1 -327.92226 -1357.70894 A 250 186.24017 123.66919 0 1 -259.00301 -1225.30546" />
    <path d="M -405.39044 -496.02285 A 3.5 2.60736 123.66919 0 1 -410.24183 -492.24587 A 3.5 2.60736 123.66919 0 1 -406.36105 -498.07163 A 3.5 2.60736 123.66919 0 1 -405.39044 -496.02285 Z" />
    <path d="M -405.39044 -540.80745 A 3.5 2.60736 123.66919 0 1 -410.24183 -537.03047 A 3.5 2.60736 123.66919 0 1 -406.36105 -542.85624 A 3.5 2.60736 123.66919 0 1 -405.39044 -540.80745 Z" />
    <path d="M -405.39044 -585.59205 A 3.5 2.60736 123.66919 0 1 -410.24183 -581.81507 A 3.5 2.60736 123.66919 0 1 -406.36105 -587.64084 A 3.5 2.60736 123.66919 0 1 -405.39044 -585.59205 Z" />
    <path d="M -405.39044 -630.37665 A 3.5 2.60736 123.66919 0 1 -410.24183 -626.59967 A 3.5 2.60736 123.66919 0 1 -406.36105 -632.42544 A 3.5 2.60736 123.66919 0 1 -405.39044 -630.37665 Z" />
    <path d="M -405.39044 -675.16125 A 3.5 2.60736 123.66919 0 1 -410.24183 -671.38427 A 3.5 2.60736 123.66919 0 1 -406.36105 -677.21004 A 3.5 2.60736 123.66919 0 1 -405.39044 -675.16125 Z" />
    <path d="M -405.39044 -719.94586 A 3.5 2.60736 123.66919 0 1 -410.24183 -716.16888 A 3.5 2.60736 123.66919 0 1 -406.36105 -721.99464 A 3.5 2.60736 123.66919 0 1 -405.39044 -719.94586 Z" />
    <path d="M -405.39044 -809.51506 A 3.5 2.60736 123.66919 0 1 -410.24183 -805.73808 A 3.5 2.60736 123.66919 0 1 -406.36105 -811.56385 A 3.5 2.60736 123.66919 0 1 -405.39044 -809.51506 Z" />
    <path d="M -405.39044 -854.29966 A 3.5 2.60736 123.66919 0 1 -410.24183 -850.52268 A 3.5 2.60736 123.66919 0 1 -406.36105 -856.34845 A 3.5 2.60736 123.66919 0 1 -405.39044 -854.29966 Z" />
    <path d="M -608.28295 -1229.20838 A 3.5 2.60736 123.66919 0 1 -608.43115 -1229.29784 A 3.5 2.60736 123.66919 1 1 -604.55037 -1235.12361 A 3.5 2.60736 123.66919 0 1 -608.28295 -1229.20838 Z" />
    <path d="M -580.86653 -1212.57192 A 3.5 2.60736 123.66919 0 1 -576.97829 -1218.3927 A 3.5 2.60736 123.66919 0 1 -580.85907 -1212.56693 A 3.5 2.60736 123.66919 0 1 -580.86653 -1212.57192 Z" />
    <path d="M -555.12164 -1193.44004 A 3.5 2.60736 123.66919 0 1 -551.08725 -1199.1522 A 3.5 2.60736 123.66919 0 1 -554.96803 -1193.32644 A 3.5 2.60736 123.66919 0 1 -555.12164 -1193.44004 Z" />
    <path d="M -531.17372 -1171.90596 A 3.5 2.60736 123.66919 0 1 -527.00337 -1177.49587 A 3.5 2.60736 123.66919 1 1 -530.88415 -1171.6701 A 3.5 2.60736 123.66919 0 1 -531.17372 -1171.90596 Z" />
    <path d="M -509.13944 -1148.07459 A 3.5 2.60736 123.66919 0 1 -504.844 -1153.5292 A 3.5 2.60736 123.66919 1 1 -508.72478 -1147.70344 A 3.5 2.60736 123.66919 0 1 -509.13944 -1148.07459 Z" />
    <path d="M -489.12615 -1122.06204 A 3.5 2.60736 123.66919 0 1 -484.71709 -1127.36897 A 3.5 2.60736 123.66919 1 1 -488.59787 -1121.5432 A 3.5 2.60736 123.66919 0 1 -489.12615 -1122.06204 Z" />
    <path d="M -471.23135 -1093.99503 A 3.5 2.60736 123.66919 0 1 -466.7207 -1099.14262 A 3.5 2.60736 123.66919 1 1 -470.60147 -1093.31685 A 3.5 2.60736 123.66919 0 1 -471.23135 -1093.99503 Z" />
    <path d="M -412.46148 -890.71982 A 3.5 2.60736 123.66919 0 1 -407.61718 -894.71338 A 3.5 2.60736 123.66919 1 1 -411.49796 -888.88761 A 3.5 2.60736 123.66919 0 1 -412.46148 -890.71982 Z" />
    <path d="M -416.20252 -927.9408 A 3.5 2.60736 123.66919 0 1 -411.37945 -932.14566 A 3.5 2.60736 123.66919 0 1 -415.26023 -926.3199 A 3.5 2.60736 123.66919 0 1 -416.20252 -927.9408 Z" />
    <path d="M -422.41731 -964.05306 A 3.5 2.60736 123.66919 0 1 -417.62953 -968.46294 A 3.5 2.60736 123.66919 0 1 -421.51031 -962.63717 A 3.5 2.60736 123.66919 0 1 -422.41731 -964.05306 Z" />
    <path d="M -431.0756 -998.88066 A 3.5 2.60736 123.66919 0 1 -426.33698 -1003.48827 A 3.5 2.60736 123.66919 0 1 -430.21776 -997.6625 A 3.5 2.60736 123.66919 0 1 -431.0756 -998.88066 Z" />
    <path d="M -442.1352 -1032.25394 A 3.5 2.60736 123.66919 0 1 -437.45936 -1037.05102 A 3.5 2.60736 123.66919 0 1 -441.34014 -1031.22525 A 3.5 2.60736 123.66919 0 1 -442.1352 -1032.25394 Z" />
    <path d="M -1182.21243 -1161.12464 L -1464.57974 -1077.30731" />
    <path d="M -1182.21243 -1161.12464 A 57.5 42.83524 123.66919 0 1 -1215.35111 -1102.27367" />
    <path d="M -1506.1655 -527.54785 A 600 446.97641 123.66919 0 1 -1504.93038 -565.70184" />
    <path d="M -1486.16884 -684.09088 A 600 446.97641 123.66919 0 1 -1215.35111 -1102.27367" />
    <path d="M -1506.1655 547.28259 L -1506.1655 -29.10937" />
    <path d="M -1506.1655 -159.99625 L -1506.1655 -208.24778" />
    <path d="M -1506.1655 -339.13466 L -1506.1655 -387.38619" />
    <path d="M -1506.1655 -518.27306 L -1506.1655 -527.54785" />
    <path d="M -1672.50853 596.65952 L -1506.1655 547.28259" />
    <path d="M -1672.50853 -791.66314 L -1672.50853 596.65952" />
    <path d="M -1672.09823 -805.84517 L -1672.50853 -791.66314" />
    <path d="M -1672.09823 -805.84517 A 250 186.24017 123.66919 0 1 -1464.57974 -1077.30731" />
    <path d="M -1525.7108 -208.25385 A 3.5 2.60736 123.66919 0 1 -1520.85941 -212.03083 A 3.5 2.60736 123.66919 1 1 -1524.74019 -206.20506 A 3.5 2.60736 123.66919 0 1 -1525.7108 -208.25385 Z" />
    <path d="M -1525.7108 -387.39226 A 3.5 2.60736 123.66919 0 1 -1520.85941 -391.16924 A 3.5 2.60736 123.66919 1 1 -1524.74019 -385.34347 A 3.5 2.60736 123.66919 0 1 -1525.7108 -387.39226 Z" />
    <path d="M -1475.55902 -761.23061 A 3.5 2.60736 123.66919 0 1 -1480.15874 -758.80342 A 3.5 2.60736 123.66919 0 1 -1476.27797 -764.62919 A 3.5 2.60736 123.66919 0 1 -1475.55902 -761.23061 Z" />
    <path d="M -1322.81829 -1017.10718 A 3.5 2.60736 123.66919 0 1 -1326.55087 -1016.13266 A 3.5 2.60736 123.66919 0 1 -1322.67009 -1021.95843 A 3.5 2.60736 123.66919 0 1 -1322.81829 -1017.10718 Z" />
    <path d="M -1350.23472 -984.19424 A 3.5 2.60736 123.66919 0 1 -1354.12295 -983.03287 A 3.5 2.60736 123.66919 0 1 -1350.24217 -988.85863 A 3.5 2.60736 123.66919 0 1 -1350.23472 -984.19424 Z" />
    <path d="M -1375.9796 -949.77825 A 3.5 2.60736 123.66919 0 1 -1380.01399 -948.42149 A 3.5 2.60736 123.66919 1 1 -1376.13321 -954.24725 A 3.5 2.60736 123.66919 0 1 -1375.9796 -949.77825 Z" />
    <path d="M -1399.92752 -914.02687 A 3.5 2.60736 123.66919 0 1 -1404.09787 -912.46714 A 3.5 2.60736 123.66919 1 1 -1400.21709 -918.2929 A 3.5 2.60736 123.66919 0 1 -1399.92752 -914.02687 Z" />
    <path d="M -1421.9618 -877.11428 A 3.5 2.60736 123.66919 0 1 -1426.25724 -875.34499 A 3.5 2.60736 123.66919 0 1 -1422.37646 -881.17075 A 3.5 2.60736 123.66919 0 1 -1421.9618 -877.11428 Z" />
    <path d="M -1441.97509 -839.22031 A 3.5 2.60736 123.66919 0 1 -1446.38415 -837.23589 A 3.5 2.60736 123.66919 0 1 -1442.50337 -843.06166 A 3.5 2.60736 123.66919 0 1 -1441.97509 -839.22031 Z" />
    <path d="M -1459.86989 -800.52959 A 3.5 2.60736 123.66919 0 1 -1464.38054 -798.32551 A 3.5 2.60736 123.66919 0 1 -1460.49977 -804.15128 A 3.5 2.60736 123.66919 0 1 -1459.86989 -800.52959 Z" />
    <path d="M -1518.63976 -562.36413 A 3.5 2.60736 123.66919 0 1 -1523.48406 -558.80794 A 3.5 2.60736 123.66919 1 1 -1519.60328 -564.63371 A 3.5 2.60736 123.66919 0 1 -1518.63976 -562.36413 Z" />
    <path d="M -1488.96604 -721.51482 A 3.5 2.60736 123.66919 0 1 -1493.64188 -718.86216 A 3.5 2.60736 123.66919 0 1 -1489.7611 -724.68793 A 3.5 2.60736 123.66919 0 1 -1488.96604 -721.51482 Z" />
    <path d="M -1485.70465 -1111.40256 L -1450.44929 -1087.91754" />
    <path d="M -1471.24217 -1081.74542 L -1450.44929 -1087.91754" />
    <path d="M -1471.24217 -1081.74542 L -1464.57974 -1077.30731" />
    <path d="M -1188.87486 -1165.56275 L -1182.21243 -1161.12464" />
    <path d="M -1188.87486 -1165.56275 L -755.55124 -1294.18965" />
    <path d="M -466.5215 -1373.56886 L -473.18393 -1378.00698" />
    <path d="M -493.97681 -1371.83486 L -473.18393 -1378.00698" />
    <path d="M -493.97681 -1371.83486 L -529.23217 -1395.31988" />
    <path d="M -508.43929 -1401.492 L -529.23217 -1395.31988" />
    <path d="M -508.43929 -1401.492 L -515.10172 -1405.93011" />
    <path d="M -797.46903 -1322.11278 L -515.10172 -1405.93011" />
    <path d="M -790.8066 -1317.67467 L -797.46903 -1322.11278 A 57.5 42.83524 303.66919 0 0 -797.09651 -1315.80758" />
    <path d="M -790.8066 -1317.67467 L -1224.13022 -1189.04778" />
    <path d="M -1230.79265 -1193.48589 L -1224.13022 -1189.04778" />
    <path d="M -1513.15996 -1109.66856 L -1230.79265 -1193.48589" />
    <path d="M -1513.15996 -1109.66856 L -1506.49753 -1105.23044" />
    <path d="M -1485.70465 -1111.40256 L -1506.49753 -1105.23044" />
    <path d="M -486.58178 -1081.84483 A 600 446.97641 303.66919 0 0 -494.90846 -1096.12329" />
    <path d="M -507.14647 -1114.81371 A 600 446.97641 303.66919 0 0 -594.67122 -1201.91754" />
    <path d="M -431.59817 -452.3112 L -431.59817 -471.0768" />
    <path d="M -431.59817 -500.05681 L -431.59817 -727.33228" />
    <path d="M -431.59817 -772.03073 L -431.59817 -852.93599" />
    <path d="M -334.58469 -1362.14706 A 250 186.24017 303.66919 0 0 -473.18393 -1378.00698" />
    <path d="M -1679.17096 592.2214 L -1672.50853 596.65952" />
    <path d="M -1679.17096 -796.10125 L -1679.17096 592.2214" />
    <path d="M -1679.17096 -796.10125 L -1672.50853 -791.66314" />
    <path d="M -1678.76066 -810.28329 L -1679.17096 -796.10125" />
    <path d="M -1678.76066 -810.28329 L -1672.09823 -805.84517" />
    <path d="M -1471.24217 -1081.74542 A 250 186.24017 303.66919 0 0 -1678.76066 -810.28329" />
    <path d="M -1485.70465 -1100.65425 L -1485.70465 -1111.40256" />
    <path d="M -1485.70465 -1100.65425 L -1461.61081 -1084.60437" />
    <path d="M -1182.38194 -1156.74179 L -754.4982 -1283.75392" />
    <path d="M -508.43929 -1401.492 A 250 186.24017 123.66919 0 1 -369.84005 -1385.63208 A 250 186.24017 123.66919 0 1 -353.11161 -1372.53964" />
    <path d="M -466.85353 -441.84607 L -466.85353 -494.56182" />
    <path d="M -466.85353 -523.54183 L -466.85353 -716.86715" />
    <path d="M -466.85353 -761.5656 L -466.85353 -876.42101 L -473.51597 -880.85912 A 600 446.97641 303.66919 0 0 -496.19354 -1034.29324" />
    <path d="M -466.85353 -876.42101 A 600 446.97641 303.66919 0 0 -491.4322 -1035.70658" />
    <path d="M -507.03624 -1075.77317 A 600 446.97641 303.66919 0 0 -514.00304 -1090.45529" />
    <path d="M -524.30906 -1109.7192 A 600 446.97641 303.66919 0 0 -612.81394 -1212.88688" />
    <path d="M -752.6843 -1277.47674 A 600 446.97641 303.66919 0 0 -757.66792 -1278.49734 A 57.5 42.83524 123.66919 0 1 -766.73946 -1280.12025" />
    <path d="M -447.30823 -479.16138 A 3.5 2.60736 123.66919 0 1 -452.15962 -475.3844 A 3.5 2.60736 123.66919 0 1 -448.27884 -481.21017 A 3.5 2.60736 123.66919 0 1 -447.30823 -479.16138 Z" />
    <path d="M -447.30823 -523.94598 A 3.5 2.60736 123.66919 0 1 -452.15962 -520.169 A 3.5 2.60736 123.66919 0 1 -448.27884 -525.99477 A 3.5 2.60736 123.66919 0 1 -447.30823 -523.94598 Z" />
    <path d="M -447.30823 -568.73059 A 3.5 2.60736 123.66919 0 1 -452.15962 -564.95361 A 3.5 2.60736 123.66919 0 1 -448.27884 -570.77937 A 3.5 2.60736 123.66919 0 1 -447.30823 -568.73059 Z" />
    <path d="M -447.30823 -613.51519 A 3.5 2.60736 123.66919 0 1 -452.15962 -609.73821 A 3.5 2.60736 123.66919 0 1 -448.27884 -615.56397 A 3.5 2.60736 123.66919 0 1 -447.30823 -613.51519 Z" />
    <path d="M -447.30823 -658.29979 A 3.5 2.60736 123.66919 0 1 -452.15962 -654.52281 A 3.5 2.60736 123.66919 0 1 -448.27884 -660.34858 A 3.5 2.60736 123.66919 0 1 -447.30823 -658.29979 Z" />
    <path d="M -447.30823 -703.08439 A 3.5 2.60736 123.66919 0 1 -452.15962 -699.30741 A 3.5 2.60736 123.66919 0 1 -448.27884 -705.13318 A 3.5 2.60736 123.66919 0 1 -447.30823 -703.08439 Z" />
    <path d="M -447.30823 -792.65359 A 3.5 2.60736 123.66919 0 1 -452.15962 -788.87662 A 3.5 2.60736 123.66919 1 1 -448.27884 -794.70238 A 3.5 2.60736 123.66919 0 1 -447.30823 -792.65359 Z" />
    <path d="M -447.30823 -837.4382 A 3.5 2.60736 123.66919 0 1 -452.15962 -833.66122 A 3.5 2.60736 123.66919 0 1 -448.27884 -839.48698 A 3.5 2.60736 123.66919 0 1 -447.30823 -837.4382 Z" />
    <path d="M -447.30823 -882.2228 A 3.5 2.60736 123.66919 0 1 -452.15962 -878.44582 A 3.5 2.60736 123.66919 0 1 -448.27884 -884.27159 A 3.5 2.60736 123.66919 0 1 -447.30823 -882.2228 Z" />
    <path d="M -454.37927 -918.64296 A 3.5 2.60736 123.66919 0 1 -449.53497 -922.63652 A 3.5 2.60736 123.66919 1 1 -453.41575 -916.81075 A 3.5 2.60736 123.66919 0 1 -454.37927 -918.64296 Z" />
    <path d="M -464.3351 -991.97619 A 3.5 2.60736 123.66919 0 1 -459.54732 -996.38608 A 3.5 2.60736 123.66919 0 1 -463.4281 -990.56031 A 3.5 2.60736 123.66919 0 1 -464.3351 -991.97619 Z" />
    <path d="M -458.12031 -955.86393 A 3.5 2.60736 123.66919 0 1 -453.29724 -960.0688 A 3.5 2.60736 123.66919 0 1 -457.17802 -954.24303 A 3.5 2.60736 123.66919 0 1 -458.12031 -955.86393 Z" />
    <path d="M -497.46001 -1091.93344 A 3.5 2.60736 123.66919 0 1 -496.91274 -1095.52834" />
    <path d="M -492.69304 -1092.46115 A 3.5 2.60736 123.66919 0 1 -496.74107 -1091.08503 A 3.5 2.60736 123.66919 0 1 -497.46001 -1091.93344" />
    <path d="M -472.99339 -1026.8038 A 3.5 2.60736 123.66919 0 1 -468.25477 -1031.41141 A 3.5 2.60736 123.66919 0 1 -472.13555 -1025.58564 A 3.5 2.60736 123.66919 0 1 -472.99339 -1026.8038 Z" />
    <path d="M -513.14914 -1121.91816 A 3.5 2.60736 123.66919 0 1 -513.47684 -1123.58901" />
    <path d="M -511.4985 -1120.90552 A 3.5 2.60736 123.66919 0 1 -512.51927 -1121.23999 A 3.5 2.60736 123.66919 0 1 -513.14914 -1121.91816" />
    <path d="M -376.50248 -1390.07019 A 250 186.24017 303.66919 0 0 -515.10172 -1405.93011" />
    <path d="M -511.19691 -1074.53812 A 600 446.97641 303.66919 0 0 -517.92149 -1089.29215" />
    <path d="M -527.88606 -1108.65741 A 600 446.97641 303.66919 0 0 -616.32666 -1214.83347" />
    <path d="M -473.51597 -439.86841 L -473.51597 -498.99993" />
    <path d="M -473.51597 -527.97995 L -473.51597 -714.88949" />
    <path d="M -473.51597 -759.58794 L -473.51597 -880.85912" />
    <path d="M -1721.08876 -824.02439 L -1721.08876 564.29826 L -1714.42632 568.73638 L -1679.17096 558.27125" />
    <path d="M -1720.67846 -838.20643 L -1721.08876 -824.02439 L -1714.42632 -819.58628 L -1714.42632 568.73638" />
    <path d="M -1513.15996 -1109.66856 A 250 186.24017 303.66919 0 0 -1720.67846 -838.20643 L -1714.01602 -833.76831 L -1714.42632 -819.58628" />
    <path d="M -1714.01602 -833.76831 A 250 186.24017 123.66919 0 1 -1506.49753 -1105.23044" />
    <path d="M -487.66063 677.92269 L -487.66063 621.04625 L 40.47852 464.27451 L -488.94141 111.60646" />
    <path d="M -1506.1655 -0.54464 L -1382.41522 81.89043" />
    <path d="M -1167.49196 225.05952 L -1043.74168 307.49459" />
    <path d="M -828.81842 450.66367 L -705.06815 533.09874" />
    <path d="M -490.14489 676.26783 L -487.66063 677.92269 L 40.47852 521.15095 L 40.47852 464.27451" />
    <path d="M -490.14489 619.39138 L -487.66063 621.04625" />
    <path d="M -705.06815 -32.36431 L -827.61494 -113.9977" />
    <path d="M -1043.74168 -232.39234 L -1066.75206 -225.56198" />
    <path d="M -1388.69622 -129.99674 L -1438.80278 -115.12321" />
    <path d="M 43.80538 520.16342 L 43.80538 463.28697 L 571.94453 306.51523 L -329.21298 -293.78227" />
    <path d="M 40.47852 517.94726 L 43.80538 520.16342 L 571.94453 363.39168 L 571.94453 306.51523" />
    <path d="M -488.73913 108.53751 L 43.80538 463.28697" />
    <path d="M -613.31388 -360.15964 L -785.15082 -309.15191" />
    <path d="M -1003.02943 -851.73029 L -40.53034 -210.57068 L -40.53034 -219.5276 A 200 88.93498 180 0 0 226.18932 -191.98151 L 236.8532 -194.93595 L 918.19428 -397.18384 L 938.16701 -403.95567 A 200 88.93498 180 0 0 1007.15378 -471.15242 L 1007.15378 -462.19549" />
    <path d="M -1003.02943 -860.68722 L -40.53034 -219.5276" />
    <path d="M -1036.68639 -901.10722 A 200 88.93498 180 0 0 -1003.02943 -851.73029 L -1003.02943 -860.68722" />
    <path d="M -967.69962 -977.26088 A 200 88.93498 180 0 0 -1036.68639 -910.06414 L -1036.68639 -901.10722" />
    <path d="M -1036.68639 -910.06414 A 200 88.93498 180 0 0 -1003.02943 -860.68722" />
    <path d="M 226.18932 -183.02459 L 226.18932 -191.98151" />
    <path d="M -40.53034 -210.57068 A 200 88.93498 180 0 0 226.18932 -183.02459 L 236.8532 -185.97903 L 236.8532 -194.93595" />
    <path d="M 236.8532 -185.97903 L 918.19428 -388.22692 L 918.19428 -397.18384" />
    <path d="M 918.19428 -388.22692 L 938.16701 -394.99875 L 938.16701 -403.95567" />
    <path d="M 938.16701 -394.99875 A 200 88.93498 180 0 0 1007.15378 -462.19549" />
    <path d="M 981.86374 -466.67396 A 175 77.81811 180 0 0 952.70394 -505.40031 L 952.70394 -514.35723 L -9.79515 -1155.51684 A 175 77.81811 180 0 0 -243.17485 -1179.61967 L -252.50575 -1177.03453 L -933.84683 -974.78664 L -951.32297 -968.86129 A 175 77.81811 180 0 0 -1011.68639 -910.06414 A 175 77.81811 180 0 0 -982.23655 -866.85933 L -19.73747 -225.69972 A 175 77.81811 180 0 0 213.64224 -201.59688 L 222.97313 -204.18202 L 904.31422 -406.42991 L 921.79035 -412.35527 A 175 77.81811 180 0 0 982.15378 -471.15242 A 175 77.81811 180 0 0 952.70394 -514.35723" />
    <path d="M 952.70394 -505.40031 L -9.79515 -1146.55992 L -9.79515 -1155.51684" />
    <path d="M -9.79515 -1146.55992 A 175 77.81811 180 0 0 -243.17485 -1170.66275 L -243.17485 -1179.61967" />
    <path d="M -243.17485 -1170.66275 L -252.50575 -1168.07761 L -252.50575 -1177.03453" />
    <path d="M -252.50575 -1168.07761 L -933.84683 -965.82972 L -933.84683 -974.78664" />
    <path d="M -933.84683 -965.82972 L -951.32297 -959.90437 L -951.32297 -968.86129" />
    <path d="M -951.32297 -959.90437 A 175 77.81811 180 0 0 -1011.39635 -905.58568" />
    <path d="M -947.7269 -984.03272 L -967.69962 -977.26088" />
    <path d="M -266.38581 -1186.28061 L -947.7269 -984.03272" />
    <path d="M -255.72193 -1189.23505 L -266.38581 -1186.28061" />
    <path d="M 10.99773 -1161.68896 A 200 88.93498 180 0 0 -255.72193 -1189.23505" />
    <path d="M 1007.15378 -471.15242 A 200 88.93498 180 0 0 973.49682 -520.52934 L 10.99773 -1161.68896" />
    <path d="M 1091.93742 494.39862 L 1086.3854 490.7002" />
    <path d="M 1091.93742 494.39862 L 1091.93742 1076.59845 L 759.25134 1175.3523 L 680.15053 913.01862 A 100 74.49607 123.66919 0 1 723.83863 791.32729 L 757.58208 762.87023 L 935.96311 732.56523 A 100 74.49607 303.66919 0 0 1019.27102 662.12365 L 1091.93742 494.39862 Z" />
    <path d="M 759.25134 1175.3523 L 753.69932 1171.65387 L 674.5985 909.32019" />
    <path d="M 680.15053 913.01862 L 674.5985 909.32019" />
    <path d="M 718.28661 787.62886 A 100 74.49607 303.66919 0 0 674.5985 909.32019" />
    <path d="M 723.83863 791.32729 L 718.28661 787.62886 L 752.03006 759.1718 L 930.41108 728.8668 A 100 74.49607 303.66919 0 0 1013.719 658.42522 L 1086.3854 490.7002" />
    <path d="M 757.58208 762.87023 L 752.03006 759.1718" />
    <path d="M 935.96311 732.56523 L 930.41108 728.8668" />
    <path d="M 1019.27102 662.12365 L 1013.719 658.42522" />
    <path d="M 150.8096 -1007.47778 C 114.78 -1110.93 154.94 -1084.17 150.48815 -995.26201 L 150.48815 -1004.21893 C 146.04 -915.31 186.2 -888.55 150.16669 -992.00316 C 146.04 -915.31 186.2 -888.55 155.46887 -952.71029" />
    <path d="M 1.91251 -1137.9634 C 114.78 -1119.89 154.94 -1093.13 3.70839 -1137.56467" />
    <path d="M 81.54355 -1114.69553 C 114.78 -1119.89 154.94 -1093.13 131.41458 -1081.47442" />
    <path d="M 149.06144 -1040.73912 C 114.78 -1119.89 154.94 -1093.13 150.8096 -1016.4347 C 114.78 -1119.89 154.94 -1093.13 150.48815 -1004.21893" />
    <path d="M 150.48815 -995.26201 C 146.04 -906.35 186.2 -879.59 150.21441 -987.60918" />
    <path d="M 397.87211 -851.76433 C 558.94 -824.01 599.1 -797.26 447.87041 -841.69036" />
    <path d="M 525.70556 -818.82123 C 558.94 -824.01 599.1 -797.26 575.57659 -785.60012" />
    <path d="M 593.22345 -744.86481 C 558.94 -824.01 599.1 -797.26 594.56676 -732.91913" />
    <path d="M 754.31892 -572.20937 C 590.2 -619.43 630.36 -592.68 816.73117 -560.40748 C 1003.1 -528.14 1043.26 -501.38 892.03242 -545.81606" />
    <path d="M 1039.13363 -415.72917 C 1003.1 -519.18 1043.26 -492.43 1038.81218 -403.5134 L 1038.81218 -412.47032 C 1034.36 -323.56 1074.52 -296.8 1038.49072 -400.25456 C 1034.36 -323.56 1074.52 -296.8 1260.89319 -264.53317 C 1447.26 -232.26 1487.43 -205.51 1483.29565 -128.81179 C 1447.26 -232.26 1487.43 -205.51 1482.97419 -116.59602 C 1478.52 -27.68 1518.69 -0.93 1482.65274 -104.38025 C 1478.52 -27.68 1518.69 -0.93 1705.0552 31.34113 L 1555.34647 75.78036 L 877.09844 -376.02811" />
    <path d="M 969.86758 -522.94693 C 1003.1 -528.14 1043.26 -501.38 1039.13363 -424.68609 C 1003.1 -528.14 1043.26 -501.38 1038.81218 -412.47032" />
    <path d="M 1038.81218 -403.5134 C 1034.36 -314.6 1074.52 -287.85 1038.53845 -395.86057" />
    <path d="M 1483.29565 -119.85487 C 1447.26 -223.31 1487.43 -196.55 1482.97419 -107.6391 L 1482.97419 -116.59602" />
    <path d="M 1705.0552 40.29805 L 1705.0552 31.34113" />
    <path d="M 1482.97419 -107.6391 C 1478.52 -18.73 1518.69 8.03 1482.70046 -99.98627" />
    <path d="M 1555.34647 84.73728 L 1555.34647 75.78036" />
    <path d="M 1705.0552 40.29805 L 1555.34647 84.73728 L 867.79717 -373.26714" />
    <path d="M 844.61584 -388.70917 L 757.4279 -446.78858" />
    <path d="M 853.91711 -391.47014 L 757.4279 -455.7455" />
    <path d="M 80.08083 -488.30926 C 114.78 -492.9 154.94 -466.15 137.99097 -445.28115" />
    <path d="M 509.10187 -198.06916 C 558.94 -197.03 599.1 -170.27 542.50464 -184.0398" />
    <path d="M 757.4279 55.42454 C 590.2 7.55 630.36 34.31 816.73117 66.57695 C 1003.1 98.85 1043.26 125.6 1039.13363 202.29833 C 1003.1 98.85 1043.26 125.6 1038.81218 214.5141 C 1034.36 303.43 1074.52 330.18 1038.49072 226.72987 C 1034.36 303.43 1074.52 330.18 1260.89319 362.45125 C 1447.26 394.72 1487.43 421.48 1483.29565 498.17264 C 1447.26 394.72 1487.43 421.48 1482.97419 510.3884 C 1478.52 599.3 1518.69 626.06 1482.65274 522.60417 C 1478.52 599.3 1518.69 626.06 1705.0552 658.32556 L 1555.34647 702.76479 L 757.4279 171.23893" />
    <path d="M 1039.13363 211.25525 C 1003.1 107.8 1043.26 134.56 1038.81218 223.47102 L 1038.81218 214.5141" />
    <path d="M 1038.81218 223.47102 C 1034.36 312.38 1074.52 339.14 1038.53845 231.12385" />
    <path d="M 1483.29565 507.12956 C 1447.26 403.68 1487.43 430.43 1482.97419 519.34532 L 1482.97419 510.3884" />
    <path d="M 1705.0552 667.28248 L 1705.0552 658.32556" />
    <path d="M 1482.97419 519.34532 C 1478.52 608.26 1518.69 635.01 1482.70046 526.99816" />
    <path d="M 1555.34647 711.72171 L 1555.34647 702.76479" />
    <path d="M 1705.0552 667.28248 L 1555.34647 711.72171 L 757.4279 180.19585" />
    <path d="M 681.43592 -685.33459 L 688.09835 -680.89647" />
    <path d="M 639.51813 -713.25772 L 646.18056 -708.81961" />
    <path d="M 342.76239 -910.93874 L 349.42482 -906.50063" />
    <path d="M 300.8446 -938.86188 L 307.50703 -934.42377" />
    <path d="M 4.08885 -1136.5429 L 10.75128 -1132.10479" />
    <path d="M -334.58469 -1362.14706 L -327.92226 -1357.70894" />
    <path d="M -376.50248 -1390.07019 L -369.84005 -1385.63208" />
    <path d="M 150.8096 -1007.47778 L 150.8096 -1016.4347" />
    <path d="M 1039.13363 -415.72917 L 1039.13363 -424.68609" />
    <path d="M 1483.29565 -119.85487 L 1483.29565 -128.81179" />
    <path d="M 1039.13363 211.25525 L 1039.13363 202.29833" />
    <path d="M 1483.29565 507.12956 L 1483.29565 498.17264" />
</svg>