<svg version="1.1" xmlns="http://www.w3.org/2000/svg" viewBox="-1446.532459841009 -1279.9230392928037 2893.064919682018 2925.2481562601442" fill="none" stroke="black" stroke-width="0.6%" vector-effect="non-scaling-stroke">
    <path d="M 631.53449 189.46218 L 629.57897 187.63974 L 91.92581 298.16758 L 95.92188 301.8917 L -38.49141 329.52365 L 0.02389 365.41784 L 1445.53246 68.25799 L 1321.25117 -47.5655" />
    <path d="M 631.53449 189.46218 L 631.53449 -175.93989 L 1321.25117 -317.72813 L 1062.10191 -559.24135 L 372.38523 -417.45312 L 631.53449 -175.93989" />
    <path d="M 372.38523 240.51224 L 372.38523 -417.45312" />
    <path d="M -556.78993 1035.49256 L -38.49141 1518.519 L -38.49141 329.52365" />
    <path d="M -466.27593 1016.88518 L -556.78993 1035.49256" />
    <path d="M 91.92581 302.71319 L 91.92581 298.16758" />
    <path d="M 1321.25117 47.67395 L 631.53449 189.46218" />
    <path d="M -48.02652 -1220.69735 L 734.08669 -491.80975" />
    <path d="M -137.18281 -1202.36908 L -48.02652 -1220.69735" />
    <path d="M -179.69417 -1241.98739 L -137.18281 -1202.36908 L -137.18281 -496.96089" />
    <path d="M -0.02389 -1278.92304 L -179.69417 -1241.98739 L -179.69417 -488.22164" />
    <path d="M 824.60069 -510.41713 L -0.02389 -1278.92304" />
    <path d="M 1321.25117 47.67395 L 1321.25117 -317.72813" />
    <path d="M -1312.5071 -960.75226 L -1223.35081 -979.08053 L -1265.86217 -1018.69884 L -1445.53246 -981.76319 L -556.78993 -153.50279 L -466.27593 -172.11017 L -1312.5071 -960.75226 Z" />
    <path d="M -1223.35081 -958.84354 L -1223.35081 -979.08053" />
    <path d="M -1445.53246 297.14408 L -1445.53246 -981.76319" />
    <path d="M -48.02652 -475.03435 L -48.02652 -1220.69735" />
    <path d="M -1445.53246 297.14408 L 0.02389 1644.32512 L 1445.53246 1347.16527 L 1445.53246 68.25799" />
    <path d="M 0.02389 1644.32512 L 0.02389 365.41784" />
    <path d="M -556.78993 -153.50279 L -556.78993 1035.49256" />
    <path d="M -466.27593 -172.11017 L -466.27593 1016.88518" />
    <path d="M -961.67016 -1007.80268 L -1290.46553 -940.2107" />
    <path d="M -961.67016 -1007.80268 A 900 732.44594 312.98257 0 0 -1129.31988 -790.03159" />
    <path d="M -965.92129 -1011.76451 L -1294.71667 -944.17253" />
    <path d="M -961.67016 -1007.80268 L -965.92129 -1011.76451" />
    <path d="M -426.72163 540.86666 L -426.72163 483.77258 L -38.49141 403.96231" />
    <path d="M -466.27593 504.00416 L -426.72163 540.86666 L -38.49141 461.05638" />
    <path d="M -466.27593 446.91009 L -426.72163 483.77258" />
    <path d="M 82.6029 304.62974 L -661.79917 -389.1131 L -692.37948 -382.82656" />
    <path d="M -658.17861 -385.73893 L -658.17861 -389.85739 L 86.22346 303.88544" />
    <path d="M 372.38523 -83.23313 L -83.41471 -508.01425 L -658.17861 -389.85739" />
</svg>